<svg width="75" height="75" viewBox="0 0 75 75" fill="none" xmlns="http://www.w3.org/2000/svg">
<path fill-rule="evenodd" clip-rule="evenodd" d="M31.351 2.92956C30.5665 4.54104 29.9245 5.95123 29.9245 6.06345C29.9245 6.17567 31.4408 7.83507 33.2943 9.75071L36.664 13.2336L32.9162 17.0203C30.855 19.1028 29.0756 20.8069 28.962 20.8069C28.8484 20.8069 28.7556 18.545 28.7556 15.7805C28.7556 12.7806 28.6665 10.7541 28.5346 10.7541C28.4131 10.7541 27.3348 11.2271 26.1383 11.805C24.9418 12.3829 23.8316 12.8563 23.6707 12.857C23.4566 12.8579 23.3785 12.2431 23.3785 10.5594C23.3785 9.29483 23.3205 8.20235 23.2495 8.13128C23.1251 8.0069 19.9035 9.25999 18.7028 9.89986C18.3814 10.071 16.938 10.67 15.4953 11.231L12.8722 12.2508L12.8067 14.9321L12.7413 17.6136L12.0399 18.0241C11.6542 18.2497 10.5496 18.7692 9.58519 19.1786C6.93149 20.3047 7.01355 20.1656 7.01355 23.5347V26.4236L5.72773 26.9924L4.44192 27.5609V30.2485C4.44192 31.7922 4.54174 32.9978 4.67617 33.0808C4.80522 33.1605 6.51465 32.5539 8.47518 31.7326C10.4359 30.9113 12.3555 30.14 12.7413 30.0182L13.4426 29.7971L13.509 27.0008C13.5455 25.4627 13.6706 24.1091 13.7868 23.9929C14.0161 23.7635 15.5547 23.08 20.1326 21.173L23.0823 19.9444L23.2303 21.6967C23.3119 22.6606 23.3785 23.8601 23.3785 24.3623V25.2757L20.9411 26.431C19.6003 27.0667 18.3905 27.5866 18.2525 27.5866C17.5998 27.5866 18.1597 28.4016 19.8133 29.8588C20.8099 30.7369 21.6635 31.5579 21.7102 31.6835C21.757 31.809 20.4812 32.4377 18.8749 33.0806C17.2688 33.7235 15.9418 34.3547 15.9261 34.4833C15.9102 34.6119 16 34.7171 16.1256 34.7171C16.4681 34.7171 19.8717 37.861 19.8717 38.1773C19.8717 38.4749 13.7971 44.6529 13.5044 44.6529C13.4062 44.6529 13.3257 42.6078 13.3257 40.1079C13.3257 37.6081 13.2467 35.5176 13.1504 35.4622C13.0541 35.4067 11.8704 35.8161 10.5203 36.3718C9.17022 36.9275 7.86523 37.3874 7.62069 37.3939C7.37592 37.4002 6.61939 36.8796 5.93954 36.2367C5.25993 35.5938 4.55367 35.0678 4.37038 35.0678C4.16558 35.0678 3.78966 35.7665 3.39573 36.8796C2.36661 39.7879 1.40061 42.3953 1.16589 42.8996C0.764711 43.7606 0 45.8366 0 46.0643C0 46.4914 0.442321 46.2831 3.29263 44.5145C4.86577 43.5383 6.27619 42.6922 6.42675 42.6342C6.59882 42.5683 6.81343 43.0337 7.0028 43.8833C7.16878 44.6279 7.61321 46.1136 7.99054 47.1848C8.52895 48.7133 8.61708 49.2036 8.40083 49.4642C8.24934 49.6468 8.02631 49.7962 7.90568 49.7962C7.78481 49.7962 7.14026 50.0438 6.47304 50.3465C5.80605 50.6491 4.44121 51.2436 3.44061 51.6672C2.43978 52.0911 1.56379 52.5301 1.49412 52.643C1.21872 53.0886 5.65994 60.5515 6.1953 60.5428C6.32389 60.541 6.9025 59.8431 7.48112 58.9924C8.05974 58.1419 8.82422 57.1186 9.18004 56.7186C9.53609 56.3188 10.1147 55.5445 10.4659 54.9984C10.8172 54.452 11.1658 54.0051 11.2404 54.0048C11.3152 54.0046 11.7327 54.5039 12.1687 55.1148C12.6045 55.7257 13.4354 56.7352 14.0149 57.3585L15.0689 58.4916L14.1389 59.3314C13.6273 59.7931 12.2723 61.0427 11.1275 62.1083L9.04608 64.0456L10.543 65.4224C12.8049 67.5024 15.6344 69.6679 16.0905 69.6679C16.1962 69.6679 16.533 68.8527 16.8393 67.8561C17.1456 66.8597 17.5203 65.8339 17.672 65.5767C17.824 65.3195 18.1791 64.3989 18.4613 63.5311C18.7437 62.6633 19.0212 61.953 19.0783 61.953C19.1351 61.953 19.6817 62.2948 20.293 62.7128C20.9044 63.1306 22.1642 63.8395 23.0928 64.2879C24.0214 64.7363 24.7812 65.2125 24.7812 65.346C24.7812 65.4797 24.0712 66.466 23.2032 67.5377C22.3351 68.6094 21.2831 69.9097 20.8653 70.4271C20.4473 70.9444 20.1055 71.4971 20.1055 71.6549C20.1055 72.1624 24.6858 74.003 27.6727 74.6957C28.5557 74.9005 29.312 75.034 29.3536 74.9924C29.4854 74.8605 29.9245 71.0061 29.9245 69.98C29.9245 69.4379 30.0101 68.9413 30.1148 68.8766C30.2195 68.8118 30.7191 69.2897 31.2253 69.9382C33.2851 72.5781 33.9909 73.4085 34.174 73.4085C34.2799 73.4085 34.3664 70.7258 34.3664 67.447V61.4855H33.6905C32.3591 61.4855 28.3663 60.2925 26.2849 59.2729C22.6075 57.4714 19.0163 54.3641 16.879 51.1346L16.2817 50.2318L20.7639 45.7496L25.246 41.2673L27.0426 43.0756L28.8393 44.8839L27.044 46.7287C26.0567 47.7434 25.2488 48.6995 25.2488 48.8534C25.2488 49.1748 26.7104 50.646 29.2051 52.8354C30.1576 53.6712 31.4717 54.8392 32.1256 55.4307C34.29 57.3891 35.0102 57.9787 35.238 57.9787C35.3651 57.9787 35.187 56.3763 34.8281 54.2966C33.7237 47.8939 33.6405 48.7739 35.5351 46.8155C36.4368 45.8831 37.3095 45.1205 37.4743 45.1205C37.7441 45.1205 38.9848 46.3201 40.3943 47.9435C40.9517 48.5854 40.9503 48.7835 40.334 55.9331C40.2337 57.0976 40.2725 57.2773 40.6237 57.2773C40.9767 57.2773 48.9375 49.4935 49.4259 48.671C49.55 48.462 49.0039 47.8023 47.7151 46.6051C46.6738 45.6377 45.8219 44.7212 45.8219 44.5683C45.8219 44.4157 46.6051 43.5128 47.5622 42.562C49.1423 40.9921 49.3413 40.8638 49.7247 41.1637C49.9568 41.3456 51.9354 43.1696 54.1212 45.2173C56.3071 47.2653 58.2314 49.0621 58.3972 49.2108C58.6387 49.4273 58.4993 49.7801 57.6968 50.9829C56.0593 53.4372 52.7253 56.5334 50.1469 57.9944C49.6326 58.2859 48.7909 58.7605 48.2766 59.0492C47.1093 59.7045 43.6972 60.905 42.3705 61.1271C41.7956 61.2232 41.282 61.4654 41.1569 61.6994C41.0375 61.9224 40.9757 62.8335 41.0195 63.724C41.0634 64.6145 41.1099 67.1576 41.1228 69.3757C41.1415 72.6244 41.2086 73.4085 41.4667 73.4085C41.643 73.4085 42.605 72.3541 43.6047 71.0658C44.6043 69.7771 45.4518 68.7524 45.4878 68.7885C45.524 68.8245 45.7644 70.1521 46.022 71.7383C46.2799 73.3248 46.5244 74.6537 46.5655 74.6915C46.8725 74.9737 55.4071 71.7232 55.4071 71.3239C55.4071 71.2441 55.036 70.6548 54.5827 70.0142C53.7977 68.9056 51.4746 65.4276 51.1166 64.8253C51.0063 64.6397 51.3352 64.3437 52.067 63.9701C52.6825 63.6562 54.0123 62.8043 55.0223 62.0769C56.032 61.3496 56.8902 60.7876 56.929 60.8278C57.0482 60.9515 58.8512 66.5125 59.0176 67.2702C59.1037 67.6623 59.3592 68.1505 59.5855 68.3552C59.9661 68.6998 60.0996 68.6524 61.384 67.7158C63.2136 66.3816 66.6603 62.8739 66.5752 62.4325C66.5385 62.2411 65.0982 61.1332 63.3749 59.9703C61.6515 58.8075 60.2469 57.7685 60.2534 57.6615C60.26 57.5546 60.7271 56.9246 61.2914 56.2618C61.8556 55.5988 62.7351 54.3999 63.2456 53.5973C63.7562 52.795 64.2792 52.168 64.4078 52.2042C64.5364 52.2402 64.9046 52.7917 65.226 53.4292C65.9019 54.77 68.7613 59.6152 68.8766 59.6152C68.9194 59.6152 69.4938 58.8526 70.1533 57.9202C71.5754 55.9097 73.4649 52.056 73.3634 51.3733C73.2937 50.9053 72.4685 50.5181 66.9161 48.3498L65.9176 47.9598L66.2687 47.0661C66.4616 46.5747 66.8815 45.0798 67.2015 43.7442C67.5218 42.4088 67.8131 41.2895 67.8491 41.257C67.8851 41.2245 69.2822 41.8113 70.9538 42.5613C74.1662 44.0023 75.2231 44.2635 74.9269 43.5425C74.8344 43.3173 74.0322 41.0819 73.1446 38.5745C71.2801 33.3081 70.8495 32.2623 70.5458 32.2623C70.4249 32.2623 69.6782 32.8501 68.8864 33.5685C67.4603 34.8627 67.4365 34.8732 66.3108 34.726C65.6859 34.6441 64.9495 34.43 64.6743 34.25C64.3991 34.0697 63.7471 33.8544 63.2251 33.771L62.2764 33.6197L62.0019 35.8049C61.8509 37.0068 61.6166 38.9369 61.481 40.0941C61.3457 41.2514 61.1741 42.5414 61.0997 42.961L60.9648 43.7236L58.1863 40.857C56.658 39.2801 55.4085 37.9375 55.4092 37.8732C55.4101 37.8089 56.305 36.7569 57.398 35.5353C58.4909 34.3138 59.358 33.1652 59.3248 32.9831C59.2577 32.6142 59.0607 32.5466 55.8162 31.7821C54.5624 31.4866 53.5368 31.1946 53.5368 31.1329C53.5368 31.0714 54.3784 30.2394 55.4071 29.2837C56.4357 28.328 57.2773 27.4106 57.2773 27.2451C57.2773 26.9664 56.6545 26.7352 52.7185 25.5532L51.3158 25.1319L51.1611 23.963C50.931 22.2269 50.9359 19.6835 51.1697 19.5391C51.2822 19.4696 51.8346 19.5571 52.3971 19.7336C53.3811 20.0422 56.2192 20.8819 58.9138 21.6616C61.0177 22.2704 60.8933 22.0632 60.9667 25.0849C61.023 27.4071 61.0899 27.8111 61.4343 27.9167C63.3948 28.5176 69.3771 30.1583 69.6079 30.1583C70.0282 30.1583 70.0298 24.3419 69.6095 24.201C69.4489 24.147 68.87 23.9885 68.3237 23.8486L67.3301 23.5943L67.3266 20.9731C67.3245 19.5316 67.2457 18.2408 67.1512 18.1048C67.0568 17.9687 65.8222 17.4897 64.4078 17.0406L61.8361 16.2237V13.6778V11.1319L59.6152 10.475C54.8565 9.06735 51.6536 8.18248 51.317 8.18248C51.0271 8.18248 50.9651 8.59464 50.9651 10.5203C50.9651 12.4624 50.9046 12.8582 50.6077 12.8582C50.4111 12.8582 49.1269 12.4939 47.7543 12.0488C46.3816 11.6037 45.2112 11.2869 45.1532 11.3449C45.0953 11.4026 45.0717 13.5104 45.1006 16.0285C45.1511 20.3954 45.1338 20.5962 44.728 20.3716C44.4937 20.2418 42.7488 18.5742 40.8502 16.6656L37.3979 13.1955L40.7183 9.86129L44.0388 6.52704L43.0265 4.02321C41.5801 0.44536 41.3606 0 41.0447 0C40.8897 0 40.1685 0.875057 39.4421 1.94439C37.3401 5.03877 37.4783 4.99762 35.857 3.01372C34.0737 0.831574 33.2868 0 33.0055 0C32.8802 0 32.1356 1.31831 31.351 2.92956ZM31.4441 27.1953C28.3581 30.2719 25.7446 32.9417 25.6362 33.1283C25.4898 33.3801 26.3621 34.3627 29.0261 36.9467C30.999 38.8602 32.7299 40.4301 32.8727 40.4352C33.1479 40.4453 36.2928 37.3324 36.4401 36.9044C36.4875 36.7664 35.6459 35.7619 34.5698 34.672L32.613 32.6906L34.6988 30.7409L36.7847 28.7909L38.828 30.5386C39.952 31.4997 40.9224 32.4192 40.9849 32.5815C41.047 32.7437 40.3029 33.7464 39.3313 34.8094L37.5644 36.7424L39.3313 38.5093L41.098 40.276L44.7458 36.5633C46.7521 34.5212 48.3935 32.7652 48.3935 32.6614C48.3935 32.5574 47.7885 31.9292 47.0492 31.2657C46.31 30.602 43.7587 28.1561 41.38 25.8302L37.0549 21.6015L31.4441 27.1953Z" fill="#D2D2D2"/>
</svg>
