<svg width="85" height="75" viewBox="0 0 85 75" fill="none" xmlns="http://www.w3.org/2000/svg">
<path fill-rule="evenodd" clip-rule="evenodd" d="M28.3147 1.90421C27.2903 2.95151 26.452 3.91363 26.452 4.04233C26.452 4.17103 27.267 5.08457 28.2631 6.0727C29.2592 7.06061 30.0742 7.93985 30.0742 8.02641C30.0742 8.23316 26.6021 11.7416 26.3977 11.7416C26.311 11.7416 25.3963 10.9662 24.3651 10.0183C23.3339 9.07049 22.3831 8.29348 22.2523 8.29164C21.9854 8.28772 18.7548 11.8869 18.7548 12.188C18.7548 12.2941 19.5698 13.1874 20.5659 14.1733C21.562 15.1591 22.377 16.066 22.377 16.1889C22.377 16.3118 21.5462 17.2924 20.5308 18.3678L18.6846 20.3235L20.5007 22.1336C21.4995 23.1291 22.4223 23.9436 22.5513 23.9436C22.6804 23.9436 23.2796 23.4042 23.8832 22.7451C24.4867 22.0859 26.2184 20.2545 27.7313 18.6751L30.4822 15.8035L32.3723 17.4934C33.4119 18.4228 34.2973 19.2728 34.3398 19.3824C34.3824 19.4917 33.8141 20.2262 33.0772 21.0142C32.3401 21.8023 30.0285 24.286 27.9405 26.5337C25.8523 28.7812 24.0738 30.6202 23.9884 30.6202C23.9029 30.6202 23.6525 30.931 23.4317 31.3109C23.211 31.6908 22.9427 32.0016 22.8354 32.0016C22.7281 32.0016 22.2385 31.6132 21.7474 31.1382C21.2562 30.6635 19.501 28.9826 17.8467 27.403L14.8392 24.5314L13.0668 26.4821C12.0919 27.5552 11.2921 28.5224 11.2892 28.6318C11.284 28.8321 12.1042 29.6634 16.6582 34.0736L19.1546 36.491L17.3727 38.4362L15.591 40.3814L14.8573 39.7025C14.4536 39.329 13.3063 38.2336 12.3077 37.2683C11.3089 36.3027 10.0334 35.0894 9.47331 34.5716L8.45524 33.6304L8.03552 34.4853C7.8046 34.9552 6.8463 36.7903 5.90588 38.5631C4.96547 40.3358 3.84054 42.4597 3.40587 43.2827C2.97098 44.1058 2.53926 44.8828 2.44599 45.0094C1.88704 45.7692 -0.111068 49.7289 0.00484239 49.8467C0.0641562 49.9071 2.93182 48.9878 6.37745 47.8042C9.82308 46.6203 12.6423 45.7452 12.6423 45.8594C12.6423 46.1016 10.5244 52.4156 9.49844 55.2324C9.11087 56.2966 8.79369 57.2469 8.79369 57.3446C8.79369 57.4419 9.52085 57.1152 10.4097 56.6184C11.2987 56.1216 12.0786 55.715 12.1429 55.715C12.2074 55.715 12.5939 55.456 13.002 55.1394C13.4102 54.8229 13.7923 54.5639 13.8512 54.5639C13.9508 54.5639 18.7951 51.7516 20.1473 50.909C21.91 49.8104 22.9287 49.2638 23.1035 49.323C23.2955 49.3881 21.996 52.077 18.1438 59.5856C17.084 61.651 16.2729 63.3977 16.341 63.467C16.4092 63.5363 16.7508 63.3876 17.1003 63.1366C17.4501 62.8854 18.3473 62.3573 19.0944 61.9624C20.4522 61.2451 21.3954 60.7022 23.7353 59.2911C26.0196 57.9137 29.8483 55.9068 30.045 55.9841C30.2245 56.0546 28.8974 59.6834 26.6487 65.2694C26.1391 66.5357 25.6107 67.8526 25.4747 68.1961C25.3386 68.5394 25.2845 68.8785 25.3542 68.9496C25.4242 69.0205 26.1835 68.7567 27.042 68.3632C27.9004 67.9695 29.0611 67.46 29.6214 67.2307C30.1817 67.0017 31.5061 66.433 32.5645 65.9675C36.7296 64.1351 38.034 63.6901 38.2414 64.0308C38.3478 64.2056 38.9525 65.6954 39.5855 67.3415C40.2182 68.9876 40.8331 70.5142 40.9517 70.7341C41.0701 70.954 41.1672 71.2489 41.1672 71.3893C41.1672 71.8196 42.8384 75.0631 43.0272 74.9991C43.1871 74.9447 44.571 71.0677 46.4181 65.4997C46.7959 64.36 47.1373 63.3917 47.1767 63.3477C47.2532 63.2623 49.6828 64.2138 51.3547 64.984C52.3947 65.4633 53.2663 65.8436 58.0243 67.8954C59.5239 68.5421 60.8184 68.9754 60.9257 68.8663C61.1057 68.6832 59.2287 64.1853 57.4074 60.4347C56.1397 57.8239 55.3552 55.9441 55.4807 55.8168C55.621 55.674 58.7581 57.0616 62.7873 59.0489C65.9787 60.6232 68.6705 61.6657 68.9111 61.421C68.9942 61.3362 68.8593 60.9762 68.6112 60.6207C68.3628 60.265 67.671 59.0418 67.0733 57.9022C66.4759 56.7625 65.8275 55.5536 65.6324 55.2156C63.5559 51.6193 62.6551 49.902 62.779 49.7761C62.8607 49.6929 63.4561 49.9011 64.1024 50.2384C65.2738 50.8496 67.3513 51.826 70.145 53.0784C70.9543 53.441 72.0749 53.9915 72.6352 54.3012C75.0024 55.61 75.3338 55.7482 75.6564 55.5605C75.9319 55.4003 75.8753 55.0932 75.3021 53.643C74.2845 51.0683 73.3151 48.3641 72.9909 47.1966C72.8326 46.6268 72.4856 45.6168 72.2198 44.9519C71.6953 43.6407 71.748 43.5827 73.0269 44.0653C73.4962 44.2423 75.3576 44.8204 77.163 45.3502C78.9684 45.8797 81.1959 46.5637 82.1128 46.8699C83.9329 47.4779 84.6338 47.5629 84.6338 47.1754C84.6338 46.9403 83.1218 44.1014 81.4569 41.2107C79.6066 37.9976 78.1718 35.4467 77.4424 34.0736C77.0052 33.2506 76.5819 32.5012 76.5017 32.4084C76.4214 32.3156 75.646 33.0291 74.7785 33.9942C73.9109 34.9591 72.626 36.3766 71.923 37.1442L70.6448 38.5398L68.8102 36.858C67.8012 35.933 66.9755 34.9941 66.9755 34.7715C66.9755 34.5491 67.6633 33.6986 68.5036 32.8815C71.0181 30.4372 73.7672 27.4035 73.7672 27.0733C73.7672 26.606 70.1785 23.2032 69.8153 23.3264C69.6888 23.3692 68.7687 24.3286 67.7708 25.4583C66.7731 26.5878 65.2219 28.2259 64.3241 29.0984L62.6911 30.6845L62.0602 30.2648C61.7129 30.0341 61.3167 29.7345 61.1793 29.5996C61.0421 29.4645 59.6215 28.1108 58.023 26.5913C56.4242 25.0718 54.6917 23.4141 54.1728 22.9076C53.6539 22.4011 52.6549 21.4344 51.9526 20.7596C51.2501 20.0846 50.6756 19.424 50.6756 19.2917C50.6756 19.1591 51.4258 18.2704 52.3427 17.3165L54.0098 15.5822L57.7991 19.2449C59.8832 21.2594 61.7575 22.9375 61.9642 22.9739C62.1811 23.0124 62.4998 22.7649 62.7185 22.3887C62.9266 22.0302 63.6641 21.1915 64.3571 20.525C65.0501 19.8585 65.6172 19.1701 65.6172 18.9956C65.6172 18.8209 64.8531 17.9743 63.9193 17.1142C62.9854 16.254 62.2214 15.4577 62.2214 15.3444C62.2214 15.2314 63.042 14.2838 64.0451 13.2385L65.8689 11.3385L64.5545 10.0651C62.7941 8.35955 61.6848 7.37533 61.5182 7.37096C61.4426 7.36888 60.5873 8.25158 59.6172 9.33226C58.6474 10.4129 57.778 11.2676 57.6854 11.2316C57.5929 11.1955 56.7434 10.4238 55.798 9.51667L54.0791 7.8671L55.9642 5.84386L57.8493 3.82039L56.2803 2.31309C53.7716 -0.0966953 53.9297 -0.0672262 52.3778 1.58742C51.6493 2.36397 50.9115 3.20522 50.7383 3.45663C50.5651 3.70804 50.3299 3.91386 50.2155 3.91386C50.101 3.91386 49.1135 3.08412 48.0209 2.06997C46.9284 1.05582 45.9144 0.25302 45.7677 0.285712C45.621 0.318404 44.779 1.17416 43.8966 2.18716L42.2926 4.02898L46.0633 7.77823L49.8341 11.5275L49.2925 12.138C48.9948 12.4739 48.1801 13.3661 47.4819 14.1208L46.2125 15.4929L44.4005 13.7324C43.404 12.764 42.447 11.972 42.2741 11.972C42.1011 11.9723 41.2179 12.7465 40.3113 13.6928L38.6629 15.4128L37.4814 14.293C36.8317 13.6771 35.9524 12.8497 35.5275 12.4544C34.8179 11.7941 34.779 11.69 35.0484 11.178C35.2098 10.8716 36.0529 9.86271 36.9222 8.93627C40.0285 5.62606 41.3936 4.05776 41.3936 3.79944C41.3936 3.65532 40.6155 2.76733 39.6645 1.82616L37.9353 0.115114L36.261 1.95693C35.3402 2.96993 34.4464 3.77043 34.2748 3.7359C34.1035 3.70113 33.1723 2.84653 32.2059 1.83652C31.2392 0.826286 30.3875 0 30.313 0C30.2383 0 29.3391 0.856906 28.3147 1.90421ZM40.4084 21.6941L38.6591 23.5983L40.5014 25.363L42.3438 27.1279L41.3714 28.2408C40.8367 28.853 39.9873 29.7834 39.4836 30.308L38.5678 31.2621L36.9141 29.6174C36.0042 28.7128 35.1589 27.9367 35.0351 27.8927C34.7885 27.8052 31.4325 31.1431 31.4325 31.4758C31.4325 31.6551 33.2133 33.3981 37.7252 37.635L38.924 38.7608L40.5603 37.108C41.4604 36.1989 42.3918 35.455 42.6306 35.455C42.8692 35.455 43.427 35.8503 43.8703 36.3335C44.3136 36.817 45.1453 37.594 45.7186 38.0605L46.7608 38.9089L50.5116 35.082C52.5747 32.9775 54.2104 31.1385 54.1465 30.9955C54.0053 30.6787 50.774 27.8575 50.5526 27.8575C50.4657 27.8575 49.6455 28.6345 48.7295 29.5842C47.8138 30.5339 47.0115 31.3109 46.9465 31.3109C46.8817 31.3109 45.9667 30.4687 44.9128 29.4392L42.9969 27.5676L43.6482 26.6189C44.0064 26.0972 44.712 25.2559 45.2162 24.7494C45.7204 24.2429 46.1362 23.7238 46.1403 23.5958C46.1471 23.3851 42.6883 20.0012 42.3143 19.8523C42.2283 19.818 41.3705 20.6468 40.4084 21.6941ZM69.8054 24.1739C69.7284 24.3005 69.7735 24.4041 69.9052 24.4041C70.037 24.4041 70.145 24.3005 70.145 24.1739C70.145 24.0472 70.1001 23.9436 70.0451 23.9436C69.9901 23.9436 69.8823 24.0472 69.8054 24.1739ZM52.7282 41.0965C49.5398 44.3473 46.7921 46.9664 46.5705 46.9664C46.3504 46.9664 46.0889 46.8347 45.9893 46.674C45.8897 46.513 45.074 45.725 44.1768 44.9226C42.2933 43.2383 42.5439 43.1922 40.2907 45.6361L39.0761 46.9535L38.2538 46.1831C37.8018 45.7593 36.826 44.8644 36.0857 44.194C33.1737 41.5574 29.6386 37.9154 29.7745 37.6917C29.8562 37.5572 29.8066 37.5257 29.6592 37.6184C29.5112 37.7115 28.9282 37.3318 28.2955 36.7298L27.1902 35.6783L25.2365 37.8045C24.1618 38.974 23.2826 39.993 23.2826 40.0694C23.2826 40.2651 26.1525 43.056 33.4761 49.9823C39.1365 55.3358 38.7383 55.0082 39.2405 54.7239C39.4908 54.5821 39.7797 54.4907 39.8823 54.5206C39.985 54.5507 40.0136 54.484 39.9459 54.3725C39.7931 54.1211 41.1824 52.446 42.0868 51.791L42.7572 51.3057L44.6034 53.0499C45.6187 54.0092 46.5641 54.7941 46.7045 54.7941C46.8446 54.7941 48.548 53.1936 50.4892 51.2373C52.4307 49.2811 54.0818 47.7443 54.1585 47.8223C54.2351 47.9002 54.2978 47.8249 54.2978 47.655C54.2978 47.4848 55.7161 45.8878 57.4498 44.1056C59.1832 42.3234 61.0217 40.3991 61.5352 39.8293L62.4688 38.7933L60.5907 37.0134C59.5577 36.0345 58.6614 35.2321 58.5991 35.2301C58.5369 35.228 55.8949 37.868 52.7282 41.0965ZM61.429 42.3618C61.506 42.4884 61.6137 42.592 61.6687 42.592C61.7238 42.592 61.7686 42.4884 61.7686 42.3618C61.7686 42.2352 61.6606 42.1316 61.5288 42.1316C61.3971 42.1316 61.352 42.2352 61.429 42.3618Z" fill="#D2D2D2"/>
</svg>
