<svg width="273" height="266" viewBox="0 0 273 266" fill="none" xmlns="http://www.w3.org/2000/svg">
<path opacity="0.07" fill-rule="evenodd" clip-rule="evenodd" d="M131.904 6.68406C127.835 10.7033 124.505 14.3342 124.505 14.7535C124.505 15.1729 127.43 18.4708 131.006 22.0824L137.507 28.6497L131.254 35.1432C127.816 38.7146 124.576 41.7458 124.054 41.8791C123.533 42.0116 116.99 36.2688 109.514 29.1161C97.1234 17.2589 93.79 14.6521 93.79 16.8168C93.79 17.2362 90.9164 20.535 87.4038 24.1491L81.0177 30.7181L74.3739 24.2254C70.7197 20.6549 67.312 17.7327 66.801 17.7327C66.2908 17.7327 62.6519 20.9552 58.7153 24.893C51.9964 31.6138 49.9206 34.5075 51.8164 34.5075C52.2626 34.5075 55.2104 37.3449 58.368 40.8122L64.1075 47.117L58.3134 53.1836C49.2363 62.6873 50.3728 62.5456 42.6369 55.1454C38.9699 51.6361 35.4855 48.766 34.8942 48.766C34.3029 48.766 30.3237 52.1511 26.0509 56.2878L18.2826 63.8104L25.3214 70.7736C29.1932 74.6041 32.3602 77.9842 32.3602 78.2853C32.3602 78.5864 29.0968 81.9749 25.1081 85.8163C21.1194 89.6569 17.856 93.2173 17.856 93.729C17.856 94.2398 22.1663 98.5802 27.4348 103.374C32.7032 108.168 38.9417 113.864 41.2991 116.03L45.5847 119.97L41.9842 123.585C39.0578 126.523 38.487 127.591 38.9332 129.291C39.4298 131.184 39.3436 131.27 38.0229 130.206C36.7397 129.171 36.2806 129.296 34.2023 131.254C32.9029 132.477 31.4669 133.478 31.0105 133.478C30.5549 133.478 27.5141 130.836 24.2549 127.607C20.9957 124.378 17.7621 121.736 17.0693 121.736C15.636 121.736 -0.0934327 136.808 0.000418275 138.091C0.109627 139.594 13.4749 150.666 15.479 150.914C16.9508 151.097 19.0914 149.496 24.1952 144.395C27.9168 140.676 31.2502 137.737 31.6017 137.862C33.0044 138.364 45.205 150.534 44.9764 151.203C44.8416 151.596 38.4375 158.157 30.7443 165.783C23.0519 173.409 17.013 179.922 17.3253 180.257C17.6376 180.593 20.8524 183.792 24.4682 187.368L31.0438 193.869L23.4538 201.365L15.8638 208.861L22.5178 214.993C26.1772 218.367 29.7409 221.453 30.4371 221.851C31.3774 222.389 33.489 220.829 38.6619 215.77C42.4885 212.027 46.0633 208.965 46.6051 208.965C47.838 208.965 59.6623 220.72 59.6623 221.946C59.6623 222.441 56.7828 225.658 53.2634 229.094C49.744 232.531 46.8636 235.73 46.8619 236.203C46.8611 236.676 49.9752 239.974 53.7821 243.534L60.7049 250.005L67.8973 243.534C71.8536 239.974 75.4404 237.062 75.8687 237.062C76.297 237.062 79.5152 239.798 83.021 243.143C86.5267 246.488 89.9071 249.224 90.5333 249.224C91.1587 249.224 97.7215 243.344 105.116 236.158C112.511 228.973 118.953 223.222 119.432 223.378C119.911 223.535 123.172 226.477 126.679 229.917L133.055 236.171L126.22 242.925C122.461 246.639 119.386 249.968 119.386 250.321C119.386 251.328 133.288 265.16 134.3 265.16C134.798 265.16 138.572 261.834 142.687 257.771L150.17 250.381L147.852 247.916C146.578 246.559 143.451 243.299 140.904 240.67L136.274 235.891L143.283 229.137C147.137 225.423 150.728 222.385 151.263 222.386C151.797 222.388 158.126 228.238 165.327 235.387C172.737 242.744 179.098 248.385 179.983 248.385C180.861 248.385 184.633 245.076 188.588 240.837C192.461 236.685 196.065 233.288 196.599 233.288C197.132 233.288 200.371 236.119 203.795 239.579C207.22 243.038 210.171 245.869 210.353 245.869C211.5 245.869 224.328 232.264 224.328 231.048C224.328 230.224 221.432 226.687 217.893 223.187L211.458 216.824L219.692 208.769L227.926 200.714L235.094 207.478C242.243 214.226 242.266 214.239 244.084 212.653C247.404 209.755 254.61 202.117 254.958 201.129C255.145 200.595 255.721 199.886 256.237 199.555C256.817 199.182 254.427 196.232 249.99 191.843L242.803 184.734L249.776 177.711C253.611 173.848 256.737 170.336 256.722 169.906C256.707 169.476 250.948 163.313 243.924 156.211C236.901 149.108 231.154 143.059 231.154 142.77C231.154 142.481 234.001 139.464 237.479 136.066L243.806 129.889L249.868 135.224C253.201 138.158 256.513 140.88 257.227 141.274C258.198 141.807 260.347 140.23 265.743 135.024C269.712 131.194 272.96 127.667 272.96 127.185C272.96 125.867 259.879 113.349 258.502 113.349C257.843 113.349 254.534 115.991 251.146 119.22C247.758 122.449 244.456 125.091 243.806 125.091C243.157 125.091 239.989 122.479 236.766 119.286L230.906 113.481L234.938 108.843C237.154 106.292 242.892 100.506 247.688 95.986C252.483 91.4661 256.679 87.0669 257.012 86.2114C257.48 85.0095 256.12 83.1408 251.044 78.0136L244.47 71.3733L249.543 66.2419C257.4 58.294 257.603 58.06 257.603 56.9227C257.603 55.231 245.37 43.7336 243.569 43.7336C242.678 43.7336 239.176 46.3756 235.788 49.6047C232.401 52.8339 229.272 55.4759 228.835 55.4759C227.855 55.4759 214.936 43.565 214.94 42.6659C214.942 42.3086 217.726 39.1566 221.129 35.6607C224.531 32.1649 227.314 28.7932 227.314 28.1675C227.314 27.0587 214.368 13.5391 213.305 13.5391C213.011 13.5391 209.716 16.5585 205.985 20.2489C202.253 23.9394 198.795 26.9588 198.302 26.9588C197.808 26.9588 194.93 24.5055 191.907 21.5071C188.716 18.3425 185.679 16.0553 184.668 16.0553C183.558 16.0553 178.293 20.6339 170.139 28.6908C163.107 35.6406 156.695 41.6854 155.89 42.124C154.705 42.7699 153.13 41.6225 147.572 36.0625C143.801 32.2898 140.715 28.9726 140.715 28.6917C140.715 28.4099 143.979 24.9886 147.968 21.0877L155.22 13.9953L148.607 7.41879C144.97 3.80132 141.389 0.5118 140.649 0.109207C139.616 -0.453586 137.584 1.07375 131.904 6.68406ZM168.112 59.2284L153.318 73.8853L146.899 67.6158C143.369 64.1685 140.062 61.347 139.549 61.347C139.037 61.347 135.479 64.4168 131.643 68.1685L124.668 74.9899L110.731 61.4586C103.066 54.0165 96.3956 47.9273 95.9084 47.9273C94.981 47.9273 83.3768 60.0269 82.7821 61.6138C82.393 62.6538 122.703 101.606 124.169 101.606C124.693 101.606 128.256 98.3982 132.085 94.4771C135.915 90.556 139.467 87.3479 139.979 87.3479C140.492 87.3479 143.959 90.2633 147.684 93.8271L154.458 100.307L173.822 81.1412C184.473 70.6 194.079 60.8916 195.169 59.5664L197.152 57.1575L190.875 50.8653C187.422 47.4039 184.216 44.5723 183.751 44.5723C183.286 44.5723 176.249 51.1681 168.112 59.2284ZM191.125 93.2484C166.288 117.153 167.865 113.739 177.311 123.158C180.177 126.015 182.522 128.806 182.522 129.36C182.522 129.914 179.642 133.197 176.123 136.657C172.603 140.117 169.731 143.365 169.739 143.875C169.749 144.384 179.255 154.122 190.865 165.515L211.974 186.227L219.004 179.652C222.871 176.035 226.029 172.564 226.021 171.939C226.014 171.314 219.871 164.639 212.37 157.106C204.869 149.573 198.732 143.112 198.732 142.748C198.732 142.384 201.606 139.489 205.118 136.314C208.629 133.14 211.509 129.927 211.517 129.174C211.524 128.422 208.463 124.77 204.714 121.06L197.899 114.314L212.568 100.088L227.237 85.8625L221.304 79.816C218.04 76.4896 214.788 73.4617 214.077 73.086C213.107 72.5727 207.391 77.5934 191.125 93.2484ZM57.5549 85.7509L50.9555 92.5422L53.8026 95.6061C61.8542 104.271 67.3035 109.553 70.8698 112.149C73.0455 113.733 75.4566 115.976 76.2287 117.134C77.6246 119.229 77.5955 119.278 70.567 126.425C66.6807 130.378 63.4002 133.879 63.2773 134.207C63.1536 134.536 66.1346 137.771 69.9032 141.397C73.6709 145.023 76.5154 148.216 76.2245 148.492C72.1795 152.335 47.2177 178.227 47.0155 178.789C46.7194 179.612 59.2306 192.19 60.3457 192.19C61.2885 192.19 104.881 149.029 104.887 148.089C104.89 147.665 101.729 144.366 97.8622 140.758L90.8319 134.198L94.7728 130.693C96.9408 128.766 100.546 125.198 102.784 122.768L106.854 118.347L86.4576 98.6658C75.2399 87.841 65.6321 78.979 65.1082 78.9731C64.5835 78.9664 61.1844 82.016 57.5549 85.7509ZM130.848 123.722L123.228 130.74L130.417 137.981C134.37 141.962 137.956 145.221 138.385 145.221C138.813 145.221 142.451 142.018 146.468 138.105L153.772 130.989L149.59 126.592C145.146 121.919 139.48 116.704 138.849 116.704C138.64 116.704 135.039 119.861 130.848 123.722ZM143.251 168.278C139.275 172.194 135.638 175.402 135.168 175.407C134.698 175.411 131.448 172.573 127.947 169.098C124.445 165.623 121.087 162.887 120.484 163.017C119.321 163.268 75.873 205.512 75.873 206.391C75.873 206.675 78.9453 209.91 82.701 213.58L89.5291 220.253L98.6984 211.373C113.359 197.173 119.743 191.39 120.778 191.37C121.31 191.36 125.039 194.642 129.067 198.664L136.389 205.977L144.41 198.245C148.821 193.992 152.773 190.512 153.191 190.512C153.61 190.512 155.23 191.928 156.793 193.658C162.98 200.507 180.431 217.346 181.238 217.245C181.71 217.188 184.925 214.191 188.384 210.588L194.673 204.035L192.804 201.677C188.674 196.466 152.427 161.157 151.208 161.157C150.807 161.157 147.226 164.361 143.251 168.278Z" fill="url(#paint0_linear_404_8)"/>
<defs>
<linearGradient id="paint0_linear_404_8" x1="136.48" y1="0" x2="136.48" y2="265.16" gradientUnits="userSpaceOnUse">
<stop stop-color="#AEB1B1"/>
<stop offset="1" stop-color="#4D4D4D"/>
</linearGradient>
</defs>
</svg>
