<svg width="273" height="266" viewBox="0 0 273 266" fill="none" xmlns="http://www.w3.org/2000/svg">
<g opacity="0.07">
<path fill-rule="evenodd" clip-rule="evenodd" d="M28.87 14.2085C28.6754 14.3973 28.5166 17.5193 28.5166 21.1454V27.7394L21.5148 27.8773L14.5129 28.015L14.3719 35.0769L14.2302 42.1387H21.3737H28.5166V49.0767V56.0146H35.9003H43.2841V49.0767V42.1387H50.4132H57.5423V34.953V27.7672H50.4274H43.3126L43.171 20.9531L43.0295 14.1391L36.1264 14.0018C32.3296 13.9265 29.064 14.0192 28.87 14.2085ZM42.7748 41.6431V34.953V28.2628H35.9003H29.0258V34.953V41.6431H35.9003H42.7748Z" fill="url(#paint0_linear_501_2)"/>
<path fill-rule="evenodd" clip-rule="evenodd" d="M229.491 14.2218C229.304 14.4032 229.151 17.5193 229.151 21.1454V27.7394L222.149 27.8773L215.147 28.015V34.953V41.8909L222.149 42.0287L229.151 42.1665V49.0905V56.0146H236.535H243.918V49.0767V42.1387H251.048H258.177V34.953V27.7672H251.048H243.918V20.8293V13.8913H236.874C233 13.8913 229.677 14.04 229.491 14.2218ZM243.918 41.6431V34.953V28.2628H236.789H229.66V34.953V41.6431H236.789H243.918Z" fill="url(#paint1_linear_501_2)"/>
<path fill-rule="evenodd" clip-rule="evenodd" d="M229.504 209.463C229.31 209.651 229.151 212.773 229.151 216.399V222.994L222.149 223.131L215.147 223.269V230.207V237.145L222.149 237.283L229.151 237.421V244.345V251.269H236.535H243.918V244.331V237.393H251.061H258.205L258.063 230.331L257.922 223.269L250.935 223.131L243.947 222.994L243.805 216.193L243.664 209.393L236.761 209.256C232.964 209.181 229.698 209.273 229.504 209.463ZM243.664 237.145V230.455V223.765L236.662 223.627L229.66 223.489V230.455V237.421L236.662 237.283L243.664 237.145Z" fill="url(#paint2_linear_501_2)"/>
<path fill-rule="evenodd" clip-rule="evenodd" d="M28.87 209.463C28.6754 209.651 28.5166 212.773 28.5166 216.399V222.994L21.5148 223.131L14.5129 223.269L14.3719 230.331L14.2302 237.393H21.3737H28.5166V244.331V251.269H35.9003H43.2841V244.331V237.393H50.4269H57.5704L57.4288 230.331L57.2877 223.269L50.3002 223.131L43.3126 222.994L43.171 216.193L43.0295 209.393L36.1264 209.256C32.3296 209.181 29.064 209.273 28.87 209.463ZM42.7748 237.393V230.455V223.517H35.9003H29.0258V230.455V237.393H35.9003H42.7748Z" fill="url(#paint3_linear_501_2)"/>
<path fill-rule="evenodd" clip-rule="evenodd" d="M86.0589 28.2628V14.1391V0.0153655H100.572H115.085V6.93947V13.8635L122.087 14.0013L129.088 14.1391L129.23 20.9531L129.372 27.7672H136.217H143.063L143.205 20.9531L143.347 14.1391L150.476 13.8913L157.605 13.6435L157.746 6.82151L157.889 0L172.259 0.131333L186.631 0.26315V14.1391V28.015L179.374 28.1523L172.118 28.2901V35.2141V42.1387H164.974H157.831L157.973 48.9528L158.114 55.7668L165.102 55.9046L172.089 56.0424L172.231 62.8426L172.372 69.6428H179.247H186.121L186.263 62.8287L186.405 56.0146H200.903H215.402V69.8906V83.7665H208.273H201.144V90.7044V97.6424H208.273H215.402V104.58V111.518H222.262H229.122L229.264 104.704L229.406 97.8902L236.535 97.6424L243.664 97.3946L243.805 90.5805L243.947 83.7665H258.454H272.96L272.825 97.7663L272.69 111.766L265.433 111.903L258.177 112.041V118.965V125.89H251.033H243.89L244.032 132.704L244.173 139.518L251.161 139.656L258.148 139.794L258.29 146.594L258.431 153.394L265.56 153.642L272.69 153.889V167.518V181.146L258.763 181.394C251.103 181.53 244.637 181.521 244.393 181.374C244.149 181.226 243.885 178.104 243.806 174.436L243.664 167.765L236.407 167.628L229.151 167.49V160.566V153.642H222.276H215.402V160.58V167.518H208.273H201.144V174.456V181.394H208.281H215.418L215.283 195.393L215.147 209.393H200.889H186.631L186.376 202.455L186.121 195.517H179.247H172.372L172.231 202.579L172.09 209.641H164.975H157.86V216.331V223.021H164.975H172.09L172.231 230.083L172.372 237.145L179.637 237.283L186.902 237.42L186.766 251.159L186.631 264.897L172.259 265.029L157.889 265.16L157.746 258.338L157.605 251.516L150.476 251.269L143.347 251.021L143.205 244.207L143.063 237.393H136.203H129.343V244.331V251.269H122.214H115.085V258.207V265.145H100.572H86.0589V251.283V237.421L93.0608 237.283L100.063 237.145L100.317 230.207L100.572 223.269L107.574 223.131L114.575 222.994V216.331V209.669L107.574 209.531L100.572 209.393L100.317 202.455L100.063 195.517H93.188H86.3135L86.1725 202.579L86.0309 209.641H71.7869H57.5423V195.531V181.421L64.5442 181.283L71.546 181.146L71.6876 174.332L71.8292 167.518H64.7H57.5709L57.4293 160.704L57.2877 153.889L50.2859 153.752L43.2841 153.614V160.566V167.518H36.1549H29.0258V174.456V181.394H14.5129H0V167.531V153.669L7.00186 153.532L14.0037 153.394L14.1452 146.594L14.2868 139.794L21.2744 139.656L28.2619 139.518L28.4035 132.704L28.5451 125.89H21.4017H14.2583V118.952V112.014H7.12914H0V97.8902V83.7665H14.5129H29.0258V90.7044V97.6424H36.1549H43.2841V104.58V111.518H50.4132H57.5423V104.594V97.6702L64.5442 97.5324L71.546 97.3946V90.7044V84.0143L64.5442 83.8765L57.5423 83.7387V69.8767V56.0146H71.7864H86.0304L86.172 62.8287L86.3135 69.6428H93.188H100.063L100.204 62.8287L100.346 56.0146H107.461H114.575V49.0905V42.1665L107.574 42.0287L100.572 41.8909L100.43 35.0769L100.289 28.2628H93.1738H86.0589ZM143.092 76.8151V83.7392L150.348 83.877L157.605 84.0143L157.86 90.9522L158.114 97.8902L165.116 98.0279L172.118 98.1657V105.09V112.014H179.247H186.376V118.952V125.89H193.519H200.663L200.521 132.704L200.38 139.518L193.392 139.656L186.405 139.794L186.263 146.594L186.121 153.394L179.12 153.532L172.118 153.669V160.593V167.518H165.003H157.888L157.746 174.332L157.605 181.146L150.476 181.394L143.347 181.641L143.205 188.455L143.063 195.269H136.203H129.343V188.331V181.394H122.214H115.085V174.456V167.518H107.956H100.826V160.593V153.669L93.57 153.531L86.3135 153.394L86.172 146.594L86.0304 139.794L79.0429 139.656L72.0552 139.518L71.9137 132.704L71.7721 125.89H78.9155H86.0589V118.965V112.041L93.3154 111.903L100.572 111.766L100.713 104.952L100.855 98.138H107.164C110.635 98.138 113.836 98.0027 114.279 97.8371C114.96 97.5829 115.085 96.4723 115.085 90.6514V83.7665H122.214H129.343V76.8285V69.8906H136.217H143.092V76.8151ZM128.834 104.897C128.834 101.27 128.987 98.1543 129.173 97.9729C129.36 97.7911 132.682 97.6424 136.557 97.6424H143.601V104.58V111.518H150.73H157.86V118.456V125.394H164.989H172.118V132.58V139.766H164.989H157.86V146.704V153.642H150.73H143.601V160.58V167.518H136.217H128.834V160.58V153.642H121.705H114.575V146.704V139.766H107.433H100.289L100.431 132.704L100.572 125.642L107.559 125.504L114.547 125.366L114.689 118.566L114.83 111.766L121.832 111.628L128.834 111.491V104.897ZM142.837 139.518L142.979 132.704L143.121 125.89H136.217H129.314L129.456 132.704L129.598 139.518H136.217H142.837Z" fill="url(#paint4_linear_501_2)"/>
</g>
<defs>
<linearGradient id="paint0_linear_501_2" x1="136.48" y1="0" x2="136.48" y2="265.16" gradientUnits="userSpaceOnUse">
<stop stop-color="#AEB1B1"/>
<stop offset="1" stop-color="#4D4D4D"/>
</linearGradient>
<linearGradient id="paint1_linear_501_2" x1="136.48" y1="0" x2="136.48" y2="265.16" gradientUnits="userSpaceOnUse">
<stop stop-color="#AEB1B1"/>
<stop offset="1" stop-color="#4D4D4D"/>
</linearGradient>
<linearGradient id="paint2_linear_501_2" x1="136.48" y1="0" x2="136.48" y2="265.16" gradientUnits="userSpaceOnUse">
<stop stop-color="#AEB1B1"/>
<stop offset="1" stop-color="#4D4D4D"/>
</linearGradient>
<linearGradient id="paint3_linear_501_2" x1="136.48" y1="0" x2="136.48" y2="265.16" gradientUnits="userSpaceOnUse">
<stop stop-color="#AEB1B1"/>
<stop offset="1" stop-color="#4D4D4D"/>
</linearGradient>
<linearGradient id="paint4_linear_501_2" x1="136.48" y1="0" x2="136.48" y2="265.16" gradientUnits="userSpaceOnUse">
<stop stop-color="#AEB1B1"/>
<stop offset="1" stop-color="#4D4D4D"/>
</linearGradient>
</defs>
</svg>
