<svg width="83" height="75" viewBox="0 0 83 75" fill="none" xmlns="http://www.w3.org/2000/svg">
<path fill-rule="evenodd" clip-rule="evenodd" d="M0.868421 20.5598L0 17.6641L12.7368 12.1622L19.3947 32.4324H30.9737L31.2632 23.7452L27.5 18.5328H24.0263V13.3205L21.1316 9.84556L29.2368 4.6332V0.579151L33.5789 2.60618V7.23938L27.5 12.1622L33.5789 19.4015L37.3421 15.9266L35.6053 12.1622L39.6579 8.97683L43.4211 12.1622L41.9737 15.9266L46.6053 19.4015L52.9737 13.3205L46.6053 3.76448L51.5263 0V4.6332L57.3158 5.50193C56.8333 5.98456 56.1579 7.64479 57.3158 10.4247C58.4737 13.2046 63.0088 11.583 65.1316 10.4247L69.1842 15.9266C66.0965 15.9266 59.5158 16.1004 57.8947 16.7954C56.2737 17.4903 56.8333 18.8224 57.3158 19.4015C55.8684 19.4981 52.4526 20.0965 50.3684 21.7181C48.2842 23.3398 48.5351 30.1158 48.921 33.3012H57.8947L69.1842 20.8494L72.9474 23.7452L76.421 21.7181V25.7722L81.3421 28.668L78.7368 31.8533L81.921 35.0386L79.3158 37.6448L82.5 40.8301L76.421 49.8069V30.4054L73.8158 28.668C72.3684 28.7645 68.6053 29.8263 65.1316 33.3012C61.6579 36.7761 60.9824 48.4556 61.0789 53.861L65.1316 58.2046L61.0789 59.0734C61.0717 59.3422 61.0632 59.6332 61.0536 59.9421H69.1842L62.2368 52.4131C62.3333 51.6409 62.8158 50.2124 63.9737 50.6757C65.1316 51.139 65.807 52.027 66 52.4131C66.5789 51.834 68.0263 50.9073 69.1842 51.834C70.1911 52.6398 70.0772 53.0252 69.9147 53.5751C69.8436 53.8157 69.7632 54.0877 69.7632 54.4401C69.7632 55.5985 71.5 56.1776 72.9474 55.888C74.3947 55.5985 76.7105 56.4672 76.421 57.6255C76.1895 58.5521 75.1667 59.556 74.6842 59.9421H79.8947V61.9691V62.5483H60.9587C60.8081 66.1835 60.5511 70.5031 60.2105 71.5251C59.7474 72.9151 56.5439 74.4208 55 75V57.6255H26.6316C27.307 60.6178 28.1368 66.6023 26.0526 66.6023C23.9684 66.6023 24.6053 69.8842 25.1842 71.5251C24.6053 71.6216 22.5211 72.278 18.8158 74.1313C17.9383 71.6733 19.0825 69.4283 20.184 67.267C20.8993 65.8636 21.5966 64.4955 21.7105 63.1274C21.7267 62.9333 21.7356 62.7402 21.7376 62.5483H3.76316V59.9421H11.2895C11.5789 58.7838 9.8421 57.6255 8.10526 56.7568C6.36842 55.888 6.36842 52.7027 7.52632 52.7027C8.14131 52.7027 8.42966 53.0295 8.73835 53.3793C9.01085 53.688 9.2992 54.0148 9.8421 54.1506C10.4887 54.3123 10.8645 53.8418 11.2216 53.3948C11.5039 53.0414 11.7744 52.7027 12.1579 52.7027C13.0263 52.7027 13.8947 53.861 13.0263 54.7297C12.3316 55.4247 13.3158 56.9498 13.8947 57.6255L15.9211 56.7568C16.693 57.0463 18.2368 57.8571 18.2368 58.7838C18.2368 59.7104 17.8509 60.5212 17.6579 60.8108H21.5591C21.0116 58.3155 19.2447 56.2683 16.7895 55.5985C20.2632 53.2819 17.9474 42.278 15.3421 38.2239C13.2579 34.9807 10.0351 34.556 8.68421 34.749C9.64912 34.1699 11.5789 32.4324 11.5789 30.1158C11.5789 27.7992 8.29824 27.6062 6.65789 27.7992C7.62281 26.7375 9.37895 24.0347 8.68421 21.7181C7.98947 19.4015 3.18421 19.9807 0.868421 20.5598ZM36.4737 32.4324V24.3243L39.6579 19.4015L42.8421 24.3243V32.4324H36.4737ZM31.2632 38.2239H21.7105L25.4737 52.1235H56.7368V39.0927H49.2105V46.332H40.5263L43.4211 43.1467V39.0927H36.4737V46.332H28.3684L31.2632 43.1467V38.2239Z" fill="#D2D2D2"/>
</svg>
