<svg width="121" height="76" viewBox="0 0 121 76" fill="none" xmlns="http://www.w3.org/2000/svg">
<path fill-rule="evenodd" clip-rule="evenodd" d="M66.1608 61.4774L70.1787 65.2274L75.268 59.3345L79.2858 63.6203L82.768 60.406L79.8215 56.1203L87.5894 48.6203L92.9466 52.906L88.393 56.1203L93.4823 61.4774L89.4644 65.4953L94.018 69.2453L97.768 65.4953L102.322 69.2453L107.143 64.6917L111.697 69.2453L115.447 66.2988L111.697 61.4774L116.25 57.4595L112.768 51.8345L102.322 59.3345L94.5537 51.2988L99.1073 47.0131L103.125 50.4953L106.339 46.2095L103.661 42.7274L107.143 38.7095L116.25 46.7453L120.536 42.7274L115.447 37.1024L120.536 31.7453L116.25 28.2631L107.143 36.031L102.322 31.7453L106.339 27.7274L103.125 24.2453L98.8394 27.1917L95.0894 23.1738L103.125 14.8703L111.964 23.1738L115.447 18.6203L111.964 13.2631L115.447 9.24526L110.893 5.49526L106.339 10.0488L102.322 6.03097L96.6966 10.0488L92.9466 6.56669L89.1966 9.24526L93.4823 15.406L89.1966 18.6203L92.9466 23.1738L87.5894 28.2631L79.8215 18.6203L83.3037 14.0667L79.2858 10.0488L73.6608 15.406L69.3751 12.1917L66.1608 16.2095L70.1787 20.2274L65.6251 24.5131L61.0716 20.2274L57.5091 23.2274L55.1787 20.2274L51.6966 23.4417L49.5537 18.6203L51.6966 15.406L49.5537 10.8524L46.3394 12.7274C46.3394 12.3703 46.2323 11.4953 45.8037 10.8524C45.3751 10.2095 43.8393 8.9774 43.125 8.44169L45.8037 4.15597L42.0536 0.673831L38.8393 4.15597L34.8214 3.3524L32.4108 6.83454C33.1251 7.01312 35.3572 8.44169 38.5716 12.7274C41.7859 17.0131 44.7323 24.3345 45.8037 27.4595C44.6429 27.7274 41.5715 28.3703 38.5716 28.7988C38.5716 27.9417 37.143 25.2274 36.4287 23.9774L39.6429 21.031L37.5001 17.0131C36.5179 17.5488 34.125 18.6203 32.4108 18.6203C31.5538 17.3345 29.1965 15.5845 28.125 14.8703L30 10.8524L25.1786 8.44169C25.0893 8.70954 24.5357 9.94169 23.0357 12.7274C21.9643 12.0845 18.6607 12.4595 17.1429 12.7274V7.37026L12.321 7.63812C12.589 9.24526 12.9642 12.5131 12.321 12.7274C11.6779 12.9417 8.30331 14.4238 6.69643 15.1381L4.01786 10.8524L0.535322 14.3345L3.21429 18.6203L0 22.1024C0.625 24.156 2.30357 27.8345 4.01786 26.1203C6.16071 23.9774 17.9464 17.281 25.7144 22.1024C31.9288 25.9595 31.8751 29.781 31.0714 31.2095L26.5179 32.8167L28.9286 29.3345L26.5179 26.1203L23.5715 28.7988L19.5536 26.1203L17.4107 28.7988C18.2143 29.4238 19.7679 31.1024 19.5536 32.8167C19.3393 34.531 14.4643 35.1381 12.0536 35.2274L13.125 31.2095L10.9821 29.8703L8.83929 33.0845L5.35714 32.5488L4.55318 34.9595L8.83929 38.4417L4.55318 42.1917L5.89286 44.3345L8.83929 43.7988L10.9821 46.4774L13.125 45.1381L12.5889 42.1917C15.089 42.3703 20.0357 43.0488 19.8214 44.3345C19.6071 45.6203 18.8394 47.0131 18.4823 47.5488L20.625 50.2274L23.5715 47.281L25.7144 49.9595L28.6607 47.281L26.5179 42.7274L31.0714 44.3345C32.4107 46.2988 32.6786 51.2453 23.0357 55.3167C13.3929 59.3881 5.98188 53.7988 3.48175 50.4953C2.58889 51.2095 0.749608 52.7988 0.535322 53.4417C0.321036 54.0845 2.41032 56.7453 3.48175 57.9953L0.803179 61.7453L4.55318 65.2274C5.08889 64.781 6.48175 63.5131 7.76747 62.0131C8.19604 62.4417 10.9818 62.7274 12.321 62.8167L12.5889 68.1738L17.143 69.2453C17.0537 67.281 17.1965 63.4595 18.4823 63.8881C19.768 64.3167 22.4108 63.7095 23.5715 63.3524L25.7144 66.5667H30.5358L28.393 62.281L32.4108 57.1917L37.5001 61.7453L40.9823 56.656L36.4287 51.5667L38.5716 47.5488C39.643 47.906 42.5894 48.9953 45.8037 50.4953C46.4466 57.5667 38.2144 66.656 34.018 70.3167L35.6251 73.2631L39.643 72.7274L41.7858 75.6738L46.3394 72.7274L43.9287 69.2453L47.143 65.2274L50.3573 67.1024L53.0358 62.8167L49.5537 59.0667L51.6966 53.7393L53.3037 56.656L58.1251 53.7393L61.8751 56.656L65.6251 52.906L70.1787 57.1917L66.1608 61.4774ZM60.5358 38.7095L74.4644 51.2988L83.3037 42.7274L79.2858 39.5131L75.268 42.7274L69.3751 37.906L75.268 33.6203L79.2858 36.5667L83.3037 34.156L74.4644 25.3167L60.5358 37.1024L57.6787 34.2453L55.1787 37.1024L50.8929 34.2453L47.6786 37.906L50.8929 41.9238L55.1787 39.2453L57.6787 41.2306L60.5358 38.7095ZM57.6787 26.1203L61.0716 29.3345L58.1251 32.4774L55.1787 29.3345L57.6787 26.1203ZM61.0716 48.0845L57.5091 44.3345L55.1787 47.0131L57.5091 52.3595L61.0716 48.0845ZM88.6608 37.6381L93.4823 41.9238L98.3037 37.6381L93.4823 33.0845L88.6608 37.6381Z" fill="#D2D2D2"/>
</svg>
