<svg width="338" height="329" viewBox="0 0 338 329" fill="none" xmlns="http://www.w3.org/2000/svg">
<path opacity="0.07" fill-rule="evenodd" clip-rule="evenodd" d="M123.07 11.5206C110.617 21.8295 107.462 22.9639 95.1097 21.5846C82.9335 20.2247 81.1898 20.8176 81.1898 26.3282C81.1898 34.4555 64.0462 51.4642 55.855 51.4642C44.2091 51.4642 32.394 63.7551 32.394 75.8687C32.394 82.9712 30.8325 86.9124 28.0186 86.9124C25.6113 86.9124 21.1904 89.5968 18.1911 92.8806C13.6889 97.8079 13.1131 102.809 14.8795 121.629C16.9159 143.346 16.6166 144.777 8.50675 152.224L0 160.036L8.26928 167.731C16.1189 175.037 16.4312 176.606 14.359 198.497C12.3942 219.282 12.8561 222.241 19.0336 228.36C22.8039 232.095 29.7037 235.15 34.3686 235.15C41.187 235.15 42.3808 236.256 40.455 240.79C32.6802 259.117 40.3574 274.727 59.1634 278.816C74.5829 282.171 80.7995 287.05 84.7454 298.896C87.6894 307.732 89.4656 309.166 95.3081 307.413C99.1727 306.253 103.067 305.299 103.961 305.293C113.07 305.235 118.297 307.652 129.986 317.326C144.79 329.578 155.828 331.547 164.052 323.4C168.889 318.608 169.767 318.608 175.115 323.4C183.977 331.347 192.64 329.72 209.543 316.933C223.462 306.404 226.377 305.451 239.288 307.204C251.8 308.902 253.602 308.386 253.602 303.121C253.602 293.456 263.768 284.162 281.204 277.881C300.212 271.04 306.155 260.602 300.098 244.702C296.676 235.727 296.939 235.15 304.454 235.15C316.353 235.15 329.506 220.752 327.443 209.985C326.529 205.216 324.766 196.157 323.526 189.857C321.653 180.341 322.687 176.732 329.619 168.569L337.97 158.737L329.737 151.074C321.945 143.823 321.62 142.186 323.666 120.553C325.462 101.553 324.909 96.7831 320.387 92.3038C317.394 89.339 312.756 86.9124 310.078 86.9124C306.809 86.9124 305.846 84.9402 307.141 80.8927C310.911 69.1206 303.618 58.8955 287.16 52.8757C267.34 45.6314 261.321 40.5494 259.012 29.119C257.275 20.5147 256.374 20.0732 243.186 21.3752C230.817 22.5933 227.708 21.4332 216.228 11.3272C200.483 -2.53304 188.453 -3.52559 176.748 8.06919L168.505 16.2352L162.022 8.06919C152.663 -3.71894 140.145 -2.61038 123.07 11.5206ZM123.48 17.6273C115.985 23.8307 106.697 28.9546 102.839 29.0126C95.9457 29.119 95.962 29.2318 103.74 35.6447C111.417 41.9738 111.489 42.4378 106.18 51.3418C103.171 56.3851 100.708 62.8302 100.708 65.6564C100.708 68.4858 99.0394 70.7996 97.003 70.7996C94.4786 70.7996 93.8963 65.7756 95.1812 55.038C96.4629 44.3037 95.6627 37.3784 92.6731 33.3276C88.6361 27.8589 88.0961 28.352 86.0044 39.399C83.3369 53.488 86.1215 66.9003 93.366 74.8633C98.2749 80.2578 98.867 80.1837 105.311 73.3293C109.043 69.3623 112.094 64.7895 112.094 63.1686C112.094 60.0975 113.486 59.266 134.865 49.5629C147.185 43.9685 147.425 43.5947 139.39 42.5538C134.501 41.9222 129.117 38.155 126.697 33.6757C122.94 26.7214 123.323 25.2132 130.308 19.4513C138.294 12.8644 152.757 10.4571 152.757 15.7131C152.757 17.3212 150.031 17.9302 146.7 17.0666C139.098 15.0976 135.204 23.8372 141.407 28.9385C148.177 34.5039 159.263 29.7474 159.263 21.2785C159.263 3.39003 142.721 1.70463 123.48 17.6273ZM182.685 10.2154C177.389 15.4618 177.77 24.0628 183.505 28.7774C190.294 34.3589 199.926 31.5713 199.926 24.0273C199.926 19.3127 198.001 17.8303 192.607 18.3943C183.616 19.3385 183.248 17.3244 191.608 12.8901C201.163 7.8275 215.645 21.9133 212.727 33.434C211.042 40.0725 208.628 41.7965 201.01 41.7965C187.597 41.7965 192.155 46.7722 211.351 53.0884C220.274 56.0242 227.626 60.1233 227.685 62.1954C227.805 66.3686 240.167 82.1205 241.751 80.1193C250.821 68.6405 253.602 60.6099 253.602 45.9118C253.602 36.5599 252.167 28.9063 250.411 28.9063C246.627 28.9063 244.285 38.0422 242.974 57.9094C242.05 71.9211 241.923 72.0854 239.139 62.7432C237.555 57.426 233.94 51.2677 231.104 49.0538C226.52 45.4799 226.959 44.1426 235.079 36.9691C243.156 29.8312 243.465 28.9063 237.766 28.9063C234.227 28.9063 224.617 23.8307 216.413 17.6273C201.039 6.00353 189.497 3.46737 182.685 10.2154ZM150.815 52.4471C145.275 58.1092 134.296 68.2054 126.417 74.8858C113.681 85.6814 112.985 86.9318 120.145 86.1648C124.898 85.6556 129.826 82.0496 132.178 77.3607C135.48 70.777 136.508 70.3194 138.2 74.6828C140.685 81.0957 131.537 95.7584 124.042 97.3793C121.05 98.027 125.627 99.6609 134.218 101.014C145.812 102.835 150.604 105.281 152.819 110.498C157.669 121.916 172.24 137.745 172.259 131.616C172.269 128.732 174.624 124.442 177.493 122.083C180.363 119.721 183.951 114.568 185.46 110.63C187.549 105.194 191.966 102.877 203.827 101.014C212.418 99.6609 217.249 98.0399 214.565 97.4051C206.612 95.5296 197.591 81.1505 200.802 75.4691C203.134 71.3378 204.263 71.8888 207.395 78.6981C209.63 83.5577 213.856 86.9124 217.75 86.9124C228.111 86.9124 225.616 82.736 207.246 69.3237C197.851 62.4661 186.882 53.1045 182.864 48.5188C176.687 41.4711 175.558 41.094 175.545 46.0729C175.535 49.3116 179.871 56.2626 185.18 61.5218C192.675 68.9466 193.765 71.4892 190.06 72.8975C187.412 73.9029 185.288 78.7948 185.288 83.8929C185.288 88.9394 181.794 98.1688 177.526 104.401L169.764 115.732L161.261 103.003C156.583 96 152.757 86.7384 152.757 82.4169C152.757 78.0955 150.929 73.9158 148.691 73.1327C146.027 72.195 147.708 68.8242 153.57 63.349C158.492 58.7537 162.516 52.025 162.516 48.3963C162.516 40.2014 162.939 40.0564 150.815 52.4471ZM68.6525 54.777C64.4398 58.2542 59.6188 60.2554 57.937 59.2242C56.2551 58.1962 51.1934 59.7462 46.6911 62.6691C36.1708 69.4977 37.1206 81.6016 48.3014 83.1678C54.788 84.0766 55.7802 83.1452 54.2968 77.5283C51.9416 68.6018 60.2239 68.5406 65.0351 77.451C67.6213 82.2397 67.6408 85.2818 65.097 88.3175C62.3676 91.5755 63.607 92.9579 70.5653 94.4113C76.1183 95.5747 82.413 100.718 87.0031 107.853L94.4428 119.412L80.4969 118.764C71.8373 118.365 63.7762 115.654 59.2317 111.62C52.628 105.761 51.9123 105.671 51.9123 110.724C51.9123 115.078 49.6156 116.099 41.5904 115.313C35.9138 114.759 30.6666 112.49 29.9314 110.273C29.1149 107.808 30.4681 106.954 33.4187 108.075C39.3555 110.334 42.8558 105.368 40.1883 98.4814C37.8428 92.4294 28.8058 91.7559 23.2854 97.2246C18.3375 102.126 18.1618 119.138 23.0642 119.138C25.478 119.138 26.1481 123.55 25.0095 131.948L23.2756 144.754L32.5534 140.004C37.6542 137.391 48.1257 135.199 55.816 135.138C63.5095 135.074 73.4638 132.95 77.9368 130.417C82.4097 127.884 89.9243 125.76 94.6347 125.696L103.2 125.583L98.6425 112.48C96.1376 105.271 94.9112 98.0528 95.9197 96.4351C96.9281 94.8174 94.6477 89.3358 90.8547 84.2538C87.0616 79.1718 83.1417 68.9885 82.1462 61.6282C80.0903 46.4499 79.2543 46.0245 68.6525 54.777ZM258.927 53.9359C258.055 57.007 256.406 64.1321 255.261 69.7716C254.119 75.4079 251.081 81.7499 248.514 83.8606C245.944 85.9747 243.843 93.0031 243.843 99.4804C243.843 105.958 241.562 114.481 238.778 118.419C233.908 125.309 234.064 125.586 242.844 125.696C247.867 125.76 255.635 127.884 260.108 130.417C264.581 132.95 274.828 135.083 282.879 135.157C290.931 135.232 301.734 137.468 306.884 140.13L316.249 144.967L314.164 132.054C312.886 124.13 313.351 119.138 315.371 119.138C320.644 119.138 319.164 101.005 313.51 96.3545C309.772 93.2834 306.871 93.0482 302.938 95.507C295.723 100.015 296.012 107.982 303.37 107.385C312.033 106.683 308.055 114.117 299.073 115.416C294.701 116.048 289.747 114.32 287.606 111.417C284.213 106.821 283.25 106.944 278.042 112.648C274.857 116.135 271.269 118.384 270.066 117.649C268.865 116.914 262.473 117.52 255.863 118.996C241.79 122.141 240.824 119.85 251.875 109.564C256.292 105.452 259.122 100.831 258.166 99.2967C257.206 97.7596 260.934 95.6101 266.452 94.5177C274.184 92.987 275.68 91.5787 272.987 88.3626C270.472 85.3624 270.674 82.3203 273.716 77.4961C278.859 69.3398 285.576 68.7082 284.958 76.4391C284.298 84.676 297.284 83.8961 298.351 75.6334C299.555 66.3073 294.207 59.801 285.007 59.4014C280.602 59.2113 273.286 56.6461 268.755 53.7039C261.032 48.6928 260.411 48.7089 258.927 53.9359ZM163.928 69.1883C161.524 81.8788 164.601 103.025 168.85 103.025C172.373 103.025 178.918 84.8339 177.288 79.5714C176.618 77.4059 175.19 71.6439 174.11 66.7714C171.4 54.516 166.485 55.6826 163.928 69.1883ZM103.961 104.16C103.961 115.464 110.425 125.583 117.705 125.68C124.182 125.767 124.413 126.179 119.55 128.989C116.482 130.759 114.817 134.329 115.832 136.946C116.843 139.559 116.206 141.696 114.417 141.696C112.627 141.696 110.321 139.521 109.29 136.862C108.262 134.204 104.078 132.051 99.9958 132.077C92.299 132.128 81.8535 137.117 84.5372 139.463C101.466 154.248 129.342 170.841 135.926 170.051C146.521 168.782 152.62 159.517 146.586 153.871C143.086 150.597 141.879 150.577 140.695 153.781C138.798 158.898 133.239 159.053 133.239 153.987C133.239 151.886 130.103 146.862 126.267 142.817L119.299 135.467L134.488 135.77C148.047 136.04 149.462 136.753 147.65 142.402C146.101 147.236 146.96 148.473 151.28 147.632C154.393 147.026 158.499 144.077 160.405 141.08C166.674 131.216 156.69 123.692 106.401 100.396C105.058 99.7737 103.961 101.469 103.961 104.16ZM210.717 110.901C198.762 116.573 186.683 123.099 183.879 125.403C173.521 133.92 180.772 153.278 191.797 146.53C194.328 144.98 194.357 143.143 191.898 140.207C189.165 136.949 191.553 136.008 203.124 135.779C211.205 135.618 217.818 135.876 217.818 136.353C217.818 136.83 214.159 142.134 209.686 148.141C205.213 154.148 201.553 157.329 201.553 155.211C201.553 149.466 192.799 150.564 190.46 156.607C187.76 163.574 194.11 170.699 203.02 170.699C209.738 170.699 228.41 159.8 247.096 144.973C253.989 139.505 254.487 138.035 250.349 135.325C242.698 130.311 231.478 131.48 227.838 137.668C224.777 142.872 224.513 142.885 224.422 137.829C224.37 134.816 221.764 130.871 218.632 129.064C213.479 126.092 213.596 125.77 219.861 125.68C228.983 125.551 234.806 118.197 233.505 108.449L232.457 100.589L210.717 110.901ZM27.0557 147.893C21.4377 151.286 15.8619 155.63 14.6648 157.548C10.5822 164.09 25.4682 161.118 37.5826 152.975C53.5161 142.263 58.4802 142.75 47.641 153.958C42.833 158.927 38.9001 164.889 38.9001 167.206C38.9001 170.27 35.8097 170.841 27.5404 169.304C16.3499 167.225 16.2295 167.322 19.4468 175.707C21.6459 181.433 21.6231 188.23 19.3817 196.48C13.8125 216.965 24.5541 232.72 40.0679 226.823C46.8115 224.258 47.0067 211.474 40.39 206.034C32.7746 199.773 26.2131 207.211 31.6913 215.895C36.2846 223.182 31.88 224.58 26.0928 217.671C23.692 214.806 23.0674 208.751 24.4305 201.558C26.3237 191.562 27.8332 190.034 35.8259 190.034C41.6164 190.034 47.0327 192.725 50.4094 197.285C55.5622 204.239 55.6924 203.769 53.5909 185.835C52.3645 175.362 52.7483 165.44 54.4627 163.277C56.1445 161.157 58.4835 155.434 59.6578 150.558C61.7008 142.083 61.2616 141.696 49.5343 141.709C42.7907 141.715 32.677 144.496 27.0557 147.893ZM165.939 146.327C163.619 149.098 159.533 151.364 156.859 151.364C153.639 151.364 152.559 153.487 153.661 157.661C156.658 169.01 148.71 174.917 129.644 175.514C113.782 176.01 110.959 175.004 100.302 165.063L88.5092 154.064V162.372C88.5092 172.094 82.4878 180.367 75.4091 180.367C71.1672 180.367 71.2713 179.435 76.0988 174.154C79.726 170.183 81.0044 165.527 79.6381 161.263C77.3089 153.99 71.4697 152.121 71.3656 158.614C71.1541 171.85 64.2284 207.929 61.2063 211.535C55.6728 218.142 63.1516 216.65 69.2999 209.921C72.2602 206.679 74.6837 199.863 74.6837 194.775C74.6837 188.011 75.6531 186.483 78.2849 189.09C80.9166 191.697 84.3258 191.639 90.9555 188.878C95.9424 186.799 106.606 185.62 114.648 186.251L129.27 187.405L121.934 200.195C117.901 207.23 111.476 215.154 107.653 217.806C103.834 220.455 100.708 225.009 100.708 227.922C100.708 232.041 99.8396 232.356 96.8045 229.35C92.2697 224.857 72.6603 224.129 70.0221 228.357C69.0364 229.936 72.9759 231.941 78.7761 232.808C84.5763 233.678 98.0732 238.096 108.766 242.63C130.142 251.692 134.094 251.434 125.083 241.57C121.202 237.322 116.931 235.753 112.79 237.055C108.33 238.457 106.882 237.751 107.914 234.683C110.025 228.405 129.527 228.518 133.252 234.828C137.416 241.885 137.227 236.716 132.78 222.012C129.67 211.735 130.002 207.742 134.82 197.469C145.457 174.795 156.71 167.941 165.695 178.665C169.195 182.842 170.242 182.842 174.458 178.665C177.09 176.055 181.042 173.922 183.242 173.922C185.89 173.922 186.787 170.122 185.906 162.643C185.125 156.014 182.776 151.364 180.213 151.364C177.815 151.364 174.572 149.098 173.007 146.327C170.424 141.757 169.767 141.757 165.939 146.327ZM277.652 146.794C278.738 149.598 279.626 153.12 279.626 154.618C279.626 156.12 281.848 159.549 284.561 162.237C288.543 166.184 288.875 169.806 286.269 180.998C281.416 201.832 282.056 205.78 288.865 197.015C293.133 191.517 297.274 189.783 304.246 190.569C313.214 191.581 313.784 192.506 313.784 206.092C313.784 217.977 312.632 220.758 307.277 221.773C301.012 222.963 300.986 222.772 306.545 216.653C311.692 210.988 311.78 209.85 307.359 206.215C303.397 202.957 301.415 202.944 297.518 206.147C288.254 213.765 293.806 228.705 305.905 228.705C316.396 228.705 320.29 219.063 320.29 193.093V168.147L309.717 169.845C301.503 171.163 299.145 170.399 299.145 166.416C299.145 163.6 295.134 157.609 290.231 153.104C277.932 141.809 288.504 141.889 302.069 153.197C308.709 158.73 314.994 161.134 321.025 160.448C329.824 159.446 329.681 159.201 315.124 150.558C297.944 140.359 274.236 137.977 277.652 146.794ZM238.771 165.06C233.098 171.733 226.793 175.607 221.403 175.733C194.813 176.368 195.418 176 199.842 188.752C202.057 195.136 205.736 201.504 208.02 202.899C211.332 204.926 211.097 208.551 206.859 220.868C203.941 229.356 201.553 236.655 201.553 237.087C201.553 237.522 206 235.682 211.436 232.994C221.706 227.919 230.831 229.05 230.831 235.395C230.831 237.413 228.706 238.254 226.11 237.268C221.309 235.444 205.066 246.126 208.082 249.127C208.986 250.029 220.697 246.536 234.106 241.36C247.512 236.185 261.13 231.947 264.366 231.941C267.603 231.934 269.347 230.478 268.241 228.705C265.557 224.403 251.566 224.609 243.137 229.079C237.486 232.076 236.673 231.844 238.274 227.713C239.477 224.606 237.242 220.829 232.304 217.623C227.961 214.803 221.507 206.866 217.965 199.982L211.517 187.469L225.242 186.035C232.919 185.233 242.688 186.435 247.424 188.765C253.797 191.897 256.809 192.013 259.623 189.226C262.437 186.438 263.361 187.495 263.361 193.505C263.361 197.898 265.641 204.713 268.426 208.651C274.509 217.259 281.25 218.47 276.897 210.175C275.267 207.072 272.935 195.835 271.708 185.201C268.966 161.405 267.06 154.586 263.143 154.586C258.732 154.586 259.422 171.953 264.012 176.5C267.047 179.506 266.738 180.367 262.623 180.367C255.469 180.367 246.611 162.801 251.383 158.073C253.908 155.572 253.882 154.586 251.289 154.586C249.301 154.586 243.667 159.298 238.771 165.06ZM147.878 185.661C142.975 190.515 142.513 195.026 144.462 218.815C145.701 233.961 147.217 246.851 147.832 247.457C148.444 248.066 151.827 247.035 155.35 245.169C163.346 240.928 167.061 231.918 162.624 227.523C157.373 222.321 158.684 217.774 164.143 222.26C168.033 225.46 170.008 225.46 173.899 222.263C178.095 218.812 178.515 219.56 176.895 227.581C175.489 234.535 176.739 238.46 181.797 242.994C185.528 246.339 189.484 248.179 190.587 247.087C191.693 245.994 193.329 232.314 194.23 216.685C195.974 186.396 192.77 178.465 179.79 180.944C172.402 182.352 169.862 193.257 176.918 193.257C179.731 193.257 182.035 194.707 182.035 196.48C182.035 198.252 180.571 199.702 178.782 199.702C176.992 199.702 175.506 202.238 175.48 205.342C175.45 208.445 174.13 213.015 172.542 215.499C170.363 218.909 168.05 216.733 163.128 206.637C157.731 195.571 157.435 193.257 161.423 193.257C167.92 193.257 165.577 182.339 158.808 181.05C155.913 180.496 150.994 182.574 147.878 185.661ZM106.528 192.332C101.674 193.064 92.8911 198.249 87.0096 203.853C76.5998 213.772 76.5087 214.075 83.7305 215.167C92.6992 216.524 109.54 207.243 116.183 197.285C118.844 193.299 119.745 190.25 118.184 190.518C116.622 190.782 111.378 191.597 106.528 192.332ZM221.071 192.593C221.071 199.145 240.534 212.982 252.281 214.78L264.988 216.73L256.855 207.92C252.382 203.076 246.527 197.994 243.843 196.631C235.398 192.335 221.071 189.796 221.071 192.593ZM164.628 246.152C161.488 250.896 155.434 256.352 151.179 258.272C146.921 260.196 141.671 265.99 139.514 271.15C137.357 276.309 130.529 284.665 124.345 289.715L113.099 298.899L124.719 302.698C131.111 304.787 136.007 308.074 135.604 310.004C135.197 311.931 138.854 315.805 143.727 318.608C151.856 323.287 153.034 323.268 157.998 318.35C160.971 315.402 162.52 310.703 161.436 307.909C159.14 301.983 149.504 301 149.504 306.691C149.504 309.466 148.509 309.572 145.984 307.071C141.254 302.386 149.058 289.934 156.723 289.934C161.615 289.934 161.862 288.819 158.564 281.645C155.779 275.59 155.73 272.761 158.378 271.14C160.369 269.922 163.011 264.936 164.244 260.064C165.48 255.188 167.637 250.499 169.035 249.642C171.475 248.15 177.168 263.17 176.062 268.182C175.769 269.509 177.175 270.598 179.188 270.598C181.521 270.598 182.139 274.108 180.896 280.266C179.422 287.562 180.138 289.934 183.811 289.934C189.312 289.934 197.353 304.835 193.772 308.383C192.49 309.656 190.203 308.712 188.694 306.288C185.027 300.417 174.751 304.532 176.101 311.332C177.939 320.584 187.103 324.012 196.576 318.989C201.228 316.523 204.39 312.843 203.602 310.813C202.815 308.783 207.213 305.312 213.378 303.108L224.581 299.092L211.439 286.46C204.214 279.512 198.3 271.768 198.3 269.255C198.3 266.738 193.411 261.685 187.438 258.027C181.462 254.37 175.171 248.26 173.453 244.451C170.356 237.574 170.291 237.587 164.628 246.152ZM46.0568 245.462C36.5026 254.927 46.9612 269.687 68.1776 276.683C74.4397 278.748 82.0909 283.663 85.1846 287.604L90.8059 294.768L90.8774 286.299C90.9555 276.976 98.7824 268.127 102.159 273.541C103.496 275.68 107.016 275.735 112.422 273.699C124.377 269.197 128.249 269.738 123.616 275.268C121.466 277.836 114.83 281.529 108.867 283.479C99.1727 286.65 91.7623 295.035 95.4382 298.677C96.1994 299.434 102.793 297.036 110.083 293.35C122.048 287.304 136.18 269.216 132.097 265.172C131.209 264.289 124.752 263.277 117.754 262.919C108.87 262.468 101.206 259.149 92.3673 251.933C77.5432 239.829 72.5953 238.66 79.3161 248.846C83.6003 255.34 83.4865 256.899 78.2393 263.773C73.2394 270.325 71.0338 271.005 63.1939 268.417C51.3821 264.514 45.6925 256.136 51.1706 250.709C54.3293 247.58 55.1654 248.237 55.1654 253.841C55.1654 261.956 64.0853 263.625 67.0163 256.055C71.1607 245.359 54.6058 236.994 46.0568 245.462ZM255.228 245.334C251.65 247.28 245.313 252.372 241.143 256.648C236.699 261.211 231.322 263.725 228.13 262.729C225.144 261.798 218.742 262.097 213.908 263.399C205.229 265.736 205.183 265.89 210.19 276.116C214.549 285.019 236.153 299.602 244.985 299.602C251.491 299.602 239.308 287.117 227.776 281.964C220.509 278.719 214.565 275.158 214.565 274.053C214.565 272.945 221.52 272.161 230.017 272.31C245.063 272.574 245.495 272.861 246.517 283.247L247.564 293.917L256.276 285.87C261.068 281.442 270.489 276.08 277.213 273.953C291.116 269.551 297.349 260.673 294.48 249.352C293.097 243.9 290.235 241.595 284.841 241.595C275.697 241.595 268.39 249.243 271.029 256.055C273.579 262.645 281.796 262.22 285.872 255.291C288.859 250.213 289.197 250.348 289.288 256.651C289.36 261.894 286.386 264.634 277.457 267.553C266.933 270.995 265.02 270.763 261.191 265.575C255.808 258.282 255.642 250.532 260.759 245.462C265.55 240.716 263.787 240.674 255.228 245.334Z" fill="url(#paint0_linear_505_15)"/>
<defs>
<linearGradient id="paint0_linear_505_15" x1="168.985" y1="0" x2="168.985" y2="328.31" gradientUnits="userSpaceOnUse">
<stop stop-color="#AEB1B1"/>
<stop offset="1" stop-color="#4D4D4D"/>
</linearGradient>
</defs>
</svg>
