<svg width="88" height="90" viewBox="0 0 88 90" fill="none" xmlns="http://www.w3.org/2000/svg">
<path fill-rule="evenodd" clip-rule="evenodd" d="M29.7151 1.15499C26.7632 1.71945 24.1889 3.16245 21.9731 5.49504C19.8319 7.74911 19.0178 9.88342 19.2203 12.7108C19.4395 15.7695 21.0782 19.3689 23.4662 22.0369C25.554 24.3692 43.8519 42.9041 44.0669 42.9041C44.1754 42.9041 45.2087 41.9936 46.3632 40.8809C48.9882 38.351 54.2924 33.3062 60.6946 27.2503C63.4073 24.6843 66.052 22.0296 66.5719 21.3509C68.5342 18.7882 70.0527 14.9726 70.0626 12.58C70.0788 8.65172 67.1739 4.75105 62.6675 2.64968C60.5125 1.64467 59.2766 1.37714 56.8474 1.38957C54.6191 1.40082 53.5567 1.6427 51.5935 2.58517C50.1017 3.30115 47.8989 5.47669 46.8247 7.29474C44.0247 12.0337 44.5247 16.5271 48.2781 20.3545C50.1546 22.2681 51.6179 22.9771 53.6907 22.9771C54.909 22.9771 55.3795 22.8779 56.3541 22.4151C59.3299 21.0021 60.7666 17.9955 59.573 15.6793C58.7011 13.9877 57.0297 13.4536 55.5798 14.4038L55.0287 14.7648L55.9459 15.0322C57.5053 15.4869 58.0733 16.9504 57.1926 18.2445C56.5281 19.2207 55.8029 19.6682 54.7148 19.7727C52.9493 19.9424 51.1841 18.9869 50.2183 17.3389C48.8657 15.0308 50.1094 12 52.5732 11.6003L53.2813 11.4852L52.6582 11.0654C51.7909 10.481 51.3518 9.63937 50.8171 7.5382C50.5638 6.54247 50.3742 5.71107 50.3959 5.69075C50.5145 5.57987 53.6725 6.48821 54.3244 6.82085C54.7722 7.04931 55.3229 7.57648 55.646 8.08608L56.2 8.9597L56.5542 8.17447C57.6468 5.75171 60.4491 4.58098 62.705 5.60513C65.2341 6.75337 67.1243 10.2971 65.9688 11.7242C65.4014 12.4247 64.2587 12.3944 63.6283 11.6616C63.0311 10.9674 63.0376 10.5353 63.654 9.95622C64.2806 9.3675 64.2802 9.0106 63.6526 8.85316C63.0309 8.6971 62.1743 9.22565 62.1743 9.76525C62.1743 9.98089 62.5264 10.9812 62.9567 11.9885C64.8849 16.5016 64.4978 19.1443 61.4749 22.1053C58.9237 24.6042 55.4953 25.9754 52.8599 25.5508C50.5306 25.1758 48.3062 23.6408 46.4546 21.1309C45.9854 20.495 45.6017 20.0827 45.6017 20.2147C45.6017 20.8182 46.289 23.0097 46.8799 24.2901C47.971 26.6541 49.5643 28.0793 51.4711 28.3968C51.9322 28.4735 52.3096 28.5968 52.3096 28.6706C52.3096 29.0238 51.2472 30.3066 50.7354 30.5712C50.0899 30.905 49.0202 30.959 48.3208 30.6931C48.0661 30.5962 47.4381 30.1967 46.9253 29.8053C46.4123 29.4138 45.9396 29.0936 45.8745 29.0936C45.589 29.0936 46.076 30.2095 46.6866 30.9547C48.1164 32.6997 47.9585 33.6199 45.9927 34.999C45.3545 35.4467 44.6596 36.0322 44.4489 36.3003C44.1541 36.675 44.0403 36.722 43.9565 36.5037C43.8965 36.3475 43.2624 35.7598 42.5472 35.1979C41.1419 34.0934 40.5725 33.2551 40.7493 32.551C40.8108 32.3057 41.2687 31.6101 41.7669 31.0048C42.3665 30.2766 42.6508 29.7573 42.6081 29.4687C42.5436 29.0333 42.543 29.0333 41.9226 29.5571C41.1395 30.218 39.7413 30.8592 39.0709 30.8649C38.4062 30.8704 37.346 30.1499 36.7776 29.3063C36.1547 28.3822 36.2097 28.2127 37.151 28.1586C38.8489 28.061 40.2592 27.0057 41.5363 24.8769C42.2503 23.6868 43.3239 20.7809 43.1939 20.3904C43.1537 20.2701 42.8615 20.5459 42.5444 21.0034C41.6582 22.2825 39.7261 23.923 38.3036 24.6046C36.4714 25.4824 34.4166 25.5856 32.4424 24.899C29.6511 23.9283 26.6661 21.4158 25.5822 19.1244C24.502 16.841 24.7514 14.3456 26.3838 11.1041C27.1512 9.57979 27.2463 8.69079 26.6746 8.38479C26.1417 8.0997 25.5678 8.13028 25.2955 8.45837C25.113 8.67835 25.1696 8.84093 25.5674 9.23867C25.8436 9.51488 26.0697 9.92663 26.0697 10.1535C26.0697 10.8054 25.2052 11.5346 24.4322 11.5346C23.4802 11.5346 23.0073 10.946 23.028 9.78734C23.0726 7.29336 25.8842 4.71553 28.5358 4.73802C30.393 4.75361 31.8614 5.7821 32.7621 7.69801C33.1643 8.55406 33.2326 8.61365 33.4155 8.26917C33.7426 7.65303 34.6062 6.78829 35.2081 6.47381C35.5141 6.3142 36.4019 6.06147 37.181 5.91231C37.9603 5.76336 38.7388 5.58717 38.9113 5.52088C39.1579 5.42638 39.0671 5.87581 38.4859 7.62915C37.8451 9.56223 37.6405 9.95248 36.9415 10.5732L36.1356 11.2887L36.6761 11.3974C37.4586 11.5547 38.5202 12.3275 38.9395 13.0452C39.139 13.3869 39.3556 14.1159 39.4207 14.665C39.5195 15.5 39.4511 15.8428 39.0028 16.7589C37.6502 19.5237 34.1853 20.4262 32.2714 18.5122C30.71 16.9508 31.4771 14.6912 33.5686 14.6912C34.3282 14.6912 34.1914 14.4219 33.1667 13.8993C32.1652 13.3883 31.4134 13.4041 30.5873 13.953C28.4224 15.3916 28.5704 18.91 30.8815 20.9442C32.4257 22.3034 33.4013 22.6824 35.3424 22.6771C37.6178 22.6709 38.8395 22.086 40.8882 20.0217C43.4297 17.4606 44.4655 14.6514 44.0216 11.5223C43.3616 6.86819 39.8334 2.65264 35.5397 1.388C34.0253 0.941917 31.3828 0.836168 29.7151 1.15499ZM9.0812 19.9094C5.84797 20.8012 2.2742 24.4971 1.03205 28.2338C-1.1143 34.6894 1.33983 40.5084 7.44091 43.4307C11.7277 45.4837 15.8036 44.8031 19.2467 41.4591C22.6472 38.1565 22.9801 34.4547 20.1525 31.3872C19.0638 30.2062 17.8807 29.6466 16.4452 29.6344C13.7164 29.6109 12.2028 31.576 13.2628 33.7655L13.7221 34.7143L13.9747 33.8277C14.302 32.6774 15.011 32.053 15.9896 32.053C17.5585 32.053 18.7699 33.4958 18.7699 35.3644C18.7699 38.537 15.3468 40.8456 12.5356 39.5689C11.6348 39.1597 11.0569 38.4524 10.6834 37.3018L10.4338 36.5329L10.1446 37.0059C9.64763 37.8177 8.90009 38.2237 6.72671 38.862L4.62317 39.4799L4.78791 38.8738C4.87866 38.5404 5.08996 37.6956 5.25766 36.9966C5.60135 35.5636 6.26741 34.5667 7.27992 33.9693L7.96689 33.5639L7.19646 33.2013C5.18861 32.2562 4.16881 30.7673 4.17196 28.7847C4.17354 27.8562 4.29211 27.4078 4.7451 26.6182C5.78779 24.8001 7.78499 23.3857 9.32249 23.3765C11.169 23.3652 11.7583 25.4433 10.1513 26.2994C9.533 26.6286 9.3436 26.5906 8.77579 26.0228C8.49761 25.7446 8.14643 25.5642 7.9957 25.6221C7.624 25.7647 7.64787 26.8216 8.03141 27.2053C8.49544 27.6692 9.06226 27.5871 10.6487 26.8269C13.4234 25.4972 15.7738 25.1709 17.7792 25.8369C20.7 26.807 23.8683 30.8184 24.5318 34.3862C25.0986 37.434 23.5183 40.6402 20.2549 43.0635L19.0658 43.9466L19.9309 43.8132C21.2015 43.6177 23.6452 42.5967 24.8745 41.748C26.2538 40.7957 27.2035 39.4298 27.3726 38.1547C27.4444 37.6137 27.6046 37.1826 27.7339 37.1826C28.1509 37.1826 29.3171 38.1638 29.6703 38.8119C30.3196 40.0031 29.9333 41.43 28.5761 42.8548L27.9653 43.496H28.5266C28.9004 43.496 29.4477 43.1997 30.1663 42.6082C30.9969 41.9244 31.4059 41.7204 31.9466 41.7204C32.6794 41.7204 32.7029 41.7407 34.8952 44.2477L35.6388 45.098L34.8494 46.004C32.1694 49.0802 31.8963 49.1808 30.1325 47.7443C29.0711 46.8798 28.0426 46.4171 28.0426 46.8044C28.0426 46.9113 28.1843 47.1165 28.3571 47.26C28.5301 47.4036 28.9289 47.9694 29.2431 48.5173C30.0388 49.9043 30.0246 50.9418 29.1972 51.8841C28.6597 52.4963 27.7027 53.1633 27.362 53.1633C27.3022 53.1633 27.2515 52.8305 27.2491 52.4235C27.2357 50.1237 24.6642 47.8303 20.7747 46.6487C19.986 46.4092 19.297 46.2571 19.2434 46.3108C19.1897 46.3642 19.5878 46.7326 20.1282 47.1291C22.3551 48.7639 23.8576 50.9373 24.3353 53.2148C24.9678 56.2299 23.1206 60.2767 19.8775 62.9816C17.3624 65.0794 14.1873 65.1891 10.451 63.3075C8.87385 62.5132 8.07225 62.4464 7.63406 63.072C7.25486 63.6132 7.24993 63.8337 7.60545 64.3201C7.87633 64.6904 7.89843 64.6858 8.38535 64.1604C8.66097 63.8631 9.09719 63.6199 9.35465 63.6199C9.86722 63.6199 10.5625 64.266 10.7629 64.9289C11.0222 65.7859 10.1458 66.7766 9.12836 66.7766C8.30999 66.7766 6.86501 66.0858 5.93596 65.2507C4.26213 63.7457 3.51557 61.8004 3.97802 60.1489C4.28698 59.0454 5.6781 57.4533 6.74407 56.9829C7.17318 56.7935 7.52081 56.5891 7.51667 56.5288C7.51253 56.4682 7.17023 56.1845 6.75571 55.898C6.33647 55.6084 5.81797 54.996 5.58655 54.517C5.21801 53.7542 4.47224 50.8225 4.61153 50.6834C4.70958 50.5851 8.00635 51.5949 8.70792 51.9378C9.08771 52.1236 9.57601 52.5494 9.79303 52.884L10.1876 53.4926L10.7795 52.2921C11.5858 50.6567 12.4293 50.1635 14.27 50.2513C15.3721 50.3038 15.7308 50.4147 16.4402 50.9223C17.6999 51.8237 18.5726 53.3709 18.5726 54.7032C18.5726 56.712 17.4322 58.0957 15.7769 58.0957C14.7113 58.0957 14.1378 57.5864 13.7446 56.2918L13.4836 55.4322L13.073 56.32C12.5407 57.4712 12.5478 58.276 13.0977 59.0851C14.0711 60.5174 16.4041 60.9752 18.2289 60.0917C19.388 59.5306 20.637 58.1714 21.3005 56.7491C21.7077 55.8759 21.8232 55.3255 21.8249 54.2485C21.8279 52.2562 21.0141 50.6096 19.0909 48.7174C15.3265 45.0136 10.7694 44.5164 6.04447 47.2939C3.33426 48.8872 1.5093 51.0819 0.589914 53.8539C0.20756 55.0068 0.134366 55.6259 0.147387 57.6024C0.165143 60.341 0.652851 62.1859 1.94551 64.4057C2.87318 65.9982 5.51711 68.6865 6.84844 69.3907C8.10125 70.0534 9.88083 70.5251 11.1273 70.5251C13.6077 70.5251 17.6088 68.9663 20.1509 67.0096C20.8562 66.4666 26.089 61.3585 31.7793 55.6581L42.1254 45.2939L41.158 44.2471C40.6261 43.6712 35.8931 38.7815 30.64 33.3812C20.5556 23.0139 19.6693 22.2231 16.5777 20.8324C14.026 19.6843 11.1719 19.333 9.0812 19.9094ZM74.3078 20.3439C72.6201 20.7024 69.6592 22.0745 68.0236 23.2557C66.5701 24.3057 45.7179 45.1337 45.8238 45.4299C45.8645 45.5435 48.5565 48.3733 51.8063 51.7182C67.3781 67.7456 67.5424 67.9003 70.5979 69.4151C73.0021 70.607 73.8838 70.8211 76.3898 70.8211C78.6204 70.8211 78.7007 70.8055 80.1384 70.0928C83.3678 68.4922 85.966 65.2235 87.0337 61.4179C87.5396 59.6148 87.5866 56.5601 87.1344 54.8585C86.3886 52.0518 84.5147 49.6176 81.7944 47.9223C77.018 44.9451 72.3157 45.3928 68.4922 49.1887C66.4403 51.2257 65.8242 52.4852 65.8242 54.643C65.8242 55.9617 65.9122 56.3999 66.3596 57.3065C67.1147 58.8365 67.8881 59.6969 69.1012 60.3574C72.6035 62.2635 76.3164 59.4029 74.2831 56.3648L73.923 55.8268L73.8084 56.6481C73.4178 59.4499 69.8653 59.0407 69.0742 56.1032C68.7802 55.0116 68.9864 53.9636 69.7097 52.8715C71.2442 50.5547 74.1381 49.8794 75.9003 51.4268C76.6737 52.1057 77.1685 52.9335 77.1685 53.5481C77.1685 54.0701 77.4988 54.0715 77.6641 53.5504C77.8673 52.9102 79.0943 52.2424 81.0883 51.6864C82.105 51.4031 82.961 51.1977 82.991 51.2303C83.0701 51.3157 82.584 53.5794 82.3052 54.4244C82.0085 55.3235 81.2521 56.2387 80.4728 56.6416L79.8781 56.9492L80.7429 57.4373C84.0862 59.3246 84.6392 62.5204 82.0994 65.2756C80.7644 66.7239 78.6944 67.5172 77.4733 67.0486C77.2975 66.9811 77.0223 66.6716 76.8615 66.3607C76.6039 65.8625 76.6037 65.7128 76.8594 65.1009C77.0312 64.6894 77.3595 64.3266 77.6651 64.2106C78.3357 63.9555 78.2382 63.9263 79.0238 64.616C79.6848 65.1964 79.7163 65.2039 79.9184 64.8263C80.2279 64.248 80.1739 63.7227 79.7671 63.3545C79.2496 62.8861 78.8123 62.9441 77.2616 63.6867C75.064 64.7391 73.8623 65.0696 72.2248 65.0717C70.1394 65.0743 68.5212 64.309 66.7325 62.4744C63.3983 59.0539 62.3378 55.0627 63.8862 51.7604C64.5461 50.3529 66.04 48.613 67.5238 47.5237C68.0642 47.1272 68.46 46.7567 68.4036 46.7002C68.2566 46.5532 66.0167 47.2081 64.7489 47.7688C62.277 48.8618 60.4047 50.9511 60.4004 52.6208C60.3984 53.4735 60.1946 53.5354 59.2624 52.967C57.7833 52.0652 57.4213 50.3375 58.392 48.8123C58.6989 48.3299 59.0985 47.8132 59.2798 47.6644C59.7369 47.289 59.6915 47.0473 59.1642 47.0473C58.9193 47.0473 58.2318 47.4468 57.6365 47.9351C56.2415 49.0794 55.3844 49.1465 54.4854 48.1817C53.4468 47.0674 52.0999 45.2716 52.3027 45.2716C52.4099 45.2716 52.9919 44.615 53.596 43.8123C55.2422 41.6249 56.0519 41.4473 57.7352 42.9041C59.1774 44.1524 60.432 44.2706 59.2729 43.0491C57.4793 41.1591 57.5233 39.1273 59.3832 37.9477C59.8756 37.6354 60.3499 37.3799 60.4373 37.3799C60.5245 37.3799 60.5959 37.7378 60.5959 38.1754C60.5959 40.4344 62.832 42.531 66.5822 43.7884C67.4331 44.0737 68.2558 44.28 68.4103 44.2469C68.5695 44.2128 68.1485 43.7856 67.44 43.2628C64.1144 40.8077 62.6774 37.1118 63.7214 33.699C64.5939 30.8478 67.0689 27.7489 69.3788 26.6156C71.6005 25.5256 74.0438 25.7166 77.3443 27.2377C78.87 27.941 79.6903 28.0712 80.0884 27.6731C80.3694 27.3922 80.3946 26.5495 80.1342 26.1378C79.9791 25.8925 79.8584 25.9322 79.3867 26.3844C78.6896 27.052 78.0855 27.0692 77.4556 26.439C76.5972 25.5808 76.8895 24.3491 78.0419 23.9687C79.4654 23.499 81.6591 24.6624 82.9808 26.588C83.6699 27.5922 83.7752 27.8965 83.8417 29.0713C83.9015 30.1316 83.8346 30.571 83.5196 31.1824C83.0173 32.1576 82.0535 33.0697 80.9313 33.632C80.1465 34.0254 80.0963 34.0901 80.438 34.2716C81.0412 34.5916 81.914 35.4581 82.2164 36.0371C82.465 36.5128 83.3154 39.7824 83.2163 39.8814C83.1313 39.9666 79.6335 38.9168 79.1239 38.6533C78.8275 38.5 78.3106 38.0418 77.9754 37.635C77.4151 36.9553 77.3658 36.9329 77.3658 37.3574C77.3658 38.1281 76.5336 39.3613 75.6736 39.8654C74.6958 40.4386 72.9539 40.5119 71.9797 40.0213C69.2048 38.6235 68.2968 35.3048 70.1394 33.2942C70.6703 32.7147 70.9512 32.5778 71.7684 32.4993C73.0617 32.375 73.7843 32.9296 73.9514 34.1743C74.0132 34.6352 74.1217 35.0124 74.1926 35.0124C74.5013 35.0124 75.0622 33.689 75.0788 32.9215C75.0983 32.0138 74.6878 31.2942 73.7508 30.5946C73.0023 30.0359 70.9386 29.9193 69.7602 30.3693C68.6172 30.8057 67.277 32.1596 66.5774 33.5842C66.1079 34.5403 66.0215 34.9627 66.0215 36.299C66.0215 37.6873 66.1006 38.042 66.666 39.1907C67.3875 40.6562 68.9396 42.3479 70.534 43.4064C74.1274 45.7925 78.3116 45.5739 82.5295 42.7796C85.949 40.5145 87.6927 37.2195 87.6844 33.0395C87.6724 26.9974 83.3771 21.2059 78.1765 20.2196C76.8014 19.9588 75.9984 19.9846 74.3078 20.3439ZM41.9166 49.6691C40.7423 50.7856 36.1415 55.1444 31.6925 59.3552C27.2436 63.566 23.216 67.4221 22.7425 67.9242C20.1383 70.6861 18.178 75.0183 18.178 78.0124C18.178 79.4108 18.626 81.1523 19.3187 82.4465C20.0061 83.7307 22.6903 86.4111 24.1475 87.2684C27.011 88.953 30.7585 89.6325 33.7128 89.0026C36.0415 88.5062 37.6003 87.647 39.2883 85.9299C41.8969 83.2763 43.144 80.5136 43.1253 77.4304C43.112 75.2505 42.6859 73.8777 41.4475 72.0263C38.9365 68.272 35.5194 66.7612 32.2844 67.9749C30.6818 68.5762 28.8211 70.4105 28.4484 71.7568C27.7094 74.4264 29.197 76.8823 31.3761 76.5901C31.8296 76.5291 32.4417 76.32 32.7358 76.1253L33.2709 75.7711L32.4417 75.6044C30.0696 75.128 30.0343 72.3668 32.3846 71.1523C33.9294 70.3539 35.781 70.7638 37.1917 72.2163C38.1422 73.1953 38.4991 74.0495 38.4991 75.3471C38.4991 77.2443 37.4706 78.593 35.7637 78.9343C35.1568 79.0557 34.8922 79.4033 35.4068 79.4033C35.7027 79.4033 36.3688 80.0812 36.6945 80.7139C36.8975 81.1085 37.9104 84.7866 37.8372 84.8639C37.8191 84.8833 37.0561 84.7251 36.1419 84.5122C34.1289 84.0434 33.2955 83.5571 32.5851 82.4371L32.0459 81.5867L31.8066 82.1226C30.562 84.9097 27.9071 86.0392 25.3792 84.8569C23.5976 84.0235 21.9405 81.7661 21.9309 80.1593C21.925 79.1626 22.08 78.8442 22.737 78.5044C23.2308 78.2491 23.3883 78.2479 23.9796 78.4949C24.6121 78.7593 25.0832 79.307 25.0832 79.7779C25.0832 79.8898 24.8125 80.2897 24.4817 80.6667C23.9012 81.3277 23.8937 81.3592 24.2714 81.5613C24.8496 81.8708 25.375 81.8168 25.7432 81.41C26.2025 80.9025 26.1541 80.47 25.4784 79.042C23.4881 74.8348 23.6742 71.8136 26.0932 69.0655C27.1128 67.907 28.9703 66.5757 30.7272 65.7437C31.994 65.1436 32.229 65.0996 34.1587 65.0996C36.0647 65.0996 36.3327 65.1483 37.5127 65.7084C39.018 66.4232 40.7047 67.9029 41.7592 69.4343C42.1725 70.0342 42.5432 70.4926 42.5831 70.4527C42.7222 70.3138 42.2329 68.5011 41.6521 67.0028C40.5768 64.2291 38.8132 62.4653 36.9346 62.2848C36.3733 62.2307 35.9343 62.0899 35.9343 61.9636C35.9343 61.5345 36.935 60.2686 37.5085 59.9721C38.6802 59.3662 39.9242 59.6568 41.5169 60.9087C42.7879 61.9076 42.7226 61.15 41.3869 59.4C41.0083 58.904 40.6423 58.3212 40.5737 58.1047C40.374 57.476 41.0083 56.4256 42.0111 55.7236C42.5209 55.3667 43.2111 54.82 43.5445 54.5089L44.1508 53.9428L44.531 54.3686C44.7401 54.6028 45.3854 55.1465 45.9653 55.577C47.1853 56.4828 47.679 57.401 47.3753 58.1996C47.267 58.4843 46.8237 59.138 46.3901 59.6521C45.7301 60.4348 45.3399 61.4496 45.6985 61.4496C45.752 61.4496 46.192 61.147 46.6763 60.7773C48.3097 59.5306 49.5673 59.4154 50.7431 60.4048C51.3232 60.8927 51.915 61.8142 51.915 62.229C51.915 62.343 51.5376 62.4369 51.0765 62.4379C49.8358 62.4406 48.3494 63.3703 47.2944 64.8032C46.3622 66.0696 45.3193 68.3756 45.1082 69.6373L44.9762 70.4265L45.521 69.7359C46.3904 68.6339 48.0601 67.0459 48.9207 66.5027C50.1098 65.752 51.9531 65.1976 53.2405 65.2033C56.5591 65.2181 61.1067 68.2263 62.5844 71.3845C63.7112 73.7921 63.5545 75.7885 61.9746 79.16C60.8924 81.4691 60.9524 82.3627 62.1896 82.3627C63.0343 82.3627 63.2469 81.9205 62.6651 81.3738C62.0425 80.7891 62.0401 80.1114 62.6586 79.493C63.2465 78.9049 64.1182 78.8607 64.7665 79.3861C65.1455 79.6931 65.2293 79.9415 65.2159 80.7178C65.1855 82.4891 63.7719 84.3908 61.7294 85.4089C59.3321 86.6035 56.61 85.4714 55.4154 82.7829L55.0323 81.9207L54.5746 82.6884C53.9931 83.6634 52.9021 84.2758 51.0823 84.6487C50.2923 84.8107 49.5061 84.9851 49.3348 85.0364C48.8304 85.1877 50.3193 80.9313 51.0306 80.1891C51.3405 79.8653 51.7108 79.6006 51.8533 79.6006C52.4223 79.6006 52.0626 79.2747 51.2557 79.0588C49.5513 78.6029 48.4804 76.7053 48.8414 74.7805C49.1997 72.8711 51.4557 71.0187 53.389 71.0466C54.7669 71.0665 55.9444 71.6988 56.4502 72.6902C56.9474 73.6648 56.95 74.2019 56.4611 75.0035C56.1815 75.462 55.8443 75.6944 55.2288 75.8526C54.7626 75.9726 54.2972 76.0937 54.1944 76.1221C54.0918 76.1505 54.4307 76.3786 54.9478 76.629C56.6256 77.4412 58.0351 76.9099 58.842 75.1615C59.9229 72.8194 58.5506 69.9096 55.7054 68.5102C54.542 67.9378 54.2011 67.8624 52.8058 67.8678C51.4054 67.8731 51.0777 67.9492 49.9421 68.5344C48.1436 69.4611 46.0608 71.614 45.1343 73.5038C43.6376 76.5568 43.7519 79.3573 45.5184 82.9309C48.4243 88.8084 54.5986 91.1051 61.0075 88.6922C63.4014 87.791 66.0745 85.6995 67.5426 83.5796C69.3889 80.913 69.5153 77.1993 67.8875 73.4504C66.5812 70.4417 65.7382 69.4645 54.8127 58.2931C49.0819 52.4334 44.3161 47.6391 44.2224 47.6391C44.1285 47.6391 43.0909 48.5526 41.9166 49.6691Z" fill="white"/>
</svg>
