<svg width="89" height="87" viewBox="0 0 89 87" fill="none" xmlns="http://www.w3.org/2000/svg">
<path fill-rule="evenodd" clip-rule="evenodd" d="M32.6522 85.111C31.8712 84.5093 30.755 83.7417 30.1714 83.4056C29.2654 82.8837 29.3272 82.5547 30.5988 81.1405C33.1364 78.3173 33.2465 77.6971 31.5374 75.8728L29.9193 74.1453L31.5871 72.3652C33.627 70.187 34.3981 70.1528 36.9016 72.1281L38.8577 73.6711L40.1769 71.9501C40.9019 71.0037 41.5025 70.0688 41.5111 69.873C41.5324 69.3838 34.7474 63.5635 33.8635 63.3114C33.4708 63.1996 30.7089 65.4811 27.7254 68.3805L22.3015 73.6533L24.1071 75.5431L25.9127 77.4336L23.9573 79.3013C22.1993 80.9803 21.8627 81.0658 20.6238 80.1494C18.6641 78.6996 17.5409 78.8762 15.7552 80.9148L14.1917 82.6999L11.8728 80.8543L9.55315 79.0079L11.6953 76.2964C12.8732 74.8047 13.8367 73.2296 13.8367 72.7967C13.8367 72.3104 12.2328 72.0092 9.63907 72.0092H5.44144L4.96147 69.1609C4.52978 66.6004 4.27275 66.3127 2.41392 66.3127C0.524562 66.3127 0.346348 66.0984 0.346348 63.8205C0.346348 61.6716 0.578524 61.3284 2.03264 61.3284C2.95993 61.3284 4.6661 61.1382 5.82272 60.9061C7.83065 60.5038 7.95632 60.6256 8.57404 63.5763L9.22157 66.6688L12.7248 66.8909C14.6511 67.0134 17.0474 66.9073 18.0492 66.6552C19.7227 66.2337 19.7696 66.1226 18.6286 65.2859C17.0737 64.146 17.0886 63.5386 18.723 61.4067L20.0273 59.7056L22.3051 61.0507L24.5828 62.3964L26.6142 59.9042C28.9452 57.0446 28.7499 56.596 23.6158 53.0272L20.7359 51.0264L16.9927 55.1563L13.2502 59.2862L10.7119 57.6371C8.1743 55.9879 7.53386 54.6778 8.86302 53.8539C9.25139 53.6132 9.91313 52.7709 10.3342 51.9826C11.0719 50.5998 10.9143 50.555 5.90011 50.7216L0.701358 50.8939L0.487643 48.0193L0.273926 45.1441L3.86023 44.667C5.83266 44.405 7.43801 43.9606 7.42807 43.6808C7.41813 43.4003 5.82059 42.0901 3.87798 40.7685C1.93537 39.4469 0.346348 38.0848 0.346348 37.7423C0.346348 37.3991 2.58291 37.1185 5.31648 37.1185C8.05004 37.1185 10.2866 36.8479 10.2866 36.5168C10.2866 36.1857 9.64759 35.3348 8.86657 34.6263C6.8281 32.7764 7.07306 32.2851 10.4641 31.4142C15.6962 30.0713 15.6288 30.1311 13.9432 28.3311C11.887 26.1365 11.9878 25.8681 15.0792 25.3084C18.8906 24.6184 19.2108 24.2588 17.3058 22.8034L15.6117 21.5096L18.1202 18.9775L20.6287 16.4454L23.0541 18.2398L25.4796 20.0342L27.6458 17.9422L29.8121 15.8494L31.7646 17.2871C32.8389 18.0775 33.7172 19.1299 33.7172 19.6255C33.7172 20.1211 29.2441 25.1909 23.7769 30.8909C18.3098 36.5909 13.8367 41.556 13.8367 41.9242C13.8367 42.293 14.4793 43.1774 15.2638 43.8894C16.6498 45.1476 16.7435 45.137 18.4653 43.5142L20.2382 41.8437L22.3342 43.3974C24.9755 45.3563 25.2935 45.342 27.327 43.171L28.9949 41.3908L27.3079 39.5901L25.6209 37.7893L27.8262 35.5769L30.0322 33.3646L32.1232 34.8584L34.2142 36.3516L36.0865 34.3913L37.9588 32.4318L36.4543 30.9229L34.9498 29.4141L36.5118 27.2138C38.3707 24.5956 38.8151 24.5394 41.5558 26.5716L43.6567 28.1288L45.7591 26.1094L47.8608 24.0893L50.4346 26.0575L53.0077 28.0263L50.6675 30.4473L48.3272 32.869L50.2379 34.7851L52.1486 36.7012L54.2275 34.7032L56.3064 32.7059L58.5018 34.3344C59.7095 35.2294 60.6979 36.1245 60.6979 36.3232C60.6979 36.5218 59.8416 37.5813 58.7943 38.6772L56.8915 40.6695L58.5636 42.4539C60.6006 44.6293 60.9187 44.6442 63.5522 42.6918C65.5118 41.2392 65.7198 41.2171 66.9524 42.3357C67.6738 42.9908 68.7282 43.527 69.2934 43.527C70.3776 43.527 72.7682 41.1138 72.7682 40.0201C72.7682 39.6662 68.3753 35.3127 63.0054 30.3447C57.6363 25.3767 53.1518 20.9293 53.0411 20.4614C52.9303 19.9936 53.6304 18.8657 54.5967 17.9557L56.3533 16.3002L58.9363 17.9016L61.5194 19.5023L63.6367 17.9322C65.6375 16.449 65.8526 16.4269 67.5247 17.5249C69.6846 18.9448 70.3882 20.5647 69.3125 21.6434C67.8073 23.153 68.5031 23.5895 72.4132 23.5895C74.561 23.5895 76.3183 23.796 76.3183 24.048C76.3183 24.3001 75.1205 25.5904 73.6557 26.9141L70.9931 29.3222L75.8589 28.8573C80.5372 28.4101 80.6963 28.4464 79.9806 29.7879C79.5709 30.5555 78.7394 31.5965 78.1324 32.1021C76.0265 33.8545 77.0581 34.2233 82.886 33.8046L88.7436 33.3838L84.5055 37.7437L80.2681 42.1029H83.618H86.9686V45.3071V48.5114H81.6434C76.2402 48.5114 75.1354 49.1764 77.1611 51.2079C77.8107 51.8595 77.6205 52.4619 76.3268 53.8425C75.4052 54.8266 74.3274 55.6319 73.9326 55.6319C73.5379 55.6319 71.6989 54.3502 69.8465 52.7837C67.994 51.2172 66.0564 49.9476 65.5409 49.9625C65.0247 49.9782 63.0054 51.4066 61.0529 53.1383L57.5028 56.2856L59.439 58.2409L61.376 60.1955L63.6026 58.5449L65.8292 56.8937L67.6703 58.7407L69.5121 60.5871L67.4125 62.8329L65.313 65.0795L70.5501 64.6145C76.7017 64.069 77.0283 63.9195 77.0283 61.6559C77.0283 59.7611 77.9861 59.3681 83.4185 59.0334L86.6135 58.8362L86.8301 61.8225C87.0403 64.7284 86.9785 64.8224 84.5623 65.2767C82.5494 65.6555 82.0375 66.1013 81.8614 67.6307C81.6583 69.3874 81.3147 69.5611 76.8508 70.1635C74.2145 70.5188 72.0582 71.0536 72.0582 71.3512C72.0582 71.6496 73.1765 72.5859 74.5432 73.4333C77.487 75.2576 77.6247 76.1832 75.2795 78.3927C73.6174 79.9592 73.4434 79.9827 71.7543 78.8727C69.4261 77.3432 68.3767 77.4001 66.121 79.1795L64.2522 80.6535L62.12 79.1311C60.9471 78.2938 59.9879 77.408 59.9879 77.1623C59.9879 76.9166 60.8647 75.7973 61.9369 74.6751L63.8866 72.6351L60.3393 69.4572C58.3889 67.7098 55.7668 65.4576 54.5129 64.4528L52.2331 62.6257L48.6553 65.7153C46.6878 67.4143 45.0782 68.9958 45.0775 69.2286C45.0775 69.4614 45.7201 70.2354 46.5046 70.9475C47.8906 72.2057 47.9836 72.195 49.677 70.6L51.4215 68.9566L53.9861 70.9183L56.5514 72.8807L54.5853 74.9386C52.6676 76.9458 52.6534 77.0213 53.996 78.0403C54.7536 78.6142 55.6127 79.0948 55.9053 79.1069C56.8957 79.1489 56.4236 80.1885 54.3347 82.5647L52.2544 84.9315L49.1984 83.0738C47.5178 82.052 45.4914 80.7525 44.6955 80.1864C43.36 79.2358 42.9119 79.4302 38.8776 82.7035C36.4735 84.6545 34.4088 86.2403 34.2895 86.2275C34.1702 86.2154 33.4332 85.7126 32.6522 85.111ZM40.4411 59.8815L38.3728 57.7168L40.2174 56.1403C42.5569 54.1409 43.1441 52.4099 41.8497 51.3318C40.5405 50.2424 37.6472 50.9786 35.7471 52.8841L34.2632 54.3723L32.0806 52.1827L29.8973 49.9939L31.8442 48.1845C34.1382 46.0519 34.2873 46.0277 35.9403 47.528C36.7774 48.2878 37.8247 48.5256 39.0139 48.2258C40.446 47.8655 40.8174 47.3301 40.8174 45.6276C40.8174 44.3772 40.3729 43.3112 39.7524 43.0727C38.1754 42.4653 38.4757 41.3139 40.9132 38.6252L43.0972 36.2156L44.7722 38.2692C46.5891 40.4979 46.898 41.7704 45.7875 42.4589C44.6465 43.166 44.971 46.3788 46.232 46.8644C46.8667 47.1086 48.4316 46.9292 49.7089 46.4664C51.7268 45.7344 52.3672 45.8234 54.6017 47.1457L57.1727 48.6666L54.8523 51.3767C52.2458 54.4228 51.6991 54.6329 50.1037 53.2038C48.1192 51.4272 44.3675 51.4714 44.3675 53.2722C44.3675 53.9322 45.0612 55.2125 45.9089 56.1175C46.756 57.0218 47.314 57.8436 47.1479 57.9432C46.9818 58.0429 45.8699 59.0063 44.677 60.0851L42.5086 62.0461L40.4411 59.8815ZM41.3811 20.2072C38.9351 17.6602 38.8684 17.4615 39.932 15.8922C40.97 14.3613 40.9416 14.1412 39.5301 12.725L38.0121 11.2033L36.3975 12.7193L34.7822 14.2359L32.0863 12.6003L29.3903 10.9648L33.397 6.25809L37.4029 1.55141L40.1819 3.13573L42.9609 4.72005L44.7828 2.40302L46.6047 0.0860062L51.4989 3.47111C54.1906 5.33313 56.4016 7.17664 56.4115 7.56827C56.4222 7.95989 55.7065 9.18819 54.8211 10.2976C53.3364 12.1575 53.0588 12.2443 51.2419 11.4141C49.4547 10.5973 49.1012 10.6856 47.422 12.3704C45.7264 14.07 45.6462 14.4075 46.4613 16.3821C47.2494 18.2897 47.1749 18.7874 45.8116 20.7078C44.9639 21.9012 44.1978 22.8774 44.1083 22.8774C44.0189 22.8774 42.7919 21.6755 41.3811 20.2072Z" fill="white"/>
</svg>
