<svg width="83" height="84" viewBox="0 0 83 84" fill="none" xmlns="http://www.w3.org/2000/svg">
<path fill-rule="evenodd" clip-rule="evenodd" d="M34.7483 6.3032C34.7395 6.2944 34.7394 6.28013 34.7481 6.27118C34.7568 6.26214 34.7566 6.24772 34.7476 6.23895L32.1285 3.69648L29.2801 0.862234C29.2702 0.852461 29.2544 0.852501 29.2446 0.862323C29.2349 0.87206 29.2192 0.872196 29.2093 0.86263L29.2086 0.861885C29.1982 0.851817 29.1816 0.852063 29.1716 0.862434L26.252 3.86991L23.7981 6.33612C23.7896 6.34463 23.7897 6.35838 23.7982 6.36684C23.8066 6.37523 23.8067 6.38884 23.7984 6.39737L18.3604 11.9992C17.9758 12.3954 17.9852 13.0285 18.3814 13.4132L22.5205 17.4313C22.9168 17.816 23.5499 17.8066 23.9346 17.4103L28.6156 12.5883C29.0037 12.1886 29.6435 12.183 30.0385 12.576L41.4759 23.9563C41.4839 23.9643 41.4968 23.9642 41.5047 23.9563C41.5127 23.9483 41.5257 23.9483 41.5336 23.9563C41.5416 23.9642 41.5545 23.9643 41.5624 23.9563L52.8718 12.7035C53.2667 12.3105 53.9066 12.3161 54.2946 12.7158L59.0835 17.6489C59.4681 18.0451 60.1012 18.0545 60.4975 17.6698L64.6366 13.6517C65.0329 13.2671 65.0423 12.634 64.6576 12.2377L59.1743 6.58928C59.1314 6.54503 59.132 6.47447 59.1757 6.43097C59.2198 6.38709 59.22 6.31577 59.1761 6.27167L54.4814 1.55341C54.0918 1.16191 53.4587 1.16033 53.0672 1.54987L42.2245 12.3384C41.8344 12.7266 41.2039 12.7266 40.8138 12.3384L34.7483 6.3032ZM40.8476 24.6799C41.2381 24.2893 41.8713 24.2893 42.2618 24.6799L46.5761 28.9942C46.9667 29.3847 46.9667 30.0179 46.5761 30.4084L42.2618 34.7227C41.8713 35.1133 41.2381 35.1133 40.8476 34.7227L36.5333 30.4084C36.1427 30.0179 36.1427 29.3847 36.5333 28.9942L40.8476 24.6799ZM48.2722 77.7111C48.281 77.7199 48.2812 77.7342 48.2725 77.7431C48.2637 77.7521 48.2639 77.7666 48.273 77.7753L50.8921 80.3179L53.7405 83.1521C53.7503 83.1618 53.7662 83.1618 53.7759 83.152C53.7856 83.1422 53.8013 83.1421 53.8112 83.1517L53.812 83.1524C53.8223 83.1625 53.8389 83.1622 53.849 83.1519L56.7685 80.1444L59.2224 77.6782C59.2309 77.6697 59.2309 77.6559 59.2223 77.6475C59.2139 77.6391 59.2138 77.6255 59.2221 77.6169L64.6601 72.0151C65.0448 71.6189 65.0354 70.9858 64.6391 70.6011L60.5 66.583C60.1037 66.1983 59.4706 66.2077 59.0859 66.604L54.4049 71.426C54.0169 71.8257 53.377 71.8313 52.9821 71.4383L41.5446 60.058C41.5367 60.05 41.5238 60.05 41.5158 60.058C41.5078 60.066 41.4949 60.066 41.4869 60.058C41.479 60.0501 41.4661 60.05 41.4581 60.058L30.1488 71.3108C29.7539 71.7038 29.114 71.6982 28.7259 71.2985L23.9371 66.3654C23.5524 65.9692 22.9193 65.9598 22.523 66.3445L18.3839 70.3625C17.9876 70.7472 17.9783 71.3803 18.3629 71.7766L23.8462 77.425C23.8892 77.4693 23.8885 77.5398 23.8448 77.5833C23.8007 77.6272 23.8005 77.6985 23.8444 77.7426L28.5391 82.4609C28.9287 82.8524 29.5618 82.854 29.9534 82.4644L40.796 71.6758C41.1861 71.2877 41.8166 71.2877 42.2067 71.6758L48.2722 77.7111ZM42.1729 59.3344C41.7824 59.725 41.1493 59.725 40.7587 59.3344L36.4444 55.0201C36.0539 54.6296 36.0539 53.9964 36.4444 53.6059L40.7587 49.2916C41.1493 48.901 41.7824 48.901 42.1729 49.2916L46.4873 53.6059C46.8778 53.9964 46.8778 54.6296 46.4873 55.0201L42.1729 59.3344ZM16.9083 23.0757C17.293 23.472 17.2836 24.1051 16.8873 24.4898L12.1193 29.1184C11.7196 29.5064 11.714 30.1463 12.107 30.5412L23.465 41.9562C23.4723 41.9635 23.4722 41.9753 23.465 41.9825C23.4577 41.9898 23.4577 42.0016 23.465 42.0089C23.4722 42.0161 23.4723 42.0279 23.465 42.0352L12.0758 53.4815C11.6829 53.8764 11.6884 54.5163 12.0882 54.9043L16.9076 59.5828C17.3039 59.9675 17.3133 60.6006 16.9286 60.9969L12.9105 65.136C12.5258 65.5323 11.8927 65.5417 11.4964 65.157L5.89341 59.7178C5.887 59.7115 5.87677 59.7116 5.87046 59.718C5.8641 59.7244 5.85376 59.7244 5.84736 59.718L3.99309 57.873L0.363588 54.3496C0.351073 54.3375 0.350776 54.3175 0.362925 54.305L0.36869 54.299C0.377538 54.2899 0.377413 54.2754 0.368408 54.2664C0.359324 54.2574 0.359287 54.2427 0.368326 54.2336L2.98959 51.5992L5.73495 48.7711C5.74442 48.7614 5.76 48.7612 5.76975 48.7706C5.77942 48.78 5.79483 48.7799 5.80434 48.7703L11.8433 42.701C12.2315 42.3109 12.2315 41.6805 11.8433 41.2904L5.86058 35.2776C5.83716 35.2541 5.79915 35.2537 5.77532 35.2769C5.75128 35.3002 5.71287 35.2996 5.68954 35.2756L1.01716 30.4625C0.632476 30.0662 0.641868 29.4331 1.03814 29.0485L1.45686 28.642L5.83163 24.289C5.84671 24.274 5.87111 24.2741 5.88612 24.2892C5.901 24.3041 5.92514 24.3043 5.94027 24.2896L11.4761 18.9157C11.8724 18.531 12.5055 18.5404 12.8902 18.9366L16.9083 23.0757ZM29.9107 36.9362C29.5202 36.5457 28.8871 36.5457 28.4965 36.9362L24.1822 41.2505C23.7917 41.6411 23.7917 42.2742 24.1822 42.6647L28.4965 46.9791C28.8871 47.3696 29.5202 47.3696 29.9107 46.9791L34.2251 42.6647C34.6156 42.2742 34.6156 41.6411 34.2251 41.2505L29.9107 36.9362ZM77.2192 35.2402C77.2273 35.2321 77.2405 35.2319 77.2487 35.2399C77.257 35.248 77.2703 35.2478 77.2784 35.2395L79.6199 32.8274L82.6551 29.777C82.6656 29.7665 82.6655 29.7495 82.655 29.7391C82.6446 29.7287 82.6444 29.7118 82.6547 29.7013L82.6554 29.7005C82.6662 29.6894 82.6659 29.6717 82.6549 29.6609L79.4393 26.5394L77.1812 24.2925C77.1734 24.2848 77.1608 24.2848 77.153 24.2926C77.1454 24.3003 77.1329 24.3004 77.1251 24.2928L71.5194 18.8511C71.1232 18.4664 70.4901 18.4758 70.1054 18.8721L66.0873 23.0112C65.7026 23.4074 65.712 24.0405 66.1083 24.4252L70.9328 29.1087C71.3326 29.4968 71.3381 30.1367 70.9452 30.5316L59.561 41.9729C59.5537 41.9802 59.5538 41.9919 59.561 41.9992C59.5684 42.0064 59.5684 42.0183 59.561 42.0255C59.5538 42.0328 59.5537 42.0445 59.561 42.0518L70.8202 53.3675C71.2131 53.7624 71.2076 54.4023 70.8079 54.7903L65.8748 59.5792C65.4785 59.9639 65.4691 60.597 65.8538 60.9932L69.8719 65.1323C70.2566 65.5286 70.8897 65.538 71.286 65.1533L76.9369 59.6676C76.9797 59.626 77.048 59.6266 77.0902 59.6689C77.1326 59.7116 77.2017 59.7118 77.2444 59.6693L81.9652 54.972C82.3567 54.5825 82.3583 53.9493 81.9687 53.5578L71.1827 42.7177C70.7945 42.3276 70.7945 41.6971 71.1827 41.307L77.2192 35.2402ZM58.8438 41.3433C59.2343 41.7338 59.2343 42.367 58.8438 42.7575L54.5295 47.0718C54.1389 47.4624 53.5058 47.4624 53.1153 47.0718L48.8009 42.7575C48.4104 42.367 48.4104 41.7338 48.8009 41.3433L53.1153 37.029C53.5058 36.6384 54.1389 36.6384 54.5295 37.029L58.8438 41.3433Z" fill="white"/>
</svg>
