<svg width="116" height="75" viewBox="0 0 116 75" fill="none" xmlns="http://www.w3.org/2000/svg">
<path fill-rule="evenodd" clip-rule="evenodd" d="M114.198 35.8397C112.863 35.1225 110.563 34.5365 109.084 34.5365C106.659 34.5365 106.438 34.1037 106.817 30.117C107.323 24.7949 104.944 21.8731 100.105 21.8731C95.1358 21.8731 91.9208 29.8787 96.2247 31.5353C98.9625 32.5898 99.099 32.4574 98.3544 29.4815C97.5844 26.4055 99.0084 24.9607 101.764 26.0221C103.933 26.8567 104.19 31.4858 102.155 33.0652C98.7364 35.7188 96.5426 35.6302 93.6442 32.7222C91.2885 30.3588 90.8514 29.0728 91.4262 26.189C91.8198 24.2147 93.0246 21.6222 94.102 20.4261C95.9861 18.3389 95.9287 18.2675 92.6551 18.6244C89.3287 18.9859 89.2312 18.85 88.6472 13.0168C88.2318 8.87704 87.2049 6.13828 85.3082 4.11214C80.3329 -1.20073 70.9195 -1.14892 64.5513 4.22726C61.6736 6.65748 61.0494 6.82212 60.5629 5.28064C60.2462 4.27563 59.7321 2.64321 59.4212 1.65431C58.6857 -0.687266 56.5446 0.651586 56.5446 3.45365C56.5446 6.00129 54.7271 7.46221 53.6772 5.7584C52.4483 3.76219 44.1926 -3.1388e-06 41.0429 -3.27648e-06C37.6431 -3.42509e-06 32.3994 2.46706 30.2342 5.08263C29.4241 6.06232 28.419 9.59423 28.0002 12.9293C27.2681 18.7579 27.1109 18.9813 23.9842 18.644L20.729 18.294L23.1466 21.7004C26.1207 25.8909 26.2446 30.1089 23.4656 32.6312C21.0112 34.86 16.2884 35.1305 14.3195 33.155C12.3482 31.1772 12.6201 26.8487 14.767 26.0221C17.5632 24.9457 18.9424 26.4204 18.1404 29.6277C17.5506 31.9866 17.764 32.3918 19.289 31.8035C20.3193 31.4075 21.3784 31.0829 21.6423 31.0829C22.5866 31.0829 22.1001 26.2846 20.9344 24.0996C20.114 22.5627 18.5271 21.8731 15.8111 21.8731C11.0941 21.8731 9.0551 24.8133 9.73323 30.6385C10.0947 33.7445 9.78256 34.5365 8.19683 34.5365C7.10333 34.5365 4.75342 35.0937 2.97721 35.7741C-0.13804 36.9667 -0.173608 37.0692 1.97437 38.6521C3.19981 39.5547 5.58874 40.2926 7.28348 40.2926C10.2438 40.2926 10.3437 40.4918 9.80207 45.3154C9.31786 49.6244 9.61849 50.6064 11.9191 52.2227C15.4038 54.6725 17.8742 54.6068 20.223 52.0016C22.7783 49.1696 22.6222 45.2474 19.8971 43.7842C17.9316 42.7286 17.6986 42.9576 17.8891 45.7586C18.0589 48.2314 17.6022 48.9267 15.8111 48.9267C13.0929 48.9267 12.0338 44.5049 14.1428 41.9561C17.4611 37.9441 25.5642 41.9619 25.5642 47.6201C25.5642 49.1178 24.4569 51.7553 23.1041 53.4809L20.6452 56.618L23.9647 56.2254C27.2004 55.8444 27.3014 55.9918 27.9038 62.0126C28.4133 67.1102 29.1694 68.7703 32.225 71.5102C37.1601 75.9343 44.0583 76.0816 50.2085 71.8947C52.5791 70.2795 54.6468 69.1145 54.8028 69.3044C54.9589 69.4932 55.6989 70.8287 56.4471 72.2711C57.9812 75.2298 59.9869 74.6841 59.9869 71.3076C59.9869 68.3547 61.3213 68.4894 66.4067 71.9511C72.8758 76.3556 79.734 75.9688 84.7712 70.915C88.0769 67.5983 88.6724 66.1927 88.6724 61.7053C88.6724 56.5605 88.7734 56.4096 92.1984 56.4096L95.7233 56.4096L93.3459 53.3762C90.3431 49.5472 90.3121 45.5548 93.2621 42.595C97.651 38.1916 104.196 40.5689 103.39 46.2732C103.141 48.0334 102.243 48.9267 100.72 48.9267C98.9292 48.9267 98.4725 48.2314 98.6424 45.7586C98.8328 42.9577 98.5999 42.7286 96.6344 43.7842C93.8266 45.2912 93.7612 49.7084 96.5081 52.2019C102.271 57.4342 109.231 50.992 106.577 42.8828C105.83 40.6 106.12 40.2926 109.029 40.2926C110.844 40.2926 113.296 39.5834 114.477 38.7177C116.556 37.1924 116.548 37.1003 114.198 35.8397ZM86.7792 32.3365C85.5434 30.5671 84.863 26.8026 84.7115 20.8934C84.3971 8.70089 80.9789 3.45365 73.3497 3.45365C68.5352 3.45365 62.2817 10.3299 62.2817 15.6232C62.2817 20.1279 65.5863 24.1756 69.2615 24.1756C73.0652 24.1756 71.1455 27.011 67.0699 27.4139C64.1325 27.7052 63.4291 28.29 63.4291 30.4393C63.4291 31.9048 62.6546 33.7479 61.708 34.5365C60.2026 35.789 59.9846 34.8312 59.9697 26.9063C59.9513 17.6343 58.7132 12.9362 57.2778 16.6903C56.8751 17.7448 56.5446 22.5144 56.5446 27.2885C56.5446 34.875 56.3277 35.789 54.8235 34.5365C53.8768 33.7479 53.1023 31.9048 53.1023 30.4393C53.1023 28.29 52.399 27.7052 49.4616 27.4139C45.3859 27.011 43.4663 24.1756 47.27 24.1756C51.0232 24.1756 54.2498 20.1313 54.2498 15.4263C54.2498 9.99831 48.1248 3.45365 43.0452 3.45365C35.4481 3.45365 31.2589 10.6062 31.5824 23.0243C31.7006 27.5705 31.1189 30.315 29.5194 32.7544C27.4184 35.9594 27.4104 36.1068 29.3897 35.3447C30.544 34.9003 31.6914 34.5365 31.9393 34.5365C33.7637 34.5365 35.891 26.6058 35.891 19.8067C35.891 10.9388 37.6649 8.05852 43.1266 8.05852C49.3044 8.05852 51.6176 17.0691 45.737 18.2295C44.0366 18.5657 43.9734 18.3066 45.2574 16.2437C47.2379 13.0628 44.9235 10.3149 41.8828 12.2397C40.3086 13.2355 39.8932 15.2605 39.837 22.1943C39.7934 27.6545 39.1979 31.5859 38.2398 32.7452C35.7763 35.7234 37.9265 36.3129 41.5225 33.6455C44.7606 31.2429 44.8432 31.2394 45.4169 33.4394C45.7565 34.7403 46.9866 35.6877 48.3371 35.6877C52.2337 35.6877 52.407 38.0189 48.6171 39.4545C46.6664 40.1924 45.0704 41.5417 45.0704 42.45C45.0704 43.7946 44.6791 43.7474 42.9717 42.1979C41.8174 41.1503 40.0711 40.2926 39.09 40.2926C37.5043 40.2926 37.4859 40.8141 38.9259 45.0057C39.8794 47.7836 40.2432 51.327 39.8129 53.6329C38.7641 59.2417 40.0355 63.3169 42.8329 63.3169C45.5511 63.3169 47.1908 60.0268 45.1151 58.7397C43.9654 58.0271 43.9666 57.6702 45.122 56.953C47.1277 55.7097 49.8402 59.7413 48.9762 62.6815C48.2051 65.3016 45.3607 67.9218 43.285 67.9218C42.5438 67.9218 40.6321 66.8915 39.0361 65.632C36.4395 63.5829 36.0907 62.3637 35.7131 54.0082C35.3242 45.4213 35.0281 44.4485 32.0162 41.849C28.0117 38.3931 26.9721 39.0159 29.7213 43.2247C31.1487 45.4109 31.7098 48.3062 31.579 52.8213C31.3426 60.9903 32.9547 66.0971 36.7022 69.0546C40.0102 71.6656 46.025 72.1076 48.6997 69.9364C56.4494 63.645 55.707 51.8048 47.5614 51.8048C46.1914 51.8048 45.0704 51.3501 45.0704 50.794C45.0704 48.8841 48.5035 46.9294 50.8017 47.5314C52.5929 48.0023 53.1023 47.5706 53.1023 45.5859C53.1023 44.1826 53.8608 42.0298 54.7867 40.8003C56.3117 38.7776 56.4769 39.4937 56.5262 48.3511C56.5825 58.5521 57.9054 63.5149 59.2387 58.5221C59.6323 57.044 59.9788 51.9487 60.0075 47.1999C60.0546 39.3555 60.2141 38.7707 61.7447 40.8003C62.6707 42.0298 63.4291 44.1826 63.4291 45.5859C63.4291 47.5706 63.9386 48.0023 65.7297 47.5315C68.028 46.9294 71.4611 48.8841 71.4611 50.794C71.4611 51.3501 70.2505 51.8048 68.7704 51.8048C62.9047 51.8048 60.2645 59.8679 64.2369 65.6505C67.2627 70.055 69.3854 71.2995 73.9407 71.3386C77.2257 71.3674 78.7736 70.6214 81.0432 67.9161C83.8659 64.5499 84.7884 60.5264 85.12 50.1378C85.1992 47.6374 86.0723 44.3541 87.0603 42.8425C89.7751 38.6855 88.078 38.4092 84.1344 42.3659C80.8699 45.6412 80.6405 46.432 80.6405 54.3939C80.6405 61.9435 80.3203 63.2168 77.835 65.5595C75.7524 67.5223 74.2654 68.0105 72.0577 67.4544C67.2845 66.2525 65.6012 58.7374 69.7491 57.1407C70.8426 56.7205 71.2396 57.4584 71.0939 59.6423C70.9206 62.236 71.3555 62.7413 73.7559 62.7413C76.5568 62.7413 76.6256 62.5364 76.675 54.1072C76.7025 49.3584 77.3669 44.308 78.1494 42.8828C79.9038 39.6917 77.952 39.3152 74.0118 42.0851C71.803 43.6369 71.4611 43.6484 71.4611 42.176C71.4611 41.2159 69.9362 40.1395 67.958 39.7032C63.9925 38.8294 63.9902 36.4602 67.9546 35.8777C69.398 35.6659 70.8311 34.525 71.1398 33.3416C71.6756 31.2855 71.8455 31.2993 75.0089 33.6455C78.5418 36.2668 80.7713 35.7418 78.3812 32.8523C77.5413 31.838 76.8758 27.4439 76.784 22.3014C76.6578 15.3296 76.2114 13.2275 74.6486 12.2386C71.6642 10.3518 69.2879 13.0536 71.2132 16.1458C72.3813 18.0235 72.3331 18.4195 70.9379 18.4195C70.0073 18.4195 68.6763 17.3489 67.9775 16.0399C66.0992 12.5195 69.3074 8.05852 73.7169 8.05852C78.621 8.05852 80.6405 11.6768 80.6405 20.4594C80.6405 28.1611 82.6702 33.7468 85.9255 34.9993C88.6655 36.055 88.8893 35.3585 86.7792 32.3365Z" fill="#D2D2D2"/>
</svg>
