<svg width="75" height="75" viewBox="0 0 75 75" fill="none" xmlns="http://www.w3.org/2000/svg">
<path d="M5.36686 14.9204C5.36686 10.4031 5.72924 6.34716 6.17261 5.90732C6.61477 5.46628 10.6596 5.10577 15.1597 5.10577H23.3422L23.7178 9.61231C24.0718 13.8773 24.3194 14.1225 28.3206 14.1778L32.549 14.2354L32.903 23.5417L33.2569 32.8493L23.8422 32.4971C14.7404 32.157 14.4228 32.0453 14.2971 29.1407C14.0446 23.3651 13.8621 23.1319 9.59511 23.1319H5.36686V14.9204Z" fill="#D2D2D2"/>
<path d="M45.3137 14.7197C49.8259 14.7197 52.4826 12.458 52.4826 8.61605V5L61.2413 5.35332L70 5.70664V14.1189V22.5311L65.7716 23.1319C61.8852 23.6847 61.5131 24.0981 61.1688 28.2394L60.7931 32.7459H51.8061H42.8178V23.7328C42.8178 15.4252 43.0135 14.7197 45.3137 14.7197Z" fill="#D2D2D2"/>
<path d="M38.5967 42.3599C34.5919 42.3599 32.8425 39.7244 34.3055 35.8969C36.5985 29.8978 43.6719 33.4453 42.0107 39.7617C41.5649 41.4586 40.3799 42.3599 38.5967 42.3599Z" fill="#D2D2D2"/>
<path d="M13.8235 49.068C13.8235 47.4697 14.1533 45.3065 14.5568 44.261C15.1343 42.7649 17.1917 42.3599 24.2216 42.3599H33.153V51.373C33.153 59.8777 32.9996 60.3944 30.4348 60.5242C28.9404 60.6011 26.9011 60.7357 25.9045 60.8247C24.7205 60.9304 23.9618 62.5492 23.7178 65.4935L23.3422 70H14.4553C9.56739 70 5.38736 69.47 5.16507 68.8235C4.94399 68.1757 4.94517 64.1199 5.16746 59.8104L5.57343 51.9738H9.69791C13.2557 51.9738 13.8235 51.5736 13.8235 49.068Z" fill="#D2D2D2"/>
<path d="M46.4421 61.1167C43.5233 60.9917 43.4098 60.6733 43.0691 51.6734L42.7164 42.3599H51.7553H60.7931L61.1688 46.8664C61.5131 51.0076 61.8852 51.421 65.7716 51.9738L70 52.5747V60.9869V69.3991L61.2413 69.7524C52.0453 70.1226 51.9643 70.0721 52.4355 64.2917C52.6541 61.6022 52.2083 61.3655 46.4421 61.1167Z" fill="#D2D2D2"/>
</svg>
