<svg width="78" height="75" viewBox="0 0 78 75" fill="none" xmlns="http://www.w3.org/2000/svg">
<path fill-rule="evenodd" clip-rule="evenodd" d="M8.16582 4.01884C8.1108 4.07224 8.06585 4.95531 8.06585 5.98093V7.84605L6.08541 7.88503L4.10494 7.92399L4.06506 9.92142L4.025 11.9189H6.0455H8.06585V13.8812V15.8436H10.1543H12.2428V13.8812V11.9189H14.2593H16.2757V9.88638V7.8539H14.2633H12.2509L12.2108 5.92656L12.1708 3.99921L10.2183 3.96039C9.14437 3.93908 8.22069 3.96529 8.16582 4.01884ZM12.0988 11.7787V9.88638V7.99407H10.1543H8.20989V9.88638V11.7787H10.1543H12.0988Z" fill="#D2D2D2"/>
<path fill-rule="evenodd" clip-rule="evenodd" d="M64.911 4.02262C64.8581 4.07392 64.8149 4.95531 64.8149 5.98093V7.84605L62.8345 7.88503L60.854 7.92399V9.88638V11.8488L62.8345 11.8877L64.8149 11.9267V13.8852V15.8436H66.9034H68.9919V13.8812V11.9189H71.0083H73.0248V9.88638V7.8539H71.0083H68.9919V5.89151V3.92912H66.9995C65.9035 3.92912 64.9637 3.97117 64.911 4.02262ZM68.9919 11.7787V9.88638V7.99407H66.9754H64.9589V9.88638V11.7787H66.9754H68.9919Z" fill="#D2D2D2"/>
<path fill-rule="evenodd" clip-rule="evenodd" d="M64.9149 59.2461C64.8598 59.2995 64.8149 60.1825 64.8149 61.2082V63.0733L62.8345 63.1123L60.854 63.1512V65.1136V67.076L62.8345 67.115L64.8149 67.1539V69.1124V71.0709H66.9034H68.9919V69.1085V67.1461H71.0122H73.0327L72.9927 65.1487L72.9528 63.1512L70.9764 63.1123L68.9999 63.0733L68.9599 61.1499L68.9198 59.2265L66.9673 59.1876C65.8934 59.1663 64.9697 59.1925 64.9149 59.2461ZM68.9198 67.076V65.1837V63.2914L66.9394 63.2524L64.9589 63.2135V65.1837V67.1539L66.9394 67.115L68.9198 67.076Z" fill="#D2D2D2"/>
<path fill-rule="evenodd" clip-rule="evenodd" d="M8.16582 59.2461C8.1108 59.2995 8.06585 60.1825 8.06585 61.2082V63.0733L6.08541 63.1123L4.10494 63.1512L4.06506 65.1487L4.025 67.1461H6.0455H8.06585V69.1085V71.0709H10.1543H12.2428V69.1085V67.1461H14.2632H16.2837L16.2436 65.1487L16.2037 63.1512L14.2273 63.1123L12.2509 63.0733L12.2108 61.1499L12.1708 59.2265L10.2183 59.1876C9.14437 59.1663 8.22069 59.1925 8.16582 59.2461ZM12.0988 67.1461V65.1837V63.2213H10.1543H8.20989V65.1837V67.1461H10.1543H12.0988Z" fill="#D2D2D2"/>
<path fill-rule="evenodd" clip-rule="evenodd" d="M24.3416 7.99407V3.99921V0.00434611H28.4465H32.5515V1.96282V3.92127L34.5319 3.96025L36.5124 3.99921L36.5524 5.92656L36.5925 7.8539H38.5289H40.4652L40.5053 5.92656L40.5453 3.99921L42.5618 3.92912L44.5782 3.85904L44.6183 1.92945L44.6585 0L48.7232 0.0371473L52.7881 0.0744314V3.99921V7.92399L50.7357 7.96281L48.6832 8.00179V9.96024V11.9189H46.6627H44.6422L44.6823 13.8462L44.7223 15.7735L46.6987 15.8125L48.6751 15.8515L48.7152 17.7749L48.7552 19.6983H50.6997H52.6441L52.6841 17.771L52.7242 15.8436H56.8251H60.926V19.7684V23.6932H58.9095H56.8931V25.6556V27.618H58.9095H60.926V29.5804V31.5427H62.8664H64.8068L64.8469 29.6154L64.8869 27.6881L66.9034 27.618L68.9198 27.5479L68.9599 25.6205L68.9999 23.6932H73.1031H77.2062L77.1681 27.653L77.1297 31.6128L75.0773 31.6517L73.0248 31.6906V33.6491V35.6077H71.0043H68.9838L69.0239 37.535L69.0639 39.4624L71.0403 39.5013L73.0167 39.5403L73.0568 41.4637L73.0968 43.3872L75.1133 43.4573L77.1297 43.5273V47.382V51.2367L73.1906 51.3068C71.024 51.3454 69.1951 51.3428 69.1261 51.3012C69.0571 51.2596 68.9825 50.3765 68.9602 49.3388L68.9198 47.4521L66.8674 47.4133L64.8149 47.3743V45.4159V43.4573H62.8705H60.926V45.4196V47.382H58.9095H56.8931V49.3444V51.3068H58.9118H60.9305L60.8923 55.2666L60.854 59.2265H56.8211H52.7881L52.7161 57.2641L52.6441 55.3017H50.6997H48.7552L48.7153 57.2991L48.6753 59.2965H46.6628H44.6503V61.1888V63.0811H46.6628H48.6753L48.7153 65.0786L48.7552 67.076L50.81 67.115L52.8648 67.1538L52.8265 71.0397L52.7881 74.9256L48.7232 74.9628L44.6585 75L44.6183 73.0705L44.5782 71.141L42.5618 71.0709L40.5453 71.0008L40.5053 69.0734L40.4652 67.1461H38.5248H36.5844V69.1085V71.0709H34.5679H32.5515V73.0333V74.9957H28.4465H24.3416V71.0748V67.1539L26.3221 67.115L28.3025 67.076L28.3745 65.1136L28.4465 63.1512L30.427 63.1123L32.4075 63.0733V61.1888V59.3044L30.427 59.2654L28.4465 59.2265L28.3745 57.2641L28.3025 55.3017H26.3581H24.4136L24.3737 57.2991L24.3337 59.2965H20.3048H16.2757V55.3056V51.3147L18.2562 51.2757L20.2367 51.2367L20.2767 49.3094L20.3167 47.382H18.3003H16.2838L16.2438 45.4547L16.2037 43.5273L14.2233 43.4884L12.2428 43.4494V45.4157V47.382H10.2264H8.20989V49.3444V51.3068H4.10494H0V47.3859V43.4651L1.98046 43.4261L3.96091 43.3872L4.00095 41.4637L4.041 39.5403L6.01742 39.5013L7.99384 39.4624L8.03388 37.535L8.07393 35.6077H6.05342H4.03293V33.6453V31.6829H2.01646H0V27.6881V23.6932H4.10494H8.20989V25.6556V27.618H10.2264H12.2428V29.5804V31.5427H14.2593H16.2757V29.5843V27.6258L18.2562 27.5868L20.2367 27.5479V25.6556V23.7633L18.2562 23.7243L16.2757 23.6853V19.7645V15.8436H20.3046H24.3335L24.3736 17.771L24.4136 19.6983H26.3581H28.3025L28.3426 17.771L28.3826 15.8436H30.395H32.4075V13.8852V11.9267L30.427 11.8877L28.4465 11.8488L28.4065 9.92142L28.3665 7.99407H26.354H24.3416ZM40.4733 21.727V23.6855L42.5258 23.7244L44.5782 23.7633L44.6503 25.7257L44.7223 27.6881L46.7027 27.727L48.6832 27.766V29.7244V31.6829H50.6997H52.7161V33.6453V35.6077H54.7366H56.7571L56.7171 37.535L56.677 39.4624L54.7006 39.5013L52.7242 39.5403L52.6841 41.4637L52.6441 43.3872L50.6637 43.4261L48.6832 43.4651V45.4236V47.382H46.6708H44.6583L44.6183 49.3094L44.5782 51.2367L42.5618 51.3068L40.5453 51.3769L40.5053 53.3042L40.4652 55.2316H38.5248H36.5844V53.2692V51.3068H34.5679H32.5515V49.3444V47.382H30.535H28.5186V45.4234V43.465L26.4661 43.426L24.4136 43.3872L24.3736 41.4637L24.3335 39.5403L22.3571 39.5013L20.3807 39.4624L20.3407 37.535L20.3006 35.6077H22.3211H24.3416V33.6491V31.6906L26.3941 31.6517L28.4465 31.6128L28.4866 29.6855L28.5266 27.7581H30.3112C31.2928 27.7581 32.1983 27.7199 32.3236 27.673C32.5163 27.6011 32.5515 27.287 32.5515 25.6406V23.6932H34.5679H36.5844V21.7308V19.7684H38.5289H40.4733V21.727ZM36.4404 29.6698C36.4404 28.6441 36.4836 27.7628 36.5365 27.7115C36.5892 27.66 37.529 27.618 38.6249 27.618H40.6173V29.5804V31.5427H42.6338H44.6503V33.5051V35.4675H46.6667H48.6832V37.5V39.5325H46.6667H44.6503V41.4949V43.4573H42.6338H40.6173V45.4196V47.382H38.5289H36.4404V45.4196V43.4573H34.4239H32.4075V41.4949V39.5325H30.3871H28.3666L28.4067 37.535L28.4465 35.5376L30.423 35.4986L32.3994 35.4597L32.4394 33.5363L32.4795 31.6128L34.4599 31.5739L36.4404 31.5349V29.6698ZM40.4013 39.4624L40.4413 37.535L40.4814 35.6077H38.5289H36.5763L36.6164 37.535L36.6564 39.4624H38.5289H40.4013Z" fill="#D2D2D2"/>
</svg>
