<svg width="76" height="75" viewBox="0 0 76 75" fill="none" xmlns="http://www.w3.org/2000/svg">
<path fill-rule="evenodd" clip-rule="evenodd" d="M31.5433 0.0793818C31.253 0.174424 30.8907 0.41801 30.6257 0.696245C30.4665 0.863511 30.1651 1.45138 30.164 1.597C30.1631 1.71434 30.1306 1.70257 29.7706 1.45496C28.811 0.795057 27.632 0.781601 27.0595 1.42395C26.4849 2.0687 26.5592 3.18814 27.1985 3.51988C27.43 3.63995 27.4565 3.64118 27.6664 3.54101C27.7993 3.47769 27.9328 3.34319 27.9976 3.20732C28.1345 2.92024 28.3062 2.86141 28.5294 3.02504C28.7565 3.19152 29.1593 3.78719 29.2803 4.1357C29.3709 4.39625 29.3686 4.4324 29.247 4.66565C29.1284 4.89311 29.0767 4.92614 28.6809 5.02677C27.858 5.23597 26.2938 5.73347 25.4857 6.04285L24.6769 6.35255L24.3004 6.24788C23.9809 6.15908 23.8435 6.1546 23.3941 6.21811C22.4519 6.35131 21.8852 6.77185 21.8019 7.39944C21.7613 7.70557 21.7379 7.74047 21.4905 7.86575C20.9209 8.15399 19.8173 8.81155 18.9157 9.39981L17.974 10.0143L17.7338 9.74377C17.4772 9.45468 17.3541 9.06164 17.3541 8.53137C17.3541 8.09783 17.4983 7.82141 17.8509 7.57919C18.0212 7.46217 18.2644 7.27365 18.3913 7.16021C18.597 6.9763 18.622 6.91884 18.622 6.63072C18.622 6.2579 18.5077 6.09434 18.1025 5.88761C17.7425 5.7039 17.263 5.7128 16.867 5.91049C16.1167 6.28513 15.4685 7.42076 15.4685 8.36065V8.71365L15.2247 8.65761C15.0906 8.62686 14.7321 8.60164 14.4281 8.60164C13.9586 8.60164 13.8217 8.6281 13.5178 8.77775C13.0806 8.99312 12.6924 9.3597 12.534 9.70678C12.3013 10.2166 12.4222 10.8369 12.7974 11.0586C13.1592 11.2722 13.4742 11.1612 13.5563 10.7911C13.5775 10.6953 13.6087 10.566 13.6256 10.5037C13.645 10.4322 13.7899 10.3517 14.0195 10.285C14.8324 10.0487 15.5022 10.3822 15.9545 11.2482C16.0238 11.3808 16.0671 11.4983 16.0508 11.5092C15.7094 11.7374 14.5926 12.7587 13.6419 13.7124L12.8232 14.5336L12.4065 14.535C11.5759 14.5378 10.8817 14.978 10.5378 15.72C10.3317 16.1646 10.3243 16.5657 10.5151 16.9354C10.6046 17.1087 10.6315 17.2232 10.5889 17.2496C10.4948 17.3077 9.09948 19.4316 8.80701 19.9618C8.67392 20.2032 8.54556 20.4001 8.52183 20.3995C8.05933 20.3874 7.21743 20.2435 7.01989 20.1427C6.67469 19.9667 6.47664 19.7045 6.52956 19.4937C6.59199 19.2449 6.68523 19.1655 6.91475 19.1655C7.38219 19.1655 7.59338 18.5408 7.29084 18.0531C6.98712 17.5634 6.19815 17.4138 5.68272 17.7481C5.27517 18.0125 4.88536 18.4249 4.694 18.7943C4.54484 19.0823 4.51812 19.2159 4.51545 19.6867C4.51266 20.1866 4.53346 20.2834 4.72996 20.6826C4.84966 20.9258 4.93744 21.1313 4.92502 21.1393C4.91261 21.1472 4.75616 21.1905 4.57735 21.2353C4.12084 21.35 3.77772 21.5378 3.45027 21.8525C2.85733 22.4223 2.7007 23.0952 3.00884 23.7486C3.20618 24.1668 3.38291 24.3235 3.85685 24.5003C4.31928 24.6727 4.62313 24.6254 4.82821 24.3492C4.94954 24.1857 4.95396 24.145 4.87775 23.8941C4.74166 23.4461 4.75311 23.3098 4.93497 23.2121C5.15494 23.0939 6.05231 23.1417 6.41363 23.2908C6.64056 23.3845 6.70278 23.4493 6.76488 23.6565C6.83556 23.8922 6.82112 23.9534 6.53919 24.6136C6.1592 25.5034 5.93735 26.0875 5.7443 26.7064C5.66061 26.9746 5.53395 27.3549 5.46282 27.5515C5.39168 27.7482 5.31717 27.9865 5.29721 28.0812C5.27549 28.1842 5.17425 28.3044 5.04486 28.3807C4.53893 28.6792 4.0276 29.5385 3.97642 30.1765C3.9363 30.6762 4.03325 31.003 4.28437 31.2142L4.47039 31.3707L4.2871 32.5003C4.18625 33.1215 4.06882 34.0686 4.02603 34.6049C3.98332 35.1413 3.92668 35.6224 3.90022 35.6743C3.76023 35.9484 3.06618 35.8342 2.4858 35.4415C2.02096 35.127 1.93845 34.9246 1.95171 34.1325C1.96426 33.3864 1.89014 33.2129 1.49077 33.0531C0.977623 32.8478 0.263815 33.2674 0.0562004 33.8963C0.00944985 34.038 -0.0109019 34.3475 0.00574368 34.6644C0.0296066 35.1189 0.0701151 35.2692 0.287548 35.7091C0.446461 36.0307 0.676377 36.3607 0.901937 36.5913L1.26242 36.9595L0.898881 37.3099C0.208806 37.975 -0.0494597 38.8023 0.182993 39.603C0.365119 40.2304 1.02847 40.6789 1.49097 40.4873C1.91875 40.3101 1.99469 40.0346 1.7164 39.6698C1.52146 39.4143 1.51756 39.347 1.67667 38.9821C1.82408 38.6441 2.14808 38.3214 2.47832 38.1837C2.72612 38.0803 3.22542 38.0543 3.64085 38.123L3.87473 38.1617L3.91764 39.2762C3.95568 40.2647 4.05816 41.4016 4.19223 42.3226C4.23352 42.6063 4.22084 42.6475 4.02382 42.8718C3.54162 43.421 3.3792 44.254 3.6268 44.9087C3.86146 45.5295 4.32221 45.9489 4.76956 45.9489C4.89557 45.9489 4.93634 46.0275 5.09805 46.5827C5.19955 46.9314 5.36535 47.4262 5.46639 47.6825C5.5675 47.9387 5.65041 48.2019 5.6506 48.2675C5.65086 48.3331 5.69521 48.4714 5.74917 48.5749C5.80314 48.6784 5.91615 48.9608 6.00022 49.2026L6.15315 49.6423L5.69033 50.1006C5.43583 50.3527 5.11879 50.6041 4.98582 50.6592C4.67931 50.7863 4.32429 50.788 4.22032 50.6627C4.1761 50.6095 4.1198 50.5784 4.09515 50.5936C4.02792 50.6351 4.06732 50.2477 4.13963 50.1562C4.27312 49.9873 4.27481 49.693 4.1434 49.5085C3.75028 48.9565 2.852 49.0594 2.45485 49.7019C2.32858 49.9062 2.30393 50.0352 2.30289 50.4989C2.3012 51.252 2.44432 51.6785 2.85239 52.1362C3.20904 52.5363 3.63265 52.7575 4.16206 52.8203C4.42858 52.8518 4.4782 52.8773 4.44003 52.9629C4.41454 53.0203 4.32598 53.2574 4.24334 53.4898C3.7744 54.8082 4.45563 56.0902 5.62505 56.0902C6.48659 56.0902 7.23258 55.3298 6.85701 54.8345C6.80786 54.7697 6.62586 54.666 6.45271 54.6042C6.22572 54.5232 6.13222 54.4531 6.11765 54.3528C6.07422 54.0536 6.55382 53.4253 7.04577 53.1371C7.30456 52.9855 7.34721 52.9788 7.56764 53.0551C7.69969 53.1008 7.84794 53.21 7.8971 53.2977C8.78224 54.8771 9.34917 55.818 9.91479 56.6464C10.1612 57.0072 10.1863 57.083 10.216 57.5565C10.2785 58.5525 10.8023 59.4386 11.4403 59.628C11.616 59.6802 11.8554 59.7075 11.9723 59.6887C12.1708 59.6568 12.2151 59.6884 12.6395 60.1638C12.8895 60.444 13.5873 61.1628 14.1903 61.7611L15.2866 62.849L15.1632 63.0602C14.8519 63.5931 13.7649 63.9965 13.3022 63.7507C13.2241 63.7092 12.9759 63.5192 12.7506 63.3286C12.2715 62.923 12.0924 62.8626 11.7394 62.9872C11.435 63.0947 11.2659 63.369 11.2005 63.8615L11.1576 64.1837L11.3136 64.0537L11.4697 63.9237L11.3559 64.0588C11.2007 64.2431 11.2117 64.3379 11.428 64.6789C11.6357 65.0064 12.0545 65.3107 12.6007 65.5311C12.9121 65.6567 13.0847 65.6782 13.7868 65.6785L14.6084 65.6789L14.637 66.1664C14.6919 67.1049 15.2364 67.8994 15.9978 68.1523C16.7521 68.4027 17.4858 68.0565 17.5033 67.4418C17.5121 67.1305 17.366 66.9876 17.0511 66.9995C16.7373 67.0112 16.5463 66.8829 16.3663 66.5393C16.1816 66.1865 16.169 65.5828 16.3397 65.2624C16.4857 64.9883 17.0187 64.4112 17.1258 64.4112C17.1691 64.4112 17.4065 64.5641 17.6533 64.7509C18.2796 65.2252 19.9793 66.3596 20.4566 66.6219C20.8346 66.8297 20.8562 66.855 20.8979 67.1373C21.016 67.9384 21.6233 68.6037 22.4421 68.8288C22.8807 68.9494 23.2667 68.8879 23.6363 68.6385L23.9484 68.4278L24.4388 68.6346C25.1303 68.9262 26.8148 69.5174 27.2212 69.6112C27.5563 69.6885 27.5625 69.6941 27.5621 69.9272C27.5619 70.0576 27.5955 70.3865 27.6368 70.6579C27.7106 71.1426 27.7086 71.1575 27.5285 71.4884C27.3384 71.8376 27.1747 71.9345 26.8939 71.864C26.7972 71.8398 26.7235 71.7523 26.6826 71.6132C26.5964 71.3203 26.2534 71.1491 25.9311 71.2381C25.6591 71.3132 25.3148 71.6448 25.3872 71.7619C25.4174 71.8107 25.4101 71.8257 25.3686 71.8001C25.271 71.7397 25.2217 71.9106 25.2217 72.31C25.2217 72.6026 25.2555 72.7014 25.4362 72.9383C25.7155 73.3044 26.2283 73.6585 26.6891 73.8034C27.367 74.0167 28.122 73.8387 28.7362 73.3209L29.032 73.0715L29.2171 73.4249C29.7654 74.472 30.9179 74.981 31.7597 74.5479C32.5448 74.1439 32.8746 73.0134 32.3414 72.5535C32.121 72.3634 31.9289 72.3687 31.6274 72.5732C31.4929 72.6645 31.3206 72.7303 31.2445 72.7195C31.045 72.6911 30.8658 72.2753 30.8285 71.7548C30.7816 71.0993 30.8401 70.8826 31.1065 70.7255C31.3214 70.5987 31.3498 70.5973 31.8036 70.6921C32.5017 70.8379 34.3879 71.0924 35.1658 71.1458C35.8223 71.1908 35.8551 71.2005 36.1737 71.4428C36.5456 71.7256 37.0535 71.9365 37.5645 72.0202C37.962 72.0854 38.2237 72.0484 38.562 71.8793C38.7847 71.7679 39.0714 71.4536 39.0714 71.3208C39.0714 71.2884 39.6053 71.2276 40.258 71.1857C40.9107 71.1438 41.8915 71.0476 42.4377 70.9719C42.9838 70.8962 43.4727 70.8504 43.5241 70.8701C43.7796 70.9682 43.7467 71.8647 43.467 72.4249C43.243 72.8737 43.0692 72.9863 42.4324 73.0956C41.8025 73.2035 41.6277 73.284 41.5041 73.5231C41.3086 73.9013 41.4247 74.3138 41.8259 74.666C42.4306 75.1968 43.3071 75.0923 44.2964 74.3713C44.6075 74.1446 45.1834 73.4332 45.1834 73.2757C45.1834 73.1052 45.3182 73.1268 45.6007 73.3425C46.3033 73.8786 47.2261 74.0132 47.9263 73.6817C48.779 73.278 49.0813 72.3958 48.5186 71.9532C48.275 71.7616 48.1281 71.7907 47.8664 72.0822C47.6022 72.3764 47.4766 72.3983 46.9503 72.2421C46.3483 72.0633 45.9771 71.5261 45.9142 70.7424L45.8817 70.3373L46.1665 70.2608C47.1229 70.0039 48.9069 69.4501 49.4801 69.2322L50.1519 68.9769L50.5269 69.1734C50.8429 69.339 50.9736 69.3695 51.3558 69.3671C51.9459 69.3635 52.3838 69.2129 52.7554 68.8859C53.1283 68.5577 53.2607 68.3076 53.283 67.8897L53.3004 67.5641L54.2312 67.0186C54.7431 66.7185 55.4784 66.2616 55.8652 66.0031L56.5686 65.5332L57.0043 65.8124C57.2439 65.966 57.5214 66.1553 57.6209 66.2332C57.8347 66.4006 58.0577 66.8107 58.0577 67.0368C58.0577 67.2334 57.7557 67.4931 57.607 67.4244C57.5509 67.3985 57.3895 67.3755 57.2482 67.3733C57.0268 67.3697 56.9708 67.3995 56.8418 67.59C56.5634 68.001 56.6665 68.5695 57.083 68.9199C57.3971 69.1841 57.7122 69.2413 58.2434 69.1306C58.7271 69.0298 59.0048 68.9106 59.3401 68.6596C59.8512 68.2772 60.1851 67.4757 60.1145 66.8005C60.0752 66.4252 60.0772 66.4191 60.2202 66.471C60.3003 66.5001 60.6732 66.5232 61.0487 66.5222C61.6996 66.5205 61.7506 66.5101 62.1427 66.2993C62.4266 66.1466 62.618 65.986 62.7604 65.7809C62.9506 65.5072 62.9668 65.443 62.9659 64.9638C62.9653 64.5981 62.932 64.3831 62.854 64.2393C62.5968 63.7657 62.0813 63.44 61.7288 63.5285C61.5179 63.5814 61.3678 63.8244 61.3354 64.1651C61.3203 64.324 61.2625 64.4781 61.2008 64.5236C60.9865 64.6819 60.3438 64.4178 59.8739 63.9783C59.5578 63.6827 59.5419 63.6523 59.575 63.4059C59.6052 63.1808 59.6782 63.085 60.118 62.6932C60.3974 62.4443 61.153 61.7204 61.7972 61.0846C62.7395 60.1545 63.0127 59.9204 63.1952 59.8865C63.5759 59.8157 64.2028 59.4867 64.5476 59.1767C65.0775 58.7004 65.2631 58.1484 65.0714 57.6186C65.0006 57.4228 65.0211 57.3818 65.6146 56.5303C65.9538 56.0437 66.4904 55.2162 66.8071 54.6914L67.3829 53.7373L67.5994 53.7724C67.8964 53.8205 68.188 54.0782 68.4774 54.5478C68.8189 55.1021 68.814 55.4072 68.4531 56.0647C68.1253 56.6618 68.1267 56.9804 68.4582 57.2766C68.63 57.4301 68.7142 57.4553 69.0538 57.4553C69.5282 57.4553 69.8093 57.3347 70.1099 57.0021C70.4714 56.602 70.6279 56.1037 70.6309 55.3426C70.6334 54.7243 70.5755 54.449 70.3233 53.8794C70.2895 53.8029 70.3755 53.7539 70.7129 53.6573C71.9866 53.2926 72.7308 52.105 72.3234 51.0871C72.1497 50.6529 71.573 50.4257 71.1795 50.6362C71.0583 50.7011 71.0495 50.7471 71.0875 51.1179C71.1212 51.4473 71.109 51.5484 71.0251 51.6322C70.5513 52.1059 69.9987 52.2678 69.425 52.1011C69.0603 51.9951 68.5262 51.658 68.5262 51.5338C68.5262 51.4953 68.6153 51.2609 68.7242 51.0128C68.8332 50.7646 68.9018 50.5285 68.8767 50.488C68.8504 50.4454 68.8601 50.4322 68.8996 50.4566C68.9745 50.5029 69.3267 49.6426 69.8063 48.242L70.1006 47.3822L70.438 47.2278C70.9128 47.0105 71.2133 46.7236 71.4206 46.2901C71.7927 45.5114 71.6708 44.5942 71.149 44.2465C70.9471 44.1121 70.9267 44.072 70.9562 43.8686C70.9744 43.7435 71.0482 43.2533 71.1202 42.7791C71.1923 42.3051 71.2847 41.5445 71.3256 41.0889C71.3665 40.6334 71.4126 40.2477 71.4279 40.2317C71.4433 40.2159 71.7581 40.1082 72.1276 39.9926C72.7242 39.8059 72.8315 39.7901 73.0849 39.852C73.4639 39.9446 73.5979 40.0705 73.5979 40.3341C73.5979 40.5063 73.5599 40.5695 73.4098 40.6471C73.0504 40.8329 73.0355 41.3089 73.3779 41.6663C73.8543 42.1634 74.7249 42.0333 75.1211 41.4058C75.5827 40.6749 75.6696 39.741 75.3369 39.0879C75.1738 38.7676 74.734 38.3035 74.4493 38.1512C74.311 38.0772 74.3187 38.0633 74.7006 37.6954C75.2079 37.2068 75.4374 36.7295 75.4719 36.0916C75.4905 35.7478 75.4682 35.5675 75.3857 35.3936C74.9811 34.5412 73.8039 34.2228 73.159 34.7912C72.9253 34.9971 72.9642 35.2886 73.2729 35.6452C73.489 35.8948 73.5215 35.9673 73.4652 36.0726C73.3634 36.2627 72.9296 36.5121 72.5113 36.621C71.9714 36.7617 71.7734 36.7439 71.575 36.5371C71.4128 36.3681 71.4033 36.318 71.3633 35.4175C71.3234 34.516 71.23 33.5805 71.0568 32.3448L70.977 31.7749L71.1658 31.4022C71.3432 31.052 71.3546 30.982 71.3546 30.2448C71.3546 29.495 71.3466 29.448 71.1732 29.1859C70.9765 28.8885 70.6551 28.6573 70.4377 28.6569C70.3238 28.6567 70.2819 28.5837 70.1857 28.2179C69.9935 27.4869 69.7711 26.796 69.3334 25.5709L68.9161 24.403L69.0873 24.2559C69.305 24.0689 69.5909 24.0161 70.1633 24.057C70.8349 24.1051 71.0841 24.3 71.3859 25.0133C71.6609 25.6632 71.8454 25.8194 72.2852 25.7748C72.6237 25.7405 72.8324 25.5627 73.0604 25.115C73.2116 24.8179 73.2195 24.7617 73.1568 24.4324C73.054 23.8929 72.8543 23.507 72.4865 23.1373C72.0437 22.6923 71.6674 22.478 70.8205 22.1887C70.7648 22.1696 70.7933 22.0505 70.9172 21.785C71.0709 21.4553 71.0929 21.3272 71.0937 20.7582C71.0945 20.1785 71.0758 20.0729 70.9218 19.7831C70.7033 19.3719 70.4639 19.1449 70.0614 18.9669C69.6771 18.797 69.3898 18.8265 69.0728 19.0682C68.9015 19.1988 68.8515 19.2842 68.8523 19.4451C68.8536 19.7089 68.8964 19.7708 69.1764 19.9131C69.4802 20.0675 69.4994 20.107 69.5005 20.5815C69.5022 21.2743 69.222 21.6935 68.5587 21.9908C67.9509 22.2633 67.9135 22.2596 67.7383 21.9112C67.3546 21.1486 66.6395 19.909 66.1452 19.1503L65.606 18.3225L65.7081 18.078C65.8574 17.7207 65.7987 17.017 65.5846 16.5977C65.1713 15.7883 64.4349 15.3834 63.7391 15.583C63.5443 15.6388 63.5217 15.6232 63.1218 15.1532C62.8935 14.8849 62.2871 14.2588 61.7743 13.7618L60.8418 12.8582L60.9727 12.5177C61.0447 12.3304 61.1521 12.0384 61.2113 11.869C61.3391 11.5032 61.7628 11.1045 62.0234 11.1045C62.2701 11.1045 62.4904 11.3295 62.4401 11.53C62.3377 11.9379 62.619 12.2096 63.1436 12.2096C63.3367 12.2096 63.4998 12.1583 63.6663 12.0452C63.9303 11.8658 64.1353 11.5381 64.0777 11.3878C64.0547 11.328 64.0685 11.3096 64.1147 11.3381C64.2435 11.4177 64.1396 10.7694 63.962 10.3863C63.4746 9.33454 62.4661 8.83684 61.3837 9.11403C61.1579 9.17189 60.9647 9.21922 60.9543 9.21922C60.9439 9.21922 60.9222 8.99195 60.9061 8.7141C60.857 7.8664 60.4119 7.11939 59.771 6.80917C59.0284 6.4498 57.9442 6.93853 57.7313 7.72864C57.572 8.32002 57.8437 8.61334 58.4774 8.53416C58.8134 8.49223 58.8244 8.49594 58.8835 8.67341C58.9739 8.94449 58.8704 9.45611 58.6287 9.93255C58.426 10.3323 58.4011 10.3558 58.1308 10.4018C57.8506 10.4496 57.8347 10.4421 57.0904 9.90986C56.3065 9.34917 55.2473 8.66307 54.4323 8.18793C54.0758 7.98003 53.9376 7.85814 53.867 7.68912C53.498 6.80624 52.4204 6.01821 51.7393 6.13321C51.6042 6.15609 51.3987 6.23865 51.2828 6.31673L51.072 6.45877L50.1596 6.08601C49.6578 5.88104 49.2104 5.71235 49.1653 5.71105C49.1202 5.70981 48.9593 5.6554 48.8076 5.59013C48.6561 5.52493 48.3418 5.41155 48.1094 5.33822C46.8095 4.92809 46.899 4.98354 46.933 4.60916C46.9703 4.19902 47.509 3.54803 47.991 3.3307C48.2392 3.21882 48.2737 3.21837 48.6847 3.32206C49.5092 3.53002 49.6231 3.53126 49.9189 3.33558C50.2347 3.12671 50.2809 3.01255 50.2224 2.58701C50.1656 2.1744 49.8811 1.7486 49.5265 1.54558C49.272 1.39989 49.1782 1.38585 48.467 1.38722C47.5843 1.38884 47.1746 1.50605 46.6488 1.90728C46.3325 2.14872 46.3283 2.14716 46.1035 1.70075C45.9124 1.32149 45.4049 0.824181 45.0208 0.639948C44.5532 0.415604 43.7688 0.410599 43.3867 0.629546C43.0242 0.837248 42.8152 1.21189 42.8631 1.56853C42.9195 1.98854 43.2156 2.11635 43.6328 1.90065C43.8809 1.77239 44.0956 1.84748 44.4263 2.17817C44.9117 2.66339 45.0147 3.28032 44.7283 3.98579C44.5834 4.34295 44.5698 4.35588 44.3765 4.32117C42.9894 4.07206 41.6872 3.87632 40.995 3.81294C40.3671 3.7554 40.1287 3.70918 40.0852 3.63663C39.9045 3.33584 39.4836 2.97693 39.1202 2.81389C38.6401 2.59845 37.9659 2.5679 37.562 2.74329C37.2139 2.89443 36.88 3.21031 36.7946 3.46924C36.7206 3.69306 36.7197 3.69352 36.3144 3.69352C35.8041 3.69352 34.0144 3.86988 33.3576 3.98488C33.0849 4.0326 32.8532 4.04859 32.8427 4.02031C32.8321 3.99203 32.7178 3.79727 32.5885 3.58742C32.184 2.9311 32.114 2.76468 32.114 2.45907C32.114 1.89409 32.4954 1.69029 32.9061 2.0358C33.1299 2.22407 33.2929 2.23954 33.5345 2.09535C33.8528 1.9054 33.9672 1.68216 33.9672 1.25096C33.9672 0.73733 33.7785 0.441868 33.2994 0.205563C32.8763 -0.00317865 31.99 -0.0668217 31.5433 0.0793818ZM35.7227 6.5269C32.1492 6.79629 29.1825 7.47524 26.002 8.75168C22.536 10.1427 19.2689 12.2607 16.3565 15.005C16.0027 15.3383 15.7958 15.4873 15.7025 15.4761C15.5928 15.4629 15.5852 15.472 15.6636 15.5226C15.7433 15.5742 15.6885 15.6601 15.3625 15.9942C14.6536 16.7206 13.8816 17.6065 13.2166 18.4568C9.65009 23.017 7.45645 28.4565 6.82236 34.3124C6.70564 35.3903 6.668 38.0291 6.74999 39.383C6.88445 41.6028 7.35723 44.4384 7.86088 46.0464C7.92805 46.2609 8.07611 46.7436 8.18983 47.119C8.58822 48.4338 9.62973 50.8558 10.4149 52.2933C11.5282 54.3314 13.0628 56.5107 14.5227 58.1266C16.6644 60.497 19.0483 62.4601 21.8406 64.1529C23.6075 65.224 26.5592 66.5594 28.3103 67.0797C28.7037 67.1966 29.0694 67.3133 29.123 67.339C29.4375 67.4897 32.2087 68.064 33.4795 68.2418C35.3489 68.5033 37.935 68.5822 39.9817 68.44C43.9423 68.1648 48.0313 67.0227 51.7181 65.1618C53.8204 64.1007 55.2198 63.2058 57.0499 61.7519C59.5954 59.7297 61.9507 57.1371 63.7373 54.3906C66.5204 50.1125 68.3604 44.6296 68.6537 39.7406C69.0024 33.9279 68.014 28.8461 65.5686 23.8786C63.0412 18.7446 59.273 14.496 54.514 11.4145C52.3115 9.98833 49.852 8.8239 47.2316 7.96651C45.2875 7.33047 43.35 6.92514 40.9256 6.64723C40.1238 6.55531 36.4677 6.4708 35.7227 6.5269ZM37.2769 9.13809C37.0588 9.2722 36.827 9.42575 36.7618 9.47938C36.5422 9.65978 35.9545 10.4086 35.9889 10.4643C36.0077 10.4945 35.996 10.5194 35.9631 10.5194C35.9071 10.5194 35.5604 11.2233 35.5353 11.3877C35.5291 11.4286 35.5032 11.4954 35.4777 11.536C35.4133 11.639 35.2569 12.4199 35.2021 12.9121C35.1641 13.253 35.1754 13.343 35.2695 13.4468C35.3316 13.5155 35.4152 13.5531 35.4551 13.5303C35.495 13.5076 35.5051 13.5137 35.4776 13.544C35.4164 13.6112 35.8837 14.1035 35.9625 14.0548C35.9934 14.0357 36.0107 14.0443 36.0012 14.0738C35.9717 14.1647 36.3543 14.5488 36.4309 14.5052C36.4706 14.4825 36.4835 14.4858 36.4596 14.5124C36.4172 14.5597 36.6506 14.8345 36.7468 14.8506C36.7737 14.855 36.8175 14.8658 36.8444 14.8745C36.8712 14.8832 36.9102 14.8885 36.931 14.8862C36.9519 14.884 36.969 14.9231 36.969 14.9732C36.969 15.0233 36.9471 15.0507 36.9204 15.0342C36.8936 15.0177 36.8613 15.0355 36.8485 15.0739C36.8357 15.1122 36.6942 15.0101 36.5341 14.8469C36.3739 14.6836 36.2073 14.5634 36.1637 14.5796C36.1201 14.5959 36.0644 14.5767 36.0399 14.537C36.0129 14.4933 36.0248 14.4831 36.0703 14.5112C36.1749 14.5758 36.1647 14.4518 36.0581 14.3634C36.0101 14.3236 35.9491 14.3127 35.9227 14.3392C35.8962 14.3657 35.8842 14.3448 35.8961 14.2928C35.908 14.2408 35.8739 14.1969 35.8203 14.1953C35.7666 14.1936 35.7225 14.1631 35.7223 14.1273C35.7216 14.0225 35.3523 13.64 35.2894 13.6789C35.2577 13.6985 35.2399 13.6794 35.2497 13.6365C35.2595 13.5936 35.2383 13.5475 35.2026 13.5341C35.1668 13.5207 35.1375 13.5947 35.1375 13.6986C35.1375 13.805 35.1659 13.8717 35.2026 13.8516C35.2383 13.8319 35.231 13.8551 35.1863 13.9033C35.1416 13.9514 35.105 14.0532 35.105 14.1295C35.105 14.3556 35.0355 14.3622 34.7799 14.1598C34.6469 14.0545 34.5193 13.987 34.4964 14.0099C34.4735 14.0328 34.4548 14.0125 34.4548 13.9648C34.4548 13.9172 34.44 13.893 34.4218 13.9111C34.4037 13.9292 34.2672 13.8317 34.1184 13.6944C33.7513 13.3556 32.9493 12.8635 32.586 12.7542C32.2042 12.6393 31.8242 12.6446 31.4963 12.7693C31.3533 12.8237 31.1924 12.8818 31.1387 12.8985C31.0782 12.9172 30.9793 12.8352 30.8786 12.6829C30.6283 12.3044 30.0071 11.7213 29.5633 11.4483C29.343 11.3129 29.1392 11.2092 29.1104 11.2182C29.0816 11.2271 29.058 11.2081 29.058 11.1758C29.058 11.1043 28.6735 10.9633 28.601 11.0081C28.5724 11.0258 28.5367 11.0036 28.5218 10.9589C28.5022 10.9001 28.2887 10.8774 27.7523 10.8772C26.8585 10.8769 26.7277 10.9054 26.374 11.178C26.0649 11.4161 25.5476 11.9535 25.5471 12.0368C25.547 12.067 25.4887 12.1655 25.4177 12.2558C25.3466 12.346 25.3045 12.4457 25.324 12.4773C25.3435 12.5088 25.3318 12.5346 25.2979 12.5346C25.264 12.5346 25.1687 12.8052 25.086 13.136C24.9464 13.6949 24.9009 14.5781 24.9768 15.2584C24.9908 15.3841 24.9378 15.4444 24.7034 15.5694C24.3444 15.7609 24.1071 15.9775 24.1609 16.0646C24.1835 16.1011 24.1692 16.1103 24.1289 16.0853C24.0324 16.0257 23.7419 16.4708 23.626 16.8561C23.5757 17.0229 23.4734 17.602 23.3987 18.1429C23.324 18.6838 23.2495 19.1479 23.2332 19.1743C23.2169 19.2006 23.1476 19.218 23.0793 19.2129C23.0109 19.2077 22.9675 19.1833 22.9828 19.1585C23.0178 19.102 22.4279 18.6071 22.3518 18.6292C22.321 18.6381 22.303 18.6219 22.312 18.5933C22.3385 18.5082 21.8505 18.1116 21.7759 18.1577C21.7382 18.1809 21.7154 18.1653 21.7252 18.1229C21.7438 18.0426 21.4902 17.8739 20.8426 17.5356C20.6335 17.4263 20.4813 17.3677 20.5046 17.4053C20.5302 17.4468 20.5073 17.4586 20.4464 17.4352C20.3911 17.414 20.3618 17.3708 20.3814 17.3392C20.4009 17.3076 20.3715 17.2992 20.316 17.3204C20.2605 17.3417 20.2151 17.3328 20.2151 17.3007C20.2151 17.2185 19.7126 17.0936 19.1921 17.0465C18.7486 17.0064 17.8186 17.1022 17.6305 17.2074C17.6182 17.2143 17.6174 17.2303 17.6305 17.2585C17.7035 17.4152 18.2106 17.9462 19.6035 19.3396C20.7445 20.481 21.7182 21.4646 21.7673 21.5253C22.0637 21.8923 21.5436 21.397 19.6236 19.4842C17.3341 17.2034 17.3942 17.2485 17.3144 17.7512C17.2117 18.3983 17.2152 18.8839 17.3265 19.4325C17.3911 19.7504 17.4645 20.0106 17.4896 20.0106C17.5147 20.0106 17.5527 20.056 17.574 20.1115C17.5963 20.1695 17.5853 20.1954 17.5483 20.1725C17.4925 20.1381 17.7327 20.6273 18.0764 21.248C18.1935 21.4594 18.4987 21.87 18.6545 22.0258C18.7107 22.082 18.8394 22.2363 18.9404 22.3688C19.0415 22.5012 19.1509 22.5931 19.1836 22.573C19.2162 22.5527 19.2349 22.575 19.2251 22.6224C19.2152 22.67 19.2508 22.6987 19.3048 22.6868C19.3584 22.6748 19.3806 22.6868 19.3541 22.7133C19.3276 22.7398 19.3395 22.802 19.3806 22.8514C19.5087 23.0058 19.3676 23.0558 18.4919 23.1664C18.027 23.2251 17.6028 23.2891 17.5492 23.3086C17.4955 23.3281 17.4078 23.3499 17.3541 23.3571C17.0455 23.3984 16.8378 23.4746 16.8741 23.5333C16.8999 23.5751 16.8657 23.5842 16.7825 23.5578C16.7064 23.5337 16.6293 23.5489 16.6018 23.5935C16.5694 23.6458 16.5815 23.654 16.6389 23.6185C16.6956 23.5835 16.7083 23.5913 16.6769 23.6421C16.651 23.6839 16.6034 23.7018 16.571 23.6818C16.4648 23.6161 15.9201 24.1867 15.7541 24.5374C15.5977 24.8678 15.5854 24.8779 15.4163 24.8105C15.1033 24.6856 13.9978 24.7221 13.3553 24.8785C12.8177 25.0093 12.0874 25.3587 12.0874 25.485C12.0874 25.5132 12.0508 25.5361 12.0061 25.5358C11.9028 25.5352 11.3071 26.1838 11.3071 26.2968C11.3071 26.3433 11.2761 26.3814 11.2382 26.3814C11.2004 26.3814 11.1875 26.4106 11.2096 26.4464C11.2317 26.4822 11.2236 26.5114 11.1917 26.5114C11.1598 26.5114 11.1307 26.548 11.1271 26.5927C11.0435 27.6141 11.0409 27.9053 11.1127 28.2043C11.1709 28.4472 11.2103 28.516 11.2545 28.4523C11.2971 28.3909 11.3032 28.4084 11.2745 28.5102C11.2268 28.68 11.486 29.1944 11.5877 29.1316C11.6238 29.1093 11.632 29.1245 11.6063 29.1662C11.5446 29.2658 11.9449 29.8422 12.0364 29.7856C12.0803 29.7585 12.0887 29.772 12.0584 29.821C12.0005 29.9148 12.4401 30.3665 12.8559 30.6403C13.0429 30.7634 13.1258 30.8594 13.104 30.9274C13.086 30.9835 13.0267 31.1465 12.9723 31.2895C12.8711 31.5555 12.8332 32.111 12.9109 32.1887C12.9347 32.2125 12.9618 32.3038 12.9711 32.3918C12.9806 32.4797 13.0958 32.7441 13.2274 32.9792C13.4373 33.3546 13.4796 33.3966 13.5735 33.3233C13.6697 33.2482 13.6712 33.2515 13.5879 33.3575C13.5053 33.4626 13.514 33.4926 13.6691 33.6364C13.7647 33.7251 13.8431 33.8183 13.8433 33.8437C13.8434 33.8691 13.9242 33.9776 14.0228 34.0849C14.1214 34.1921 14.2381 34.353 14.2821 34.4424C14.3261 34.5318 14.3979 34.6547 14.4416 34.7156C14.4853 34.7764 14.5058 34.8416 14.487 34.8602C14.4683 34.8789 14.2434 34.9137 13.9873 34.9375C13.7311 34.9613 13.5344 35.0016 13.5501 35.0271C13.5658 35.0525 13.5415 35.1242 13.4961 35.1863C13.418 35.2932 13.4083 35.2928 13.3193 35.1796C13.2345 35.0718 13.2356 35.0681 13.3314 35.1429C13.4189 35.2112 13.4442 35.2087 13.4749 35.1288C13.5264 34.9947 13.4206 34.9449 13.1909 34.9954L12.9972 35.0379L13.2413 35.2759C13.3755 35.4068 13.5072 35.5068 13.5341 35.4982C13.5609 35.4896 13.5755 35.5192 13.5666 35.5638C13.5576 35.6085 13.5869 35.6378 13.6316 35.6288C13.6763 35.6199 13.7056 35.6345 13.6966 35.6613C13.6714 35.7369 13.956 35.9973 14.0105 35.9485C14.0371 35.9246 14.0407 35.9371 14.0184 35.9761C13.9745 36.0533 14.9018 36.9956 14.9711 36.9441C14.9943 36.9268 14.9983 36.9326 14.9799 36.957C14.9615 36.9813 15.0274 37.0875 15.1262 37.1929C15.2802 37.3572 15.2854 37.3741 15.1633 37.3108C15.0848 37.2703 15.0007 37.2049 14.9763 37.1655C14.9456 37.1158 14.9138 37.1208 14.8724 37.1821C14.8258 37.2511 14.817 37.2467 14.8318 37.162C14.8552 37.0283 13.7188 35.8628 13.6197 35.919C13.5816 35.9407 13.5731 35.9334 13.6009 35.903C13.6286 35.8724 13.484 35.6782 13.2793 35.4714C12.9184 35.1068 12.9031 35.0989 12.7747 35.2078C12.6486 35.3146 12.6466 35.3145 12.7317 35.2047C12.8546 35.0462 12.7826 34.9991 12.544 35.0822C12.4339 35.1207 12.2959 35.1337 12.2374 35.1112C12.1663 35.0839 12.1466 35.0956 12.178 35.1464C12.2078 35.1945 12.1819 35.2186 12.1074 35.2121C12.0428 35.2065 11.9313 35.207 11.8598 35.2132C11.7493 35.2228 11.7444 35.235 11.8273 35.2942C11.9059 35.3503 11.897 35.3577 11.7811 35.3324C11.7021 35.3152 11.5412 35.3356 11.4235 35.378C11.2216 35.4505 11.115 35.5042 10.6104 35.7877C10.2474 35.9916 9.6902 36.517 9.43031 36.9005C9.09044 37.4019 9.07126 37.4884 9.24025 37.758C9.31867 37.8831 9.38551 38.0146 9.38883 38.0504C9.39214 38.0861 9.43226 38.1073 9.47804 38.0975C9.52511 38.0874 9.54163 38.1114 9.51608 38.1526C9.46386 38.237 10.1198 38.928 10.2521 38.928C10.3002 38.928 10.3248 38.9517 10.3068 38.9808C10.2653 39.0479 11.3005 39.5937 11.7297 39.731C12.0995 39.8492 13.1804 40.0325 13.5102 40.0329C13.7056 40.0331 13.8209 39.9418 14.5411 39.2165C14.9871 38.7674 15.3683 38.4161 15.3882 38.436C15.4081 38.4559 15.3757 38.5259 15.3162 38.5916C15.2568 38.6573 15.2301 38.733 15.257 38.7599C15.284 38.7868 15.2737 38.7991 15.2342 38.7871C15.1948 38.7752 14.8819 39.0427 14.5389 39.3815C13.8929 40.0195 13.8658 40.0952 14.2818 40.0972C14.4878 40.0981 14.577 40.2337 14.431 40.3239C14.3968 40.345 14.3868 40.4126 14.4088 40.474C14.4309 40.5354 14.425 40.564 14.3957 40.5375C14.3282 40.4763 14.1574 40.6134 14.2051 40.6906C14.2247 40.7223 14.2049 40.7482 14.161 40.7482C14.1172 40.7482 14.0965 40.7634 14.1151 40.7819C14.1336 40.8004 14.0065 40.9687 13.8326 41.1557C13.6587 41.3428 13.5304 41.532 13.5474 41.5763C13.5643 41.6206 13.5457 41.6498 13.5059 41.6413C13.4661 41.6328 13.3183 41.851 13.1774 42.1261C12.8541 42.7576 12.8039 43.2384 13.0052 43.7763L13.1389 44.1337L12.957 44.2774C12.857 44.3565 12.7154 44.4528 12.6425 44.4915C12.5696 44.5302 12.5173 44.596 12.5263 44.6378C12.5352 44.6795 12.5168 44.7064 12.4852 44.6975C12.4538 44.6886 12.3221 44.7895 12.1926 44.9218C11.9697 45.1496 11.8853 45.2859 12.0178 45.2041C12.0511 45.1835 12.0958 45.1949 12.1171 45.2293C12.1386 45.2641 12.0979 45.2809 12.0256 45.2669C11.9247 45.2475 11.84 45.3318 11.65 45.6405C11.515 45.8598 11.412 46.0628 11.4209 46.0916C11.4299 46.1204 11.4102 46.1439 11.3772 46.1439C11.2316 46.1439 11.0942 46.8082 11.0882 47.5416C11.0826 48.2227 11.1206 48.4949 11.2161 48.4581C11.2641 48.4397 11.2802 48.4753 11.2596 48.5541C11.2416 48.6229 11.2592 48.6792 11.2986 48.6792C11.3381 48.6792 11.4111 48.7768 11.4609 48.896C11.5642 49.1429 12.1114 49.6223 12.2162 49.5576C12.2544 49.534 12.2776 49.5509 12.2678 49.5953C12.2454 49.6963 12.8984 50.033 13.1602 50.0553C13.2675 50.0645 13.3847 50.0926 13.4206 50.1179C13.5873 50.2351 14.564 50.3077 15.0888 50.242C15.3852 50.2048 15.6334 50.1744 15.6405 50.1744C15.6476 50.1744 15.6892 50.2841 15.7328 50.4182C15.8479 50.7716 16.5522 51.4334 16.9242 51.5376C17.0835 51.5821 17.2499 51.5963 17.294 51.569C17.342 51.5394 17.3576 51.5464 17.3329 51.5863C17.3082 51.6262 17.402 51.667 17.5667 51.6879C18.5563 51.8135 19.3458 51.9465 19.3963 51.9961C19.4316 52.0308 19.4252 52.0903 19.3806 52.1442C19.3395 52.1936 19.3276 52.2581 19.3541 52.2873C19.3806 52.3166 19.3697 52.3219 19.3297 52.2991C19.24 52.248 19.0258 52.4723 19.0933 52.5466C19.1202 52.5763 19.1074 52.5806 19.0649 52.5563C19.0224 52.5319 18.9639 52.5539 18.9349 52.6051C18.9059 52.6563 18.7943 52.7961 18.6871 52.9157C18.441 53.19 18.1344 53.5984 18.1344 53.6518C18.1344 53.6742 18.1682 53.6717 18.2095 53.6462C18.2564 53.6172 18.2668 53.6284 18.2374 53.6759C18.2116 53.7178 18.1661 53.7369 18.1364 53.7186C18.0413 53.6598 17.4716 54.841 17.5171 55.0028C17.5433 55.0965 17.5373 55.1184 17.4999 55.0648C17.4263 54.9594 17.3 55.487 17.246 56.1251C17.2079 56.576 17.2911 57.2811 17.4235 57.6293L17.4886 57.8005L17.6816 57.6156C17.8246 57.4786 17.8535 57.4163 17.7931 57.3753C17.7376 57.3375 17.7531 57.3259 17.8418 57.3388C17.9165 57.3498 17.9653 57.3243 17.9563 57.2789C17.9477 57.235 17.9816 57.2156 18.0326 57.2352C18.1142 57.2664 18.2882 57.0564 18.2947 56.919C18.2959 56.8922 18.3219 56.8734 18.3525 56.8772C18.4476 56.889 18.9762 56.3323 18.9343 56.2644C18.9124 56.229 18.9258 56.2193 18.9639 56.2429C19.002 56.2665 19.1946 56.1178 19.3918 55.9126C19.6323 55.6624 19.7253 55.5234 19.6739 55.4907C19.5937 55.4397 19.7017 55.412 19.8825 55.4373C19.944 55.4459 19.9584 55.4128 19.9279 55.3331C19.9032 55.269 19.9044 55.2378 19.9305 55.2639C19.9565 55.2899 20.0445 55.2487 20.1258 55.1723L20.2738 55.0333L20.1307 54.9064L19.9875 54.7796L20.1413 54.8774C20.3076 54.9832 20.501 54.953 20.4319 54.8319C20.4084 54.791 20.4079 54.7738 20.4306 54.7938C20.4717 54.8299 21.4863 53.8769 21.4728 53.8149C21.4689 53.797 21.55 53.7143 21.6532 53.6312C21.8011 53.5119 21.8406 53.5013 21.8406 53.5809C21.8406 53.6364 21.7692 53.7286 21.682 53.7858C21.5814 53.8517 21.536 53.9295 21.5581 53.9985C21.5878 54.0918 21.5827 54.0934 21.5227 54.0099C21.4561 53.9175 21.4195 53.9654 21.4482 54.1074C21.4554 54.1432 21.4428 54.154 21.4202 54.1313C21.3976 54.1088 21.0183 54.4452 20.5772 54.8789C19.9284 55.5171 19.7888 55.6862 19.8457 55.7651C19.9016 55.8424 19.8989 55.8474 19.8324 55.7887C19.7675 55.7315 19.6805 55.7828 19.4463 56.0162C19.28 56.182 19.1516 56.3521 19.1611 56.3941C19.1705 56.4361 19.1485 56.4887 19.1122 56.5112C19.073 56.5354 19.0624 56.5097 19.0861 56.448C19.1081 56.3907 18.9176 56.5499 18.6627 56.8016C18.4079 57.0534 18.1994 57.2937 18.1994 57.3357C18.1994 57.3777 18.1844 57.397 18.166 57.3786C18.1476 57.3602 18.0316 57.4353 17.9082 57.5455C17.6035 57.8176 17.6539 57.8555 18.4418 57.9476C18.859 57.9963 19.7758 57.9238 19.7277 57.8458C19.7096 57.8165 19.7578 57.809 19.835 57.8292C19.9302 57.8541 19.9606 57.842 19.9294 57.7916C19.8968 57.7388 19.9439 57.7294 20.0919 57.759C20.2541 57.7914 20.2886 57.7818 20.2476 57.7155C20.2134 57.6602 20.2204 57.646 20.2675 57.6751C20.3431 57.7218 21.1417 57.3515 21.1795 57.2522C21.1915 57.2209 21.2394 57.1953 21.286 57.1953C21.3793 57.1953 22.0416 56.7597 22.1127 56.6516C22.1371 56.6144 22.1429 56.561 22.1255 56.5328C22.1082 56.5047 22.1339 56.4971 22.1827 56.5158C22.2315 56.5345 22.3281 56.4852 22.3974 56.4063C22.4666 56.3274 22.4888 56.283 22.4465 56.3076C22.4043 56.3322 22.354 56.3268 22.3347 56.2957C22.3155 56.2645 22.3793 56.242 22.4765 56.2458C22.5914 56.2503 22.6471 56.2225 22.6355 56.1666C22.6257 56.1192 22.6432 56.0963 22.6743 56.1155C22.7055 56.1348 22.8141 56.0638 22.9157 55.9578C23.2241 55.636 23.2204 55.6289 23.4042 56.9088C23.5601 57.9944 23.6679 58.4018 23.8353 58.5385C23.9005 58.5916 23.9127 58.6138 23.8625 58.5878C23.7959 58.5533 23.7864 58.565 23.8274 58.6313C23.962 58.8491 24.205 59.0736 24.2656 59.0362C24.3019 59.0138 24.3131 59.0253 24.2905 59.0618C24.2679 59.0983 24.3123 59.1833 24.3891 59.2506C24.4839 59.3337 24.5133 59.3417 24.4804 59.2756C24.4399 59.1944 24.4462 59.1948 24.5179 59.2786C24.5653 59.3339 24.7003 59.4184 24.818 59.4664C25.0285 59.5522 25.0312 59.5584 24.9827 59.8534C24.8917 60.4067 24.9382 61.299 25.0882 61.878C25.2436 62.4772 25.579 63.139 25.6921 63.0692C25.7321 63.0444 25.7433 63.0563 25.7182 63.0969C25.6562 63.1971 26.1685 63.7215 26.2681 63.6599C26.3166 63.63 26.3304 63.6382 26.3039 63.6811C26.2558 63.7589 26.5671 64.0045 26.7971 64.0704C26.8784 64.0937 27.2908 64.1123 27.7136 64.1117C28.2787 64.111 28.4965 64.0881 28.5354 64.0251C28.5645 63.9781 28.6174 63.9575 28.6531 63.9795C28.711 64.0153 29.4326 63.6745 29.5132 63.5733C29.5311 63.5508 29.6773 63.4478 29.8383 63.3443C30.1721 63.1298 30.8125 62.5311 30.8157 62.4306C30.817 62.3937 30.8721 62.2987 30.9382 62.2194L31.0584 62.0754L31.422 62.2032C31.8596 62.3569 32.3252 62.3708 32.4391 62.2334C32.4837 62.1798 32.5531 62.1364 32.5934 62.1369C32.6338 62.1375 32.6228 62.1663 32.5692 62.2009C32.4226 62.2957 32.5431 62.2786 32.8111 62.1667C33.2884 61.9672 34.4174 61.1489 34.3376 61.0602C34.3126 61.0326 34.3241 61.0281 34.3629 61.0502C34.4602 61.1055 34.7274 60.9086 34.6734 60.8213C34.6477 60.7797 34.66 60.7693 34.703 60.7959C34.7433 60.8208 34.8502 60.7927 34.9407 60.7335C35.1004 60.6288 35.1052 60.6301 35.1091 60.7795C35.1169 61.0707 35.229 62.2988 35.2656 62.4935C35.2857 62.6007 35.3148 62.7926 35.3301 62.9197C35.3813 63.3425 35.7084 64.1685 35.9207 64.4112C35.9677 64.4649 36.0008 64.529 35.9945 64.5537C35.9546 64.7078 36.966 65.7764 37.1518 65.7764C37.2062 65.7764 37.2507 65.801 37.2507 65.8312C37.2507 65.8613 37.3516 65.9402 37.4748 66.0066C37.6698 66.1116 37.72 66.1159 37.8627 66.0395C37.9529 65.9913 38.0114 65.9273 37.9929 65.8974C37.9744 65.8674 37.9992 65.8582 38.0481 65.877C38.097 65.8957 38.2155 65.8383 38.3116 65.7493C38.4076 65.6604 38.4862 65.6054 38.4862 65.6271C38.4862 65.6488 38.5454 65.613 38.6178 65.5475C38.7199 65.455 38.7308 65.4151 38.6665 65.3687C38.606 65.3251 38.6122 65.3181 38.6896 65.3427C38.8388 65.3899 39.4589 64.6869 39.4109 64.525C39.403 64.4982 39.4221 64.4762 39.4536 64.4762C39.5156 64.4762 39.6972 64.0844 39.672 64.0049C39.6635 63.9781 39.6829 63.9562 39.7152 63.9562C39.7952 63.9562 39.9252 63.5676 39.8733 63.4836C39.8503 63.4464 39.8626 63.4352 39.9006 63.4587C39.9449 63.4861 40.0097 63.2785 40.0819 62.8777L40.1942 62.2541L39.7189 61.7757C39.4575 61.5126 39.2149 61.3149 39.1799 61.3366C39.1449 61.3582 39.1337 61.3477 39.155 61.3133C39.1956 61.2475 38.1418 60.1616 38.0888 60.2146C38.072 60.2314 38.0536 60.1833 38.0479 60.1079C38.0391 59.9903 38.0756 60.007 38.3031 60.2244C38.449 60.364 38.685 60.6022 38.8275 60.7537C38.9699 60.9052 39.1168 61.0104 39.1539 60.9874C39.1962 60.9613 39.2016 60.9779 39.1682 61.0318C39.1293 61.0948 39.145 61.1065 39.2266 61.0751C39.2968 61.0482 39.3225 61.0578 39.2957 61.101C39.2424 61.1871 40.0484 62.0126 40.134 61.9596C40.1686 61.9383 40.1772 61.9525 40.1532 61.9914C40.1292 62.0302 40.1393 62.0803 40.1757 62.1028C40.2175 62.1287 40.2419 62.0051 40.2423 61.766C40.2426 61.5583 40.2613 61.2354 40.2837 61.0485C40.3202 60.7444 40.3402 60.71 40.4735 60.721C40.5555 60.7278 40.6051 60.7613 40.584 60.7956C40.5618 60.8315 40.5928 60.8397 40.6571 60.815C40.7185 60.7915 40.7528 60.7979 40.7335 60.8291C40.7141 60.8605 40.7475 60.9259 40.8076 60.9747C40.9015 61.0508 40.9098 61.0495 40.8663 60.9658C40.8384 60.9122 40.8694 60.9285 40.9351 61.0023C41.1993 61.2987 41.7367 61.6889 41.817 61.6427C41.8625 61.6165 41.878 61.6191 41.8514 61.6484C41.7886 61.7177 42.3947 62.0818 42.8058 62.2219C42.9818 62.2819 43.2333 62.331 43.3647 62.331C43.6287 62.331 44.0275 62.2123 43.987 62.1459C43.9728 62.1225 44.0609 62.0982 44.1828 62.0917C44.3679 62.082 44.4208 62.1116 44.503 62.2705C44.5572 62.3753 44.6317 62.461 44.6687 62.461C44.7057 62.461 44.7178 62.4902 44.6957 62.526C44.6736 62.5617 44.6851 62.591 44.7212 62.591C44.7572 62.591 44.8166 62.5398 44.8531 62.4772C44.8896 62.4147 44.9202 62.3942 44.9214 62.4317C44.9224 62.4693 44.8883 62.535 44.8454 62.5779C44.7849 62.6384 44.8162 62.706 44.9857 62.8809C45.1058 63.0047 45.2294 63.0903 45.2603 63.0712C45.2913 63.052 45.3086 63.0715 45.2988 63.1144C45.289 63.1572 45.3216 63.2071 45.3712 63.2251C45.4318 63.2471 45.4446 63.2305 45.41 63.1744C45.3759 63.1193 45.3842 63.107 45.4345 63.138C45.4764 63.1639 45.4967 63.2075 45.4798 63.235C45.4347 63.3079 46.2247 63.8143 46.6145 63.9623C46.7982 64.0322 46.9307 64.0604 46.9089 64.0251C46.887 63.9897 46.9785 64.0065 47.1121 64.0623C47.2936 64.1381 47.4959 64.1557 47.911 64.1319C48.5483 64.0953 48.7301 64.0598 48.8792 63.9424C48.9376 63.8963 49.0274 63.8294 49.0786 63.7936C49.2828 63.6513 49.8555 63.0182 49.8248 62.9688C49.807 62.9398 49.8186 62.916 49.8508 62.916C49.9368 62.916 50.2551 62.3044 50.2551 62.1391C50.2551 62.0612 50.2823 61.9466 50.3154 61.8847C50.4742 61.5881 50.526 60.1298 50.3904 59.7757C50.3223 59.5979 50.3294 59.5894 50.6682 59.4396C50.9008 59.3367 51.1265 59.1617 51.3506 58.9102C51.6763 58.545 51.77 58.38 51.6043 58.4639C51.5596 58.4866 51.5727 58.4643 51.6334 58.4143C51.7643 58.3067 51.9023 57.7134 52.0453 56.6438C52.1025 56.2153 52.1645 55.8496 52.183 55.8312C52.2644 55.7499 52.3836 55.82 52.7221 56.1484C53.347 56.7547 54.4719 57.5091 54.6172 57.4193C54.668 57.3879 54.6799 57.3974 54.6502 57.4453C54.6096 57.511 54.6379 57.5272 54.7764 57.518C54.7955 57.5168 54.8578 57.5623 54.9149 57.6193C54.9718 57.6762 55.0586 57.7074 55.1076 57.6887C55.1566 57.6699 55.1967 57.6848 55.1967 57.7218C55.1967 57.7609 55.2547 57.7708 55.3349 57.7453C55.4361 57.7132 55.4596 57.7232 55.4228 57.7829C55.3858 57.8427 55.4176 57.8556 55.5427 57.8317C55.6363 57.8138 55.6992 57.8215 55.6822 57.8489C55.6402 57.9168 56.7041 58.0005 57.0036 57.9529C57.1363 57.9317 57.362 57.896 57.505 57.8734C57.8749 57.815 57.9689 57.7487 58.0248 57.5064C58.052 57.3889 58.09 57.2343 58.1093 57.1628C58.2349 56.6986 58.0668 54.8666 57.9076 54.9649C57.8718 54.987 57.8611 54.975 57.8838 54.9383C57.9066 54.9015 57.8234 54.6703 57.6991 54.4244C57.2912 53.6178 57.0632 53.2706 56.9898 53.344C56.9632 53.3705 56.9501 53.3631 56.9607 53.3273C56.9933 53.2169 56.82 52.9635 56.7439 53.0105C56.7034 53.0356 56.6903 53.0254 56.7139 52.9872C56.737 52.9499 56.7067 52.8796 56.6465 52.8308C56.5537 52.7556 56.5455 52.756 56.5923 52.8336C56.6299 52.896 56.6232 52.91 56.5712 52.8778C56.5293 52.8519 56.5089 52.8083 56.5259 52.7809C56.5758 52.7001 56.3648 52.4435 56.2876 52.4912C56.2473 52.5161 56.2355 52.5048 56.2602 52.465C56.2839 52.4266 56.2372 52.3409 56.1564 52.2746C55.9836 52.1327 55.9429 52.0034 56.0577 51.9603C56.1607 51.9214 57.9197 51.661 58.0754 51.6614C58.1387 51.6616 58.1736 51.6342 58.1528 51.6006C58.132 51.5671 58.1826 51.5374 58.2652 51.5346C58.3477 51.5319 58.4661 51.5199 58.5281 51.508C58.8703 51.4424 59.5772 50.784 59.6593 50.4545C59.7145 50.2328 59.8737 50.1033 60.0074 50.1714C60.3438 50.3427 61.5722 50.2756 62.3491 50.0435C62.8259 49.9011 63.4827 49.4925 63.4139 49.3813C63.3857 49.3357 63.3993 49.3277 63.4509 49.3596C63.5038 49.3923 63.6349 49.2988 63.8244 49.0933C64.2859 48.593 64.3243 48.4838 64.3244 47.6716C64.3246 46.9 64.2822 46.5719 64.164 46.4295C64.1226 46.3797 64.1094 46.3389 64.1345 46.3389C64.1869 46.3389 63.9139 45.872 63.8262 45.8116C63.7945 45.7897 63.7667 45.7459 63.7646 45.7141C63.7551 45.5733 63.444 45.1676 63.3771 45.209C63.3317 45.237 63.3226 45.2244 63.3528 45.1755C63.4105 45.0822 63.0021 44.6394 62.9105 44.6959C62.8768 44.7168 62.8691 44.7016 62.8933 44.6624C62.9191 44.6208 62.8012 44.5017 62.6108 44.3771C62.4311 44.2594 62.2841 44.1419 62.2841 44.1158C62.2841 44.0898 62.3426 43.92 62.4141 43.7386C62.4857 43.5572 62.5442 43.298 62.5442 43.1627C62.5442 42.9308 62.3737 42.3143 62.29 42.2434C62.2689 42.2255 62.1638 42.042 62.0565 41.8356C61.9492 41.6291 61.7371 41.3243 61.5851 41.158C61.4332 40.9917 61.3088 40.8316 61.3088 40.802C61.3088 40.7724 61.2778 40.7482 61.2399 40.7482C61.2021 40.7482 61.1871 40.7223 61.2067 40.6906C61.2525 40.6164 61.0842 40.4743 61.023 40.5355C60.9976 40.5609 60.995 40.5344 61.0171 40.4766C61.0394 40.4187 61.0263 40.352 60.9881 40.3284C60.9499 40.3048 60.9186 40.2463 60.9186 40.1984C60.9186 40.1381 61.0616 40.097 61.3833 40.0647L61.848 40.018L61.6271 39.8098C61.5057 39.6953 61.3844 39.6127 61.3575 39.6262C61.3307 39.6397 61.3088 39.6138 61.3088 39.5688C61.3088 39.5237 61.2162 39.3912 61.103 39.2745C60.9203 39.086 60.8887 39.0741 60.8204 39.1675C60.7592 39.2511 60.7327 39.2553 60.6909 39.1878C60.6581 39.1347 60.664 39.1187 60.7067 39.1451C60.7443 39.1683 60.7909 39.1458 60.8104 39.0951C60.8443 39.0068 60.5509 38.7529 60.4496 38.7828C60.424 38.7902 60.4217 38.7481 60.4444 38.689C60.4724 38.6159 60.4608 38.597 60.4079 38.6296C60.3614 38.6583 60.3374 38.6442 60.3481 38.5945C60.3579 38.5487 60.3221 38.51 60.2684 38.5084C60.2148 38.5067 60.1704 38.4762 60.1699 38.4404C60.1693 38.4047 60.1457 38.3389 60.1173 38.2942C60.0297 38.1563 60.19 38.2043 60.289 38.3456C60.3402 38.4186 60.4077 38.4699 60.439 38.4594C60.4704 38.4489 60.5016 38.4639 60.5085 38.4925C60.5355 38.6055 60.9485 39.0242 61.0128 39.0039C61.0504 38.9919 61.0614 39.002 61.0371 39.0262C60.9863 39.0771 61.4359 39.4887 61.5157 39.4643C61.5449 39.4554 61.5615 39.4753 61.5526 39.5085C61.5436 39.5418 61.6368 39.6766 61.7595 39.808C61.965 40.0281 62.0037 40.0439 62.2472 40.0071C62.3927 39.9851 62.658 39.9501 62.8368 39.9293C63.2661 39.8795 64.1697 39.5863 64.1697 39.4969C64.1697 39.4581 64.188 39.4446 64.2103 39.4669C64.25 39.5066 64.7069 39.3018 64.8695 39.1715C64.9341 39.1198 64.9348 39.0834 64.8727 39.0006C64.8063 38.9123 64.8083 38.9085 64.8848 38.9767C64.935 39.0215 65.0019 39.058 65.0337 39.058C65.1207 39.058 65.9253 38.2684 65.9253 38.1829C65.9253 38.142 66.0152 37.9863 66.1251 37.8368C66.2628 37.6496 66.3119 37.5241 66.283 37.4331C66.2599 37.3604 66.2143 37.3175 66.1814 37.3377C66.1487 37.358 66.1393 37.3292 66.1606 37.2737C66.1819 37.2181 66.1701 37.1728 66.1344 37.1728C66.0987 37.1728 66.0508 37.0985 66.028 37.0076C66.0029 36.9077 65.9576 36.8603 65.9134 36.8876C65.8661 36.9168 65.8585 36.9033 65.8918 36.8493C65.9564 36.7449 65.08 35.8914 64.8485 35.8333C64.7613 35.8114 64.6899 35.7726 64.6899 35.7471C64.6899 35.6686 63.7798 35.2687 63.5852 35.2617C63.4846 35.258 63.4138 35.2362 63.428 35.2132C63.4421 35.1901 63.2724 35.1393 63.0509 35.1003C62.6731 35.0338 62.6381 35.0384 62.4873 35.1747C62.2063 35.4288 61.9258 35.7643 61.9444 35.8243C61.9542 35.8562 61.937 35.8667 61.9061 35.8476C61.8293 35.8001 61.3587 36.2909 61.4213 36.3534C61.4488 36.381 61.4384 36.3938 61.3981 36.3818C61.3146 36.3571 61.0605 36.5716 60.711 36.9618C60.579 37.1093 60.3888 37.2814 60.2884 37.3443L60.1059 37.4587L60.2482 37.2995C60.3266 37.2119 60.3924 37.111 60.3945 37.0753C60.3967 37.0395 60.4228 37.0102 60.4527 37.0102C60.5242 37.0102 61.307 36.2574 61.2897 36.2054C61.2823 36.1833 61.2966 36.1651 61.3214 36.1651C61.4082 36.1651 61.8236 35.7215 61.7891 35.6657C61.7699 35.6347 61.793 35.6174 61.8404 35.6272C61.8877 35.637 61.9184 35.6063 61.9086 35.559C61.8988 35.5116 61.9134 35.4863 61.9411 35.5027C61.9688 35.5192 62.1085 35.4155 62.2516 35.2725C62.3946 35.1295 62.4751 35.0322 62.4304 35.0564C62.3857 35.0805 62.3491 35.0692 62.3491 35.0313C62.3491 34.9901 62.1832 34.9625 61.9356 34.9625C61.4053 34.9625 60.9186 34.8958 60.9186 34.823C60.9186 34.7918 61.0059 34.6459 61.1125 34.4987C61.2192 34.3515 61.2876 34.1982 61.2646 34.158C61.2417 34.1178 61.2461 34.1058 61.2744 34.1314C61.3027 34.1569 61.4421 34.032 61.5841 33.8536C61.8104 33.5695 61.8315 33.5154 61.7544 33.417C61.6756 33.3165 61.6779 33.3137 61.7761 33.3906C61.8722 33.4658 61.8996 33.4497 61.9965 33.2606C62.0574 33.1419 62.1282 33.0301 62.154 33.0122C62.2548 32.9424 62.4216 32.5403 62.3871 32.4504C62.3637 32.3896 62.3777 32.3722 62.4259 32.4019C62.476 32.4328 62.4875 32.4129 62.4606 32.3424C62.4381 32.284 62.4478 32.219 62.482 32.1979C62.6201 32.1126 62.495 31.127 62.3461 31.127C62.312 31.127 62.2875 31.1051 62.2918 31.0782C62.318 30.9123 62.2756 30.7992 62.2028 30.841C62.1581 30.8668 62.1444 30.8627 62.1722 30.8322C62.2 30.8016 62.2648 30.7704 62.3161 30.7628C62.3675 30.7553 62.5056 30.681 62.6231 30.5977C62.9119 30.3931 63.5608 29.7621 63.4837 29.7608C63.4478 29.7603 63.4492 29.7399 63.4872 29.7121C63.5551 29.6623 63.7921 29.3121 64.0306 28.909C64.1071 28.7797 64.1697 28.6132 64.1697 28.5391C64.1697 28.465 64.2015 28.3847 64.2404 28.3606C64.2793 28.3366 64.2966 28.2617 64.279 28.1942C64.2613 28.1267 64.2734 28.0878 64.3058 28.1079C64.3396 28.1288 64.3648 27.8634 64.3648 27.4865C64.3648 27.1248 64.3412 26.8433 64.3125 26.8611C64.2838 26.8788 64.2574 26.7919 64.2539 26.668C64.2466 26.4124 63.7823 25.7368 63.5769 25.6831C63.5104 25.6658 63.47 25.6288 63.4871 25.601C63.5043 25.5733 63.4202 25.504 63.3003 25.4471C63.1804 25.3902 63.0469 25.301 63.0036 25.2488C62.9603 25.1966 62.8783 25.1719 62.8214 25.1936C62.7549 25.2192 62.734 25.2073 62.7629 25.1606C62.8246 25.0609 62.0451 24.835 61.3433 24.7492C60.9523 24.7013 60.6547 24.7019 60.337 24.7512C59.7893 24.8362 59.6648 24.8387 59.711 24.7639C59.7305 24.7323 59.6816 24.624 59.6023 24.5231C59.523 24.4224 59.497 24.3639 59.5446 24.3934C59.6133 24.4358 59.617 24.4202 59.562 24.3176C59.4458 24.1005 58.7607 23.5118 58.6664 23.548C58.6177 23.5667 58.5779 23.5566 58.5779 23.5255C58.5779 23.4532 57.849 23.2996 56.8548 23.1624C56.4256 23.1032 56.0379 23.0244 55.9932 22.9874C55.9312 22.936 55.9823 22.858 56.2074 22.6599C56.3699 22.5169 56.4915 22.3886 56.4777 22.3748C56.4639 22.361 56.5954 22.2009 56.7699 22.019C57.0133 21.7652 57.078 21.6556 57.048 21.5482C57.0203 21.4493 57.0267 21.4341 57.0699 21.4965C57.1467 21.6072 57.2427 21.48 57.1733 21.3595C57.1476 21.3148 57.1505 21.3 57.1798 21.3264C57.2566 21.396 57.4075 21.251 57.4075 21.1078C57.4075 21.0406 57.4321 20.9857 57.4622 20.9857C57.5453 20.9857 57.9998 19.9798 58.0267 19.7366C58.0396 19.6191 58.0812 19.406 58.1189 19.263C58.2078 18.9268 58.1917 18.1684 58.0884 17.82C58.0439 17.6699 58.0236 17.531 58.0434 17.5112C58.0632 17.4915 58.0579 17.4753 58.0317 17.4753C58.0056 17.4753 57.8217 17.6352 57.623 17.8307C57.3558 18.0935 57.2733 18.2162 57.306 18.302C57.3391 18.3889 57.3315 18.3994 57.2756 18.344C57.2198 18.2886 57.1251 18.3459 56.8988 18.5715C56.7325 18.7373 56.6041 18.9073 56.6135 18.9493C56.623 18.9913 56.6009 19.044 56.5647 19.0665C56.5251 19.0909 56.515 19.0645 56.5396 19.0005C56.5622 18.9417 55.9598 19.5107 55.2011 20.2648C54.4423 21.0188 53.7923 21.6358 53.7565 21.6358C53.7207 21.6358 53.7594 21.5518 53.8426 21.4492C53.9258 21.3466 54.0125 21.2732 54.0354 21.286C54.0869 21.3151 54.4546 20.8415 54.4325 20.7744C54.4237 20.7476 54.4454 20.733 54.4808 20.7419C54.5701 20.7646 55.4624 19.8772 55.4197 19.8082C55.4006 19.7773 55.4282 19.7686 55.4809 19.7888C55.5667 19.8217 55.7404 19.6164 55.7471 19.4743C55.7484 19.4474 55.7744 19.4286 55.8049 19.4324C55.9001 19.4442 56.4287 18.8875 56.3868 18.8196C56.3649 18.7843 56.379 18.7751 56.4182 18.7993C56.4943 18.8464 57.1149 18.2246 57.1149 18.1012C57.1149 18.0609 57.1515 18.0242 57.1961 18.0197C57.2409 18.0152 57.3098 18.0079 57.3494 18.0035C57.389 17.999 57.404 17.95 57.3826 17.8944C57.3614 17.8389 57.368 17.8084 57.3975 17.8266C57.4268 17.8448 57.5778 17.7305 57.7328 17.5725L58.0147 17.2854L57.8248 17.211C57.7205 17.1701 57.5278 17.1329 57.3967 17.1284C57.2655 17.1239 57.175 17.0931 57.1954 17.0601C57.2488 16.9737 55.793 17.0567 55.5544 17.1536C55.4471 17.1972 55.2976 17.241 55.2221 17.2511C55.044 17.2749 54.2061 17.6966 53.8313 17.9511C53.3679 18.2657 52.6927 18.8573 52.701 18.9414C52.7052 18.9836 52.6613 19.0147 52.6035 19.0106C52.5456 19.0064 52.5064 19.0417 52.5162 19.089C52.526 19.1364 52.5061 19.1579 52.4719 19.1367C52.4377 19.1156 52.3914 19.1281 52.3689 19.1644C52.3074 19.264 52.2248 19.2439 52.1763 19.1176C52.1525 19.0556 52.0761 18.5948 52.0065 18.0938C51.9369 17.5927 51.8335 17.0226 51.7767 16.8269C51.6641 16.4388 51.3254 15.9539 51.2147 16.0223C51.1765 16.0459 51.1634 16.0358 51.1856 15.9999C51.2692 15.8648 50.7231 15.4992 50.5417 15.5688C50.4689 15.5967 50.4443 15.587 50.4724 15.5416C50.4964 15.5028 50.4836 15.4603 50.444 15.4471C50.3916 15.4297 50.3929 15.2849 50.4489 14.9157C50.5976 13.9353 50.2566 12.4057 49.8048 12.026C49.7238 11.9579 49.7228 11.9504 49.7999 11.99C49.9298 12.0566 49.5224 11.5815 49.2239 11.3182C49.0937 11.2033 48.9506 11.1082 48.9059 11.1069C48.8612 11.1056 48.8246 11.076 48.8246 11.0413C48.8246 10.9217 48.4001 10.8597 47.6867 10.8752C47.2794 10.884 46.8875 10.927 46.7764 10.9751C46.6691 11.0214 46.5438 11.0671 46.498 11.0765C46.3046 11.1161 45.445 11.7044 45.4854 11.7696C45.5099 11.8093 45.4984 11.821 45.4588 11.7965C45.3798 11.7476 44.8812 12.1928 44.9087 12.2877C44.9185 12.3215 44.8965 12.3307 44.8598 12.308C44.823 12.2853 44.7659 12.3343 44.7327 12.417C44.6996 12.4995 44.5992 12.6499 44.5096 12.751L44.3468 12.9348L43.9538 12.7916C43.4406 12.6045 43.0206 12.6398 42.4367 12.919C41.98 13.1374 41.3603 13.5727 41.0071 13.9231C40.8939 14.0354 40.8273 14.0835 40.8591 14.0298C40.9089 13.9459 40.9016 13.9447 40.8076 14.0209C40.7475 14.0697 40.7173 14.1428 40.7405 14.1834C40.7637 14.2241 40.7585 14.2353 40.7288 14.2083C40.699 14.1814 40.61 14.2018 40.5307 14.2537C40.3521 14.3707 40.3068 14.3291 40.3068 14.0476C40.3068 13.9038 40.2819 13.8425 40.2352 13.8713C40.1834 13.9034 40.1834 13.8787 40.2354 13.7816C40.3609 13.5471 40.2062 13.5716 39.9584 13.8253C39.8267 13.9602 39.7268 14.0833 39.7365 14.0989C39.7461 14.1145 39.7441 14.1223 39.7319 14.116C39.6736 14.0863 39.148 14.6461 39.1822 14.7015C39.2038 14.7364 39.1924 14.747 39.1567 14.725C39.1211 14.703 38.9938 14.7862 38.8738 14.91C38.7539 15.0338 38.6253 15.135 38.5882 15.135C38.551 15.135 38.8641 14.7908 39.2837 14.3701C39.7034 13.9495 40.0467 13.5692 40.0467 13.525C40.0467 13.4809 40.0813 13.452 40.1236 13.461C40.2398 13.4856 40.2456 13.0955 40.1386 12.4371C39.9424 11.2286 39.5437 10.3992 38.8026 9.65802C38.5256 9.38096 38.2606 9.15356 38.2138 9.15278C38.1669 9.152 38.0554 9.09414 37.966 9.02419C37.8766 8.95424 37.7742 8.89645 37.7384 8.89567C37.7026 8.89489 37.495 9.00397 37.2769 9.13809ZM25.872 11.6934C25.872 11.7312 25.9012 11.7441 25.937 11.722C25.9727 11.6999 26.002 11.669 26.002 11.6532C26.002 11.6374 25.9727 11.6245 25.937 11.6245C25.9012 11.6245 25.872 11.6555 25.872 11.6934ZM29.9735 12.0525C29.9766 12.1282 29.992 12.1436 30.0127 12.0918C30.0315 12.0449 30.0292 11.9888 30.0076 11.9672C29.986 11.9456 29.9707 11.984 29.9735 12.0525ZM27.4175 12.9876C27.328 13.0579 27.2338 13.0945 27.2082 13.0688C27.1825 13.0432 27.1704 13.0515 27.1812 13.0872C27.192 13.123 27.1156 13.2794 27.0113 13.4348C26.8416 13.6877 26.8233 13.7647 26.8371 14.1669C26.8479 14.4808 26.8925 14.6842 26.9851 14.8411C27.1852 15.1801 27.1349 15.2756 26.7497 15.2883C26.3832 15.3005 26.1073 15.4625 26.0149 15.72C25.866 16.1343 25.8221 16.3034 25.8711 16.2731C25.9004 16.2551 25.9532 16.3207 25.9886 16.4189C26.0876 16.6939 26.2879 16.8662 26.6787 17.0123C27.0074 17.1353 27.0604 17.1386 27.3428 17.0536C27.5116 17.0028 27.6785 16.9791 27.7137 17.0008C27.7489 17.0225 27.7588 17.0097 27.7357 16.9724C27.7126 16.935 27.7593 16.8607 27.8394 16.8073C28.2006 16.5666 28.3516 16.322 28.5698 15.6244C28.5985 15.5324 28.624 15.519 28.6599 15.5771C28.6875 15.6216 28.7663 15.6708 28.8352 15.6864C28.9041 15.7021 29.0922 15.7626 29.2531 15.8209C30.0915 16.125 31.0085 15.6302 31.165 14.7894C31.2236 14.4749 31.0291 14.0433 30.7562 13.8821C30.5008 13.7313 30.1544 13.7395 29.9488 13.9012C29.8569 13.9735 29.7446 14.0247 29.6993 14.015C29.6539 14.0053 29.6154 14.0412 29.6138 14.0948C29.6086 14.2593 29.3541 14.2825 29.2933 14.124C29.272 14.0684 29.2815 14.0397 29.3143 14.06C29.3472 14.0803 29.3953 14.0627 29.4212 14.0209C29.4498 13.9746 29.4401 13.9621 29.3965 13.9891C29.3075 14.0441 29.1651 13.7946 29.2276 13.6934C29.2556 13.6482 29.2441 13.6376 29.1981 13.6661C29.1529 13.694 29.123 13.6696 29.123 13.6047C29.123 13.4591 28.7594 13.1271 28.4403 12.9813C28.0886 12.8207 27.626 12.8235 27.4175 12.9876ZM46.894 13.0181C46.5216 13.1915 46.2854 13.4942 46.1603 13.959C46.1199 14.1089 46.0498 14.2458 46.0045 14.2631C45.9592 14.2806 45.8135 14.1925 45.6809 14.0674C45.2929 13.7015 44.8728 13.6837 44.5159 14.0178C44.1867 14.3259 44.1453 14.8275 44.4167 15.2158C44.4853 15.3139 44.5204 15.4281 44.4947 15.4696C44.4641 15.5193 44.4767 15.5274 44.5315 15.4935C44.5876 15.4589 44.6042 15.4716 44.5823 15.5322C44.5642 15.5819 44.5143 15.6145 44.4715 15.6047C44.4286 15.5948 44.4129 15.6182 44.4366 15.6566C44.4673 15.7062 44.5041 15.7061 44.5643 15.6562C44.6268 15.6043 44.7295 15.629 44.9583 15.7505C45.3201 15.9429 45.8343 15.9708 46.2002 15.818C46.328 15.7646 46.4633 15.7399 46.5008 15.763C46.5382 15.7862 46.5523 15.7782 46.5319 15.7453C46.5116 15.7124 46.5653 15.6522 46.6513 15.6117C46.7989 15.542 46.8119 15.5529 46.8847 15.8077C46.9271 15.9562 46.9864 16.1104 47.0165 16.1506C47.0467 16.1908 47.0609 16.2639 47.0483 16.3131C47.0357 16.3623 47.0381 16.379 47.0539 16.35C47.0893 16.2848 47.5635 16.8311 47.5388 16.9087C47.529 16.9396 47.5478 16.9482 47.5807 16.928C47.6135 16.9077 47.7519 16.9376 47.8882 16.9945C48.0622 17.0672 48.2432 17.0872 48.4965 17.0615C48.6948 17.0413 48.8954 17.0238 48.9422 17.0225C48.989 17.0212 49.0093 16.991 48.9872 16.9552C48.9651 16.9194 48.9853 16.8897 49.0321 16.8891C49.1679 16.8873 49.3905 16.6136 49.4558 16.3682C49.6171 15.7622 49.2655 15.2975 48.6458 15.2975C48.2477 15.2975 48.2199 15.2304 48.4395 14.8C48.5796 14.5255 48.6416 14.0573 48.5803 13.7368C48.5609 13.6351 48.3941 13.3961 48.2097 13.2058C47.8934 12.8792 47.8563 12.8597 47.553 12.8603C47.3507 12.8607 47.1065 12.9192 46.894 13.0181ZM39.2881 14.1245C39.2881 14.1766 39.313 14.2038 39.3433 14.185C39.3737 14.1662 39.3818 14.1236 39.3612 14.0903C39.3086 14.0053 39.2881 14.0149 39.2881 14.1245ZM61.2354 14.1436C61.1546 14.2467 61.1569 14.249 61.26 14.1682C61.3683 14.0832 61.4027 14.0298 61.3492 14.0298C61.3358 14.0298 61.2845 14.081 61.2354 14.1436ZM15.0458 14.8749C15.1105 14.9464 15.1782 15.005 15.196 15.005C15.2139 15.005 15.1756 14.9464 15.1109 14.8749C15.0462 14.8034 14.9785 14.7449 14.9607 14.7449C14.9428 14.7449 14.9811 14.8034 15.0458 14.8749ZM42.8618 15.5571C42.8002 15.6249 42.8032 15.6509 42.876 15.6788C42.9851 15.7208 43.0773 15.6027 42.9963 15.5248C42.9654 15.4951 42.9049 15.5097 42.8618 15.5571ZM24.8845 15.5694C24.9314 15.5882 24.9875 15.5859 25.0091 15.5643C25.0306 15.5427 24.9923 15.5274 24.9237 15.5302C24.848 15.5333 24.8326 15.5487 24.8845 15.5694ZM32.3741 15.59C32.3741 15.6258 32.44 15.6546 32.5204 15.6541C32.6387 15.6532 32.6481 15.641 32.5692 15.59C32.4431 15.5086 32.3741 15.5086 32.3741 15.59ZM24.4415 15.7456C24.4415 15.7596 24.4869 15.7886 24.5424 15.8099C24.6003 15.8321 24.6263 15.8211 24.6036 15.7843C24.5654 15.7225 24.4415 15.6929 24.4415 15.7456ZM37.5759 15.8746C37.5759 15.8881 37.6271 15.9393 37.6896 15.9884C37.7928 16.0692 37.795 16.0669 37.7142 15.9638C37.6292 15.8555 37.5759 15.8211 37.5759 15.8746ZM36.7306 18.0006C36.3193 18.0327 35.4623 18.0473 34.8261 18.0332C33.6989 18.0081 33.6621 18.0115 33.387 18.1651C32.9566 18.4057 32.2709 18.6191 31.2171 18.8406C30.6912 18.9511 30.1731 19.0801 30.0659 19.1273C29.9586 19.1746 29.5229 19.4401 29.0976 19.7174C28.132 20.3471 27.4311 20.7082 27.0693 20.7624C26.8332 20.7978 26.7399 20.8617 26.4679 21.1745C25.9987 21.7138 25.6786 22.032 24.7338 22.898C24.269 23.324 23.4792 24.1177 22.9785 24.6616C22.4778 25.2056 21.8268 25.8647 21.5318 26.1264C21.167 26.45 20.9953 26.648 20.9953 26.7451C20.9953 27.0356 20.609 27.8219 20.0006 28.7697C19.6566 29.3055 19.3462 29.8138 19.311 29.8992C19.2757 29.9845 19.1561 30.4846 19.0453 31.0104C18.8306 32.0293 18.6341 32.6725 18.3943 33.1427C18.2524 33.4206 18.2448 33.5144 18.2169 35.3192C18.1807 37.6596 18.1808 37.4193 18.2155 39.6756C18.2434 41.4828 18.2507 41.5729 18.3935 41.8521C18.6371 42.3284 18.8329 42.9739 19.0745 44.0968L19.3024 45.1566L19.7461 45.829C20.616 47.1475 20.9953 47.8825 20.9953 48.2496C20.9953 48.3483 21.0747 48.4739 21.2067 48.5843C21.7041 49.0002 22.2581 49.5492 23.0403 50.4019C23.4994 50.9025 24.3207 51.7216 24.8653 52.2222C25.4098 52.7227 26.068 53.3736 26.3279 53.6686C26.6915 54.0813 26.8395 54.2051 26.9701 54.2057C27.3331 54.2074 28.6699 54.9331 29.8506 55.7694C29.9524 55.8414 30.4722 55.9892 31.0955 56.1233C32.2266 56.3664 32.8723 56.5619 33.3501 56.8056C33.6286 56.9476 33.7209 56.9551 35.5271 56.9823C36.5645 56.9979 37.545 57.0145 37.7059 57.0191C37.8668 57.0238 38.613 57.0029 39.364 56.9728L40.7294 56.918L40.5671 57.1055L40.4048 57.2928L40.6005 57.1165C40.7857 56.9499 40.8214 56.9424 41.2568 56.9789C41.675 57.0139 41.7442 57.0017 42.0105 56.8457C42.4364 56.5961 43.1091 56.3833 44.1947 56.1545C44.7206 56.0438 45.2152 55.9267 45.2938 55.8945C45.3725 55.8623 45.8837 55.5512 46.4301 55.2033C47.4411 54.5592 48.1421 54.2105 48.4345 54.2059C48.5555 54.204 48.7517 54.0362 49.2017 53.5497C49.5343 53.1902 50.1927 52.5425 50.6647 52.1105C51.1368 51.6784 51.8909 50.9223 52.3405 50.4302C52.7901 49.9382 53.4339 49.2818 53.771 48.9715C54.2903 48.4935 54.391 48.3679 54.43 48.1495C54.4959 47.7804 54.8571 47.0624 55.3737 46.2739C56.1164 45.1402 56.1089 45.1572 56.3414 44.0786C56.5974 42.8911 56.7637 42.3531 57.0332 41.8394C57.2175 41.4881 57.2256 41.4409 57.182 40.9754C57.1472 40.6047 57.1573 40.4564 57.2229 40.3756C57.2963 40.285 57.2957 40.2768 57.2191 40.3229C57.1418 40.3695 57.1367 40.1849 57.1844 39.084C57.2554 37.4507 57.2555 37.3959 57.193 36.2731C57.1508 35.5158 57.1569 35.3505 57.2255 35.3917C57.2867 35.4285 57.2849 35.4116 57.2189 35.3303C57.1458 35.2403 57.1364 35.047 57.1712 34.353C57.2136 33.5084 57.2107 33.4807 57.0497 33.1927C56.8024 32.7502 56.5907 32.0741 56.3665 31.0104C56.2557 30.4846 56.1386 29.9901 56.1064 29.9115C56.0742 29.8328 55.7631 29.3217 55.415 28.7754C54.7672 27.7589 54.4213 27.0624 54.4182 26.7681C54.4169 26.6432 54.284 26.4848 53.88 26.1264C53.585 25.8647 52.934 25.2052 52.4333 24.6609C51.9326 24.1165 51.1134 23.2952 50.6127 22.8358C49.7596 22.0529 49.21 21.4986 48.7947 21.002C48.678 20.8625 48.5593 20.7901 48.4449 20.7889C48.1437 20.7859 47.455 20.4452 46.4301 19.7924C45.8837 19.4444 45.3725 19.1333 45.2938 19.1011C45.2152 19.0689 44.7206 18.9519 44.1947 18.8411C43.1724 18.6257 42.5298 18.4293 42.0611 18.1889C41.7811 18.0453 41.703 18.039 40.0467 18.0263C39.099 18.019 38.1334 17.9972 37.901 17.9776C37.6685 17.9582 37.1418 17.9685 36.7306 18.0006ZM49.48 18.1779C49.4772 18.2247 49.4426 18.2431 49.4033 18.2188C49.3606 18.1924 49.366 18.2366 49.4167 18.3288C49.4895 18.4609 49.5051 18.4664 49.5257 18.3679C49.539 18.3046 49.5353 18.2169 49.5175 18.1729C49.4932 18.1128 49.4838 18.1141 49.48 18.1779ZM25.7682 18.2654C25.7394 18.3119 25.7504 18.3228 25.7969 18.294C25.8418 18.2663 25.872 18.2899 25.872 18.3529C25.872 18.4107 25.9012 18.44 25.937 18.4179C25.9727 18.3958 26.002 18.3356 26.002 18.284C26.002 18.1722 25.834 18.1589 25.7682 18.2654ZM56.5539 18.5642C56.473 18.6673 56.4753 18.6695 56.5784 18.5887C56.6868 18.5038 56.7212 18.4504 56.6677 18.4504C56.6542 18.4504 56.603 18.5016 56.5539 18.5642ZM56.1437 18.9514C56.1085 19.044 56.1159 19.0515 56.1801 18.9878C56.2246 18.9437 56.2446 18.8912 56.2245 18.8713C56.2045 18.8512 56.1682 18.8873 56.1437 18.9514ZM55.1774 20.509C55.1957 20.5567 55.219 20.5957 55.2292 20.5957C55.2395 20.5957 55.2628 20.5567 55.2811 20.509C55.2994 20.4613 55.2761 20.4223 55.2292 20.4223C55.1824 20.4223 55.1591 20.4613 55.1774 20.509ZM64.8199 20.4252C64.8199 20.4387 64.8712 20.4899 64.9337 20.539C65.0369 20.6198 65.0391 20.6175 64.9583 20.5144C64.8733 20.4061 64.8199 20.3717 64.8199 20.4252ZM59.2931 24.1307C59.2931 24.1441 59.3443 24.1954 59.4069 24.2444C59.51 24.3252 59.5123 24.323 59.4315 24.2199C59.3465 24.1116 59.2931 24.0772 59.2931 24.1307ZM15.8953 24.3471C15.86 24.4397 15.8675 24.4472 15.9317 24.3835C15.9762 24.3394 15.9961 24.2869 15.9761 24.2669C15.9561 24.2469 15.9197 24.283 15.8953 24.3471ZM56.7858 25.6526C56.795 25.7152 56.8634 25.7671 56.9422 25.7712C57.119 25.7805 57.1176 25.7693 56.9259 25.6438C56.7815 25.5492 56.7708 25.5499 56.7858 25.6526ZM15.7853 25.7151C15.7045 25.8182 15.7067 25.8204 15.8099 25.7396C15.8724 25.6906 15.9236 25.6393 15.9236 25.6259C15.9236 25.5724 15.8703 25.6068 15.7853 25.7151ZM18.3579 25.6729C18.3051 25.7582 18.5207 25.8262 18.5982 25.7487C18.6414 25.7054 18.6183 25.672 18.5289 25.6486C18.455 25.6293 18.3781 25.6402 18.3579 25.6729ZM59.5532 25.6663C59.4946 25.7041 59.4865 25.7297 59.5331 25.7303C59.5757 25.7309 59.6286 25.7021 59.6507 25.6663C59.7006 25.5856 59.6781 25.5856 59.5532 25.6663ZM16.1837 25.7311C15.8774 25.7868 15.6768 25.9221 15.5811 26.1376C15.5375 26.2359 15.4868 26.3164 15.4684 26.3164C15.45 26.3164 15.4455 26.448 15.4583 26.6089C15.4803 26.885 15.4723 26.9015 15.3163 26.9015C15.2254 26.9015 15.1319 26.8704 15.1084 26.8324C15.0391 26.7203 14.7453 26.6322 14.3689 26.6106C14.0203 26.5906 13.7222 26.6974 13.4475 26.9407C13.391 26.9908 13.3252 27.017 13.3012 26.9991C13.2773 26.9812 13.2714 26.985 13.2881 27.0077C13.3048 27.0304 13.2609 27.122 13.1906 27.2115C12.9518 27.5149 13.0687 28.2029 13.4323 28.6343C13.5684 28.7958 14.0192 29.0467 14.1733 29.0467C14.2309 29.0467 14.3313 29.1057 14.3965 29.1778C14.5115 29.3048 14.5113 29.3116 14.3911 29.3995C14.3229 29.4495 14.2402 29.4737 14.2075 29.4535C14.1747 29.4333 14.17 29.4523 14.1969 29.4959C14.2241 29.5399 14.1985 29.6273 14.1391 29.6929C13.8277 30.0369 13.9957 30.642 14.4658 30.8694C14.7707 31.0171 14.988 31.0073 15.3836 30.8283C15.6182 30.7221 15.9742 30.3232 16.0303 30.1036C16.0508 30.0234 16.0876 29.9701 16.112 29.9853C16.2084 30.0447 16.056 29.0606 15.9229 28.7636C15.845 28.5899 15.8061 28.4253 15.8362 28.3978C15.8664 28.3702 16.0595 28.2906 16.2654 28.2209C16.8941 28.0078 17.3482 27.3338 17.2662 26.7354C17.1702 26.0357 16.734 25.6309 16.1837 25.7311ZM58.6137 25.8585C58.3821 26.0112 58.2098 26.3194 58.1524 26.6842C58.0983 27.0275 58.1568 27.2929 58.3494 27.5766C58.4332 27.7 58.4823 27.8204 58.4585 27.8442C58.4347 27.868 58.4579 27.8777 58.5099 27.8657C58.5619 27.8538 58.6058 27.888 58.6074 27.9416C58.6091 27.9952 58.6396 28.0409 58.6754 28.0431C58.7112 28.0452 58.8558 28.0973 58.9967 28.1587C59.1377 28.2202 59.3279 28.2882 59.4194 28.31C59.6553 28.3662 59.6822 28.3887 59.6411 28.4959C59.621 28.5482 59.5739 28.572 59.5363 28.5488C59.4988 28.5256 59.487 28.5372 59.5101 28.5746C59.5332 28.612 59.4907 28.7814 59.4156 28.9511C59.0581 29.7592 59.5203 30.7464 60.3541 30.9557C60.5892 31.0147 60.9972 30.9015 61.1474 30.7357C61.2283 30.6463 61.2813 30.6275 61.3121 30.6773C61.3371 30.7178 61.3575 30.6712 61.3575 30.574C61.3575 30.4767 61.3848 30.3785 61.4183 30.3557C61.5393 30.2734 61.3716 29.7687 61.1425 29.5259C61.0194 29.3954 60.9186 29.2683 60.9186 29.2436C60.9186 29.1871 61.1424 29.0768 61.4428 28.9852C61.7242 28.8996 62.1115 28.5159 62.2484 28.1875C62.3038 28.0545 62.3491 27.8012 62.3491 27.6247C62.3491 27.3208 62.3314 27.2876 62.017 27.005C61.8343 26.8408 61.6441 26.7064 61.5943 26.7064C61.5445 26.7064 61.5038 26.6832 61.5038 26.655C61.5038 26.5474 60.6705 26.6327 60.4067 26.7672C60.262 26.8411 60.0867 26.9015 60.0171 26.9015C59.9076 26.9015 59.8953 26.8674 59.9247 26.6474C59.9468 26.4827 59.9218 26.3192 59.8535 26.1824C59.7283 25.9313 59.7245 25.904 59.8234 25.965C59.8702 25.994 59.8807 25.9828 59.8513 25.9353C59.8254 25.8934 59.7771 25.876 59.7439 25.8966C59.7107 25.917 59.6184 25.8883 59.5388 25.8326C59.3355 25.6902 58.8484 25.7038 58.6137 25.8585ZM37.1942 25.9329C36.8318 26.1175 36.7308 26.3525 36.7298 27.0131L36.729 27.519L36.5724 27.2451C36.3163 26.7974 36.0871 26.5299 35.889 26.4479C35.6137 26.3339 35.412 26.3864 35.3107 26.5984C35.1784 26.875 35.2865 27.2 35.9137 28.4119C36.6632 29.8603 36.9625 30.7826 37.0187 31.8171C37.0418 32.242 37.0738 32.736 37.0898 32.9147L37.1189 33.2398L37.0245 33.0344C36.9726 32.9214 36.8103 32.351 36.6639 31.7667C36.2829 30.2461 36.1066 29.6987 35.8859 29.3508C35.6613 28.9966 35.4231 28.8527 35.2706 28.9792C35.1528 29.077 35.0422 29.4478 35.0371 29.7618C35.0337 29.9739 35.0142 29.9516 34.7496 29.4329C34.5936 29.1269 34.3329 28.732 34.1703 28.5553L33.8748 28.2341L33.8731 28.6242C33.8719 28.8931 33.9314 29.1859 34.0647 29.5668C34.171 29.8707 34.2584 30.1593 34.2589 30.2082C34.2594 30.2586 34.1479 30.196 34.0013 30.0636C33.7294 29.8179 33.4853 29.7207 33.3096 29.7882C33.2234 29.8212 33.2093 29.9054 33.2314 30.253C33.2629 30.7473 33.5172 31.2789 34.5154 32.9365C34.8455 33.4848 35.1029 33.9461 35.0873 33.9617C35.0718 33.9772 34.7367 33.6309 34.3428 33.192C33.7221 32.5005 33.5809 32.2987 33.2842 31.6792C32.8503 30.7732 32.5413 29.9745 32.4163 29.4359C32.237 28.663 31.9782 28.2053 31.65 28.0806C31.2965 27.9462 31.0978 28.3028 31.1643 28.9521C31.1881 29.1837 31.2352 29.446 31.269 29.535C31.36 29.7744 31.2505 29.7322 30.9719 29.4205C30.6252 29.0327 30.4315 28.9176 30.1242 28.9172C29.6212 28.9163 29.1226 29.4147 29.1235 29.9177C29.1239 30.2194 29.2299 30.4013 29.627 30.7819C29.7789 30.9276 29.9033 31.0606 29.9033 31.0773C29.9033 31.0942 29.7506 31.0684 29.564 31.02C28.8438 30.8332 28.2778 30.9627 28.2778 31.3142C28.2778 31.6974 28.7315 31.9852 29.7256 32.2326C30.2818 32.371 31.8678 33.022 32.3832 33.3234C32.7114 33.5153 34.2182 34.8306 34.1677 34.8811C34.1506 34.8982 33.6178 34.6006 32.9835 34.22C31.3664 33.2493 30.9567 33.0559 30.4492 33.0235C30.1115 33.0021 30.0276 33.0166 29.9947 33.1024C29.9272 33.2781 30.0244 33.5221 30.2702 33.794C30.3986 33.9361 30.4726 34.0524 30.4347 34.0524C30.3969 34.0524 30.1038 33.9646 29.7836 33.8573C29.3923 33.7263 29.0766 33.6632 28.8208 33.6649L28.4403 33.6675L28.7654 33.9675C28.9442 34.1325 29.337 34.3861 29.6381 34.531L30.1858 34.7944L29.7509 34.8656C29.5117 34.9047 29.2672 34.9855 29.2075 35.0452C29.1111 35.1416 29.1094 35.1732 29.1923 35.3294C29.4028 35.7259 29.9605 35.9518 31.9737 36.456C32.558 36.6024 33.1286 36.7634 33.2416 36.8139L33.447 36.9056L33.1869 36.8791C33.0438 36.8645 32.5574 36.8356 32.106 36.815C31.4128 36.7832 31.1786 36.7428 30.5996 36.5551C29.8735 36.3198 28.5753 35.7586 28.2871 35.5554C27.4728 34.9813 26.5872 34.8984 26.5872 35.3962C26.5872 35.7385 26.83 36.0093 27.4594 36.3692L27.7251 36.5211L27.2699 36.5223C27.0196 36.5229 26.7107 36.5523 26.5835 36.5876C26.0978 36.7225 25.8669 37.4011 26.1155 37.9631C26.2888 38.3547 26.5426 38.4727 27.2147 38.4737L27.7251 38.4745L27.4444 38.6349C26.6473 39.0905 26.3543 39.6176 26.753 39.8787C26.8959 39.9723 26.9655 39.9768 27.2569 39.9114C27.4429 39.8696 27.7706 39.7342 27.9852 39.6106C28.7398 39.1757 29.7254 38.7296 30.4844 38.4795C31.1331 38.2657 31.3704 38.2204 32.024 38.1848C32.449 38.1617 32.9431 38.1298 33.1219 38.1138L33.447 38.0847L33.2416 38.1791C33.1286 38.231 32.558 38.3932 31.9737 38.5396C29.9536 39.0455 29.403 39.2693 29.1896 39.6713C29.1 39.8401 29.1034 39.86 29.2412 39.9716C29.399 40.0993 29.9026 40.2023 30.0651 40.1399C30.1191 40.1192 30.1634 40.1269 30.1634 40.1571C30.1634 40.1873 29.922 40.3281 29.627 40.47C29.3319 40.612 28.9442 40.8631 28.7654 41.0281L28.4403 41.3282L28.8304 41.3298C29.0994 41.331 29.3922 41.2715 29.7733 41.1383C30.0772 41.032 30.365 40.9446 30.4127 40.9441C30.4605 40.9436 30.38 41.079 30.2339 41.2449C29.9115 41.6111 29.8725 41.8918 30.1348 41.9576C30.6351 42.0832 31.2711 41.8143 33.1557 40.6803C33.6975 40.3543 34.153 40.0998 34.1679 40.1147C34.1973 40.144 34.029 40.3028 33.1236 41.1002C32.6828 41.4884 32.3874 41.6854 31.9203 41.9028C30.8938 42.3805 30.247 42.6333 29.7077 42.7674C28.7223 43.0127 28.2778 43.293 28.2778 43.669C28.2778 44.0336 28.8315 44.1656 29.564 43.9756C29.7506 43.9273 29.9033 43.9065 29.9033 43.9296C29.9033 43.9526 29.7789 44.0848 29.627 44.2234C29.2394 44.5766 29.1239 44.7713 29.1235 45.0724C29.1226 45.5713 29.6352 46.0794 30.1385 46.0784C30.4317 46.078 30.6287 45.959 30.9719 45.5751C31.1077 45.4231 31.2421 45.2988 31.2704 45.2988C31.2988 45.2988 31.2811 45.4523 31.2311 45.6401C31.059 46.2867 31.1357 46.7775 31.4299 46.9116C31.7927 47.0768 32.1694 46.55 32.4365 45.5039C32.597 44.8757 32.8462 44.2286 33.281 43.311C33.5439 42.7561 33.7037 42.5298 34.3257 41.8313C34.7296 41.3777 35.0719 41.0185 35.0866 41.0331C35.1011 41.0477 34.844 41.5088 34.5151 42.0578C33.5062 43.7419 33.2627 44.2513 33.2314 44.7426C33.2093 45.0902 33.2234 45.1744 33.3096 45.2075C33.4853 45.2749 33.7294 45.1777 34.0013 44.932C34.1434 44.8036 34.2597 44.7296 34.2597 44.7675C34.2597 44.8053 34.172 45.0983 34.0647 45.4185C33.9336 45.8097 33.8705 46.1253 33.8722 46.3811L33.8748 46.7615L34.1703 46.4403C34.3329 46.2637 34.5936 45.8687 34.7496 45.5627C35.0142 45.044 35.0337 45.0217 35.0371 45.2338C35.0422 45.5481 35.1528 45.9187 35.2709 46.0166C35.4173 46.1381 35.673 45.979 35.8965 45.6275C36.108 45.2949 36.2806 44.7534 36.6897 43.1395C36.996 41.9314 37.1504 41.5127 37.092 42.0484C37.0745 42.2093 37.0419 42.7066 37.0196 43.1535C36.9848 43.8485 36.9455 44.0649 36.7476 44.6487C36.4457 45.5397 36.0805 46.3688 35.6882 47.054C35.2976 47.7363 35.1853 48.1353 35.3106 48.3964C35.5298 48.8536 36.1788 48.5316 36.5526 47.7801L36.6981 47.4878L36.733 48.0672C36.7696 48.6751 36.8273 48.8233 37.1107 49.0368C37.2426 49.1361 37.3829 49.1665 37.7059 49.1657C38.4352 49.1637 38.6806 48.8673 38.682 47.9868L38.6828 47.4766L38.8433 47.7572C39.1742 48.3359 39.482 48.613 39.7949 48.6138C40.2411 48.6149 40.2632 48.0227 39.8452 47.2669C38.8429 45.4542 38.4535 44.3467 38.3919 43.1338C38.3697 42.6978 38.3373 42.2093 38.3198 42.0484C38.2614 41.5127 38.4158 41.9314 38.7221 43.1395C39.1312 44.7534 39.3038 45.2949 39.5153 45.6275C39.7388 45.979 39.9945 46.1381 40.1409 46.0166C40.2596 45.9182 40.3701 45.5464 40.3737 45.2338C40.3761 45.0249 40.4025 45.0568 40.698 45.6258C40.875 45.9666 41.1373 46.3601 41.281 46.5003L41.5422 46.7554V46.3779C41.5422 46.1313 41.4746 45.7988 41.3471 45.4185C41.2398 45.0983 41.152 44.803 41.152 44.7623C41.152 44.7215 41.2471 44.7782 41.3634 44.8882C41.7711 45.274 42.0966 45.3466 42.1666 45.0674C42.3017 44.5294 42.014 43.8869 40.6022 41.5734C40.4319 41.2942 40.3056 41.0527 40.3217 41.0367C40.3377 41.0207 40.6554 41.3442 41.0277 41.7557C41.4786 42.2539 41.7934 42.672 41.97 43.0075C42.3687 43.7642 42.828 44.8975 42.9742 45.4845C43.1366 46.1369 43.2987 46.5154 43.5142 46.7452C43.6762 46.9181 43.9043 46.9728 44.052 46.8743C44.2818 46.7209 44.3358 46.2191 44.185 45.638C44.1367 45.4514 44.1187 45.2988 44.145 45.2988C44.1714 45.2988 44.3041 45.4232 44.4399 45.5751C44.7866 45.9629 44.9803 46.078 45.2874 46.0784C45.4805 46.0788 45.6278 46.0255 45.8215 45.8852C46.1417 45.6532 46.2889 45.3925 46.2883 45.0583C46.2878 44.7704 46.1672 44.5721 45.7848 44.2305C45.6329 44.0946 45.5085 43.962 45.5085 43.9356C45.5085 43.9092 45.6612 43.9273 45.8478 43.9756C46.5154 44.1488 47.0358 44.0562 47.1125 43.7506C47.2087 43.3674 46.7074 43.0145 45.7127 42.765C45.113 42.6146 44.3949 42.3342 43.4437 41.8788C42.9558 41.6453 42.6881 41.4539 42.0287 40.8669C41.5814 40.4688 41.2279 40.1307 41.243 40.1156C41.2582 40.1003 41.3876 40.1561 41.5307 40.2393C41.9298 40.4715 43.0427 41.1379 43.2978 41.2973C44.1034 41.8008 44.8756 42.0584 45.277 41.9576C45.5564 41.8876 45.4837 41.5621 45.0978 41.1545C44.9878 41.0383 44.9311 40.9432 44.9719 40.9432C45.0126 40.9432 45.308 41.031 45.6282 41.1383C46.0195 41.2693 46.3352 41.3325 46.591 41.3307L46.9715 41.3282L46.6464 41.0285C46.4676 40.8637 46.0601 40.6016 45.7408 40.4461C45.1781 40.1718 45.1681 40.1631 45.4157 40.1628C45.7498 40.1623 46.1238 40.056 46.2265 39.9323C46.3479 39.786 46.1888 39.5303 45.8373 39.3069C45.5065 39.0966 44.9442 38.9168 43.4381 38.5396C42.8538 38.3932 42.2832 38.2314 42.1702 38.1799C41.9664 38.0871 41.9676 38.0867 42.3224 38.1149C42.5191 38.1305 43.0019 38.1603 43.3953 38.181C44.5032 38.2395 45.756 38.6864 47.477 39.6369C48.2231 40.049 48.8246 40.0323 48.8246 39.5994C48.8246 39.2571 48.5818 38.9863 47.9524 38.6264L47.6867 38.4745L48.1971 38.4737C49.0684 38.4723 49.3773 38.2169 49.3773 37.4978C49.3773 37.1761 49.3463 37.034 49.2472 36.9027C49.0342 36.6199 48.8857 36.5618 48.2843 36.5251L47.7115 36.4902L47.9592 36.3614C48.7627 35.9435 49.0804 35.3289 48.6092 35.1039C48.3643 34.9869 47.9404 35.089 47.4241 35.3894C46.736 35.7897 45.8207 36.2023 44.9854 36.4886C44.2469 36.7416 44.0901 36.7721 43.3274 36.8109C42.8641 36.8344 42.368 36.8682 42.2249 36.8859C41.7008 36.951 42.1861 36.7765 43.3487 36.4819C44.963 36.0728 45.5046 35.9002 45.8373 35.6888C46.1888 35.4653 46.3479 35.2096 46.2265 35.0633C46.128 34.9447 45.7562 34.8342 45.4435 34.8306C45.2345 34.8282 45.2665 34.8017 45.8356 34.5063C46.1764 34.3294 46.57 34.0671 46.7103 33.9235L46.9654 33.6623H46.5953C46.3628 33.6623 45.9989 33.7348 45.6164 33.8573C45.2814 33.9646 44.9851 34.0524 44.9578 34.0524C44.9305 34.0524 45.0132 33.9361 45.1416 33.794C45.3838 33.526 45.4846 33.2783 45.42 33.1099C45.3653 32.9674 44.8078 32.9842 44.3893 33.1411C44.057 33.2656 42.8256 33.9573 41.7852 34.6038C41.5075 34.7763 41.2652 34.9023 41.2467 34.8838C41.2282 34.8652 41.5504 34.5463 41.9627 34.175C42.4978 33.693 42.8753 33.4144 43.2814 33.2013C44.0495 32.7983 45.0376 32.4015 45.682 32.2374C46.6953 31.9793 47.134 31.704 47.134 31.3266C47.134 30.9604 46.5801 30.83 45.8499 31.0244C45.6621 31.0743 45.5085 31.092 45.5085 31.0637C45.5085 31.0353 45.6329 30.901 45.7848 30.7652C46.1713 30.4199 46.2878 30.2249 46.2883 29.9232C46.2891 29.4287 45.7441 28.8868 45.264 28.9048C44.9806 28.9155 44.7821 29.0423 44.388 29.4646C44.2188 29.646 44.0801 29.7797 44.0799 29.7618C44.0797 29.7439 44.1228 29.5684 44.1756 29.3718C44.3754 28.6273 44.2484 28.0716 43.8783 28.0716C43.5009 28.0716 43.2258 28.51 42.9673 29.5234C42.8233 30.0878 42.5848 30.6974 42.1027 31.733C41.8489 32.2781 41.6991 32.49 41.0791 33.1807C40.6795 33.6258 40.3398 33.977 40.3241 33.9613C40.3083 33.9455 40.5919 33.4403 40.9543 32.8386C42.0462 31.0254 42.2932 30.4325 42.1666 29.9282C42.0966 29.649 41.7711 29.7216 41.3634 30.1074C41.2471 30.2174 41.152 30.2827 41.152 30.2526C41.152 30.2225 41.2398 29.9238 41.3471 29.589C41.4697 29.2065 41.5422 28.8427 41.5422 28.6102V28.2402L41.281 28.4953C41.1373 28.6356 40.8784 29.025 40.7056 29.3607L40.3914 29.971L40.3544 29.6122C40.3168 29.2475 40.1583 28.9167 40.0212 28.9167C39.895 28.9167 39.5464 29.273 39.4097 29.5414C39.2491 29.8572 39.0949 30.3787 38.7107 31.9071C38.4117 33.0962 38.2441 33.5378 38.316 32.9472C38.3356 32.7863 38.3698 32.2957 38.3921 31.857C38.4254 31.2029 38.4715 30.9396 38.6485 30.3944C38.9217 29.5521 39.2919 28.7106 39.709 27.9833C40.1061 27.2908 40.2271 26.8621 40.1003 26.5968C39.9108 26.2002 39.4099 26.3778 39.0041 26.9853C38.8622 27.1976 38.7415 27.4046 38.7357 27.4452C38.7299 27.4858 38.7078 27.2558 38.6865 26.934C38.6325 26.1171 38.4449 25.8782 37.8118 25.8193C37.5524 25.7952 37.4153 25.8204 37.1942 25.9329ZM13.908 29.2013C13.908 29.2148 13.9591 29.266 14.0218 29.3151C14.1249 29.3959 14.1272 29.3936 14.0463 29.2905C13.9613 29.1822 13.908 29.1478 13.908 29.2013ZM31.5288 31.2245C31.6502 31.3497 31.764 31.452 31.7819 31.452C31.7998 31.452 31.7152 31.3497 31.5939 31.2245C31.4725 31.0994 31.3587 30.997 31.3408 30.997C31.3229 30.997 31.4075 31.0994 31.5288 31.2245ZM32.2413 31.9233C32.4008 32.0932 32.5398 32.2321 32.5502 32.2321C32.599 32.2321 32.5474 32.1738 32.2603 31.9044L31.9515 31.6146L32.2413 31.9233ZM43.1628 32.0859L43.0052 32.2646L43.184 32.1071C43.3511 31.9598 43.3926 31.9071 43.3416 31.9071C43.3299 31.9071 43.2495 31.9875 43.1628 32.0859ZM15.6658 32.0813C15.6671 32.1106 15.71 32.2078 15.7611 32.2971C15.8357 32.4276 15.8545 32.4363 15.8563 32.3413C15.8576 32.2761 15.8147 32.179 15.7611 32.1253C15.7074 32.0717 15.6646 32.0519 15.6658 32.0813ZM59.5532 32.301C59.5532 32.3746 59.5824 32.4168 59.6182 32.3947C59.654 32.3726 59.6832 32.3124 59.6832 32.2608C59.6832 32.2093 59.654 32.1671 59.6182 32.1671C59.5824 32.1671 59.5532 32.2274 59.5532 32.301ZM33.0243 32.7197C33.2547 32.9521 33.4578 33.1423 33.4757 33.1423C33.4936 33.1423 33.3197 32.9521 33.0894 32.7197C32.859 32.4873 32.6559 32.2971 32.638 32.2971C32.6201 32.2971 32.794 32.4873 33.0243 32.7197ZM42.3519 32.8985L42.0949 33.1748L42.3712 32.9178C42.6282 32.6788 42.6775 32.6222 42.6282 32.6222C42.6176 32.6222 42.4932 32.7465 42.3519 32.8985ZM33.7396 33.4226C33.7396 33.4338 33.8346 33.5289 33.9509 33.6339L34.1622 33.8248L33.9712 33.6136C33.7932 33.4167 33.7396 33.3724 33.7396 33.4226ZM41.6037 33.6461L41.3796 33.8899L41.6235 33.6658C41.8504 33.4573 41.8972 33.4023 41.8475 33.4023C41.8367 33.4023 41.727 33.512 41.6037 33.6461ZM40.9225 34.3287L40.5343 34.735L40.9407 34.3469C41.1643 34.1336 41.3471 33.9507 41.3471 33.9406C41.3471 33.8926 41.2829 33.9512 40.9225 34.3287ZM34.6471 34.3287C34.8066 34.4985 34.9456 34.6374 34.956 34.6374C35.0048 34.6374 34.9532 34.5791 34.6661 34.3097L34.3573 34.0199L34.6471 34.3287ZM35.3651 35.06C35.4864 35.1851 35.6003 35.2875 35.6182 35.2875C35.6361 35.2875 35.5515 35.1851 35.4301 35.06C35.3088 34.9349 35.195 34.8325 35.1771 34.8325C35.1592 34.8325 35.2438 34.9349 35.3651 35.06ZM40.0101 35.2388L39.8191 35.45L40.0304 35.2591C40.1467 35.1541 40.2417 35.059 40.2417 35.0478C40.2417 34.9976 40.1881 35.0419 40.0101 35.2388ZM35.6902 35.3771C35.6902 35.3906 35.7415 35.4418 35.804 35.4909C35.9071 35.5717 35.9094 35.5694 35.8286 35.4663C35.7436 35.358 35.6902 35.3236 35.6902 35.3771ZM36.4258 36.1056L36.9336 36.6311L36.7077 36.8034C36.4825 36.9752 36.4819 36.9771 36.4841 37.4983C36.4864 38.0039 36.493 38.0261 36.6871 38.178L36.8879 38.3351L36.7605 38.4853L36.633 38.6355L36.7788 38.5121C36.923 38.39 36.9257 38.3905 37.0563 38.5565C37.1778 38.7109 37.2272 38.7239 37.6862 38.7221L38.1843 38.7202L38.5529 38.3516L38.9215 37.983L38.9267 37.4873C38.9313 37.0427 38.9155 36.9762 38.7737 36.8429L38.6155 36.6944L38.7621 36.5272L38.9088 36.3602L38.733 36.5149L38.5572 36.6697L38.3919 36.4734C38.2344 36.2863 38.203 36.277 37.7225 36.276C37.2991 36.275 37.1945 36.2968 37.0702 36.4117L36.9223 36.5486L36.42 36.0643L35.9178 35.5801L36.4258 36.1056ZM13.3228 35.7681C13.3228 35.7822 13.3682 35.8111 13.4237 35.8324C13.4816 35.8546 13.5076 35.8437 13.4849 35.8069C13.4467 35.7451 13.3228 35.7155 13.3228 35.7681ZM39.2298 36.0189L39.0388 36.2301L39.2502 36.0392C39.3664 35.9342 39.4615 35.8391 39.4615 35.8279C39.4615 35.7777 39.4078 35.822 39.2298 36.0189ZM57.8301 36.0026C57.8948 36.0741 57.9624 36.1326 57.9803 36.1326C57.9982 36.1326 57.9598 36.0741 57.8951 36.0026C57.8304 35.9311 57.7628 35.8726 57.7449 35.8726C57.7271 35.8726 57.7654 35.9311 57.8301 36.0026ZM58.6754 36.8477C58.7401 36.9192 58.8077 36.9777 58.8256 36.9777C58.8435 36.9777 58.8051 36.9192 58.7404 36.8477C58.6757 36.7762 58.6081 36.7177 58.5902 36.7177C58.5723 36.7177 58.6107 36.7762 58.6754 36.8477ZM59.2931 37.4574C59.2931 37.4708 59.3443 37.5221 59.4069 37.5711C59.51 37.6519 59.5123 37.6497 59.4315 37.5466C59.3465 37.4383 59.2931 37.4039 59.2931 37.4574ZM60.4036 37.9258C60.4067 38.0015 60.4221 38.0169 60.4429 37.9651C60.4617 37.9181 60.4593 37.862 60.4377 37.8405C60.4162 37.8189 60.4008 37.8572 60.4036 37.9258ZM16.0537 38.1725C16.0537 38.1859 16.1049 38.2371 16.1675 38.2862C16.2706 38.367 16.2729 38.3648 16.192 38.2617C16.1071 38.1533 16.0537 38.119 16.0537 38.1725ZM38.6162 38.3025C38.6162 38.3159 38.6674 38.3672 38.73 38.4162C38.8331 38.497 38.8354 38.4948 38.7546 38.3917C38.6696 38.2834 38.6162 38.249 38.6162 38.3025ZM39.2664 38.9605C39.4968 39.1929 39.6999 39.383 39.7178 39.383C39.7357 39.383 39.5618 39.1929 39.3314 38.9605C39.1011 38.7281 38.8979 38.5379 38.8801 38.5379C38.8622 38.5379 39.036 38.7281 39.2664 38.9605ZM16.6714 38.798C16.7361 38.8695 16.8037 38.928 16.8216 38.928C16.8395 38.928 16.8011 38.8695 16.7364 38.798C16.6717 38.7265 16.6041 38.668 16.5862 38.668C16.5683 38.668 16.6067 38.7265 16.6714 38.798ZM58.6346 38.9117C58.5537 39.0148 58.556 39.0171 58.6591 38.9363C58.7675 38.8513 58.8019 38.798 58.7483 38.798C58.7349 38.798 58.6837 38.8492 58.6346 38.9117ZM36.1098 39.1393L35.8528 39.4156L36.1291 39.1586C36.3861 38.9196 36.4354 38.863 36.3862 38.863C36.3756 38.863 36.2512 38.9873 36.1098 39.1393ZM35.3616 39.8869L35.1375 40.1306L35.3814 39.9066C35.6083 39.6981 35.6551 39.6431 35.6054 39.6431C35.5946 39.6431 35.4849 39.7528 35.3616 39.8869ZM40.1767 39.8706C40.2981 39.9957 40.4119 40.0981 40.4298 40.0981C40.4477 40.0981 40.3631 39.9957 40.2417 39.8706C40.1204 39.7455 40.0066 39.6431 39.9887 39.6431C39.9708 39.6431 40.0554 39.7455 40.1767 39.8706ZM34.9667 40.2769C34.8858 40.38 34.8881 40.3823 34.9912 40.3015C35.0996 40.2165 35.134 40.1631 35.0805 40.1631C35.067 40.1631 35.0158 40.2144 34.9667 40.2769ZM40.8892 40.5694C41.0487 40.7392 41.1877 40.8782 41.1981 40.8782C41.2469 40.8782 41.1953 40.8199 40.9082 40.5505L40.5994 40.2607L40.8892 40.5694ZM34.4832 40.7645L34.2923 40.9757L34.5036 40.7848C34.6198 40.6798 34.7149 40.5847 34.7149 40.5735C34.7149 40.5233 34.6613 40.5676 34.4832 40.7645ZM33.8346 41.4146L33.512 41.7558L33.8534 41.4333C34.0411 41.2558 34.1947 41.1023 34.1947 41.092C34.1947 41.0434 34.1345 41.0974 33.8346 41.4146ZM41.6072 41.3008C41.7285 41.4259 41.8424 41.5283 41.8603 41.5283C41.8781 41.5283 41.7936 41.4259 41.6722 41.3008C41.5509 41.1756 41.437 41.0733 41.4192 41.0733C41.4013 41.0733 41.4859 41.1756 41.6072 41.3008ZM42.42 42.1134C42.7044 42.3994 42.9517 42.6335 42.9696 42.6335C42.9875 42.6335 42.7694 42.3994 42.485 42.1134C42.2006 41.8274 41.9532 41.5933 41.9354 41.5933C41.9175 41.5933 42.1356 41.8274 42.42 42.1134ZM32.9877 42.2597L32.7968 42.4709L33.0081 42.28C33.1243 42.175 33.2194 42.0799 33.2194 42.0687C33.2194 42.0185 33.1658 42.0628 32.9877 42.2597ZM15.7416 42.65C15.681 42.7232 15.6777 42.7645 15.7297 42.7967C15.826 42.8562 15.8752 42.7997 15.8481 42.661C15.8283 42.5593 15.8177 42.5583 15.7416 42.65ZM59.5332 42.6568C59.5116 42.7132 59.5238 42.7778 59.5603 42.8004C59.6616 42.8629 59.7027 42.7866 59.6339 42.6638C59.5791 42.5659 59.5683 42.5652 59.5332 42.6568ZM43.2327 42.926C43.3541 43.0511 43.4679 43.1535 43.4858 43.1535C43.5037 43.1535 43.4191 43.0511 43.2978 42.926C43.1764 42.8009 43.0626 42.6985 43.0447 42.6985C43.0268 42.6985 43.1114 42.8009 43.2327 42.926ZM32.2406 43.0073L32.0165 43.251L32.2603 43.027C32.4873 42.8185 32.5341 42.7635 32.4844 42.7635C32.4735 42.7635 32.3638 42.8732 32.2406 43.0073ZM43.883 43.5761C44.0043 43.7012 44.1181 43.8036 44.136 43.8036C44.1539 43.8036 44.0693 43.7012 43.948 43.5761C43.8267 43.4509 43.7128 43.3485 43.6949 43.3485C43.677 43.3485 43.7616 43.4509 43.883 43.5761ZM31.5253 43.7223L31.3013 43.9661L31.5451 43.7421C31.772 43.5336 31.8188 43.4786 31.7692 43.4786C31.7583 43.4786 31.6486 43.5883 31.5253 43.7223ZM14.5975 44.0655C14.3586 44.1378 14.038 44.4417 14.038 44.5959C14.038 44.6607 14.0111 44.7137 13.9783 44.7137C13.8957 44.7137 14.0268 45.1742 14.1484 45.311C14.202 45.3713 14.2261 45.4524 14.2021 45.4914C14.1781 45.5302 14.1825 45.5567 14.212 45.5501C14.3002 45.5305 14.4932 45.6331 14.4932 45.6996C14.4932 45.7337 14.4642 45.7436 14.4289 45.7218C14.3926 45.6994 14.3808 45.7243 14.4018 45.779C14.4291 45.8501 14.3639 45.896 14.1573 45.9513C14.0022 45.9927 13.8435 46.0528 13.8045 46.0847C13.7654 46.1167 13.7142 46.1236 13.6907 46.1C13.6671 46.0765 13.6479 46.0931 13.6479 46.1369C13.6479 46.1807 13.6186 46.1985 13.5829 46.1764C13.5471 46.1543 13.5178 46.1689 13.5178 46.2089C13.5178 46.2489 13.484 46.2607 13.4427 46.2352C13.3949 46.2056 13.3854 46.2175 13.4166 46.268C13.4436 46.3116 13.42 46.3974 13.3641 46.4592C13.1949 46.6462 13.0627 47.0333 13.0627 47.3422C13.0627 47.5749 13.1028 47.6803 13.2593 47.8584C13.3974 48.0158 13.4313 48.0932 13.3731 48.1189C13.3163 48.1439 13.3209 48.1527 13.3878 48.147C13.5161 48.136 13.7192 48.2263 13.6862 48.2797C13.6557 48.329 13.7858 48.3465 14.3747 48.3725C14.6135 48.383 14.7947 48.3686 14.7772 48.3404C14.7598 48.3123 14.7878 48.2892 14.8395 48.2892C14.8912 48.2892 15.0172 48.2455 15.1197 48.1921C15.4123 48.0395 15.544 48.0623 15.4951 48.2571C15.4328 48.5052 15.5158 48.824 15.6922 49.0142C15.7795 49.1083 15.8376 49.1986 15.8213 49.2149C15.7844 49.2518 16.567 49.2302 16.7136 49.1903C17.0452 49.1 17.3041 48.5657 17.2762 48.0291C17.2654 47.8217 17.2347 47.6654 17.2078 47.6819C17.1626 47.7096 17.1345 47.5885 17.1415 47.396C17.1431 47.3517 17.124 47.328 17.0991 47.3434C17.0742 47.3588 16.9765 47.2895 16.882 47.1894C16.7208 47.0186 16.1976 46.7293 15.8795 46.6351L15.7378 46.5931L15.912 46.2571C16.1365 45.824 16.1605 45.0599 15.9595 44.7462C15.5948 44.1769 15.0797 43.9195 14.5975 44.0655ZM60.2795 44.0612C59.7512 44.1909 59.2934 44.8078 59.2928 45.3903C59.2924 45.7321 59.4588 46.3064 59.6018 46.4573C59.6466 46.5046 59.6832 46.5518 59.6832 46.5624C59.6832 46.5729 59.5116 46.6441 59.3019 46.7205C58.8108 46.8996 58.3609 47.2943 58.2162 47.673C58.0989 47.9801 58.121 48.605 58.2548 48.7643C58.5111 49.0697 58.6465 49.1993 58.7086 49.1993C58.7482 49.1993 58.7597 49.2331 58.7342 49.2744C58.7087 49.3156 58.716 49.332 58.7504 49.3107C58.7849 49.2894 58.9795 49.2653 59.1829 49.257C59.3862 49.2488 59.5405 49.2299 59.5256 49.2151C59.5108 49.2003 59.5907 49.1058 59.7033 49.0053C59.8802 48.8472 59.9094 48.7755 59.9193 48.4746C59.9328 48.0603 60.005 48.0235 60.4037 48.2268C60.7801 48.4188 61.3192 48.4247 61.6726 48.2405C61.9717 48.0847 62.3455 47.6923 62.356 47.5231C62.3812 47.1153 62.2556 46.7234 61.9868 46.371C61.8767 46.2267 61.8516 46.1472 61.9009 46.098C61.9501 46.0487 61.9493 46.0156 61.898 45.9839C61.857 45.9585 61.8334 45.9764 61.8436 46.0253C61.8663 46.1349 61.8144 46.1311 61.3532 45.9888C61.1452 45.9246 60.9613 45.8362 60.9444 45.7922C60.9275 45.7483 61.0145 45.6054 61.1378 45.4748C61.4127 45.1833 61.4949 44.8158 61.3486 44.5328C61.2937 44.4268 61.2624 44.3219 61.2789 44.2994C61.2953 44.277 61.289 44.2735 61.2648 44.2918C61.2406 44.31 61.1602 44.2685 61.086 44.1995C60.9235 44.0484 60.5748 43.9886 60.2795 44.0612ZM56.8576 49.2217C56.7432 49.3053 56.7441 49.3107 56.8776 49.3456C57.0345 49.3866 57.0978 49.3296 57.0255 49.2124C56.9884 49.1525 56.9493 49.1546 56.8576 49.2217ZM18.362 49.2643C18.3391 49.3013 18.395 49.3293 18.492 49.3293C18.5889 49.3293 18.6449 49.3013 18.622 49.2643C18.5999 49.2285 18.5414 49.1993 18.492 49.1993C18.4426 49.1993 18.3841 49.2285 18.362 49.2643ZM58.5481 49.3248C58.5275 49.3581 58.5356 49.4007 58.566 49.4195C58.5963 49.4383 58.6212 49.411 58.6212 49.359C58.6212 49.2494 58.6007 49.2398 58.5481 49.3248ZM59.1472 50.8677C59.1921 50.8858 59.2095 50.9319 59.1859 50.9701C59.1603 51.0115 59.1737 51.0206 59.2191 50.9925C59.3086 50.9373 59.2549 50.8222 59.143 50.8296C59.0876 50.8333 59.0887 50.8441 59.1472 50.8677ZM53.8313 53.6444C53.8313 53.7152 57.8709 57.7287 57.9064 57.6932C57.924 57.6757 57.0798 56.8032 56.0304 55.7543C54.0797 53.8047 53.8313 53.5664 53.8313 53.6444ZM65.6916 53.8311L65.5677 53.9774L65.714 53.8536C65.8515 53.7372 65.8899 53.6849 65.8379 53.6849C65.8255 53.6849 65.7597 53.7507 65.6916 53.8311ZM20.5755 54.9805C20.5549 55.0138 20.5629 55.0564 20.5933 55.0752C20.6237 55.094 20.6486 55.0667 20.6486 55.0147C20.6486 54.9051 20.628 54.8955 20.5755 54.9805ZM64.1614 55.3588C64.0806 55.4619 64.0829 55.4642 64.186 55.3834C64.2943 55.2984 64.3287 55.2451 64.2752 55.2451C64.2617 55.2451 64.2105 55.2963 64.1614 55.3588ZM19.1014 56.0089C19.0206 56.112 19.0228 56.1143 19.126 56.0335C19.2343 55.9485 19.2687 55.8951 19.2152 55.8951C19.2017 55.8951 19.1505 55.9464 19.1014 56.0089ZM63.3161 56.2039C63.2353 56.307 63.2376 56.3093 63.3407 56.2285C63.449 56.1435 63.4834 56.0902 63.4299 56.0902C63.4164 56.0902 63.3652 56.1414 63.3161 56.2039ZM18.6925 56.3919C18.6583 56.4811 18.6678 56.4852 18.7506 56.4164C18.8634 56.3228 18.8752 56.2852 18.7915 56.2852C18.7596 56.2852 18.7151 56.3332 18.6925 56.3919ZM25.8254 56.744C25.7822 56.8586 25.7775 56.9496 25.8138 56.972C25.8469 56.9925 25.8539 57.0438 25.8293 57.086C25.8047 57.1283 25.8488 57.1064 25.9274 57.0376C26.017 56.9589 26.0473 56.8895 26.0086 56.8509C25.9748 56.8171 25.9615 56.7521 25.979 56.7064C25.9965 56.6607 25.9854 56.6076 25.9541 56.5883C25.9229 56.5691 25.865 56.6391 25.8254 56.744ZM49.4156 56.6644C49.3674 56.7544 49.3748 56.7836 49.4458 56.7836C49.4975 56.7836 49.5398 56.73 49.5398 56.6644C49.5398 56.5989 49.5263 56.5452 49.5096 56.5452C49.493 56.5452 49.4507 56.5989 49.4156 56.6644ZM25.8429 56.8647C25.822 56.8986 25.8326 56.9434 25.8664 56.9643C25.9003 56.9853 25.9451 56.9747 25.966 56.9408C25.987 56.9069 25.9764 56.8621 25.9425 56.8412C25.9086 56.8203 25.8638 56.8309 25.8429 56.8647ZM62.5359 56.984C62.455 57.0871 62.4573 57.0894 62.5604 57.0086C62.6688 56.9236 62.7032 56.8703 62.6496 56.8703C62.6362 56.8703 62.585 56.9215 62.5359 56.984ZM40.0384 57.6341C39.9575 57.7372 39.9598 57.7395 40.0629 57.6587C40.1713 57.5737 40.2057 57.5204 40.1521 57.5204C40.1387 57.5204 40.0874 57.5716 40.0384 57.6341ZM26.7484 57.8982C26.7655 57.9154 26.6378 57.9952 26.4644 58.0755C26.2493 58.1752 26.1211 58.2847 26.0611 58.4203C26.0127 58.5295 25.9546 58.589 25.932 58.5524C25.9093 58.5158 25.9028 58.6651 25.9174 58.8842C25.9459 59.312 26.03 59.4458 26.3854 59.6297C26.4928 59.6852 26.6992 59.7306 26.844 59.7306C27.1574 59.7306 27.1684 59.7812 26.9548 60.2419C26.6759 60.8438 26.8423 61.5603 27.3533 61.9572C27.7031 62.2288 28.3553 62.1822 28.7118 61.8601C28.7897 61.7898 28.8814 61.7497 28.9158 61.7708C28.9502 61.7921 28.9743 61.7586 28.9694 61.6964C28.9645 61.6339 28.999 61.5914 29.0466 61.6012C29.094 61.6111 29.1147 61.5899 29.0927 61.5543C29.0706 61.5187 29.1048 61.4099 29.1686 61.3125C29.2325 61.2151 29.2766 61.088 29.2668 61.0301C29.257 60.9721 29.3082 60.8711 29.3805 60.8057C29.5086 60.6897 29.5153 60.6909 29.6409 60.8505C29.7751 61.0211 30.0649 61.1788 30.3802 61.2528C30.5097 61.2832 30.5509 61.2741 30.5187 61.2222C30.4896 61.175 30.5163 61.1566 30.5927 61.1713C30.6674 61.1857 30.7957 61.102 30.9345 60.9484C31.126 60.7366 31.1572 60.6555 31.1605 60.3628C31.1634 60.0998 31.124 59.9601 30.9861 59.7438C30.8882 59.5901 30.7656 59.4481 30.7137 59.4281C30.6618 59.4083 30.6359 59.365 30.6563 59.3321C30.6766 59.2992 30.6691 59.2776 30.6396 59.284C30.6102 59.2904 30.4772 59.2472 30.3443 59.1881C30.0219 59.0447 29.5253 59.0521 29.1669 59.2057C29.0063 59.2745 28.8576 59.3135 28.8364 59.2923C28.8152 59.2712 28.7979 59.2881 28.7979 59.3297C28.7979 59.3715 28.7394 59.4056 28.6679 59.4056C28.5877 59.4056 28.5376 59.362 28.5372 59.2918C28.5363 59.1274 28.2471 58.557 28.0623 58.3551C27.8365 58.1085 27.5593 57.982 27.1093 57.9205C26.8936 57.891 26.7312 57.881 26.7484 57.8982ZM48.2899 57.9158C47.8613 57.9786 47.6212 58.089 47.401 58.3248C47.3153 58.4164 47.2205 58.4762 47.1904 58.4576C47.1602 58.439 47.1548 58.4739 47.1783 58.5353C47.2072 58.6105 47.1966 58.6317 47.1458 58.6003C47.0951 58.5689 47.0845 58.5901 47.1133 58.6653C47.1391 58.7324 47.1302 58.7608 47.0909 58.7365C47.055 58.7144 47.0226 58.7315 47.0188 58.7746C47.0151 58.8177 46.9635 58.9901 46.9042 59.1575C46.8029 59.4434 46.7869 59.4578 46.6421 59.3918C46.5573 59.3532 46.5031 59.297 46.5217 59.2668C46.5404 59.2367 46.5054 59.2313 46.444 59.2548C46.3799 59.2795 46.3488 59.2713 46.3709 59.2355C46.3919 59.2014 46.3602 59.1695 46.3003 59.1647C46.2403 59.1598 45.9665 59.1304 45.6919 59.0993C45.4173 59.0682 45.2069 59.0659 45.2243 59.0941C45.2418 59.1224 45.2149 59.1456 45.1645 59.1456C45.0091 59.1456 44.5594 59.5104 44.4032 59.763C44.2994 59.9309 44.2534 60.1086 44.2498 60.3553C44.2451 60.6786 44.2648 60.7278 44.4876 60.9505C44.7016 61.1645 44.768 61.1933 45.0476 61.1933C45.2601 61.1933 45.4069 61.1552 45.4922 61.078C45.5691 61.0084 45.6686 60.9786 45.7429 61.0028C45.8185 61.0275 45.8369 61.0217 45.7904 60.9878C45.7341 60.9467 45.7402 60.8992 45.8141 60.8029C45.8832 60.7128 45.9229 60.6981 45.9441 60.7549C45.961 60.7998 45.9984 60.822 46.0273 60.8041C46.0967 60.7612 46.1754 61.0813 46.1181 61.1738C46.0929 61.2146 46.103 61.2278 46.1413 61.2041C46.2007 61.1674 46.3123 61.3774 46.2973 61.4976C46.2877 61.5744 46.7008 61.8912 46.9715 62.0146C47.1145 62.0798 47.3705 62.1337 47.5402 62.1345C47.804 62.1357 47.8864 62.1021 48.1064 61.9033C48.2481 61.7754 48.3819 61.6141 48.4039 61.5449C48.4258 61.4756 48.4661 61.4327 48.4933 61.4495C48.5561 61.4883 48.569 61.374 48.5695 60.7762C48.5697 60.4782 48.5408 60.2762 48.4938 60.2472C48.4513 60.2209 48.4403 60.164 48.4687 60.1179C48.5014 60.0651 48.4934 60.0518 48.4464 60.0808C48.3709 60.1274 48.2571 59.8213 48.3248 59.7536C48.3446 59.7338 48.5065 59.7128 48.6845 59.7068C48.8925 59.6999 49.0545 59.6543 49.1373 59.5794C49.2082 59.5152 49.2791 59.4864 49.2948 59.5154C49.3106 59.5444 49.3143 59.5309 49.3031 59.4854C49.2919 59.4398 49.3333 59.3507 49.395 59.2873C49.4568 59.2238 49.5114 59.1294 49.5164 59.0775C49.5213 59.0255 49.546 58.9245 49.5713 58.853C49.6081 58.7485 49.6034 58.7421 49.547 58.8205C49.4895 58.9004 49.4766 58.8884 49.4758 58.7543C49.4742 58.4857 49.1939 58.1408 48.8979 58.0431C48.7527 57.9952 48.6492 57.9311 48.668 57.9007C48.6868 57.8703 48.6932 57.849 48.6821 57.8533C48.6711 57.8577 48.4946 57.8858 48.2899 57.9158ZM28.1304 58.3735C28.1745 58.418 28.227 58.4379 28.2469 58.4179C28.267 58.3979 28.2309 58.3616 28.1668 58.3371C28.0741 58.3019 28.0666 58.3093 28.1304 58.3735ZM39.1281 58.5442C39.0472 58.6473 39.0495 58.6496 39.1526 58.5688C39.261 58.4838 39.2954 58.4305 39.2418 58.4305C39.2284 58.4305 39.1771 58.4817 39.1281 58.5442ZM60.9753 58.5442C60.8945 58.6473 60.8968 58.6496 60.9999 58.5688C61.1082 58.4838 61.1426 58.4305 61.0891 58.4305C61.0757 58.4305 61.0244 58.4817 60.9753 58.5442ZM38.4496 59.2268L38.2586 59.4381L38.4699 59.2472C38.6669 59.0692 38.7111 59.0155 38.6609 59.0155C38.6497 59.0155 38.5546 59.1106 38.4496 59.2268ZM32.3741 59.4056C32.3741 59.4413 32.418 59.4706 32.4717 59.4706C32.5253 59.4706 32.5692 59.4413 32.5692 59.4056C32.5692 59.3698 32.5253 59.3406 32.4717 59.3406C32.418 59.3406 32.3741 59.3698 32.3741 59.4056ZM42.8426 59.4056C42.9687 59.487 43.0377 59.487 43.0377 59.4056C43.0377 59.3698 42.9718 59.341 42.8914 59.3416C42.7731 59.3424 42.7637 59.3546 42.8426 59.4056ZM37.3808 59.4302C37.3808 59.4436 37.432 59.4948 37.4946 59.5439C37.5977 59.6247 37.6 59.6225 37.5192 59.5194C37.4342 59.411 37.3808 59.3767 37.3808 59.4302ZM36.5789 61.0648C35.8755 61.7628 35.3001 62.347 35.3001 62.3629C35.3001 62.3789 35.3513 62.3732 35.4139 62.3504C35.5134 62.3141 35.5114 62.3285 35.3976 62.4651C35.3242 62.5534 35.3126 62.5866 35.3711 62.5417C35.4281 62.4979 35.4902 62.4776 35.5091 62.4966C35.5281 62.5156 35.5401 62.4759 35.5357 62.4085C35.5277 62.2864 36.2532 61.4208 36.3635 61.4208C36.3953 61.4208 36.3812 61.4721 36.3321 61.5346C36.251 61.638 36.2534 61.6402 36.3583 61.5578C36.4217 61.5081 36.4582 61.4519 36.4394 61.4331C36.3823 61.376 36.6131 61.1609 36.6843 61.2049C36.723 61.2289 36.7308 61.2137 36.7027 61.1684C36.6745 61.1228 36.7371 61.0068 36.8553 60.886C36.9655 60.7733 37.0557 60.6987 37.0557 60.7203C37.0557 60.742 37.1519 60.6671 37.2695 60.5539C37.387 60.4408 37.4701 60.3213 37.4539 60.2884C37.4377 60.2555 37.4747 60.2478 37.5361 60.2714C37.6085 60.2992 37.6321 60.2891 37.6034 60.2427C37.5791 60.2034 37.5849 60.1525 37.6163 60.1296C37.7043 60.0657 37.9252 59.7956 37.8895 59.7956C37.872 59.7956 37.2823 60.3667 36.5789 61.0648ZM36.7048 60.6299C36.6864 60.6597 36.7126 60.6841 36.7631 60.6841C36.8136 60.6841 36.8398 60.6597 36.8214 60.6299C36.803 60.6001 36.7767 60.5757 36.7631 60.5757C36.7494 60.5757 36.7232 60.6001 36.7048 60.6299ZM58.6692 60.852L58.5453 60.9983L58.6916 60.8744C58.8291 60.7581 58.8675 60.7058 58.8155 60.7058C58.8032 60.7058 58.7374 60.7716 58.6692 60.852ZM61.0487 60.8603C61.0487 60.8738 61.0999 60.925 61.1625 60.9741C61.2656 61.0549 61.2679 61.0526 61.187 60.9495C61.1021 60.8412 61.0487 60.8068 61.0487 60.8603ZM36.8615 61.1227C36.9037 61.1648 36.9476 61.1648 36.9898 61.1227C37.0318 61.0807 37.0098 61.0587 36.9256 61.0587C36.8414 61.0587 36.8195 61.0807 36.8615 61.1227ZM57.889 61.6321L57.7651 61.7784L57.9114 61.6545C58.0488 61.5382 58.0873 61.4859 58.0353 61.4859C58.0229 61.4859 57.9571 61.5517 57.889 61.6321ZM35.8119 61.6646C35.7311 61.7677 35.7334 61.77 35.8365 61.6892C35.9449 61.6042 35.9792 61.5509 35.9257 61.5509C35.9123 61.5509 35.861 61.6021 35.8119 61.6646ZM39.3314 61.612C39.3314 61.6457 39.3604 61.6911 39.3957 61.7129C39.4325 61.7357 39.4435 61.7096 39.4213 61.6518C39.3781 61.5392 39.3314 61.5185 39.3314 61.612ZM46.3247 61.7404C46.3038 61.7742 46.3144 61.819 46.3483 61.84C46.3821 61.8609 46.4269 61.8503 46.4479 61.8164C46.4688 61.7826 46.4582 61.7378 46.4243 61.7168C46.3905 61.6959 46.3457 61.7065 46.3247 61.7404ZM57.1087 62.4122L56.9848 62.5585L57.1311 62.4346C57.2116 62.3665 57.2774 62.3007 57.2774 62.2884C57.2774 62.2364 57.2251 62.2748 57.1087 62.4122ZM12.0824 63.2898L11.9248 63.4686L12.1036 63.311C12.2019 63.2243 12.2824 63.1439 12.2824 63.1323C12.2824 63.0812 12.2298 63.1228 12.0824 63.2898ZM55.5482 63.9724L55.4243 64.1187L55.5706 63.9948C55.7081 63.8785 55.7465 63.8262 55.6945 63.8262C55.6821 63.8262 55.6163 63.892 55.5482 63.9724ZM54.7333 64.785C54.6524 64.8881 54.6547 64.8904 54.7578 64.8096C54.8662 64.7246 54.9006 64.6713 54.847 64.6713C54.8336 64.6713 54.7823 64.7225 54.7333 64.785ZM53.9877 65.5326L53.8638 65.6789L54.0101 65.555C54.1475 65.4387 54.186 65.3863 54.134 65.3863C54.1216 65.3863 54.0558 65.4522 53.9877 65.5326ZM53.2378 66.2802C53.1569 66.3833 53.1592 66.3856 53.2623 66.3048C53.3707 66.2198 53.4051 66.1664 53.3515 66.1664C53.3381 66.1664 53.2868 66.2176 53.2378 66.2802Z" fill="#D2D2D2"/>
</svg>
