<svg width="76" height="75" viewBox="0 0 76 75" fill="none" xmlns="http://www.w3.org/2000/svg">
<path fill-rule="evenodd" clip-rule="evenodd" d="M36.6767 1.89057C35.5453 3.0274 34.6194 4.05439 34.6194 4.17301C34.6194 4.29163 35.4328 5.22444 36.4271 6.24597L38.2346 8.10352L36.4961 9.9402C35.5401 10.9503 34.639 11.8077 34.4941 11.8454C34.3491 11.8829 32.5298 10.2586 30.4511 8.23542C27.0058 4.88163 26.0789 4.14431 26.0789 4.75661C26.0789 4.87523 25.2799 5.80827 24.3032 6.83052L22.5275 8.68854L20.6801 6.85211C19.6641 5.8422 18.7165 5.01567 18.5744 5.01567C18.4326 5.01567 17.4208 5.92713 16.3262 7.04095C14.4579 8.94191 13.8807 9.76037 14.4079 9.76037C14.5319 9.76037 15.3516 10.5629 16.2296 11.5437L17.8255 13.327L16.2144 15.0429C13.6905 17.731 14.0065 17.6909 11.8555 15.5978C10.8358 14.6052 9.86696 13.7934 9.70255 13.7934C9.53815 13.7934 8.43169 14.7508 7.24361 15.9209L5.08359 18.0486L7.04078 20.0182C8.11735 21.1016 8.99797 22.0577 8.99797 22.1429C8.99797 22.228 8.09054 23.1865 6.98147 24.273C5.87239 25.3593 4.96497 26.3663 4.96497 26.5111C4.96497 26.6555 6.16348 27.8832 7.62841 29.2393C9.09333 30.5951 10.828 32.2061 11.4835 32.8189L12.6751 33.9332L11.674 34.9557C10.8603 35.7867 10.7016 36.0889 10.8256 36.5696C10.9637 37.105 10.9397 37.1295 10.5725 36.8284C10.2157 36.5357 10.0881 36.5712 9.51016 37.125C9.14885 37.4708 8.74958 37.7541 8.62266 37.7541C8.49598 37.7541 7.65047 37.0068 6.74423 36.0935C5.838 35.1801 4.93887 34.4328 4.74624 34.4328C4.34769 34.4328 -0.0259795 38.6959 0.000116304 39.0589C0.0304824 39.484 3.74677 42.6155 4.30403 42.6857C4.71326 42.7375 5.30849 42.2846 6.72763 40.8417C7.76245 39.7898 8.68932 38.9585 8.78706 38.9941C9.17708 39.136 12.5695 42.5783 12.506 42.7674C12.4685 42.8786 10.6878 44.7345 8.54864 46.8914C6.40973 49.0484 4.73058 50.8905 4.81741 50.9854C4.90424 51.0803 5.79814 51.9854 6.80354 52.9967L8.63191 54.8355L6.52147 56.9557L4.41103 59.0758L6.26122 60.8105C7.27872 61.7647 8.26965 62.6375 8.46324 62.7501C8.72467 62.9024 9.31183 62.4609 10.7502 61.0302C11.8142 59.9714 12.8082 59.1053 12.9588 59.1053C13.3016 59.1053 16.5895 62.4303 16.5895 62.7769C16.5895 62.9169 15.7888 63.8269 14.8102 64.7989C13.8316 65.7708 13.0307 66.6757 13.0303 66.8095C13.03 66.9433 13.8959 67.8763 14.9545 68.8831L16.8794 70.7134L18.8793 68.8831C19.9793 67.8763 20.9767 67.0526 21.0958 67.0526C21.2149 67.0526 22.1097 67.8265 23.0845 68.7726C24.0593 69.7187 24.9992 70.4925 25.1734 70.4925C25.3473 70.4925 27.1721 68.8295 29.2282 66.7969C31.2843 64.7645 33.0757 63.1378 33.2088 63.1821C33.3421 63.2265 34.2488 64.0587 35.2238 65.0316L36.9967 66.8004L35.0962 68.7109C34.0512 69.7614 33.1959 70.703 33.1959 70.8028C33.1959 71.0878 37.0614 75 37.343 75C37.4814 75 38.5309 74.0594 39.6751 72.91L41.7556 70.8197L41.1113 70.1224C40.7569 69.7388 39.8874 68.8167 39.1792 68.073L37.8918 66.7212L39.8407 64.811C40.9125 63.7605 41.911 62.9013 42.0595 62.9015C42.208 62.902 43.9678 64.5567 45.9701 66.5786C48.0307 68.6597 49.7993 70.2553 50.0453 70.2553C50.2894 70.2553 51.3385 69.3192 52.4381 68.1202C53.5149 66.9459 54.5172 65.9851 54.6655 65.9851C54.8137 65.9851 55.7143 66.7857 56.6666 67.7643C57.6188 68.7429 58.4394 69.5436 58.4899 69.5436C58.8088 69.5436 62.3758 65.6954 62.3758 65.3514C62.3758 65.1185 61.5707 64.118 60.5866 63.128L58.7972 61.3284L61.0867 59.05L63.3763 56.7716L65.3693 58.6849C67.3571 60.5934 67.3635 60.5972 67.869 60.1484C68.7921 59.3287 70.796 57.1685 70.8926 56.889C70.9448 56.7379 71.1049 56.5374 71.2484 56.4437C71.4095 56.3381 70.745 55.5038 69.5112 54.2623L67.5129 52.2515L69.4519 50.2652C70.5182 49.1725 71.3875 48.1792 71.3832 48.0577C71.3789 47.936 69.7776 46.1928 67.8247 44.1839C65.8717 42.175 64.2737 40.464 64.2737 40.3822C64.2737 40.3003 65.0654 39.447 66.0326 38.486L67.7917 36.7387L69.4772 38.2478C70.4041 39.0776 71.3251 39.8477 71.5236 39.959C71.7936 40.1098 72.3912 39.6638 73.8915 38.1913C74.9951 37.1081 75.8982 36.1103 75.8982 35.9741C75.8982 35.6012 72.261 32.0605 71.8781 32.0605C71.6949 32.0605 70.7747 32.8078 69.8326 33.7211C68.8908 34.6345 67.9725 35.3818 67.7919 35.3818C67.6114 35.3818 66.7305 34.643 65.8343 33.7398L64.2049 32.0979L65.3259 30.786C65.9422 30.0644 67.5376 28.4279 68.8711 27.1495C70.2046 25.871 71.3713 24.6267 71.4639 24.3847C71.5939 24.0448 71.2157 23.5162 69.8044 22.066L67.9765 20.1878L69.3871 18.7364C71.5718 16.4884 71.628 16.4222 71.628 16.1005C71.628 15.622 68.2265 12.37 67.726 12.37C67.4781 12.37 66.5045 13.1172 65.5624 14.0306C64.6206 14.944 63.7504 15.6912 63.6289 15.6912C63.3566 15.6912 59.7644 12.3223 59.7656 12.068C59.766 11.9669 60.5401 11.0754 61.4862 10.0866C62.4323 9.09777 63.2062 8.14409 63.2062 7.96711C63.2062 7.65349 59.6064 3.8295 59.3108 3.8295C59.2289 3.8295 58.313 4.68354 57.2753 5.72738C56.2376 6.77121 55.2761 7.62526 55.139 7.62526C55.0016 7.62526 54.2014 6.93134 53.3609 6.08323C52.4737 5.18814 51.6293 4.5412 51.3482 4.5412C51.0396 4.5412 49.5756 5.83627 47.3083 8.11515C45.3528 10.0809 43.57 11.7906 43.3463 11.9147C43.0168 12.0974 42.5788 11.7728 41.0332 10.2002C39.9847 9.13312 39.1268 8.19486 39.1268 8.11538C39.1268 8.03567 40.0342 7.06799 41.1433 5.96461L43.1598 3.95855L41.3212 2.09839C40.3099 1.0752 39.3142 0.144762 39.1083 0.0308889C38.821 -0.128296 38.2562 0.303709 36.6767 1.89057ZM46.7447 16.7526L42.631 20.8983L40.8463 19.125C39.8646 18.1499 38.9451 17.3519 38.8025 17.3519C38.6602 17.3519 37.6709 18.2202 36.6041 19.2813L34.6647 21.2108L30.7894 17.3834C28.6581 15.2785 26.8034 13.5561 26.6679 13.5561C26.4101 13.5561 23.1834 16.9785 23.0181 17.4273C22.9099 17.7215 34.1183 28.7392 34.5259 28.7392C34.6718 28.7392 35.6625 27.8317 36.7272 26.7227C37.7919 25.6136 38.7797 24.7062 38.9221 24.7062C39.0647 24.7062 40.0288 25.5308 41.0646 26.5388L42.948 28.3717L48.3322 22.9506C51.2939 19.9691 53.9649 17.2231 54.2681 16.8482L54.8194 16.1669L53.0739 14.3872C52.1138 13.4081 51.2225 12.6072 51.0932 12.6072C50.9639 12.6072 49.0072 14.4728 46.7447 16.7526ZM53.1436 26.3751C46.2375 33.1366 46.6759 32.1708 49.3025 34.8349C50.0994 35.6432 50.7513 36.4325 50.7513 36.5893C50.7513 36.7459 49.9507 37.6746 48.9721 38.6532C47.9935 39.6318 47.1947 40.5506 47.1971 40.6946C47.1997 40.8389 49.843 43.5932 53.0713 46.8155L58.9407 52.674L60.8955 50.8141C61.9707 49.7912 62.8487 48.8095 62.8465 48.6325C62.8446 48.4558 61.1365 46.5679 59.0508 44.4372C56.9652 42.3064 55.2588 40.479 55.2588 40.376C55.2588 40.2731 56.0578 39.4541 57.0343 38.5562C58.0107 37.6585 58.8114 36.7496 58.8135 36.5366C58.8157 36.3238 57.9645 35.2909 56.9221 34.2416L55.027 32.3335L59.1058 28.3098L63.1846 24.286L61.5348 22.5758C60.6274 21.6349 59.7231 20.7785 59.5255 20.6722C59.2557 20.527 57.6665 21.9471 53.1436 26.3751ZM16.0035 24.2545L14.1685 26.1754L14.9602 27.042C17.1989 29.4929 18.7142 30.987 19.7058 31.7212C20.3108 32.1691 20.9812 32.8037 21.1959 33.1311C21.584 33.7237 21.5759 33.7375 19.6216 35.7592C18.541 36.877 17.6288 37.8675 17.5947 37.9603C17.5603 38.0533 18.3892 38.9683 19.437 39.9938C20.4846 41.0194 21.2756 41.9226 21.1947 42.0006C20.07 43.0876 13.1292 50.4111 13.073 50.5702C12.9906 50.803 16.4694 54.3606 16.7795 54.3606C17.0417 54.3606 29.1627 42.1527 29.1644 41.8867C29.1653 41.7667 28.2864 40.8336 27.2112 39.8131L25.2564 37.9576L26.3522 36.9662C26.955 36.4211 27.9573 35.4121 28.5798 34.7246L29.7114 33.4741L24.0401 27.9074C20.9209 24.8457 18.2494 22.339 18.1038 22.3374C17.9579 22.3355 17.0127 23.1981 16.0035 24.2545ZM36.3832 34.9946L34.2642 36.9795L36.2632 39.0276C37.3625 40.1537 38.3596 41.0754 38.4787 41.0754C38.5978 41.0754 39.6094 40.1696 40.7263 39.0627L42.7572 37.05L41.5945 35.8062C40.3588 34.4845 38.7833 33.0094 38.6077 33.0094C38.5496 33.0094 37.5485 33.9026 36.3832 34.9946ZM39.8319 47.597C38.7264 48.7046 37.715 49.6121 37.5843 49.6135C37.4536 49.6147 36.55 48.8119 35.5764 47.829C34.6027 46.8461 33.669 46.0723 33.5013 46.109C33.1779 46.18 21.097 58.1286 21.097 58.3774C21.097 58.4576 21.9512 59.3726 22.9955 60.4108L24.8941 62.2982L27.4437 59.7864C31.5201 55.77 33.2953 54.1342 33.5831 54.1285C33.7309 54.1257 34.7679 55.054 35.8878 56.1918L37.9238 58.2602L40.154 56.0731C41.3805 54.8701 42.4794 53.8861 42.5957 53.8861C42.7121 53.8861 43.1627 54.2865 43.5973 54.7757C45.3177 56.713 50.1699 61.4759 50.3943 61.4475C50.5255 61.4311 51.4196 60.5835 52.3814 59.5643L54.13 57.711L53.6103 57.0439C52.462 55.57 42.3833 45.5829 42.0443 45.5829C41.9328 45.5829 40.9372 46.4891 39.8319 47.597Z" fill="#D2D2D2"/>
</svg>
