<svg width="79" height="75" viewBox="0 0 79 75" fill="none" xmlns="http://www.w3.org/2000/svg">
<path d="M37.8738 23.4316C37.2987 24.2945 36.2254 25.0009 35.488 25.0009C33.7444 25.0009 33.7969 26.2381 35.6632 29.1082C38.0993 32.8548 41.3778 32.2155 43.2365 27.631C43.9007 25.9917 43.8131 25.5853 42.7094 25.1888C41.9804 24.9274 40.8301 24.0716 40.1514 23.288C38.925 21.8694 38.9136 21.8701 37.8738 23.4316Z" fill="#D2D2D2"/>
<path d="M36.4334 35.0013C34.5572 36.7607 34.5419 37.2743 36.3046 39.3158C37.3817 40.563 38.161 40.823 39.7211 40.4558C42.3742 39.8308 43.2411 36.925 41.3573 34.9728C39.6418 33.1955 38.3507 33.2034 36.4334 35.0013Z" fill="#D2D2D2"/>
<path d="M35.7272 44.741C33.9242 46.8904 33.6454 49.2876 35.1978 49.2876C35.7752 49.2876 36.8036 50.0112 37.483 50.8948L38.7186 52.502L39.9541 50.8948C40.6336 50.0112 41.6993 49.2876 42.3216 49.2876C43.7294 49.2876 43.0209 45.996 41.2072 44.1088C39.5024 42.3345 37.5569 42.5588 35.7272 44.741Z" fill="#D2D2D2"/>
<path d="M25.8161 33.8127C25.4353 34.752 24.5836 35.7149 23.9232 35.9528C22.2603 36.5514 22.4203 37.6729 24.2454 38.2157C25.113 38.4743 25.7689 39.2965 25.7689 40.1272C25.7689 41.3601 26.0919 41.5094 27.8637 41.0944C30.7363 40.4222 32.6246 38.6758 32.6246 36.6907C32.6246 35.4721 31.8118 34.6413 29.567 33.5677L26.5086 32.1048L25.8161 33.8127Z" fill="#D2D2D2"/>
<path d="M48.1414 33.887C46.8304 34.4227 45.5126 35.2321 45.2132 35.6856C44.1468 37.3043 45.5438 39.7237 48.2427 40.9301C51.6012 42.4316 51.6683 42.4309 51.6683 40.888C51.6683 40.1965 52.3538 39.2293 53.1918 38.7386C54.0297 38.2479 54.7153 37.5493 54.7153 37.1864C54.7153 36.8235 54.0297 36.3221 53.1918 36.0728C52.3538 35.8235 51.6683 34.9985 51.6683 34.2392C51.6683 32.6227 51.324 32.5884 48.1414 33.887Z" fill="#D2D2D2"/>
<path d="M71.7677 48.1711C71.5369 48.7354 70.862 49.0226 70.2678 48.809C69.6744 48.5954 68.6278 48.6226 67.9422 48.869C66.7965 49.2812 66.8003 49.4254 67.9917 50.6605C68.8411 51.5405 69.0079 52.1648 68.4762 52.4734C66.8316 53.4263 67.7335 54.2392 69.9707 53.8199C72.8821 53.2735 75.2824 55.1307 75.2824 57.9293C75.2824 60.0694 72.9301 62.1452 70.5047 62.1452C68.5752 62.1452 64.6438 60.1959 62.1369 57.9965C60.6035 56.6507 59.8106 56.3671 59.1951 56.9443C58.5796 57.5215 59.0938 58.6451 61.104 61.1137C62.6176 62.9731 63.8562 64.7689 63.8562 65.1053C63.8562 65.9525 66.7348 68.574 67.6649 68.574C68.0839 68.574 68.4267 69.5284 68.4267 70.6948C68.4267 72.267 68.7161 72.7106 69.5472 72.412C70.1627 72.1906 71.5803 72.6828 72.6963 73.5056C75.2359 75.3793 78.3294 75.5079 78.3294 73.7399C78.3294 73.0456 77.493 71.3227 76.4699 69.9119C75.031 67.9254 74.8162 67.1525 75.5178 66.489C76.2216 65.8246 76.1386 65.7339 75.1514 66.0868C73.6652 66.6168 70.4765 65.2225 71.0806 64.3067C71.3068 63.9631 70.8879 63.5346 70.1497 63.3538C69.4116 63.1731 69.8755 62.9881 71.1804 62.9424C72.4853 62.8967 74.4567 62.1931 75.5604 61.3788C78.3195 59.3444 78.2098 56.4514 75.2534 53.2949C73.4603 51.3798 73.0505 50.4091 73.4321 48.984C73.9585 47.0161 72.5264 46.3168 71.7677 48.1711Z" fill="#D2D2D2"/>
<path d="M49.7433 65.7482C49.4729 66.1582 49.6329 66.924 50.0983 67.4504C50.7374 68.1726 50.6605 68.5097 49.7837 68.8255C47.7887 69.5434 48.3928 71.2741 50.5051 70.8955C51.7856 70.6655 53.1262 71.1391 54.6909 72.3735C55.9569 73.3728 57.6967 74.3993 58.5575 74.6557C60.5723 75.2557 63.6932 73.3549 64.6766 70.9284C65.8314 68.0819 65.0247 67.2111 63.6063 69.7734C62.0486 72.5878 59.806 73.3442 57.4019 71.867C55.1517 70.4841 54.2894 68.1297 55.5227 66.7368C56.8032 65.2903 55.8122 64.5675 54.2293 65.7932C53.2314 66.5661 52.8726 66.589 52.6235 65.8954C52.2342 64.8117 50.422 64.7189 49.7433 65.7482Z" fill="#D2D2D2"/>
<path d="M75.2824 0.515734C74.6539 0.737171 73.2828 1.46934 72.2354 2.14294C71.188 2.81654 69.9273 3.23369 69.4337 3.07012C68.9271 2.90225 68.4297 3.57871 68.2911 4.62303C68.1563 5.64093 67.7426 6.3831 67.3717 6.27238C67.0007 6.16166 66.4035 6.81526 66.0447 7.72458C65.6859 8.6339 65.0834 9.19892 64.7055 8.97963C64.3277 8.76105 63.8059 9.37678 63.5454 10.3497C63.2857 11.3219 62.0128 13.2491 60.7178 14.632C59.2735 16.1742 58.5415 17.5842 58.8249 18.2764C59.2126 19.2243 59.7458 19.0686 62.143 17.3064C67.6832 13.2348 71.6519 12.4233 74.0217 14.8784C77.173 18.1435 73.6919 23.3209 69.5381 21.5458C68.0359 20.9044 67.6649 20.9429 67.6649 21.7423C67.6649 22.2901 68.0938 22.908 68.6171 23.1144C69.3042 23.3852 69.2067 23.7052 68.2682 24.2638C66.3959 25.3788 67.412 27.3582 69.5929 26.8453C70.7226 26.5789 71.4653 26.8067 71.7509 27.506C72.5652 29.4961 73.9044 28.6768 73.3948 26.501C73.0048 24.8359 73.3666 23.9416 75.239 21.9423C76.5195 20.5744 77.5676 18.6693 77.5676 17.7092C77.5676 15.2277 74.5862 12.8626 71.4249 12.8348C69.097 12.8148 68.9538 12.7083 70.1284 11.8712C70.8551 11.354 71.2291 10.7233 70.9595 10.4704C70.6891 10.2175 71.5651 9.80466 72.905 9.55322C74.2456 9.30178 75.2085 8.73747 75.0447 8.29817C74.881 7.85958 75.5536 6.59168 76.5385 5.48092C79.5268 2.11222 78.8085 -0.72717 75.2824 0.515734Z" fill="#D2D2D2"/>
<path d="M55.1197 2.93368C53.06 4.62946 51.9753 5.04805 50.5226 4.70589C49.1202 4.37588 48.6213 4.54375 48.6213 5.34378C48.6213 5.94023 49.1385 6.42881 49.77 6.42881C50.7237 6.42881 50.7595 6.66882 49.9802 7.83958C49.2482 8.93748 49.2429 9.44036 49.9551 10.1082C50.6681 10.7768 51.212 10.6768 52.4117 9.65822C53.2801 8.92177 53.9535 8.71105 53.9535 9.17535C53.9535 9.62894 54.4799 10.0004 55.1228 10.0004C56.0795 10.0004 56.1344 9.72394 55.426 8.48246C53.6633 5.39306 58.2955 1.48363 61.4986 3.35798C62.1667 3.74871 63.0906 4.76661 63.5523 5.61878C64.9226 8.15031 65.6326 8.36532 65.0499 6.07166C64.3315 3.24727 61.737 0.714313 59.56 0.714313C58.6002 0.714313 56.6021 1.71292 55.1197 2.93368Z" fill="#D2D2D2"/>
<path d="M0.203954 1.96436C0.478183 3.0444 1.38847 4.81947 2.22563 5.90808C3.06279 6.99741 3.55487 8.18102 3.3195 8.53818C3.08335 8.89605 3.76435 9.29107 4.83156 9.41607C5.89953 9.54108 6.73897 9.91323 6.6986 10.244C6.65747 10.5747 7.2463 11.2876 8.00728 11.8283C9.2733 12.7283 9.17656 12.8141 6.88142 12.8348C3.99973 12.8612 0.631294 15.537 0.631294 17.8007C0.631294 18.5907 1.6985 20.3772 3.00337 21.7701C4.72339 23.6073 5.2749 24.7974 5.00981 26.0981C4.59923 28.1154 5.72585 29.2697 6.42894 27.551C6.73516 26.8039 7.45425 26.5739 8.62582 26.8496C10.6239 27.3196 11.8076 26.0831 10.6315 24.7538C10.1943 24.2595 10.0396 23.068 10.2887 22.1066C10.6604 20.6694 10.5599 20.5172 9.72349 21.2508C8.19238 22.5937 6.41751 22.3316 4.57257 20.4908C2.51281 18.4343 2.47396 16.8442 4.44002 15.0006C6.67803 12.9019 10.4631 13.1619 14.1523 15.6677C15.8495 16.8206 17.4735 18.1214 17.7622 18.56C18.1476 19.1443 18.5597 19.1436 19.3154 18.5557C20.1541 17.9028 19.86 17.1621 17.7233 14.537C16.2829 12.7676 14.8836 10.4954 14.6139 9.48822C13.3936 4.92947 17.6441 1.44506 21.5207 3.82657C23.6177 5.11519 24.1251 7.68458 22.5696 9.1432C21.8589 9.80966 21.9335 10.0004 22.9055 10.0004C23.5934 10.0004 24.3802 9.65965 24.6545 9.24321C24.9721 8.76176 25.5 8.93105 26.1071 9.70965C27.3914 11.3561 29.0635 10.3097 28.5021 8.21102C28.2134 7.13241 28.451 6.43882 29.2021 6.16881C31.1811 5.45664 30.4338 4.30516 28.2446 4.69232C26.6548 4.97447 25.5076 4.54017 23.4837 2.89082C22.0173 1.69578 20.0307 0.717171 19.0694 0.715742C16.3362 0.713599 13.5954 3.768 13.4926 6.93241C13.4439 8.42318 13.2473 9.08034 13.0561 8.39317C12.8642 7.70601 12.2098 7.14313 11.602 7.14313C10.9834 7.14313 10.2956 6.20309 10.0411 5.01162C9.79129 3.83943 9.3091 3.04154 8.97013 3.23798C8.63115 3.43442 7.08252 2.78653 5.52856 1.79793C3.97536 0.808602 2.0291 0 1.20413 0C-0.0451371 0 -0.211959 0.32787 0.203954 1.96436Z" fill="#D2D2D2"/>
<path d="M4.88488 48.9147C5.23529 50.224 4.74396 51.4684 2.99499 53.6985C1.69469 55.3557 0.631294 57.2479 0.631294 57.9029C0.631294 59.893 4.40422 62.8538 7.01929 62.916C8.32417 62.9467 8.96327 63.1345 8.43919 63.3324C7.91587 63.531 7.48701 64.1224 7.48701 64.6482C7.48701 65.1732 6.4556 65.8154 5.19491 66.0754C3.93422 66.3347 3.09326 66.8354 3.32559 67.1883C3.55792 67.5404 3.07574 68.7198 2.25381 69.8091C1.43189 70.8977 0.536075 72.512 0.26337 73.3956C-0.150258 74.7343 0.0615074 75.0021 1.53244 75C2.5029 74.9986 4.43241 74.3485 5.81878 73.5557C7.20592 72.7628 8.66238 72.3013 9.0562 72.5292C9.45003 72.7578 9.77224 72.2392 9.77224 71.377C9.77224 70.5148 10.6292 69.0648 11.6766 68.154L13.581 66.499L13.6053 68.7869C13.632 71.3456 14.6809 72.9392 17.149 74.1721C19.5432 75.3679 20.0893 75.245 22.9862 72.8599C24.688 71.4591 26.4118 70.717 27.9643 70.717C30.3927 70.717 31.175 69.7419 29.2912 69.064C28.6247 68.824 28.3794 68.0147 28.6178 66.8447C29.0238 64.8553 27.5796 64.3046 25.9533 65.8296C25.286 66.4554 24.7718 66.4225 23.8356 65.6939C22.7242 64.8296 22.645 64.981 23.0571 67.1883C23.5743 69.9584 23.1279 70.8284 20.5319 72.1113C18.9878 72.8749 18.4302 72.8013 16.7232 71.612C13.5551 69.4034 13.6419 65.9732 16.9692 61.8852C19.387 58.9144 20.4253 56.4307 19.2484 56.4307C19.0137 56.4307 17.2389 57.5636 15.3048 58.9487C10.9773 62.0474 8.56412 62.6795 6.09149 61.3623C3.03079 59.7316 2.34903 58.1536 3.72627 55.8885C4.71425 54.2642 5.40592 53.9456 7.78866 54.0171C10.2407 54.0913 10.6056 53.9085 10.2879 52.7677C10.083 52.0334 10.2262 51.2519 10.6056 51.0319C10.9849 50.8119 11.2957 50.1312 11.2957 49.519C11.2957 48.709 10.7625 48.5026 9.33119 48.759C8.08345 48.9826 7.2204 48.7526 6.96445 48.1275C6.74354 47.5868 6.07854 47.1446 5.48666 47.1446C4.72187 47.1446 4.54819 47.6568 4.88488 48.9147Z" fill="#D2D2D2"/>
</svg>
