<svg width="71" height="75" viewBox="0 0 71 75" fill="none" xmlns="http://www.w3.org/2000/svg">
<path fill-rule="evenodd" clip-rule="evenodd" d="M1.00879 3.67022V7.35294H37.4257H70.0286V3.5V0H37.4257H0.988281L1.00879 3.67022ZM33.8161 11.2434C32.7684 12.6176 31.911 14.0713 31.911 14.475C31.911 14.8831 30.0382 15.1838 27.683 15.1544C22.3455 15.0868 19.0941 16.4279 17.2117 19.475C15.4455 22.3324 15.2889 26.9779 16.8823 29.2522C19.3654 32.7971 24.3227 34.0081 28.1816 32.0125C33.0058 29.5176 31.6919 22.7941 26.3794 22.7941C23.1654 22.7941 21.947 26.0596 24.7419 27.1831C26.3029 27.8103 26.311 27.8507 24.8889 27.8949C22.9375 27.9551 21.6169 26.6 21.6169 24.5375C21.6169 20.389 27.2102 19.2029 31.1485 22.5162C33.3897 24.4022 33.4353 24.5684 33.2272 30.0529L33.0139 35.6618L30.4404 36.0294C28.2536 36.3419 27.8301 36.7169 27.6242 38.5228C27.3588 40.8449 28.3941 41.8831 30.9919 41.9007C32.5323 41.911 32.6463 42.2331 32.6463 46.5632C32.6463 50.5228 32.3838 51.461 30.8801 52.8735C28.4522 55.1544 23.5227 55.7684 21.6007 54.0294C19.9529 52.5382 19.7272 50.7132 21.0286 49.4118C22.3566 48.0838 23.8228 48.3507 23.8228 49.9213C23.8228 51.7029 25.536 52.3566 27.8735 51.4684C30.5926 50.4346 30.3801 47.0221 27.4426 44.5507C24.9683 42.4691 23.5228 42.2397 20.3779 43.4316C16.5058 44.8985 14.9992 46.9735 14.9992 50.8382C14.9992 53.7 15.411 54.8294 17.1948 56.861C19.975 60.0272 24.8683 61.5779 28.3036 60.3801C30.5191 59.6081 30.7867 59.714 32.9603 62.2294L35.2669 64.8971L37.636 62.1993C39.9529 59.5603 40.0669 59.5198 42.8698 60.3596C47.35 61.7022 52.2919 60.6485 55.2125 57.7279C57.2478 55.6926 57.6463 54.7515 57.6463 51.9772C57.6463 49.1757 57.2948 48.364 55.3838 46.7566C52.7853 44.5699 49.2625 44.2596 46.7808 45.9978C45.0029 47.2426 44.625 49.9199 46.0287 51.3235C47.1044 52.3993 50.0338 52.4846 50.6684 51.4588C51.3926 50.2868 52.4853 51.3735 51.997 52.7809C50.7588 56.3493 45.8036 56.9588 42.2617 53.9787C40.1103 52.1684 39.9992 51.8081 39.9992 46.6257V41.1765H42.5728C44.9206 41.1765 45.1463 40.9904 45.1463 39.0493C45.1463 36.789 44.0948 36.0294 40.9639 36.0294C39.1103 36.0294 39.1088 36.0221 39.3786 30.0794C39.6345 24.4412 39.7742 24.0169 42.0411 21.9912C44.7191 19.5985 49.4309 19.0301 50.9919 20.9118C52.1823 22.3456 51.6838 25.775 50.1448 26.7382C48.572 27.7228 47.5926 26.85 48.7309 25.4787C49.6867 24.3265 49.1132 22.1051 47.825 21.9721C42.4404 21.4132 40.3161 26.9007 44.3544 30.939C45.5367 32.1213 47.036 33.0882 47.6867 33.0882C49.9397 33.0882 53.7301 31.0515 55.3889 28.9493C56.7845 27.1824 57.0022 26.1868 56.7272 22.8368C56.4478 19.4257 56.0485 18.5434 54.0213 16.8507C50.9375 14.2765 48.0331 13.7434 44.2287 15.0537C42.5404 15.6353 41.0382 15.9897 40.8897 15.8412C40.7411 15.6926 39.8595 14.1493 38.9294 12.4118C38 10.6735 36.8978 9.1375 36.4808 8.99853C36.0632 8.85956 34.8639 9.86985 33.8161 11.2434ZM1.02863 15.3721C1.02863 18.4897 1.03516 18 1.04132 18C3.53516 18 4.0739 18.786 5.01266 19.5C5.5739 20.286 6.6634 21.5412 6.01266 23C6.01266 23 5.51266 24.5 4.51266 24.5C3.51266 24.5 2.51266 22 2.01266 22C1.51266 22 1.00996 22 1.00996 22C1.00629 22.5 1.01266 22.5 1.01017 26L1.01058 30H4.01266C8.01266 30 9.77421 30.3103 11.3426 27.7375C13.411 24.3463 13.2257 20.1912 10.8698 17.1022C8.59334 14.1176 4.51934 12 1.01953 12C1.02844 14 1.02863 12.1206 1.02863 15.3721ZM64.2632 13.4191C61.0919 15.5838 59.1169 19.4169 59.1169 23.4074C59.1169 30.0544 65.5286 30 70.0286 30C70.0286 27.5 70.0286 23.5 70.0286 22C69.0286 22 69.2441 21.786 67.9162 23.4015C66.2845 25.3875 64.9992 24.9463 64.9992 22.4C64.9992 19.8949 66.5286 18 70.0286 18V15.5V12C67.5367 12 65.9558 12.264 64.2632 13.4191ZM1.02863 37.8676C1.02863 40.4346 1.02832 40.5 1.02852 41C1.43294 40.75 2.49922 39.6397 2.49922 37.8676C2.49922 36.0956 1.43363 35.25 1.02922 35C1.02442 35.5 1.02863 35.3007 1.02863 37.8676ZM68.5286 38C68.5286 39.5 69.2566 41 70.0286 41C70.0286 41 70.0286 39.5 70.0286 37.5C70.0286 35 70.0286 34.5 70.0286 35C69.0286 35.5 68.5286 36.5 68.5286 38ZM1.0328 45C1.03329 46 1.02164 46.9394 1.02978 49.5C1.03614 51.5 1.03599 52.5 1.02143 53C2.53614 53 3.50489 52.9882 3.50489 51.5C3.50489 49.9772 4.00489 49.5 5.00489 49.5C7.00489 49.5 6.47363 54 5.50489 55C4.53614 56 2.52442 56 1.02442 56C1.02442 59.5228 1.00489 60.5 1.0129 61C8.00489 63 12.0049 55.1603 12.0049 51C12.0049 45.3838 5.79456 42.536 1.0328 45ZM62.6875 45.2323C60.3051 46.5272 58.9412 50.1522 59.5713 53.5125C60.522 58.5787 64.9779 62.2676 70.0286 61C70.0286 60 70.0286 60.0618 70.0286 58C70.0286 55.6051 70.0286 56 70.0286 56C66.2808 56 64.8492 54.1022 65.1411 51.5897C65.2786 50.4022 65.8904 49.5456 66.711 49.3897C67.6728 49.2073 67.9911 49.5191 67.8323 50.4868C67.5051 52.4713 68.022 53 70.0286 53C70.0286 52 70.0286 47.8022 70.0286 45C69.0286 44.5 67.25 42.7537 62.6875 45.2323ZM1 71.3242L0.996094 75H37.4257H70.0286V71V67.6471H37.4257H1V71.3242Z" fill="#D2D2D2"/>
</svg>
