<svg width="91" height="75" viewBox="0 0 91 75" fill="none" xmlns="http://www.w3.org/2000/svg">
<path fill-rule="evenodd" clip-rule="evenodd" d="M32.3291 0.537808C30.4594 1.33853 31.0904 2.27011 36.5572 6.77681C41.4138 10.7804 41.7523 11.2826 40.4902 12.6214C39.229 13.9612 38.9712 13.9538 37.4955 12.5357C36.6076 11.6825 35.6684 10.9849 35.408 10.9849C35.1476 10.9849 33.4376 9.53001 31.6087 7.75166C28.601 4.82706 28.1557 4.65566 26.9431 5.95487C25.7322 7.25132 26.0143 7.78759 29.857 11.4917C32.198 13.7465 34.5044 15.5921 34.9826 15.5921C35.4618 15.5921 35.138 16.4315 34.263 17.457C32.6737 19.322 32.6711 19.3211 30.0054 16.6812C24.6567 11.383 19.025 9.07023 19.1266 12.2132C19.1457 12.8048 21.4893 15.1323 24.3347 17.3852C29.8648 21.7647 30.2962 22.4456 28.1079 23.3367C26.7799 23.8775 21.7289 21.1888 19.2411 18.6153C17.1188 16.4204 15.1441 15.6842 13.8369 16.6029C12.836 17.3059 13.6112 18.4688 17.657 22.3406C22.1221 26.6114 22.5682 27.3412 21.366 28.4008C20.1968 29.4301 19.1917 28.9233 14.4384 24.9086C9.44642 20.6912 8.75981 20.3642 7.71385 21.7011C6.70174 22.9957 7.00121 23.5956 10.0002 26.288C11.8968 27.9917 13.7006 29.3923 14.0079 29.3996C14.9028 29.4218 15.6076 32.0607 15.0963 33.4751C14.7439 34.45 13.2206 33.7497 8.96814 30.6592C3.62115 26.7727 0.891232 25.9434 0.321812 28.0313C0.183798 28.5381 2.39724 30.7965 5.24086 33.0494C8.08536 35.3032 10.3891 37.3765 10.3622 37.6566C10.2823 38.4785 1.8504 45.0777 0.879953 45.0777C-0.565297 45.0777 -0.124356 47.596 1.432 48.2299C2.77656 48.7782 5.22438 47.2919 11.3222 42.225C13.5747 40.3536 16.8558 40.642 16.2473 42.6571C16.0755 43.2284 13.7457 45.5587 11.0713 47.8356C7.43783 50.9297 6.43786 52.2685 7.11491 53.1338C8.53239 54.9471 9.9108 54.5269 13.1346 51.2973C19.4416 44.9782 19.821 44.7303 21.2454 45.9844C23.267 47.7655 22.9285 48.4114 17.8289 52.4989C13.7396 55.7755 13.2284 56.5209 14.0773 57.9638C14.9826 59.5026 15.5008 59.2806 20.6473 55.1443C25.2027 51.4835 26.5368 50.8265 27.8718 51.5839C30.1156 52.8592 29.9403 53.5014 26.6809 55.9257C20.1404 60.7908 18.5762 62.5544 19.9598 63.5044C21.9129 64.8469 22.1151 64.7575 27.3198 60.2573C31.4828 56.6582 32.3907 56.2279 33.9566 57.118C34.954 57.6847 35.4357 58.4725 35.026 58.8687C34.6172 59.2658 32.2666 61.4625 29.8032 63.7504C26.5221 66.7985 25.582 68.1843 26.2877 68.9335C27.5741 70.299 29.2633 70.2272 30.1157 68.7722C30.4976 68.1208 32.6659 65.9969 34.934 64.0527C38.3479 61.1271 39.2828 60.7152 40.3591 61.6643C41.0753 62.2945 41.6603 63.1497 41.6603 63.5652C41.6603 63.9808 39.2958 66.2512 36.4053 68.6128C31.6503 72.4966 31.2953 73.0172 32.672 74.087C33.9896 75.1097 34.9392 74.6702 39.7368 70.815L45.2782 66.3608L50.9073 71.0573C56.0599 75.3558 56.6536 75.6285 57.9209 74.2832C59.0623 73.0706 59.1092 72.562 58.1891 71.3844C57.5745 70.5994 56.6319 69.9498 56.0937 69.9424C55.5547 69.935 53.5521 68.5133 51.6425 66.7829C48.2876 63.7431 48.2277 63.591 49.8744 62.2881C51.4351 61.0534 51.9637 61.2598 56.1675 64.7446C58.6917 66.8381 60.7567 68.8662 60.7567 69.2532C60.7567 70.3792 63.0639 70.0641 64.0491 68.8035C65.0456 67.5292 62.6108 64.5889 57.3844 60.753C54.6319 58.7333 54.546 58.5176 56.0312 57.3659C58.1822 55.6953 58.3835 55.7497 61.4042 58.8144C66.0646 63.5413 68.2234 64.6884 70.271 63.5256C72.1963 62.4319 71.9229 60.742 69.8197 60.742C69.1313 60.742 68.5602 60.4314 68.5498 60.0509C68.5393 59.6703 66.7825 58.1159 64.6454 56.5955C60.3045 53.5069 60.0406 52.9209 62.3929 51.5839C63.7288 50.8256 65.0794 51.4982 69.7389 55.242C74.9106 59.3985 75.526 59.6731 76.2873 58.1629C77.3645 56.027 76.7569 55.1065 72.3309 52.1635C70.3422 50.8412 68.4534 49.3098 68.1331 48.7607C67.5576 47.7729 69.0992 45.0777 70.2389 45.0777C70.5636 45.0777 72.9576 47.1445 75.5581 49.671C80.6039 54.5712 81.6655 55.0319 83.2496 53.0066C84.0482 51.9857 83.7054 51.2762 81.5796 49.5513C80.1083 48.358 77.677 46.2977 76.177 44.9727C73.5261 42.6332 73.4992 42.5355 75.2361 41.5496C76.7612 40.6825 77.7533 41.1359 82.0144 44.6493C87.5854 49.2407 87.5863 49.2407 89.7632 47.5517C91.1859 46.447 90.8153 45.9761 85.5933 42.2535C82.4407 40.0062 79.86 37.933 79.8574 37.6473C79.8548 37.3617 82.3825 35.0987 85.4744 32.62C90.7736 28.3704 91.4359 26.7082 87.8475 26.663C86.6462 26.6483 82.5839 29.5038 79.0372 32.8578C77.0598 34.7264 76.7317 34.7845 75.533 33.4742C74.3421 32.1732 74.6858 31.5816 78.9825 27.5273C83.3095 23.4436 83.6281 22.8898 82.3981 21.5841C81.1673 20.2784 80.761 20.4323 78.0389 23.239C76.3871 24.9418 73.948 27.0915 72.6182 28.0166C70.4334 29.536 70.0714 29.56 68.8544 28.2681C67.6366 26.9763 67.9291 26.4962 71.8829 23.2888C76.618 19.4464 77.7872 17.6376 76.4504 16.2186C75.888 15.6216 74.9106 15.8409 73.6008 16.859C67.1904 21.8412 64.017 23.6536 62.4632 23.2224C61.5249 22.9617 60.7567 22.4595 60.7567 22.1056C60.7567 21.7527 63.2956 19.4271 66.3988 16.9392C69.502 14.4504 72.0409 12.3155 72.0409 12.1929C72.0409 12.0713 71.3048 11.5526 70.4047 11.0412C69.0697 10.2828 67.7251 10.9499 63.1064 14.6614C58.2151 18.5922 57.2976 19.0225 56.3654 17.8302C55.4609 16.6738 56.046 15.7266 59.9633 12.0022C64.0838 8.0843 64.4996 7.37389 63.4554 6.03782C62.3712 4.65108 62.0735 4.73031 59.9937 6.95371C58.7429 8.29162 56.2057 10.4054 54.3559 11.6511C51.37 13.6626 50.8483 13.7621 49.6938 12.5366C48.5393 11.3111 48.9881 10.6671 53.7075 6.77681C56.6293 4.36728 59.0207 2.09226 59.0207 1.72184C59.0207 0.135148 56.0025 0.0135184 54.0096 1.51913C52.8204 2.41752 51.12 3.60432 50.232 4.15625C49.3431 4.70818 47.9196 5.82865 47.0672 6.6478C45.6245 8.03362 45.1376 7.85395 39.9625 4.03188C36.9079 1.77438 34.184 -0.0389842 33.9106 0.000637131C33.6381 0.0402585 32.9263 0.282573 32.3291 0.537808ZM29.9195 26.6308C31.8413 24.7815 36.0833 21.1188 39.3462 18.4918L45.2791 13.7142L51.0644 18.501C54.2466 21.1336 58.0224 24.3982 59.4547 25.7563C60.8869 27.1136 63.8165 29.5139 65.9648 31.0895C68.1131 32.6652 70.7702 34.7126 71.8691 35.6395L73.8664 37.3258L70.133 40.196C68.0793 41.7744 63.6646 45.59 60.3227 48.6759C56.9808 51.7608 53.8959 54.2874 53.4679 54.2892C53.04 54.2901 51.001 55.7607 48.9378 57.5548L45.1862 60.8185L39.6179 56.1726C36.5555 53.6184 33.8056 51.5277 33.507 51.5277C33.2084 51.5277 31.8335 50.387 30.4507 48.9938C29.068 47.6006 25.5716 44.594 22.6811 42.3134C19.7906 40.0329 17.4096 37.7459 17.3905 37.2309C17.3714 36.7158 19.3965 34.8766 21.8903 33.1434C24.385 31.4102 27.9977 28.4792 29.9195 26.6308ZM37.558 30.5791C33.6311 33.7387 30.4082 36.783 30.3969 37.3433C30.3856 37.9035 33.8915 41.1091 38.1882 44.4668C42.4849 47.8245 46.0004 50.2147 46.0004 49.7779C46.0004 49.3412 48.6374 47.0625 51.8595 44.7147L51.8838 44.697C58.981 39.5252 60.7839 38.2115 60.6085 37.3531C60.5488 37.0609 60.2597 36.8214 59.8722 36.5003L59.8687 36.4974C53.8594 31.5208 45.345 24.8091 45.0551 24.8202C44.859 24.8275 41.4849 27.4195 37.558 30.5791ZM44.1229 30.5505C43.4849 31.1918 41.2871 32.9241 39.2403 34.4002C37.1935 35.8763 35.8264 37.3479 36.2022 37.6713C36.5781 37.9947 38.7307 39.8118 40.9858 41.7099L45.0855 45.1597L49.252 41.6638C51.5444 39.7408 53.4358 37.7524 53.4567 37.2456C53.4775 36.7388 51.6468 34.7624 49.3891 32.8541C46.0429 30.0262 45.069 29.6005 44.1229 30.5505ZM39.1144 38.6277C37.5146 38.6277 38.0919 37.4677 41.0093 34.8158C44.5621 31.588 45.7209 31.6055 49.3961 34.9411L52.3586 37.6298L50.2641 39.48C49.1131 40.4982 47.6826 41.3441 47.0854 41.3616C46.4891 41.3782 46.0004 41.8555 46.0004 42.4231C46.0004 42.9898 44.6593 42.3678 43.0205 41.0409C41.3808 39.7132 39.623 38.6277 39.1144 38.6277ZM43.642 38.4619C42.537 37.4889 42.5708 37.1876 43.898 36.1583C45.4041 34.9881 47.7364 35.9381 47.7364 37.7201C47.7364 39.0663 44.9093 39.5787 43.642 38.4619Z" fill="#D2D2D2"/>
</svg>
