<svg width="79" height="75" viewBox="0 0 79 75" fill="none" xmlns="http://www.w3.org/2000/svg">
<path fill-rule="evenodd" clip-rule="evenodd" d="M48.5719 0.615942C47.371 1.85638 47.0015 3.32246 47.5763 4.56522C47.7549 4.95145 49.5818 6.87348 53.0491 10.323C57.0026 14.2565 58.3459 15.6826 58.6371 16.2561C59.1259 17.218 59.2585 18.4688 58.9376 19.088L58.7061 19.5342L59.3921 19.3228C60.2415 19.0607 61.4914 19.1328 62.2294 19.4861C62.5569 19.6429 64.8595 21.7971 67.8739 24.7668C70.6741 27.5255 73.23 29.9416 73.5534 30.1359C74.7634 30.8623 76.7084 30.4723 78.0953 29.2251L78.6765 28.7025L78.1941 28.8616C77.0279 29.2467 75.6381 28.6603 74.7574 27.4115L74.3174 26.7877L74.2352 23.3575C74.148 19.727 74.0908 19.3896 73.2957 17.8191C72.8051 16.8503 71.1157 15.3222 70.0811 14.9113C69.3227 14.6101 68.9911 14.5735 66.9797 14.5696C64.832 14.5654 64.6681 14.5859 63.4466 15.012L62.1654 15.4587L62.2639 15.0845C62.6321 13.6854 62.4742 10.4413 61.9632 8.91043C61.2016 6.62826 59.3953 5.10985 56.7868 4.55928C56.1995 4.43536 54.7381 4.23841 53.5393 4.12174C52.3406 4.00507 51.0967 3.81275 50.7751 3.69449C49.7981 3.33493 48.9881 1.76406 49.1518 0.546232C49.1922 0.245797 49.2124 0 49.1967 0C49.181 0 48.8999 0.277101 48.5719 0.615942ZM29.3956 0.76087C29.4052 2.17159 28.6261 3.49536 27.6317 3.75797C27.3363 3.83609 26.087 4.00406 24.8557 4.1313C22.1442 4.41145 20.9807 4.66638 19.8184 5.23522C17.7506 6.24696 16.7145 7.7187 16.2597 10.2899C16.084 11.2833 16.0831 14.232 16.2582 14.9743C16.3736 15.4632 16.3607 15.5158 16.1476 15.4217C14.7421 14.8013 13.7821 14.5887 12.1119 14.528C9.23755 14.4236 7.60669 14.9659 6.25844 16.4748C4.59895 18.3319 4.11975 20.0696 4.26737 23.6957C4.31605 24.8913 4.29614 26.1184 4.2232 26.4226C3.81389 28.1288 1.89257 29.3703 0.441881 28.8658C0.196467 28.7806 -0.00230463 28.7562 2.01874e-05 28.8119C0.00684935 28.973 1.61766 30.0759 2.16225 30.2923C2.87931 30.5772 4.32055 30.5403 4.93605 30.2214C5.21575 30.0765 7.43886 27.9878 9.87629 25.5799C15.5398 19.9851 15.7556 19.7825 16.3916 19.4668C17.017 19.1565 18.9068 19.1135 19.4299 19.3978C19.819 19.6093 19.8197 19.6058 19.5281 18.9097C19.2119 18.1549 19.3716 17.1687 19.9705 16.1767C20.28 15.6639 22.2441 13.5964 25.5247 10.3297C31.1023 4.7758 31.3215 4.4987 31.2061 3.14333C31.1709 2.72971 31.0281 2.15362 30.8889 1.86304C30.6182 1.29812 29.688 0.144928 29.503 0.144928C29.4417 0.144928 29.3933 0.422029 29.3956 0.76087ZM48.1662 1.88406C47.6801 2.82522 47.6372 3.59841 48.0256 4.42029C48.2043 4.79826 50.0736 6.76536 53.3968 10.0725C59.1124 15.7603 59.4149 16.1428 59.5362 17.8345L59.6071 18.8225L60.2905 18.7417C61.2826 18.6245 62.4607 19.0096 63.3046 19.7268C63.6876 20.0523 66.1587 22.4549 68.796 25.0658C72.9808 29.209 73.6678 29.8317 74.1949 29.9601C74.9623 30.1471 75.7642 30.0771 76.4682 29.7617L77.0206 29.5143L76.3333 29.2542C75.5907 28.973 74.7068 28.2013 74.1993 27.3913C73.9022 26.917 73.8764 26.658 73.8028 23.4058L73.7242 19.9275L73.2396 18.7928C72.626 17.3559 71.5022 16.1035 70.2596 15.4716C69.4655 15.0678 69.2131 15.0162 67.7377 14.9568C65.8827 14.882 64.7588 15.0823 62.8693 15.8245C62.2469 16.069 61.6981 16.2297 61.65 16.1816C61.6019 16.1336 61.6447 15.5872 61.7452 14.9674C61.9874 13.4729 61.9918 10.8475 61.7535 9.85507C60.9471 6.49594 58.5634 4.86029 54.0479 4.56739C52.3576 4.45783 50.7321 4.2187 50.3427 4.02232C49.7374 3.71725 49.0652 2.72565 48.754 1.67884L48.5779 1.08696L48.1662 1.88406ZM29.602 2.13797C29.2906 3.16232 28.7014 3.82478 27.8434 4.11536C27.4848 4.23681 26.3195 4.40652 25.254 4.49232C22.1923 4.73913 20.9175 5.04768 19.5394 5.87536C17.9848 6.80899 17.1916 8.01478 16.7567 10.1048C16.4977 11.3499 16.5449 13.9378 16.8519 15.3262C17.0684 16.3052 17.0203 16.4233 16.5121 16.1601C16.2858 16.0429 15.5012 15.7377 14.7684 15.4817C13.5117 15.0428 13.3167 15.0159 11.3293 15.0081C9.2701 15.0001 9.20283 15.0099 8.35572 15.4348C7.34776 15.9404 6.09323 17.129 5.64744 18.0007C4.79903 19.6593 4.73989 20.0022 4.71388 23.4058C4.68715 26.9252 4.63455 27.1877 3.75548 28.1877C3.47752 28.5039 2.88875 28.9162 2.39604 29.1394L1.52699 29.5333L2.03278 29.7439C2.95501 30.128 3.59957 30.1777 4.36487 29.9242C4.98386 29.7191 5.51609 29.2575 8.25938 26.5462C15.4608 19.4288 15.7045 19.2048 16.49 18.9775C16.8882 18.8623 17.6136 18.7693 18.1021 18.7706L18.99 18.773L19.0021 17.9317C19.0261 16.2433 19.2138 16.0013 24.9506 10.2643C27.8008 7.41406 30.2824 4.83536 30.4655 4.53377C30.8943 3.82725 30.8947 2.89623 30.4668 2.03638C30.2903 1.68174 30.0804 1.37217 30.0005 1.34826C29.9206 1.32435 29.7413 1.67971 29.602 2.13797ZM37.5851 4.31884C36.7248 5.17971 36.0721 5.93507 36.1347 5.99754C36.1972 6.06 36.1752 6.08942 36.0859 6.06275C35.9416 6.02 33.2134 8.72087 25.7699 16.2759C24.5288 17.5357 23.4238 18.7801 23.3142 19.0414C22.829 20.1997 22.9878 22.2842 23.666 23.6594C23.9676 24.271 23.8014 24.3839 23.1885 23.9833C22.5958 23.5961 21.1928 23.3043 20.2589 23.3743C19.2241 23.4519 18.0687 23.9709 17.1913 24.7522C16.8593 25.048 16.4345 25.4249 16.247 25.5901C15.8238 25.9632 11.8092 30.1757 7.9865 34.2584C7.5474 34.7272 7.12284 35.1849 7.04292 35.2754C6.963 35.3658 6.38252 35.9736 5.75293 36.6262L4.60811 37.8128L5.02643 38.2616C5.25644 38.5084 5.83692 39.1178 6.31641 39.6157C12.0359 45.5545 13.5986 47.1625 15.4406 49.0035C16.6229 50.1851 17.7999 51.2499 18.056 51.3694C18.9206 51.7732 19.7906 52.029 20.2989 52.029C21.0745 52.029 22.5287 51.6149 23.132 51.2222C23.8983 50.7233 23.9946 50.7786 23.6629 51.5264C23.5026 51.8877 23.271 52.7148 23.1483 53.3643C22.863 54.8729 23.0595 56.0091 23.7409 56.7922C23.9871 57.0749 26.7134 59.8526 29.7993 62.9648C32.8852 66.077 36.2621 69.4949 37.3037 70.5606C38.3452 71.6261 39.2726 72.4728 39.3648 72.4422C39.7324 72.32 55.2537 56.7048 55.5496 56.1594C55.9923 55.3436 55.9788 53.1864 55.5237 52.029C55.0744 50.8861 55.1052 50.8023 55.8278 51.2007C56.7438 51.7058 58.0992 52.04 58.92 51.9632C59.3103 51.9268 60.0153 51.753 60.4865 51.5772C61.2622 51.288 61.6402 50.9609 64.4884 48.1141C69.3424 43.2625 74.3944 38.0172 74.3862 37.8378C74.384 37.7916 73.8905 37.2319 73.2897 36.5942C72.6887 35.9565 71.824 35.0168 71.3682 34.5061C70.1006 33.0852 67.0531 29.9291 64.0737 26.9512C61.9994 24.8778 61.1951 24.1709 60.5516 23.8548C59.1172 23.1503 57.4241 23.1835 55.8864 23.9459C55.5789 24.0984 55.2978 24.1936 55.2616 24.1574C55.2254 24.1213 55.3428 23.6765 55.5225 23.1691C55.9372 21.9981 55.9863 19.7459 55.6121 19.058C55.2349 18.3645 49.7207 12.8619 49.5242 12.9829C49.4154 13.05 49.3921 13.0257 49.4603 12.9157C49.57 12.7387 39.5887 2.76087 39.2973 2.75609C39.2161 2.75478 38.4456 3.45797 37.5851 4.31884ZM39.0069 9.71536C38.6675 10.4661 37.6358 11.419 36.5206 12.0119C34.8219 12.9149 33.8763 14.2228 33.8591 15.693C33.848 16.6484 34.1698 17.3319 35.0513 18.2246C35.4646 18.643 35.7722 18.9848 35.735 18.9838C35.6978 18.9829 35.3076 18.8843 34.8681 18.7649C34.4286 18.6455 33.4805 18.5078 32.7612 18.4593C31.6722 18.3855 31.3502 18.4157 30.836 18.6399C30.1525 18.9377 30.0769 19.0661 30.505 19.2016C30.9325 19.337 31.7467 20.3549 31.9387 20.9939C32.2097 21.8959 32.1395 22.5454 31.5988 24.1403C31.2286 25.2326 31.0909 25.8884 31.0925 26.5522C31.0954 27.8135 31.4471 29.181 31.9598 29.9241L32.3912 30.5496L31.3576 30.0212C30.335 29.4984 30.3052 29.4928 28.55 29.4928C27.5048 29.4928 26.692 29.557 26.572 29.649C26.0579 30.0426 24.8685 30.3568 23.8979 30.3554C22.6541 30.3533 21.8811 29.9954 21.2381 29.1233L20.7973 28.5254L20.5626 28.8826C20.4336 29.079 20.2682 29.4475 20.1952 29.7013C20.0278 30.2839 20.2546 32.4559 20.5716 33.3059C20.6998 33.6496 20.7646 33.9706 20.7158 34.0194C20.6668 34.0681 20.3981 33.8417 20.1187 33.5161C19.4617 32.7504 18.3089 32.1735 17.4398 32.1754C16.0403 32.1783 14.6242 33.2168 13.542 35.0336C12.8317 36.2262 12.0333 37.1128 11.3656 37.45C10.7622 37.7549 10.7711 37.8996 11.412 38.2029C12.1399 38.5474 12.9644 39.4042 13.586 40.4619C14.5206 42.0525 15.6658 42.9467 17.0029 43.1294C18.0636 43.2745 18.8514 42.9745 19.7425 42.0865C20.5414 41.2906 20.8855 41.1014 20.7044 41.558C20.5603 41.9212 20.1901 43.5872 20.0926 44.3116C20.0002 44.9978 20.265 46.1361 20.5774 46.3946C20.7396 46.5288 20.89 46.4455 21.3221 45.9823C22.1355 45.1104 22.707 44.8625 23.8979 44.8645C24.6468 44.8658 25.1999 44.9716 25.9954 45.2658C27.4113 45.7894 28.9374 45.9067 30.2679 45.5939C30.8145 45.4655 31.4012 45.263 31.5717 45.1439C32.0917 44.7807 32.1519 44.8986 31.7757 45.5435C30.9739 46.9181 30.8771 48.8672 31.5181 50.7296C32.426 53.3674 32.1986 54.6601 30.6093 55.897L30.2018 56.2142L30.5948 56.4712C31.1419 56.8287 32.5298 56.8849 33.9237 56.6061C36.0958 56.1716 35.9993 56.1809 35.6673 56.4375C35.5074 56.5612 35.1587 56.8752 34.8922 57.1355C32.9478 59.0351 33.792 61.8359 36.7605 63.3341C37.6393 63.7777 38.4634 64.5477 38.9891 65.4164L39.3277 65.9759L39.6343 65.4813C40.0748 64.7701 40.9838 64.0009 42.359 63.1754C44.212 62.063 45.1746 60.7864 45.1813 59.432C45.1861 58.4807 44.3028 57.0019 43.4421 56.5199C42.9729 56.2572 43.45 56.2391 44.4727 56.481C45.9534 56.8312 47.8987 56.8259 48.4423 56.4704L48.8531 56.2017L48.1809 55.5593C46.9521 54.3849 46.7939 53.3481 47.5119 51.1749C48.3082 48.7648 48.2305 46.899 47.2745 45.4822C47.0064 45.0849 46.8353 44.7842 46.894 44.8138C49.0346 45.8935 50.9117 46.0362 53.0308 45.2806C54.2908 44.8313 55.2875 44.7151 56.0857 44.9243C56.8939 45.1362 57.7602 45.7143 58.0809 46.2557C58.2147 46.4817 58.3593 46.6664 58.402 46.6661C58.4447 46.6658 58.6024 46.368 58.7523 46.0041C58.9682 45.4804 59.0079 45.1258 58.9427 44.3017C58.8466 43.0877 58.7379 42.4103 58.5454 41.8262C58.3158 41.1297 58.3847 40.9039 58.6797 41.3862C58.9787 41.8754 59.821 42.5829 60.5429 42.9512C61.7672 43.5758 63.7254 42.9271 64.7604 41.5539C65.0742 41.1377 65.543 40.4581 65.8023 40.0439C66.3534 39.1632 67.2675 38.2972 67.8658 38.0893C68.4138 37.8987 68.3986 37.7315 67.8111 37.4865C67.1977 37.2309 66.1653 36.0817 65.4103 34.8143C63.8575 32.2071 61.7573 31.5009 59.6956 32.8923C59.4054 33.0883 59.0458 33.4304 58.8965 33.6528C58.7471 33.8752 58.5351 34.0574 58.4255 34.0575C58.2817 34.0578 58.2683 34.0071 58.3779 33.8755C58.6359 33.5655 59.021 31.143 58.9611 30.2065C58.9286 29.6967 58.7976 29.1557 58.6536 28.9364L58.4027 28.5545L57.8699 29.1429C56.6489 30.4909 55.2931 30.6868 52.8855 29.8635C51.6144 29.4288 51.3959 29.3967 50.1248 29.457C48.4858 29.5349 47.6606 29.8565 46.6275 30.8204C45.7057 31.6806 45.2805 32.6729 45.2714 33.9855C45.2653 34.8868 45.3166 35.0809 45.7311 35.7246C45.9877 36.1232 46.5682 36.7816 47.021 37.1878L47.8441 37.9262L47.0592 38.4478C46.587 38.7617 46.0737 39.2758 45.7709 39.7384C45.3164 40.4326 45.2679 40.6058 45.2711 41.5217C45.275 42.6099 45.5382 43.3039 46.2802 44.1835C46.4909 44.4333 46.5976 44.6377 46.5172 44.6377C46.4369 44.6377 46.3494 44.5861 46.3226 44.523C46.2028 44.239 45.1951 43.6481 44.5753 43.4983C42.8132 43.0722 41.5761 43.4677 40.1796 44.9035L39.3158 45.7916L38.5948 44.9846C38.1981 44.5409 37.6062 44.0041 37.2791 43.7917C36.7534 43.4506 36.5411 43.4058 35.4493 43.4058C34.4823 43.4058 34.1127 43.4671 33.7465 43.688C33.222 44.0045 32.9615 43.9041 33.2986 43.5154C33.5581 43.2161 33.8487 42.4387 33.9488 41.7758C34.1131 40.688 33.298 39.3329 31.8235 38.2428L31.3215 37.8716L32.2793 36.978C33.289 36.0358 33.9963 34.8371 33.9963 34.0678C33.9963 33.5071 33.3506 31.6336 33.0389 31.2901C32.703 30.9197 32.8138 30.942 33.6511 31.413C34.251 31.7506 34.5281 31.8116 35.4601 31.8116C36.4301 31.8116 36.6437 31.76 37.262 31.3768C38.0592 30.8828 39.058 29.7752 39.1538 29.2793C39.1891 29.0961 39.2632 28.9062 39.3184 28.8572C39.3736 28.8083 39.3781 28.8812 39.3284 29.0194C39.1808 29.4301 40.6802 30.9249 41.7831 31.4665C42.6109 31.873 42.8152 31.9157 43.6253 31.8509C44.7094 31.7641 45.7253 31.2894 46.5897 30.4659C48.101 29.0259 48.5096 26.5371 47.5937 24.3478C46.767 22.3713 46.972 20.6758 48.1712 19.5733C48.5264 19.2468 48.817 18.9554 48.817 18.9258C48.817 18.8962 48.5542 18.7671 48.2329 18.639C47.4636 18.3319 46.1287 18.3487 44.6033 18.6848C43.924 18.8345 43.353 18.9426 43.3342 18.9252C43.3156 18.9078 43.6439 18.5393 44.0638 18.1062C45.2355 16.898 45.479 15.7064 44.8186 14.4125C44.2393 13.2774 43.5863 12.6732 41.934 11.7432C41.016 11.2264 39.5178 9.83449 39.5178 9.49812C39.5178 9.05493 39.2549 9.16667 39.0069 9.71536ZM37.9946 24.9412L36.7001 26.421L37.4187 27.0429C37.814 27.3849 38.1388 27.75 38.1406 27.8541C38.1425 27.9583 38.2464 28.0267 38.3715 28.0062C38.4967 27.9858 38.7179 28.0999 38.863 28.2599C39.0082 28.4199 39.1892 28.5507 39.2655 28.5507C39.4885 28.5507 41.8381 26.6109 41.8404 26.4248C41.8424 26.271 41.2159 25.5293 39.8034 24.0132L39.289 23.4612L37.9946 24.9412ZM27.6031 35.9362C26.9607 36.4994 26.6134 36.6842 26.8177 36.3543C26.8825 36.2499 26.8575 36.2265 26.7513 36.292C26.6577 36.3497 26.6143 36.4503 26.6547 36.5155C26.6952 36.5807 26.4415 36.8686 26.091 37.1549C25.6361 37.5268 25.46 37.7748 25.4751 38.0223C25.4867 38.2129 25.5642 38.3428 25.6474 38.311C25.818 38.2458 27.821 39.9233 27.821 40.1315C27.821 40.2054 27.8806 40.32 27.9532 40.3865C28.0305 40.457 28.0406 40.4294 27.9775 40.3203C27.8983 40.1833 27.9601 40.1529 28.2084 40.2062C28.4885 40.2665 28.7116 40.0896 29.492 39.1872C30.0114 38.5867 30.4572 38.0041 30.4826 37.8925C30.5079 37.7809 30.3644 37.5129 30.1634 37.2967C29.9625 37.0806 29.8321 36.8488 29.8738 36.7816C29.9154 36.7145 29.8891 36.6774 29.8153 36.6993C29.7413 36.7212 29.4017 36.4294 29.0606 36.0507C28.7194 35.672 28.399 35.3625 28.3486 35.3628C28.2982 35.3629 27.9627 35.621 27.6031 35.9362ZM50.3199 35.7609C50.1574 35.98 49.6881 36.5265 49.2769 36.9752L48.5295 37.7909L48.8525 38.2071C49.0301 38.4359 49.3209 38.7828 49.4989 38.9777C49.7616 39.2657 49.7894 39.3745 49.6467 39.5574C49.4939 39.753 49.5029 39.7577 49.7143 39.5928C49.9248 39.4284 50.0023 39.4628 50.2865 39.8464C50.6837 40.3822 50.7664 40.3888 51.3645 39.9338C51.6219 39.738 51.8569 39.5913 51.8868 39.6077C51.9166 39.6242 51.9281 39.6139 51.9124 39.5849C51.8967 39.5559 52.3053 39.1733 52.8205 38.7346C53.3358 38.2959 53.7573 37.8868 53.7573 37.8254C53.7573 37.7641 53.5543 37.5597 53.3061 37.3714C53.058 37.183 52.4205 36.6551 51.8894 36.1981C51.3584 35.7412 50.8545 35.3662 50.7696 35.3648C50.6847 35.3635 50.4823 35.5417 50.3199 35.7609ZM48.5078 38.5145C48.3272 38.7443 48.3323 38.7494 48.5628 38.5693C48.7025 38.4599 48.817 38.3457 48.817 38.3157C48.817 38.1964 48.6977 38.273 48.5078 38.5145ZM1.66619 44.9223C0.83739 45.3235 -0.464508 46.4326 0.213759 46.1597C1.22418 45.7532 2.20584 45.9868 3.15509 46.8594C4.26331 47.8784 4.28757 47.9716 4.24195 51.0177C4.21347 52.9172 4.26374 54.0249 4.41355 54.8064C4.99112 57.8168 7.26378 60.0784 10.0409 60.4062C11.5567 60.5851 13.722 60.3842 14.9727 59.9485C15.5782 59.7377 16.1231 59.5652 16.1838 59.5652C16.2447 59.5652 16.2434 60.0707 16.1811 60.6884C16.1187 61.3061 16.082 62.2681 16.0994 62.8261C16.2588 67.9313 18.4906 70.1768 23.9512 70.7261C26.609 70.9933 27.6041 71.1526 28.0475 71.3812C28.8862 71.8138 29.5964 73.4635 29.3984 74.519L29.3082 75L29.9157 74.4203C30.2499 74.1014 30.6913 73.4978 30.8967 73.079C31.3988 72.0557 31.3382 70.8796 30.7389 70.0171C30.515 69.6949 28.1145 67.2277 25.4044 64.5345C22.6942 61.8412 20.2786 59.3212 20.0363 58.9343C19.4121 57.938 19.2105 56.8354 19.512 56.0694L19.7446 55.4788L19.3873 55.5683C18.5081 55.7884 17.715 55.8161 16.9321 55.6539C16.1112 55.4841 16.0214 55.4154 13.8298 53.2829C12.5885 52.0752 10.2131 49.7364 8.55114 48.0858C6.88919 46.4351 5.26777 44.9514 4.94796 44.7887C4.05756 44.3355 2.77033 44.388 1.66619 44.9223ZM73.5465 44.8188C73.2172 44.9983 70.6308 47.4401 67.7988 50.2454C62.8014 55.1955 62.6252 55.3529 61.8124 55.5886C61.0067 55.8222 60.0875 55.8116 59.1532 55.558C58.8411 55.4733 58.8212 55.4965 58.9352 55.8122C59.0043 56.0032 59.0585 56.5507 59.0557 57.029C59.0464 58.6123 58.8825 58.8201 53.1658 64.4928C49.6795 67.9522 47.871 69.8513 47.6456 70.2899C46.9275 71.6868 47.4137 73.3849 48.8978 74.6636C49.1733 74.9009 49.1804 74.8848 49.1868 74.0114C49.1974 72.5668 49.9191 71.4801 51.0692 71.1772C51.3889 71.093 52.435 70.9554 53.394 70.8715C58.9626 70.3836 61.2027 69.008 62.1089 65.5196C62.4287 64.2885 62.5622 61.4484 62.3472 60.4499C62.2545 60.0197 62.2086 59.638 62.2452 59.6016C62.2818 59.5651 62.9207 59.7365 63.6649 59.9826C64.5792 60.2848 65.3952 60.4483 66.1805 60.4864C70.2484 60.6836 72.5853 59.2487 73.9187 55.7349C74.0868 55.2917 74.1643 54.2736 74.23 51.6445L74.3174 48.1441L74.766 47.5267C75.4942 46.5242 76.3152 46.0145 77.2014 46.0145C77.613 46.0145 78.1134 46.0664 78.3132 46.1299C78.9297 46.3257 77.6543 45.2703 76.77 44.853C75.7418 44.368 74.4005 44.3536 73.5465 44.8188ZM2.11212 45.1913L1.54036 45.4474L2.19538 45.697C3.01197 46.008 4.12629 47.0268 4.46309 47.7704C4.6825 48.2546 4.71243 48.7119 4.67741 51.0391C4.619 54.9188 4.97223 56.2951 6.48177 58.0693C7.22411 58.9419 7.77654 59.3116 8.95348 59.7232C10.7591 60.3546 14.0174 59.9896 16.3107 58.8988C16.6058 58.7585 16.8835 58.6799 16.9278 58.7242C16.9721 58.7684 16.8986 59.4474 16.7643 60.2329C16.4506 62.0691 16.5487 64.4164 17 65.8696C17.8047 68.461 19.9303 69.8509 23.7526 70.2846C28.2409 70.7939 28.3124 70.8126 29.0177 71.6661C29.4208 72.1538 29.8796 73.3406 29.7978 73.6839C29.7183 74.0183 30.2924 73.3445 30.529 72.8261C30.8527 72.1161 30.8713 71.321 30.5803 70.6262C30.3799 70.148 27.2954 66.9548 21.5584 61.2864C19.5481 59.3 19.156 58.6642 19.0375 57.1997L18.9576 56.2109L17.8634 56.1852C17.0104 56.1651 16.6173 56.0796 16.0809 55.7971C15.6283 55.5588 13.649 53.7229 10.2997 50.4348C7.49859 47.6848 4.99868 45.3233 4.7444 45.1872C4.13457 44.8606 2.84575 44.8626 2.11212 45.1913ZM73.8375 45.1468C73.5735 45.2612 72.0969 46.6119 70.5561 48.1484C63.7983 54.8875 62.881 55.7357 62.0546 56.0096C61.5415 56.1794 61.0032 56.2443 60.442 56.2039L59.5996 56.143L59.5416 57.0209C59.4213 58.8394 59.2264 59.0904 53.4953 64.8126C50.6425 67.6609 48.1886 70.2196 48.0421 70.4987C47.6907 71.1684 47.7048 72.1262 48.078 72.9436C48.4683 73.7983 48.6244 73.8804 48.7503 73.2984C48.919 72.5187 49.3538 71.7997 49.9796 71.2654C50.6025 70.7335 51.1164 70.6243 54.2658 70.3548C57.5408 70.0743 59.6825 69.1081 60.8159 67.3999C61.9738 65.6548 62.3062 62.2541 61.6137 59.2391C61.4642 58.5883 61.612 58.5462 62.4858 58.9909C63.6107 59.5633 65.7016 60.0001 67.3085 59.9984C68.927 59.9967 69.9203 59.7728 70.7564 59.2209C71.5866 58.6729 72.5456 57.6168 72.9658 56.788C73.6753 55.3886 73.8087 54.5449 73.8097 51.4551C73.8102 49.8975 73.877 48.3845 73.9582 48.0928C74.1617 47.3623 75.3189 46.1799 76.2505 45.7503L77.0212 45.3949L76.3336 45.1612C75.4917 44.8751 74.4781 44.8693 73.8375 45.1468ZM38.1304 47.5393C37.495 48.0917 36.926 48.5454 36.866 48.5472C36.6068 48.5555 36.7954 48.9658 37.2689 49.4235C37.5505 49.6958 37.7474 50.0054 37.7066 50.1117C37.6656 50.218 37.6913 50.2684 37.7637 50.2239C37.836 50.1793 38.2087 50.5088 38.5919 50.9562L39.2886 51.7696L39.7174 51.2833C39.9532 51.0159 40.5279 50.3765 40.9944 49.8625C41.8974 48.8675 41.9447 48.771 41.6609 48.5042C41.437 48.2935 39.8188 46.9403 39.5108 46.7059C39.3247 46.5643 39.0869 46.708 38.1304 47.5393Z" fill="#D2D2D2"/>
</svg>
