<svg width="107" height="75" viewBox="0 0 107 75" fill="none" xmlns="http://www.w3.org/2000/svg">
<path fill-rule="evenodd" clip-rule="evenodd" d="M44.0875 9.89037C46.4967 8.97617 49.2318 6.40213 50.1668 4.1699C52.4621 -1.31369 58.296 -1.41227 59.5466 4.0125C60.1515 6.63584 62.0756 8.50081 65.4185 9.70119C68.1535 10.6838 70.3904 12.1607 70.3904 12.9843C70.3904 13.8063 71.9595 14.0511 73.8778 13.5281C76.477 12.819 77.9672 13.509 79.7219 16.2357C82.8982 21.1723 82.7127 22.7511 78.35 27.8738C74.0035 32.9774 74.1744 37.2622 78.7547 37.9745C81.1786 38.3513 82.2071 37.4673 82.9157 34.4004C83.4315 32.1602 83.506 29.3381 83.0808 28.1314C81.4898 23.6192 85.2022 22.4173 90.9192 25.5907C97.5669 29.2809 106.917 44.5647 106.913 51.7335C106.907 64.7135 96.2199 74.7634 82.3708 74.8111C73.5871 74.8397 68.3405 72.3515 60.096 64.2461L54.3585 58.6052L47.0958 65.2223C35.7407 75.5679 22.8632 77.7905 10.874 71.4754C3.08526 67.3719 0.106216 62.7405 0.00248278 54.5731C-0.0997891 46.5234 2.94646 40.3149 11.2013 31.7548C22.2349 20.3106 23.8859 20.0451 24.5784 29.6005C25.0898 36.666 26.0204 38.2686 29.6131 38.2686C34.2606 38.2686 34.642 33.7612 30.4021 28.9454C28.288 26.5446 26.5596 23.12 26.5596 21.3361C26.5596 16.4313 31.565 12.2562 35.9978 13.4677C38.0388 14.0241 39.7088 13.8222 39.7088 13.0161C39.7088 12.2101 41.6797 10.803 44.0875 9.89037ZM52.9442 11.0669C52.0472 12.8905 49.6876 14.8254 47.7021 15.3692C45.55 15.9558 44.0919 17.4997 44.0919 19.1913C44.0919 23.0898 40.6555 24.1868 37.0497 21.4379C32.2488 17.7779 31.5051 21.9705 36.0416 27.1234C42.6761 34.6579 38.7226 44.6283 29.1017 44.6283C24.9963 44.6283 19.2749 38.593 19.2077 34.1921C19.1624 31.1522 19.1346 31.1522 17.0161 34.2001C10.1712 44.0495 20.5942 54.9547 33.8297 51.7908C38.3881 50.7017 47.0636 42.6472 51.8178 35.0888L54.3191 31.114L56.8364 35.0888C58.22 37.2749 61.7046 41.6869 64.5784 44.8938C76.4113 58.0963 94.3746 53.1501 91.6658 37.4371C90.6986 31.8279 87.9227 31.1522 87.9227 36.5261C87.9227 40.4643 83.3015 44.6283 78.9315 44.6283C74.5631 44.6283 68.9293 38.593 68.9293 33.9154C68.9293 32.0712 70.6548 28.3317 72.7631 25.6034C76.9737 20.1596 76.6684 17.9735 72.072 20.6509C67.6349 23.2361 66.0745 22.767 64.5463 18.3948C63.7821 16.2087 62.1925 14.42 61.012 14.42C59.833 14.42 57.9015 12.9192 56.721 11.0844L54.5747 7.75034L52.9442 11.0669ZM13.7522 66.2589C5.72826 62.3223 3.39206 55.6781 6.89122 46.7524L9.28148 40.6535L10.9806 46.1626C12.9326 52.4904 20.7301 58.9422 26.4106 58.9279C34.0722 58.9104 41.4533 55.4079 47.819 48.7716L54.3395 41.9715L57.9059 47.0609C62.2656 53.2822 72.858 58.9374 80.1456 58.9374C87.0022 58.9374 94.8596 53.2376 96.0372 47.4106C97.5274 40.0398 101.072 43.1576 101.072 51.8384C101.072 71.3514 73.7756 74.5344 60.5942 56.5558C58.3486 53.4936 55.7962 50.9879 54.9225 50.9879C54.0488 50.9879 50.5745 53.8434 47.2039 57.3333C35.7728 69.1669 25.3455 71.9492 13.7522 66.2589Z" fill="#D2D2D2"/>
</svg>
