<svg width="78" height="75" viewBox="0 0 78 75" fill="none" xmlns="http://www.w3.org/2000/svg">
<path fill-rule="evenodd" clip-rule="evenodd" d="M17.1052 1.54302C17.1027 2.39109 17.0387 3.75618 16.9628 4.57679C16.8867 5.3974 16.8192 8.30684 16.8126 11.0422L16.8007 16.0156L18.0866 16.0749L19.3726 16.134L19.38 11.7978C19.3841 9.41272 19.4416 5.78294 19.5076 3.73132L19.6276 0.00127397H18.3685H17.1093L17.1052 1.54302ZM19.7841 0.896484C19.7841 1.38885 19.8574 1.79169 19.9471 1.79169C20.0366 1.79169 20.5189 1.38885 21.0187 0.896484L21.9273 0.00127397H20.8557H19.7841V0.896484ZM43.1832 4.14988L38.8529 8.29848L39.4251 9.0238C39.7397 9.42267 40.0555 9.74812 40.1271 9.74713C40.1985 9.74594 42.5254 7.55307 45.298 4.8738L50.339 0.00266652L48.9263 0.00187078L47.5136 0.00127397L43.1832 4.14988ZM52.0308 0.147691C53.046 0.216522 53.1945 0.301866 54.7305 1.69919L56.3562 3.17768L56.4831 2.43485C56.5529 2.02644 56.6111 1.31186 56.6124 0.84675L56.6146 0.00127397L53.7855 0.0380771C52.2295 0.0583685 51.4398 0.107705 52.0308 0.147691ZM56.8204 1.847V3.69252L58.0428 4.73296L59.2652 5.77319L59.3288 3.43431C59.4267 -0.169214 59.4907 0.00127397 58.0413 0.00127397H56.8204V1.847ZM21.0131 1.49866L19.7841 2.69765V4.13456C19.7841 4.92493 19.8127 5.57147 19.8477 5.57147C19.8827 5.57147 20.5539 4.99118 21.3395 4.28197C22.3769 3.34538 22.9365 2.98312 23.3849 2.95786C24.2377 2.90991 24.4999 2.91011 34.6793 2.97059L43.7106 3.0241L44.9577 1.81835C45.6435 1.1553 46.1599 0.569434 46.1054 0.516517C46.0506 0.463799 40.659 0.393376 34.1239 0.360154L22.2419 0.299677L21.0131 1.49866ZM49.1349 1.76185L47.9438 2.92563L49.223 3.05494C49.9267 3.12615 50.8359 3.18444 51.2437 3.18464C51.8927 3.18504 52.2044 3.38955 53.7443 4.82586C54.712 5.72823 57.8366 8.57043 60.6884 11.1417L65.8731 15.8167L67.6426 15.9161C68.6158 15.9708 69.4485 15.9581 69.4929 15.8879C69.5376 15.8176 68.0701 14.3867 66.2321 12.7077C64.3941 11.0289 62.1495 8.97208 61.2441 8.13714C60.3388 7.30221 58.1166 5.2677 56.306 3.61593L53.0139 0.612802L51.6701 0.605441L50.3261 0.598081L49.1349 1.76185ZM30.7236 3.58211C30.7613 3.69173 34.239 7.13272 38.4518 11.229L46.1113 18.6768L51.3114 18.7004C54.1717 18.7136 61.1413 18.7414 66.7996 18.7625L77.0874 18.8007L77.1471 17.6071L77.2068 16.4135L61.7153 16.349L46.2239 16.2847L42.7923 12.8676C40.9049 10.9883 38.0346 8.09358 36.4138 6.43485L33.467 3.41919L32.061 3.40108C31.2067 3.39014 30.6818 3.46136 30.7236 3.58211ZM36.0435 5.57605C37.2027 6.78219 38.237 7.82024 38.3418 7.8829C38.5348 7.99809 43.0347 3.83635 43.0347 3.54253C43.0347 3.455 40.9874 3.38318 38.4852 3.38318H33.9355L36.0435 5.57605ZM8.31237 13.6938L0.235386 21.3966L0.262546 31.7365C0.27736 37.4233 0.347318 42.5504 0.417686 43.1301L0.545873 44.1841L1.52322 43.2228L2.50056 42.2616L2.50982 32.421L2.51908 22.5805L9.50309 15.8167L16.4869 9.05284L16.4896 7.51109C16.4908 6.66303 16.469 5.97412 16.4406 5.98008C16.4122 5.98605 12.7547 9.45708 8.31237 13.6938ZM56.7827 10.1263C56.7469 11.2181 56.7469 12.9675 56.7831 14.0137L56.8486 15.9161H58.0691H59.2895L59.2763 13.0813L59.2631 10.2465L58.0555 9.19389L56.8482 8.14132L56.7827 10.1263ZM13.1458 12.8847C11.4781 14.4999 10.1136 15.8875 10.1136 15.9682C10.1136 16.049 11.4921 16.1151 13.1771 16.1151H16.2404L16.347 15.4685C16.5278 14.3708 16.5293 9.94805 16.3488 9.94805C16.255 9.94805 14.8137 11.2696 13.1458 12.8847ZM36.0338 10.9065C35.748 11.2 34.3544 12.5344 32.9365 13.8719L30.3588 16.3038L19.8802 16.4107L9.40165 16.5175L8.31731 17.5528C7.72082 18.1223 7.23297 18.667 7.23297 18.7633C7.23297 18.8638 12.2578 18.8823 19.0125 18.8065L30.7921 18.6744L34.4406 15.1624L38.0889 11.6503L37.4352 10.9982C37.0755 10.6394 36.7299 10.3521 36.6673 10.3595C36.6046 10.367 36.3196 10.6131 36.0338 10.9065ZM59.701 13.4294V15.9161L62.5301 15.9098L65.3593 15.9032L62.6844 13.4308C61.2133 12.0709 59.9403 10.9547 59.8553 10.9505C59.7703 10.9463 59.701 12.0617 59.701 13.4294ZM37.6568 19.3553C37.2453 19.7066 36.5572 20.4863 36.128 21.0877C35.306 22.2391 33.9046 24.9858 33.6659 25.9126C33.4952 26.5765 33.4838 26.5769 32.1034 25.9866C30.7014 25.3872 29.152 25.0817 27.1914 25.0178L25.6482 24.9677L25.671 27.2555C25.69 29.1426 25.7931 29.8567 26.2599 31.3336C26.571 32.3184 26.8385 33.2516 26.8544 33.4073C26.872 33.5848 26.341 33.8927 25.4342 34.2305C23.9092 34.7985 21.0716 36.3973 20.4952 37.013C20.3082 37.2128 20.2154 37.47 20.2887 37.5848C20.6288 38.1165 24.7972 40.903 26.3167 41.6142C27.2504 42.0511 28.0144 42.4496 28.0144 42.4993C28.0144 42.5492 27.7346 43.1687 27.3926 43.8761C26.7984 45.1048 25.7511 48.8603 25.7511 49.7622C25.7511 50.1752 25.8083 50.1856 27.3712 50.0596C29.3543 49.8997 31.1407 49.355 33.1077 48.3106C34.1925 47.7347 34.6256 47.5901 34.6935 47.7812C34.7449 47.9259 35.0392 48.7964 35.3476 49.7155C35.8751 51.2883 37.4033 53.881 38.1533 54.4758C38.4485 54.71 38.5813 54.5588 39.3092 53.1591C40.18 51.4844 40.8493 49.7256 41.0861 48.4896C41.1649 48.078 41.295 47.7023 41.3752 47.6543C41.4553 47.6066 42.3476 47.9619 43.3581 48.4441C45.9225 49.6679 49.5535 50.5192 49.8997 49.9777C49.9543 49.8921 49.8773 49.1537 49.7285 48.3365C49.4471 46.7909 48.528 44.3502 47.6142 42.7217C47.3222 42.2015 47.1214 41.7469 47.1679 41.7119C47.2146 41.6767 47.8545 41.4418 48.5901 41.1895C51.4203 40.2195 55.1963 38.0047 55.1626 37.3345C55.1389 36.8609 50.8744 34.141 49.1045 33.4706C48.6518 33.2991 48.2455 33.1312 48.2014 33.0972C48.1576 33.0634 48.4489 32.429 48.8491 31.6873C49.2493 30.9457 49.7318 29.8914 49.9215 29.3443C50.3168 28.2038 50.8472 25.4386 50.7133 25.2164C50.4335 24.7518 45.9078 25.2635 44.0416 25.9707C43.3318 26.2397 42.717 26.4597 42.6754 26.4597C42.597 26.4597 42.3721 25.9725 41.0684 22.9783C40.3024 21.219 38.8078 18.6941 38.5409 18.7088C38.4662 18.7128 38.0683 19.0038 37.6568 19.3553ZM16.6978 24.3098V29.3216L8.34879 37.2904L0 45.2591L0.0670767 46.9905L0.134359 48.7218L4.86677 44.2024C7.46959 41.7165 11.7983 37.6124 14.4859 35.082L19.3726 30.481V24.8895V19.298H18.0352H16.6978V24.3098ZM56.7317 24.1819L56.5831 29.0658L59.2224 31.7671C60.6738 33.2528 62.4781 35.1059 63.2318 35.8851L64.6019 37.3017L65.3364 36.6201L66.0708 35.9388L65.0013 34.8297C64.413 34.2198 62.8873 32.655 61.6106 31.3521L59.2895 28.9832V24.1407V19.298H58.085H56.8802L56.7317 24.1819ZM70.1946 19.4816C70.1946 19.5825 71.0738 20.4554 72.1486 21.4213L74.1025 23.1773L74.1033 25.662L74.1039 28.1467L75.3679 26.9246L76.6317 25.7028L76.6928 23.9032L76.7539 22.1036L75.1445 20.7007L73.535 19.298H71.8649C70.9462 19.298 70.1946 19.3806 70.1946 19.4816ZM74.5387 19.5467C74.5515 19.6836 75.107 20.2796 75.7733 20.8714L76.9845 21.9473V20.6227V19.298H75.75C74.8871 19.298 74.5225 19.3728 74.5387 19.5467ZM37.772 24.2217C37.3731 25.5112 37.1936 28.4509 37.4591 29.3483C37.5765 29.7461 37.671 29.843 37.7457 29.6427C38.3278 28.0854 39.1253 25.6437 39.1253 25.4195C39.1253 24.8931 38.4924 23.0778 38.3088 23.0778C38.2082 23.0778 37.9665 23.5926 37.772 24.2217ZM66.6453 35.9607L56.6146 45.6606V56.3516C56.6146 62.2317 56.684 67.0388 56.7689 67.034C56.8539 67.0292 57.4051 66.6039 57.994 66.0891L59.0648 65.1527L59.1987 55.9022C59.2724 50.8144 59.3777 46.6069 59.4331 46.5522C59.4882 46.4975 63.4599 42.6242 68.259 37.9449L76.9845 29.437V27.8489C76.9845 26.9754 76.9152 26.2608 76.8302 26.2608C76.7452 26.261 72.1622 30.6258 66.6453 35.9607ZM27.7027 28.2004C27.8603 28.5012 28.0945 29.0282 28.2228 29.3711C28.3512 29.7141 28.7578 30.296 29.1265 30.6642C29.9635 31.5001 31.5123 32.6971 31.5123 32.508C31.5123 32.2177 30.4053 30.1094 29.8175 29.2794C28.8695 27.9414 27.0922 27.0346 27.7027 28.2004ZM46.121 28.3661C45.6118 28.6462 44.9299 29.1151 44.606 29.4081C43.9011 30.0457 42.9581 31.4255 43.1203 31.5821C43.3464 31.8007 46.1317 29.8239 46.7381 29.0146C47.7144 27.7116 47.5759 27.5662 46.121 28.3661ZM2.91784 30.1898L2.92339 31.7315L5.54124 34.3829L8.15888 37.0345L8.96524 36.23L9.7716 35.4255L8.77162 34.3744C6.98689 32.4978 3.11454 28.648 3.01187 28.648C2.95693 28.648 2.91455 29.3419 2.91784 30.1898ZM75.2356 31.6297L74.0011 32.8388L73.9947 35.9655C73.9912 37.6851 73.9679 42.1525 73.9433 45.8933L73.8982 52.6943L72.0647 54.2486C71.0563 55.1033 70.223 55.8698 70.2129 55.9519C70.2028 56.0341 70.9186 56.1011 71.8036 56.1011H73.4126L74.941 54.7225L76.4693 53.3439L76.5407 42.5377C76.58 36.5943 76.5802 31.4365 76.5411 31.076L76.4702 30.4207L75.2356 31.6297ZM37.6576 31.2505C37.485 31.3535 37.6017 31.4448 38.0043 31.522C39.1393 31.7397 40.2561 32.0027 40.617 32.1371C40.8162 32.2115 40.9771 32.1801 40.9771 32.0671C40.9771 31.676 38.1214 30.9734 37.6576 31.2505ZM36.0031 31.4289C35.2472 31.6495 33.7756 32.4652 33.7756 32.6633C33.7756 32.8985 33.7906 32.8935 35.5031 32.1073C37.3654 31.2523 37.5728 30.9708 36.0031 31.4289ZM2.92113 37.0974L2.91208 41.8665L4.30094 40.5656C5.0647 39.8501 6.18443 38.8174 6.78895 38.2709L7.88831 37.277L5.40914 34.8027L2.93018 32.3283L2.92113 37.0974ZM41.6199 32.7262C41.6637 32.8356 41.9604 33.405 42.2791 33.9914C42.6145 34.6081 42.9176 35.5545 42.9982 36.2356C43.1559 37.5679 43.5665 37.7477 43.5163 36.4624C43.4668 35.1936 42.8931 33.7537 42.1791 33.1063C41.8277 32.7879 41.576 32.6168 41.6199 32.7262ZM32.3804 33.962C31.6265 35.1104 31.3092 36.1632 31.3078 37.5207C31.3061 38.9475 31.9038 40.5436 32.3419 40.2818C32.433 40.2272 32.3532 39.8926 32.1643 39.5379C31.9287 39.0957 31.8238 38.4177 31.8302 37.3787C31.8382 36.0777 31.9353 35.6762 32.5188 34.5301C32.8925 33.7963 33.1548 33.1539 33.102 33.1026C33.0489 33.0514 32.7242 33.4382 32.3804 33.962ZM71.0108 35.7255L68.6761 38.0135L70.432 39.7464C71.3978 40.6995 72.4797 41.7927 72.8363 42.1756L73.4848 42.8719L73.4951 41.2804C73.5009 40.4051 73.5566 38.3344 73.6192 36.6788C73.6867 34.886 73.6544 33.6222 73.5391 33.5532C73.4326 33.4897 72.2949 34.4673 71.0108 35.7255ZM45.5037 36.5973L44.9894 36.7485L45.5856 36.9816C45.9136 37.1099 46.9266 37.4014 47.8368 37.6295C49.2812 37.9914 49.6308 38.0143 50.5841 37.808C51.1849 37.6779 51.6748 37.5108 51.6727 37.4366C51.6707 37.3624 50.9995 37.0988 50.181 36.8505C48.6767 36.3946 46.5799 36.281 45.5037 36.5973ZM12.5892 37.5195C12.5855 37.6393 12.7678 37.8995 12.9942 38.0974C13.2205 38.2954 13.4057 38.5946 13.4057 38.7623C13.4057 38.9815 13.2435 38.9169 12.8285 38.5325C12.5113 38.2385 12.159 37.998 12.0458 37.998C11.9329 37.998 11.5279 38.3095 11.1463 38.6905L10.452 39.3828L13.575 42.4575C15.2925 44.1487 16.7196 45.6498 16.7461 45.7937C16.7729 45.9373 16.7959 48.2929 16.7976 51.0283L16.8007 56.0016L18.0866 56.0609L19.3726 56.12L19.3654 50.5902L19.358 45.0602L16.492 42.1756C14.9157 40.5891 13.6258 39.2015 13.6256 39.0921C13.6254 38.9827 14.9647 40.2129 16.6019 41.8259C18.2389 43.4389 19.5784 44.676 19.5784 44.5752C19.5784 44.4743 18.1323 42.9561 16.3651 41.2012C14.5978 39.4462 13.0267 37.851 12.8738 37.656C12.7209 37.4612 12.5927 37.3998 12.5892 37.5195ZM24.1565 37.7606C23.6754 37.7945 23.282 37.8898 23.282 37.9725C23.282 38.2427 24.7721 38.8182 25.7667 38.932C27.0895 39.0836 29.4987 38.822 29.4008 38.5377C29.2364 38.0612 26.2291 37.6158 24.1565 37.7606ZM42.5125 39.1397C42.2896 39.7038 41.6997 40.5081 41.0442 41.1422C40.4415 41.7248 39.9483 42.2405 39.9483 42.288C39.9483 42.5773 40.5078 42.2568 41.3806 41.4674C42.3306 40.6082 43.2404 39.1554 43.2404 38.4975C43.2404 37.8973 42.8762 38.2184 42.5125 39.1397ZM67.5224 39.0895L66.815 39.7952L68.5761 41.5325C69.5446 42.488 71.0435 43.9859 71.9073 44.8613L73.4776 46.4527L73.4821 44.8869L73.4867 43.3211L71.0855 40.9082C69.7649 39.5811 68.582 38.4703 68.4569 38.4396C68.3321 38.409 67.9113 38.7014 67.5224 39.0895ZM33.4499 41.6866C33.8931 42.065 34.4254 42.3746 34.633 42.3746C35.1612 42.3746 35.1252 42.323 34.1021 41.6126C32.8896 40.7707 32.4372 40.8221 33.4499 41.6866ZM37.0163 42.5222C35.4793 42.5992 35.1916 42.8651 36.4272 43.0671C37.2879 43.2077 38.9195 42.8795 38.9195 42.5657C38.9195 42.4607 38.8039 42.3921 38.6623 42.4136C38.521 42.435 37.7802 42.4838 37.0163 42.5222ZM42.5612 42.5007C42.4983 42.5616 42.8338 43.1707 43.3067 43.8544C43.7795 44.5382 44.3134 45.3624 44.4935 45.686C44.8346 46.2998 46.6737 47.8745 46.85 47.704C46.9058 47.6501 46.8113 47.3466 46.6403 47.0295C46.4694 46.7122 46.3288 46.3563 46.328 46.2381C46.3274 46.1201 46.0385 45.6029 45.6862 45.0886C45.0546 44.1666 42.7834 42.2858 42.5612 42.5007ZM31.7022 44.1007C29.4308 45.9204 28.0885 47.4858 28.477 47.8614C28.601 47.9816 30.0057 47.2539 30.5471 46.7889C31.0131 46.3887 32.8326 43.5849 32.7059 43.4621C32.6542 43.4124 32.2026 43.6999 31.7022 44.1007ZM38.2403 45.4083C38.1835 45.8734 37.9957 46.7756 37.8228 47.4134C37.5484 48.427 37.5455 48.6904 37.8004 49.5022C37.9609 50.0133 38.093 50.6509 38.0942 50.9188C38.0975 51.6298 38.3883 51.2035 38.807 49.8738C39.0732 49.028 39.1387 48.3631 39.0514 47.3871C38.8008 44.5835 38.4467 43.7198 38.2403 45.4083ZM1.20676 48.1007L0.237238 49.0526V51.3259V53.5993L8.21032 61.213C12.5956 65.4004 16.2064 68.828 16.2348 68.8298C16.2632 68.8316 16.2863 68.038 16.2863 67.0664V65.3001L15.4892 64.6245C15.0509 64.2531 11.9491 61.4055 8.59632 58.2968L2.50056 52.6444V49.8967C2.50056 48.3854 2.42772 47.149 2.33843 47.149C2.24933 47.149 1.74009 47.5773 1.20676 48.1007ZM76.8494 48.641C76.85 49.5163 76.8862 49.8498 76.9296 49.3819C76.9732 48.914 76.9726 48.1978 76.9284 47.7904C76.8841 47.383 76.8485 47.7657 76.8494 48.641ZM76.8084 52.1604L76.7788 53.6904L75.5442 54.741C74.8652 55.3189 74.3097 55.8614 74.3097 55.9463C74.3097 56.0315 74.9144 56.1011 75.6535 56.1011C76.6029 56.1011 77.0292 56.0209 77.1057 55.8282C77.1654 55.678 77.1296 54.447 77.0261 53.0928C76.857 50.8799 76.835 50.7854 76.8084 52.1604ZM30.6893 55.9804C30.6893 56.0233 30.8329 56.1119 31.0086 56.1771C31.1917 56.2449 31.2742 56.2115 31.2022 56.0989C31.0814 55.9097 30.6893 55.8192 30.6893 55.9804ZM41.2818 59.9267C39.2471 61.9246 34.9468 66.1336 31.7261 69.2796L25.8698 75H27.6679H29.4658L37.784 66.8934L46.1021 58.7867H51.1012H56.1002V57.5931V56.3995L50.5409 56.3466L44.9817 56.2939L41.2818 59.9267ZM7.47309 56.6482C7.51074 56.7304 8.11484 57.3208 8.81545 57.9604L10.0893 59.1233L20.1031 58.9763L30.1166 58.8293L32.9242 61.6429C34.4684 63.1904 35.8299 64.4564 35.9496 64.4564C36.3023 64.4564 37.327 63.3183 37.2292 63.035C37.1801 62.8922 35.7579 61.3723 34.0688 59.6573L30.9979 56.5394L19.2012 56.5191C12.7129 56.5081 7.43523 56.566 7.47309 56.6482ZM59.4952 57.6926V58.8862H68.2399H76.9845V57.6926V56.499H68.2399H59.4952V57.6926ZM32.0267 57.0958C32.2314 57.3146 32.4454 57.4937 32.502 57.4937C32.5586 57.4937 32.4372 57.3146 32.2324 57.0958C32.0277 56.877 31.8137 56.6979 31.7571 56.6979C31.7005 56.6979 31.8219 56.877 32.0267 57.0958ZM33.1583 58.1899C33.4242 58.4635 33.688 58.6873 33.7445 58.6873C33.8011 58.6873 33.6299 58.4635 33.3641 58.1899C33.0983 57.9164 32.8345 57.6926 32.7779 57.6926C32.7213 57.6926 32.8925 57.9164 33.1583 58.1899ZM10.5594 59.4631C10.5971 59.5616 11.9012 60.8237 13.4571 62.2675L16.2863 64.8927V62.0885V59.2841H13.3886C11.7574 59.2841 10.5208 59.3623 10.5594 59.4631ZM16.8439 59.408C16.7636 59.4858 16.6978 63.0257 16.6978 67.2747V75H17.9115H19.1255L19.2617 72.563C19.3366 71.2226 19.3689 67.709 19.3337 64.7548L19.2697 59.3836L18.1299 59.3251C17.5029 59.293 16.9243 59.3302 16.8439 59.408ZM59.6324 59.4168C59.4154 59.6265 59.4691 64.4986 59.6876 64.4232C59.9394 64.3365 63.9202 60.911 64.8338 59.9951L65.5428 59.2841H62.6563C61.0686 59.2841 59.7078 59.3438 59.6324 59.4168ZM64.6076 60.7516C63.7416 61.55 60.9176 64.0277 58.3321 66.2576C55.7465 68.4874 53.2145 70.6944 52.7052 71.1617L51.7793 72.0112L49.3162 72.0136L46.8531 72.016L48.1786 73.309L49.5041 74.6021H51.0588H52.6135L56.6202 71.076C63.6034 64.9303 69.472 59.6591 69.5429 59.4683C69.5818 59.3643 68.865 59.2877 67.8969 59.2922L66.1823 59.3002L64.6076 60.7516ZM36.4504 61.5346C36.4504 61.5689 36.7515 61.8599 37.1192 62.1812L37.7879 62.7655L37.1836 62.1189C36.6202 61.5163 36.4504 61.3809 36.4504 61.5346ZM38.9858 66.2872L38.1261 67.142L42.1055 71.071L46.0846 75H47.6903H49.2963L48.1716 73.8605C47.5531 73.2339 45.9299 71.6 44.5647 70.2299C43.1993 68.8599 41.5789 67.2198 40.9639 66.5856L39.8454 65.4324L38.9858 66.2872ZM35.7303 69.4298L33.6805 71.4192H37.7586H41.8367L39.9382 69.4298C38.894 68.3357 37.9813 67.4404 37.9099 67.4404C37.8385 67.4404 36.8576 68.3357 35.7303 69.4298ZM19.5784 70.6799V72.5268L20.665 73.5645L21.7518 74.6021H23.7441H25.7363L26.9875 73.3588L28.2387 72.1154L25.8367 72.0591L23.4345 72.0028L21.6409 70.4179C20.6543 69.5462 19.7868 68.833 19.7127 68.833C19.6389 68.833 19.5784 69.6641 19.5784 70.6799ZM57.592 70.7215L56.4089 71.7997V73.4V75H57.7463H59.0837V72.3144C59.0837 70.8373 59.0144 69.6319 58.9294 69.6359C58.8444 69.6401 58.2428 70.1285 57.592 70.7215ZM31.837 73.2167L30.3806 74.5954L37.6335 74.5987C41.6226 74.6005 44.8865 74.5325 44.8865 74.4472C44.8865 74.362 44.3044 73.7344 43.5929 73.0526L42.2991 71.8129L37.7961 71.8254L33.2933 71.8379L31.837 73.2167ZM54.3513 73.612L52.8081 74.992L54.5056 74.996L56.2031 75V73.6075C56.2031 72.8415 56.1338 72.2189 56.0488 72.2237C55.9638 72.2282 55.2 72.8531 54.3513 73.612ZM19.5784 74.1048V75H20.4014C20.9407 75 21.2244 74.9107 21.2244 74.7406C21.2244 74.475 19.9833 73.2096 19.7228 73.2096C19.6434 73.2096 19.5784 73.6124 19.5784 74.1048Z" fill="#D2D2D2"/>
</svg>
