<svg width="109" height="76" viewBox="0 0 109 76" fill="none" xmlns="http://www.w3.org/2000/svg">
<path fill-rule="evenodd" clip-rule="evenodd" d="M0 57.5V17.8902H1.54015L2.10994 5.42353L3.96179 4.94548C5.38972 4.57682 5.81364 4.16087 5.81364 3.12896C5.81364 1.06741 7.06436 0.432659 10.7515 0.624112C14.0758 0.796192 14.0758 0.796193 14.3607 2.7905C14.6063 4.50845 14.8667 4.79277 16.2422 4.84292C17.1202 4.87483 18.0912 5.15347 18.4006 5.46287C18.7179 5.78025 18.8912 8.48168 18.7983 11.6726L18.6342 17.3204L16.6399 17.6053C14.8672 17.8583 14.6137 18.1119 14.3607 19.8845C14.1077 21.6555 13.853 21.9108 12.0877 22.1637C9.91052 22.476 9.43531 23.403 10.294 25.6617C10.7567 26.88 11.1162 27.0429 12.8809 26.8367C14.7117 26.623 14.9305 26.4196 14.9305 24.9324C14.9305 23.2521 15.1157 23.0994 17.886 22.4942C19.1105 22.227 19.4524 21.79 19.5954 20.3102L19.7738 18.46L27.4 18.2236L27.5755 20.3358C27.7413 22.329 27.8718 22.4589 29.8878 22.6253L32.0245 22.8025V30.7108H27.751C23.6108 30.7108 23.4775 30.7541 23.4775 32.0886C23.4775 34.574 22.8969 35.2692 20.8199 35.2692C18.8592 35.2692 18.8541 35.276 19.0291 37.6908C19.1977 40.0264 19.2678 40.1074 21.0063 39.9746C22.6883 39.8458 22.8342 39.9843 23.1818 42.0424C23.5476 44.2082 23.6057 44.2532 26.3812 44.5199C31.1732 44.9803 32.0245 44.6065 32.0245 42.0401V39.8276H36.5829V35.2692L56.6684 35.3421C77.178 35.4169 80.4247 35.2785 80.7968 36.246C80.9153 36.5539 80.7425 36.9739 80.7425 37.5484V39.5427L36.5829 39.8407V42.0789C36.5829 44.2538 36.6433 44.3222 38.7197 44.4943C40.7402 44.6612 40.8661 44.7871 41.0331 46.8077C41.1995 48.8139 41.326 48.9444 43.1089 48.9444C45.1186 48.9444 45.6997 48.227 45.6997 45.745V44.3484L58.5203 44.6709L58.8052 46.6652C59.0559 48.4191 59.3095 48.6806 60.9083 48.8356C62.4912 48.9889 62.7493 49.247 62.9026 50.8299C63.0576 52.4288 63.3191 52.6823 65.073 52.933C66.8456 53.186 67.0992 53.4396 67.3522 55.2122C67.6052 56.9849 67.8588 57.2384 69.6314 57.4914C71.4645 57.7535 71.6399 57.9495 71.8023 59.9131C71.9739 61.9849 72.0468 62.0498 74.1898 62.0498C76.3329 62.0498 76.4058 62.1148 76.5773 64.1866C76.7317 66.0527 76.9209 66.3 78.0702 66.1393C79.8576 65.8892 81.0274 66.9895 81.0274 68.9211C81.0274 70.3137 81.2707 70.5479 82.8793 70.7034C84.5699 70.8664 84.7465 71.0675 84.9078 73.0185L85.085 75.1553H45.7687L45.5915 73.0185C45.4251 71.0043 45.2941 70.8715 43.3106 70.7068C41.3334 70.5427 41.1955 70.4048 41.0314 68.4276C40.8667 66.4441 40.7339 66.3131 38.7197 66.1467L36.5829 65.9695V59.7974C36.5829 53.1666 36.6912 52.933 39.7636 52.933C40.9539 52.933 41.1413 52.6663 41.1413 50.9729C41.1413 49.1199 41.0251 49.0037 39.0046 48.8361C36.9841 48.6692 36.8581 48.5433 36.6912 46.5228C36.5191 44.4453 36.4519 44.386 34.2695 44.386H32.0245V48.3923C32.0245 51.1005 31.7937 52.4703 31.3123 52.6185C30.9208 52.7393 29.9111 52.9883 29.0689 53.1723C27.8444 53.4396 27.5026 53.8766 27.3596 55.3564C27.1909 57.1051 27.0433 57.2162 24.6627 57.3866C20.6661 57.672 19.588 57.1986 19.3823 55.0681C19.2188 53.3729 19.0222 53.2031 17.0279 53.039C14.9607 52.8686 14.8615 52.7701 15.0336 51.0686C15.1994 49.4327 15.0427 49.2401 13.2211 48.8453C10.5943 48.2766 9.80226 48.6145 9.80226 50.3045C9.80226 52.7854 10.3835 53.5028 12.3931 53.5028C14.1761 53.5028 14.3026 53.6333 14.4689 55.6396C14.5464 56.5767 14.5845 57.1079 14.8649 57.4245C15.2385 57.8464 16.0421 57.8875 17.9413 58.0008C18.8604 58.0555 18.9424 58.6464 18.796 64.1866L18.6342 70.312L16.6399 70.5969C14.8672 70.8498 14.6137 71.1034 14.3607 72.8761L14.0758 74.8704H6.09856V72.8761C6.09856 70.9826 5.99029 70.8726 3.96179 70.7051L1.82505 70.5279V57.4914L0 57.5ZM1.25524 28.8116C1.25524 27.7666 1.43529 26.7324 1.65523 26.5125C2.0256 26.1415 5.00398 26.5478 5.93731 27.0959C6.16238 27.2281 6.19428 28.0954 6.00852 29.0236C5.67804 30.6754 5.72078 30.7108 8.02164 30.7108C10.2997 30.7108 10.5145 30.8828 10.5145 32.7051C10.5145 35.1079 10.3641 35.2692 8.12704 35.2692C5.9447 35.2692 5.87748 35.2099 5.7054 33.1324C5.55383 31.2988 5.32704 30.9877 4.10425 30.9393C1.3994 30.8321 1.25524 30.7244 1.25524 28.8116ZM3.392 44.2777C5.41252 44.1108 5.53844 43.9849 5.7054 41.9643C5.88203 39.8339 5.89001 39.8276 8.47862 39.8276C10.8929 39.8276 11.0507 39.9176 10.731 41.1096C10.5424 41.8145 10.384 42.8242 10.38 43.353C10.3744 44.0088 9.80739 44.3706 8.59143 44.4926C7.12134 44.6396 6.69856 45.019 6.16978 46.6652C5.60568 48.4202 5.27291 48.6806 3.392 48.8361L1.25524 49.0133V46.7341C1.25524 44.5113 1.30824 44.4504 3.392 44.2777Z" fill="#D2D2D2"/>
<path fill-rule="evenodd" clip-rule="evenodd" d="M109 18.5V57.1332C108.113 57.0027 107.879 57.2069 107.696 57.3872C107.478 57.6008 107.221 60.5968 107.126 64.0441L106.953 70.312L104.849 70.4869C102.872 70.651 102.734 70.7889 102.57 72.7661L102.395 74.8704L98.7431 75.0424C94.6879 75.2333 94.0098 74.7746 94.5266 72.1906C94.8343 70.6516 94.7648 70.5969 92.4947 70.5969H90.1443L90.0622 67.8903C89.93 63.5308 90.0736 58.512 90.338 58.2476C90.4725 58.1131 91.2844 57.949 92.1426 57.8829C93.3779 57.7883 93.8366 57.3496 94.3448 55.7758C94.8502 54.2134 95.3301 53.7484 96.5882 53.6042C98.2104 53.4179 98.3414 53.2487 98.9209 50.5849C99.2155 49.2322 99.0554 49.0601 97.2264 48.7632C94.3335 48.2937 93.5631 48.7643 93.5631 50.9997C93.5631 52.8293 93.4559 52.933 91.5688 52.933C89.5562 52.933 89.4702 53.0436 89.3511 55.782C89.2918 57.1598 89.1591 57.2065 85.3009 57.2065H81.3123L81.1374 55.1023C80.9733 53.1279 80.8331 52.9871 78.8713 52.823L76.7796 52.6481L76.6508 49.386C76.5066 45.745 77.3203 44.386 79.6434 44.386C80.7289 44.386 81.0274 44.0874 81.0274 43.0019C81.0274 40.8544 82.5836 39.6658 84.9716 39.9894C86.093 40.1415 87.6514 40.092 88.4348 39.8789C89.6046 39.5615 89.8593 39.1404 89.8593 37.5233V35.5541L81.0274 35.2213V33.0002C81.0274 30.8538 80.9573 30.7734 78.9317 30.6025C76.8422 30.4264 76.8354 30.4167 76.6901 27.5769C76.4975 23.7968 76.8627 22.7352 78.359 22.725C80.2075 22.7119 80.9027 22.0675 81.1186 20.1677L81.3123 18.46H85.3009C88.0742 18.46 89.3112 18.6771 89.3608 19.1723C89.4001 19.5643 89.4639 20.5256 89.5032 21.309C89.5648 22.5438 89.8405 22.7335 91.5688 22.7335C93.3625 22.7335 93.5642 22.8914 93.5716 24.3005C93.5859 26.8247 94.2662 27.4253 96.6138 26.9848C98.4343 26.6435 98.6913 26.3917 98.6913 24.9495C98.6913 24.0441 98.6999 23.1113 98.7101 22.876C98.7204 22.6407 97.7591 22.3204 96.5734 22.1637C94.5922 21.9016 94.428 21.7427 94.5414 20.1917C94.6821 18.2766 93.9682 17.6264 91.7112 17.6139L90.1443 17.6053V5.19678L92.1385 4.8224C93.379 4.58935 94.1329 4.12097 94.1329 3.58194C94.1329 3.10558 94.4047 2.20759 94.7369 1.58708C95.256 0.617276 95.836 0.482221 98.8679 0.62752L102.395 0.796193L102.68 2.7905C102.918 4.45717 103.201 4.78993 104.404 4.81443C107.067 4.86913 107.254 5.32898 107.171 11.5951C107.127 14.8298 107.241 17.7193 107.425 18.0156C107.634 18.3546 108.048 18.6311 109 18.5ZM102.68 28.7769C102.68 27.7512 102.863 26.729 103.087 26.5051C103.311 26.2817 104.272 26.1746 105.224 26.268C106.775 26.4196 106.972 26.6578 107.13 28.574C107.291 30.5159 107.179 30.7108 105.895 30.7108C103.385 30.7108 102.68 31.2863 102.68 33.3358C102.68 35.2162 102.617 35.2692 100.367 35.2692H98.0526L98.2298 33.1324C98.3967 31.1119 98.5226 30.986 100.543 30.819C102.541 30.6532 102.68 30.521 102.68 28.7769ZM98.1215 42.4868C98.1215 41.4418 98.2924 40.4162 98.5015 40.2076C98.7101 39.9985 99.7357 39.8276 100.781 39.8276C102.617 39.8276 102.68 39.9034 102.68 42.1068V44.386H107.238V46.6652C107.238 48.9387 107.233 48.9444 104.993 48.9444C102.811 48.9444 102.744 48.8851 102.572 46.8077C102.42 44.9757 102.192 44.6624 100.971 44.6094C98.2469 44.4909 98.1215 44.3974 98.1215 42.4868Z" fill="#D2D2D2"/>
<path d="M36.5829 35.2692V30.7108H38.8621C41.0946 30.7108 41.1413 30.6692 41.1413 28.6823C41.1413 26.6863 41.1066 26.6561 39.0046 26.8304C37.0536 26.9917 36.8524 27.1683 36.6895 28.8589C36.5527 30.272 36.2405 30.7108 35.3698 30.7108C33.3003 30.7108 32.0245 31.7957 32.0245 33.5547V35.219L23.7624 35.5541L23.4085 39.8276H32.0245V35.2692H36.5829Z" fill="#D2D2D2"/>
<path d="M45.5852 2.7905C45.6792 2.00702 45.8496 1.08109 45.9647 0.732376C46.1129 0.282233 51.759 0.11699 65.4525 0.162574L84.7311 0.226392L84.9078 2.36315C85.0821 4.46514 85.052 4.4999 83.0559 4.4999C81.2913 4.4999 81.0183 4.68509 80.9562 5.92441C80.9169 6.70788 80.8531 7.66971 80.8138 8.06116C80.7744 8.45318 79.7967 8.85205 78.6383 8.94835C76.661 9.11245 76.5232 9.25034 76.3591 11.2276C76.1944 13.211 76.0616 13.3421 74.0474 13.5085C72.0269 13.676 71.9106 13.7922 71.9106 15.6452C71.9106 17.4458 71.4639 17.9153 69.9995 17.6532C68.3824 17.3632 67.3522 18.3575 67.3522 20.2076C67.3522 21.9598 67.1887 22.1649 65.7853 22.1723C63.6092 22.1848 62.9277 22.7501 62.7026 24.7296C62.5368 26.1911 62.2416 26.4629 60.657 26.6156C58.9778 26.778 58.8052 26.9695 58.8052 28.676V30.5575L54.7835 30.8453C52.5715 31.0037 49.6365 31.0065 48.2616 30.8515C45.9493 30.5905 45.7482 30.4355 45.5881 28.7882C45.4365 27.231 45.1641 26.9712 43.4205 26.7222C41.5943 26.4612 41.4114 26.2601 41.2513 24.333C41.0872 22.3558 40.9493 22.2179 38.9721 22.0538L36.8678 21.8788V9.34321L38.8621 9.05831C40.6348 8.80532 40.8883 8.55176 41.1413 6.77911C41.3943 5.00646 41.6479 4.75289 43.4205 4.4999C45.0285 4.27027 45.4479 3.93922 45.5852 2.7905Z" fill="#D2D2D2"/>
</svg>
