<svg width="273" height="261" viewBox="0 0 273 261" fill="none" xmlns="http://www.w3.org/2000/svg">
<path opacity="0.07" fill-rule="evenodd" clip-rule="evenodd" d="M109.622 19.9448C126.122 13.9118 135.118 7.53702 135.35 1.71315C135.443 -0.646211 135.741 -0.602449 137.646 2.05508C143.757 10.5818 149.092 14.4012 160.495 18.4134C180.057 25.2938 184.377 28.222 187.902 36.9723L191.024 44.7326L199.31 40.0982C217.99 29.6463 245.419 37.3272 254.852 55.6512C258.86 63.4325 259.156 75.8986 255.547 84.8402L252.948 91.2766L259.538 96.0682C268.63 102.681 272.91 111.741 272.96 124.479C273.018 139.619 267.33 149.032 253.802 156.185C250.981 157.677 251.056 158.439 254.748 165.783C261.5 179.211 257.152 198.483 245.143 208.366C236.503 215.477 221.111 218.8 211.813 215.566C209.017 214.594 209.537 213.963 215.046 211.646C223.912 207.916 228.515 199.611 225.396 192.971C223.085 188.049 216.822 184.543 210.342 184.543C200.17 184.543 195.859 191.721 195.848 208.686C195.837 225.943 189.153 232.684 165.004 239.79C153.383 243.209 142.081 251.211 139.76 257.665C138.211 261.969 136.891 261.4 130.609 253.718C125.093 246.972 120.325 244.363 96.5384 235.071C81.6513 229.256 78.5985 224.529 77.0244 204.842C75.7349 188.728 72.7465 184.543 62.534 184.543C54.3714 184.543 47.0756 190.524 47.0756 197.215C47.0756 203.108 53.0103 209.93 60.5833 212.745L66.3619 214.894L57.7749 216.088C42.2339 218.251 26.2171 210.188 19.2759 196.711C14.8309 188.079 14.8676 172.835 19.353 164.122L22.775 157.473L17.6265 154.791C3.59345 147.477 -2.77829 132.397 1.13589 115.763C2.98553 107.897 4.83885 104.979 11.9747 98.6836C20.5764 91.0951 20.5801 91.0854 17.9682 85.5564C14.1973 77.5806 14.4324 63.358 18.4458 56.5278C23.3206 48.236 30.4619 42.0184 33.8122 43.1511C35.649 43.7733 36.1983 43.4606 35.3644 42.2679C33.5055 39.6153 45.867 35.4621 55.624 35.4621C64.6996 35.4621 74.2711 38.4648 78.0659 42.5029C81.7872 46.46 83.2676 45.8167 84.5735 39.6769C86.4893 30.6704 91.8582 26.4411 109.622 19.9448ZM106.262 52.5691C104.016 53.9562 102.179 56.7596 102.179 58.7997C102.179 63.0242 107.408 67.8709 111.967 67.8709C115.784 67.8709 122.384 62.2237 122.384 58.9585C122.384 55.9898 115.918 50.0461 112.691 50.0461C111.4 50.0461 108.507 51.182 106.262 52.5691ZM151.772 58.7997C151.772 56.7596 153.609 53.9562 155.855 52.5691C158.1 51.182 160.993 50.0461 162.284 50.0461C165.511 50.0461 171.977 55.9898 171.977 58.9585C171.977 62.2237 165.377 67.8709 161.56 67.8709C157.002 67.8709 151.772 63.0242 151.772 58.7997ZM133.706 92.163C132.368 94.8286 124.757 102.202 116.793 108.546C91.3972 128.777 87.5969 145.981 106.953 153.116C115.296 156.19 122.158 155.953 130.262 152.309C136.949 149.301 137.207 149.301 143.894 152.309C147.645 153.996 153.098 155.375 156.015 155.375C168.002 155.375 179.324 146.723 179.324 137.566C179.324 129.48 168.311 116.353 152.735 105.872C149.074 103.409 143.975 98.225 141.404 94.3554C138.832 90.4842 136.597 87.3162 136.433 87.3162C136.272 87.3162 135.043 89.4973 133.706 92.163ZM35.3037 84.8969C34.0547 80.5039 38.0313 71.9804 41.9859 70.5754C47.1014 68.7605 56.0612 69.6437 59.7237 72.3271C61.8525 73.8876 64.1082 77.5028 64.7345 80.3645C65.6878 84.717 64.9622 86.3699 60.2894 90.4923C57.1173 93.2908 52.7678 95.4184 50.2202 95.4184C44.3645 95.4184 36.7731 90.0645 35.3037 84.8969ZM35.8676 127.557C21.5462 133.98 26.9922 152.134 43.2404 152.134C48.095 152.134 55.6626 146.352 57.0108 141.612C58.6216 135.947 53.8497 128.534 47.2943 126.516C43.0807 125.22 40.5661 125.45 35.8676 127.557ZM127.966 203.682C122.913 198.897 123.253 193.351 128.904 188.365C132.55 185.149 134.69 184.47 138.547 185.304C149.285 187.626 152.876 196.68 145.602 203.097C139.855 208.167 132.943 208.396 127.966 203.682ZM220.569 130.185C207.498 141.714 226.904 159.4 240.652 148.488C247.27 143.236 247.77 134.737 241.775 129.448C236.496 124.791 226.28 125.145 220.569 130.185ZM209.853 88.0535C207.563 82.7855 208.815 77.3554 213.222 73.4696C222.762 65.0514 238.101 70.3259 238.101 82.0239C238.101 88.3209 231.283 95.4184 225.236 95.4184C219.963 95.4184 211.24 91.2426 209.853 88.0535Z" fill="url(#paint0_linear_507_32)"/>
<defs>
<linearGradient id="paint0_linear_507_32" x1="136.48" y1="0" x2="136.48" y2="260.348" gradientUnits="userSpaceOnUse">
<stop stop-color="#AEB1B1"/>
<stop offset="1" stop-color="#4D4D4D"/>
</linearGradient>
</defs>
</svg>
