<svg width="273" height="261" viewBox="0 0 273 261" fill="none" xmlns="http://www.w3.org/2000/svg">
<path opacity="0.07" fill-rule="evenodd" clip-rule="evenodd" d="M168.515 2.13814C164.349 6.4441 163.067 11.5334 165.061 15.8474C165.681 17.1881 172.019 23.8601 184.048 35.8347C197.765 49.4891 202.425 54.4396 203.435 56.4303C205.131 59.7693 205.591 64.1115 204.478 66.2607L203.675 67.8097L206.055 67.0757C209.002 66.1661 213.338 66.4162 215.898 67.6427C217.035 68.187 225.023 75.665 235.482 85.9739C245.197 95.5502 254.064 103.937 255.186 104.612C259.384 107.133 266.132 105.78 270.944 101.45L272.96 99.6358L271.286 100.188C267.24 101.525 262.419 99.4894 259.363 95.1543L257.837 92.989L257.551 81.0818C257.249 68.4788 257.05 67.3076 254.292 61.8561C252.59 58.493 246.729 53.1884 243.139 51.7621C240.508 50.7167 239.358 50.5894 232.379 50.5758C224.928 50.5612 224.359 50.6327 220.121 52.1118L215.677 53.6623L216.018 52.3633C217.296 47.5065 216.748 36.2452 214.975 30.9311C212.333 23.0089 206.066 17.738 197.016 15.8268C194.978 15.3966 189.908 14.7129 185.749 14.3079C181.59 13.9029 177.275 13.2353 176.159 12.8248C172.769 11.5766 169.959 6.12363 170.527 1.89615C170.667 0.853244 170.737 0 170.683 0C170.629 0 169.653 0.961912 168.515 2.13814ZM101.985 2.64123C102.018 7.53833 99.3154 12.1336 95.8653 13.0452C94.8404 13.3163 90.5061 13.8994 86.2343 14.3411C76.8272 15.3136 72.7903 16.1985 68.7579 18.1732C61.5839 21.6853 57.9891 26.7942 56.4113 35.7195C55.8018 39.1682 55.7988 49.4041 56.4062 51.981C56.8065 53.6779 56.7616 53.8605 56.0226 53.534C51.1464 51.3803 47.8157 50.6422 42.021 50.4314C32.0487 50.0692 26.3906 51.9518 21.713 57.1895C15.9556 63.6361 14.293 69.6682 14.8052 82.2555C14.9741 86.406 14.905 90.6657 14.652 91.7217C13.2319 97.6446 6.56608 101.954 1.53306 100.203C0.681623 99.907 -0.00799569 99.8225 7.0038e-05 100.016C0.0237631 100.575 5.6123 104.404 7.5017 105.155C9.98947 106.144 14.9897 106.016 17.1251 104.909C18.0955 104.406 25.8084 97.1551 34.2648 88.7962C53.9139 69.3748 54.6625 68.6715 56.869 67.5758C59.0387 66.4987 65.5951 66.3493 67.4099 67.3363C68.7599 68.0703 68.7624 68.0583 67.7507 65.6419C66.6537 63.0218 67.2078 59.5983 69.2857 56.1546C70.3594 54.3747 77.1735 47.1976 88.5552 35.8579C107.906 16.5784 108.667 15.6165 108.266 10.9116C108.144 9.47573 107.649 7.47594 107.166 6.46724C106.227 4.50619 102.999 0.503092 102.358 0.503092C102.145 0.503092 101.977 1.465 101.985 2.64123ZM167.108 6.54019C165.421 9.80727 165.272 12.4913 166.62 15.3443C167.24 16.6564 173.725 23.4848 185.255 34.9649C205.084 54.7092 206.134 56.0369 206.555 61.9095L206.801 65.339L209.172 65.0588C212.614 64.6518 216.701 65.9885 219.629 68.4783C220.958 69.6083 229.531 77.9485 238.681 87.0117C253.199 101.394 255.583 103.556 257.412 104.002C260.074 104.651 262.856 104.408 265.299 103.313L267.215 102.454L264.831 101.551C262.254 100.575 259.188 97.8961 257.427 95.0843C256.396 93.4377 256.307 92.5387 256.051 81.2493L255.778 69.1751L254.097 65.2359C251.968 60.2483 248.07 55.9005 243.758 53.7071C241.004 52.3054 240.128 52.1263 235.009 51.9201C228.573 51.6605 224.674 52.3558 218.119 54.9321C215.959 55.7808 214.055 56.3387 213.889 56.1717C213.722 56.0052 213.87 54.1085 214.219 51.9568C215.059 46.7689 215.074 37.6554 214.247 34.2102C211.45 22.5496 203.18 16.8717 187.514 15.8549C181.649 15.4746 176.01 14.6445 174.659 13.9628C172.559 12.9038 170.227 9.46165 169.147 5.82781L168.536 3.77319L167.108 6.54019ZM102.701 7.42161C101.621 10.9775 99.5765 13.2771 96.5998 14.2858C95.3556 14.7074 91.3127 15.2965 87.6161 15.5943C76.994 16.4511 72.571 17.5222 67.79 20.3953C62.3966 23.6363 59.6446 27.822 58.1358 35.0771C57.237 39.3991 57.4008 48.3828 58.466 53.2025C59.2171 56.6008 59.0503 57.0109 57.2869 56.0972C56.502 55.6902 53.7798 54.6307 51.2376 53.7423C46.8776 52.2184 46.2011 52.1253 39.3059 52.0982C32.1617 52.0705 31.9283 52.1042 28.9893 53.5793C25.4923 55.3346 21.1398 59.4604 19.5932 62.4865C16.6497 68.2439 16.4446 69.4342 16.3543 81.2493C16.2616 93.4664 16.0791 94.3775 13.0292 97.8488C12.0649 98.9466 10.0222 100.378 8.31281 101.153L5.29773 102.52L7.05254 103.251C10.2521 104.584 12.4883 104.757 15.1435 103.877C17.291 103.165 19.1375 101.563 28.6551 92.1508C53.6397 67.444 54.4851 66.6662 57.2103 65.8774C58.592 65.4774 61.1086 65.1544 62.8034 65.1589L65.884 65.1675L65.9258 62.247C66.009 56.386 66.6603 55.5459 86.5635 35.631C96.4521 25.7367 105.062 16.7852 105.697 15.7382C107.185 13.2856 107.186 10.0538 105.701 7.06894C105.089 5.83788 104.361 4.76327 104.084 4.68026C103.807 4.59725 103.184 5.83083 102.701 7.42161ZM130.398 14.9921C127.413 17.9805 125.148 20.6026 125.366 20.8194C125.582 21.0363 125.506 21.1384 125.196 21.0458C124.696 20.8974 115.231 30.273 89.4062 56.4992C85.1001 60.8721 81.2663 65.1921 80.8862 66.0992C79.203 70.1199 79.754 77.3559 82.1067 82.1297C83.1532 84.2528 82.5765 84.6447 80.4502 83.2541C78.3939 81.9099 73.5262 80.8972 70.2863 81.1402C66.6961 81.4093 62.6874 83.2109 59.6436 85.923C58.4917 86.9499 57.0177 88.2584 56.3674 88.8319C54.899 90.1269 40.9709 104.75 27.7084 118.922C26.1849 120.55 24.712 122.139 24.4347 122.453C24.1574 122.766 22.1435 124.876 19.9592 127.142L15.9874 131.261L17.4387 132.819C18.2367 133.676 20.2506 135.791 21.9141 137.519C41.7574 158.135 47.1791 163.717 53.5696 170.107C57.6716 174.209 61.7548 177.905 62.6436 178.32C65.643 179.722 68.6616 180.61 70.425 180.61C73.1159 180.61 78.161 179.173 80.2541 177.809C82.9127 176.078 83.247 176.269 82.0961 178.865C81.54 180.119 80.7365 182.991 80.3105 185.245C79.321 190.482 80.0025 194.426 82.3668 197.145C83.2208 198.126 92.6793 207.768 103.386 218.572C114.092 229.375 125.808 241.24 129.421 244.939C133.035 248.638 136.252 251.577 136.572 251.471C137.847 251.047 191.697 196.841 192.724 194.948C194.26 192.116 194.213 184.628 192.634 180.61C191.075 176.643 191.182 176.352 193.689 177.735C196.867 179.488 201.569 180.648 204.417 180.382C205.771 180.255 208.217 179.652 209.852 179.042C212.543 178.038 213.854 176.902 223.736 167.02C240.577 150.178 258.104 131.971 258.075 131.348C258.068 131.187 256.356 129.244 254.271 127.031C252.186 124.817 249.186 121.555 247.605 119.782C243.207 114.85 232.634 103.894 222.297 93.5565C215.1 86.3592 212.31 83.9051 210.078 82.8079C205.101 80.3624 199.227 80.4776 193.892 83.1243C192.825 83.6536 191.85 83.9841 191.724 83.8584C191.599 83.7331 192.006 82.1891 192.63 80.4278C194.069 76.3628 194.239 68.5447 192.94 66.1566C191.632 63.7493 172.501 44.6479 171.819 45.068C171.442 45.3009 171.361 45.2164 171.597 44.8345C171.978 44.2203 137.349 9.5839 136.338 9.5673C136.056 9.56277 133.383 12.0038 130.398 14.9921ZM135.33 33.7253C134.153 36.3313 130.574 39.6391 126.705 41.6973C120.811 44.832 117.53 49.3719 117.471 54.4758C117.432 57.7922 118.549 60.1647 121.607 63.2638C123.041 64.7162 124.108 65.9025 123.979 65.899C123.85 65.896 122.496 65.5539 120.971 65.1393C119.446 64.7248 116.157 64.2468 113.662 64.0783C109.884 63.8222 108.766 63.9269 106.982 64.7052C104.611 65.739 104.349 66.1847 105.834 66.6551C107.317 67.125 110.142 70.6587 110.808 72.8769C111.748 76.0081 111.505 78.2625 109.629 83.799C108.344 87.5908 107.867 89.8673 107.872 92.1715C107.882 96.5499 109.103 101.297 110.881 103.876L112.378 106.048L108.792 104.213C105.244 102.399 105.141 102.379 99.0513 102.379C95.4252 102.379 92.6052 102.602 92.1888 102.922C90.4053 104.288 86.2787 105.379 82.9112 105.374C78.5961 105.367 75.9142 104.124 73.6835 101.097L72.1541 99.021L71.3399 100.261C70.8923 100.943 70.3186 102.222 70.065 103.103C69.4843 105.126 70.2712 112.665 71.3712 115.616C71.8158 116.809 72.0406 117.923 71.8713 118.093C71.7014 118.262 70.7693 117.476 69.7999 116.346C67.5203 113.688 63.5207 111.685 60.5056 111.691C55.6501 111.701 50.737 115.307 46.9824 121.613C44.5184 125.753 41.7483 128.831 39.4319 130.001C37.3384 131.06 37.3691 131.562 39.5927 132.615C42.1183 133.811 44.9786 136.785 47.1352 140.457C50.3776 145.978 54.351 149.082 58.9898 149.717C62.6698 150.22 65.4031 149.179 68.4948 146.096C71.2663 143.333 72.4601 142.677 71.8319 144.262C71.3319 145.522 70.0474 151.306 69.7091 153.82C69.3885 156.202 70.3075 160.154 71.3914 161.051C71.9539 161.517 72.4757 161.228 73.9749 159.62C76.7969 156.593 78.7796 155.733 82.9112 155.74C85.5094 155.744 87.4285 156.111 90.1885 157.133C95.1006 158.95 100.395 159.357 105.011 158.272C106.908 157.826 108.943 157.123 109.535 156.71C111.339 155.449 111.548 155.858 110.242 158.097C107.461 162.868 107.125 169.634 109.349 176.099C112.499 185.256 111.71 189.744 106.196 194.037L104.782 195.138L106.146 196.03C108.044 197.271 112.859 197.467 117.695 196.499C125.231 194.99 124.896 195.023 123.744 195.914C123.189 196.343 121.98 197.433 121.055 198.336C114.309 204.93 117.238 214.653 127.537 219.854C130.586 221.394 133.445 224.067 135.269 227.082L136.443 229.024L137.507 227.307C139.036 224.839 142.189 222.168 146.96 219.303C153.389 215.442 156.729 211.01 156.752 206.308C156.769 203.006 153.704 197.873 150.718 196.199C149.09 195.288 150.746 195.225 154.293 196.064C159.431 197.28 166.18 197.262 168.066 196.028L169.491 195.095L167.159 192.865C162.896 188.788 162.347 185.189 164.838 177.645C167.6 169.279 167.331 162.802 164.014 157.884C163.084 156.505 162.49 155.461 162.694 155.564C170.12 159.312 176.633 159.807 183.985 157.184C188.357 155.624 191.814 155.221 194.584 155.947C197.388 156.683 200.393 158.69 201.506 160.569C201.97 161.354 202.472 161.995 202.62 161.994C202.768 161.993 203.315 160.959 203.835 159.695C204.584 157.878 204.722 156.647 204.496 153.786C204.162 149.572 203.785 147.22 203.117 145.193C202.321 142.775 202.56 141.991 203.583 143.665C204.621 145.363 207.543 147.819 210.047 149.098C214.295 151.266 221.089 149.014 224.68 144.247C225.768 142.803 227.395 140.444 228.294 139.006C230.207 135.948 233.378 132.943 235.453 132.221C237.355 131.559 237.302 130.978 235.264 130.128C233.135 129.241 229.554 125.252 226.934 120.852C221.547 111.802 214.261 109.35 207.108 114.18C206.101 114.86 204.853 116.048 204.335 116.82C203.817 117.592 203.082 118.225 202.701 118.225C202.202 118.226 202.156 118.05 202.536 117.593C203.431 116.517 204.767 108.108 204.56 104.857C204.447 103.087 203.992 101.209 203.493 100.448L202.622 99.1222L200.774 101.165C196.538 105.844 191.834 106.524 183.481 103.666C179.071 102.157 178.313 102.046 173.903 102.255C168.216 102.526 165.354 103.642 161.769 106.988C158.571 109.974 157.096 113.419 157.064 117.975C157.043 121.104 157.221 121.777 158.659 124.012C159.55 125.396 161.564 127.681 163.134 129.091L165.99 131.655L163.267 133.465C161.629 134.555 159.848 136.339 158.798 137.945C157.221 140.355 157.052 140.956 157.064 144.136C157.077 147.913 157.99 150.322 160.565 153.376C161.296 154.243 161.666 154.952 161.387 154.952C161.108 154.952 160.804 154.773 160.712 154.554C160.296 153.568 156.8 151.517 154.649 150.997C148.536 149.518 144.244 150.891 139.399 155.875L136.402 158.958L133.901 156.157C132.525 154.616 130.471 152.753 129.336 152.016C127.512 150.831 126.776 150.676 122.988 150.676C119.633 150.676 118.351 150.889 117.08 151.656C115.26 152.754 114.356 152.406 115.526 151.056C116.426 150.017 117.435 147.319 117.782 145.018C118.352 141.242 115.524 136.538 110.408 132.753L108.667 131.465L111.99 128.363C115.493 125.092 117.947 120.931 117.947 118.261C117.947 116.314 115.706 109.811 114.625 108.619C113.46 107.333 113.844 107.41 116.749 109.045C118.83 110.217 119.792 110.429 123.025 110.429C126.391 110.429 127.132 110.25 129.277 108.919C132.043 107.204 135.508 103.36 135.84 101.638C135.963 101.002 136.22 100.343 136.411 100.173C136.603 100.003 136.618 100.256 136.446 100.736C135.934 102.162 141.136 107.351 144.962 109.231C147.834 110.642 148.543 110.79 151.353 110.565C155.115 110.264 158.639 108.616 161.638 105.757C166.882 100.759 168.299 92.1191 165.122 84.5194C162.253 77.6583 162.965 71.7726 167.125 67.9456C168.358 66.8121 169.366 65.8004 169.366 65.6977C169.366 65.5951 168.454 65.1469 167.339 64.7021C164.67 63.6361 160.039 63.6944 154.747 64.8611C152.39 65.3808 150.409 65.7561 150.344 65.6957C150.279 65.6354 151.418 64.356 152.875 62.8528C156.94 58.6585 157.785 54.5221 155.494 50.0305C153.484 46.0902 151.218 43.9929 145.486 40.7645C142.301 38.9705 137.103 34.1388 137.103 32.9711C137.103 31.4327 136.191 31.8206 135.33 33.7253ZM131.818 86.5791L127.327 91.7161L129.82 93.8749C131.192 95.0622 132.319 96.3295 132.325 96.6907C132.331 97.0524 132.692 97.2899 133.126 97.219C133.56 97.148 134.328 97.544 134.831 98.0994C135.335 98.6548 135.963 99.1091 136.228 99.1091C137.002 99.1091 145.153 92.3752 145.161 91.7292C145.168 91.1954 142.994 88.6206 138.094 83.3578L136.309 81.4415L131.818 86.5791ZM95.766 124.747C93.5373 126.702 92.3325 127.343 93.0413 126.198C93.2661 125.835 93.1794 125.754 92.8109 125.982C92.4863 126.182 92.3355 126.531 92.4757 126.757C92.6163 126.984 91.7361 127.983 90.5202 128.977C88.9419 130.268 88.3309 131.129 88.3833 131.988C88.4236 132.65 88.6923 133.1 88.9812 132.99C89.573 132.764 96.5221 138.587 96.5221 139.31C96.5221 139.566 96.7288 139.964 96.9809 140.195C97.2491 140.44 97.2839 140.344 97.0651 139.965C96.7903 139.49 97.0046 139.384 97.8661 139.569C98.838 139.779 99.6118 139.164 102.319 136.032C104.122 133.947 105.668 131.925 105.756 131.537C105.844 131.15 105.346 130.22 104.649 129.469C103.952 128.719 103.499 127.915 103.644 127.681C103.788 127.448 103.697 127.319 103.441 127.395C103.184 127.471 102.006 126.459 100.823 125.144C99.639 123.83 98.5275 122.755 98.3526 122.756C98.1776 122.756 97.0137 123.652 95.766 124.747ZM174.58 124.138C174.016 124.899 172.388 126.796 170.961 128.353L168.368 131.185L169.489 132.63C170.105 133.424 171.114 134.628 171.732 135.305C172.643 136.304 172.739 136.682 172.244 137.317C171.714 137.996 171.745 138.012 172.479 137.44C173.209 136.869 173.478 136.988 174.464 138.32C175.842 140.18 176.129 140.203 178.204 138.623C179.097 137.944 179.912 137.435 180.016 137.491C180.119 137.549 180.159 137.513 180.105 137.412C180.05 137.312 181.468 135.984 183.255 134.461C185.043 132.938 186.505 131.518 186.505 131.304C186.505 131.092 185.801 130.382 184.94 129.729C184.079 129.075 181.868 127.242 180.025 125.656C178.183 124.069 176.434 122.768 176.14 122.763C175.846 122.758 175.143 123.377 174.58 124.138ZM168.293 133.697C167.666 134.495 167.684 134.512 168.484 133.887C168.968 133.507 169.366 133.111 169.366 133.006C169.366 132.592 168.952 132.858 168.293 133.697ZM5.78067 155.94C2.90524 157.333 -1.61156 161.183 0.741614 160.236C4.24718 158.825 7.65293 159.636 10.9463 162.665C14.7911 166.202 14.8753 166.525 14.717 177.099C14.6182 183.693 14.7926 187.539 15.3124 190.251C17.3162 200.701 25.2009 208.552 34.836 209.69C40.0948 210.311 47.607 209.614 51.9464 208.101C54.047 207.369 55.9374 206.771 56.1481 206.771C56.3594 206.771 56.3548 208.526 56.1386 210.67C55.9223 212.814 55.7948 216.153 55.8553 218.09C56.4083 235.812 64.1514 243.607 83.0962 245.514C92.3174 246.442 95.7695 246.994 97.308 247.788C100.218 249.29 102.682 255.016 101.995 258.68L101.682 260.35L103.789 258.338C104.949 257.231 106.48 255.135 107.193 253.682C108.935 250.129 108.725 246.047 106.646 243.053C105.869 241.934 97.5404 233.37 88.1378 224.021C78.7352 214.671 70.3544 205.924 69.5141 204.581C67.3484 201.122 66.6487 197.294 67.6947 194.636L68.5018 192.586L67.2622 192.896C64.2118 193.66 61.4604 193.756 58.7443 193.193C55.8961 192.604 55.5846 192.365 47.9811 184.963C43.6745 180.77 35.4333 172.652 29.6673 166.922C23.9013 161.192 18.276 156.041 17.1665 155.476C14.0773 153.903 9.61139 154.085 5.78067 155.94ZM255.162 155.581C254.02 156.204 245.046 164.681 235.221 174.418C217.883 191.602 217.272 192.148 214.452 192.966C211.656 193.777 208.467 193.741 205.226 192.86C204.143 192.566 204.074 192.647 204.47 193.743C204.709 194.406 204.897 196.306 204.888 197.967C204.855 203.463 204.287 204.184 184.453 223.876C172.358 235.885 166.083 242.477 165.302 244C162.81 248.849 164.497 254.744 169.646 259.182C170.602 260.006 170.627 259.95 170.649 256.918C170.685 251.904 173.189 248.131 177.179 247.08C178.288 246.788 181.918 246.31 185.245 246.018C204.565 244.325 212.336 239.55 215.481 227.44C216.59 223.167 217.053 213.308 216.307 209.842C215.986 208.348 215.826 207.023 215.953 206.897C216.08 206.77 218.297 207.365 220.879 208.22C224.051 209.269 226.882 209.836 229.607 209.968C243.72 210.653 251.827 205.672 256.453 193.475C257.037 191.936 257.305 188.402 257.533 179.275L257.837 167.124L259.393 164.981C261.92 161.501 264.768 159.732 267.842 159.732C269.27 159.732 271.007 159.912 271.7 160.132C273.839 160.812 269.414 157.148 266.346 155.7C262.779 154.016 258.125 153.966 255.162 155.581ZM7.32778 156.874L5.34412 157.763L7.61664 158.629C10.4497 159.709 14.3157 163.246 15.4843 165.827C16.2455 167.508 16.3493 169.095 16.2278 177.174C16.0252 190.642 17.2506 195.419 22.4878 201.578C25.0633 204.607 26.9799 205.89 31.0632 207.319C37.3277 209.511 48.6319 208.244 56.5882 204.458C57.6121 203.971 58.5754 203.697 58.7292 203.851C58.8829 204.005 58.6278 206.362 58.162 209.088C57.0737 215.463 57.414 223.611 58.9797 228.655C61.7715 237.651 69.1461 242.476 82.4071 243.981C97.979 245.749 98.227 245.814 100.674 248.777C102.072 250.47 103.664 254.59 103.381 255.781C103.105 256.942 105.097 254.603 105.917 252.804C107.04 250.339 107.105 247.579 106.095 245.167C105.4 243.507 94.6988 232.422 74.7946 212.745C67.8202 205.85 66.4597 203.643 66.0488 198.559L65.7716 195.127L61.9751 195.038C59.016 194.968 57.6519 194.671 55.7912 193.69C54.2209 192.863 47.354 186.49 35.7338 175.076C26.0156 165.53 17.3424 157.332 16.4602 156.86C14.3445 155.726 9.87303 155.733 7.32778 156.874ZM256.172 156.72C255.256 157.117 250.133 161.805 244.787 167.139C221.342 190.533 218.159 193.477 215.292 194.428C213.512 195.017 211.644 195.243 209.697 195.103L206.775 194.891L206.573 197.938C206.156 204.251 205.48 205.123 185.597 224.986C175.699 234.873 167.185 243.756 166.677 244.724C165.458 247.049 165.507 250.374 166.802 253.212C168.156 256.178 168.697 256.464 169.134 254.443C169.72 251.737 171.228 249.241 173.399 247.386C175.56 245.539 177.343 245.161 188.27 244.225C199.632 243.251 207.062 239.897 210.994 233.967C215.012 227.91 216.165 216.105 213.763 205.639C213.244 203.379 213.756 203.233 216.788 204.777C220.691 206.764 227.945 208.281 233.52 208.274C239.135 208.268 242.581 207.491 245.482 205.575C248.363 203.673 251.69 200.007 253.148 197.13C255.609 192.272 256.072 189.344 256.075 178.618C256.077 173.211 256.309 167.959 256.591 166.946C257.296 164.41 261.311 160.306 264.543 158.815L267.217 157.581L264.832 156.769C261.911 155.776 258.394 155.756 256.172 156.72ZM132.29 165.025C130.085 166.942 128.111 168.517 127.903 168.524C127.004 168.552 127.658 169.977 129.301 171.565C130.278 172.511 130.961 173.585 130.819 173.955C130.677 174.323 130.766 174.498 131.017 174.344C131.268 174.189 132.561 175.333 133.891 176.886L136.308 179.709L137.795 178.022C138.614 177.093 140.607 174.874 142.226 173.089C145.359 169.636 145.523 169.3 144.538 168.374C143.762 167.643 138.147 162.945 137.079 162.132C136.433 161.64 135.608 162.139 132.29 165.025Z" fill="url(#paint0_linear_505_14)"/>
<defs>
<linearGradient id="paint0_linear_505_14" x1="136.48" y1="0" x2="136.48" y2="260.35" gradientUnits="userSpaceOnUse">
<stop stop-color="#AEB1B1"/>
<stop offset="1" stop-color="#4D4D4D"/>
</linearGradient>
</defs>
</svg>
