<svg width="273" height="261" viewBox="0 0 273 261" fill="none" xmlns="http://www.w3.org/2000/svg">
<path opacity="0.07" fill-rule="evenodd" clip-rule="evenodd" d="M119.509 0.146816C116.979 0.471215 114.917 1.42501 113.543 2.90586C110.305 6.39508 109.983 12.8537 112.884 16.1275C114.216 17.6302 115.248 18.079 117.401 18.0911C120.412 18.1083 122.547 16.7836 123.854 14.0869L124.462 12.833L124.873 15.0383C125.099 16.2512 125.27 18.0719 125.252 19.0841C125.115 27.2675 117.056 34.7854 102.526 40.2849C100.471 41.0628 96.713 42.2737 96.3538 42.2737C96.2685 42.2737 96.1988 41.0987 96.1988 39.6626C96.1988 36.7276 95.7443 34.5091 94.7388 32.5364C93.6862 30.4712 89.283 26.6357 89.001 27.5386C87.0699 33.7262 86.4257 35.4381 84.8371 38.6043C82.6509 42.9617 79.8828 46.2622 75.6428 49.5673C70.167 53.8352 68.9028 54.8968 66.9573 56.8602C62.4602 61.3989 58.9272 67.0266 57.1475 72.4862C56.0905 75.7291 55.7637 77.6118 55.6354 81.1971C55.4953 85.1177 56.0186 88.8063 57.1122 91.6035C57.4777 92.5381 57.7319 93.3472 57.6773 93.4015C57.4861 93.5913 53.0027 92.9805 50.5059 92.4243C47.1027 91.6661 45.0117 90.9688 42.3147 89.6933C38.5475 87.9114 35.2561 85.2615 33.5792 82.6604L32.8164 81.4772L31.8464 82.5501C30.3287 84.2283 28.787 86.6866 28.254 88.2777C27.552 90.3732 27.6847 93.3137 28.5508 94.8528C28.8838 95.4449 29.13 95.9481 29.0979 95.9711C29.0654 95.9942 27.8497 96.3907 26.3964 96.8523C13.8958 100.823 3.88463 111.904 0.992213 124.972C0.212272 128.495 0.00357686 130.443 2.46121e-05 134.234C-0.00619183 140.625 1.1645 144.747 4.29514 149.356C7.82186 154.549 14.6089 158.707 22.2675 160.367C24.5989 160.872 29.2626 161.047 31.2321 160.703C33.7275 160.266 36.1748 159.426 38.6967 158.138C43.3677 155.752 45.3969 154.013 55.3517 143.863C62.3589 136.718 68.0998 133.057 73.3867 132.361C73.9668 132.285 74.4412 132.175 74.4412 132.117C74.4412 131.86 72.5981 129.573 71.1572 128.042C68.6127 125.339 65.3697 123.417 62.6744 123.015C60.0659 122.626 56.9326 123.588 54.8333 125.424L53.8044 126.324L52.6095 123.808C49.9804 118.271 47.6666 116.168 43.137 115.199C37.7722 114.051 32.6221 114.791 28.8099 117.258C27.1124 118.357 24.8864 120.662 23.8516 122.394C22.8883 124.006 21.8593 126.98 21.6921 128.635C21.53 130.241 22.0355 132.762 22.8583 134.45C23.3914 135.543 26.1954 138.645 26.6508 138.645C26.7434 138.645 26.8206 137.826 26.8229 136.826C26.83 133.506 27.8293 131.603 30.166 130.461C31.5329 129.792 31.6755 129.769 33.6454 129.879C36.3777 130.033 37.9636 130.754 39.7519 132.654C41.3567 134.359 41.6964 135.299 41.6784 137.983C41.6333 144.665 37.9874 149.573 31.9341 151.102C31.1413 151.302 29.6158 151.436 28.1288 151.436C19.6213 151.436 13.043 147.498 10.3628 140.802C8.40532 135.912 8.46371 129.137 10.5109 123.622C13.4457 115.715 20.2658 108.748 29.483 104.241C35.2543 101.419 39.246 100.426 44.7235 100.451C50.6629 100.477 55.0903 101.184 57.0991 102.427L58.0731 103.03L58.104 105.786C58.1404 109.048 58.596 110.504 60.0233 111.922C61.3314 113.222 62.6782 113.778 64.8038 113.897C66.2828 113.98 66.7821 113.917 67.6307 113.545C69.0776 112.909 70.1415 112.051 70.9407 110.875C71.3181 110.32 71.658 109.827 71.6962 109.78C71.8017 109.649 74.9692 112.046 77.2393 113.975C84.9863 120.558 90.8151 129.584 92.8856 138.204C93.1625 139.356 93.4123 140.331 93.4405 140.37C93.4897 140.437 97.6226 138.309 98.0859 137.978C98.208 137.89 99.1376 137.398 100.152 136.883C102.295 135.795 102.233 136.161 100.934 132.277C98.9904 126.468 96.2139 122.099 88.8248 113.223C84.3074 107.796 82.0109 104.589 80.4403 101.513C77.9662 96.6679 77.0504 92.87 77.0568 87.4822C77.0712 75.3886 82.1465 66.8371 94.0896 58.7827C97.0831 56.7638 100.326 54.856 107.522 50.8807C122.817 42.4303 128.811 37.2562 132.593 29.2397C135.484 23.111 136.145 14.9633 134.202 9.4042C131.804 2.54463 126.562 -0.758237 119.509 0.146816ZM148.617 0.176147C144.232 0.836192 140.441 4.37437 138.713 9.41898C137.539 12.8476 137.269 15.731 137.725 19.9537C138.581 27.8795 142.193 34.4422 148.837 40.146C152.881 43.6176 157.191 46.3786 167.133 51.8672C179.744 58.8291 184.988 62.6943 189.575 68.4064C192.384 71.906 194.479 76.5654 195.375 81.3074C195.863 83.8902 195.925 90.8325 195.478 92.8852C194.812 95.9439 194.001 98.334 192.784 100.824C190.831 104.819 190.155 105.748 181.158 116.788C177.922 120.759 175.857 123.818 174.158 127.155C172.529 130.356 171.018 134.431 171.018 135.626C171.018 135.94 179.193 140.522 179.395 140.321C179.444 140.273 179.629 139.603 179.807 138.833C181.177 132.912 184.544 126.269 188.904 120.883C191.056 118.225 195.909 113.584 198.775 111.443L201.091 109.712L201.414 110.23C202.171 111.444 204.319 113.248 205.453 113.622C208.081 114.489 211.385 113.66 213.063 111.712C214.407 110.152 214.833 108.731 214.854 105.734C214.87 103.45 214.925 103.094 215.319 102.703C215.872 102.153 217.901 101.432 220.036 101.026C222.526 100.553 228.659 100.271 231.146 100.516C242.874 101.672 255.893 110.39 261.03 120.529C263.043 124.503 263.89 128.033 263.896 132.47C263.904 138.651 262.416 142.707 258.831 146.276C257.315 147.784 256.674 148.238 254.712 149.194C251.479 150.768 249.533 151.239 245.726 151.372C243.328 151.455 242.266 151.398 241.078 151.121C235.57 149.836 232.148 145.809 231.191 139.486C230.893 137.516 231.119 135.847 231.892 134.31C232.552 132.998 234.449 131.256 236.013 130.529C237.145 130.001 237.553 129.934 239.621 129.934C241.587 129.934 242.091 130.009 242.84 130.41C244.938 131.535 245.857 133.287 246.044 136.525L246.17 138.705L247.168 137.949C250.366 135.522 251.906 130.823 250.838 126.749C249.496 121.631 245.684 117.416 240.793 115.643C236.898 114.232 230.812 114.404 227.119 116.03C224.224 117.305 222.634 119.055 220.569 123.238L219.085 126.246L218.198 125.485C217.711 125.066 216.567 124.357 215.657 123.91C214.051 123.122 213.928 123.098 211.548 123.098C209.438 123.098 208.923 123.173 207.873 123.631C204.997 124.886 202.226 127.176 199.638 130.436L198.301 132.121L200.313 132.502C205.992 133.578 211.809 137.689 220.207 146.558C226.039 152.718 228.523 154.88 232.458 157.226C234.809 158.629 237.137 159.637 239.582 160.314C241.902 160.956 247.675 161.007 250.5 160.409C258.18 158.785 265.045 154.588 268.648 149.314C273.101 142.795 274.142 133.781 271.599 123.759C268.883 113.052 261.238 103.655 251.261 98.757C249.263 97.7763 245.319 96.3085 244.659 96.3001C243.873 96.29 243.828 95.9402 244.444 94.6331C244.986 93.4831 245.059 93.0751 245.048 91.2312C245.038 89.4657 244.941 88.9108 244.431 87.7028C243.676 85.9118 242.534 84.1884 241.115 82.6981L240.019 81.5467L239.146 82.8452C237.962 84.6052 235.173 87.1426 232.991 88.444C228.803 90.9419 222.544 92.8166 216.6 93.3532L215.004 93.4974L215.555 92.142C219.037 83.5791 217.359 72.4437 211.21 63.3162C208.073 58.6606 205.286 55.7988 199.681 51.4792C195.245 48.0599 193.726 46.7171 192.139 44.8098C188.787 40.78 186.647 36.5163 184.54 29.6645L183.816 27.3099L182.696 27.8738C182.08 28.1836 180.965 29.0448 180.218 29.7871C177.705 32.2826 176.386 36.13 176.633 40.24L176.757 42.3012L176.052 42.1482C175.664 42.0642 174.049 41.5539 172.461 41.0142C159.109 36.4751 150.292 29.7635 148.189 22.5363C147.477 20.0906 147.412 18.3846 147.923 15.5654C148.17 14.2045 148.408 13.0555 148.451 13.0121C148.495 12.9684 148.735 13.4196 148.983 14.0146C149.607 15.5052 150.841 16.7875 152.333 17.4963C154.104 18.3376 156.622 18.3423 158.279 17.5073C160.306 16.4854 161.514 14.5033 161.96 11.4635C162.181 9.9542 162.163 9.48734 161.825 8.07529C161.346 6.07355 160.592 4.36422 159.688 3.23004C158.849 2.179 156.883 0.978433 155.255 0.524363C153.656 0.0782317 150.402 -0.0924581 148.617 0.176147ZM135.332 48.2853C133.366 50.7696 129.727 53.6415 122.348 58.5309C117.831 61.5237 115.819 63.282 114.382 65.4906C112.324 68.6523 111.966 72.2939 113.387 75.5994C113.524 75.9161 113.151 75.9695 110.032 76.0793C105.873 76.2257 103.945 76.6602 100.972 78.1203C96.6566 80.2398 94.2073 83.4818 93.1876 88.4241C92.6825 90.8718 92.8421 96.4143 93.5002 99.2806C95.0876 106.195 98.8588 111.33 105.437 115.535C107.968 117.152 110.867 118.627 115.736 120.775C118.239 121.879 120.949 123.173 121.757 123.65C126.087 126.204 129.169 132.411 128.167 136.56C127.855 137.849 127.657 138.02 127.282 137.324C126.845 136.513 125.785 136.155 124.187 136.279C120.329 136.579 117.995 139.193 118.232 142.945C118.496 147.099 122.087 149.893 127.161 149.892C130.813 149.891 133.818 147.119 135.481 142.216C135.881 141.036 135.911 140.671 135.716 139.261C135.573 138.227 135.567 136.708 135.698 135.006C135.859 132.92 135.835 132.057 135.583 130.927C134.742 127.155 132.558 122.962 130.196 120.583C129.055 119.433 126.016 116.856 124.191 115.489C123.786 115.186 121.97 113.995 120.154 112.843C113.742 108.773 111.508 106.81 110.119 104.022C107.925 99.6202 108.579 94.5921 111.635 92.3592C113.736 90.825 118.137 90.2053 120.399 91.1254C125.058 93.0208 127.753 98.849 127.433 106.338C127.301 109.445 126.934 111.51 126.117 113.745L125.594 115.176L126.881 116.147C127.588 116.681 129.263 118.221 130.602 119.569L133.036 122.02L133.479 120.571C135.208 114.919 136.054 109.707 135.827 106.117C135.538 101.563 134.741 98.6549 132.098 92.5224C129.527 86.556 128.999 84.5315 129.024 80.7334C129.051 76.6884 130.214 72.8735 132.36 69.7894C133.645 67.9438 135.93 65.6498 136.484 65.6498C137.018 65.6498 140.606 69.3512 141.455 70.7769C143.166 73.6519 144.123 78.2103 143.844 82.1558C143.637 85.084 143.069 87.0985 141.241 91.3949C137.666 99.7955 137.205 101.605 137.179 107.33C137.163 110.83 137.235 111.753 137.684 113.83C138.229 116.348 139.651 121.676 139.825 121.848C139.88 121.902 140.825 121.001 141.926 119.846C143.027 118.69 144.678 117.174 145.595 116.476C146.512 115.779 147.262 115.169 147.262 115.121C147.262 115.073 147.11 114.672 146.924 114.229C145.53 110.917 144.981 104.076 145.812 100.383C146.195 98.6761 147.196 96.2776 148.085 94.9313C150.301 91.5775 153.062 90.2854 156.915 90.8003C161.956 91.4745 164.492 94.6858 164.011 99.7873C163.596 104.196 161.205 107.315 155.296 111.158C147.573 116.18 146.139 117.25 143.14 120.221C140.294 123.04 138.248 126.684 137.437 130.377C136.964 132.533 137.067 141.392 137.581 142.797C138.699 145.853 140.784 148.38 143.002 149.371C144.152 149.884 144.455 149.925 146.374 149.824C150.112 149.628 152.603 148.256 153.898 145.681C154.501 144.483 154.589 144.082 154.587 142.524C154.583 139.496 153.361 137.67 150.666 136.663C149.691 136.299 149.03 136.2 147.986 136.265C146.777 136.339 146.503 136.443 145.845 137.077L145.09 137.803L144.807 136.956C144.182 135.089 144.765 131.53 146.08 129.186C147.106 127.356 148.357 125.681 149.292 124.886C150.369 123.971 153.224 122.478 157.364 120.666C166.601 116.624 171.501 113.366 174.773 109.094C178.041 104.827 179.686 100.19 180.015 94.3186C180.476 86.0951 177.481 80.4685 171.168 77.6954C168.731 76.6245 166.481 76.1898 162.772 76.0727L159.299 75.9633L159.775 74.9414C160.165 74.1023 160.25 73.506 160.25 71.6041C160.25 68.8318 159.909 67.6928 158.386 65.3766C156.897 63.1111 155.003 61.4937 149.755 58.004C147.232 56.3265 144.066 54.0976 142.718 53.0507C140.381 51.2345 137.534 48.4972 136.811 47.3701L136.473 46.8431L135.332 48.2853ZM118.394 125.543C115.425 128.544 109.028 133.27 104.08 136.117C101.348 137.689 92.8954 141.953 92.5118 141.953C92.3577 141.953 91.6508 142.196 90.9406 142.494C90.2303 142.791 87.4514 143.873 84.765 144.897C79.0447 147.078 75.7058 148.613 72.3321 150.613C66.0058 154.362 62.0699 158.148 59.7003 162.76C58.3638 165.362 57.9228 167.424 58.0654 170.41C58.2039 173.314 58.0329 173.462 56.2957 171.943C54.9489 170.766 52.4017 169.455 50.4103 168.912C48.1273 168.291 43.6896 168.386 40.2508 169.13C32.8792 170.724 27.3461 170.494 20.5458 168.311C19.2936 167.909 18.2308 167.644 18.184 167.723C18.1372 167.801 18.2697 168.513 18.4786 169.305C19.9584 174.912 24.9226 178.73 32.488 180.078C38.5349 181.155 42.5691 183.285 46.8036 187.634C50.0697 190.989 52.2219 193.992 56.8976 201.717C59.752 206.433 62.7748 210.955 64.5627 213.184C71.4835 221.813 78.6169 226.07 89.2053 227.891C92.0067 228.373 101.251 228.438 104.302 227.997C108.587 227.379 112.709 226.122 114.849 224.781L116.015 224.051L114.455 222.422C113.597 221.526 112.321 220.445 111.62 220.02C110.918 219.596 109.519 218.635 108.51 217.885L106.676 216.521L105.152 217.048C92.6221 221.376 76.3874 213.667 71.7051 201.165C70.4179 197.728 70.1377 195.146 70.5577 190.597C71.3395 182.135 74.6755 174.231 80.6306 166.733C86.1175 159.824 91.481 155.602 103.303 148.884C106.97 146.801 113.785 142.35 116.232 140.439C117.047 139.803 117.921 138.948 118.176 138.539C118.833 137.482 120.032 136.498 121.383 135.904C122.138 135.573 123.267 134.707 124.602 133.436L126.659 131.478L126.091 130.202C125.264 128.347 123.835 126.43 122.534 125.433C121.523 124.659 120.446 124.09 119.989 124.09C119.902 124.09 119.184 124.744 118.394 125.543ZM151.481 124.659C150.068 125.457 149.14 126.385 147.915 128.229C146.576 130.245 146.231 131.201 146.636 131.771C147.271 132.665 150.531 135.476 151.37 135.853C152.858 136.521 153.887 137.33 154.591 138.386C155.322 139.483 157.608 141.265 162.248 144.355C164.929 146.141 167.01 147.403 172.683 150.681C179.555 154.652 183.199 157.329 187.629 161.662C197.282 171.102 202.564 182.687 202.541 194.367C202.538 196.261 201.878 199.477 201.092 201.43C199.81 204.617 197.984 207.297 195.295 209.934C191.073 214.075 186.141 216.612 179.918 217.845C175.991 218.622 170.94 218.247 167.342 216.909L166.132 216.46L165.029 217.418C164.422 217.945 163.349 218.714 162.643 219.128C160.655 220.293 159.09 221.534 157.976 222.828C156.786 224.213 156.796 224.238 159.012 225.325C162.934 227.249 167.19 228.094 174.126 228.326C189.058 228.825 199.848 224.05 208.338 213.183C210.029 211.019 212.667 207.12 214.904 203.481C220.996 193.57 222.189 191.83 225.138 188.567C228.162 185.22 231.719 182.728 235.483 181.321C236.277 181.024 238.44 180.477 240.29 180.104C242.141 179.731 244.321 179.164 245.134 178.843C248.923 177.349 251.895 174.85 253.373 171.917C254.153 170.37 254.929 167.881 254.698 167.668C254.648 167.622 253.594 167.915 252.355 168.319C245.85 170.44 239.335 170.707 232.629 169.126C229.45 168.377 224.601 168.294 222.304 168.95C220.38 169.5 218.22 170.628 216.58 171.94C215.475 172.825 215.176 172.969 214.887 172.755C214.59 172.537 214.574 172.357 214.784 171.614C215.176 170.222 214.863 167.122 214.11 164.952C212.508 160.334 208.921 156.163 203.21 152.278C198.973 149.395 194.741 147.378 186.226 144.181C173.068 139.241 162.436 133.037 154.626 125.738C153.656 124.832 152.776 124.091 152.671 124.093C152.566 124.094 152.03 124.349 151.481 124.659ZM103.081 150.27C102.165 150.807 100.307 151.949 98.952 152.808L96.4879 154.369L96.5955 157.522C96.7103 160.878 96.4568 164.722 95.7317 170.622C95.3147 174.015 94.1256 182.129 93.8527 183.444L93.732 184.026L92.3566 183.598C91.6002 183.363 90.2301 183.113 89.3121 183.043C87.891 182.934 87.4698 182.989 86.4796 183.412C84.4872 184.264 83.0677 186.399 82.6951 189.106C82.2917 192.036 83.121 194.489 85.2199 196.574C86.7978 198.141 88.0941 198.711 90.096 198.717C91.4898 198.722 91.7616 198.648 92.6894 198.014C93.2593 197.625 93.8117 197.306 93.9171 197.306C94.0224 197.306 94.2333 197.769 94.3856 198.335C94.894 200.223 96.4743 203.341 98.3903 206.237C101.413 210.805 106.128 215.216 112.073 219.034C113.837 220.167 117.276 223.657 119.042 226.104C123.269 231.962 124.783 238.876 122.915 243.783C122.719 244.298 122.486 244.72 122.397 244.72C122.308 244.72 122.062 244.27 121.851 243.721C121.64 243.172 121.081 242.237 120.609 241.644C118.536 239.039 113.819 238.123 110.342 239.651C107.511 240.894 105.469 244.501 105.15 248.82C104.758 254.129 107.928 258.093 113.891 259.751C115.291 260.14 116.223 260.234 118.733 260.237C121.531 260.241 122.004 260.184 123.47 259.663C125.69 258.875 127.31 257.869 128.888 256.298C131.447 253.749 133.224 250.415 134.18 246.367C134.903 243.31 134.901 238.501 134.175 235.506C133.213 231.536 131.37 227.835 128.341 223.794C127.313 222.422 123.769 218.679 118.295 213.184C108.642 203.495 107.302 201.87 105.836 198.075C105.326 196.753 105.239 196.19 105.228 194.108C105.213 191.336 105.586 189.794 106.66 188.183C109.862 183.382 117.706 183.379 122.489 188.177C124.115 189.808 124.981 191.211 125.741 193.447C126.182 194.744 126.263 195.412 126.251 197.637C126.238 199.896 126.15 200.529 125.653 201.964C124.569 205.084 122.426 208.195 119.693 210.613L118.401 211.757L121.633 214.951L124.866 218.146L126.826 216.124C130.938 211.884 133.926 206.216 135.138 200.358C135.885 196.748 135.962 194.099 135.895 174.381L135.829 154.875L134.843 156.377C133.883 157.841 131.829 160.055 129.201 162.455C126.896 164.563 125.452 166.851 124.697 169.594C124.206 171.379 124.086 174.888 124.453 176.738C124.753 178.252 124.748 178.339 124.354 178.464C124.07 178.553 123.745 178.388 123.328 177.946C122.54 177.107 121.333 176.512 119.399 176.006C117.255 175.445 112.153 175.421 110.408 175.963C108.744 176.48 106.593 177.772 105.047 179.185C104.056 180.091 103.656 180.326 103.301 180.214C103.001 180.12 102.881 179.941 102.955 179.701C103.658 177.445 104.998 170.421 105.55 166.101C105.982 162.713 105.927 154.442 105.455 151.904C105.243 150.766 104.997 149.714 104.908 149.565C104.791 149.37 104.281 149.567 103.081 150.27ZM167.705 150.609C167.183 153.167 167.03 155.037 167.026 158.935C167.02 164.498 167.663 169.919 169.051 176.025C169.41 177.602 169.762 179.163 169.833 179.495C170.061 180.558 169.381 180.491 168.079 179.322C165.078 176.628 162.199 175.473 158.483 175.474C154.586 175.474 150.786 176.531 149.586 177.949C149.189 178.417 148.92 178.553 148.594 178.451C148.242 178.339 148.176 178.185 148.283 177.718C148.358 177.393 148.47 175.835 148.531 174.255C148.628 171.774 148.577 171.141 148.163 169.614C147.322 166.52 146.268 164.95 142.693 161.47C140.948 159.772 139.003 157.688 138.37 156.839C137.736 155.99 137.177 155.25 137.126 155.195C137.075 155.14 137.067 164.766 137.108 176.586C137.182 197.852 137.188 198.1 137.674 200.173C139.279 207.023 141.989 212.047 146.574 216.673L147.952 218.063L151.104 215.039C152.838 213.376 154.285 211.944 154.32 211.857C154.356 211.77 153.671 211.016 152.799 210.181C149.709 207.223 147.782 204.194 146.925 200.945C145.878 196.981 146.987 192.066 149.62 188.997C153.997 183.895 161.437 183.059 165.402 187.224C167.784 189.725 168.437 194.239 166.989 198.188C165.683 201.75 163.754 204.096 154.929 212.848C150.773 216.97 146.802 221.019 146.104 221.846C142.064 226.636 139.585 231.349 138.596 236.119C138.185 238.1 138.133 238.913 138.231 241.743C138.31 244.007 138.488 245.607 138.796 246.815C140.346 252.895 143.929 257.481 148.608 259.375C153.682 261.428 161.288 260.118 164.854 256.576C167.13 254.316 168.048 251.667 167.681 248.419C167.049 242.819 164.377 239.527 160.028 238.989C156.023 238.493 152.691 240.174 151.146 243.471L150.439 244.979L149.96 243.692C149.227 241.72 149 240.162 149.163 238.214C149.489 234.305 150.904 230.453 153.361 226.785C155.188 224.058 158.76 220.415 161.279 218.711C167.841 214.271 171.348 210.981 174.567 206.242C175.939 204.223 177.906 200.291 178.455 198.471L178.86 197.128L180.072 197.928C181.183 198.66 181.417 198.727 182.867 198.725C184.197 198.723 184.641 198.619 185.643 198.074C189.091 196.202 190.801 192.656 190.123 188.787C189.793 186.908 188.98 185.389 187.704 184.274C186.637 183.341 185.639 182.975 184.161 182.973C183.155 182.972 180.272 183.55 179.635 183.881C179.428 183.988 179.209 183.994 179.147 183.895C178.978 183.623 177.532 173.892 177.027 169.629C176.373 164.103 176.066 158.483 176.306 156.398C176.417 155.427 176.472 154.568 176.426 154.487C176.207 154.097 168.592 149.451 168.172 149.451C168.045 149.451 167.835 149.972 167.705 150.609Z" fill="url(#paint0_linear_501_2)"/>
<defs>
<linearGradient id="paint0_linear_501_2" x1="136.48" y1="0" x2="136.48" y2="260.35" gradientUnits="userSpaceOnUse">
<stop stop-color="#AEB1B1"/>
<stop offset="1" stop-color="#4D4D4D"/>
</linearGradient>
</defs>
</svg>
