<svg width="338" height="329" viewBox="0 0 338 329" fill="none" xmlns="http://www.w3.org/2000/svg">
<path opacity="0.07" fill-rule="evenodd" clip-rule="evenodd" d="M138.328 29.2713C140.123 29.2376 146.958 22.6732 153.516 14.6846C160.074 6.69604 165.788 0.085152 166.214 0.000884076C166.641 -0.0875973 173.669 6.4769 181.834 14.5877C189.999 22.6985 198.02 29.3346 199.663 29.3346C201.305 29.3346 204.325 33.1266 206.373 37.7614C208.421 42.3961 211.518 46.1882 213.256 46.1882C214.99 46.1882 217.927 48.3285 219.775 50.9408C222.27 54.4675 219.372 59.8985 208.534 72.0078C200.503 80.9824 192.553 88.3221 190.863 88.3221C185.036 88.3221 188.085 94.676 198.354 103.929C204.024 109.035 208.662 111.357 208.662 109.09C208.662 106.823 211.682 103.09 215.369 100.794C219.056 98.5017 226.1 92.8811 231.019 88.3053C235.937 83.7296 241.583 78.8463 243.562 77.4516C245.542 76.057 254.931 83.224 264.428 93.374C273.926 103.524 285.465 115.195 290.076 119.303C299.689 127.878 299.335 133.7 288.639 142.915C278.564 151.595 264.169 165.52 262.318 168.377C261.498 169.641 257.024 174.103 252.377 178.287C244.662 185.23 243.476 185.315 238.73 179.239C235.869 175.582 231.958 172.59 230.038 172.59C222.377 172.59 227.421 164.492 244.531 149.328C254.422 140.564 262.035 131.311 261.451 128.762C260.866 126.217 256.765 121.642 252.338 118.591C245.208 113.678 243.017 114.121 233.18 122.455C227.072 127.633 216.71 137.851 210.153 145.165C203.595 152.48 195.555 159.861 192.288 161.576C186.568 164.568 186.624 164.998 193.779 172.889C203.58 183.705 232.423 211.4 239.961 217.231C244.749 220.935 247.685 220.033 254.866 212.647C276.367 190.531 295.188 172.59 296.884 172.59C297.895 172.59 303.788 166.919 309.982 159.984C319.763 149.037 321.73 148.203 324.935 153.663C326.967 157.123 330.396 159.95 332.557 159.95C341.142 159.95 339.276 168.145 328.661 177.09C322.502 182.277 316.108 188.601 314.451 191.142C310.093 197.82 292.744 214.724 290.246 214.724C289.08 214.724 285.661 217.876 282.654 221.723C279.643 225.574 274.599 230.786 271.445 233.309C260.592 241.989 213.13 287.595 210.12 292.238C205.297 299.67 188.294 315.846 185.301 315.846C183.796 315.846 180.895 318.69 178.853 322.166C174.251 330.003 159.12 330.462 155.9 322.857C154.589 319.764 142.57 307.368 129.195 295.309C115.816 283.255 103.13 270.421 100.998 266.793C98.8671 263.161 94.3868 258.413 91.0393 256.239C80.2693 249.236 56.461 227.849 52.1655 221.314C50.526 218.819 38.1166 206.596 24.5923 194.154C11.0651 181.708 0 169.7 0 167.467C0 165.233 2.9481 160.034 6.55199 155.909C12.9132 148.624 13.5302 148.78 28.1634 161.315C36.4443 168.415 48.7256 180.49 55.4534 188.154C62.1813 195.814 68.8883 202.151 70.3579 202.236C71.8274 202.32 76.9695 206.938 81.7836 212.499C88.9169 220.741 91.6712 221.769 96.688 218.053C100.071 215.546 103.914 210.928 105.225 207.789C106.537 204.65 109.112 202.084 110.952 202.084C112.791 202.084 116.758 198.932 119.766 195.085C126.127 186.945 136.385 178.076 143.828 174.271C151.018 170.601 150.359 165.621 141.825 159.128C137.854 156.103 125.167 144.533 113.634 133.414C92.9202 113.442 92.5565 113.278 83.593 119.83C78.603 123.475 74.5699 127.831 74.6295 129.512C74.6891 131.189 81.6375 139.199 90.0705 147.31C98.5034 155.421 105.786 163.953 106.257 166.27C106.725 168.587 103.738 173.959 99.6153 178.207C93.3971 184.615 91.3314 185.003 87.4771 180.478C82.5586 174.709 73.9469 167.281 64.0891 160.308C60.8101 157.986 53.4324 150.322 47.6942 143.273L37.2611 130.456L47.6942 117.925C53.4324 111.032 65.8955 98.5438 75.3926 90.1718L92.6549 74.9488L103.681 86.9022C123.608 108.504 127.972 110.489 139.13 103.002C149.175 96.2644 152.371 88.3221 145.035 88.3221C142.829 88.3221 138.596 84.5301 135.63 79.8954C132.664 75.2606 128.977 71.4686 127.442 71.4686C125.904 71.4686 121.489 67.9546 117.626 63.6611C112.344 57.7919 111.452 54.6613 114.028 51.021C115.909 48.3623 118.982 46.1882 120.86 46.1882C122.738 46.1882 126.703 42.3961 129.669 37.7614C132.635 33.1266 136.534 29.305 138.328 29.2713ZM158.357 46.6053C151.972 55.0152 151.891 55.8495 156.765 63.4589C163.198 73.5078 169.118 73.5416 179.792 63.5938L188.183 55.7694L177.387 46.7654C171.449 41.8146 166.247 37.7614 165.83 37.7614C165.415 37.7614 162.05 41.743 158.357 46.6053ZM159.337 141.247C150.302 132.879 150.162 128.564 158.652 120.163C159.19 119.629 159.687 119.132 160.148 118.67C162.88 115.931 164.357 114.451 165.925 114.22C167.767 113.949 169.736 115.401 174.019 118.56C174.636 119.016 175.302 119.506 176.021 120.032C187.074 128.109 187.033 131 175.732 140.438C167.323 147.457 166.107 147.516 159.337 141.247ZM158.652 193.687C145.929 210.439 162.598 226.682 177.932 212.478L185.912 205.088L177.744 195.157C167.818 183.09 166.76 183.01 158.652 193.687ZM109.777 240.325L119.721 231.755C120.649 230.955 121.494 230.217 122.269 229.54C126.683 225.687 128.814 223.826 130.872 223.978C132.793 224.119 134.65 226.016 138.241 229.683C138.916 230.373 139.653 231.125 140.462 231.94L149.196 240.729L141.944 248.794C132.739 259.028 126.554 258.977 117.211 248.591L109.777 240.325ZM157.799 267.674L150.612 278.49L158.026 286.541C158.395 286.942 158.747 287.326 159.085 287.695C162.614 291.543 164.536 293.639 166.581 293.917C169.026 294.249 171.647 291.983 177.402 287.009C177.863 286.611 178.345 286.195 178.847 285.762C188.41 277.525 188.771 276.514 183.214 273.611C179.882 271.866 175.363 267.383 173.169 263.65C167.842 254.579 166.223 255 157.799 267.674ZM187.28 240.325L196.914 232.041C206.745 223.593 208.74 224.09 223.245 238.622C225.304 240.687 210.299 256.571 206.152 256.719C203.949 256.795 198.804 253.138 194.714 248.591L187.28 240.325Z" fill="url(#paint0_linear_507_15)"/>
<defs>
<linearGradient id="paint0_linear_507_15" x1="168.985" y1="0" x2="168.985" y2="328.31" gradientUnits="userSpaceOnUse">
<stop stop-color="#AEB1B1"/>
<stop offset="1" stop-color="#4D4D4D"/>
</linearGradient>
</defs>
</svg>
