<svg width="273" height="266" viewBox="0 0 273 266" fill="none" xmlns="http://www.w3.org/2000/svg">
<g opacity="0.07">
<path d="M112.117 0.471382C112.184 0.539533 112.652 0.468254 113.158 0.313523C113.663 0.158444 114.298 0.0179677 114.568 0.0016253C115.393 -0.0484451 119.517 1.07188 120.063 1.4947C120.345 1.71306 121.101 2.18803 121.744 2.55035C122.387 2.91266 123.388 3.76073 123.968 4.43529C124.547 5.1095 125.275 5.9068 125.583 6.20688C126.49 7.08797 128.614 10.0313 128.614 10.4062C128.614 10.5957 128.729 10.7508 128.871 10.7508C129.101 10.7508 130.269 12.9073 131.037 14.7494C131.312 15.4111 132.367 18.9108 133.08 21.5298C134.16 25.4937 135.211 35.4083 134.505 34.9646C134.318 34.8475 133.973 33.6934 133.739 32.3999C133.504 31.1068 133.211 29.8922 133.087 29.701C132.962 29.5098 132.652 28.7274 132.398 27.9624C130.958 23.6373 125.741 18.2474 120.112 15.2696C118.923 14.6406 117.87 13.9139 117.773 13.6552C117.675 13.3965 117.223 13.1847 116.767 13.1847C115.346 13.1847 111.089 10.8043 109.545 9.14677C108.296 7.80634 108.091 7.37414 108.091 6.08587C108.091 5.11228 108.331 4.27534 108.775 3.70162C109.151 3.21552 109.459 2.64666 109.459 2.43769C109.459 2.22906 109.589 2.05799 109.748 2.05799C109.907 2.05799 110.477 1.67307 111.016 1.20262C111.554 0.732164 112.05 0.403231 112.117 0.471382Z" fill="url(#paint0_linear_401_2)"/>
<path d="M149.82 2.87093C149.82 2.56982 152.073 1.38343 153.583 0.889679C153.865 0.797536 155.223 0.709563 156.6 0.694612C158.675 0.67201 159.35 0.813876 160.534 1.52181C162.478 2.68491 162.896 3.50551 162.882 6.12412C162.867 8.67458 162.452 9.20379 159.669 10.2212C158.767 10.5508 158.029 10.9423 158.029 11.0912C158.029 11.24 157.579 11.5515 157.028 11.7835C156.477 12.0154 155.943 12.4257 155.841 12.6952C155.74 12.9643 155.267 13.1847 154.791 13.1847C154.315 13.1847 153.925 13.3436 153.925 13.5377C153.925 13.7317 153.425 14.1973 152.813 14.5724C150.934 15.7251 150.454 16.0944 149.073 17.4442C148.34 18.1612 147.609 18.7481 147.449 18.7481C147.289 18.7481 146.299 19.6222 145.248 20.6904C142.121 23.8688 140.223 27.9861 138.009 36.3944C137.521 38.2443 136.582 36.4045 136.942 34.3071C137.205 32.7786 137.745 30.0365 138.157 28.1363C138.343 27.2757 138.591 26.1022 138.707 25.5285C138.823 24.9547 139.077 23.703 139.271 22.7468C139.686 20.705 139.882 20.0096 141.289 15.6187C141.871 13.8019 142.49 12.1666 142.663 11.9851C142.837 11.8036 142.98 11.3971 142.98 11.0825C142.98 10.7678 143.903 9.39225 145.032 8.0254C146.161 6.6589 147.084 5.40818 147.084 5.24615C147.084 4.79934 149.38 2.7694 149.615 3.00828C149.728 3.12303 149.82 3.06113 149.82 2.87093Z" fill="url(#paint1_linear_401_2)"/>
<path d="M33.5218 43.1289C34.1819 42.6282 34.7627 42.1344 34.8123 42.0315C35.0555 41.5249 36.696 41.8142 39.1689 42.7996C40.6739 43.3991 42.0568 44.0277 42.2422 44.1967C42.4526 44.388 42.5418 47.9374 42.4796 53.6183C42.3736 63.2735 42.484 64.2735 44.1194 68.4707C44.9382 70.5716 46.5465 73.337 46.9505 73.338C47.0914 73.3383 47.207 73.5119 47.207 73.7233C47.207 74.1958 48.9193 76.4587 50.8604 78.5516C51.657 79.4108 52.1848 80.2397 52.0332 80.3938C51.6074 80.8267 49.9163 79.9323 48.4041 78.4747C47.6516 77.7491 46.7668 77.0686 46.4374 76.9622C46.1083 76.8558 45.8388 76.6232 45.8388 76.4448C45.8388 76.2664 45.6377 76.1204 45.3921 76.1204C44.9601 76.1204 43.885 75.3916 41.4011 73.4148C38.9446 71.46 34.1949 66.3313 32.5736 63.8827C30.2098 60.3124 29.9642 59.3639 29.9645 53.812C29.9649 49.5518 30.0469 48.8891 30.7622 47.3793C31.2007 46.4534 31.7308 45.3229 31.9402 44.8674C32.1495 44.4119 32.8613 43.6296 33.5218 43.1289Z" fill="url(#paint2_linear_401_2)"/>
<path d="M235.674 48.9023C235.674 48.3682 236.888 47.2409 238.068 46.6801C239.569 45.9666 240.96 46.1467 242.382 47.2385C244.849 49.1328 244.965 49.2865 244.539 50.0939C244.268 50.6102 244.259 51.0584 244.509 51.6172C244.85 52.3766 244.775 52.8203 243.639 56.8224C243.531 57.2049 243.331 57.6743 243.196 57.8656C243.061 58.0568 242.845 58.6827 242.715 59.2564C242.585 59.8301 241.948 61.1838 241.3 62.2645C240.651 63.3451 240.12 64.3716 240.12 64.5458C240.12 64.72 239.851 65.1658 239.522 65.5364C239.192 65.9074 238.23 67.0667 237.384 68.1133C236.537 69.1596 235.596 70.2733 235.291 70.588C234.987 70.903 234.063 72.0786 233.239 73.201C231.561 75.4858 230.366 76.9591 229.335 78.0158C227.595 79.7988 223.46 83.35 221.866 84.4303C220.901 85.0847 219.746 85.9832 219.301 86.4269C217.926 87.7972 214.824 89.735 214.202 89.6126C213.729 89.5194 213.847 89.2896 214.79 88.4586C217.842 85.7721 218.815 84.7794 219.273 83.8813C219.546 83.3472 220.022 82.5955 220.331 82.2102C223.579 78.1646 224.617 76.6739 226.145 73.8603C227.584 71.2124 229.175 67.5983 229.175 66.9794C229.175 66.7287 229.305 66.3747 229.466 66.1932C229.625 66.0114 230.023 65.1588 230.349 64.2982C230.675 63.4376 231.136 62.2641 231.373 61.6904C231.867 60.5002 232.327 58.9751 232.949 56.4747C233.186 55.5185 233.512 54.5873 233.672 54.4058C233.832 54.224 233.963 53.8234 233.963 53.515C233.963 53.2066 234.277 52.2942 234.661 51.4868C235.044 50.6798 235.266 49.8682 235.154 49.6832C235.041 49.4979 235.112 49.3467 235.311 49.3467C235.51 49.3467 235.674 49.1467 235.674 48.9023Z" fill="url(#paint3_linear_401_2)"/>
<path d="M21.3453 75.048C21.8892 75.0529 22.5582 74.9295 22.8319 74.7737C23.5929 74.3408 27.6236 74.6117 35.4064 75.6186C37.9485 75.9476 38.9979 76.2045 38.9979 76.4987C38.9979 76.6732 39.3444 76.8144 39.7675 76.8127C40.8296 76.8085 48.5249 80.3538 48.7503 80.9511C48.8508 81.2175 48.8673 81.5029 48.7862 81.585C48.6234 81.7509 47.1523 81.3315 44.8127 80.4525C42.6079 79.6246 34.7405 79.9323 31.1309 80.988C28.9151 81.6358 23.4342 84.1 22.4087 84.9091C22.2206 85.0576 21.2971 85.671 20.3565 86.2718C19.4159 86.873 18.1845 87.7989 17.6201 88.3302C17.0557 88.8612 15.717 89.7034 14.6447 90.2013C13.0449 90.9443 12.3807 91.0702 10.94 90.9026C9.89537 90.7813 8.8925 90.4221 8.46357 90.016C8.06714 89.6404 7.6071 89.3334 7.44086 89.3334C6.39044 89.3334 5.63624 86.2078 6.47151 85.3173C6.98766 84.7669 8.21388 82.3865 8.21422 81.9341C8.21491 81.2954 9.59267 79.835 11.0358 78.9428C11.7414 78.5067 12.3184 78.0352 12.3184 77.8951C12.3184 76.9935 18.5662 75.023 21.3453 75.048Z" fill="url(#paint4_linear_401_2)"/>
<path d="M237.565 78.4153C243.54 77.1611 244.225 76.9883 244.225 76.7362C244.225 76.5887 244.379 76.4681 244.567 76.4681C244.755 76.4681 244.909 76.6326 244.909 76.8335C244.909 77.0491 245.646 77.1788 246.705 77.1493C247.692 77.1218 249.325 77.2692 250.332 77.4772C251.339 77.6847 252.301 77.7682 252.47 77.6625C252.638 77.5568 252.776 77.6541 252.776 77.8791C252.776 78.1037 253.056 78.2133 253.399 78.1222C254.002 77.9619 254.444 78.1496 257.57 79.8913C259.507 80.9709 261.596 82.9668 262.16 84.2773C263.516 87.4293 263.518 87.453 262.471 88.815C261.313 90.3205 258.88 91.6617 257.241 91.6982C255.305 91.7416 247.154 88.6599 246.277 87.5528C245.945 87.1338 240.274 84.8653 239.036 84.6563C236.927 84.3003 230.823 84.4084 228.869 84.8361C227.854 85.0583 226.007 85.7509 224.764 86.3754C223.521 86.9999 222.241 87.6011 221.917 87.7117C220.906 88.0569 220.864 87.2544 221.853 86.4641C222.372 86.0486 223.177 85.3511 223.642 84.9133C224.106 84.4759 224.606 84.1177 224.754 84.1177C224.901 84.1177 225.225 83.9129 225.473 83.6626C226.373 82.7561 232.854 79.5975 233.814 79.5975C234.197 79.5975 234.662 79.4442 234.846 79.2564C235.031 79.069 236.254 78.6903 237.565 78.4153Z" fill="url(#paint5_linear_401_2)"/>
<path d="M12.3184 169.409C12.3184 169.235 12.971 168.754 13.7687 168.342C16.8857 166.733 21.4083 168.247 25.3791 172.23C26.6364 173.491 27.8052 174.523 27.9769 174.523C28.1483 174.523 28.5673 174.835 28.9076 175.218C29.2479 175.6 29.8106 175.913 30.1578 175.913C30.505 175.913 30.7888 176.035 30.7888 176.184C30.7888 176.512 34.4545 177.652 35.5087 177.652C35.9229 177.652 36.2616 177.799 36.2616 177.978C36.2616 178.268 39.1518 178.927 39.7439 178.772C39.8718 178.739 41.1706 179.022 42.6304 179.401C44.0899 179.781 45.5241 180.017 45.818 179.927C46.1118 179.837 46.8441 179.678 47.4461 179.575C48.0477 179.471 48.9429 179.231 49.4351 179.041C49.9273 178.851 50.6466 178.695 51.0338 178.695C51.6142 178.695 51.6642 178.784 51.3197 179.207C51.0902 179.488 50.3788 179.91 49.7388 180.146C49.0988 180.381 48.5752 180.698 48.5752 180.851C48.5752 181.004 48.3487 181.129 48.0724 181.129C47.7957 181.129 46.7565 181.505 45.7636 181.965C43.0207 183.233 38.2841 184.606 36.6491 184.606C35.8467 184.606 34.8636 184.784 34.4644 185.001C33.5303 185.509 26.3802 185.552 25.506 185.055C25.0415 184.791 24.6132 184.788 24.0564 185.046C23.4561 185.324 22.9981 185.28 22.1532 184.864C17.0674 182.357 15.7987 181.655 15.036 180.924C14.5554 180.463 13.9941 180.086 13.7889 180.086C12.9461 180.086 10.888 177.1 10.1523 174.809C9.86836 173.925 10.533 171.885 11.4763 170.745C11.9394 170.186 12.3184 169.585 12.3184 169.409Z" fill="url(#paint6_linear_401_2)"/>
<path d="M245.905 180.825C247.675 179.787 249.753 178.736 250.522 178.491C251.291 178.246 252.152 178.133 252.434 178.24C252.716 178.347 253.501 178.546 254.177 178.682C256.413 179.132 257.85 180.718 257.98 182.88C258.151 185.719 257.935 186.361 256.247 188.033C255.204 189.066 254.028 189.845 253.083 190.13C252.256 190.38 251.049 190.815 250.402 191.098C248.226 192.049 242.193 192.637 238.55 192.252C236.742 192.062 235.15 191.835 235.011 191.748C234.873 191.661 233.542 191.34 232.053 191.035C230.564 190.729 228.653 190.232 227.807 189.931C224.59 188.784 221.901 187.669 220.978 187.099C219.599 186.246 216.063 182.868 216.55 182.868C216.776 182.868 218.059 183.405 219.402 184.061C222.743 185.695 225.618 186.148 230.85 185.863C237.059 185.526 239.002 184.875 245.905 180.825Z" fill="url(#paint7_linear_401_2)"/>
<path d="M44.8462 187.497C46.6149 185.74 48.6644 183.667 49.4005 182.889C50.1366 182.113 50.7906 181.477 50.8542 181.477C51.2417 181.477 50.7184 182.453 48.7462 185.41C47.5234 187.244 46.5229 188.908 46.5229 189.109C46.5229 189.31 46.3953 189.474 46.2393 189.474C45.9951 189.474 45.021 191.465 44.1132 193.82C43.3549 195.787 43.1449 198.296 43.1144 205.762C43.0959 210.261 42.9455 214.109 42.7799 214.313C42.614 214.517 42.5035 215.492 42.534 216.48C42.5798 217.961 42.4392 218.441 41.7343 219.211C41.264 219.726 40.4944 220.3 40.024 220.487C38.6996 221.015 35.5775 220.876 34.907 220.259C34.5876 219.965 34.1983 219.725 34.0417 219.725C33.8854 219.725 33.3179 219.225 32.7809 218.613L31.8044 217.501L31.9898 213.31C32.0917 211.006 32.3407 208.65 32.5428 208.077C32.7446 207.503 33.0272 206.721 33.1701 206.338C33.3135 205.956 33.6275 205.017 33.8686 204.252C34.4412 202.435 37.0045 196.983 37.3564 196.834C37.5066 196.77 37.6297 196.526 37.6297 196.291C37.6297 196.056 37.8993 195.561 38.2283 195.19C38.5574 194.819 39.4576 193.655 40.2286 192.603C40.9996 191.552 43.0775 189.254 44.8462 187.497Z" fill="url(#paint8_linear_401_2)"/>
<path d="M216.177 186.667C216.177 186.119 215.098 184.899 213.441 183.574C212.97 183.198 212.759 182.886 212.971 182.879C213.184 182.873 213.535 183.086 213.752 183.352C213.97 183.618 214.636 184.041 215.233 184.293C215.83 184.545 216.556 184.964 216.846 185.225C218.364 186.591 219.472 187.387 219.854 187.387C220.089 187.387 220.246 187.505 220.202 187.649C220.124 187.906 220.832 188.882 222.163 190.35C222.539 190.765 223.225 191.638 223.687 192.289C224.149 192.94 224.648 193.629 224.796 193.82C226.676 196.251 227.807 197.851 227.807 198.08C227.807 198.235 228.114 198.587 228.491 198.862C228.867 199.138 229.175 199.633 229.175 199.962C229.175 200.291 229.329 200.656 229.517 200.775C229.705 200.893 229.859 201.362 229.859 201.818C229.859 202.273 230.013 202.743 230.201 202.861C230.389 202.979 230.543 203.381 230.543 203.755C230.543 204.128 230.836 205.096 231.196 205.907C232.276 208.349 232.859 211.646 232.751 214.716C232.654 217.492 230.952 221.302 229.531 221.926C229.053 222.136 228.107 222.653 227.429 223.075L226.197 223.842L223.922 222.933C221.91 222.129 221.564 221.85 220.932 220.522C220.083 218.741 220.15 217.599 221.445 211.728C223.22 203.683 222.445 198.124 218.487 190.517C217.541 188.7 216.635 187.162 216.473 187.098C216.31 187.034 216.177 186.841 216.177 186.667Z" fill="url(#paint9_linear_401_2)"/>
<path d="M124.766 237.456C125.264 237.452 128.152 231.963 128.937 229.528C129.339 228.281 129.475 228.131 129.751 228.631C129.969 229.028 129.942 229.831 129.673 230.998C129.448 231.969 129.108 233.468 128.917 234.329C128.092 238.051 126.775 242.63 126.067 244.239C124.088 248.732 123.273 250.191 121.372 252.642C119.262 255.361 119.039 255.598 117.326 256.93C116.48 257.589 115.664 258.328 115.513 258.572C115.145 259.171 113.362 260.086 113.094 259.814C112.976 259.694 112.88 259.763 112.88 259.967C112.88 260.597 110.433 261.865 107.92 262.537C105.477 263.19 102.618 263.4 102.618 262.926C102.618 262.781 102.195 262.472 101.678 262.239C100.311 261.622 99.8432 260.623 99.6363 257.873C99.4806 255.809 99.5306 255.461 99.9592 255.629C100.238 255.737 100.848 255.466 101.315 255.026C102.132 254.257 103.236 253.683 108.091 251.504C109.314 250.956 111.063 249.996 111.977 249.372C112.892 248.748 113.846 248.237 114.098 248.237C114.349 248.237 114.986 247.824 115.513 247.319C116.04 246.814 117.456 245.607 118.661 244.638C120.941 242.802 124.509 238.699 124.509 237.912C124.509 237.662 124.625 237.457 124.766 237.456Z" fill="url(#paint10_linear_401_2)"/>
<path d="M132.045 235.024C131.873 234.164 131.724 232.697 131.713 231.765C131.695 230.297 131.761 230.129 132.205 230.504C132.487 230.742 132.718 231.233 132.718 231.594C132.718 231.956 132.859 232.524 133.03 232.856C133.202 233.188 133.751 234.398 134.249 235.546C134.747 236.693 135.295 237.867 135.467 238.154C135.638 238.44 136.043 239.223 136.368 239.892C136.692 240.561 137.054 241.187 137.172 241.283C137.29 241.379 137.496 241.692 137.631 241.978C138.312 243.428 138.938 244.245 140.638 245.903C142.804 248.015 146.989 250.973 148.127 251.196C148.56 251.281 149.073 251.511 149.265 251.706C149.457 251.902 149.888 252.062 150.221 252.062C151.409 252.062 154.95 254.193 155.891 255.474C156.409 256.179 156.948 256.808 157.089 256.872C157.23 256.936 157.345 257.197 157.345 257.452C157.345 257.706 157.493 257.967 157.675 258.031C157.856 258.095 158.098 259.043 158.212 260.139C158.488 262.794 157.851 263.91 155.586 264.738C153.875 265.363 153.171 265.325 149.478 264.412C149.196 264.342 148.85 264.273 148.709 264.259C148.568 264.244 148.452 264.014 148.452 263.748C148.452 263.482 147.875 263.025 147.17 262.732C145.212 261.921 141.219 258.303 140.038 256.27C139.693 255.677 139.291 255.191 139.143 255.191C138.996 255.191 138.875 254.991 138.875 254.747C138.875 254.502 138.567 254.076 138.191 253.801C137.815 253.525 137.507 253.049 137.507 252.742C137.507 252.436 137.045 251.216 136.481 250.032C135.916 248.847 135.455 247.646 135.455 247.362C135.455 247.079 135.301 246.846 135.112 246.846C134.924 246.846 134.77 246.61 134.77 246.32C134.77 246.031 134.635 245.522 134.47 245.19C133.95 244.143 133.42 242.194 132.88 239.346C132.592 237.83 132.217 235.885 132.045 235.024Z" fill="url(#paint11_linear_401_2)"/>
<path d="M192.918 263.838C192.918 263.544 193.03 263.191 193.167 263.051C193.305 262.912 193.476 262.978 193.548 263.197C193.62 263.417 193.508 263.772 193.298 263.984C193.019 264.268 192.918 264.229 192.918 263.838Z" fill="url(#paint12_linear_401_2)"/>
<path fill-rule="evenodd" clip-rule="evenodd" d="M173.935 8.80984C175.251 8.4816 178.33 8.11894 180.775 8.00384C187.504 7.68812 193.271 8.25037 196.782 9.56506C197.573 9.86096 198.769 10.2434 199.44 10.4145C200.111 10.5856 201.762 11.2789 203.108 11.9552C204.454 12.6315 205.719 13.1847 205.921 13.1847C206.122 13.1847 206.626 13.5133 207.042 13.9146C207.457 14.3162 208.048 14.7463 208.356 14.8708C209.803 15.457 217.545 23.0396 217.545 23.8706C217.545 23.9492 217.738 24.2193 217.973 24.4714C218.852 25.4134 219.598 26.4141 219.605 26.6624C219.609 26.8039 219.914 27.3105 220.282 27.7886C220.65 28.2667 220.954 28.8536 220.958 29.0925C220.962 29.3314 221.274 29.8401 221.65 30.2226C222.026 30.605 222.334 31.1478 222.334 31.4291C222.334 31.7101 222.642 32.4973 223.018 33.1781C223.394 33.8589 223.702 34.6931 223.702 35.0314C223.702 35.3701 223.833 35.7957 223.992 35.9772C224.528 36.5878 225.302 41.9213 225.634 47.2969C225.943 52.2876 224.196 63.5075 222.65 66.4665C222.476 66.7986 222.334 67.3094 222.334 67.6015C222.334 67.8935 222.193 68.4043 222.02 68.7364C221.507 69.7222 220.282 72.6189 220.282 72.8453C220.282 72.9607 219.974 73.4531 219.598 73.9392C219.221 74.4256 218.913 75.0939 218.913 75.425C218.913 75.756 218.606 76.4243 218.229 76.9107C217.853 77.3968 217.538 78.1611 217.529 78.6093C217.512 79.4403 216.949 80.6389 215.58 82.7558C215.157 83.4091 214.811 84.1883 214.81 84.4867C214.81 84.7853 214.501 85.3657 214.125 85.7763C213.749 86.1866 213.441 86.6776 213.441 86.8671C213.441 87.0562 213.056 87.6334 212.586 88.1494C212.115 88.6651 211.73 89.1929 211.73 89.3219C211.73 89.4509 211.063 90.2646 210.248 91.1297C208.267 93.2309 207.641 94.184 207.859 94.7629C208.106 95.4155 208.608 95.3697 210.191 94.5491C210.929 94.1666 211.872 93.8536 212.287 93.8536C212.702 93.8536 213.093 93.7062 213.156 93.5264C213.218 93.3463 213.655 93.1276 214.125 93.0407C214.595 92.9534 215.365 92.7184 215.835 92.5184C218.969 91.1863 229.353 91.0229 234.819 92.2194C236.135 92.508 237.29 92.7761 237.384 92.8157C237.478 92.855 237.892 92.8602 238.303 92.8268C238.715 92.7935 239.408 92.992 239.842 93.2677C240.278 93.5435 241.163 93.8682 241.811 93.9899C242.459 94.1113 244.119 94.7563 245.501 95.4232C246.883 96.0898 248.211 96.6353 248.453 96.6353C248.998 96.6353 252.69 98.6475 252.961 99.0919C253.069 99.2706 253.361 99.417 253.608 99.417C253.855 99.417 254.731 100.043 255.554 100.808C256.378 101.573 257.161 102.199 257.294 102.199C257.558 102.199 259.24 103.869 261.691 106.566C264.674 109.848 268.088 115.505 269.915 120.193C270.083 120.623 270.379 121.327 270.572 121.757C272.395 125.807 273.553 136.324 272.643 140.554C272.47 141.355 272.143 142.95 271.916 144.098C270.338 152.068 265.047 161.487 259.78 165.701C255.981 168.739 250.212 172.095 246.961 173.157C246.491 173.311 244.569 173.994 242.689 174.675C240.81 175.356 238.693 175.913 237.986 175.913C237.279 175.913 236.7 176.039 236.7 176.192C236.7 177.009 227.813 178.354 222.536 178.335C218.439 178.32 210.071 177.257 208.139 176.505C207.387 176.213 205.936 175.886 204.916 175.779C203.896 175.672 202.903 175.423 202.71 175.227C202.367 174.879 201.127 174.719 201.127 175.023C201.127 175.106 201.589 175.689 202.153 176.317C202.718 176.945 203.179 177.659 203.179 177.903C203.179 178.147 203.333 178.347 203.521 178.347C203.71 178.347 203.863 178.558 203.863 178.815C203.863 179.072 204.171 179.566 204.548 179.912C204.924 180.258 205.232 180.68 205.232 180.85C205.232 181.02 205.539 181.494 205.915 181.904C206.292 182.315 206.791 183.09 207.025 183.628C207.259 184.166 207.567 184.606 207.709 184.606C207.852 184.606 207.968 184.919 207.968 185.302C207.968 185.684 208.093 185.997 208.246 185.997C208.399 185.997 208.736 186.545 208.994 187.214C209.252 187.883 209.661 188.431 209.902 188.431C210.152 188.431 210.256 188.656 210.144 188.953C210.036 189.239 210.117 189.474 210.326 189.474C210.534 189.474 210.704 189.815 210.704 190.232C210.704 191.111 211.23 192.855 212.126 194.947C212.473 195.758 212.757 196.726 212.757 197.099C212.757 197.473 212.924 197.883 213.128 198.012C213.333 198.14 213.427 198.531 213.337 198.879C213.248 199.228 213.367 199.797 213.603 200.144C213.838 200.491 214.131 201.322 214.254 201.992C214.377 202.661 214.538 203.522 214.613 203.904C214.688 204.287 214.913 205.93 215.113 207.555C216.057 215.209 216.201 219.387 215.632 222.525C215.175 225.044 214.109 228.55 213.662 229.004C213.54 229.128 213.441 229.829 213.441 230.562C213.441 231.295 213.287 231.895 213.099 231.895C212.911 231.895 212.757 232.173 212.757 232.512C212.757 232.852 212.3 234.064 211.741 235.207C211.183 236.349 210.721 237.558 210.715 237.893C210.709 238.227 210.55 238.501 210.362 238.501C210.174 238.501 210.014 238.697 210.006 238.936C209.999 239.175 209.537 239.912 208.98 240.574C208.424 241.236 207.968 241.894 207.968 242.036C207.968 242.177 207.198 243.075 206.258 244.032C205.317 244.988 204.548 245.916 204.548 246.094C204.548 246.273 204.146 246.686 203.656 247.012C203.166 247.339 202.297 248.061 201.724 248.617C201.152 249.173 200.476 249.628 200.221 249.628C199.967 249.628 199.759 249.852 199.759 250.126C199.759 250.4 199.452 250.723 199.077 250.844C198.702 250.965 198.202 251.25 197.965 251.477C197.014 252.39 194.71 253.727 193.698 253.953C193.107 254.085 192.44 254.418 192.216 254.692C191.991 254.967 191.427 255.191 190.961 255.191C190.495 255.191 189.629 255.421 189.036 255.701C187.726 256.32 179.168 257.596 176.329 257.595C173.859 257.593 167.593 256.643 167.043 256.187C166.827 256.008 166.304 255.793 165.881 255.71C164.157 255.373 162.448 254.669 158.543 252.689C153.558 250.162 152.389 249.446 150.862 247.981C150.211 247.358 149.403 246.759 149.066 246.65C148.728 246.541 148.452 246.331 148.452 246.184C148.452 246.036 147.375 244.791 146.058 243.418C144.741 242.044 143.664 240.767 143.664 240.58C143.664 240.393 143.515 240.24 143.334 240.24C143.153 240.24 142.357 239.262 141.564 238.067C140.772 236.872 140.035 235.815 139.927 235.72C139.286 235.154 136.631 229.681 135.078 225.723C134.909 225.293 134.626 224.588 134.45 224.158C134.273 223.728 134.025 222.985 133.899 222.507C133.772 222.029 133.47 221.168 133.227 220.594C132.985 220.02 132.428 218.182 131.989 216.509C131.551 214.835 131.105 213.466 130.999 213.466C130.893 213.466 130.767 214.045 130.72 214.753C130.673 215.461 130.508 216.204 130.352 216.405C130.196 216.605 129.718 217.784 129.291 219.023C128.863 220.263 128.227 221.793 127.879 222.424C127.531 223.055 127.245 223.801 127.245 224.082C127.245 224.363 127.129 224.593 126.987 224.593C126.845 224.593 126.514 225.086 126.251 225.688C125.989 226.291 125.528 227.047 125.227 227.369C124.926 227.691 124.633 228.164 124.575 228.42C124.419 229.111 121.756 232.929 120.576 234.154C120.011 234.74 119.152 235.684 118.665 236.252C117.807 237.255 113.121 241.655 110.949 243.499C110.357 244.002 109.699 244.412 109.484 244.412C109.271 244.412 109.007 244.647 108.899 244.934C108.79 245.221 108.579 245.456 108.429 245.456C108.279 245.456 107.032 246.16 105.659 247.02C104.286 247.881 102.983 248.585 102.763 248.585C102.396 248.585 100.675 249.279 97.949 250.526C97.3562 250.797 96.5425 251.019 96.1413 251.019C95.7397 251.019 95.0703 251.243 94.6537 251.517C94.2371 251.791 92.3165 252.253 90.386 252.543C88.4552 252.832 86.6957 253.183 86.4758 253.321C85.9063 253.679 77.6226 253.515 77.1701 253.138C76.9632 252.965 76.2551 252.821 75.5967 252.818C72.6079 252.806 67.2395 250.896 63.4541 248.497C61.1114 247.012 56.1388 242.301 54.3899 239.908C53.9196 239.265 53.3426 238.54 53.1073 238.297C52.8723 238.054 52.6797 237.688 52.6797 237.483C52.6797 237.278 52.5518 237.11 52.3954 237.11C52.2391 237.11 51.8985 236.68 51.6382 236.154C51.3779 235.628 50.9172 234.807 50.6141 234.329C50.3107 233.851 49.8664 232.912 49.6266 232.243C49.1922 231.031 48.8608 230.167 48.2588 228.678C47.8616 227.696 47.6458 226.643 46.9943 222.507C46.3416 218.365 46.5506 209.142 47.3996 204.6C48.1479 200.596 49.9697 194.895 51.5657 191.56C52.6462 189.303 55.9076 183.993 57.2973 182.229C60.2919 178.427 62.1317 176.211 63.1965 175.125L64.4802 173.815L62.0859 174.02C59.538 174.238 52.4273 174.219 51.2613 173.991C50.8775 173.916 49.2312 173.754 47.6027 173.631C45.9743 173.508 44.5257 173.336 44.3837 173.249C44.2421 173.161 43.0877 172.957 41.8184 172.795C40.5494 172.633 38.0487 172.079 36.2616 171.563C34.4744 171.048 32.1656 170.482 31.1309 170.308C30.0962 170.133 27.6591 169.21 25.7153 168.257C23.7714 167.305 22.0294 166.525 21.8444 166.525C21.6593 166.525 21.0036 166.134 20.3869 165.656C19.7702 165.178 19.1422 164.787 18.9914 164.787C18.311 164.787 14.6419 161.374 10.915 157.275C7.81334 153.864 3.11025 145.222 1.75746 140.447C0.353709 135.492 -0.00406974 133.141 3.47919e-05 128.903C0.00277115 126.474 0.161808 123.657 0.353353 122.644C1.25532 117.875 1.49954 116.876 2.09846 115.502C2.45214 114.692 2.74117 113.892 2.74117 113.725C2.74117 113.558 3.21731 112.354 3.79912 111.05C5.26992 107.752 7.78872 104.069 10.2309 101.643L10.2669 101.607C11.4634 100.419 12.0312 99.8555 12.6357 99.3357C13.1817 98.8663 13.7576 98.4329 14.8536 97.608L14.8838 97.5853C15.8244 96.8773 16.7479 96.1697 16.936 96.0133C17.8017 95.2932 21.6463 92.8025 23.1424 91.9927C26.0943 90.395 32.4125 88.0514 35.4064 87.4436C35.9708 87.3292 36.8174 87.1439 37.2877 87.0319C38.5255 86.7374 40.0008 86.5281 41.5632 86.4251C42.3157 86.3758 43.2762 86.2172 43.698 86.0733C44.1197 85.9293 44.6447 85.9244 44.8647 86.0628C45.3367 86.3594 49.8123 86.3274 50.295 86.0242C50.4779 85.9091 50.82 85.9408 51.055 86.0938C51.2903 86.2471 52.7139 86.3949 54.2189 86.4224C55.7239 86.4498 57.5709 86.5684 58.3234 86.6856C59.0759 86.8031 60.5365 86.9926 61.5688 87.107C62.6014 87.2214 63.8328 87.5145 64.3051 87.7583C64.7778 88.002 65.4438 88.0983 65.7851 87.9725C66.3659 87.7586 66.3581 87.6995 65.662 87.0608C65.2529 86.6852 64.1464 85.2436 63.2027 83.8569C62.2594 82.4703 61.3526 81.336 61.1881 81.336C61.0235 81.336 60.8888 81.1841 60.8888 80.9984C60.8888 80.5996 58.7811 77.3895 58.409 77.2216C58.268 77.1576 58.1524 76.8968 58.1524 76.6419C58.1524 76.3871 58.0252 76.1263 57.8699 76.0623C57.6287 75.9636 55.4848 72.1321 54.2559 69.6036C54.0476 69.1749 53.7612 68.8226 53.6203 68.8212C53.4794 68.8198 53.3638 68.5886 53.3638 68.3073C53.3638 68.0264 53.056 67.2392 52.6797 66.5583C52.3035 65.8775 51.9956 65.1522 51.9956 64.9467C51.9956 64.7412 51.5913 63.768 51.0974 62.7839C49.8684 60.3367 49.2247 57.8663 48.4113 52.476C47.8093 48.4882 47.7649 45.2823 48.2649 41.9376C48.74 38.7589 49.9067 34.7776 51.0095 32.5745C51.1757 32.2424 51.3115 31.7337 51.3115 31.4444C51.3115 31.1548 51.4654 30.918 51.6536 30.918C51.8417 30.918 51.9956 30.6982 51.9956 30.4295C51.9956 29.7924 53.3275 27.2639 54.1159 26.4037C54.4546 26.034 54.7323 25.6074 54.7326 25.4561C54.7333 25.3045 55.1948 24.6331 55.7581 23.9638C56.3215 23.2944 56.7829 22.5514 56.7836 22.3121C56.7839 22.0733 56.9354 21.8775 57.1205 21.8775C57.3052 21.8775 57.8826 21.4863 58.4031 21.0086C61.5438 18.1247 62.5001 17.3388 63.1121 17.1396C63.4883 17.0169 64.3349 16.4995 64.9933 15.9897C65.6517 15.48 66.8445 14.7731 67.6442 14.4188C68.4439 14.0644 69.0978 13.642 69.0978 13.4796C69.0978 13.3176 69.4786 13.1847 69.9437 13.1847C70.4093 13.1847 71.448 12.8895 72.2525 12.5286C74.249 11.6332 76.7059 10.8439 79.3592 10.2462C80.582 9.97084 82.4472 9.52751 83.5037 9.26151C86.4672 8.51463 95.0081 8.73438 97.6586 9.62522C98.7873 10.0049 100.865 10.6638 102.276 11.0901C103.687 11.5164 105.5 12.1621 106.304 12.5251C107.109 12.8878 107.975 13.1847 108.228 13.1847C108.765 13.1847 111.815 14.859 112.476 15.5165C112.725 15.7637 113.61 16.3722 114.443 16.8684C115.276 17.3649 115.958 17.9077 115.958 18.0746C115.958 18.2415 116.331 18.5788 116.787 18.8239C117.825 19.3823 121.773 23.1592 121.773 23.5945C121.773 23.7718 122.045 24.0048 122.378 24.1122C122.711 24.2197 123.288 24.8925 123.66 25.6077C124.033 26.3226 124.808 27.3797 125.381 27.9569C125.955 28.5337 126.94 29.7879 127.57 30.7441C128.201 31.7003 128.986 32.7956 129.317 33.1781C130.607 34.674 136.139 45.9172 136.139 47.0455C136.139 47.3324 136.293 47.6637 136.481 47.782C136.669 47.9002 136.823 48.3004 136.823 48.6717C136.823 49.0431 136.977 49.3467 137.165 49.3467C137.353 49.3467 137.507 49.6596 137.507 50.0421C137.507 50.4246 137.661 50.7375 137.849 50.7375C138.037 50.7375 138.191 50.5007 138.191 50.2111C138.191 49.9218 138.338 49.4131 138.517 49.081C138.697 48.7489 139.174 47.3039 139.578 45.8695C139.982 44.4352 140.437 42.9488 140.59 42.5663C140.743 42.1838 141.212 40.9321 141.633 39.7846C142.808 36.5805 145.308 31.4517 146.22 30.3724C146.67 29.8401 147.376 28.7364 147.789 27.9204C149.223 25.0876 155.787 18.1114 159.303 15.6841C160.444 14.8965 161.613 14.0119 161.902 13.7185C162.191 13.425 162.645 13.1847 162.912 13.1847C163.179 13.1847 163.757 12.8676 164.197 12.4799C164.637 12.0922 165.391 11.6795 165.874 11.5627C166.357 11.4458 166.906 11.2351 167.094 11.0943C167.631 10.6927 171.304 9.46597 173.935 8.80984ZM127.416 65.3448C126.852 65.5034 125.775 65.7151 125.022 65.8153C124.27 65.9154 123.115 66.0861 122.457 66.195C120.078 66.5872 112.672 68.7708 110.579 69.6968C106.85 71.3467 105.355 72.1008 105.355 72.3317C105.355 72.4729 104.891 72.6916 104.325 72.8178C103.759 72.9444 103.105 73.2382 102.871 73.4708C102.638 73.7038 101.601 74.4051 100.566 75.0296C99.5313 75.6538 98.146 76.5484 97.4876 77.0171C96.8291 77.4862 96.0048 78.0627 95.6559 78.2988C91.5456 81.0808 81.8421 91.7201 79.8579 95.6204C79.3896 96.5411 79.4084 96.5849 80.4318 96.9476C81.014 97.1538 81.6133 97.2452 81.7634 97.1506C81.9139 97.056 82.0887 97.0971 82.152 97.2417C82.3918 97.7915 88.6423 99.835 93.041 100.802C94.64 101.153 96.4101 101.608 96.9745 101.812C99.2576 102.639 102.535 103.555 103.986 103.773C104.833 103.9 105.867 104.224 106.283 104.492C106.7 104.761 107.3 104.98 107.618 104.98C108.865 104.98 112.625 107.153 114.384 108.891C117.794 112.259 118.841 114.858 117.508 116.649C117.232 117.02 117.001 117.592 116.995 117.919C116.978 118.827 114.097 121.667 113.167 121.693C112.727 121.705 111.592 121.789 110.646 121.878C109.136 122.021 108.719 121.902 107.226 120.908C106.291 120.284 105.474 119.653 105.412 119.505C105.349 119.358 105.072 119.237 104.797 119.237C104.522 119.237 103.401 118.363 102.306 117.297C101.211 116.23 99.8501 115.069 99.2812 114.717C98.7121 114.365 98.1456 113.912 98.0228 113.71C97.9 113.508 96.9646 112.779 95.9439 112.09C94.9236 111.402 93.7374 110.462 93.3081 110.002C92.8792 109.541 92.4311 109.162 92.3128 109.159C91.9752 109.149 86.2001 103.339 86.2001 103.009C86.2001 102.628 85.2619 102.024 82.0955 100.363C80.6846 99.6229 79.2641 98.773 78.9388 98.4744C78.3994 97.9796 78.3262 97.9893 78.1087 98.5874C77.9773 98.9479 77.7786 99.3214 77.6671 99.417C77.5556 99.5126 76.9481 100.686 76.3174 102.025C75.2348 104.323 74.8312 105.259 74.2179 106.893C74.0746 107.275 73.6518 108.371 73.2787 109.327C72.9058 110.283 72.3999 111.926 72.155 112.978C71.9098 114.03 71.5835 115.039 71.4296 115.22C71.276 115.402 71.1501 116.044 71.1501 116.646C71.1501 117.249 71.0116 118.195 70.8419 118.75C69.2381 124 69.3592 138.647 71.0824 147.749C71.5363 150.147 72.638 153.66 72.9363 153.66C73.0827 153.66 73.2024 153.88 73.2024 154.148C73.2024 154.418 73.5321 155.317 73.935 156.148C74.338 156.979 74.783 157.971 74.9239 158.354C75.2731 159.301 77.9069 164.843 78.2961 165.449C78.5499 165.844 78.9361 165.694 80.3131 164.667C81.2497 163.968 82.1099 163.396 82.2241 163.396C82.5262 163.396 85.9172 160.388 89.0839 157.311C89.4776 156.928 90.8751 155.725 92.19 154.636C93.5044 153.547 96.2124 150.965 98.2076 148.898C100.202 146.832 102.679 144.628 103.711 144.002C105.971 142.631 109.539 141.537 111.175 141.716C113.48 141.967 115.488 142.855 115.991 143.847C116.255 144.368 116.635 144.971 116.836 145.189C117.346 145.743 117.432 148.839 116.984 150.53C116.484 152.418 111.455 157.722 109.857 158.047C109.262 158.168 108.775 158.382 108.775 158.524C108.775 158.665 107.813 158.967 106.637 159.195C105.462 159.423 103.935 159.76 103.245 159.944C102.554 160.127 100.434 160.428 98.5335 160.612C96.6328 160.796 94.1191 161.197 92.9476 161.502C89.4882 162.404 83.4637 164.525 83.4637 164.842C83.4637 165.003 83.2821 165.134 83.0601 165.134C82.3182 165.134 79.3592 166.644 79.3606 167.022C79.3616 167.227 79.9773 168.219 80.7287 169.227C81.4806 170.235 82.0955 171.139 82.0955 171.236C82.0955 171.332 82.596 171.974 83.2072 172.661C83.638 173.146 84.2814 173.869 84.8542 174.512L85.516 175.256C86.1744 175.995 86.8849 176.798 87.0945 177.039C87.8788 177.941 92.5778 182.402 93.8961 183.495C99.4417 188.096 102.824 190.205 109.63 193.303C112.491 194.606 117.778 196.452 119.891 196.887C120.456 197.003 121.995 197.339 123.312 197.633C124.629 197.928 126.959 198.266 128.49 198.383L131.273 198.598L131.325 194.714C131.354 192.578 131.21 189.86 131.005 188.674C130.8 187.489 130.479 185.58 130.292 184.432C129.925 182.188 129.779 181.373 128.446 174.142C126.892 165.716 126.921 164.417 128.788 158.18L128.803 158.128C129.259 156.606 129.474 155.889 129.949 155.507C130.372 155.167 131.003 155.093 132.196 154.952L132.242 154.947C135.732 154.535 137.144 155.098 139.227 157.731C139.41 157.962 139.559 158.461 139.559 158.84C139.559 159.22 139.691 159.613 139.853 159.715C140.274 159.979 140.34 165.213 139.942 166.773C139.757 167.497 139.429 169.029 139.214 170.176C138.79 172.429 138.575 173.221 137.514 176.458C137.134 177.618 136.823 178.902 136.823 179.311C136.823 179.719 136.685 180.413 136.516 180.852C136.348 181.291 136.022 182.355 135.793 183.215C135.564 184.076 135.255 185.093 135.107 185.475C134.245 187.699 132.718 194.81 132.718 196.599C132.718 197.248 132.564 197.875 132.376 197.993C131.64 198.455 132.105 198.799 133.659 198.942C134.552 199.024 135.467 198.95 135.691 198.777C136.084 198.475 140.724 198.064 142.796 198.148C143.354 198.171 144.268 197.997 144.826 197.762C145.596 197.438 145.874 197.433 145.975 197.742C146.072 198.036 146.32 198.009 146.872 197.641C147.291 197.361 148.627 196.975 149.839 196.783C152.761 196.32 153.201 196.221 154.609 195.708C155.267 195.468 156.653 194.967 157.687 194.595C158.722 194.223 160.227 193.622 161.032 193.261C161.836 192.899 162.702 192.603 162.956 192.603C163.21 192.603 163.598 192.384 163.817 192.116C164.035 191.848 164.631 191.523 165.141 191.393C165.651 191.264 166.298 190.958 166.581 190.714C167.082 190.28 169.146 189.162 171.882 187.841C172.635 187.477 173.25 186.998 173.25 186.775C173.25 186.265 177.338 183.215 178.021 183.215C178.584 183.215 185.051 176.821 185.051 176.265C185.051 176.072 185.244 175.905 185.479 175.894C185.848 175.877 188.312 172.808 189.327 171.1C189.515 170.783 189.753 170.446 189.856 170.35C190.606 169.655 191.624 167.767 191.307 167.66C191.099 167.59 190.583 167.227 190.161 166.854C189.738 166.482 189.274 166.177 189.127 166.177C188.982 166.177 188.648 165.959 188.386 165.693C187.662 164.957 184.847 163.611 181.802 162.544C180.297 162.017 178.757 161.454 178.381 161.294C178.005 161.134 177.159 160.894 176.501 160.762C175.844 160.629 174.843 160.329 174.278 160.094C173.713 159.859 171.865 159.226 170.172 158.687C167.032 157.689 161.691 155.182 160.381 154.091C158.22 152.292 157.648 151.596 157.175 150.183C156.738 148.876 156.257 148.094 155.993 148.261C155.813 148.374 155.752 148.696 155.858 148.977C155.964 149.258 155.88 149.487 155.672 149.487C155.243 149.487 155.161 148.694 155.55 148.3C155.691 148.156 155.829 147.387 155.857 146.59C155.884 145.793 155.923 144.807 155.942 144.399C155.961 143.99 156.63 143.012 157.427 142.225C158.513 141.154 159.153 140.795 159.973 140.795C160.575 140.795 161.155 140.65 161.263 140.473C161.567 139.973 164.577 140.263 165.794 140.909C166.396 141.229 167.185 141.49 167.548 141.49C167.91 141.49 168.399 141.725 168.633 142.012C168.867 142.298 169.406 142.533 169.831 142.533C170.88 142.533 176.369 147.985 177.519 150.169C177.741 150.591 178.525 151.586 179.263 152.382C180.001 153.179 180.604 153.974 180.604 154.15C180.604 154.325 181.721 155.597 183.084 156.974C184.448 158.352 187.026 161.06 188.814 162.991C190.601 164.923 192.167 166.508 192.294 166.514C192.422 166.52 192.74 166.095 193.001 165.569C193.262 165.043 193.645 164.3 193.851 163.917C194.24 163.198 195.541 160.306 196.434 158.18C197.387 155.91 198.353 153.144 198.743 151.574C198.957 150.713 199.344 149.263 199.605 148.351C201.829 140.578 202.131 126.43 200.237 118.748C199.761 116.818 199.26 114.534 199.123 113.673C198.987 112.813 198.632 111.639 198.335 111.065C198.037 110.492 197.601 109.396 197.365 108.631C197.129 107.866 196.647 106.624 196.295 105.871C195.943 105.118 195.654 104.31 195.654 104.075C195.654 103.84 195.538 103.595 195.396 103.531C195.255 103.468 194.608 102.32 193.959 100.982C191.533 95.9757 186.201 88.8257 185.189 89.2207C184.906 89.3306 184.709 89.1894 184.709 88.8779C184.709 88.5865 184.563 88.2962 184.385 88.2322C184.207 88.1686 182.629 86.7047 180.879 84.979C179.129 83.2533 177.004 81.2988 176.158 80.6361C175.311 79.973 174.251 79.0923 173.803 78.6781C173.354 78.2644 172.584 77.7167 172.092 77.4608C171.6 77.2052 170.429 76.457 169.488 75.7981C167.504 74.4086 160.355 70.7215 158.961 70.3692C158.439 70.2375 157.856 69.8345 157.666 69.4739C157.477 69.1133 156.973 68.8185 156.547 68.8185C156.121 68.8185 155.626 68.6721 155.447 68.4933C155.177 68.2228 152.902 67.4961 149.307 66.5323C148.931 66.4314 147.659 66.2009 146.481 66.0197C145.303 65.8389 143.687 65.5378 142.89 65.3507C141.146 64.9415 128.867 64.937 127.416 65.3448ZM134.473 75.4086C134.868 75.1447 135.941 69.8247 136.1 67.3407C136.121 67.0062 136.219 66.7322 136.318 66.7322C136.833 66.7322 137.232 69.0678 137.311 72.5414C137.359 74.6847 137.557 76.6406 137.752 76.8878C137.946 77.135 138.196 78.1197 138.308 79.0759C138.973 84.753 139.248 86.3695 140.087 89.5072C141.198 93.6641 141.452 100.202 140.607 102.894C139.639 105.978 138.429 107.23 135.48 108.201L133.619 108.813L132.228 107.887C128.864 105.646 127.637 103.338 127.598 99.1705C127.546 93.6398 127.771 92.7813 131.271 85.1609C132.585 82.2975 132.985 81.1667 133.419 79.0759C134.004 76.2588 134.194 75.5946 134.473 75.4086ZM189.429 100.718C189.708 100.481 190.492 100.107 191.171 99.8882C191.849 99.6691 192.521 99.4737 192.662 99.4535C193.053 99.3979 192.967 99.9236 192.508 100.391C192.282 100.62 192.241 100.808 192.418 100.808C192.788 100.808 189.116 103.561 188.723 103.578C188.126 103.604 181.996 108.978 176.416 114.369C174.932 115.803 173.504 117.025 173.243 117.086C172.983 117.146 172.678 117.488 172.567 117.845C172.399 118.38 170.489 119.869 168.372 121.115C167.437 121.665 162.996 122.741 161.663 122.74C159.372 122.738 158.369 122.331 156.856 120.793C156.389 120.319 155.886 119.927 155.736 119.921C155.587 119.915 155.201 119.542 154.88 119.093C154.265 118.232 154.427 117.166 155.497 115.036C156.117 113.8 159.407 110.196 159.913 110.196C160.141 110.196 161.234 109.728 162.342 109.157C163.451 108.586 164.896 108.018 165.554 107.896C166.213 107.774 166.982 107.476 167.265 107.234C167.547 106.992 168.624 106.676 169.659 106.532C170.694 106.387 171.848 106.227 172.224 106.175C172.601 106.123 173.601 105.84 174.448 105.545C178.367 104.18 184.67 102.247 185.906 102.031C186.659 101.9 187.545 101.546 187.875 101.244C188.205 100.943 188.576 100.798 188.699 100.923C188.821 101.047 189.15 100.955 189.429 100.718ZM133.672 113.668C134.182 113.665 134.83 113.501 135.112 113.303C135.421 113.086 137.276 112.99 139.777 113.062C143.642 113.172 144.026 113.247 145.361 114.145C146.15 114.676 147.268 115.569 147.845 116.13C148.423 116.691 149.104 117.15 149.358 117.15C149.612 117.15 149.82 117.351 149.82 117.595C149.82 117.84 150.128 118.265 150.504 118.541C150.881 118.817 151.189 119.242 151.189 119.487C151.189 119.732 151.305 119.932 151.447 119.932C152.006 119.932 153.012 123.122 153.628 126.852C154.065 129.491 154.061 129.524 152.685 135.579C152.384 136.905 151.736 138.361 151.447 138.361C151.305 138.361 151.189 138.586 151.189 138.862C151.189 139.138 150.882 139.583 150.507 139.849C150.132 140.117 149.732 140.811 149.618 141.392C149.429 142.349 149.01 142.909 147.166 144.664C145.678 146.082 142.256 147.971 140.072 148.583C137.535 149.293 134.352 149.475 133.225 148.975C132.852 148.81 131.931 148.479 131.179 148.24C125.074 146.303 123.73 144.99 120.528 137.839C119.536 135.623 119.482 130.687 120.406 126.773C120.842 124.927 121.505 123.117 121.979 122.476C122.43 121.867 122.799 121.232 122.799 121.064C122.799 120.784 125.968 117.631 128.002 115.888C129.055 114.986 132.402 113.675 133.672 113.668ZM103.535 45.1498C104.441 45.1362 105.454 45.0163 105.786 44.8831C106.48 44.6039 107.54 44.6188 112.623 44.9798C114.645 45.1237 116.3 45.3661 116.3 45.5187C116.3 45.6717 117.647 46.4631 119.293 47.2778C122.499 48.8647 128.955 52.9907 129.391 53.7313C129.536 53.9782 129.845 54.3836 130.077 54.6322C131.544 56.2018 132.376 57.5078 132.376 58.2401C132.376 59.0554 132.295 59.0826 129.855 59.0826C125.918 59.0826 115.013 61.1925 111.169 62.6981C110.511 62.9561 109.049 63.5225 107.92 63.9568C103.749 65.5621 96.2398 69.5803 94.0292 71.3905C93.538 71.7928 92.7927 72.3564 92.3726 72.6433C91.538 73.2132 90.66 73.894 89.155 75.1378C87.478 76.5241 82.0955 82.0635 82.0955 82.4035C82.0955 82.5815 81.9717 82.7269 81.8206 82.7269C81.6694 82.7269 80.8615 83.6594 80.0248 84.7992C79.1885 85.939 78.3673 86.8779 78.2004 86.8855C78.028 86.8935 78.0044 85.7342 78.1453 84.2047C78.6532 78.7032 79.0202 75.2268 79.1817 74.3818C79.5812 72.2935 80.2352 69.8984 80.4712 69.6585C80.6121 69.5153 80.7274 69.0921 80.7274 68.7183C80.7274 67.6714 84.0172 61.133 85.1722 59.8837C85.7376 59.2727 86.2001 58.6876 86.2001 58.5839C86.2001 58.0825 91.1149 52.9702 93.7285 50.7531C95.0036 49.6714 95.9388 48.8692 97.4913 47.526C97.7756 47.2802 98.6809 46.8532 99.5032 46.5771C100.326 46.3014 101.198 45.8727 101.442 45.6248C101.686 45.3768 102.627 45.163 103.535 45.1498ZM93.8961 29.7413C86.1519 31.7407 81.4224 34.0804 77.6774 37.7654C77.0347 38.3979 76.3807 38.9153 76.2237 38.9153C76.067 38.9153 75.9387 39.15 75.9387 39.4369C75.9387 39.7238 75.8122 39.9585 75.6576 39.9585C75.5026 39.9585 74.6957 41.132 73.8639 42.5663C73.032 44.0006 72.2351 45.1741 72.0928 45.1741C71.9505 45.1741 71.8342 45.404 71.8342 45.6853C71.8342 45.9662 71.5527 46.7093 71.2086 47.3369C70.8645 47.9642 70.4694 48.8686 70.3306 49.3467C69.5497 52.0331 69.352 52.8095 69.0459 54.3885C68.4661 57.3784 68.3279 62.5405 68.7343 66.0083C69.1704 69.7291 69.7641 72.6488 70.1866 73.1475C70.3401 73.3293 70.466 73.9065 70.466 74.4309C70.466 74.9552 70.6199 75.4806 70.8081 75.5988C70.9962 75.717 71.1501 76.1955 71.1501 76.6625C71.1501 77.1294 71.2842 77.5112 71.4477 77.5112C71.6115 77.5112 71.9491 78.2543 72.1985 79.1629C72.4478 80.0714 72.8378 81.181 73.0652 81.6285C73.4363 82.3594 73.4952 82.3771 73.6426 81.8023C73.7326 81.4504 73.8307 79.6114 73.8601 77.716C73.8899 75.8207 74.0035 74.1231 74.1126 73.9434C74.2217 73.764 74.43 72.733 74.575 71.6523C75.1017 67.7346 76.8606 62.317 77.7345 61.9223C77.8754 61.8583 77.991 61.5878 77.991 61.3208C77.991 61.0537 78.606 60.0106 79.3578 59.0026C80.1093 57.9949 80.725 57.0318 80.726 56.8628C80.7291 56.2056 85.5639 50.1339 87.2645 48.6512C88.2517 47.7906 89.4314 46.7124 89.886 46.2548C90.8594 45.2753 95.4996 42.9293 97.1746 42.5698C97.8169 42.4321 98.8044 42.1139 99.3688 41.8632C101.218 41.0416 107.032 39.9585 109.592 39.9585C112.057 39.9585 118.549 41.0656 119.891 41.7147C121.02 42.2607 123.925 43.0663 124.181 42.905C124.792 42.5211 117.603 35.8444 115.565 34.9024C114.935 34.6114 113.957 34.0769 113.393 33.715C112.828 33.353 111.597 32.7897 110.656 32.4632C109.716 32.1364 108.792 31.7549 108.604 31.6151C108.416 31.4757 107.185 31.0101 105.868 30.5811C104.02 29.9788 102.458 29.7737 99.0268 29.6826C96.5811 29.6179 94.2723 29.6443 93.8961 29.7413ZM65.8522 21.3066C69.0623 18.746 76.6471 15.6347 82.2666 14.5735C85.9559 13.8767 94.3366 14.3284 98.9686 15.4737C103.635 16.6278 109.651 19.3378 111.58 21.1553C112.467 21.9905 113.003 22.414 113.625 22.7701C114.895 23.4975 121.91 30.5174 122.984 32.135C123.618 33.0912 124.493 34.2647 124.927 34.7428C126.977 37.0019 129.982 42.1049 129.982 43.3267C129.982 43.5778 130.118 43.7833 130.284 43.7833C130.45 43.7833 130.669 44.106 130.771 44.5006C130.941 45.1644 130.9 45.156 130.212 44.3886C129.803 43.9328 128.701 42.5538 127.762 41.3246C126.823 40.0951 124.431 37.4463 122.447 35.4382C118.653 31.5985 116.012 29.7754 111.677 28.0017C110.363 27.4645 108.81 26.8185 108.225 26.5667C107.64 26.3146 105.486 25.8386 103.436 25.509C100.153 24.9805 99.1625 24.9603 95.0932 25.3379C92.5536 25.5737 89.86 25.9951 89.1075 26.275C88.355 26.5546 86.8927 27.0879 85.858 27.46C83.9385 28.1506 82.5361 28.7963 81.9245 29.2712C81.222 29.8168 76.4169 33.0974 75.5132 33.6486C74.9971 33.9636 74.574 34.4219 74.5726 34.6667C74.5716 34.9118 74.3075 35.215 73.986 35.3405C73.2455 35.6291 71.8592 37.2122 71.8451 37.7853C71.839 38.0245 71.7025 38.2199 71.5414 38.2199C71.1235 38.2199 68.7339 41.5718 67.7615 43.5225C67.3086 44.4311 66.8082 45.1741 66.6498 45.1741C66.4911 45.1741 66.3615 45.4777 66.3615 45.849C66.3615 46.2204 66.2288 46.6074 66.0663 46.7093C65.9042 46.8115 65.5717 47.6422 65.3278 48.5553C65.084 49.4687 64.6225 50.8418 64.3024 51.6068C63.6785 53.0978 62.941 56.6291 62.941 58.1267C62.941 58.6298 62.8005 59.1298 62.6288 59.2376C62.3411 59.4184 62.3986 63.3403 62.7519 67.6498C62.9831 70.4701 63.6641 73.7302 64.3568 75.3342C64.707 76.1451 64.9933 77.0484 64.9933 77.3422C64.9933 77.6361 65.3012 78.7668 65.6774 79.8548C66.0537 80.9431 66.3615 81.9025 66.3615 81.9863C66.3615 82.4894 64.9642 80.7157 64.2733 79.3357C63.8228 78.4358 63.1849 77.4222 62.8555 77.0839C62.5261 76.7452 62.257 76.3008 62.257 76.096C62.257 75.8916 61.8338 75.0675 61.3163 74.265C59.7522 71.8383 59.5309 71.4614 59.1392 70.557C58.9323 70.0789 58.6255 69.4162 58.4575 69.0841C58.2899 68.752 58.1524 68.2566 58.1524 67.9829C58.1524 67.7093 58.0368 67.4335 57.8959 67.3695C57.755 67.3059 57.2761 66.4714 56.8325 65.5152C56.3885 64.559 55.8881 63.5051 55.7208 63.173C55.5532 62.841 55.4161 62.1852 55.4161 61.7158C55.4161 61.2464 55.2621 60.7655 55.074 60.6473C54.8859 60.529 54.732 59.9619 54.732 59.3868C54.732 58.812 54.5733 58.0401 54.3793 57.6719C53.3347 55.6872 53.3823 40.4178 54.4354 39.7561C54.5986 39.6535 54.732 39.1073 54.732 38.5422C54.732 37.9772 54.8719 37.2432 55.0432 36.9111C55.5224 35.9817 56.7842 32.6026 56.7842 32.249C56.7842 31.765 60.7109 26.0083 61.8427 24.833C62.9321 23.7019 63.7394 22.9919 65.8522 21.3066ZM180.775 12.853C179.835 13.0018 178.18 13.1374 177.098 13.1541C176.017 13.1712 175.132 13.3116 175.132 13.4667C175.132 13.6218 174.324 13.949 173.336 14.1938C171.363 14.6827 166.025 16.8611 165.212 17.5092C164.93 17.7342 164.266 18.1066 163.735 18.3368C163.205 18.5666 162.155 19.3403 161.402 20.0555C158.038 23.251 153.681 27.7375 152.899 28.8112C152.428 29.4569 151.851 30.1836 151.616 30.4267C151.381 30.6697 151.189 30.9726 151.189 31.1002C151.189 31.2278 150.879 31.7744 150.5 32.3147C150.122 32.8551 149.379 34.1308 148.85 35.15C147.621 37.5165 146.959 38.6963 146.736 38.9153C146.639 39.011 146.364 39.8552 146.126 40.7912C145.887 41.7273 145.388 42.9265 145.017 43.4564C144.188 44.6404 143.752 46.565 144.313 46.565C144.53 46.565 144.843 46.2131 145.009 45.7826C145.175 45.3522 145.595 44.7527 145.941 44.4498C146.287 44.1473 147.155 43.2475 147.867 42.4505C148.58 41.6536 149.318 41.0016 149.506 41.0016C149.694 41.0016 150.433 40.3757 151.149 39.6108C151.865 38.8458 152.55 38.2199 152.671 38.2199C152.944 38.2199 154.183 37.2074 154.905 36.3944C155.202 36.0599 155.662 35.7859 155.928 35.7859C156.193 35.7859 156.659 35.4977 156.963 35.1451C157.454 34.5766 158.937 33.5908 159.398 33.5265C159.492 33.5133 160.223 33.0755 161.023 32.5529C161.823 32.0307 163.209 31.2768 164.102 30.878C164.995 30.4788 166.495 29.7858 167.436 29.3373C168.376 28.8887 169.685 28.4256 170.343 28.3074C176.504 27.203 178.2 27.0393 181.802 27.2006C183.871 27.2934 186.103 27.4697 186.761 27.5932C187.42 27.7163 188.805 27.9795 189.84 28.178C191.778 28.5501 195.879 30.386 198.129 31.8888C201.123 33.8885 207.443 40.2269 208.478 42.2669C208.852 43.0051 209.252 43.6877 209.367 43.7833C210.284 44.5476 211.655 49.1464 212.423 54.039C212.843 56.7066 212.981 70.9489 212.595 71.5855C212.462 71.8039 212.224 73.2657 212.066 74.8338C211.715 78.3311 211.456 79.6177 210.988 80.1907C210.79 80.4334 210.715 80.8635 210.822 81.1465C210.929 81.4299 210.867 81.7554 210.684 81.8705C210.501 81.9856 210.433 82.2144 210.533 82.3792C210.634 82.544 210.559 82.777 210.368 82.8973C210.177 83.0172 210.02 83.3472 210.02 83.6302C210.02 84.0444 210.139 84.0235 210.629 83.5228C211.228 82.9115 211.413 82.5572 212.591 79.7713C212.914 79.0064 213.599 77.4417 214.112 76.2942C214.626 75.1468 215.313 73.4256 215.638 72.4694C215.964 71.5132 216.355 70.4179 216.509 70.0354C216.661 69.653 217.023 68.5577 217.312 67.6015C217.601 66.6453 218.214 64.7676 218.676 63.4289C219.137 62.0903 219.698 60.0561 219.921 58.9087C220.144 57.7613 220.448 56.3433 220.595 55.7574C220.967 54.2748 221.153 49.9058 221.046 45.1741C220.96 41.4046 220.397 38.4692 219.179 35.4382C218.007 32.522 215.073 27.4325 214.401 27.1512C214.249 27.0873 214.125 26.9044 214.125 26.7444C214.125 26.2667 208.341 20.5628 207.006 19.7241C206.326 19.2968 205.519 18.7071 205.212 18.4129C203.857 17.1139 199.627 15.1604 196.541 14.4087C195.429 14.1378 194.428 13.7828 194.317 13.6197C194.057 13.2372 187.17 12.4754 184.522 12.5359C183.402 12.5613 181.716 12.7042 180.775 12.853ZM165.445 35.9727C168.322 34.5502 170.629 33.7776 174.277 33.0157C175.774 32.7028 183.837 32.8453 184.393 33.1944C184.583 33.3141 185.848 33.6979 187.204 34.0474C190.061 34.7842 191.716 35.4014 192.918 36.1781C193.388 36.482 194.581 37.2488 195.569 37.8816C196.557 38.5144 197.365 39.1626 197.365 39.3215C197.365 39.4807 197.596 39.6108 197.878 39.6108C198.16 39.6108 198.392 39.7279 198.393 39.8715C198.395 40.0151 199.003 40.7582 199.745 41.5232C200.486 42.2881 201.101 43.0096 201.11 43.1265C201.12 43.2433 201.828 44.1035 202.683 45.0378C204.305 46.8077 204.515 47.1509 206.601 51.4329C209.136 56.6357 209.963 64.5089 208.792 72.2956C208.547 73.9211 208.339 75.3683 208.329 75.5119C208.319 75.6551 208.118 75.7334 207.882 75.6857C207.648 75.6378 207.347 75.0512 207.215 74.3818C206.919 72.8835 206.372 70.3599 206.064 69.074C205.938 68.5455 205.699 68.0278 205.533 67.9234C205.367 67.8195 205.232 67.4408 205.232 67.0823C205.232 66.324 203.599 62.2822 202.984 61.5165C202.754 61.2297 202.256 60.4296 201.878 59.7387C201.5 59.0478 200.984 58.1131 200.732 57.6618C199.991 56.3398 197.039 53.2667 194.987 51.6829C193.943 50.8769 193.012 50.1332 192.918 50.0303C192.824 49.927 191.977 49.3414 191.037 48.7295C190.096 48.1171 189.035 47.387 188.678 47.107C188.322 46.8271 187.602 46.5024 187.077 46.3852C186.553 46.2684 185.941 45.9478 185.717 45.6734C185.493 45.3987 185.031 45.1741 184.692 45.1741C184.352 45.1741 183.87 44.9787 183.622 44.7395C183.373 44.5006 183.016 44.2996 182.828 44.293C182.336 44.2763 179.808 43.8167 176.842 43.2047C173.779 42.5729 166.881 42.3024 164.015 42.7016C162.887 42.8587 160.732 43.3459 159.227 43.7836C157.722 44.2214 155.824 44.7631 155.01 44.9871C154.196 45.2113 153.414 45.5851 153.272 45.8177C153.023 46.228 151.862 46.0222 151.883 45.5716C151.888 45.4485 152.312 44.995 152.824 44.5635C153.335 44.132 154.293 43.301 154.951 42.7165C155.61 42.1324 156.701 41.2864 157.376 40.8371C158.052 40.3875 158.821 39.8041 159.086 39.5402C159.697 38.9324 161.475 37.9348 165.445 35.9727ZM166.239 48.693C161.792 49.3008 158.129 50.1506 154.78 51.3523C152.899 52.0272 151.283 52.6735 151.189 52.7886C151.095 52.9034 150.017 53.5338 148.794 54.1889C147.571 54.844 146.494 55.4751 146.4 55.5912C146.306 55.7073 145.421 56.3972 144.433 57.1243C143.445 57.8513 142.637 58.5603 142.637 58.6994C142.637 58.8388 144.061 59.1173 145.801 59.3186C149.648 59.763 154.414 60.7356 155.806 61.3597C156.371 61.6129 157.357 61.9261 157.999 62.0558C160.038 62.4682 164.525 64.3271 167.436 65.9651C168.376 66.4944 170.065 67.445 171.189 68.0778C175.005 70.226 176.158 70.9701 176.158 71.2855C176.158 71.4586 176.378 71.6001 176.647 71.6001C176.915 71.6001 177.339 71.8039 177.587 72.0525C177.836 72.3015 178.963 73.2646 180.091 74.193C184.079 77.4723 186.26 79.6573 188.584 82.6991C192.044 87.2315 194.739 90.9238 195.581 92.2889C196.052 93.0539 196.647 93.8049 196.901 93.9579C197.156 94.1109 197.365 94.5237 197.365 94.8756C197.365 95.2274 197.659 95.8846 198.02 96.3359L198.675 97.1569L199.908 94.3752C200.587 92.8453 201.292 91.322 201.476 90.9899C201.661 90.6578 201.811 89.9927 201.811 89.5121C201.811 89.0312 201.937 88.638 202.091 88.638C202.371 88.638 202.813 86.5521 203.571 81.6472C203.958 79.1469 203.846 77.4149 203.044 73.5126C202.569 71.1971 201.795 68.9923 200.757 66.9978C200.584 66.6658 200.443 66.1814 200.443 65.9217C200.443 65.6616 200.135 65.1658 199.759 64.8198C199.383 64.4738 199.075 64.0569 199.075 63.8935C199.075 63.7304 198.652 63.0965 198.134 62.4853C196.113 60.0972 194.105 57.8607 193.891 57.7606C193.767 57.7028 193.212 57.2143 192.657 56.675C191.323 55.3794 187.131 52.611 185.306 51.8217C181.064 49.9861 173.718 48.2733 170.403 48.3463C169.335 48.3699 167.461 48.5261 166.239 48.693ZM66.5325 96.9208C67.4731 96.7334 68.8584 96.4562 69.6109 96.3057C70.8098 96.0654 72.0938 96.1457 72.4701 96.4848C72.5378 96.5456 72.2683 97.0588 71.8715 97.6252C71.4747 98.1917 71.1501 98.9048 71.1501 99.2098C71.1501 99.5151 70.9962 99.7647 70.8081 99.7647C70.6199 99.7647 70.466 99.9229 70.466 100.116C70.466 100.31 70.1702 101.131 69.8083 101.942C67.5528 106.995 65.5546 113.77 64.6557 119.41C64.4423 120.749 64.1231 122.6 63.9463 123.522C63.5348 125.673 63.527 138.636 63.9364 140.554C64.1074 141.355 64.4296 143.107 64.6526 144.446C65.0111 146.6 66.5469 151.916 67.364 153.834C67.5272 154.216 67.8456 155.077 68.0717 155.746C68.8249 157.976 69.9075 160.57 71.1785 163.191C71.5411 163.939 71.7696 164.621 71.6858 164.706C71.4901 164.905 65.269 162.737 64.8394 162.32C64.6605 162.147 64.2312 162.005 63.8851 162.005C63.5386 162.005 62.8384 161.716 62.3288 161.364C61.8188 161.011 60.7092 160.268 59.8626 159.713C59.0161 159.158 58.2465 158.625 58.1524 158.528C58.0584 158.432 57.5877 158.147 57.1068 157.896C56.6259 157.645 55.6695 156.941 54.9813 156.332C54.2935 155.723 53.1668 154.755 52.4779 154.181C49.8021 151.954 47.848 149.602 46.526 147.019C44.9666 143.972 42.4184 136.46 42.4184 134.911C42.4184 134.347 42.2809 133.518 42.1129 133.069C41.606 131.713 41.3714 125.158 41.7237 122.192C42.1529 118.578 42.5117 116.925 43.2143 115.325C43.529 114.608 44.0219 113.479 44.3092 112.818C45.4126 110.277 50.0022 105.171 53.1045 103.031C53.9056 102.479 54.6417 101.918 54.7402 101.785C54.8384 101.652 56.3006 100.828 57.9896 99.9546C61.0626 98.3641 63.3269 97.5602 66.5325 96.9208ZM56.2681 94.7003C55.702 94.9423 54.5127 95.2511 53.6255 95.3863C52.7379 95.5216 51.9282 95.7692 51.8266 95.9364C51.725 96.1037 50.7595 96.4333 49.681 96.669C48.6025 96.9051 47.5661 97.207 47.378 97.3401C47.1899 97.4737 46.5742 97.6934 46.0098 97.829C45.4455 97.9646 43.9312 98.6903 42.6448 99.4417C41.3584 100.193 40.1766 100.808 40.0186 100.808C39.8602 100.808 39.5271 101.004 39.2777 101.242C39.0284 101.482 37.6708 102.569 36.2605 103.659C33.6914 105.646 30.7888 108.291 30.7888 108.645C30.7888 108.749 30.5056 109.143 30.1595 109.521C29.8133 109.899 29.3187 110.636 29.0601 111.158C28.8016 111.681 28.3412 112.5 28.0367 112.978C27.3954 113.985 26.0584 118.77 25.8507 120.801C25.7724 121.566 25.6021 123.25 25.4721 124.542C25.0791 128.452 26.4914 135.579 28.6093 140.37C29.0557 141.38 29.4207 142.358 29.4207 142.544C29.4207 142.729 29.5369 142.881 29.6792 142.881C29.8215 142.881 30.1543 143.389 30.4191 144.011C31.8957 147.478 36.6977 152.94 41.0143 156.063C42.2569 156.962 43.543 157.801 43.8721 157.928C44.2011 158.055 44.4706 158.32 44.4706 158.517C44.4706 158.714 44.6519 158.876 44.8732 158.876C45.0945 158.876 46.5185 159.483 48.0371 160.226C53.0447 162.676 55.3825 163.743 55.7437 163.743C56.4309 163.743 56.0909 163.156 55.1595 162.733C53.7353 162.086 49.8558 159.312 47.378 157.167C46.7767 156.647 44.9984 154.573 43.923 153.138C42.9718 151.87 42.5432 151.15 40.5015 147.401C40.1373 146.732 39.6396 145.558 39.3957 144.793C39.1522 144.028 38.8091 143.05 38.6333 142.62C38.4575 142.19 38.1715 141.485 37.9974 141.055C37.8237 140.625 37.587 139.804 37.4721 139.23C37.3568 138.656 37.0151 137.091 36.7124 135.753C36.0129 132.658 35.9192 124.037 36.5557 121.323C37.521 117.207 38.5064 114.405 40.1325 111.152C41.0646 109.287 41.96 107.762 42.1228 107.762C42.2853 107.762 42.4184 107.594 42.4184 107.39C42.4184 107.185 42.6109 106.818 42.8459 106.575C43.0812 106.332 43.6583 105.618 44.1286 104.987C45.6842 102.901 52.1591 97.6545 54.4754 96.603C54.993 96.3683 55.4161 96.0446 55.4161 95.8839C55.4161 95.7236 55.6086 95.5873 55.8436 95.5811C56.3563 95.5678 57.651 94.6186 57.4434 94.4082C57.363 94.3269 56.8342 94.4583 56.2681 94.7003ZM47.378 90.1599C49.2593 90.05 50.8583 89.9015 50.9315 89.8303C51.0051 89.7586 51.2062 89.7889 51.3789 89.8974C51.5516 90.0059 52.6845 90.0997 53.8967 90.106C55.1086 90.1123 56.1001 90.2538 56.1001 90.4207C56.1001 90.5876 56.0618 90.7347 56.0146 90.7472C55.9674 90.7597 54.6208 90.9808 53.0217 91.2385C48.4339 91.9774 40.7263 94.6262 38.2762 96.3053C37.7324 96.6781 36.8321 97.296 36.2752 97.6785C35.7187 98.0609 35.1414 98.3739 34.9922 98.3739C34.8434 98.3739 33.8279 99.2258 32.7361 100.267C31.6439 101.309 30.1862 102.665 29.4966 103.28C26.6662 105.806 22.8124 112.286 21.2301 117.179C20.7423 118.687 20.0955 124.476 20.0486 127.755C20.0302 129.046 20.6171 134.259 20.9103 135.405C21.1059 136.17 21.4254 137.422 21.6203 138.187C22.1577 140.294 22.574 141.4 24.0054 144.526C24.7264 146.099 25.3161 147.546 25.3161 147.742C25.3161 147.937 25.47 148.097 25.6582 148.097C25.8463 148.097 26.0002 148.236 26.0002 148.407C26.0002 148.578 26.462 149.221 27.0263 149.835C27.5907 150.449 28.0525 151.17 28.0525 151.437C28.0525 151.703 28.2064 151.921 28.3945 151.921C28.5827 151.921 28.7373 152.117 28.7383 152.356C28.74 152.867 30.2111 154.516 31.763 155.746C32.366 156.224 33.3798 157.092 34.0153 157.676C34.6512 158.259 35.8015 159.159 36.5714 159.675C37.3417 160.192 38.5574 161.005 39.2729 161.483C39.9885 161.961 40.9725 162.353 41.4596 162.353C41.9467 162.353 42.4245 162.563 42.5217 162.82C42.6185 163.077 43.674 163.652 44.8671 164.098C46.0598 164.544 47.5723 165.194 48.228 165.543C48.8837 165.892 49.6533 166.179 49.9382 166.18C50.2231 166.181 50.9182 166.433 51.4825 166.739C52.9961 167.561 56.8523 168.636 57.5179 168.422C57.835 168.319 58.1938 168.398 58.3149 168.597C58.436 168.796 58.9104 168.959 59.3697 168.959C60.4191 168.959 60.4793 169.639 59.4351 169.697C55.4157 169.92 52.2487 169.908 50.9695 169.666C50.1229 169.506 48.3053 169.275 46.9299 169.153C45.5549 169.03 43.7848 168.794 42.9964 168.626C42.2083 168.459 40.2549 168.058 38.6559 167.734C37.0568 167.41 35.6715 167.03 35.5775 166.888C35.4834 166.747 34.7138 166.523 33.8672 166.39C31.135 165.964 24.6645 163.479 23.6801 162.477C23.4243 162.218 23.0658 162.005 22.8835 162.005C22.2083 162.005 17.1221 157.976 15.9691 156.527C15.6253 156.096 15.1252 155.52 14.8574 155.248C14.5896 154.975 14.3707 154.665 14.3707 154.558C14.3707 154.384 13.8258 153.65 12.8315 152.486C10.8801 150.202 8.0073 144.809 6.85631 141.269C6.42944 139.956 5.95981 138.557 5.81273 138.159C5.30103 136.775 5.42964 127.21 5.99504 124.626C6.28783 123.287 6.61107 121.644 6.71368 120.975C6.8163 120.306 7.02049 119.445 7.16757 119.063C7.31465 118.68 7.62043 117.741 7.84721 116.976C9.25849 112.212 11.9736 107.654 15.4067 104.285C18.1233 101.619 18.6746 101.156 19.1255 101.156C19.3108 101.156 19.6638 100.879 19.9094 100.542C20.1554 100.204 20.8035 99.7272 21.3498 99.4817C21.896 99.2362 23.1435 98.4956 24.1214 97.8353C25.0996 97.1753 26.0655 96.6353 26.2677 96.6353C26.4698 96.6353 26.8389 96.4333 27.0876 96.1864C27.3359 95.9396 28.1551 95.427 28.9076 95.0473C29.6601 94.668 31.0454 93.9475 31.986 93.4468C35.1441 91.766 40.8925 90.5382 47.378 90.1599ZM74.6561 174.01C74.233 175.066 73.8865 176.319 73.8865 176.796C73.8865 177.272 73.7449 177.933 73.5714 178.265C72.9592 179.439 72.4116 184.872 72.663 187.278C72.7991 188.582 72.9794 190.43 73.0638 191.386C73.148 192.343 73.3498 193.516 73.5123 193.994C73.6744 194.472 74.0083 195.568 74.2545 196.428C74.5005 197.289 75.1339 198.647 75.6624 199.446C76.1905 200.246 76.6228 201.048 76.6228 201.229C76.6228 201.799 82.1947 207.368 83.8058 208.409C84.6523 208.955 85.7619 209.691 86.2719 210.043C86.7815 210.396 87.4014 210.684 87.6493 210.684C87.8973 210.684 88.4145 210.908 88.7986 211.182C90.504 212.396 94.5863 213.469 99.063 213.88C102.975 214.239 104.121 214.219 107.322 213.73C109.366 213.418 111.492 212.932 112.045 212.652C113.702 211.811 116.191 210.684 116.391 210.684C116.59 210.684 121.021 207.804 121.602 207.297C121.79 207.133 122.751 206.387 123.739 205.639C125.738 204.123 125.662 203.948 122.855 203.586C121.85 203.456 120.773 203.222 120.46 203.064C120.147 202.906 118.968 202.54 117.839 202.25C114.509 201.395 111.695 200.491 111.508 200.217C111.412 200.076 110.873 199.847 110.311 199.708C109.748 199.57 108.749 199.168 108.091 198.815C106.374 197.896 101.914 195.876 100.908 195.561C100.438 195.414 99.6445 195.002 99.1451 194.644C98.6457 194.287 98.1563 193.994 98.0574 193.994C97.6788 193.994 93.4682 191.035 91.6752 189.509C88.1494 186.507 79.8503 177.737 79.4098 176.547C79.3434 176.368 78.9586 175.871 78.5547 175.443C78.1504 175.015 77.3798 174.085 76.8414 173.377C76.3034 172.668 75.7647 172.089 75.6443 172.089C75.5242 172.089 75.0792 172.954 74.6561 174.01ZM67.1951 181.651C67.4362 181.077 67.806 180.177 68.0163 179.651C68.227 179.125 68.4545 178.695 68.5219 178.695C68.5896 178.695 68.5721 181.513 68.4832 184.957C68.3221 191.198 68.5051 193.131 69.6485 197.268C70.2225 199.345 72.4831 204.078 72.9011 204.078C73.0669 204.078 73.2024 204.236 73.2024 204.429C73.2024 205.253 77.8672 210.102 80.9672 212.499C82.9811 214.057 86.0318 215.9 86.5962 215.9C86.7665 215.9 87.4783 216.16 88.1778 216.477C88.8773 216.794 89.5265 217.075 89.6205 217.101C89.7146 217.126 90.6381 217.348 91.6728 217.593C92.7075 217.838 93.9388 218.186 94.4092 218.365C95.6686 218.845 104.516 218.86 106.894 218.387C111.695 217.43 112.74 217.149 113.307 216.658C113.637 216.373 113.906 216.246 113.906 216.377C113.906 216.68 115.949 215.612 116.564 214.986C116.822 214.724 117.311 214.509 117.651 214.509C117.99 214.509 118.46 214.275 118.694 213.988C118.929 213.701 119.269 213.466 119.451 213.466C119.633 213.466 120.345 212.927 121.034 212.269C121.722 211.61 122.901 210.649 123.654 210.134C124.406 209.619 125.21 208.926 125.439 208.594C125.899 207.927 127.245 207.436 127.245 207.935C127.245 208.109 127.092 208.25 126.903 208.25C126.715 208.25 126.561 208.414 126.561 208.613C126.561 208.975 126.233 209.449 125.108 210.709C124.778 211.078 124.509 211.536 124.509 211.728C124.509 211.919 124.393 212.085 124.253 212.096C124.112 212.108 123.303 213.043 122.457 214.174C121.61 215.306 120.648 216.324 120.319 216.437C119.99 216.55 119.711 216.827 119.698 217.053C119.664 217.689 116.056 220.671 113.393 222.266C112.076 223.055 110.921 223.803 110.827 223.928C110.535 224.317 106.381 226.354 106.381 226.109C106.381 225.981 106.099 226.135 105.754 226.452C104.833 227.3 99.835 228.723 96.1686 229.181C90.8502 229.846 84.4108 228.905 79.0171 226.675C78.1706 226.325 77.2471 225.947 76.9649 225.834C75.3826 225.205 73.0741 223.398 70.6596 220.9C68.8728 219.052 68.1059 217.916 66.8185 215.21C65.2362 211.884 65.1736 211.722 64.2767 208.598C63.6128 206.287 63.5297 205.199 63.5458 199.036C63.5564 194.896 63.7148 191.686 63.9364 191.103C64.1416 190.565 64.3092 189.778 64.3092 189.355C64.3092 188.932 64.7453 187.729 65.2786 186.683C65.8115 185.636 66.3622 184.311 66.5021 183.737C66.642 183.163 66.9536 182.224 67.1951 181.651ZM62.3551 180.567C61.5445 181.515 58.1524 186.574 58.1524 186.835C58.1524 186.931 57.6907 187.806 57.1263 188.779C56.5619 189.752 56.1001 190.699 56.1001 190.884C56.1001 191.069 55.8149 191.883 55.4667 192.694C54.2107 195.616 53.1004 199.701 52.2785 204.426C51.3221 209.921 51.8807 225.441 53.0614 226.182C53.2276 226.287 53.3638 226.655 53.3638 227.001C53.3638 227.807 54.7467 231.235 55.3104 231.824C55.5474 232.072 55.9934 232.815 56.3016 233.476C56.6098 234.136 56.9987 234.676 57.1653 234.676C57.3319 234.676 57.4683 234.908 57.4683 235.191C57.4683 235.86 64.5134 243.096 65.8484 243.797C71.683 246.862 73.9799 247.687 78.3238 248.279C82.3333 248.825 88.4993 248.489 91.5018 247.561C92.2828 247.32 93.3585 246.987 94.3793 246.672L94.5597 246.616L94.7681 246.551L94.9769 246.487L96.2904 246.081C97.6073 245.674 99.221 245.053 99.8767 244.702C100.532 244.352 101.193 244.065 101.344 244.065C101.496 244.065 102.037 243.776 102.546 243.424C103.056 243.071 104.166 242.328 105.013 241.772C106.692 240.669 106.832 240.567 108.091 239.508C108.561 239.113 109.391 238.451 109.936 238.037C112.993 235.713 119.72 228.954 119.72 228.207C119.72 227.972 119.845 227.728 119.997 227.664C120.639 227.395 125.215 219.377 124.726 219.377C124.658 219.377 124.081 219.844 123.444 220.415C122.807 220.985 122.17 221.455 122.029 221.458C121.888 221.461 121.773 221.68 121.773 221.945C121.773 222.427 119.26 224.941 118.778 224.941C118.637 224.941 117.791 225.632 116.898 226.478C115.459 227.84 112.588 229.436 105.868 232.611C104.278 233.362 100.46 234.304 98.0006 234.553C97.06 234.648 95.5577 234.85 94.6623 235.002C90.281 235.745 82.5905 234.121 77.1513 231.304C72.1831 228.731 68.7849 225.78 65.1257 220.862C60.6144 214.799 58.815 208.669 58.7883 199.27C58.7712 193.322 59.1533 190.616 60.5926 186.494C61.132 184.95 61.5729 183.515 61.5729 183.306C61.5729 183.097 61.6885 182.873 61.8294 182.81C62.1492 182.665 63.3587 180.047 63.1863 179.872C63.1169 179.801 62.743 180.114 62.3551 180.567ZM190.525 179.738C191.155 178.878 191.99 177.841 192.38 177.436C193.252 176.528 193.473 176.635 193.719 178.083C193.824 178.707 194.076 180.155 194.278 181.303C194.872 184.676 195.238 189.157 195.089 191.213C194.908 193.689 194.312 197.454 193.96 198.341C193.808 198.723 193.324 200.21 192.885 201.644C192.446 203.078 192.004 204.33 191.904 204.426C191.803 204.521 191.458 205.147 191.137 205.816C190.15 207.871 189.387 208.997 187.873 210.631C187.073 211.494 186.419 212.38 186.419 212.601C186.419 213.063 183.903 215.205 183.361 215.205C183.162 215.205 182.999 215.457 182.999 215.767C182.999 216.166 182.791 216.274 182.281 216.138C181.886 216.033 181.646 216.032 181.747 216.134C182.16 216.554 179.911 218.205 179.151 218.042C179.01 218.011 178.894 218.152 178.894 218.355C178.894 218.557 178.756 218.636 178.588 218.531C178.419 218.424 178.188 218.588 178.072 218.894C177.949 219.221 177.645 219.365 177.334 219.243C177.044 219.13 176.893 219.179 176.998 219.353C177.103 219.526 176.419 219.928 175.477 220.245C174.534 220.564 173.764 220.954 173.764 221.112C173.764 221.271 172.109 221.815 170.087 222.322C166.569 223.204 160.926 223.558 159.97 222.958C159.789 222.844 159.009 222.68 158.237 222.592C157.464 222.504 156.217 222.216 155.464 221.953C154.712 221.689 153.766 221.471 153.363 221.469C152.96 221.466 152.541 221.229 152.433 220.942C152.325 220.655 151.867 220.42 151.416 220.42C150.966 220.42 150.206 220.108 149.729 219.726C149.251 219.345 148.551 218.914 148.172 218.77C147.234 218.413 138.875 211.67 138.875 211.27C138.875 211.094 138.408 210.382 137.837 209.687C135.863 207.286 135.354 206.286 135.743 205.579C135.998 205.116 136.824 205.004 140.521 204.932C144.599 204.853 149.187 204.234 152.728 203.284C153.48 203.083 154.327 202.875 154.609 202.822C155.939 202.573 158.305 201.869 159.278 201.432C159.871 201.166 160.521 200.949 160.723 200.949C161.444 200.949 169.674 196.961 173.079 194.962C175.708 193.418 176.286 193.034 177.537 191.995C178.056 191.565 178.65 191.213 178.858 191.213C179.066 191.213 179.236 191.077 179.236 190.911C179.236 190.745 179.814 190.219 180.519 189.741C182.192 188.608 189.054 181.748 190.525 179.738ZM205.232 191.752C205.232 192.144 205.372 192.613 205.542 192.795C205.713 192.976 205.936 193.907 206.038 194.864C206.14 195.82 206.383 197.921 206.579 199.533C207.044 203.361 206.888 210.878 206.332 211.444C206.103 211.676 205.916 212.29 205.916 212.807C205.916 213.325 205.626 214.35 205.272 215.085C204.918 215.82 204.268 217.204 203.829 218.16C203.389 219.116 202.601 220.443 202.078 221.108C201.555 221.773 201.127 222.422 201.127 222.55C201.127 223.238 195.705 228.845 192.97 230.985C191.179 232.387 189.151 233.735 188.129 234.202C187.847 234.331 187.425 234.587 187.191 234.771C186.387 235.403 181.114 237.06 178.039 237.647C173.897 238.437 167.621 238.445 163.502 237.663C157.661 236.556 153.999 235.141 149.762 232.354C147.336 230.758 142.37 225.927 141.338 224.158C141.031 223.632 140.659 223.202 140.511 223.202C140.364 223.202 140.243 223.039 140.243 222.84C140.243 222.64 139.96 222.169 139.614 221.791C139.268 221.413 138.767 220.676 138.502 220.154C138.237 219.631 137.843 219.012 137.626 218.778C137.409 218.544 136.87 217.762 136.429 217.04C135.688 215.828 135.617 215.789 135.513 216.534C135.451 216.978 135.632 217.839 135.914 218.446C136.197 219.054 136.533 219.981 136.662 220.507C136.791 221.033 137.034 221.463 137.202 221.463C137.37 221.463 137.507 221.855 137.507 222.333C137.507 222.811 137.661 223.202 137.849 223.202C138.037 223.202 138.191 223.421 138.191 223.688C138.191 224.21 140.079 228.026 140.608 228.574C140.784 228.756 140.927 229.17 140.927 229.494C140.927 229.818 141.309 230.452 141.777 230.902C142.243 231.352 142.628 231.864 142.632 232.038C142.646 232.814 144.816 235.745 145.25 235.575C145.506 235.476 145.734 235.584 145.755 235.817C145.777 236.051 145.815 236.398 145.841 236.589C145.896 237.009 148.11 239.459 148.11 239.1C148.11 238.962 148.396 239.123 148.745 239.458C149.095 239.792 149.364 240.147 149.344 240.246C149.324 240.346 149.654 240.875 150.077 241.423C150.5 241.971 150.851 242.282 150.857 242.112C150.863 241.943 151.024 242.079 151.216 242.413C151.408 242.748 151.788 243.022 152.061 243.022C152.333 243.022 152.557 243.256 152.557 243.543C152.557 243.83 152.766 244.065 153.022 244.065C153.278 244.065 154.02 244.576 154.672 245.201C156.779 247.221 162.696 250.192 167.265 251.524C169.647 252.219 171.61 252.522 174.619 252.661C178.645 252.848 185.252 252.316 186.378 251.716C186.683 251.554 188.087 251.067 189.498 250.634C192.301 249.774 196.662 247.107 198.904 244.881C201.246 242.554 203.863 239.426 203.863 238.953C203.863 238.705 203.979 238.501 204.12 238.501C204.35 238.501 205.483 236.205 207.81 231.026C209.091 228.175 209.688 226.039 210.234 222.35C210.943 217.56 210.71 209.578 209.729 205.121C208.452 199.314 205.233 189.743 205.232 191.752ZM198.966 200.296C199.579 198.922 199.697 198.393 199.733 196.863C199.782 194.729 200.345 195.734 200.608 198.428C201.296 205.452 201.004 210.714 199.763 213.64C199.438 214.405 199.074 215.45 198.952 215.963C198.831 216.475 198.501 217.129 198.219 217.416C197.937 217.702 197.707 218.182 197.707 218.483C197.707 218.784 197.553 219.03 197.365 219.03C197.176 219.03 197.023 219.193 197.023 219.393C197.023 219.778 195.571 221.455 192.709 224.374C190.972 226.146 185.837 229.698 185.265 229.523C185.1 229.473 184.715 229.649 184.41 229.915C183.68 230.549 182.604 230.982 182.009 230.88C181.747 230.835 181.428 230.971 181.3 231.181C181.056 231.582 180.212 231.827 178.21 232.077C177.552 232.159 176.166 232.358 175.132 232.519C172.698 232.898 169.201 232.758 169.043 232.276C168.969 232.051 168.691 232.012 168.349 232.18C167.616 232.539 166.575 232.45 165.654 231.949C165.253 231.731 164.452 231.65 163.872 231.768C162.996 231.946 162.817 231.872 162.813 231.33C162.809 230.874 162.726 230.809 162.536 231.113C162.327 231.447 161.597 231.314 159.377 230.536C154.744 228.913 149.5 225.964 149.486 224.974C149.48 224.574 149.587 224.583 150.077 225.025C150.635 225.528 153.014 226.279 156.661 227.104C158.358 227.488 166.935 227.61 168.291 227.269C171.12 226.558 174.371 225.615 174.96 225.336C175.337 225.157 177.107 224.33 178.894 223.498C180.681 222.666 182.195 221.868 182.258 221.724C182.32 221.581 182.513 221.463 182.685 221.463C182.988 221.463 183.328 221.204 184.966 219.725C185.389 219.342 185.95 219.03 186.212 219.03C186.474 219.03 186.774 218.803 186.878 218.526C186.983 218.249 187.571 217.759 188.185 217.436C188.799 217.113 189.867 216.205 190.558 215.418L191.281 214.594L191.346 214.52C191.933 213.851 192.583 213.11 193.034 212.597C193.705 211.832 194.453 210.815 194.697 210.337C194.941 209.859 195.225 209.389 195.33 209.294C195.434 209.198 195.796 208.494 196.134 207.729C196.472 206.964 197.021 205.784 197.355 205.107C197.69 204.43 198.071 203.335 198.202 202.673C198.334 202.012 198.678 200.942 198.966 200.296ZM201.379 103.102C201.263 103.22 201.293 103.574 201.446 103.888C202.658 106.373 203.863 109.16 203.863 109.476C203.863 109.686 204.002 110.13 204.172 110.462C204.342 110.794 204.667 111.769 204.895 112.63C205.123 113.491 205.434 114.508 205.586 114.89C205.737 115.273 205.968 116.368 206.098 117.324C206.229 118.28 206.467 119.845 206.627 120.801C206.788 121.757 207.011 125.356 207.124 128.799C207.358 135.975 206.676 143.5 205.248 149.487C205.043 150.348 204.781 151.642 204.665 152.364C204.55 153.086 204.322 153.76 204.159 153.863C203.997 153.965 203.863 154.381 203.863 154.787C203.863 155.703 201.559 161.56 199.687 165.4C198.917 166.981 198.386 168.375 198.507 168.498C198.917 168.915 205.501 168.513 206.429 168.015C206.805 167.813 207.528 167.649 208.035 167.651C208.542 167.653 209.216 167.392 209.533 167.07C209.85 166.748 210.326 166.57 210.593 166.674C211.666 167.093 216.404 164.098 219.427 161.091C224.053 156.488 226.037 152.681 227.434 145.723C227.915 143.333 227.916 133.994 227.437 131.846C226.838 129.165 225.707 124.722 225.289 123.409C224.906 122.208 222.41 117.488 221.979 117.15C221.857 117.055 221.228 116.272 220.581 115.412C217.91 111.86 214.861 109.435 209.174 106.34C204.321 103.699 201.815 102.658 201.379 103.102ZM210.342 164.439C210.143 164.439 210.075 164.282 210.191 164.091C210.308 163.9 210.47 163.743 210.554 163.743C210.637 163.743 210.704 163.9 210.704 164.091C210.704 164.282 210.541 164.439 210.342 164.439ZM214.523 103.029C214.398 103.106 214.112 102.966 213.887 102.719C213.555 102.354 213.844 102.303 215.426 102.45C216.498 102.55 217.614 102.759 217.907 102.914C218.201 103.068 219.74 103.427 221.328 103.711C222.916 103.995 224.677 104.474 225.241 104.776C225.806 105.077 226.462 105.325 226.7 105.326C226.937 105.327 227.399 105.472 227.726 105.647C228.841 106.247 231.561 107.414 231.843 107.414C231.998 107.414 232.432 107.706 232.809 108.063C233.185 108.419 233.859 108.91 234.305 109.153C235.403 109.75 235.686 109.999 238.428 112.778C239.735 114.102 240.804 115.393 240.804 115.646C240.804 115.9 240.945 116.107 241.117 116.107C241.456 116.107 244.225 121.633 244.225 122.31C244.225 122.537 244.366 122.995 244.538 123.327C245.039 124.294 246.203 128.658 246.414 130.363C246.957 134.745 247.001 136.511 246.639 139.306C246.033 143.969 244.544 149.861 243.471 151.834C241.776 154.952 241.351 155.666 240.52 156.789C239.215 158.554 234.681 163.007 233.249 163.932C232.573 164.368 231.796 164.953 231.522 165.232C231.248 165.51 230.647 165.858 230.185 166.006C229.723 166.153 228.979 166.564 228.53 166.921C228.081 167.277 227.339 167.568 226.881 167.568C226.423 167.568 225.817 167.803 225.535 168.089C225.253 168.376 224.61 168.702 224.106 168.812C223.602 168.924 222.573 169.307 221.821 169.665C218.791 171.103 212.044 172.19 211.517 171.323C211.339 171.03 212.441 170.535 212.944 170.683C213.058 170.716 213.427 170.419 213.766 170.022C214.104 169.626 214.862 169.131 215.45 168.922C216.038 168.714 216.519 168.402 216.519 168.23C216.519 168.057 216.689 167.916 216.897 167.916C217.105 167.916 217.711 167.564 218.244 167.134C218.777 166.704 219.928 165.815 220.801 165.159C222.882 163.597 225.82 160.469 227.399 158.135C228.094 157.108 228.741 156.189 228.837 156.094C229.009 155.924 229.482 154.94 231.429 150.704C232.923 147.453 233.362 144.414 233.415 136.97C233.452 131.701 233.242 128.471 232.835 128.057C232.703 127.923 232.595 127.223 232.595 126.501C232.595 125.779 232.441 125.092 232.253 124.974C232.065 124.856 231.911 124.386 231.911 123.931C231.911 123.475 231.773 123.015 231.603 122.909C231.434 122.803 231.11 121.972 230.884 121.063C230.657 120.154 230.106 118.784 229.66 118.02C229.213 117.255 228.575 116.042 228.242 115.325C227.909 114.608 227.37 113.934 227.046 113.827C226.722 113.72 226.118 113.133 225.704 112.523C225.29 111.912 224.324 110.828 223.557 110.113C220.173 106.957 219.657 106.497 218.583 105.676C217.958 105.198 217.193 104.572 216.883 104.285C216.572 103.998 216.018 103.71 215.649 103.644C215.281 103.579 214.928 103.383 214.865 103.208C214.802 103.033 214.648 102.953 214.523 103.029ZM223.702 97.3273C222.856 97.4792 221.367 97.7191 220.395 97.86C218.183 98.1805 218.221 99.0112 220.448 99.0112C221.263 99.0112 222.26 99.191 222.664 99.4104C223.067 99.6298 223.735 99.7821 224.148 99.7487C224.561 99.715 224.976 99.7181 225.07 99.7553C225.367 99.8725 226.566 100.084 227.815 100.24C228.92 100.377 230.743 101.138 232.937 102.376C233.408 102.641 234.923 103.451 236.305 104.174C237.688 104.898 239.381 106.099 240.068 106.842C240.755 107.585 241.664 108.516 242.087 108.91C242.51 109.303 242.857 109.816 242.857 110.048C242.857 110.279 243.085 110.559 243.365 110.668C243.645 110.777 244.143 111.498 244.472 112.27C244.801 113.042 245.181 113.673 245.316 113.673C245.451 113.673 245.661 114.21 245.782 114.867C245.904 115.529 246.369 116.341 246.824 116.688C247.276 117.033 247.645 117.669 247.645 118.102C247.645 118.535 247.799 118.889 247.987 118.889C248.175 118.889 248.33 119.163 248.331 119.497C248.331 119.832 248.639 120.618 249.015 121.244C249.39 121.87 249.697 122.937 249.697 123.614C249.697 124.292 249.842 125.121 250.02 125.458C250.197 125.795 250.404 126.449 250.48 126.913C250.556 127.376 250.708 127.99 250.817 128.277C251.069 128.936 251.419 132.532 251.41 134.362C251.388 139.005 251.066 143.715 250.75 144.036C250.547 144.242 250.382 144.799 250.382 145.273C250.382 145.747 250.233 146.615 250.051 147.203C249.87 147.79 249.639 148.69 249.538 149.202C249.437 149.715 249.124 150.368 248.842 150.655C248.56 150.942 248.329 151.346 248.329 151.553C248.329 151.761 248.19 152.203 248.019 152.535C247.848 152.867 247.135 154.312 246.434 155.746C245.183 158.304 243.663 160.674 243.127 160.904C242.978 160.968 242.857 161.205 242.857 161.43C242.857 161.656 241.533 163.089 239.916 164.614C236.149 168.166 234.634 169.222 230.09 171.464C228.618 172.19 227.19 172.784 226.915 172.784C226.641 172.784 226.343 172.98 226.252 173.219C226.161 173.458 225.618 173.67 225.045 173.691C224.472 173.712 223.828 173.908 223.613 174.126C223.112 174.636 224.746 174.668 226.414 174.182C227.194 173.955 227.722 173.959 228.003 174.196C228.291 174.439 228.462 174.435 228.545 174.184C228.611 173.982 230.05 173.587 231.742 173.306C235.398 172.699 239.326 171.649 240.762 170.894C241.331 170.595 242.074 170.349 242.412 170.349C242.751 170.348 243.531 170.035 244.147 169.653C244.763 169.271 245.533 168.952 245.858 168.943C246.182 168.934 247.372 168.387 248.5 167.728C249.629 167.069 250.886 166.381 251.294 166.199C251.703 166.017 252.198 165.586 252.396 165.24C252.594 164.895 252.76 164.766 252.766 164.953C252.771 165.14 253.122 164.951 253.545 164.532C253.969 164.113 255.293 162.865 256.488 161.759C257.684 160.653 259.411 158.731 260.327 157.488C262.029 155.178 265.432 148.609 265.432 147.635C265.432 147.337 265.559 147.014 265.715 146.916C265.981 146.749 266.219 145.781 267.12 141.203C267.32 140.184 267.483 137.368 267.483 134.944C267.482 131.355 267.323 129.924 266.626 127.234C265.394 122.483 263.725 118.506 261.777 115.676C261.153 114.769 260.643 113.93 260.643 113.809C260.643 113.689 260.22 113.08 259.702 112.456C259.185 111.831 258.377 110.82 257.907 110.208C256.541 108.431 256.445 108.334 254.828 107.066C253.982 106.403 253.113 105.701 252.899 105.507C250.197 103.061 241.93 99.0693 239.566 99.0693C239.194 99.0693 238.736 98.9135 238.548 98.723C238.241 98.4107 235.847 97.8527 233.108 97.4549C230.947 97.1412 225.173 97.0627 223.702 97.3273ZM124.541 125.91C126.621 121.934 129.351 119.519 133.663 117.838C134.819 117.388 136.192 117.21 138.45 117.218C141.5 117.228 141.625 117.259 141.823 118.059C142.022 118.866 142.637 119.234 142.637 118.547C142.637 118.359 143.17 118.463 143.82 118.778C144.47 119.093 144.924 119.481 144.828 119.639C144.731 119.797 144.81 120.201 145.003 120.538C145.196 120.874 145.368 120.992 145.388 120.801C145.406 120.61 145.554 120.766 145.716 121.149C145.994 121.807 146.011 121.809 146.034 121.184C146.069 120.209 148.065 123.13 148.786 125.212C149.105 126.134 149.468 126.992 149.593 127.119C149.718 127.246 149.82 128.649 149.82 130.236C149.82 132.921 149.724 133.314 148.446 135.857C147.069 138.597 145.976 140.099 145.36 140.099C145.18 140.099 145.03 140.295 145.028 140.534C145.021 141.215 141.594 143.408 139.242 144.236C136.963 145.037 131.805 145.353 131.398 144.715C131.277 144.526 130.63 144.27 129.959 144.144C126.578 143.513 123.427 139.434 122.649 134.682C122.273 132.385 123.058 128.743 124.541 125.91Z" fill="url(#paint13_linear_401_2)"/>
</g>
<defs>
<linearGradient id="paint0_linear_401_2" x1="136.48" y1="0" x2="136.48" y2="265.16" gradientUnits="userSpaceOnUse">
<stop stop-color="#AEB1B1"/>
<stop offset="1" stop-color="#4D4D4D"/>
</linearGradient>
<linearGradient id="paint1_linear_401_2" x1="136.48" y1="0" x2="136.48" y2="265.16" gradientUnits="userSpaceOnUse">
<stop stop-color="#AEB1B1"/>
<stop offset="1" stop-color="#4D4D4D"/>
</linearGradient>
<linearGradient id="paint2_linear_401_2" x1="136.48" y1="0" x2="136.48" y2="265.16" gradientUnits="userSpaceOnUse">
<stop stop-color="#AEB1B1"/>
<stop offset="1" stop-color="#4D4D4D"/>
</linearGradient>
<linearGradient id="paint3_linear_401_2" x1="136.48" y1="0" x2="136.48" y2="265.16" gradientUnits="userSpaceOnUse">
<stop stop-color="#AEB1B1"/>
<stop offset="1" stop-color="#4D4D4D"/>
</linearGradient>
<linearGradient id="paint4_linear_401_2" x1="136.48" y1="0" x2="136.48" y2="265.16" gradientUnits="userSpaceOnUse">
<stop stop-color="#AEB1B1"/>
<stop offset="1" stop-color="#4D4D4D"/>
</linearGradient>
<linearGradient id="paint5_linear_401_2" x1="136.48" y1="0" x2="136.48" y2="265.16" gradientUnits="userSpaceOnUse">
<stop stop-color="#AEB1B1"/>
<stop offset="1" stop-color="#4D4D4D"/>
</linearGradient>
<linearGradient id="paint6_linear_401_2" x1="136.48" y1="0" x2="136.48" y2="265.16" gradientUnits="userSpaceOnUse">
<stop stop-color="#AEB1B1"/>
<stop offset="1" stop-color="#4D4D4D"/>
</linearGradient>
<linearGradient id="paint7_linear_401_2" x1="136.48" y1="0" x2="136.48" y2="265.16" gradientUnits="userSpaceOnUse">
<stop stop-color="#AEB1B1"/>
<stop offset="1" stop-color="#4D4D4D"/>
</linearGradient>
<linearGradient id="paint8_linear_401_2" x1="136.48" y1="0" x2="136.48" y2="265.16" gradientUnits="userSpaceOnUse">
<stop stop-color="#AEB1B1"/>
<stop offset="1" stop-color="#4D4D4D"/>
</linearGradient>
<linearGradient id="paint9_linear_401_2" x1="136.48" y1="0" x2="136.48" y2="265.16" gradientUnits="userSpaceOnUse">
<stop stop-color="#AEB1B1"/>
<stop offset="1" stop-color="#4D4D4D"/>
</linearGradient>
<linearGradient id="paint10_linear_401_2" x1="136.48" y1="0" x2="136.48" y2="265.16" gradientUnits="userSpaceOnUse">
<stop stop-color="#AEB1B1"/>
<stop offset="1" stop-color="#4D4D4D"/>
</linearGradient>
<linearGradient id="paint11_linear_401_2" x1="136.48" y1="0" x2="136.48" y2="265.16" gradientUnits="userSpaceOnUse">
<stop stop-color="#AEB1B1"/>
<stop offset="1" stop-color="#4D4D4D"/>
</linearGradient>
<linearGradient id="paint12_linear_401_2" x1="136.48" y1="0" x2="136.48" y2="265.16" gradientUnits="userSpaceOnUse">
<stop stop-color="#AEB1B1"/>
<stop offset="1" stop-color="#4D4D4D"/>
</linearGradient>
<linearGradient id="paint13_linear_401_2" x1="136.48" y1="0" x2="136.48" y2="265.16" gradientUnits="userSpaceOnUse">
<stop stop-color="#AEB1B1"/>
<stop offset="1" stop-color="#4D4D4D"/>
</linearGradient>
</defs>
</svg>
