<svg width="99" height="87" viewBox="0 0 99 87" fill="none" xmlns="http://www.w3.org/2000/svg">
<path fill-rule="evenodd" clip-rule="evenodd" d="M47.2487 2.97529L47.2477 2.97628C44.5579 5.55391 39.4301 10.468 30.7429 18.7736C29.4691 19.9915 27.4937 19.8604 26.0764 18.9377C22.5033 16.6116 18.3806 17.0399 14.9967 18.9245C11.6064 20.8125 9.00305 24.1387 8.47281 27.5323C7.88954 31.2652 9.54008 34.6351 11.5128 37.0956C12.2457 38.0096 12.5482 39.2378 12.4478 40.4102C12.3474 41.5827 11.8413 42.7278 10.9202 43.4641C5.82589 47.5358 -0.0332372 55.0942 0.779101 65.7279C1.43278 74.2848 6.32727 78.8516 10.9033 81.1993C13.1945 82.3748 15.404 82.9922 16.9555 83.2708C17.63 83.3918 18.1744 83.4478 18.5435 83.4591C18.4232 83.3519 18.2926 83.2241 18.1548 83.0793C17.8343 82.7425 17.4586 82.2957 17.0609 81.7571C16.2654 80.68 15.3757 79.2277 14.6606 77.539C13.2318 74.1651 12.4875 69.8139 14.6378 65.6359C16.7786 61.4764 20.5802 58.8947 24.9581 58.6491C29.3355 58.4035 34.2455 60.4947 38.6134 65.5893C42.1493 69.7134 42.0886 74.1661 40.5871 78.0285C39.5049 80.8125 37.673 83.2977 35.8936 85.1582C37.6386 84.1678 39.7944 83.1771 41.8816 82.4958C43.4541 81.9826 45.003 81.6399 46.3173 81.6115C47.5915 81.5839 48.7029 81.8513 49.3716 82.6149C50.0523 82.0586 51.0497 81.8424 52.176 81.8424C53.5149 81.8425 55.0974 82.1472 56.7043 82.6233C58.8731 83.2659 61.1146 84.2291 62.9023 85.2101C61.1018 83.3421 59.2372 80.8294 58.1413 78.0102C56.6398 74.1478 56.5792 69.6951 60.115 65.571C64.4829 60.4764 69.3929 58.3852 73.7703 58.6308C78.1483 58.8764 81.9499 61.4581 84.0906 65.6176C86.2409 69.7956 85.4966 74.1468 84.0678 77.5207C83.3527 79.2094 82.4631 80.6617 81.6676 81.7388C81.2698 82.2774 80.8941 82.7242 80.5736 83.061C80.4358 83.2058 80.3052 83.3336 80.1849 83.4408C80.554 83.4295 81.0985 83.3735 81.7729 83.2525C83.3244 82.9739 85.5339 82.3565 87.8251 81.181C92.4011 78.8333 97.2956 74.2665 97.9493 65.7096C98.7617 55.0759 92.9025 47.5175 87.8083 43.4457C86.8871 42.7095 86.381 41.5643 86.2806 40.3919C86.1802 39.2195 86.4827 37.9913 87.2156 37.0773C89.1883 34.6168 90.8389 31.2469 90.2556 27.514C89.7254 24.1204 87.122 20.7942 83.7317 18.9061C80.3478 17.0216 76.2252 16.5933 72.652 18.9194C71.2347 19.8421 69.2592 19.973 67.9853 18.7553C63.7469 14.7038 60.3736 11.4787 57.7244 8.94591L57.6886 8.91166C52.3122 3.77154 49.9309 1.49488 49.3595 0.95369C48.9881 1.3084 48.3073 1.96082 47.2487 2.97529ZM49.0468 82.9775L49.0592 82.9674L49.4091 83.2548C49.9304 82.6202 50.8918 82.3248 52.176 82.3248C53.4501 82.3248 54.9828 82.6164 56.5673 83.0858C59.7379 84.0252 63.0539 85.6576 64.8181 86.9895L65.1166 86.6108C62.9168 84.8009 60.0489 81.586 58.5909 77.8355C57.1379 74.0979 57.0872 69.8436 60.4812 65.885C64.7757 60.8761 69.5497 58.8771 73.7433 59.1124C77.9362 59.3476 81.5924 61.8176 83.6617 65.8384C85.7216 69.8406 85.022 74.0303 83.6237 77.3326C82.9252 78.9821 82.0555 80.4017 81.2796 81.4522C80.8916 81.9775 80.5287 82.4084 80.2242 82.7285C79.9136 83.0549 79.6798 83.2488 79.5499 83.3197C79.5197 83.3362 79.4852 83.3579 79.454 83.3867C79.4258 83.4128 79.3782 83.4649 79.362 83.5452C79.3425 83.6413 79.3778 83.725 79.4266 83.7796C79.4678 83.8257 79.5166 83.8501 79.5474 83.8631C79.6112 83.8899 79.6874 83.9034 79.7588 83.9116C79.8347 83.9202 79.9246 83.9246 80.0257 83.9252C80.4281 83.9277 81.0641 83.8698 81.8581 83.7272C83.4492 83.4416 85.7054 82.8107 88.0453 81.6102C92.7315 79.2059 97.7608 74.5101 98.4303 65.7464C99.259 54.8985 93.2779 47.2 88.1094 43.069C87.3123 42.4318 86.8528 41.4205 86.7612 40.3507C86.6696 39.2809 86.9487 38.1812 87.5919 37.379C89.6072 34.8655 91.3449 31.3611 90.7322 27.4395C90.1744 23.8694 87.4576 20.429 83.9664 18.4847C80.4689 16.537 76.1489 16.0674 72.3888 18.5152C71.0963 19.3566 69.382 19.4232 68.3186 18.4066C64.0808 14.3557 60.7073 11.1304 58.0577 8.59722L58.0481 8.588C52.0682 2.87088 49.7791 0.682369 49.5629 0.482859L49.5581 0.488129L49.3671 0.28125C49.2504 0.389001 48.5033 1.10494 46.8893 2.65163L46.8886 2.65229C44.189 5.23932 39.0648 10.1499 30.4096 18.425C29.3463 19.4416 27.6322 19.375 26.3396 18.5335C22.5795 16.0857 18.2595 16.5553 14.762 18.503C11.2708 20.4473 8.55406 23.8878 7.99624 27.4578C7.38349 31.3794 9.12125 34.8838 11.1365 37.3973C11.7797 38.1995 12.0588 39.2992 11.9672 40.3691C11.8756 41.4388 11.4161 42.4501 10.619 43.0873C5.45049 47.2183 -0.530547 54.9168 0.298149 65.7647C0.967632 74.5284 5.99693 79.2242 10.6831 81.6285C13.023 82.829 15.2792 83.4599 16.8703 83.7455C17.6643 83.8881 18.3003 83.946 18.7027 83.9435C18.8038 83.9429 18.8937 83.9385 18.9697 83.9299C19.041 83.9217 19.1172 83.9082 19.181 83.8814C19.2119 83.8684 19.2606 83.844 19.3019 83.7979C19.3507 83.7433 19.3859 83.6596 19.3665 83.5635C19.3502 83.4832 19.3026 83.4311 19.2744 83.405C19.2433 83.3762 19.2087 83.3545 19.1785 83.338C19.0486 83.2671 18.8148 83.0732 18.5043 82.7468C18.1998 82.4267 17.8368 81.9958 17.4489 81.4705C16.673 80.42 15.8032 79.0004 15.1048 77.3509C13.7064 74.0486 13.0069 69.8589 15.0667 65.8567C17.136 61.8359 20.7922 59.3659 24.9852 59.1307C29.1787 58.8954 33.9527 60.8944 38.2472 65.9033C41.6412 69.8619 41.5905 74.1162 40.1375 77.8538C38.6795 81.6043 35.8116 84.8192 33.6118 86.6291L33.9103 87.0078C35.6784 85.673 38.9294 83.9668 42.0312 82.9544C43.5819 82.4483 45.0801 82.1207 46.3277 82.0937C47.5845 82.0665 48.5269 82.3446 49.0468 82.9775ZM59.3919 39.5026C59.3919 45.0095 54.9276 49.4737 49.4207 49.4737C43.9138 49.4737 39.4496 45.0095 39.4496 39.5026C39.4496 33.9957 43.9138 29.5315 49.4207 29.5315C54.9276 29.5315 59.3919 33.9957 59.3919 39.5026ZM59.8742 39.5026C59.8742 45.2759 55.194 49.9561 49.4207 49.9561C43.6474 49.9561 38.9672 45.2759 38.9672 39.5026C38.9672 33.7293 43.6474 29.0491 49.4207 29.0491C55.194 29.0491 59.8742 33.7293 59.8742 39.5026Z" fill="white"/>
<path fill-rule="evenodd" clip-rule="evenodd" d="M30.7429 18.7736C39.4301 10.468 44.5579 5.55391 47.2477 2.97628L47.2487 2.97529C48.3073 1.96082 48.9881 1.3084 49.3595 0.95369C49.9309 1.49488 52.3122 3.77154 57.6886 8.91166L57.7244 8.94591C60.3736 11.4787 63.7469 14.7038 67.9853 18.7553C69.2592 19.973 71.2347 19.8421 72.652 18.9194C76.2252 16.5933 80.3478 17.0216 83.7317 18.9061C87.122 20.7942 89.7254 24.1204 90.2556 27.514C90.8389 31.2469 89.1883 34.6168 87.2156 37.0773C86.4827 37.9913 86.1802 39.2195 86.2806 40.3919C86.381 41.5643 86.8871 42.7095 87.8083 43.4457C92.9025 47.5175 98.7617 55.0759 97.9493 65.7096C97.2956 74.2665 92.4011 78.8333 87.8251 81.181C85.5339 82.3565 83.3244 82.9739 81.7729 83.2525C81.0985 83.3735 80.554 83.4295 80.1849 83.4408C80.3052 83.3336 80.4358 83.2058 80.5736 83.061C80.8941 82.7242 81.2698 82.2774 81.6676 81.7388C82.4631 80.6617 83.3527 79.2094 84.0678 77.5207C85.4966 74.1468 86.2409 69.7956 84.0906 65.6176C81.9499 61.4581 78.1483 58.8764 73.7703 58.6308C69.3929 58.3852 64.4829 60.4764 60.115 65.571C56.5792 69.6951 56.6398 74.1478 58.1413 78.0102C59.2372 80.8294 61.1018 83.3421 62.9023 85.2101C61.1146 84.2291 58.8731 83.2659 56.7043 82.6233C55.0974 82.1472 53.5149 81.8425 52.176 81.8424C51.0497 81.8424 50.0523 82.0586 49.3716 82.6149C48.7029 81.8513 47.5915 81.5839 46.3173 81.6115C45.003 81.6399 43.4541 81.9826 41.8816 82.4958C39.7944 83.1771 37.6386 84.1678 35.8936 85.1582C37.673 83.2977 39.5049 80.8125 40.5871 78.0285C42.0886 74.1661 42.1493 69.7134 38.6134 65.5893C34.2455 60.4947 29.3355 58.4035 24.9581 58.6491C20.5802 58.8947 16.7786 61.4764 14.6378 65.6359C12.4875 69.8139 13.2318 74.1651 14.6606 77.539C15.3757 79.2277 16.2654 80.68 17.0609 81.7571C17.4586 82.2957 17.8343 82.7425 18.1548 83.0793C18.2926 83.2241 18.4232 83.3519 18.5435 83.4591C18.1744 83.4478 17.63 83.3918 16.9555 83.2708C15.404 82.9922 13.1945 82.3748 10.9033 81.1993C6.32727 78.8516 1.43278 74.2848 0.779101 65.7279C-0.0332372 55.0942 5.82589 47.5358 10.9202 43.4641C11.8413 42.7278 12.3474 41.5827 12.4478 40.4102C12.5482 39.2378 12.2457 38.0096 11.5128 37.0956C9.54008 34.6351 7.88954 31.2652 8.47281 27.5323C9.00305 24.1387 11.6064 20.8125 14.9967 18.9245C18.3806 17.0399 22.5033 16.6116 26.0764 18.9377C27.4937 19.8604 29.4691 19.9915 30.7429 18.7736ZM59.8742 39.5026C59.8742 45.2759 55.194 49.9561 49.4207 49.9561C43.6474 49.9561 38.9672 45.2759 38.9672 39.5026C38.9672 33.7293 43.6474 29.0491 49.4207 29.0491C55.194 29.0491 59.8742 33.7293 59.8742 39.5026Z" fill="white"/>
</svg>
