<svg width="273" height="261" viewBox="0 0 273 261" fill="none" xmlns="http://www.w3.org/2000/svg">
<path opacity="0.07" fill-rule="evenodd" clip-rule="evenodd" d="M126.225 7.64598C121.634 11.8021 111.728 20.6438 104.215 27.2978C96.6997 33.9488 85.3499 44.6566 78.9919 51.0912C56.1281 74.2294 10.5229 117.979 5.12766 121.951C-2.89429 127.859 -1.68945 132.729 10.0555 141.901C15.7958 146.382 26.2107 156.08 33.2003 163.454C40.19 170.827 53.5487 183.767 62.8868 192.208C72.2221 200.652 84.7239 212.497 90.6645 218.531C96.6052 224.568 105.785 233.313 111.063 237.969C116.341 242.626 123.89 249.566 127.836 253.395L135.012 260.35L142.13 253.702C146.045 250.046 155.836 241.131 163.886 233.892C181.282 218.253 185.239 214.287 186.497 211.225C187.014 209.958 191.196 205.902 195.787 202.208C200.378 198.514 214.672 185.375 227.55 173.012C240.43 160.649 255.914 145.855 261.964 140.14L272.96 129.742L264.98 122.088C260.592 117.879 251.994 109.55 245.872 103.577C239.751 97.6046 223.543 82.1264 209.856 69.1812C196.169 56.233 181.026 41.6031 176.207 36.666C165.853 26.0606 136.748 -0.134025 135.466 0.000516329C134.973 0.0502382 130.816 3.49274 126.225 7.64598ZM97.9602 106.44C73.4074 82.5505 73.3685 82.4891 78.6496 76.3118L83.9392 70.1259L96.7025 81.0823C103.72 87.1074 111.447 94.0129 113.873 96.4258C116.297 98.8388 122.182 104.37 126.946 108.713L135.61 116.616L160.258 93.7233C184.674 71.0472 184.963 70.8805 191.079 76.0838L197.251 81.3397L179.824 98.909C170.238 108.573 159.267 119.158 155.441 122.427L148.485 128.377L172.84 152.691L197.195 177.004L191.374 183.12L185.556 189.236L179.218 183.047C162.044 166.279 153.204 158.239 144.15 151.143L134.252 143.387L125.713 151.348C121.016 155.727 109.627 166.183 100.406 174.586L83.6387 189.862L79.1115 182.6C74.7041 175.528 74.8683 175.042 85.3221 164.27C91.2294 158.183 102.025 148.069 109.313 141.793L122.563 130.38L97.9602 106.44ZM52.5248 99.3214L45.805 104.65L59.2362 117.432L72.6701 130.213L59.6229 141.45C46.6314 152.641 46.6008 152.708 52.1992 158.192C55.2906 161.219 58.8689 163.697 60.146 163.697C63.9775 163.697 94.2261 133.17 94.2261 129.301C94.2261 127.332 91.453 125.673 88.6611 122.071C85.888 118.361 85.4897 117.994 83.0961 115.788C80.7025 113.582 78.9317 111.049 66.3009 99.5525C59.4616 94.165 59.0386 94.1591 52.5248 99.3214ZM29.6638 135.153C24.7053 129.944 24.3214 128.169 27.3209 124.372C32.0567 118.374 36.684 118.628 42.3408 125.2C46.6732 130.231 46.6064 130.918 41.2835 135.984C35.738 141.257 35.4514 141.237 29.6638 135.153ZM102.187 52.4015L95.6174 58.099L102.574 63.2526C106.4 66.0838 115.075 73.8726 121.854 80.5588L134.177 92.7172L149.578 79.5292L150.468 78.7674C166.509 65.0352 171.509 60.7547 171.041 57.2917C170.828 55.7234 169.495 54.3228 167.557 52.2879L167.32 52.0389C160.764 45.148 155.92 46.9116 143.396 60.746L135.524 69.4415L123.918 58.1107C117.535 51.875 111.511 46.7595 110.534 46.7391C109.555 46.7215 105.799 49.269 102.187 52.4015ZM130.14 40.7081C123.556 37.0053 123.451 33.6154 129.703 26.6749C134.433 21.4277 134.756 21.4453 141.019 27.368L147.464 33.4663L141.456 38.5788C136.912 42.4483 134.152 42.9661 130.14 40.7081ZM191.911 111.211L174.657 128.467L180.726 137.092C184.062 141.836 192.223 149.818 198.862 154.829C210.671 163.743 211.091 163.831 218.267 158.891C225.251 154.08 225.354 153.653 220.432 149.938C211.503 143.197 199.961 131.132 199.961 128.54C199.961 127.172 204.942 122.348 211.033 117.821C223.849 108.289 224.72 104.668 215.691 98.4498C209.388 94.1093 208.562 94.5539 191.911 111.211ZM229.113 135.323C226.512 131.585 226.431 129.043 228.779 125.086C232.661 118.555 235.658 118.464 242.197 124.685C246.974 129.231 247.005 129.9 242.681 134.922C236.929 141.605 233.551 141.705 229.113 135.323ZM115.674 184.273L96.9724 201.456L102.969 207.329C108.834 213.07 109.121 213.082 116.202 207.774C120.184 204.79 125.802 199.605 128.687 196.25L133.93 190.152L145.382 199.517C151.679 204.667 157.478 209.809 158.268 210.947C159.058 212.082 162.815 210.494 166.616 207.414L173.527 201.813L158.224 187.121C157.259 186.196 156.338 185.308 155.456 184.459C145.272 174.652 140.389 169.949 135.55 169.999C131.093 170.045 126.673 174.124 118.181 181.962C117.382 182.699 116.548 183.469 115.674 184.273ZM128.877 230.815C124.116 225.284 124.13 224.846 129.247 219.689C134.021 214.878 135.221 214.764 140.833 218.592C148.607 223.898 148.557 225.328 140.377 231.576C134.149 236.331 133.593 236.293 128.877 230.815Z" fill="url(#paint0_linear_507_14)"/>
<defs>
<linearGradient id="paint0_linear_507_14" x1="136.48" y1="0" x2="136.48" y2="260.35" gradientUnits="userSpaceOnUse">
<stop stop-color="#AEB1B1"/>
<stop offset="1" stop-color="#4D4D4D"/>
</linearGradient>
</defs>
</svg>
