<svg width="98" height="97" viewBox="0 0 98 97" fill="none" xmlns="http://www.w3.org/2000/svg">
<path fill-rule="evenodd" clip-rule="evenodd" d="M24.166 42.2145C25.3445 43.3241 27.184 43.3211 28.3589 42.2077L30.4492 40.2267C31.6963 39.0448 31.7229 37.067 30.5079 35.852L24.6857 30.0298C23.4934 28.8375 23.4934 26.9044 24.6857 25.7122L26.1496 24.2482C27.3419 23.056 29.2749 23.056 30.4672 24.2482L36.2658 30.0468C37.458 31.2391 39.3911 31.2391 40.5833 30.0468L44.0005 26.6296C45.1928 25.4373 45.1928 23.5043 44.0005 22.312L38.2881 16.5996C37.0958 15.4073 37.0959 13.4743 38.2881 12.282L49.4407 1.12949C50.6329 -0.0627748 52.566 -0.0627747 53.7582 1.12949L64.0603 11.4316C65.2526 12.6238 65.2526 14.5569 64.0603 15.7491L57.4974 22.312C56.3051 23.5043 56.3051 25.4373 57.4974 26.6296L60.9146 30.0468C62.1069 31.2391 64.0399 31.2391 65.2322 30.0468L70.2565 25.0225C71.4067 23.8723 73.2715 23.8723 74.4217 25.0225C75.5719 26.1727 75.5719 28.0375 74.4217 29.1877L69.5681 34.0413C68.3758 35.2336 68.3758 37.1666 69.5681 38.3589L72.4755 41.2663C73.6678 42.4586 75.6008 42.4586 76.7931 41.2663L81.2649 36.7945C82.4436 35.6158 84.3489 35.5997 85.5365 36.7695C89.3045 40.4811 94.1446 45.3629 96.8851 48.1363C98.0709 49.3364 98.0565 51.2659 96.8558 52.4512C94.4301 54.8457 90.4398 58.7999 87.345 61.9408C86.1459 63.1579 84.1828 63.1736 82.9747 61.9655L76.7931 55.7839C75.6008 54.5916 73.6678 54.5916 72.4755 55.7839L69.5681 58.6913C68.3758 59.8836 68.3758 61.8166 69.5681 63.0089L76.2155 69.6563C77.4078 70.8486 77.4078 72.7816 76.2155 73.9739L75.9431 74.2463C74.7508 75.4386 72.8178 75.4386 71.6255 74.2463L65.2322 67.853C64.0399 66.6607 62.1069 66.6607 60.9146 67.853L57.4974 71.2701C56.3051 72.4624 56.3051 74.3955 57.4974 75.5877L62.3608 80.4511C63.553 81.6433 63.553 83.5764 62.3608 84.7686L51.2081 95.9213C50.0159 97.1136 48.0828 97.1136 46.8905 95.9213L38.2881 87.3189C37.0959 86.1266 37.0959 84.1936 38.2881 83.0013L44.0005 77.2889C45.1928 76.0966 45.1928 74.1636 44.0005 72.9713L40.5833 69.5541C39.3911 68.3618 37.458 68.3618 36.2658 69.5541L30.4672 75.3527C29.2749 76.5449 27.3419 76.5449 26.1496 75.3527L24.6857 73.8887C23.4934 72.6965 23.4934 70.7634 24.6857 69.5711L30.5667 63.6902C31.7589 62.4979 31.7589 60.5648 30.5667 59.3726L28.4245 57.2304C27.2322 56.0381 25.2991 56.0381 24.1069 57.2304L17.8019 63.5354C16.6096 64.7276 14.6766 64.7276 13.4843 63.5354L1.14365 51.1947C-0.0486127 50.0025 -0.0486138 48.0694 1.14365 46.8771L12.6149 35.4059C13.7819 34.2389 15.665 34.2105 16.8666 35.3419L24.166 42.2145ZM34.2917 51.1947C33.0994 50.0025 33.0994 48.0694 34.2917 46.8771L48.4097 32.7591C49.606 31.5629 51.5469 31.5674 52.7374 32.7693L66.7132 46.8772C67.8959 48.0711 67.8913 49.9963 66.703 51.1846L52.6511 65.2365C51.4588 66.4288 49.5258 66.4288 48.3335 65.2365L34.2917 51.1947ZM12.5491 45.5839C13.7414 44.3916 15.6744 44.3916 16.8667 45.5839L18.3172 47.0344C19.4463 48.1635 19.5146 49.9718 18.474 51.1828L17.2787 52.574C16.1207 53.9218 14.0608 53.9997 12.8043 52.7432L11.2559 51.1947C10.0636 50.0025 10.0636 48.0694 11.2559 46.8771L12.5491 45.5839ZM80.7036 51.1947C79.5113 50.0025 79.5113 48.0694 80.7036 46.8771L81.2305 46.3502C82.4228 45.1579 84.3558 45.1579 85.5481 46.3502L86.075 46.8771C87.2673 48.0694 87.2673 50.0025 86.075 51.1947L85.5481 51.7217C84.3558 52.9139 82.4228 52.9139 81.2305 51.7217L80.7036 51.1947ZM55.0766 11.6277C56.1894 12.7406 56.274 14.517 55.2719 15.7305L53.4217 17.9709C52.2597 19.3781 50.1309 19.4582 48.8664 18.1424L47.383 16.5988C46.2311 15.4001 46.2499 13.5001 47.4255 12.3245L49.4407 10.3094C50.6329 9.1171 52.566 9.1171 53.7582 10.3094L54.3193 10.8705L55.0766 11.6277ZM53.376 82.5245C54.4888 83.6374 54.5734 85.4138 53.5713 86.6273L51.7211 88.8677C50.5591 90.2748 48.4303 90.355 47.1658 89.0392L45.6824 87.4956C44.5305 86.2969 44.5494 84.3969 45.7249 83.2213L47.7401 81.2062C48.9323 80.0139 50.8654 80.0139 52.0576 81.2062L52.6187 81.7673L53.376 82.5245Z" fill="white"/>
</svg>
