<svg width="103" height="103" viewBox="0 0 103 103" fill="none" xmlns="http://www.w3.org/2000/svg">
<path fill-rule="evenodd" clip-rule="evenodd" d="M49.2716 2.84311C49.2716 4.50769 49.0637 4.71553 47.3992 4.71553C45.7346 4.71553 45.5268 4.92336 45.5268 6.58794C45.5268 8.25251 45.3189 8.46035 43.6543 8.46035C41.9898 8.46035 41.7819 8.66819 41.7819 10.3328C41.7819 11.9973 41.5741 12.2052 39.9095 12.2052C38.2449 12.2052 38.0371 12.413 38.0371 14.0776C38.0371 15.7422 37.8293 15.95 36.1647 15.95C34.4408 15.95 34.2923 16.1235 34.2923 18.1345C34.2923 20.1454 34.4408 20.319 36.1647 20.319C37.8293 20.319 38.0371 20.5268 38.0371 22.1914C38.0371 23.8559 38.2449 24.0638 39.9095 24.0638C41.5741 24.0638 41.7819 24.2716 41.7819 25.9362C41.7819 27.6008 41.9898 27.8086 43.6543 27.8086C45.2353 27.8086 45.5268 28.0514 45.5268 29.3689C45.5268 30.6865 45.2353 30.9293 43.6543 30.9293C41.9898 30.9293 41.7819 31.1371 41.7819 32.8017C41.7819 34.3826 41.5391 34.6741 40.2216 34.6741C38.904 34.6741 38.6612 34.3826 38.6612 32.8017C38.6612 31.1371 38.4534 30.9293 36.7888 30.9293C35.1243 30.9293 34.9164 30.7215 34.9164 29.0569C34.9164 27.3923 34.7086 27.1845 33.044 27.1845C31.3794 27.1845 31.1716 26.9766 31.1716 25.3121C31.1716 23.5882 30.9981 23.4396 28.9871 23.4396C26.9761 23.4396 26.8026 23.5882 26.8026 25.3121C26.8026 26.9766 26.5948 27.1845 24.9302 27.1845C23.2656 27.1845 23.0578 27.3923 23.0578 29.0569C23.0578 30.7215 22.85 30.9293 21.1854 30.9293C19.5208 30.9293 19.313 31.1371 19.313 32.8017C19.313 34.4663 19.1051 34.6741 17.4406 34.6741C15.776 34.6741 15.5682 34.882 15.5682 36.5465C15.5682 38.2111 15.3603 38.4189 13.6958 38.4189C11.9719 38.4189 11.8233 38.5924 11.8233 40.6034C11.8233 42.6144 11.9719 42.7879 13.6958 42.7879C15.3603 42.7879 15.5682 42.9957 15.5682 44.6603C15.5682 46.3249 15.776 46.5327 17.4406 46.5327C19.1051 46.5327 19.313 46.7406 19.313 48.4051C19.313 50.0697 19.5208 50.2775 21.1854 50.2775C22.85 50.2775 23.0578 50.4854 23.0578 52.15C23.0578 53.8145 23.2656 54.0224 24.9302 54.0224C26.5948 54.0224 26.8026 54.2302 26.8026 55.8948C26.8026 57.6187 26.9761 57.7672 28.9871 57.7672C30.9981 57.7672 31.1716 57.6187 31.1716 55.8948C31.1716 54.2302 31.3794 54.0224 33.044 54.0224C34.7679 54.0224 34.9164 53.8489 34.9164 51.8379C34.9164 49.8269 34.7679 49.6534 33.044 49.6534C31.3794 49.6534 31.1716 49.4456 31.1716 47.781C31.1716 46.1164 30.9638 45.9086 29.2992 45.9086C27.6346 45.9086 27.4268 45.7007 27.4268 44.0362C27.4268 42.3716 27.2189 42.1638 25.5544 42.1638C23.9734 42.1638 23.6819 41.921 23.6819 40.6034C23.6819 39.2859 23.9734 39.0431 25.5544 39.0431C27.2189 39.0431 27.4268 38.8352 27.4268 37.1707C27.4268 35.5897 27.6696 35.2983 28.9871 35.2983C30.3047 35.2983 30.5475 35.5897 30.5475 37.1707C30.5475 38.8352 30.7553 39.0431 32.4199 39.0431C34.0844 39.0431 34.2923 39.2509 34.2923 40.9155C34.2923 42.5801 34.5001 42.7879 36.1647 42.7879C37.8293 42.7879 38.0371 42.9957 38.0371 44.6603C38.0371 46.3249 38.2449 46.5327 39.9095 46.5327C41.5741 46.5327 41.7819 46.7406 41.7819 48.4051C41.7819 50.0697 41.9898 50.2775 43.6543 50.2775C45.2353 50.2775 45.5268 50.5203 45.5268 51.8379C45.5268 53.1554 45.2353 53.3982 43.6543 53.3982C41.9898 53.3982 41.7819 53.6061 41.7819 55.2706C41.7819 56.9352 41.5741 57.1431 39.9095 57.1431C38.2449 57.1431 38.0371 57.3509 38.0371 59.0155C38.0371 60.68 37.8293 60.8879 36.1647 60.8879C34.5001 60.8879 34.2923 61.0957 34.2923 62.7603C34.2923 64.4249 34.0844 64.6327 32.4199 64.6327C30.7553 64.6327 30.5475 64.8405 30.5475 66.5051C30.5475 68.1697 30.3396 68.3775 28.675 68.3775C27.0105 68.3775 26.8026 68.5854 26.8026 70.2499C26.8026 71.9145 26.5948 72.1224 24.9302 72.1224C23.2656 72.1224 23.0578 72.3302 23.0578 73.9948C23.0578 75.6593 22.85 75.8672 21.1854 75.8672C19.5208 75.8672 19.313 76.075 19.313 77.7396C19.313 79.4042 19.1051 79.612 17.4406 79.612C15.776 79.612 15.5682 79.8198 15.5682 81.4844C15.5682 83.149 15.3603 83.3568 13.6958 83.3568C12.0312 83.3568 11.8233 83.5647 11.8233 85.2292C11.8233 86.8938 11.6155 87.1016 9.95093 87.1016C8.28635 87.1016 8.07851 87.3095 8.07851 88.9741C8.07851 90.6386 7.87068 90.8465 6.2061 90.8465C4.54153 90.8465 4.33369 91.0543 4.33369 92.7189C4.33369 94.3835 4.12585 94.5913 2.46128 94.5913C0.737412 94.5913 0.588867 94.7648 0.588867 96.7758C0.588867 98.7867 0.737412 98.9603 2.46128 98.9603C4.12585 98.9603 4.33369 99.1681 4.33369 100.833C4.33369 102.497 4.54153 102.705 6.2061 102.705C7.87068 102.705 8.07851 102.497 8.07851 100.833C8.07851 99.1681 8.28635 98.9603 9.95093 98.9603C11.6155 98.9603 11.8233 98.7524 11.8233 97.0878C11.8233 95.4233 12.0312 95.2154 13.6958 95.2154C15.3603 95.2154 15.5682 95.0076 15.5682 93.343C15.5682 91.6784 15.776 91.4706 17.4406 91.4706C19.1051 91.4706 19.313 91.6784 19.313 93.343C19.313 95.0076 19.5208 95.2154 21.1854 95.2154C22.85 95.2154 23.0578 95.4233 23.0578 97.0878C23.0578 98.7524 23.2656 98.9603 24.9302 98.9603C26.5948 98.9603 26.8026 99.1681 26.8026 100.833C26.8026 102.497 27.0105 102.705 28.675 102.705C30.3396 102.705 30.5475 102.497 30.5475 100.833C30.5475 99.1681 30.7553 98.9603 32.4199 98.9603C34.0844 98.9603 34.2923 98.7524 34.2923 97.0878C34.2923 95.4233 34.5001 95.2154 36.1647 95.2154C37.8293 95.2154 38.0371 95.0076 38.0371 93.343C38.0371 91.6784 38.2449 91.4706 39.9095 91.4706C41.5741 91.4706 41.7819 91.2628 41.7819 89.5982C41.7819 87.9336 41.9898 87.7258 43.6543 87.7258C45.3189 87.7258 45.5268 87.5179 45.5268 85.8534C45.5268 84.1295 45.7003 83.981 47.7112 83.981C49.7222 83.981 49.8957 83.8324 49.8957 82.1086C49.8957 80.5276 50.1385 80.2361 51.4561 80.2361C52.7736 80.2361 53.0164 80.5276 53.0164 82.1086C53.0164 83.8324 53.1899 83.981 55.2009 83.981C57.2118 83.981 57.3854 84.1295 57.3854 85.8534C57.3854 87.5179 57.5932 87.7258 59.2578 87.7258C60.9223 87.7258 61.1302 87.9336 61.1302 89.5982C61.1302 91.2628 61.338 91.4706 63.0026 91.4706C64.6672 91.4706 64.875 91.6784 64.875 93.343C64.875 95.0076 65.0828 95.2154 66.7474 95.2154C68.412 95.2154 68.6198 95.4233 68.6198 97.0878C68.6198 98.7524 68.8277 98.9603 70.4922 98.9603C72.1568 98.9603 72.3647 99.1681 72.3647 100.833C72.3647 102.497 72.5725 102.705 74.2371 102.705C75.9016 102.705 76.1095 102.497 76.1095 100.833C76.1095 99.1681 76.3173 98.9603 77.9819 98.9603C79.6465 98.9603 79.8543 98.7524 79.8543 97.0878C79.8543 95.4233 80.0621 95.2154 81.7267 95.2154C83.3913 95.2154 83.5991 95.0076 83.5991 93.343C83.5991 91.6784 83.807 91.4706 85.4715 91.4706C87.1361 91.4706 87.3439 91.6784 87.3439 93.343C87.3439 95.0076 87.5518 95.2154 89.2164 95.2154C90.8809 95.2154 91.0888 95.4233 91.0888 97.0878C91.0888 98.7524 91.2966 98.9603 92.9612 98.9603C94.6258 98.9603 94.8336 99.1681 94.8336 100.833C94.8336 102.497 95.0414 102.705 96.706 102.705C98.3706 102.705 98.5784 102.497 98.5784 100.833C98.5784 99.1681 98.7863 98.9603 100.451 98.9603C102.175 98.9603 102.323 98.7867 102.323 96.7758C102.323 94.7648 102.175 94.5913 100.451 94.5913C98.7863 94.5913 98.5784 94.3835 98.5784 92.7189C98.5784 91.0543 98.3706 90.8465 96.706 90.8465C95.0414 90.8465 94.8336 90.6386 94.8336 88.9741C94.8336 87.3095 94.6258 87.1016 92.9612 87.1016C91.2966 87.1016 91.0888 86.8938 91.0888 85.2292C91.0888 83.5647 90.8809 83.3568 89.2164 83.3568C87.5518 83.3568 87.3439 83.149 87.3439 81.4844C87.3439 79.8198 87.1361 79.612 85.4715 79.612C83.807 79.612 83.5991 79.4042 83.5991 77.7396C83.5991 76.075 83.3913 75.8672 81.7267 75.8672C80.0621 75.8672 79.8543 75.6593 79.8543 73.9948C79.8543 72.3302 79.6465 72.1224 77.9819 72.1224C76.3173 72.1224 76.1095 71.9145 76.1095 70.2499C76.1095 68.5854 75.9016 68.3775 74.2371 68.3775C72.5725 68.3775 72.3647 68.1697 72.3647 66.5051C72.3647 64.8405 72.1568 64.6327 70.4922 64.6327C68.8277 64.6327 68.6198 64.4249 68.6198 62.7603C68.6198 61.0957 68.412 60.8879 66.7474 60.8879C65.0828 60.8879 64.875 60.68 64.875 59.0155C64.875 57.3509 64.6672 57.1431 63.0026 57.1431C61.338 57.1431 61.1302 56.9352 61.1302 55.2706C61.1302 53.6061 60.9223 53.3982 59.2578 53.3982C57.6768 53.3982 57.3854 53.1554 57.3854 51.8379C57.3854 50.5203 57.6768 50.2775 59.2578 50.2775C60.9223 50.2775 61.1302 50.0697 61.1302 48.4051C61.1302 46.7406 61.338 46.5327 63.0026 46.5327C64.6672 46.5327 64.875 46.3249 64.875 44.6603C64.875 42.9957 65.0828 42.7879 66.7474 42.7879C68.412 42.7879 68.6198 42.5801 68.6198 40.9155C68.6198 39.2509 68.8277 39.0431 70.4922 39.0431C72.1568 39.0431 72.3647 38.8352 72.3647 37.1707C72.3647 35.5897 72.6074 35.2983 73.925 35.2983C75.2426 35.2983 75.4853 35.5897 75.4853 37.1707C75.4853 38.8352 75.6932 39.0431 77.3577 39.0431C78.9387 39.0431 79.2302 39.2859 79.2302 40.6034C79.2302 41.921 78.9387 42.1638 77.3577 42.1638C75.6932 42.1638 75.4853 42.3716 75.4853 44.0362C75.4853 45.7007 75.2775 45.9086 73.6129 45.9086C71.9484 45.9086 71.7405 46.1164 71.7405 47.781C71.7405 49.4456 71.5327 49.6534 69.8681 49.6534C68.1442 49.6534 67.9957 49.8269 67.9957 51.8379C67.9957 53.8489 68.1442 54.0224 69.8681 54.0224C71.5327 54.0224 71.7405 54.2302 71.7405 55.8948C71.7405 57.6187 71.914 57.7672 73.925 57.7672C75.936 57.7672 76.1095 57.6187 76.1095 55.8948C76.1095 54.2302 76.3173 54.0224 77.9819 54.0224C79.6465 54.0224 79.8543 53.8145 79.8543 52.15C79.8543 50.4854 80.0621 50.2775 81.7267 50.2775C83.3913 50.2775 83.5991 50.0697 83.5991 48.4051C83.5991 46.7406 83.807 46.5327 85.4715 46.5327C87.1361 46.5327 87.3439 46.3249 87.3439 44.6603C87.3439 42.9957 87.5518 42.7879 89.2164 42.7879C90.9402 42.7879 91.0888 42.6144 91.0888 40.6034C91.0888 38.5924 90.9402 38.4189 89.2164 38.4189C87.5518 38.4189 87.3439 38.2111 87.3439 36.5465C87.3439 34.882 87.1361 34.6741 85.4715 34.6741C83.807 34.6741 83.5991 34.4663 83.5991 32.8017C83.5991 31.1371 83.3913 30.9293 81.7267 30.9293C80.0621 30.9293 79.8543 30.7215 79.8543 29.0569C79.8543 27.3923 79.6465 27.1845 77.9819 27.1845C76.3173 27.1845 76.1095 26.9766 76.1095 25.3121C76.1095 23.5882 75.936 23.4396 73.925 23.4396C71.914 23.4396 71.7405 23.5882 71.7405 25.3121C71.7405 26.9766 71.5327 27.1845 69.8681 27.1845C68.2035 27.1845 67.9957 27.3923 67.9957 29.0569C67.9957 30.7215 67.7879 30.9293 66.1233 30.9293C64.4587 30.9293 64.2509 31.1371 64.2509 32.8017C64.2509 34.3826 64.0081 34.6741 62.6905 34.6741C61.373 34.6741 61.1302 34.3826 61.1302 32.8017C61.1302 31.1371 60.9223 30.9293 59.2578 30.9293C57.6768 30.9293 57.3854 30.6865 57.3854 29.3689C57.3854 28.0514 57.6768 27.8086 59.2578 27.8086C60.9223 27.8086 61.1302 27.6008 61.1302 25.9362C61.1302 24.2716 61.338 24.0638 63.0026 24.0638C64.6672 24.0638 64.875 23.8559 64.875 22.1914C64.875 20.5268 65.0828 20.319 66.7474 20.319C68.4713 20.319 68.6198 20.1454 68.6198 18.1345C68.6198 16.1235 68.4713 15.95 66.7474 15.95C65.0828 15.95 64.875 15.7422 64.875 14.0776C64.875 12.413 64.6672 12.2052 63.0026 12.2052C61.338 12.2052 61.1302 11.9973 61.1302 10.3328C61.1302 8.66819 60.9223 8.46035 59.2578 8.46035C57.5932 8.46035 57.3854 8.25251 57.3854 6.58794C57.3854 4.92336 57.1775 4.71553 55.5129 4.71553C53.8484 4.71553 53.6405 4.50769 53.6405 2.84311C53.6405 1.11925 53.467 0.970703 51.4561 0.970703C49.4451 0.970703 49.2716 1.11925 49.2716 2.84311ZM53.0164 14.0776C53.0164 15.8015 53.1899 15.95 55.2009 15.95C57.2811 15.95 57.3854 16.0542 57.3854 18.1345C57.3854 20.2147 57.2811 20.319 55.2009 20.319C53.1899 20.319 53.0164 20.4675 53.0164 22.1914C53.0164 23.8559 52.8086 24.0638 51.144 24.0638C49.4201 24.0638 49.2716 23.8903 49.2716 21.8793C49.2716 19.9651 49.0781 19.6948 47.7112 19.6948C46.463 19.6948 46.1509 19.3828 46.1509 18.1345C46.1509 16.8862 46.463 16.5741 47.7112 16.5741C49.0781 16.5741 49.2716 16.3039 49.2716 14.3897C49.2716 12.3787 49.4201 12.2052 51.144 12.2052C52.8086 12.2052 53.0164 12.413 53.0164 14.0776ZM53.0164 36.8586C53.0164 38.9388 53.1206 39.0431 55.2009 39.0431C57.2118 39.0431 57.3854 39.1916 57.3854 40.9155C57.3854 42.6394 57.2118 42.7879 55.2009 42.7879C53.1899 42.7879 53.0164 42.9364 53.0164 44.6603C53.0164 46.3249 52.8086 46.5327 51.144 46.5327C49.4794 46.5327 49.2716 46.3249 49.2716 44.6603C49.2716 42.9957 49.0637 42.7879 47.3992 42.7879C45.7346 42.7879 45.5268 42.5801 45.5268 40.9155C45.5268 39.2509 45.7346 39.0431 47.3992 39.0431C49.123 39.0431 49.2716 38.8696 49.2716 36.8586C49.2716 34.8476 49.4201 34.6741 51.144 34.6741C52.8679 34.6741 53.0164 34.8476 53.0164 36.8586ZM53.0164 59.6396C53.0164 61.3635 53.1899 61.512 55.2009 61.512C57.2118 61.512 57.3854 61.6606 57.3854 63.3844C57.3854 65.1083 57.2118 65.2568 55.2009 65.2568C53.1899 65.2568 53.0164 65.4054 53.0164 67.1293C53.0164 68.7102 52.7736 69.0017 51.4561 69.0017C50.1385 69.0017 49.8957 68.7102 49.8957 67.1293C49.8957 65.4054 49.7222 65.2568 47.7112 65.2568C45.7003 65.2568 45.5268 65.1083 45.5268 63.3844C45.5268 61.6606 45.7003 61.512 47.7112 61.512C49.7222 61.512 49.8957 61.3635 49.8957 59.6396C49.8957 58.0587 50.1385 57.7672 51.4561 57.7672C52.7736 57.7672 53.0164 58.0587 53.0164 59.6396ZM41.7819 70.8741C41.7819 72.5387 41.9898 72.7465 43.6543 72.7465C45.3189 72.7465 45.5268 72.9543 45.5268 74.6189C45.5268 76.2835 45.3189 76.4913 43.6543 76.4913C41.9898 76.4913 41.7819 76.6992 41.7819 78.3637C41.7819 80.0283 41.5741 80.2361 39.9095 80.2361C38.2449 80.2361 38.0371 80.0283 38.0371 78.3637C38.0371 76.6992 37.8293 76.4913 36.1647 76.4913C34.5001 76.4913 34.2923 76.2835 34.2923 74.6189C34.2923 72.9543 34.5001 72.7465 36.1647 72.7465C37.8293 72.7465 38.0371 72.5387 38.0371 70.8741C38.0371 69.2095 38.2449 69.0017 39.9095 69.0017C41.5741 69.0017 41.7819 69.2095 41.7819 70.8741ZM64.875 70.8741C64.875 72.5387 65.0828 72.7465 66.7474 72.7465C68.412 72.7465 68.6198 72.9543 68.6198 74.6189C68.6198 76.2835 68.412 76.4913 66.7474 76.4913C65.0828 76.4913 64.875 76.6992 64.875 78.3637C64.875 80.0283 64.6672 80.2361 63.0026 80.2361C61.338 80.2361 61.1302 80.0283 61.1302 78.3637C61.1302 76.6992 60.9223 76.4913 59.2578 76.4913C57.5932 76.4913 57.3854 76.2835 57.3854 74.6189C57.3854 72.9543 57.5932 72.7465 59.2578 72.7465C60.9223 72.7465 61.1302 72.5387 61.1302 70.8741C61.1302 69.2095 61.338 69.0017 63.0026 69.0017C64.6672 69.0017 64.875 69.2095 64.875 70.8741ZM30.5475 82.1086C30.5475 83.7731 30.7553 83.981 32.4199 83.981C34.0844 83.981 34.2923 84.1888 34.2923 85.8534C34.2923 87.5179 34.0844 87.7258 32.4199 87.7258C30.7553 87.7258 30.5475 87.9336 30.5475 89.5982C30.5475 91.2628 30.3396 91.4706 28.675 91.4706C27.0105 91.4706 26.8026 91.2628 26.8026 89.5982C26.8026 87.9336 26.5948 87.7258 24.9302 87.7258C23.2656 87.7258 23.0578 87.5179 23.0578 85.8534C23.0578 84.1888 23.2656 83.981 24.9302 83.981C26.5948 83.981 26.8026 83.7731 26.8026 82.1086C26.8026 80.444 27.0105 80.2361 28.675 80.2361C30.3396 80.2361 30.5475 80.444 30.5475 82.1086ZM76.1095 82.1086C76.1095 83.7731 76.3173 83.981 77.9819 83.981C79.6465 83.981 79.8543 84.1888 79.8543 85.8534C79.8543 87.5179 79.6465 87.7258 77.9819 87.7258C76.3173 87.7258 76.1095 87.9336 76.1095 89.5982C76.1095 91.2628 75.9016 91.4706 74.2371 91.4706C72.5725 91.4706 72.3647 91.2628 72.3647 89.5982C72.3647 87.9336 72.1568 87.7258 70.4922 87.7258C68.8277 87.7258 68.6198 87.5179 68.6198 85.8534C68.6198 84.1888 68.8277 83.981 70.4922 83.981C72.1568 83.981 72.3647 83.7731 72.3647 82.1086C72.3647 80.444 72.5725 80.2361 74.2371 80.2361C75.9016 80.2361 76.1095 80.444 76.1095 82.1086ZM49.8957 89.5982C49.8957 91.3221 49.7222 91.4706 47.7112 91.4706C45.7003 91.4706 45.5268 91.6192 45.5268 93.343C45.5268 95.0076 45.3189 95.2154 43.6543 95.2154C41.9898 95.2154 41.7819 95.4233 41.7819 97.0878C41.7819 98.7524 41.9898 98.9603 43.6543 98.9603C45.3189 98.9603 45.5268 99.1681 45.5268 100.833C45.5268 102.557 45.7003 102.705 47.7112 102.705C49.7222 102.705 49.8957 102.557 49.8957 100.833C49.8957 99.2517 50.1385 98.9603 51.4561 98.9603C52.7736 98.9603 53.0164 99.2517 53.0164 100.833C53.0164 102.557 53.1899 102.705 55.2009 102.705C57.2118 102.705 57.3854 102.557 57.3854 100.833C57.3854 99.1681 57.5932 98.9603 59.2578 98.9603C60.9223 98.9603 61.1302 98.7524 61.1302 97.0878C61.1302 95.4233 60.9223 95.2154 59.2578 95.2154C57.5932 95.2154 57.3854 95.0076 57.3854 93.343C57.3854 91.6192 57.2118 91.4706 55.2009 91.4706C53.1899 91.4706 53.0164 91.3221 53.0164 89.5982C53.0164 88.0173 52.7736 87.7258 51.4561 87.7258C50.1385 87.7258 49.8957 88.0173 49.8957 89.5982Z" fill="white"/>
</svg>
