<svg width="89" height="89" viewBox="0 0 89 89" fill="none" xmlns="http://www.w3.org/2000/svg">
<path fill-rule="evenodd" clip-rule="evenodd" d="M9.58237 5.00143C9.5195 5.06416 9.46814 6.10133 9.46814 7.30594V9.49655L7.20501 9.54233L4.94186 9.58809L4.89628 11.9341L4.8505 14.2801H7.15941H9.46814V16.585V18.8898H11.8547H14.2413V16.585V14.2801H16.5456H18.8499V11.8929V9.50577H16.5502H14.2505L14.2048 7.24208L14.159 4.97838L11.9278 4.93278C10.7006 4.90776 9.64508 4.93854 9.58237 5.00143ZM14.0767 14.1155V11.8929V9.67041H11.8547H9.63274V11.8929V14.1155H11.8547H14.0767Z" fill="white"/>
<path fill-rule="evenodd" clip-rule="evenodd" d="M74.4273 5.00587C74.3669 5.06613 74.3175 6.10133 74.3175 7.30594V9.49655L72.0544 9.54233L69.7912 9.58809V11.8929V14.1978L72.0544 14.2436L74.3175 14.2893V16.5896V18.8898H76.7041H79.0907V16.585V14.2801H81.395H83.6993V11.8929V9.50577H81.395H79.0907V7.20092V4.89606H76.8139C75.5615 4.89606 74.4875 4.94545 74.4273 5.00587ZM79.0907 14.1155V11.8929V9.67041H76.7864H74.4821V11.8929V14.1155H76.7864H79.0907Z" fill="white"/>
<path fill-rule="evenodd" clip-rule="evenodd" d="M74.4317 69.8666C74.3689 69.9293 74.3175 70.9665 74.3175 72.1711V74.3617L72.0544 74.4075L69.7912 74.4533V76.7581V79.063L72.0544 79.1088L74.3175 79.1545V81.4548V83.755H76.7041H79.0907V81.4502V79.1453H81.3994H83.7083L83.6626 76.7993L83.617 74.4533L81.3584 74.4075L79.0999 74.3617L79.0541 72.1027L79.0084 69.8436L76.7772 69.798C75.55 69.7729 74.4944 69.8037 74.4317 69.8666ZM79.0084 79.063V76.8405V74.6179L76.7452 74.5722L74.4821 74.5264V76.8405V79.1545L76.7452 79.1088L79.0084 79.063Z" fill="white"/>
<path fill-rule="evenodd" clip-rule="evenodd" d="M9.58237 69.8666C9.5195 69.9293 9.46814 70.9665 9.46814 72.1711V74.3617L7.20501 74.4075L4.94186 74.4533L4.89628 76.7993L4.8505 79.1453H7.15941H9.46814V81.4502V83.755H11.8547H14.2413V81.4502V79.1453H16.5501H18.859L18.8132 76.7993L18.7676 74.4533L16.5091 74.4075L14.2505 74.3617L14.2048 72.1027L14.159 69.8436L11.9278 69.798C10.7006 69.7729 9.64508 69.8037 9.58237 69.8666ZM14.0767 79.1453V76.8405V74.5356H11.8547H9.63274V76.8405V79.1453H11.8547H14.0767Z" fill="white"/>
<path fill-rule="evenodd" clip-rule="evenodd" d="M28.0671 9.67041V4.97838V0.286355H32.758H37.4488V2.58661V4.88684L39.712 4.93262L41.9751 4.97838L42.0209 7.24208L42.0666 9.50577H44.2794H46.4922L46.538 7.24208L46.5837 4.97838L48.888 4.89606L51.1923 4.81375L51.238 2.54742L51.284 0.28125L55.9289 0.32488L60.574 0.368671V4.97838V9.58809L58.2286 9.63369L55.8832 9.67947V11.9797V14.2801H53.5743H51.2654L51.3111 16.5438L51.3569 18.8075L53.6154 18.8533L55.8739 18.899L55.9197 21.1581L55.9655 23.4172H58.1875H60.4095L60.4552 21.1535L60.501 18.8898H65.1872H69.8735V23.4995V28.1092H67.5692H65.2649V30.4141V32.719H67.5692H69.8735V35.0238V37.3287H72.0909H74.3083L74.3541 35.065L74.3998 32.8013L76.7041 32.719L79.0084 32.6366L79.0541 30.3729L79.0999 28.1092H83.7888H88.4775L88.4339 32.7601L88.3901 37.411L86.0447 37.4566L83.6993 37.5024V39.8026V42.103H81.3904H79.0815L79.1272 44.3667L79.173 46.6304L81.4315 46.6762L83.69 46.7219L83.7358 48.981L83.7816 51.2401L86.0858 51.3224L88.3901 51.4047V55.9321V60.4595L83.8887 60.5418C81.4129 60.5871 79.3229 60.5841 79.2441 60.5352C79.1652 60.4864 79.08 59.4492 79.0545 58.2304L79.0084 56.0144L76.663 55.9688L74.3175 55.9231V53.6228V51.3224H72.0955H69.8735V53.6273V55.9321H67.5692H65.2649V58.237V60.5418H67.5719H69.8786L69.835 65.1927L69.7912 69.8436H65.1826H60.574L60.4917 67.5387L60.4095 65.2339H58.1875H55.9655L55.9199 67.5799L55.8741 69.9259H53.5744H51.2746V72.1484V74.371H53.5744H55.8741L55.9199 76.717L55.9655 79.063L58.3135 79.1088L60.6616 79.1544L60.6178 83.7185L60.574 88.2824L55.9289 88.3262L51.284 88.3698L51.238 86.1037L51.1923 83.8373L48.888 83.755L46.5837 83.6727L46.538 81.409L46.4922 79.1453H44.2748H42.0574V81.4502V83.755H39.7531H37.4488V86.0599V88.3647H32.758H28.0671V83.7596V79.1545L30.3302 79.1088L32.5934 79.063L32.6757 76.7581L32.758 74.4533L35.0211 74.4075L37.2842 74.3617V72.1484V69.9351L35.0211 69.8893L32.758 69.8436L32.6757 67.5387L32.5934 65.2339H30.3714H28.1494L28.1038 67.5799L28.058 69.9259H23.454H18.8499V65.2385V60.5511L21.1131 60.5053L23.3762 60.4595L23.422 58.1958L23.4677 55.9321H21.1634H18.8591L18.8134 53.6684L18.7676 51.4047L16.5045 51.359L14.2413 51.3132V53.6227V55.9321H11.937H9.63274V58.237V60.5418H4.94186H0.250977V55.9367V51.3316L2.51413 51.2859L4.77726 51.2401L4.82302 48.981L4.86878 46.7219L7.12732 46.6762L9.38585 46.6304L9.43161 44.3667L9.47737 42.103H7.16845H4.85956V39.7981V37.4933H2.55527H0.250977V32.8013V28.1092H4.94186H9.63274V30.4141V32.719H11.937H14.2413V35.0238V37.3287H16.5456H18.8499V35.0284V32.7282L21.1131 32.6824L23.3762 32.6366V30.4141V28.1916L21.1131 28.1458L18.8499 28.1V23.4949V18.8898H23.4539H28.0578L28.1036 21.1535L28.1494 23.4172H30.3714H32.5934L32.6391 21.1535L32.6849 18.8898H34.9845H37.2842V16.5896V14.2893L35.0211 14.2436L32.758 14.1978L32.7122 11.9341L32.6664 9.67041H30.3668H28.0671ZM46.5014 25.7999V28.1002L48.8469 28.146L51.1923 28.1916L51.2746 30.4964L51.3569 32.8013L53.62 32.847L55.8832 32.8928V35.193V37.4933H58.1875H60.4917V39.7981V42.103H62.8006H65.1096L65.0638 44.3667L65.018 46.6304L62.7595 46.6762L60.501 46.7219L60.4552 48.981L60.4095 51.2401L58.1463 51.2859L55.8832 51.3316V53.6319V55.9321H53.5835H51.2838L51.238 58.1958L51.1923 60.4595L48.888 60.5418L46.5837 60.6242L46.538 62.8879L46.4922 65.1515H44.2748H42.0574V62.8467V60.5418H39.7531H37.4488V58.237V55.9321H35.1445H32.8402V53.6317V51.3315L30.4948 51.2857L28.1494 51.2401L28.1036 48.981L28.0578 46.7219L25.7993 46.6762L23.5408 46.6304L23.495 44.3667L23.4493 42.103H25.7582H28.0671V39.8026V37.5024L30.4125 37.4566L32.758 37.411L32.8037 35.1473L32.8495 32.8836H34.8888C36.0105 32.8836 37.0452 32.8386 37.1884 32.7836C37.4087 32.6992 37.4488 32.3302 37.4488 30.3965V28.1092H39.7531H42.0574V25.8044V23.4995H44.2794H46.5014V25.7999ZM41.8928 35.1288C41.8928 33.9242 41.9422 32.889 42.0026 32.8288C42.0629 32.7683 43.1368 32.719 44.3892 32.719H46.666V35.0238V37.3287H48.9703H51.2746V39.6335V41.9384H53.5789H55.8832V44.3255V46.7127H53.5789H51.2746V49.0176V51.3224H48.9703H46.666V53.6273V55.9321H44.2794H41.8928V53.6273V51.3224H39.5885H37.2842V49.0176V46.7127H34.9755H32.6666L32.7124 44.3667L32.758 42.0207L35.0165 41.9749L37.275 41.9291L37.3208 39.6701L37.3665 37.411L39.6297 37.3652L41.8928 37.3194V35.1288ZM46.4191 46.6304L46.4649 44.3667L46.5106 42.103H44.2794H42.0482L42.094 44.3667L42.1397 46.6304H44.2794H46.4191Z" fill="white"/>
</svg>
