<svg width="100" height="100" viewBox="0 0 100 100" fill="none" xmlns="http://www.w3.org/2000/svg">
<path fill-rule="evenodd" clip-rule="evenodd" d="M42.9539 7.30147L35.9664 14.3217H25.6147H15.263V24.6422V34.9627L8.06342 42.1927L0.86377 49.4228L8.06342 56.6528L15.263 63.8828V74.5934V85.3039H25.5835H35.904L43.1341 92.5035L50.3641 99.7031L57.5941 92.5035L64.8242 85.3039H75.1447H85.4652V74.5934V63.8828L92.6648 56.6528L99.8645 49.4228L92.6648 42.1927L85.4652 34.9627V24.6422V14.3217H75.1135H64.7618L57.7743 7.30147C53.9312 3.44035 50.5966 0.28125 50.3641 0.28125C50.1317 0.28125 46.7971 3.44035 42.9539 7.30147ZM63.1511 18.175L56.9709 11.9582C53.5715 8.53859 50.5989 5.74142 50.3641 5.74142C50.1293 5.74142 47.1457 8.5495 43.7339 11.9816L37.5304 18.2218H27.9564H18.3831V27.405V36.589L12.1429 42.7926C8.71083 46.2044 5.90274 49.2161 5.90274 49.4852C5.90274 49.7543 8.71083 52.7316 12.1429 56.1013L18.3831 62.2276V72.2057V82.1838H27.5655H36.748L43.3275 88.7976L49.9063 95.4106L56.6651 88.7976L63.4233 82.1838H72.4942H81.5651V72.2549V62.3259L87.9831 55.8743L94.4011 49.4228L88.0065 42.9876L81.6126 36.5524L81.3935 27.5821L81.1751 18.6118L72.1635 18.3934L63.1511 18.175ZM44.1239 16.2717L38.3127 22.1219H30.688H23.0633V29.71V37.2981L17.036 43.3604L11.0096 49.4228L17.0111 55.468L23.0126 61.5131L23.2333 69.7034L23.4533 77.8936L31.2535 78.1152L39.0538 78.3367L44.7089 83.9459L50.3641 89.555L56.038 83.9193L61.7111 78.2837H68.4544C72.1627 78.2837 75.7524 78.0707 76.431 77.8102C77.4435 77.4217 77.665 75.9217 77.665 69.4421V61.5475L83.6922 55.4851L89.7187 49.4228L83.6922 43.3604L77.665 37.2981V29.71V22.1219H70.0402H62.4155L56.6043 16.2717C53.4085 13.0541 50.6005 10.4216 50.3641 10.4216C50.1278 10.4216 47.3197 13.0541 44.1239 16.2717ZM55.8243 20.9519L60.8492 26.022H67.697H74.5449V32.4377V38.8534L79.7656 44.1147L84.9862 49.376L79.7656 54.7839L74.5449 60.1918V67.6777V75.1636H67.3507H60.1565L55.2603 80.0161L50.3641 84.8686L45.4679 80.0161L40.5717 75.1636H33.461C27.6966 75.1636 26.2606 74.9303 25.8768 73.9296C25.6163 73.2509 25.4033 69.6628 25.4033 65.9554V59.2152L20.5508 54.319L15.6983 49.4228L20.5204 44.5476L25.3433 39.6725L25.5679 33.0423L25.7934 26.4121L32.8635 26.1897L39.9329 25.9674L44.9312 20.9246C47.68 18.1508 50.1246 15.8817 50.3641 15.8817C50.6036 15.8817 53.0607 18.1633 55.8243 20.9519ZM44.7198 29.8327C44.4031 29.0155 44.2131 28.5251 44.2571 28.0567C44.3231 27.3538 44.9161 26.7004 46.3989 25.0665C46.5689 24.8792 46.7506 24.679 46.9445 24.4643C48.496 22.7467 50.0045 21.3419 50.2963 21.3419C50.5888 21.3419 52.1714 22.7179 53.8141 24.4004C56.5934 27.2467 56.7416 27.6266 55.9522 29.891C55.1628 32.1538 55.2502 32.3792 57.2034 33.1218C58.4475 33.5945 59.3991 33.6273 59.5411 33.2014C60.2775 30.9939 62.0801 29.9853 66.1596 29.4978L70.6447 28.9627V33.7123C70.6447 38.1694 70.5043 38.5352 68.3733 39.6366C66.6775 40.5141 66.2079 41.2138 66.5176 42.3994C67.0855 44.571 67.8265 44.8854 70.2251 43.9735C72.0425 43.2824 72.6518 43.5437 75.5558 46.2613L78.835 49.3284L75.7648 52.482C72.9926 55.3299 72.4185 55.5912 69.8327 55.177C67.3109 54.7737 66.9131 54.9344 66.4981 56.5225C66.2384 57.514 66.1003 58.3587 66.1908 58.4001C69.8982 60.0982 70.6447 61.2768 70.6447 65.4312V69.7034H65.9849C61.605 69.7034 61.2525 69.5638 60.1253 67.3844C59.0333 65.2721 58.7494 65.1457 56.9553 65.9632C55.8711 66.4569 55.1246 67.2377 55.297 67.6972C56.6659 71.3516 56.5575 71.7728 53.4733 74.7845L50.3384 77.8453L47.127 74.6339C44.1606 71.6675 43.9781 71.2447 44.7269 69.095C45.4578 67.0006 45.347 66.68 43.6247 65.8953C43.4907 65.8343 43.3646 65.7763 43.2456 65.7215C42.2786 65.2769 41.7853 65.05 41.4303 65.1856C41.0606 65.3268 40.8411 65.8613 40.3929 66.9527C40.34 67.0817 40.2838 67.2185 40.2238 67.3633C39.3026 69.588 39.0288 69.7034 34.6693 69.7034H30.0835V65.1176C30.0835 60.7581 30.1989 60.4843 32.4236 59.5631C32.5684 59.5031 32.7052 59.4469 32.8342 59.3939C33.9255 58.9458 34.4601 58.7263 34.6013 58.3565C34.7369 58.0016 34.51 57.5082 34.0653 56.5413C34.0106 56.4223 33.9526 56.2961 33.8916 56.1622C33.1069 54.4399 32.7863 54.3291 30.6919 55.06C28.5414 55.8096 28.1194 55.6263 25.1405 52.6466L21.9158 49.4228L25.1405 46.1989C28.1194 43.2192 28.5414 43.0359 30.6919 43.7855C32.7676 44.5094 33.1092 44.401 33.8479 42.7793C34.7254 40.8534 34.1872 40.0141 31.4485 39.0383C30.3534 38.6475 30.0835 37.6218 30.0835 33.8465V29.1421H34.3557C38.7051 29.1421 38.8268 29.2194 41.4399 33.6491C41.5101 33.7685 42.489 33.5157 43.6154 33.0875C45.4297 32.3972 45.5755 32.0781 44.8938 30.2849C44.8324 30.1235 44.7742 29.9733 44.7198 29.8327ZM64.2946 37.7224C66.0504 37.7224 67.5246 36.2271 67.5246 34.4463C67.5246 32.3668 63.123 32.4962 62.4568 34.5953C61.839 36.5407 62.5333 37.7224 64.2946 37.7224ZM72.9848 48.2527C73.7609 49.188 73.7547 49.6654 72.9536 50.6302C71.6338 52.2207 68.7852 51.7644 68.431 49.9064C67.9458 47.3651 71.2516 46.1646 72.9848 48.2527ZM66.7446 64.3267C66.7446 62.9882 66.2423 61.8774 65.5106 61.5966L65.3896 61.5501C64.6472 61.2647 64.2816 61.1242 63.976 61.2064C63.6795 61.2862 63.4394 61.5758 62.9663 62.1463L62.8858 62.2432C61.6284 63.7581 63.1424 66.5833 65.2118 66.5833C66.3819 66.5833 66.7446 66.0498 66.7446 64.3267ZM52.3415 69.0107C53.0817 71.343 50.9195 73.4756 49.2331 72.0762C47.9897 71.0443 47.6223 68.8056 48.5443 67.8836C49.6434 66.7838 51.8422 67.4366 52.3415 69.0107ZM35.3042 66.4359C37.5039 66.7502 39.2246 63.9086 37.8424 62.2432C36.6958 60.8618 36.2176 60.8486 34.4376 62.1496C32.6061 63.4889 33.1388 66.1262 35.3042 66.4359ZM31.525 47.773C33.0538 48.7418 32.2909 51.3338 30.397 51.6053C28.1225 51.9321 26.447 49.8151 27.7434 48.2527C28.8354 46.9368 29.9766 46.7917 31.525 47.773ZM35.2925 37.2778C36.9828 37.926 38.8673 36.0414 38.2191 34.3511C37.9422 33.6304 36.8775 33.0423 35.8502 33.0423C34.4017 33.0423 33.9836 33.4604 33.9836 34.9089C33.9836 35.9362 34.5717 37.0009 35.2925 37.2778ZM52.1878 27.7178C53.2487 29.3996 52.2822 31.4822 50.4413 31.4822C48.5529 31.4822 47.5436 28.7108 48.8563 27.1289C49.9671 25.7912 51.0981 25.9908 52.1878 27.7178ZM65.1627 50.2028C65.2048 43.7879 60.4077 37.0742 54.6363 35.472C50.6644 34.3699 49.1254 34.419 45.294 35.7739C38.8541 38.0516 34.8307 45.0718 35.8962 52.1755C36.3463 55.1747 37.1466 56.5608 40.1864 59.6005C43.2261 62.6403 44.6122 63.4406 47.6114 63.8907C52.1285 64.5677 56.4241 63.3907 59.8001 60.5498C62.545 58.2402 65.1432 53.2269 65.1627 50.2028Z" fill="#EEEEEE"/>
<rect x="39.7856" y="54.2646" width="8.5437" height="21.1642" rx="4.27185" transform="rotate(-90 39.7856 54.2646)" fill="#EEEEEE"/>
<rect x="54.6426" y="60.5742" width="8.5437" height="21.1642" rx="4.27185" transform="rotate(180 54.6426 60.5742)" fill="#EEEEEE"/>
</svg>
