<svg width="79" height="75" viewBox="0 0 79 75" fill="none" xmlns="http://www.w3.org/2000/svg">
<path fill-rule="evenodd" clip-rule="evenodd" d="M33.6136 12.4705C32.6641 9.18467 34.4873 3.78502 37.3932 1.27642C38.2061 0.574174 39.002 0 39.1616 0C39.8379 0 42.9737 3.50059 43.7566 5.12972C44.4589 6.59045 44.6069 7.49929 44.6069 10.3479C44.6069 12.2452 44.6569 13.7972 44.718 13.7972C45.257 13.7972 47.4592 12.3654 48.8955 11.0816C50.6028 9.55543 50.6753 9.52748 51.077 10.2449C51.3058 10.6532 51.5882 11.7577 51.7048 12.6991C51.9158 14.4025 51.9092 14.4156 50.2981 15.4542C48.1933 16.811 45.3151 17.9575 43.2732 18.2529C42.3777 18.3824 41.0943 18.8809 40.4209 19.3606L39.196 20.2327L37.8297 19.355C37.0778 18.8721 35.7204 18.3722 34.8127 18.2438C32.8566 17.9675 30.4826 17.0066 28.0117 15.491L26.2167 14.3904L26.4665 12.7995C26.6039 11.9243 26.8719 10.817 27.0622 10.3383L27.4083 9.4684L29.1937 11.0643C30.8958 12.5858 32.8659 13.7972 33.6385 13.7972C33.8654 13.7972 33.8565 13.3104 33.6136 12.4705ZM36.8405 11.5765C36.5496 9.53455 37.1841 6.31946 38.2346 4.51061C38.6585 3.78113 39.0553 3.18396 39.116 3.18396C39.1771 3.18396 39.6861 4.01958 40.2477 5.04127C41.1413 6.66722 41.269 7.29552 41.272 10.0825C41.2749 12.7726 41.1339 13.5311 40.3632 14.9728C39.8616 15.9113 39.3333 16.7487 39.1893 16.834C38.754 17.0908 37.0978 13.3836 36.8405 11.5765ZM22.0958 18.4242C22.3149 17.1439 22.6951 15.6191 22.9406 15.0354L23.3863 13.9741L24.5571 15.2239C27.2443 18.0938 30.8584 20.0986 34.9289 20.9788C36.3249 21.2805 37.8285 21.8519 38.2705 22.2488L39.0746 22.9705L40.1748 22.1112C40.78 21.6386 41.6085 21.2445 42.0157 21.2353C45.0804 21.1666 51.4242 17.9158 53.8337 15.1794C54.3746 14.5649 54.8769 14.1219 54.9495 14.1948C55.3274 14.5758 56.2677 18.3463 56.2677 19.4816C56.2677 20.7764 56.2892 20.7952 58.026 21.0276C58.9933 21.1571 60.6877 21.5059 61.7915 21.8027L63.7983 22.3429L62.0107 23.9958C61.0279 24.905 59.676 26.4626 59.0067 27.4574C57.7306 29.3551 56.2677 33.0421 56.2677 34.3599C56.2677 34.7855 55.8427 35.666 55.3234 36.317L54.379 37.5L55.3234 38.683C55.8427 39.334 56.2677 40.2145 56.2677 40.6401C56.2677 41.9579 57.7306 45.6449 59.0067 47.5426C59.676 48.5374 61.0279 50.095 62.0107 51.0042L63.7983 52.6571L61.7915 53.1973C60.6877 53.4941 58.9933 53.8429 58.026 53.9724C56.2892 54.2048 56.2677 54.2236 56.2677 55.5184C56.2677 56.6413 55.3293 60.4217 54.9569 60.7978C54.8884 60.8667 54.2935 60.3364 53.6342 59.619C51.2214 56.9926 44.9212 53.8086 42.0434 53.7609C41.6211 53.7538 40.78 53.3614 40.1748 52.8888C39.0805 52.0341 39.0701 52.0334 38.3035 52.7215C37.8796 53.1021 36.2645 53.7234 34.7142 54.1022C30.3705 55.1639 27.2365 56.9147 24.5571 59.7761L23.3863 61.0259L22.9406 59.9646C22.6951 59.3809 22.3112 57.8331 22.0873 56.5256L21.6801 54.1479L20.002 53.9282C17.9431 53.6593 15.886 53.1608 15.2774 52.7844C14.9568 52.586 15.4162 51.9025 16.8322 50.4715C19.1488 48.1302 21.2214 44.4234 21.857 41.4846C22.0995 40.3631 22.6229 39.0081 23.0201 38.4729C23.7361 37.5081 23.7361 37.4919 23.0201 36.5271C22.6229 35.9919 22.0995 34.6369 21.857 33.5154C21.2211 30.5756 19.1484 26.8695 16.8292 24.5257C15.6902 23.3745 14.9561 22.3578 15.1379 22.1841C15.3148 22.015 16.8629 21.6237 18.578 21.3142L21.6967 20.7513L22.0958 18.4242ZM24.7456 29.3989C23.5325 27.5717 22.2109 23.8235 22.2109 22.2103V21.1461L23.9549 21.3959C31.2267 22.4381 37.5291 28.4314 38.3472 35.0823L38.593 37.0804L37.1578 36.9145C32.2936 36.3513 27.3905 33.3824 24.7456 29.3989ZM40.9721 31.2463C42.7997 26.884 48.2388 22.5074 52.9527 21.6067C55.7061 21.0807 56.0996 21.2154 55.9701 22.6415C55.6413 26.2581 52.8476 31.1862 49.9187 33.3159C47.092 35.371 44.0206 36.6028 41.0902 36.8568L39.7946 36.9693L39.8831 35.3027C39.9315 34.3861 40.4217 32.561 40.9721 31.2463ZM11.0309 25.898L11.1192 25.8644C11.6204 25.673 12.7424 25.5064 13.6123 25.494C15.1027 25.4731 15.2574 25.5676 16.2973 27.1348C17.6181 29.1248 18.7838 31.9949 19.1077 34.0542C19.245 34.927 19.7348 35.9558 20.2786 36.5144C21.2455 37.5074 21.1655 37.9015 19.7563 39.092C19.526 39.2866 19.2328 40.1208 19.1047 40.9458C18.7856 42.9994 17.621 45.8706 16.2973 47.8652C15.293 49.379 15.0649 49.5283 13.76 49.5283C12.2345 49.5283 9.99492 48.9177 9.99492 48.5017C9.99492 48.3644 10.592 47.7035 11.322 47.0328C12.5969 45.8618 14.6744 42.8989 14.3893 42.6587C14.3138 42.595 13.5024 42.6449 12.5862 42.7702C10.2178 43.0928 6.58887 42.6113 4.79312 41.7357C2.80006 40.7643 0 38.2896 0 37.5C0 36.7143 2.79636 34.2375 4.76906 33.2756C6.64921 32.3593 10.1941 31.8718 12.5025 32.2125C13.4646 32.3547 14.3138 32.4156 14.3893 32.348C14.6511 32.1149 12.6584 29.1814 11.312 27.8172L11.2105 27.7144C10.4452 26.9395 10.1128 26.603 10.1808 26.376C10.233 26.2017 10.5213 26.092 11.0309 25.898ZM59.0592 34.1961C59.4512 31.9277 60.2549 29.8932 61.672 27.5827C62.8932 25.5909 63.0457 25.4717 64.3743 25.4717C65.7773 25.4717 68.1135 26.0763 68.1135 26.4396C68.1135 26.5447 67.459 27.3092 66.6591 28.1388C65.8591 28.968 64.8774 30.2593 64.4776 31.0086L63.7505 32.3703H67.6904C71.2486 32.3703 71.8094 32.4616 73.4812 33.3134C74.4992 33.8321 76.0746 34.9864 76.9823 35.8783L78.6326 37.5L76.9823 39.1217C76.0746 40.0136 74.4992 41.1679 73.4812 41.6866C71.8094 42.5384 71.2486 42.6297 67.6904 42.6297H63.7505L64.4776 43.9914C64.8774 44.7407 65.8591 46.032 66.6591 46.8612C67.459 47.6908 68.1135 48.4553 68.1135 48.5604C68.1135 48.9226 65.7791 49.5283 64.3832 49.5283C63.0761 49.5283 62.9006 49.3953 61.7008 47.4941C60.316 45.3 59.4627 43.1388 59.0592 40.8039C58.9193 39.9945 58.484 39.0541 58.0916 38.7149C57.6992 38.3756 57.3782 37.829 57.3782 37.5C57.3782 37.171 57.6992 36.6244 58.0916 36.2851C58.484 35.9459 58.9193 35.0055 59.0592 34.1961ZM3.33164 37.5223C3.33164 37.0422 6.91056 35.6346 8.69928 35.411C9.71728 35.2836 11.3335 35.2928 12.2912 35.4315C14.3397 35.7276 17.3986 36.9495 17.3986 37.4713C17.3986 37.8226 15.1664 38.9176 13.3969 39.4341C11.4353 40.0068 7.78493 39.6672 5.53681 38.7028C4.3241 38.1828 3.33164 37.6514 3.33164 37.5223ZM60.798 37.4246C60.865 37.2318 61.8308 36.6909 62.9435 36.2229C65.691 35.0667 70.3731 35.1414 73.0184 36.3835C73.9857 36.8377 74.7768 37.3401 74.7768 37.5C74.7768 37.6599 73.9857 38.163 73.0184 38.6183C71.5492 39.3099 70.6822 39.4458 67.7433 39.4458C64.7952 39.4458 63.9397 39.3106 62.4512 38.6101C61.4747 38.1509 60.7306 37.6171 60.798 37.4246ZM22.9424 49.4621C24.71 43.9928 30.1095 39.3322 35.9476 38.2366C38.4523 37.7664 38.4989 37.7774 38.4989 38.8408C38.4989 43.3818 34.5117 49.2463 29.7349 51.7313C27.9439 52.6624 24.2118 53.7736 22.8736 53.7736C21.981 53.7736 22.0033 52.3673 22.9424 49.4621ZM41.2572 44.3933C40.1899 42.087 39.4462 39.1245 39.7465 38.3763C39.9778 37.8004 41.1953 37.9146 44.2368 38.7969C50.1926 40.5248 54.8688 45.7281 55.8775 51.75C56.0334 52.6801 56.02 53.5245 55.8479 53.6261C55.2515 53.9781 51.2606 53.0544 49.2342 52.0949C46.3942 50.7502 42.4262 46.9196 41.2572 44.3933ZM35.7433 56.6077C36.1616 56.6055 37.0686 56.2058 37.7586 55.7193C38.4486 55.2329 39.0749 54.8349 39.1508 54.8349C39.2267 54.8349 39.8346 55.2329 40.502 55.7193C41.1694 56.2058 42.116 56.607 42.6057 56.6112C44.0594 56.6236 48.2592 58.1844 50.1067 59.3989C51.3809 60.2367 51.8255 60.7588 51.8255 61.4169C51.8255 62.6101 51.0614 65.4481 50.7401 65.4481C50.5991 65.4481 49.9938 64.9493 49.396 64.3394C48.4017 63.3251 45.3003 61.2032 44.812 61.2028C44.6991 61.2025 44.6069 62.6752 44.6069 64.4752C44.6069 66.859 44.4133 68.2277 43.8936 69.5154C43.1766 71.2928 39.9008 75 39.0476 75C38.2713 75 35.5156 71.8557 34.5795 69.9018C33.517 67.6836 33.0824 64.3677 33.6136 62.5295C33.8565 61.6896 33.8654 61.2028 33.6385 61.2028C32.8659 61.2028 30.8958 62.4142 29.1937 63.9357L27.4083 65.5316L27.0622 64.6617C26.8719 64.183 26.6031 63.0711 26.4651 62.1909C26.2326 60.709 26.2918 60.5381 27.2665 59.8815C29.6486 58.2768 33.9476 56.6165 35.7433 56.6077ZM37.009 67.1529C36.4566 64.777 36.9649 61.5099 38.2217 59.36C38.6433 58.6383 39.0927 58.1091 39.2201 58.1844C39.347 58.2594 39.8582 59.0887 40.3561 60.0272C41.1143 61.4568 41.262 62.2496 41.2675 64.9175C41.2731 67.7183 41.1509 68.325 40.2503 69.9587C39.6876 70.9801 39.1497 71.816 39.0553 71.816C38.6681 71.816 37.445 69.0287 37.009 67.1529Z" fill="#D2D2D2"/>
</svg>
