<svg width="79" height="75" viewBox="0 0 79 75" fill="none" xmlns="http://www.w3.org/2000/svg">
<path d="M32.2373 0.133329C32.2566 0.152606 32.3914 0.132445 32.5366 0.0886794C32.682 0.0448156 32.8644 0.00508213 32.9421 0.000459713C33.1793 -0.0137026 34.365 0.30318 34.522 0.422772C34.6031 0.484536 34.8207 0.618881 35.0056 0.721361C35.1904 0.823841 35.4781 1.06372 35.6449 1.25451C35.8116 1.44521 36.0207 1.67073 36.1094 1.7556C36.37 2.00482 36.9807 2.83735 36.9807 2.94337C36.9807 2.99697 37.014 3.04083 37.0547 3.04083C37.1209 3.04083 37.4567 3.65079 37.6774 4.17185C37.7567 4.35901 38.06 5.34889 38.2651 6.08966C38.5755 7.21084 38.8777 10.0152 38.6746 9.88968C38.621 9.85654 38.5219 9.53012 38.4544 9.16426C38.3869 8.7985 38.3026 8.45496 38.2669 8.40087C38.2312 8.34678 38.142 8.12549 38.0688 7.90912C37.6547 6.68576 36.1547 5.16124 34.5364 4.31898C34.1944 4.14107 33.8917 3.93551 33.8636 3.86234C33.8355 3.78917 33.7054 3.72928 33.5744 3.72928C33.166 3.72928 31.9418 3.05598 31.4978 2.58715C31.1388 2.20801 31.0798 2.08576 31.0798 1.72138C31.0798 1.446 31.1488 1.20927 31.2765 1.047C31.3847 0.909503 31.4732 0.748603 31.4732 0.689495C31.4732 0.630485 31.5105 0.582098 31.5562 0.582098C31.6019 0.582098 31.766 0.473224 31.9208 0.340158C32.0757 0.207091 32.2181 0.114053 32.2373 0.133329Z" fill="#D2D2D2"/>
<path d="M43.0784 0.812038C43.0784 0.726868 43.7261 0.3913 44.1602 0.251644C44.2414 0.225581 44.6318 0.200699 45.0279 0.19647C45.6245 0.190077 45.8184 0.230203 46.1589 0.430442C46.7178 0.759421 46.8382 0.991526 46.834 1.73219C46.8298 2.45359 46.7104 2.60328 45.9102 2.89105C45.6509 2.98428 45.4388 3.09502 45.4388 3.13712C45.4388 3.17921 45.3092 3.26733 45.1508 3.33293C44.9924 3.39853 44.8389 3.51458 44.8096 3.5908C44.7804 3.66692 44.6445 3.72928 44.5075 3.72928C44.3706 3.72928 44.2586 3.77422 44.2586 3.8291C44.2586 3.88398 44.1147 4.01567 43.939 4.12179C43.3986 4.44782 43.2604 4.55226 42.8636 4.93406C42.6528 5.13685 42.4427 5.30287 42.3966 5.30287C42.3506 5.30287 42.0658 5.55012 41.7636 5.85224C40.8646 6.75126 40.3189 7.91581 39.6822 10.2941C39.542 10.8173 39.2718 10.2969 39.3754 9.7037C39.451 9.27136 39.6062 8.49578 39.7247 7.9583C39.7784 7.71488 39.8496 7.38295 39.883 7.22068C39.9164 7.0584 39.9893 6.70434 40.0451 6.43388C40.1643 5.85638 40.2209 5.65968 40.6254 4.41772C40.7928 3.90385 40.9706 3.44131 41.0205 3.38997C41.0705 3.33863 41.1114 3.22366 41.1114 3.13466C41.1114 3.04565 41.377 2.65658 41.7015 2.26997C42.0261 1.88346 42.2916 1.52969 42.2916 1.48386C42.2916 1.35748 42.9518 0.783321 43.0194 0.850887C43.0518 0.883342 43.0784 0.865835 43.0784 0.812038Z" fill="#D2D2D2"/>
<path d="M9.63864 12.1989C9.82845 12.0573 9.99545 11.9176 10.0097 11.8885C10.0796 11.7452 10.5513 11.8271 11.2624 12.1058C11.6951 12.2753 12.0927 12.4532 12.1461 12.501C12.2065 12.555 12.2322 13.559 12.2143 15.1658C12.1838 17.8968 12.2156 18.1796 12.6858 19.3668C12.9212 19.961 13.3837 20.7432 13.4998 20.7435C13.5404 20.7436 13.5736 20.7927 13.5736 20.8525C13.5736 20.9861 14.0659 21.6262 14.6241 22.2182C14.8531 22.4612 15.0049 22.6957 14.9613 22.7392C14.8389 22.8617 14.3526 22.6087 13.9178 22.1964C13.7014 21.9912 13.447 21.7987 13.3523 21.7686C13.2577 21.7385 13.1802 21.6727 13.1802 21.6223C13.1802 21.5718 13.1224 21.5305 13.0517 21.5305C12.9275 21.5305 12.6184 21.3244 11.9042 20.7652C11.1979 20.2123 9.83219 18.7617 9.36601 18.0691C8.68632 17.0592 8.61571 16.791 8.61581 15.2206C8.6159 14.0156 8.6395 13.8282 8.84515 13.4011C8.97124 13.1392 9.12368 12.8195 9.18387 12.6907C9.24406 12.5618 9.44872 12.3405 9.63864 12.1989Z" fill="#D2D2D2"/>
<path d="M67.7641 13.8319C67.7641 13.6809 68.1133 13.362 68.4525 13.2034C68.8842 13.0016 69.2842 13.0525 69.6929 13.3613C70.4022 13.8971 70.4355 13.9406 70.3133 14.169C70.2352 14.315 70.2327 14.4418 70.3046 14.5998C70.4025 14.8146 70.3812 14.9401 70.0544 16.0721C70.0233 16.1803 69.9659 16.3131 69.9271 16.3672C69.8883 16.4213 69.8261 16.5983 69.7887 16.7606C69.7514 16.9228 69.5683 17.3057 69.3817 17.6114C69.1953 17.9171 69.0426 18.2074 69.0426 18.2567C69.0426 18.3059 68.9652 18.432 68.8705 18.5369C68.7758 18.6418 68.4992 18.9697 68.2558 19.2657C68.0124 19.5616 67.7417 19.8767 67.6541 19.9657C67.5666 20.0548 67.301 20.3873 67.064 20.7048C66.5815 21.351 66.238 21.7677 65.9415 22.0666C65.4411 22.5709 64.2523 23.5754 63.794 23.881C63.5164 24.066 63.1844 24.3202 63.0565 24.4457C62.661 24.8333 61.7691 25.3814 61.5904 25.3468C61.4544 25.3204 61.4881 25.2554 61.7595 25.0203C62.6369 24.2605 62.9165 23.9797 63.0483 23.7257C63.1267 23.5746 63.2636 23.362 63.3525 23.253C64.2865 22.1087 64.5848 21.6871 65.0244 20.8912C65.4379 20.1423 65.8954 19.1201 65.8954 18.945C65.8954 18.8741 65.933 18.774 65.979 18.7226C66.025 18.6712 66.1393 18.43 66.233 18.1866C66.3267 17.9432 66.4593 17.6113 66.5276 17.449C66.6696 17.1124 66.8019 16.681 66.9805 15.9738C67.0488 15.7033 67.1424 15.4399 67.1884 15.3886C67.2346 15.3372 67.2723 15.2239 67.2723 15.1366C67.2723 15.0494 67.3626 14.7913 67.4729 14.5629C67.5831 14.3347 67.6469 14.1051 67.6146 14.0528C67.5822 14.0004 67.6027 13.9576 67.6599 13.9576C67.7172 13.9576 67.7641 13.9011 67.7641 13.8319Z" fill="#D2D2D2"/>
<path d="M6.1375 21.2272C6.29387 21.2286 6.48624 21.1937 6.56492 21.1496C6.78375 21.0272 7.9427 21.1038 10.1805 21.3886C10.9115 21.4816 11.2132 21.5543 11.2132 21.6375C11.2132 21.6869 11.3128 21.7268 11.4345 21.7263C11.7399 21.7251 13.9525 22.7279 14.0173 22.8969C14.0463 22.9722 14.051 23.053 14.0277 23.0762C13.9809 23.1231 13.5579 23.0045 12.8851 22.7558C12.2512 22.5217 9.98905 22.6087 8.95117 22.9073C8.31407 23.0905 6.73812 23.7875 6.44327 24.0164C6.38917 24.0584 6.12363 24.2319 5.85317 24.4018C5.58271 24.5719 5.22865 24.8338 5.06638 24.984C4.9041 25.1342 4.51916 25.3724 4.21084 25.5133C3.75086 25.7234 3.55986 25.759 3.14561 25.7116C2.84525 25.6773 2.55689 25.5757 2.43356 25.4608C2.31957 25.3546 2.1873 25.2678 2.1395 25.2678C1.83747 25.2678 1.62061 24.3837 1.86078 24.1318C2.00919 23.9762 2.36177 23.3029 2.36186 23.1749C2.36206 22.9942 2.75822 22.5812 3.17315 22.3288C3.37605 22.2055 3.54196 22.0721 3.54196 22.0325C3.54196 21.7775 5.33841 21.2201 6.1375 21.2272Z" fill="#D2D2D2"/>
<path d="M68.3081 22.1796C70.0258 21.8249 70.2228 21.776 70.2228 21.7047C70.2228 21.663 70.2671 21.6289 70.3212 21.6289C70.3753 21.6289 70.4195 21.6754 70.4195 21.7322C70.4195 21.7932 70.6314 21.8299 70.9358 21.8215C71.2199 21.8138 71.6892 21.8555 71.9788 21.9143C72.2685 21.973 72.5451 21.9966 72.5935 21.9667C72.6419 21.9368 72.6815 21.9643 72.6815 22.028C72.6815 22.0915 72.7622 22.1225 72.8606 22.0967C73.034 22.0514 73.1613 22.1045 74.0599 22.5971C74.6171 22.9025 75.2176 23.467 75.3798 23.8377C75.7698 24.7292 75.7703 24.7359 75.4692 25.1211C75.1363 25.547 74.4368 25.9263 73.9653 25.9367C73.4086 25.9489 71.0652 25.0773 70.8129 24.7641C70.7174 24.6456 69.0869 24.004 68.7308 23.9449C68.1245 23.8442 66.3695 23.8748 65.8075 23.9957C65.5157 24.0586 64.9846 24.2545 64.6273 24.4311C64.2699 24.6078 63.9016 24.7778 63.8087 24.8091C63.5179 24.9067 63.506 24.6797 63.7901 24.4562C63.9395 24.3387 64.1709 24.1414 64.3044 24.0176C64.438 23.8938 64.5819 23.7925 64.6243 23.7925C64.6666 23.7925 64.7597 23.7346 64.8312 23.6638C65.0899 23.4074 66.9535 22.514 67.2295 22.514C67.3396 22.514 67.4731 22.4706 67.5262 22.4175C67.5792 22.3645 67.9311 22.2574 68.3081 22.1796Z" fill="#D2D2D2"/>
<path d="M3.54196 47.9171C3.54196 47.8677 3.72961 47.7317 3.95896 47.6153C4.85522 47.1601 6.1556 47.5885 7.29733 48.7148C7.65887 49.0716 7.99492 49.3634 8.04429 49.3634C8.09357 49.3634 8.21405 49.4519 8.3119 49.5601C8.40976 49.6682 8.57155 49.7568 8.67137 49.7568C8.7712 49.7568 8.85283 49.7912 8.85283 49.8333C8.85283 49.926 9.90684 50.2485 10.2099 50.2485C10.329 50.2485 10.4264 50.29 10.4264 50.3409C10.4264 50.4229 11.2575 50.6092 11.4277 50.5654C11.4645 50.5558 11.8379 50.6359 12.2577 50.7433C12.6773 50.8506 13.0897 50.9176 13.1742 50.892C13.2587 50.8665 13.4692 50.8217 13.6423 50.7925C13.8153 50.7632 14.0727 50.6952 14.2142 50.6414C14.3558 50.5876 14.5626 50.5436 14.6739 50.5436C14.8408 50.5436 14.8552 50.5688 14.7562 50.6882C14.6902 50.7678 14.4856 50.8873 14.3016 50.9539C14.1176 51.0204 13.967 51.1101 13.967 51.1534C13.967 51.1966 13.9019 51.232 13.8224 51.232C13.7429 51.232 13.4441 51.3383 13.1586 51.4683C12.3699 51.8272 11.008 52.2155 10.5378 52.2155C10.3071 52.2155 10.0245 52.2657 9.90968 52.3272C9.64109 52.471 7.5852 52.4831 7.33382 52.3424C7.20026 52.2677 7.07713 52.2669 6.91702 52.3399C6.74441 52.4186 6.61272 52.4062 6.3698 52.2884C4.90744 51.5794 4.54267 51.3807 4.32335 51.1739C4.18517 51.0436 4.02378 50.937 3.96477 50.937C3.72243 50.937 3.13066 50.0923 2.91911 49.4445C2.83748 49.1944 3.02858 48.6173 3.29983 48.295C3.43299 48.1368 3.54196 47.9667 3.54196 47.9171Z" fill="#D2D2D2"/>
<path d="M70.7058 51.146C71.2149 50.8523 71.8123 50.5552 72.0335 50.4858C72.2547 50.4166 72.5021 50.3846 72.5832 50.4149C72.6643 50.4451 72.89 50.5014 73.0845 50.5399C73.7274 50.6673 74.1406 51.1158 74.178 51.7272C74.2271 52.5304 74.165 52.712 73.6796 53.1848C73.3796 53.4769 73.0417 53.6973 72.7699 53.778C72.532 53.8486 72.1851 53.9717 71.9991 54.0517C71.3732 54.3207 69.6385 54.4869 68.591 54.3782C68.0712 54.3243 67.6135 54.2602 67.5737 54.2356C67.5339 54.211 67.1512 54.1202 66.7231 54.0338C66.2949 53.9474 65.7455 53.8069 65.502 53.7216C64.5771 53.3973 63.804 53.0819 63.5386 52.9205C63.1422 52.6794 62.1254 51.7237 62.2654 51.7237C62.3303 51.7237 62.6993 51.8757 63.0853 52.0614C64.0461 52.5234 64.8728 52.6515 66.3771 52.571C68.1624 52.4756 68.7212 52.2916 70.7058 51.146Z" fill="#D2D2D2"/>
<path d="M12.8948 53.0331C13.4034 52.5362 13.9927 51.9498 14.2043 51.7299C14.416 51.5102 14.604 51.3304 14.6223 51.3304C14.7337 51.3304 14.5832 51.6066 14.0162 52.443C13.6646 52.9615 13.3769 53.4322 13.3769 53.489C13.3769 53.5459 13.3402 53.5924 13.2954 53.5924C13.2251 53.5924 12.945 54.1556 12.684 54.8218C12.466 55.378 12.4056 56.0877 12.3968 58.1994C12.3915 59.472 12.3483 60.5604 12.3007 60.6181C12.253 60.6756 12.2212 60.9514 12.2299 61.2309C12.2431 61.6498 12.2027 61.7856 12 62.0035C11.8648 62.149 11.6435 62.3113 11.5083 62.3644C11.1274 62.5138 10.2297 62.4743 10.0369 62.2998C9.94509 62.2167 9.83317 62.1488 9.78813 62.1488C9.74318 62.1488 9.58002 62.0073 9.42561 61.8343L9.14482 61.5198L9.19813 60.3344C9.22744 59.6826 9.29904 59.0164 9.35716 58.8541C9.41519 58.6918 9.49642 58.4705 9.53753 58.3623C9.57874 58.2541 9.66903 57.9886 9.73837 57.7722C9.903 57.2583 10.64 55.7163 10.7412 55.6741C10.7844 55.656 10.8198 55.587 10.8198 55.5205C10.8198 55.4541 10.8973 55.314 10.9919 55.209C11.0865 55.1042 11.3454 54.7749 11.5671 54.4775C11.7888 54.18 12.3862 53.53 12.8948 53.0331Z" fill="#D2D2D2"/>
<path d="M62.1582 52.7985C62.1582 52.6435 61.8478 52.2984 61.3714 51.9237C61.2361 51.8173 61.1754 51.7289 61.2364 51.727C61.2974 51.7252 61.3984 51.7854 61.461 51.8607C61.5234 51.936 61.7151 52.0558 61.8867 52.127C62.0584 52.1981 62.2672 52.3167 62.3506 52.3906C62.787 52.7769 63.1055 53.0021 63.2154 53.0022C63.2831 53.0022 63.3281 53.0354 63.3155 53.0761C63.293 53.1489 63.4966 53.425 63.8793 53.8402C63.9875 53.9577 64.1847 54.2044 64.3174 54.3885C64.4503 54.5727 64.5938 54.7677 64.6363 54.8218C65.1769 55.5092 65.502 55.9617 65.502 56.0265C65.502 56.0703 65.5906 56.1698 65.6987 56.2478C65.8069 56.3258 65.8954 56.4658 65.8954 56.5588C65.8954 56.6518 65.9397 56.7553 65.9938 56.7887C66.0479 56.8222 66.0921 56.9549 66.0921 57.0838C66.0921 57.2126 66.1364 57.3454 66.1905 57.3788C66.2446 57.4123 66.2888 57.526 66.2888 57.6316C66.2888 57.7371 66.3732 58.0111 66.4765 58.2405C66.7873 58.9311 66.9547 59.8636 66.9238 60.7321C66.8959 61.5171 66.4065 62.5949 65.9978 62.7714C65.8604 62.8308 65.5885 62.9771 65.3936 63.0963L65.0392 63.3132L64.385 63.0561C63.8066 62.8289 63.707 62.7499 63.5252 62.3743C63.2813 61.8705 63.3005 61.5474 63.6729 59.8867C64.1832 57.6112 63.9603 56.0391 62.8222 53.8874C62.5505 53.3736 62.2899 52.9384 62.2431 52.9204C62.1964 52.9023 62.1582 52.8475 62.1582 52.7985Z" fill="#D2D2D2"/>
<path d="M35.8743 67.164C36.0175 67.1627 36.848 65.6102 37.0737 64.9216C37.1893 64.569 37.2285 64.5265 37.3076 64.6679C37.3705 64.7802 37.3628 65.0073 37.2852 65.3374C37.2207 65.6121 37.1229 66.036 37.0681 66.2794C36.8307 67.3324 36.452 68.6275 36.2484 69.0824C35.6795 70.3535 35.4452 70.766 34.8984 71.4593C34.2919 72.2283 34.2276 72.2954 33.7352 72.6723C33.4918 72.8586 33.2572 73.0676 33.214 73.1367C33.1079 73.306 32.5953 73.5648 32.5183 73.4878C32.4844 73.4539 32.4567 73.4734 32.4567 73.5312C32.4567 73.7094 31.7532 74.0679 31.0306 74.258C30.3283 74.4427 29.5062 74.5021 29.5062 74.3681C29.5062 74.3272 29.3845 74.2397 29.2357 74.1738C28.8427 73.9994 28.7083 73.7166 28.6488 72.939C28.604 72.355 28.6184 72.2567 28.7416 72.304C28.8219 72.3347 28.9973 72.258 29.1316 72.1335C29.3662 71.916 29.6838 71.7537 31.0798 71.1375C31.4314 70.9824 31.9342 70.711 32.1972 70.5344C32.4602 70.3579 32.7346 70.2134 32.8069 70.2134C32.8792 70.2134 33.0623 70.0966 33.2138 69.9537C33.3653 69.8109 33.7727 69.4696 34.119 69.1954C34.7747 68.6761 35.8005 67.5155 35.8005 67.2929C35.8005 67.2223 35.8338 67.1643 35.8743 67.164Z" fill="#D2D2D2"/>
<path d="M37.9674 66.4761C37.918 66.2327 37.8749 65.8179 37.8718 65.5544C37.8667 65.1392 37.8856 65.0916 38.0134 65.1976C38.0945 65.265 38.1609 65.4037 38.1609 65.506C38.1609 65.6083 38.2013 65.7689 38.2507 65.8628C38.3001 65.9568 38.4578 66.2991 38.6011 66.6237C38.7444 66.9482 38.902 67.2802 38.9512 67.3613C39.0003 67.4424 39.117 67.6637 39.2103 67.853C39.3037 68.0424 39.4077 68.2194 39.4415 68.2464C39.4754 68.2735 39.5347 68.362 39.5734 68.4431C39.7692 68.8532 39.9492 69.0843 40.4382 69.5533C41.061 70.1507 42.2643 70.9873 42.5914 71.0503C42.7161 71.0743 42.8634 71.1393 42.9188 71.1947C42.974 71.2499 43.0978 71.2953 43.1935 71.2953C43.5351 71.2953 44.5532 71.8979 44.8238 72.2604C44.9727 72.4598 45.1278 72.6377 45.1683 72.6557C45.2088 72.6738 45.2421 72.7476 45.2421 72.8197C45.2421 72.8918 45.2847 72.9655 45.3368 72.9836C45.3889 73.0016 45.4583 73.2698 45.4912 73.5797C45.5708 74.3307 45.3875 74.6463 44.7361 74.8806C44.2442 75.0574 44.0418 75.0468 42.98 74.7884C42.8989 74.7687 42.7993 74.7492 42.7588 74.7451C42.7182 74.7408 42.685 74.6759 42.685 74.6007C42.685 74.5254 42.5191 74.3961 42.3162 74.3133C41.7532 74.0838 40.6053 73.0604 40.2657 72.4855C40.1666 72.3177 40.0508 72.1804 40.0083 72.1804C39.9659 72.1804 39.9312 72.1238 39.9312 72.0546C39.9312 71.9854 39.8427 71.865 39.7345 71.787C39.6263 71.709 39.5378 71.5744 39.5378 71.4876C39.5378 71.401 39.405 71.0561 39.2428 70.721C39.0805 70.386 38.9477 70.0462 38.9477 69.966C38.9477 69.8857 38.9035 69.82 38.8494 69.82C38.7953 69.82 38.751 69.7531 38.751 69.6711C38.751 69.5893 38.7122 69.4454 38.6648 69.3515C38.5151 69.0553 38.3626 68.5042 38.2074 67.6985C38.1247 67.2696 38.0167 66.7196 37.9674 66.4761Z" fill="#D2D2D2"/>
<path d="M55.4704 74.6261C55.4704 74.5431 55.5027 74.4429 55.5421 74.4035C55.5815 74.3641 55.6308 74.3827 55.6516 74.4449C55.6723 74.5071 55.64 74.6073 55.5798 74.6674C55.4995 74.7477 55.4704 74.7367 55.4704 74.6261Z" fill="#D2D2D2"/>
<path fill-rule="evenodd" clip-rule="evenodd" d="M50.012 2.49185C50.3907 2.399 51.2758 2.29643 51.979 2.26387C53.9137 2.17457 55.5718 2.3336 56.5816 2.70546C56.8088 2.78915 57.1527 2.89734 57.3457 2.94573C57.5387 2.99412 58.0132 3.19022 58.4002 3.38151C58.7872 3.5728 59.1512 3.72928 59.2091 3.72928C59.2669 3.72928 59.412 3.82222 59.5315 3.93571C59.6509 4.0493 59.8209 4.17096 59.9092 4.20617C60.3254 4.37199 62.5516 6.51669 62.5516 6.75175C62.5516 6.77397 62.6069 6.85039 62.6745 6.9217C62.9274 7.18813 63.1418 7.47117 63.1438 7.5414C63.145 7.58142 63.2325 7.72472 63.3384 7.85995C63.4442 7.99518 63.5317 8.16119 63.5329 8.22876C63.5341 8.29632 63.6236 8.44021 63.7318 8.54839C63.8399 8.65658 63.9285 8.8101 63.9285 8.88967C63.9285 8.96913 64.017 9.1918 64.1252 9.38436C64.2333 9.57693 64.3219 9.81287 64.3219 9.90856C64.3219 10.0044 64.3594 10.1247 64.4053 10.1761C64.5594 10.3488 64.7818 11.8574 64.8774 13.3778C64.9662 14.7894 64.4639 17.963 64.0192 18.7999C63.9693 18.8939 63.9285 19.0383 63.9285 19.1209C63.9285 19.2036 63.8878 19.348 63.8382 19.442C63.6907 19.7208 63.3384 20.5401 63.3384 20.6042C63.3384 20.6368 63.2498 20.7761 63.1417 20.9136C63.0335 21.0511 62.945 21.2402 62.945 21.3338C62.945 21.4274 62.8565 21.6165 62.7483 21.7541C62.6401 21.8915 62.5494 22.1077 62.5468 22.2345C62.542 22.4695 62.38 22.8086 61.9865 23.4073C61.8649 23.5921 61.7654 23.8125 61.7652 23.8969C61.765 23.9814 61.6763 24.1455 61.5681 24.2617C61.4599 24.3777 61.3714 24.5166 61.3714 24.5702C61.3714 24.6237 61.2607 24.787 61.1255 24.9329C60.9903 25.0788 60.8796 25.228 60.8796 25.2645C60.8796 25.301 60.6878 25.5312 60.4533 25.7759C59.8838 26.3702 59.7038 26.6398 59.7665 26.8035C59.8374 26.9881 59.9818 26.9751 60.4371 26.743C60.6493 26.6348 60.9204 26.5463 61.0397 26.5463C61.159 26.5463 61.2714 26.5046 61.2894 26.4538C61.3074 26.4028 61.4328 26.341 61.5681 26.3164C61.7033 26.2917 61.9246 26.2252 62.0598 26.1687C62.9609 25.7919 65.9468 25.7457 67.5182 26.0841C67.8969 26.1657 68.2288 26.2415 68.2558 26.2527C68.2829 26.2639 68.4019 26.2653 68.5202 26.2559C68.6386 26.2465 68.8378 26.3026 68.9628 26.3806C69.0879 26.4586 69.3425 26.5505 69.5288 26.5849C69.715 26.6192 70.1925 26.8016 70.5898 26.9903C70.9871 27.1788 71.369 27.3331 71.4385 27.3331C71.5952 27.3331 72.657 27.9023 72.7347 28.028C72.7659 28.0785 72.8497 28.1199 72.9208 28.1199C72.9919 28.1199 73.2437 28.2969 73.4804 28.5133C73.7172 28.7297 73.9423 28.9067 73.9806 28.9067C74.0567 28.9067 74.5403 29.3792 75.2449 30.1419C76.1027 31.0704 77.0844 32.6703 77.6097 33.9963C77.6579 34.118 77.7429 34.3171 77.7986 34.4389C78.3226 35.5841 78.6557 38.5591 78.3939 39.7553C78.3443 39.9821 78.2502 40.4332 78.185 40.7578C77.7314 43.0121 76.2099 45.6762 74.6953 46.8681C73.6033 47.7275 71.9443 48.6768 71.0096 48.9772C70.8744 49.0206 70.3217 49.2139 69.7812 49.4065C69.2409 49.5991 68.6323 49.7568 68.4289 49.7568C68.2255 49.7568 68.0591 49.7922 68.0591 49.8354C68.0591 50.0667 65.5038 50.4471 63.9866 50.4417C62.8085 50.4374 60.4025 50.1367 59.847 49.9242C59.6306 49.8414 59.2135 49.7489 58.9202 49.7187C58.6268 49.6884 58.3413 49.6182 58.2859 49.5627C58.1874 49.4643 57.8308 49.4189 57.8308 49.5048C57.8308 49.5285 57.9636 49.6933 58.1258 49.8709C58.2881 50.0487 58.4209 50.2505 58.4209 50.3196C58.4209 50.3887 58.4652 50.4452 58.5192 50.4452C58.5733 50.4452 58.6176 50.5047 58.6176 50.5775C58.6176 50.6503 58.7061 50.7899 58.8143 50.8878C58.9225 50.9856 59.011 51.105 59.011 51.153C59.011 51.201 59.0995 51.3352 59.2076 51.4513C59.3158 51.5674 59.4594 51.7868 59.5266 51.9389C59.594 52.0911 59.6825 52.2155 59.7234 52.2155C59.7643 52.2155 59.7978 52.304 59.7978 52.4122C59.7978 52.5204 59.8338 52.6089 59.8777 52.6089C59.9218 52.6089 60.0186 52.7638 60.0928 52.9531C60.1671 53.1424 60.2846 53.2973 60.354 53.2973C60.4257 53.2973 60.4557 53.361 60.4235 53.4449C60.3923 53.526 60.4158 53.5924 60.4757 53.5924C60.5356 53.5924 60.5846 53.6889 60.5846 53.8067C60.5846 54.0555 60.7357 54.5487 60.9932 55.1403C61.093 55.3697 61.1747 55.6437 61.1747 55.7492C61.1747 55.8548 61.2228 55.9709 61.2816 56.0073C61.3404 56.0435 61.3674 56.154 61.3417 56.2525C61.3159 56.3512 61.3502 56.5121 61.4179 56.6102C61.4857 56.7084 61.5699 56.9436 61.6053 57.133C61.6405 57.3223 61.687 57.5657 61.7085 57.6739C61.73 57.7821 61.7947 58.2468 61.8523 58.7065C62.1236 60.8714 62.1652 62.0532 62.0014 62.9407C61.87 63.6531 61.5634 64.6449 61.435 64.7733C61.4 64.8083 61.3714 65.0066 61.3714 65.214C61.3714 65.4213 61.3271 65.591 61.273 65.591C61.2189 65.591 61.1747 65.6696 61.1747 65.7656C61.1747 65.8617 61.0433 66.2046 60.8827 66.5278C60.7222 66.851 60.5894 67.1929 60.5876 67.2875C60.586 67.3821 60.5403 67.4596 60.4862 67.4596C60.4321 67.4596 60.3861 67.515 60.3838 67.5826C60.3817 67.6502 60.2489 67.8587 60.0888 68.046C59.9288 68.2333 59.7978 68.4193 59.7978 68.4594C59.7978 68.4994 59.5765 68.7534 59.306 69.0239C59.0356 69.2944 58.8143 69.5568 58.8143 69.6073C58.8143 69.6577 58.6989 69.7746 58.558 69.8669C58.4171 69.9593 58.1671 70.1636 58.0025 70.3208C57.838 70.4782 57.6434 70.6068 57.5704 70.6068C57.4972 70.6068 57.4374 70.6703 57.4374 70.7478C57.4374 70.8253 57.3492 70.9166 57.2413 70.9508C57.1334 70.9851 56.9896 71.0656 56.9217 71.1297C56.6481 71.3881 55.9858 71.7662 55.6947 71.8301C55.5247 71.8675 55.3329 71.9616 55.2685 72.0392C55.204 72.1169 55.0417 72.1804 54.9078 72.1804C54.7738 72.1804 54.5247 72.2453 54.3542 72.3246C53.9775 72.4997 51.5168 72.8605 50.7005 72.8602C49.9904 72.8598 48.1886 72.5911 48.0305 72.4619C47.9684 72.4112 47.8181 72.3506 47.6965 72.3271C47.2007 72.2317 46.7094 72.0327 45.5863 71.4727C44.153 70.7579 43.8171 70.5554 43.3778 70.141C43.1908 69.9647 42.9584 69.7952 42.8614 69.7645C42.7644 69.7336 42.685 69.6743 42.685 69.6326C42.685 69.5909 42.3752 69.2388 41.9966 68.8503C41.6179 68.4617 41.3081 68.1006 41.3081 68.0476C41.3081 67.9947 41.2655 67.9514 41.2134 67.9514C41.1614 67.9514 40.9323 67.6747 40.7044 67.3367C40.4767 66.9987 40.2647 66.6999 40.2336 66.6728C40.0494 66.5127 39.2861 64.9648 38.8393 63.8453C38.7908 63.7236 38.7095 63.5244 38.6589 63.4027C38.6081 63.2811 38.5368 63.0708 38.5004 62.9356C38.4639 62.8003 38.3771 62.5569 38.3074 62.3946C38.2376 62.2324 38.0774 61.7124 37.9513 61.239C37.8253 60.7657 37.6971 60.3785 37.6666 60.3785C37.636 60.3785 37.6 60.5423 37.5865 60.7426C37.573 60.9428 37.5253 61.153 37.4805 61.2097C37.4357 61.2664 37.2983 61.5997 37.1754 61.9503C37.0523 62.301 36.8697 62.7339 36.7695 62.9123C36.6694 63.0907 36.5873 63.3016 36.5873 63.3811C36.5873 63.4607 36.5539 63.5257 36.513 63.5257C36.4721 63.5257 36.377 63.6651 36.3015 63.8355C36.2261 64.0059 36.0935 64.2198 36.0071 64.3109C35.9205 64.4019 35.836 64.5357 35.8194 64.6082C35.7746 64.8036 35.0089 65.8835 34.6695 66.2301C34.5072 66.3958 34.2601 66.6628 34.1202 66.8234C33.8734 67.1071 32.5262 68.3518 31.9016 68.8733C31.7314 69.0154 31.542 69.1316 31.4804 69.1316C31.419 69.1316 31.3432 69.198 31.3121 69.2791C31.2809 69.3602 31.2201 69.4266 31.1769 69.4266C31.1338 69.4266 30.7754 69.6258 30.3806 69.8692C29.9857 70.1126 29.611 70.3118 29.5478 70.3118C29.4423 70.3118 28.9476 70.508 28.1636 70.8608C27.9932 70.9375 27.7592 71.0002 27.6438 71.0002C27.5284 71.0002 27.3359 71.0637 27.2161 71.1411C27.0963 71.2186 26.5441 71.3492 25.989 71.4312C25.4338 71.5131 24.9279 71.6122 24.8647 71.6513C24.7009 71.7525 22.3191 71.7063 22.189 71.5995C22.1295 71.5506 21.9259 71.51 21.7366 71.5092C20.8772 71.5058 19.3336 70.9654 18.2452 70.2869C17.5716 69.8669 16.1418 68.5343 15.6389 67.8577C15.5037 67.6757 15.3378 67.4707 15.2701 67.4019C15.2026 67.3332 15.1472 67.2296 15.1472 67.1716C15.1472 67.1136 15.1104 67.0662 15.0654 67.0662C15.0205 67.0662 14.9225 66.9446 14.8477 66.7958C14.7729 66.647 14.6404 66.4147 14.5533 66.2794C14.466 66.1442 14.3383 65.8787 14.2693 65.6894C14.1444 65.3466 14.0491 65.1023 13.876 64.6813C13.7618 64.4033 13.6998 64.1054 13.5124 62.9356C13.3248 61.7641 13.3849 59.1554 13.629 57.8706C13.8442 56.7383 14.368 55.1256 14.8269 54.1825C15.1375 53.544 16.0753 52.0421 16.4749 51.5431C17.3359 50.4677 17.865 49.841 18.1711 49.5337L18.5402 49.1631L17.8518 49.2212C17.1192 49.283 15.0746 49.2776 14.7393 49.2131C14.629 49.1918 14.1556 49.146 13.6874 49.1112C13.2191 49.0765 12.8026 49.0278 12.7618 49.003C12.7211 48.9782 12.3892 48.9205 12.0242 48.8748C11.6593 48.829 10.9403 48.6722 10.4264 48.5263C9.91254 48.3805 9.24868 48.2206 8.95117 48.1712C8.65367 48.1217 7.95293 47.8608 7.39401 47.5913C6.83509 47.3218 6.33419 47.1013 6.28099 47.1013C6.22778 47.1013 6.03925 46.9907 5.86192 46.8555C5.6846 46.7202 5.50403 46.6096 5.46066 46.6096C5.26504 46.6096 4.21005 45.6444 3.13843 44.485C2.2466 43.5202 0.894301 41.0757 0.505329 39.7251C0.101703 38.3237 -0.00117019 37.6586 1.00038e-05 36.4598C0.000796799 35.7729 0.0465252 34.9762 0.101601 34.6895C0.360948 33.3407 0.431168 33.0582 0.603378 32.6696C0.705071 32.4403 0.788179 32.2141 0.788179 32.1669C0.788179 32.1197 0.925083 31.7792 1.09238 31.4103C1.51528 30.4775 2.23952 29.4356 2.94173 28.7495L2.95207 28.7394C3.29611 28.4034 3.45938 28.2439 3.6332 28.0969C3.79018 27.9642 3.95577 27.8416 4.27091 27.6082L4.27958 27.6018C4.55004 27.4016 4.81558 27.2014 4.86968 27.1572C5.1186 26.9535 6.22405 26.249 6.65423 26.02C7.50298 25.568 9.31969 24.9052 10.1805 24.7333C10.3428 24.7009 10.5862 24.6485 10.7215 24.6168C11.0774 24.5335 11.5016 24.4743 11.9508 24.4452C12.1672 24.4312 12.4434 24.3864 12.5646 24.3457C12.6859 24.3049 12.8369 24.3036 12.9001 24.3427C13.0358 24.4266 14.3227 24.4176 14.4615 24.3318C14.5141 24.2992 14.6125 24.3082 14.68 24.3515C14.7477 24.3948 15.157 24.4366 15.5898 24.4444C16.0225 24.4522 16.5536 24.4857 16.7699 24.5189C16.9863 24.5521 17.4063 24.6057 17.7031 24.638C18 24.6704 18.3541 24.7533 18.4899 24.8223C18.6258 24.8912 18.8173 24.9184 18.9154 24.8828C19.0824 24.8224 19.0802 24.8056 18.88 24.625C18.7624 24.5188 18.4442 24.111 18.1729 23.7188C17.9017 23.3266 17.6409 23.0057 17.5936 23.0057C17.5463 23.0057 17.5076 22.9628 17.5076 22.9102C17.5076 22.7974 16.9015 21.8895 16.7945 21.842C16.754 21.8239 16.7208 21.7501 16.7208 21.678C16.7208 21.6059 16.6842 21.5322 16.6395 21.5141C16.5702 21.4862 15.9537 20.4024 15.6004 19.6872C15.5405 19.566 15.4582 19.4663 15.4176 19.466C15.3771 19.4656 15.3439 19.4002 15.3439 19.3206C15.3439 19.2411 15.2554 19.0185 15.1472 18.8259C15.039 18.6333 14.9505 18.4282 14.9505 18.37C14.9505 18.3119 14.8342 18.0366 14.6922 17.7583C14.3389 17.0661 14.1538 16.3674 13.9199 14.8428C13.7468 13.7148 13.734 12.808 13.8778 11.862C14.0144 10.9629 14.3499 9.83677 14.6669 9.21363C14.7147 9.11971 14.7538 8.97582 14.7538 8.89399C14.7538 8.81207 14.798 8.74509 14.8521 8.74509C14.9062 8.74509 14.9505 8.68294 14.9505 8.60691C14.9505 8.42674 15.3335 7.71154 15.5601 7.46822C15.6575 7.36368 15.7374 7.243 15.7375 7.20022C15.7377 7.15734 15.8703 6.96743 16.0323 6.77811C16.1943 6.58878 16.327 6.37861 16.3272 6.31095C16.3273 6.24338 16.3708 6.18801 16.4241 6.18801C16.4772 6.18801 16.6432 6.07737 16.7929 5.94224C17.6959 5.12653 17.9709 4.90426 18.1468 4.8479C18.255 4.81318 18.4984 4.66684 18.6878 4.52266C18.8771 4.37848 19.22 4.17854 19.45 4.07832C19.6799 3.9781 19.868 3.85861 19.868 3.81268C19.868 3.76685 19.9774 3.72928 20.1112 3.72928C20.245 3.72928 20.5437 3.64578 20.775 3.54369C21.3491 3.29044 22.0555 3.06719 22.8184 2.89813C23.17 2.82023 23.7063 2.69484 24.0101 2.6196C24.8622 2.40835 27.318 2.4705 28.0801 2.72247C28.4047 2.82987 29.0021 3.01624 29.4078 3.13682C29.8135 3.2574 30.3348 3.44003 30.5661 3.54271C30.7974 3.64529 31.0463 3.72928 31.1192 3.72928C31.2736 3.72928 32.1506 4.20283 32.3407 4.38881C32.4121 4.45873 32.6666 4.63084 32.9062 4.77119C33.1458 4.91163 33.3418 5.06516 33.3418 5.11236C33.3418 5.15957 33.4491 5.25497 33.5801 5.32431C33.8787 5.48226 35.0137 6.55053 35.0137 6.67366C35.0137 6.72382 35.092 6.78971 35.1877 6.8201C35.2835 6.85049 35.4494 7.0408 35.5565 7.2431C35.6637 7.44531 35.8864 7.74429 36.0513 7.90755C36.2164 8.07071 36.4996 8.42546 36.6808 8.69592C36.862 8.96638 37.0879 9.27618 37.1828 9.38436C37.554 9.80746 39.1444 12.9876 39.1444 13.3067C39.1444 13.3879 39.1887 13.4816 39.2428 13.515C39.2969 13.5485 39.3411 13.6617 39.3411 13.7667C39.3411 13.8717 39.3854 13.9576 39.4395 13.9576C39.4936 13.9576 39.5378 14.0461 39.5378 14.1543C39.5378 14.2625 39.5821 14.351 39.6362 14.351C39.6903 14.351 39.7345 14.284 39.7345 14.2021C39.7345 14.1203 39.7767 13.9764 39.8283 13.8825C39.88 13.7885 40.0173 13.3798 40.1334 12.9741C40.2496 12.5684 40.3805 12.148 40.4243 12.0398C40.4682 11.9316 40.6031 11.5776 40.7242 11.253C41.0621 10.3467 41.7809 8.89606 42.0433 8.59078C42.1727 8.44021 42.3757 8.12805 42.4944 7.89722C42.9066 7.09597 44.7939 5.12279 45.805 4.43621C46.133 4.21345 46.4693 3.96325 46.5523 3.88024C46.6353 3.79724 46.766 3.72928 46.8428 3.72928C46.9195 3.72928 47.0857 3.63958 47.2121 3.52992C47.3386 3.42026 47.5555 3.30352 47.6943 3.27048C47.8331 3.23743 47.9909 3.17783 48.045 3.138C48.1994 3.02441 49.2557 2.67743 50.012 2.49185ZM36.6365 18.4827C36.4742 18.5275 36.1644 18.5874 35.9481 18.6157C35.7317 18.6441 35.3998 18.6923 35.2104 18.7231C34.5264 18.8341 32.3969 19.4517 31.7952 19.7136C30.723 20.1803 30.293 20.3936 30.293 20.4589C30.293 20.4988 30.1597 20.5607 29.9969 20.5964C29.8341 20.6322 29.646 20.7153 29.579 20.7811C29.5119 20.847 29.2136 21.0453 28.9161 21.222C28.6186 21.3985 28.2203 21.6516 28.0309 21.7841C27.8416 21.9168 27.6046 22.0799 27.5043 22.1467C26.3224 22.9336 23.5324 25.9428 22.9618 27.046C22.8272 27.3065 22.8326 27.3189 23.1269 27.4214C23.2942 27.4798 23.4666 27.5056 23.5097 27.4789C23.553 27.4521 23.6033 27.4637 23.6215 27.5046C23.6904 27.6601 25.4876 28.2381 26.7524 28.5115C27.2122 28.6109 27.7211 28.7395 27.8834 28.7973C28.5399 29.0311 29.4823 29.2904 29.8996 29.352C30.143 29.3879 30.4402 29.4795 30.56 29.5554C30.6798 29.6313 30.8525 29.6935 30.9439 29.6935C31.3023 29.6935 32.3834 30.3081 32.8892 30.7996C33.8697 31.7522 34.1707 32.4874 33.7875 32.994C33.7081 33.0989 33.6417 33.2606 33.64 33.3533C33.6352 33.6099 32.8067 34.4132 32.5392 34.4207C32.4127 34.4241 32.0866 34.4477 31.8145 34.473C31.3803 34.5134 31.2602 34.4799 30.831 34.1985C30.5622 34.0221 30.3274 33.8436 30.3094 33.8018C30.2913 33.76 30.2118 33.7258 30.1327 33.7258C30.0535 33.7258 29.7312 33.4789 29.4165 33.1771C29.1017 32.8753 28.7102 32.547 28.5467 32.4475C28.383 32.3479 28.2202 32.2198 28.1849 32.1626C28.1495 32.1054 27.8806 31.8993 27.5871 31.7045C27.2937 31.5098 26.9526 31.2439 26.8292 31.1138C26.7059 30.9835 26.577 30.8763 26.543 30.8754C26.4459 30.8727 24.7854 29.2293 24.7854 29.1359C24.7854 29.0283 24.5156 28.8572 23.6052 28.3874C23.1995 28.1781 22.7911 27.9378 22.6976 27.8533C22.5425 27.7133 22.5214 27.7161 22.4589 27.8853C22.4211 27.9872 22.364 28.0929 22.3319 28.1199C22.2998 28.147 22.1252 28.4789 21.9438 28.8575C21.6325 29.5076 21.5165 29.7724 21.3401 30.2344C21.2989 30.3426 21.1774 30.6524 21.0701 30.9229C20.9629 31.1933 20.8174 31.658 20.747 31.9555C20.6765 32.253 20.5827 32.5386 20.5384 32.5899C20.4942 32.6413 20.458 32.8228 20.458 32.9932C20.458 33.1637 20.4182 33.4314 20.3694 33.5882C19.9083 35.0732 19.9431 39.2161 20.4386 41.7905C20.5691 42.4687 20.8859 43.4624 20.9716 43.4624C21.0137 43.4624 21.0481 43.5246 21.0481 43.6006C21.0481 43.6767 21.1429 43.9311 21.2588 44.1661C21.3747 44.4012 21.5026 44.6819 21.5431 44.7901C21.6435 45.0581 22.4008 46.6254 22.5128 46.7969C22.5857 46.9087 22.6968 46.8663 23.0927 46.5757C23.362 46.378 23.6094 46.2162 23.6422 46.2162C23.729 46.2162 24.7041 45.3654 25.6146 44.4951C25.7278 44.3869 26.1297 44.0464 26.5077 43.7384C26.8857 43.4303 27.6643 42.7001 28.238 42.1156C28.8115 41.5311 29.5236 40.9079 29.8203 40.7307C30.4701 40.3429 31.4963 40.0336 31.9665 40.084C32.6294 40.1551 33.2067 40.4064 33.3514 40.6869C33.4273 40.8341 33.5365 41.0049 33.5942 41.0664C33.7409 41.223 33.7657 42.0988 33.6369 42.5772C33.4931 43.1111 32.047 44.6114 31.5875 44.7033C31.4165 44.7375 31.2765 44.7982 31.2765 44.8381C31.2765 44.878 30.9999 44.9635 30.6618 45.028C30.3238 45.0925 29.8847 45.1878 29.6863 45.2398C29.4878 45.2917 28.8782 45.3768 28.3317 45.4288C27.7852 45.4809 27.0624 45.5942 26.7256 45.6806C25.7309 45.9357 23.9986 46.5357 23.9986 46.6252C23.9986 46.6707 23.9464 46.7079 23.8826 46.7079C23.6692 46.7079 22.8184 47.135 22.8188 47.2418C22.8191 47.2998 22.9962 47.5805 23.2122 47.8655C23.4284 48.1506 23.6052 48.4062 23.6052 48.4337C23.6052 48.461 23.7491 48.6425 23.9249 48.8369C24.0487 48.9739 24.2337 49.1784 24.3984 49.3605L24.5887 49.5708C24.778 49.78 24.9823 50.007 25.0426 50.0752C25.2681 50.3303 26.6192 51.592 26.9983 51.9013C28.5928 53.2026 29.5655 53.799 31.5223 54.6755C32.345 55.044 33.8652 55.5662 34.4728 55.689C34.6351 55.7218 35.0777 55.8169 35.4563 55.9003C35.835 55.9837 36.5049 56.0791 36.9451 56.1124L37.7455 56.173L37.7604 55.0745C37.7687 54.4703 37.7273 53.7016 37.6684 53.3662C37.6095 53.0308 37.5172 52.4909 37.4632 52.1663C37.3577 51.5316 37.3157 51.3011 36.9324 49.2557C36.4858 46.8725 36.4939 46.5051 37.0308 44.7409L37.0353 44.7261C37.1663 44.2958 37.228 44.093 37.3646 43.9849C37.4864 43.8886 37.6678 43.8676 38.0107 43.8279L38.0239 43.8264C39.0274 43.71 39.4334 43.8693 40.0323 44.6139C40.0849 44.6792 40.1279 44.8204 40.1279 44.9277C40.1279 45.035 40.1659 45.1462 40.2124 45.175C40.3335 45.2498 40.3525 46.7302 40.2381 47.1715C40.1849 47.3763 40.0906 47.8094 40.0286 48.134C39.9068 48.7711 39.8451 48.9953 39.54 49.9109C39.4306 50.239 39.3411 50.6021 39.3411 50.7176C39.3411 50.8332 39.3015 51.0294 39.253 51.1536C39.2045 51.2778 39.111 51.5787 39.0451 51.8221C38.9792 52.0655 38.8904 52.3532 38.8478 52.4614C38.6001 53.0902 38.1609 55.1018 38.1609 55.6076C38.1609 55.7911 38.1167 55.9685 38.0626 56.0019C37.851 56.1326 37.9846 56.2298 38.4314 56.2702C38.6883 56.2935 38.9513 56.2726 39.0156 56.2238C39.1287 56.1382 40.463 56.0219 41.0588 56.0458C41.2192 56.0522 41.4818 56.003 41.6424 55.9365C41.8637 55.8449 41.9437 55.8435 41.9729 55.9308C42.0007 56.0142 42.0718 56.0064 42.2306 55.9023C42.3512 55.8232 42.7352 55.7141 43.0838 55.6597C43.924 55.5287 44.0505 55.5007 44.4553 55.3556C44.6446 55.2878 45.0429 55.1461 45.3404 55.0408C45.6379 54.9355 46.0707 54.7657 46.302 54.6634C46.5333 54.5612 46.7823 54.4775 46.8554 54.4775C46.9285 54.4775 47.0398 54.4155 47.1027 54.3396C47.1656 54.2638 47.337 54.1719 47.4836 54.1353C47.6301 54.0987 47.8164 54.0122 47.8975 53.9432C48.0418 53.8204 48.635 53.5041 49.4219 53.1303C49.6383 53.0276 49.8153 52.8919 49.8153 52.829C49.8153 52.6848 50.9907 51.8221 51.1871 51.8221C51.3488 51.8221 53.2084 50.0134 53.2084 49.8561C53.2084 49.8015 53.2638 49.7543 53.3313 49.7512C53.4376 49.7463 54.1459 48.8783 54.4377 48.3952C54.4918 48.3056 54.5604 48.2102 54.59 48.1832C54.8056 47.9866 55.0984 47.4526 55.0073 47.4223C54.9475 47.4024 54.7991 47.2999 54.6776 47.1945C54.5562 47.0891 54.4225 47.003 54.3805 47.003C54.3386 47.003 54.2426 46.9413 54.1673 46.8661C53.9591 46.6578 53.1499 46.2771 52.2741 45.9752C51.8413 45.8261 51.3988 45.667 51.2906 45.6217C51.1824 45.5763 50.9392 45.5086 50.75 45.4712C50.5609 45.4337 50.2732 45.3487 50.1108 45.2823C49.9483 45.2157 49.417 45.0367 48.9302 44.8844C48.0272 44.602 46.4916 43.8929 46.1148 43.5844C45.4936 43.0756 45.3291 42.8785 45.1932 42.4789C45.0674 42.1094 44.9291 41.8882 44.8532 41.9352C44.8014 41.9673 44.7839 42.0585 44.8144 42.1378C44.8447 42.2172 44.8208 42.2822 44.7609 42.2822C44.6375 42.2822 44.614 42.0579 44.7257 41.9462C44.7663 41.9056 44.806 41.6881 44.8141 41.4627C44.822 41.2372 44.833 40.9583 44.8386 40.8429C44.8442 40.7274 45.0363 40.4507 45.2657 40.2282C45.5777 39.9253 45.7618 39.8235 45.9975 39.8235C46.1706 39.8235 46.3376 39.7826 46.3685 39.7326C46.4559 39.5912 47.3213 39.673 47.6713 39.8558C47.8445 39.9462 48.0714 40.0202 48.1756 40.0202C48.2799 40.0202 48.4202 40.0866 48.4876 40.1677C48.555 40.2488 48.7099 40.3152 48.832 40.3152C49.1338 40.3152 50.712 41.8572 51.0426 42.4751C51.1065 42.5943 51.3321 42.8759 51.5442 43.1011C51.7563 43.3263 51.9298 43.5512 51.9298 43.601C51.9298 43.6506 52.2508 44.0102 52.6429 44.3999C53.035 44.7895 53.7763 45.5554 54.2902 46.1017C54.8041 46.6481 55.2545 47.0965 55.2911 47.0982C55.3277 47.1 55.4192 46.9797 55.4943 46.8309C55.5695 46.6821 55.6795 46.4719 55.7388 46.3637C55.8504 46.1602 56.2247 45.3424 56.4814 44.7409C56.7553 44.0989 57.0333 43.3166 57.1453 42.8723C57.2067 42.6289 57.3182 42.2187 57.3932 41.9607C58.0327 39.7622 58.1195 35.7604 57.5748 33.5877C57.4379 33.0416 57.2938 32.3956 57.2546 32.1522C57.2154 31.9088 57.1133 31.5769 57.0279 31.4146C56.9423 31.2523 56.8168 30.9425 56.749 30.7262C56.6811 30.5098 56.5426 30.1585 56.4413 29.9455C56.3401 29.7324 56.2572 29.5038 56.2572 29.4374C56.2572 29.3709 56.2239 29.3018 56.1831 29.2837C56.1422 29.2657 55.9563 28.9411 55.7697 28.5625C55.0722 27.1465 53.5391 25.1242 53.2479 25.2359C53.1668 25.267 53.11 25.2271 53.11 25.1389C53.11 25.0565 53.0681 24.9744 53.0169 24.9563C52.9657 24.9383 52.5121 24.5243 52.0088 24.0362C51.5056 23.548 50.8947 22.9952 50.6513 22.8078C50.4079 22.6202 50.1031 22.3711 49.9741 22.254C49.845 22.1369 49.6237 21.982 49.4823 21.9096C49.3409 21.8374 49.0039 21.6257 48.7335 21.4393C48.1632 21.0463 46.1075 20.0034 45.7067 19.9038C45.5565 19.8665 45.3889 19.7525 45.3343 19.6506C45.2798 19.5486 45.1349 19.4652 45.0124 19.4652C44.8899 19.4652 44.7476 19.4238 44.6962 19.3732C44.6185 19.2967 43.9644 19.0911 42.9309 18.8185C42.8227 18.79 42.457 18.7248 42.1183 18.6736C41.7796 18.6224 41.3149 18.5372 41.0856 18.4843C40.5843 18.3686 37.0537 18.3673 36.6365 18.4827ZM38.6654 21.3292C38.779 21.2545 39.0875 19.7498 39.1332 19.0472C39.1394 18.9526 39.1676 18.8751 39.1961 18.8751C39.3441 18.8751 39.4588 19.5357 39.4815 20.5182C39.4953 21.1244 39.5524 21.6776 39.6082 21.7476C39.664 21.8175 39.736 22.096 39.7682 22.3665C39.9593 23.9722 40.0386 24.4295 40.2798 25.317C40.5992 26.4927 40.6723 28.3421 40.4293 29.1034C40.1508 29.9757 39.803 30.3298 38.955 30.6043L38.4199 30.7776L38.0199 30.5156C37.0526 29.8818 36.7 29.2289 36.6887 28.0502C36.6738 26.4858 36.7385 26.243 37.7447 24.0876C38.1228 23.2777 38.2375 22.9578 38.3623 22.3665C38.5305 21.5696 38.5854 21.3818 38.6654 21.3292ZM54.4671 28.4878C54.5474 28.4208 54.7727 28.3151 54.9679 28.2532C55.1632 28.1912 55.3561 28.1359 55.3967 28.1302C55.5094 28.1145 55.4845 28.2632 55.3524 28.3953C55.2875 28.4602 55.2759 28.5133 55.3265 28.5133C55.4331 28.5133 54.3773 29.2921 54.2643 29.297C54.0925 29.3041 52.33 30.8243 50.7256 32.3489C50.2988 32.7546 49.8882 33.1004 49.8133 33.1174C49.7383 33.1344 49.6508 33.2311 49.6187 33.3322C49.5706 33.4835 49.0213 33.9048 48.4125 34.2572C48.1437 34.4128 46.8667 34.717 46.4834 34.7167C45.8249 34.7162 45.5363 34.6012 45.1012 34.1661C44.9672 34.0321 44.8224 33.9211 44.7794 33.9195C44.7364 33.9177 44.6256 33.8123 44.5332 33.6852C44.3563 33.4417 44.4029 33.1402 44.7105 32.5378C44.889 32.1881 45.8347 31.1687 45.9805 31.1687C46.046 31.1687 46.3602 31.0365 46.6789 30.8749C46.9975 30.7133 47.4131 30.5528 47.6025 30.5182C47.7918 30.4836 48.0131 30.3994 48.0942 30.3309C48.1753 30.2624 48.4851 30.1731 48.7827 30.1322C49.0802 30.0914 49.4121 30.0461 49.5203 30.0314C49.6285 30.0167 49.9161 29.9365 50.1595 29.8531C51.2866 29.4671 53.0987 28.9205 53.4543 28.8593C53.6706 28.8221 53.9253 28.722 54.0204 28.6367C54.1154 28.5515 54.222 28.5106 54.2572 28.5459C54.2925 28.5811 54.3869 28.555 54.4671 28.4878ZM38.4351 32.1508C38.5818 32.1499 38.7682 32.1035 38.8494 32.0475C38.9382 31.9862 39.4715 31.9591 40.1905 31.9793C41.3019 32.0106 41.4124 32.0317 41.7963 32.2857C42.023 32.4358 42.3444 32.6884 42.5105 32.8472C42.6766 33.0059 42.8723 33.1357 42.9454 33.1357C43.0186 33.1357 43.0784 33.1924 43.0784 33.2615C43.0784 33.3308 43.1669 33.4511 43.2751 33.5291C43.3833 33.6071 43.4718 33.7275 43.4718 33.7967C43.4718 33.8659 43.5052 33.9225 43.5461 33.9225C43.7068 33.9225 43.996 34.8249 44.1733 35.8798C44.2989 36.6262 44.2978 36.6355 43.9022 38.3482C43.8155 38.7233 43.6292 39.135 43.5461 39.135C43.5052 39.135 43.4718 39.1989 43.4718 39.277C43.4718 39.355 43.3836 39.4807 43.2758 39.5562C43.168 39.6317 43.0529 39.828 43.0201 39.9923C42.9659 40.2631 42.8453 40.4214 42.3151 40.918C41.8872 41.3189 40.9034 41.8534 40.2754 42.0263C39.5459 42.2271 38.6306 42.2788 38.3067 42.1373C38.1995 42.0905 37.9347 41.997 37.7184 41.9294C35.963 41.3814 35.5766 41.0103 34.656 38.9875C34.3707 38.3608 34.355 36.9646 34.6207 35.8575C34.746 35.3353 34.9366 34.8233 35.0731 34.6421C35.2027 34.4699 35.3088 34.2902 35.3088 34.2428C35.3088 34.1635 36.2199 33.2718 36.8048 32.7788C37.1076 32.5236 38.07 32.1528 38.4351 32.1508ZM29.7697 12.7705C30.0304 12.7667 30.3217 12.7328 30.417 12.6951C30.6165 12.6161 30.9212 12.6204 32.3829 12.7224C32.9643 12.7632 33.4402 12.8317 33.4402 12.8749C33.4402 12.9182 33.8275 13.142 34.3007 13.3724C35.2226 13.8213 37.0789 14.9883 37.2042 15.1978C37.246 15.2676 37.3348 15.3823 37.4015 15.4526C37.8233 15.8966 38.0626 16.266 38.0626 16.4731C38.0626 16.7037 38.0392 16.7114 37.3377 16.7114C36.2055 16.7114 33.07 17.3082 31.9649 17.734C31.7756 17.807 31.3552 17.9672 31.0306 18.09C29.8312 18.5441 27.6722 19.6807 27.0365 20.1927C26.8953 20.3064 26.681 20.4659 26.5602 20.547C26.3203 20.7082 26.0678 20.9008 25.6351 21.2526C25.1529 21.6447 23.6052 23.2115 23.6052 23.3077C23.6052 23.358 23.5696 23.3991 23.5262 23.3991C23.4827 23.3991 23.2504 23.6629 23.0098 23.9853C22.7694 24.3077 22.5332 24.5732 22.4852 24.5754C22.4357 24.5777 22.4289 24.2498 22.4694 23.8171C22.6154 22.261 22.721 21.2777 22.7674 21.0388C22.8823 20.4481 23.0703 19.7706 23.1382 19.7028C23.1787 19.6623 23.2118 19.5426 23.2118 19.4368C23.2118 19.1407 24.1578 17.2914 24.4899 16.938C24.6525 16.7652 24.7854 16.5997 24.7854 16.5704C24.7854 16.4285 26.1986 14.9825 26.9501 14.3554C27.3167 14.0495 27.5856 13.8226 28.032 13.4427C28.1138 13.3731 28.3741 13.2523 28.6105 13.1743C28.847 13.0963 29.0978 12.975 29.168 12.9049C29.2381 12.8348 29.5088 12.7743 29.7697 12.7705ZM26.9983 8.41228C24.7716 8.97779 23.4117 9.63958 22.3348 10.6819C22.1501 10.8608 21.962 11.0071 21.9169 11.0071C21.8718 11.0071 21.8349 11.0735 21.8349 11.1547C21.8349 11.2358 21.7985 11.3022 21.7541 11.3022C21.7095 11.3022 21.4775 11.6341 21.2383 12.0398C20.9992 12.4455 20.77 12.7774 20.7291 12.7774C20.6882 12.7774 20.6547 12.8424 20.6547 12.922C20.6547 13.0015 20.5738 13.2116 20.4749 13.3891C20.3759 13.5666 20.2623 13.8224 20.2224 13.9576C19.9979 14.7175 19.941 14.9371 19.853 15.3837C19.6863 16.2294 19.6466 17.6895 19.7634 18.6703C19.8888 19.7227 20.0595 20.5486 20.181 20.6896C20.2252 20.7411 20.2613 20.9043 20.2613 21.0526C20.2613 21.2009 20.3056 21.3495 20.3597 21.383C20.4138 21.4164 20.458 21.5517 20.458 21.6838C20.458 21.8159 20.4966 21.9239 20.5436 21.9239C20.5907 21.9239 20.6878 22.1341 20.7595 22.3911C20.8312 22.648 20.9433 22.9619 21.0087 23.0885C21.1154 23.2952 21.1323 23.3002 21.1747 23.1376C21.2006 23.0381 21.2288 22.5179 21.2373 21.9818C21.2458 21.4457 21.2785 20.9656 21.3099 20.9147C21.3412 20.864 21.4011 20.5724 21.4428 20.2667C21.5943 19.1586 22.1 17.6262 22.3513 17.5146C22.3918 17.4965 22.425 17.42 22.425 17.3445C22.425 17.2689 22.6019 16.9739 22.818 16.6888C23.0341 16.4038 23.2111 16.1313 23.2114 16.0835C23.2123 15.8976 24.6025 14.1803 25.0915 13.7609C25.3753 13.5175 25.7145 13.2125 25.8452 13.0831C26.1251 12.806 27.4593 12.1425 27.941 12.0408C28.1257 12.0018 28.4096 11.9118 28.5719 11.8409C29.1034 11.6085 30.7752 11.3022 31.5114 11.3022C32.2201 11.3022 34.0867 11.6153 34.4728 11.7989C34.7974 11.9533 35.6325 12.1812 35.7063 12.1356C35.882 12.027 33.8149 10.1385 33.2287 9.87208C33.0475 9.78976 32.7665 9.6386 32.6042 9.53622C32.4419 9.43383 32.0879 9.27451 31.8174 9.18216C31.5469 9.08971 31.2814 8.98182 31.2273 8.94228C31.1732 8.90285 30.8191 8.77116 30.4405 8.64979C29.9092 8.47945 29.4601 8.42143 28.4735 8.39566C27.7703 8.37737 27.1065 8.38484 26.9983 8.41228ZM18.9347 6.02652C19.8577 5.30228 22.0386 4.42225 23.6544 4.12208C24.7152 3.92499 27.1249 4.05275 28.4568 4.37671C29.7985 4.70313 31.5284 5.46967 32.0831 5.98374C32.3381 6.21997 32.4923 6.33976 32.6711 6.44047C33.0361 6.64622 35.0532 8.63179 35.3619 9.08932C35.5444 9.35978 35.7958 9.69171 35.9206 9.82694C36.51 10.4659 37.3741 11.9093 37.3741 12.2549C37.3741 12.3259 37.4133 12.384 37.461 12.384C37.5088 12.384 37.5717 12.4753 37.6009 12.5869C37.65 12.7747 37.6381 12.7723 37.4403 12.5552C37.3228 12.4263 37.0057 12.0363 36.7358 11.6886C36.4658 11.3408 35.7781 10.5916 35.2076 10.0236C34.1167 8.93756 33.3575 8.42192 32.1108 7.92024C31.733 7.76829 31.2864 7.58555 31.1183 7.51435C30.9502 7.44305 30.3306 7.30841 29.7414 7.21517C28.7974 7.06568 28.5126 7.05997 27.3425 7.16678C26.6123 7.23346 25.8378 7.35266 25.6214 7.43183C25.405 7.51091 24.9846 7.66177 24.6871 7.76701C24.1351 7.96233 23.7319 8.14497 23.5561 8.27931C23.354 8.43362 21.9724 9.36155 21.7126 9.51743C21.5642 9.60653 21.4425 9.73616 21.4421 9.8054C21.4418 9.87473 21.3659 9.96049 21.2735 9.996C21.0605 10.0776 20.6619 10.5254 20.6579 10.6875C20.6561 10.7552 20.6169 10.8104 20.5706 10.8104C20.4504 10.8104 19.7633 11.7585 19.4837 12.3103C19.3535 12.5672 19.2096 12.7774 19.1641 12.7774C19.1184 12.7774 19.0812 12.8633 19.0812 12.9683C19.0812 13.0733 19.043 13.1828 18.9963 13.2116C18.9497 13.2405 18.8541 13.4755 18.7839 13.7338C18.7138 13.9921 18.5811 14.3805 18.4891 14.5969C18.3097 15.0186 18.0977 16.0174 18.0977 16.441C18.0977 16.5833 18.0572 16.7248 18.0079 16.7553C17.9252 16.8064 17.9417 17.9157 18.0433 19.1346C18.1098 19.9323 18.3056 20.8545 18.5047 21.3081C18.6054 21.5375 18.6878 21.793 18.6878 21.8761C18.6878 21.9592 18.7763 22.279 18.8845 22.5868C18.9926 22.8946 19.0812 23.166 19.0812 23.1897C19.0812 23.332 18.6794 22.8303 18.4807 22.4399C18.3512 22.1854 18.1678 21.8987 18.0731 21.803C17.9784 21.7072 17.901 21.5815 17.901 21.5236C17.901 21.4658 17.7793 21.2327 17.6305 21.0057C17.1808 20.3193 17.1171 20.2127 17.0045 19.9569C16.945 19.8217 16.8568 19.6342 16.8085 19.5403C16.7603 19.4464 16.7208 19.3062 16.7208 19.2288C16.7208 19.1514 16.6875 19.0734 16.647 19.0553C16.6065 19.0374 16.4688 18.8013 16.3412 18.5309C16.2136 18.2604 16.0697 17.9623 16.0216 17.8684C15.9734 17.7744 15.934 17.589 15.934 17.4562C15.934 17.3234 15.8897 17.1874 15.8356 17.154C15.7815 17.1205 15.7373 16.9601 15.7373 16.7974C15.7373 16.6349 15.6916 16.4165 15.6359 16.3124C15.3355 15.751 15.3492 11.4321 15.652 11.2449C15.6989 11.2159 15.7373 11.0614 15.7373 10.9016C15.7373 10.7418 15.7775 10.5342 15.8268 10.4402C15.9646 10.1774 16.3274 9.2216 16.3274 9.12157C16.3274 8.98467 17.4564 7.3564 17.7819 7.02398C18.0951 6.70405 18.3272 6.50322 18.9347 6.02652ZM51.979 3.63545C51.7086 3.67755 51.2327 3.7159 50.9218 3.72062C50.6108 3.72544 50.3562 3.76517 50.3562 3.80904C50.3562 3.8529 50.1239 3.94545 49.8399 4.01469C49.2725 4.15296 47.7379 4.76912 47.5041 4.95245C47.423 5.01608 47.2319 5.12141 47.0793 5.18652C46.9269 5.25153 46.625 5.47035 46.4085 5.67266C45.4412 6.57649 44.1884 7.84549 43.9635 8.14919C43.8283 8.33183 43.6624 8.53738 43.5947 8.60613C43.5272 8.67487 43.4718 8.76053 43.4718 8.79663C43.4718 8.83272 43.3828 8.98733 43.2739 9.14016C43.1651 9.293 42.9515 9.65384 42.7994 9.9421C42.4461 10.6115 42.2557 10.9452 42.1916 11.0071C42.1637 11.0342 42.0847 11.273 42.0161 11.5377C41.9475 11.8025 41.804 12.1417 41.6973 12.2916C41.4589 12.6264 41.3336 13.1708 41.495 13.1708C41.5571 13.1708 41.6471 13.0713 41.6949 12.9495C41.7428 12.8278 41.8634 12.6582 41.963 12.5726C42.0625 12.487 42.3119 12.2325 42.5168 12.007C42.7219 11.7816 42.9338 11.5972 42.9879 11.5972C43.042 11.5972 43.2546 11.4202 43.4605 11.2038C43.6663 10.9875 43.8632 10.8104 43.898 10.8104C43.9765 10.8104 44.3328 10.524 44.5404 10.2941C44.6258 10.1995 44.7581 10.122 44.8344 10.122C44.9107 10.122 45.0447 10.0405 45.1322 9.94073C45.2733 9.77993 45.6996 9.5011 45.8322 9.48291C45.8592 9.47917 46.0696 9.35535 46.2996 9.20753C46.5297 9.05981 46.928 8.84659 47.1848 8.73378C47.4416 8.62088 47.8729 8.42487 48.1434 8.298C48.4138 8.17113 48.79 8.04013 48.9794 8.00669C50.7509 7.69433 51.2384 7.64801 52.2741 7.69364C52.8691 7.7199 53.5108 7.76976 53.7001 7.80468C53.8894 7.83949 54.2878 7.91394 54.5853 7.9701C55.1427 8.07533 56.3218 8.59462 56.9688 9.01968C57.8295 9.58529 59.6469 11.3781 59.9443 11.9551C60.052 12.1639 60.1671 12.357 60.2001 12.384C60.4638 12.6002 60.8579 13.901 61.0789 15.2848C61.1995 16.0394 61.2393 20.0678 61.1281 20.2478C61.0899 20.3096 61.0216 20.7231 60.9762 21.1666C60.8751 22.1558 60.8007 22.5197 60.6661 22.6818C60.6092 22.7504 60.5877 22.8721 60.6184 22.9521C60.6492 23.0323 60.6313 23.1244 60.5787 23.1569C60.5261 23.1895 60.5066 23.2542 60.5354 23.3008C60.5642 23.3474 60.5428 23.4133 60.4878 23.4473C60.4328 23.4813 60.3879 23.5746 60.3879 23.6547C60.3879 23.7718 60.4221 23.7659 60.563 23.6243C60.7351 23.4514 60.7884 23.3511 61.127 22.5632C61.2199 22.3468 61.4169 21.9042 61.5645 21.5797C61.7123 21.2551 61.9096 20.7683 62.0033 20.4978C62.0969 20.2274 62.2094 19.9176 62.2535 19.8094C62.2974 19.7012 62.4014 19.3914 62.4844 19.1209C62.5675 18.8505 62.7439 18.3194 62.8767 17.9408C63.0094 17.5621 63.1705 16.9868 63.2347 16.6622C63.2989 16.3377 63.3862 15.9366 63.4285 15.7709C63.5356 15.3515 63.5891 14.1158 63.5581 12.7774C63.5334 11.7112 63.3716 10.8809 63.0213 10.0236C62.6842 9.19878 61.8406 7.75924 61.6475 7.67968C61.6039 7.66158 61.5681 7.60985 61.5681 7.56461C61.5681 7.42947 59.9051 5.81615 59.5212 5.57893C59.3257 5.45806 59.0936 5.29126 59.0054 5.20806C58.6156 4.84062 57.3993 4.2881 56.512 4.07547C56.1924 3.99885 55.9047 3.89844 55.8728 3.85231C55.7978 3.74413 53.8178 3.52864 53.0563 3.54576C52.7342 3.55294 52.2495 3.59336 51.979 3.63545ZM47.5709 10.1748C48.3981 9.77245 49.0617 9.55392 50.1104 9.33843C50.541 9.24992 52.8594 9.29024 53.0193 9.38899C53.0739 9.42282 53.4375 9.5314 53.8274 9.63024C54.6489 9.83864 55.1248 10.0132 55.4704 10.2329C55.6056 10.3189 55.9486 10.5357 56.2326 10.7147C56.5167 10.8937 56.749 11.0771 56.749 11.122C56.749 11.167 56.8153 11.2038 56.8965 11.2038C56.9776 11.2038 57.0443 11.237 57.0447 11.2776C57.0451 11.3182 57.22 11.5284 57.4333 11.7447C57.6466 11.9611 57.8233 12.1652 57.826 12.1982C57.8286 12.2313 58.0322 12.4746 58.2783 12.7389C58.7445 13.2395 58.805 13.3365 59.4048 14.5477C60.1337 16.0193 60.3715 18.2462 60.0347 20.4487C59.9644 20.9084 59.9044 21.3178 59.9015 21.3584C59.8986 21.3989 59.8409 21.421 59.7732 21.4076C59.7056 21.394 59.6192 21.2281 59.5812 21.0388C59.4962 20.615 59.339 19.9012 59.2504 19.5375C59.214 19.388 59.1452 19.2415 59.0976 19.212C59.0499 19.1826 59.011 19.0755 59.011 18.9741C59.011 18.7596 58.5417 17.6164 58.3647 17.3998C58.2984 17.3187 58.1554 17.0924 58.0468 16.897C57.9381 16.7016 57.7898 16.4372 57.7171 16.3095C57.5042 15.9356 56.6552 15.0664 56.0653 14.6184C55.7652 14.3904 55.4975 14.1801 55.4704 14.151C55.4434 14.1218 55.2 13.9561 54.9295 13.783C54.659 13.6098 54.3539 13.4033 54.2514 13.3241C54.1489 13.245 53.9418 13.1531 53.791 13.12C53.6403 13.0869 53.4643 12.9962 53.3999 12.9186C53.3354 12.8409 53.2027 12.7774 53.105 12.7774C53.0074 12.7774 52.8689 12.7221 52.7974 12.6545C52.726 12.5869 52.6232 12.5301 52.5691 12.5282C52.4278 12.5235 51.701 12.3935 50.848 12.2204C49.9674 12.0417 47.9838 11.9651 47.1599 12.0781C46.8353 12.1225 46.2157 12.2603 45.783 12.3841C45.3503 12.5079 44.8046 12.6612 44.5706 12.7245C44.3365 12.7879 44.1117 12.8937 44.0709 12.9595C43.9992 13.0755 43.6655 13.0173 43.6714 12.8898C43.673 12.855 43.7948 12.7268 43.9419 12.6047C44.089 12.4827 44.3643 12.2476 44.5536 12.0823C44.743 11.9171 45.0568 11.6778 45.2509 11.5507C45.4452 11.4235 45.6665 11.2585 45.7427 11.1839C45.9183 11.0119 46.4295 10.7298 47.5709 10.1748ZM47.7992 13.7727C46.5205 13.9446 45.4674 14.185 44.5045 14.5249C43.9635 14.7158 43.4988 14.8986 43.4718 14.9312C43.4447 14.9636 43.1349 15.1419 42.7833 15.3272C42.4317 15.5125 42.1219 15.691 42.0949 15.7239C42.0679 15.7567 41.8134 15.9518 41.5294 16.1575C41.2454 16.3631 41.0131 16.5637 41.0131 16.603C41.0131 16.6424 41.4224 16.7212 41.9228 16.7782C43.0287 16.9039 44.3991 17.1789 44.7995 17.3555C44.9618 17.4271 45.2455 17.5157 45.4301 17.5524C46.0164 17.669 47.3065 18.1948 48.1434 18.6581C48.4138 18.8078 48.8995 19.0767 49.2227 19.2557C50.3198 19.8633 50.6513 20.0738 50.6513 20.163C50.6513 20.2119 50.7145 20.252 50.7918 20.252C50.869 20.252 50.9908 20.3096 51.0623 20.3799C51.1337 20.4503 51.4578 20.7228 51.7823 20.9854C52.929 21.9129 53.5561 22.5309 54.2241 23.3913C55.2192 24.6733 55.9939 25.7176 56.236 26.1037C56.3716 26.3201 56.5425 26.5326 56.6158 26.5758C56.689 26.6191 56.749 26.7358 56.749 26.8354C56.749 26.9349 56.8337 27.1208 56.9373 27.2484L57.1257 27.4806L57.4804 26.6938C57.6754 26.2611 57.8783 25.8302 57.9312 25.7363C57.9842 25.6424 58.0275 25.4543 58.0275 25.3183C58.0275 25.1823 58.0636 25.0711 58.1079 25.0711C58.1885 25.0711 58.3156 24.4811 58.5336 23.0938C58.6447 22.3865 58.6125 21.8967 58.382 20.7929C58.2453 20.138 58.0228 19.5143 57.7244 18.9502C57.6747 18.8563 57.6341 18.7193 57.6341 18.6458C57.6341 18.5723 57.5456 18.432 57.4374 18.3342C57.3292 18.2363 57.2407 18.1184 57.2407 18.0721C57.2407 18.026 57.119 17.8467 56.9702 17.6738C56.3892 16.9984 55.8116 16.3658 55.7501 16.3375C55.7146 16.3211 55.555 16.183 55.3954 16.0304C55.0119 15.664 53.8063 14.8809 53.2817 14.6577C52.062 14.1385 49.9498 13.654 48.9967 13.6747C48.6896 13.6813 48.1508 13.7255 47.7992 13.7727ZM19.1303 27.4139C19.4008 27.3609 19.7991 27.2825 20.0155 27.2399C20.3602 27.1719 20.7294 27.1946 20.8376 27.2905C20.8571 27.3077 20.7796 27.4529 20.6655 27.6131C20.5514 27.7733 20.458 27.975 20.458 28.0613C20.458 28.1476 20.4138 28.2183 20.3597 28.2183C20.3056 28.2183 20.2613 28.263 20.2613 28.3177C20.2613 28.3724 20.1763 28.6047 20.0722 28.834C19.4237 30.2633 18.8491 32.1797 18.5907 33.775C18.5293 34.1536 18.4376 34.6771 18.3867 34.9381C18.2684 35.5463 18.2661 39.213 18.3839 39.7553C18.433 39.9821 18.5257 40.4775 18.5898 40.8561C18.6929 41.4655 19.1345 42.9693 19.3694 43.5116C19.4163 43.6198 19.5079 43.8632 19.5729 44.0525C19.7895 44.6832 20.1007 45.4169 20.4662 46.1583C20.5705 46.3699 20.6362 46.5627 20.6121 46.5867C20.5558 46.6429 18.767 46.0298 18.6435 45.912C18.5921 45.8629 18.4686 45.8228 18.3691 45.8228C18.2695 45.8228 18.0682 45.7412 17.9216 45.6414C17.775 45.5417 17.4559 45.3316 17.2125 45.1746C16.9691 45.0175 16.7478 44.8667 16.7208 44.8394C16.6937 44.8121 16.5584 44.7317 16.4201 44.6606C16.2818 44.5895 16.0069 44.3904 15.809 44.2181C15.6112 44.0459 15.2872 43.7722 15.0892 43.6099C14.3198 42.9798 13.7579 42.3147 13.3778 41.5839C12.9294 40.7221 12.1967 38.5976 12.1967 38.1593C12.1967 37.9998 12.1572 37.7653 12.1089 37.6383C11.9631 37.2548 11.8957 35.4008 11.997 34.5618C12.1204 33.5396 12.2236 33.072 12.4256 32.6194C12.516 32.4166 12.6578 32.0975 12.7404 31.9103C13.0577 31.1918 14.3773 29.7474 15.2693 29.1422C15.4997 28.9859 15.7113 28.8273 15.7396 28.7897C15.7679 28.7521 16.1883 28.5191 16.674 28.272C17.5575 27.8221 18.2086 27.5947 19.1303 27.4139ZM16.179 26.7858C16.0162 26.8543 15.6742 26.9416 15.4191 26.9798C15.1639 27.0181 14.9311 27.0881 14.9019 27.1354C14.8727 27.1827 14.5951 27.276 14.285 27.3427C13.9749 27.4094 13.6769 27.4948 13.6228 27.5325C13.5687 27.5702 13.3916 27.6324 13.2294 27.6708C13.0671 27.7091 12.6317 27.9144 12.2618 28.1269C11.8919 28.3394 11.5521 28.5133 11.5067 28.5133C11.4611 28.5133 11.3654 28.5687 11.2937 28.6362C11.222 28.7039 10.8316 29.0115 10.4261 29.3199C9.68742 29.8816 8.85283 30.6298 8.85283 30.7301C8.85283 30.7595 8.77139 30.8709 8.67186 30.9778C8.57233 31.0847 8.43012 31.2931 8.35577 31.4409C8.28141 31.5887 8.14904 31.8203 8.0615 31.9555C7.8771 32.2406 7.49265 33.5938 7.43295 34.1684C7.41043 34.3848 7.36145 34.861 7.32408 35.2265C7.21108 36.3324 7.61716 38.3481 8.22614 39.7035C8.35449 39.989 8.45943 40.2657 8.45943 40.3182C8.45943 40.3706 8.49286 40.4136 8.53378 40.4136C8.57469 40.4136 8.67039 40.5574 8.74651 40.7332C9.17108 41.7139 10.5518 43.2589 11.793 44.1422C12.1503 44.3965 12.5201 44.6338 12.6147 44.6696C12.7093 44.7054 12.7868 44.7804 12.7868 44.8362C12.7868 44.892 12.8389 44.9376 12.9026 44.9376C12.9662 44.9376 13.3756 45.1096 13.8123 45.3197C15.2521 46.0127 15.9243 46.3145 16.0282 46.3145C16.2258 46.3145 16.128 46.1482 15.8602 46.0286C15.4507 45.8457 14.3352 45.061 13.6228 44.4545C13.4499 44.3073 12.9386 43.7208 12.6293 43.3149C12.3558 42.956 12.2326 42.7526 11.6456 41.6921C11.5408 41.5028 11.3977 41.1709 11.3276 40.9545C11.2576 40.7381 11.1589 40.4615 11.1084 40.3398C11.0578 40.2182 10.9756 40.0189 10.9255 39.8972C10.8756 39.7756 10.8075 39.5432 10.7745 39.3809C10.7413 39.2186 10.6431 38.7761 10.556 38.3974C10.3549 37.5222 10.328 35.0835 10.511 34.3159C10.7885 33.1518 11.0719 32.3592 11.5394 31.4392C11.8074 30.9118 12.0649 30.4803 12.1117 30.4803C12.1584 30.4803 12.1967 30.4329 12.1967 30.375C12.1967 30.3169 12.2521 30.2134 12.3196 30.1446C12.3873 30.0759 12.5532 29.8738 12.6885 29.6954C13.1357 29.1055 14.9975 27.6214 15.6635 27.324C15.8123 27.2576 15.934 27.166 15.934 27.1206C15.934 27.0752 15.9893 27.0367 16.0569 27.0349C16.2043 27.0312 16.5766 26.7627 16.5169 26.7032C16.4938 26.6802 16.3417 26.7174 16.179 26.7858ZM13.6228 25.5016C14.1637 25.4705 14.6235 25.4285 14.6445 25.4083C14.6657 25.3881 14.7235 25.3966 14.7732 25.4273C14.8228 25.458 15.1486 25.4845 15.4971 25.4863C15.8456 25.4881 16.1307 25.5281 16.1307 25.5753C16.1307 25.6225 16.1197 25.6641 16.1061 25.6677C16.0925 25.6712 15.7053 25.7338 15.2455 25.8066C13.9264 26.0156 11.7102 26.7649 11.0057 27.2398C10.8493 27.3452 10.5905 27.52 10.4303 27.6282C10.2703 27.7363 10.1043 27.8249 10.0614 27.8249C10.0187 27.8249 9.72666 28.0658 9.41273 28.3604C9.0987 28.6549 8.67953 29.0385 8.48126 29.2126C7.66742 29.9271 6.55932 31.7599 6.10436 33.1439C5.96411 33.5704 5.77813 35.2078 5.76465 36.1354C5.75934 36.5004 5.92811 37.9749 6.0124 38.2991C6.06866 38.5154 6.16051 38.8695 6.21657 39.0859C6.37108 39.6819 6.49077 39.9948 6.90236 40.8788C7.10968 41.3239 7.27924 41.7332 7.27924 41.7885C7.27924 41.8437 7.32349 41.8888 7.37758 41.8888C7.43168 41.8888 7.47593 41.9283 7.47593 41.9767C7.47593 42.0251 7.60871 42.2069 7.77098 42.3806C7.93326 42.5542 8.06603 42.7581 8.06603 42.8336C8.06603 42.909 8.11029 42.9707 8.16438 42.9707C8.21847 42.9707 8.26293 43.026 8.26322 43.0936C8.26371 43.2382 8.68672 43.7044 9.13293 44.0525C9.30632 44.1877 9.59782 44.4333 9.78055 44.5982C9.96338 44.7632 10.2941 45.0177 10.5155 45.1637C10.737 45.3099 11.0865 45.54 11.2923 45.6753C11.498 45.8105 11.781 45.9211 11.921 45.9211C12.0611 45.9211 12.1985 45.9806 12.2264 46.0533C12.2542 46.126 12.5577 46.2887 12.9008 46.4149C13.2437 46.541 13.6786 46.7249 13.8672 46.8236C14.0557 46.9222 14.277 47.0033 14.3589 47.0036C14.4408 47.004 14.6407 47.0752 14.803 47.1618C15.2382 47.3944 16.3469 47.6984 16.5383 47.6377C16.6295 47.6088 16.7327 47.6311 16.7675 47.6874C16.8023 47.7437 16.9387 47.7898 17.0708 47.7898C17.3725 47.7898 17.3898 47.9821 17.0896 47.9986C15.9339 48.0615 15.0233 48.0582 14.6554 47.9898C14.412 47.9445 13.8894 47.8792 13.4939 47.8446C13.0986 47.8099 12.5896 47.743 12.3629 47.6957C12.1363 47.6484 11.5746 47.5348 11.1149 47.4432C10.6551 47.3517 10.2568 47.2441 10.2297 47.204C10.2027 47.164 9.98138 47.1006 9.73797 47.0632C8.95235 46.9425 7.09188 46.2396 6.80883 45.9564C6.73526 45.883 6.6322 45.8228 6.57978 45.8228C6.38563 45.8228 4.92318 44.6831 4.59164 44.2735C4.4928 44.1513 4.34901 43.9885 4.27201 43.9115C4.195 43.8345 4.13206 43.7467 4.13206 43.7164C4.13206 43.6672 3.97539 43.4597 3.68949 43.1305C3.1284 42.4842 2.30237 40.9588 1.97142 39.9576C1.84868 39.5864 1.71364 39.1905 1.67135 39.078C1.52422 38.6867 1.56121 35.9812 1.72378 35.2502C1.80796 34.8716 1.90091 34.4069 1.93041 34.2176C1.95991 34.0282 2.01863 33.7848 2.06092 33.6766C2.10321 33.5685 2.19113 33.3029 2.25634 33.0866C2.66213 31.739 3.44282 30.4497 4.42996 29.4968C5.21105 28.7429 5.36959 28.6117 5.49921 28.6117C5.55252 28.6117 5.65401 28.5336 5.72463 28.4381C5.79534 28.3426 5.98171 28.2076 6.13878 28.1382C6.29584 28.0688 6.65452 27.8593 6.9357 27.6725C7.21698 27.4859 7.49472 27.3331 7.55284 27.3331C7.61097 27.3331 7.71709 27.276 7.78859 27.2061C7.85999 27.1363 8.09554 26.9914 8.3119 26.884C8.52827 26.7767 8.92659 26.5729 9.19705 26.4313C10.1051 25.9558 11.758 25.6086 13.6228 25.5016ZM21.4661 49.2183C21.3445 49.517 21.2448 49.8715 21.2448 50.0063C21.2448 50.1409 21.2041 50.3281 21.1543 50.422C20.9782 50.754 20.8208 52.2908 20.893 52.9712C20.9322 53.3399 20.984 53.8628 21.0083 54.1333C21.0325 54.4038 21.0905 54.7357 21.1372 54.8709C21.1839 55.0062 21.2799 55.316 21.3507 55.5594C21.4214 55.8028 21.6035 56.1869 21.7555 56.413C21.9073 56.6391 22.0316 56.8661 22.0316 56.9174C22.0316 57.0786 23.6337 58.6537 24.097 58.948C24.3404 59.1026 24.6594 59.3106 24.8061 59.4103C24.9526 59.5101 25.1308 59.5917 25.2021 59.5917C25.2734 59.5917 25.4221 59.655 25.5326 59.7323C26.023 60.0759 27.1967 60.3794 28.4839 60.4956C29.6089 60.5972 29.9383 60.5913 30.8588 60.453C31.4465 60.3648 32.0576 60.2275 32.2166 60.1482C32.6932 59.9103 33.4088 59.5917 33.4664 59.5917C33.5235 59.5917 34.7975 58.777 34.9646 58.6337C35.0187 58.5872 35.2951 58.3762 35.5791 58.1645C36.1539 57.7359 36.1321 57.6862 35.3248 57.5839C35.0361 57.5472 34.7263 57.4808 34.6364 57.4362C34.5464 57.3916 34.2073 57.2881 33.8827 57.2061C32.9252 56.9643 32.1161 56.7086 32.0623 56.6309C32.0346 56.5911 31.8797 56.5263 31.7181 56.4871C31.5563 56.448 31.2691 56.3343 31.0798 56.2345C30.5862 55.9746 29.3037 55.4031 29.0144 55.3141C28.8792 55.2726 28.6511 55.1558 28.5075 55.0547C28.364 54.9536 28.2232 54.8709 28.1948 54.8709C28.0859 54.8709 26.8752 54.034 26.3597 53.6022C25.3459 52.7533 22.9597 50.2727 22.833 49.936C22.8139 49.8854 22.7033 49.7449 22.5871 49.6238C22.4709 49.5027 22.2493 49.2396 22.0945 49.0393C21.9398 48.8389 21.7849 48.675 21.7503 48.675C21.7157 48.6751 21.5878 48.9196 21.4661 49.2183ZM19.3208 51.3795C19.3902 51.2172 19.4965 50.9628 19.557 50.814C19.6176 50.6652 19.683 50.5436 19.7023 50.5436C19.7218 50.5436 19.7168 51.3406 19.6912 52.3146C19.6449 54.0801 19.6975 54.6268 20.0263 55.797C20.1913 56.3843 20.8413 57.7231 20.9615 57.7231C21.0092 57.7231 21.0481 57.7677 21.0481 57.8223C21.0481 58.0555 22.3894 59.4269 23.2808 60.1051C23.8599 60.5457 24.737 61.0669 24.8993 61.0669C24.9483 61.0669 25.1529 61.1404 25.3541 61.2302C25.5552 61.3199 25.7419 61.3994 25.7689 61.4065C25.796 61.4138 26.0615 61.4765 26.359 61.5458C26.6565 61.6151 27.0106 61.7134 27.1458 61.764C27.5079 61.8999 30.0517 61.9042 30.7356 61.7702C32.1161 61.4998 32.4166 61.4201 32.5796 61.2813C32.6743 61.2007 32.7517 61.1649 32.7517 61.2018C32.7517 61.2876 33.3391 60.9853 33.5162 60.8083C33.5902 60.7342 33.7309 60.6735 33.8285 60.6735C33.9262 60.6735 34.0612 60.6072 34.1286 60.526C34.196 60.4449 34.2938 60.3785 34.3461 60.3785C34.3984 60.3785 34.6031 60.2261 34.8012 60.0398C34.9993 59.8534 35.3383 59.5818 35.5547 59.4361C35.771 59.2904 36.0021 59.0942 36.068 59.0003C36.2003 58.8117 36.5873 58.673 36.5873 58.8141C36.5873 58.8631 36.5431 58.9032 36.489 58.9032C36.4349 58.9032 36.3906 58.9494 36.3906 59.0057C36.3906 59.1082 36.2961 59.2423 35.9727 59.5988C35.8779 59.703 35.8005 59.8326 35.8005 59.8867C35.8005 59.9408 35.7673 59.9877 35.7268 59.991C35.6863 59.9943 35.4539 60.2588 35.2104 60.5787C34.967 60.8988 34.6905 61.1867 34.5958 61.2187C34.5011 61.2508 34.4208 61.3292 34.4173 61.3932C34.4073 61.5728 33.37 62.4164 32.6042 62.8676C32.2255 63.0908 31.8936 63.3022 31.8666 63.3376C31.7824 63.4478 30.588 64.0239 30.588 63.9544C30.588 63.9182 30.507 63.9619 30.4079 64.0515C30.1429 64.2914 28.7059 64.6939 27.6517 64.8235C26.1225 65.0115 24.271 64.7454 22.7201 64.1145C22.4767 64.0155 22.2111 63.9085 22.13 63.8768C21.675 63.6987 21.0113 63.1877 20.317 62.4812C19.8032 61.9584 19.5827 61.6371 19.2126 60.8716C18.7576 59.9311 18.7396 59.8851 18.4817 59.0016C18.2908 58.348 18.2669 58.0401 18.2715 56.297C18.2746 55.1259 18.3201 54.218 18.3839 54.0532C18.4429 53.9009 18.4911 53.6783 18.4911 53.5586C18.4911 53.439 18.6165 53.0989 18.7698 52.8028C18.923 52.5069 19.0814 52.1319 19.1216 51.9696C19.1618 51.8073 19.2514 51.5418 19.3208 51.3795ZM17.9292 51.0732C17.6961 51.3412 16.7208 52.7722 16.7208 52.846C16.7208 52.8731 16.588 53.1205 16.4257 53.3957C16.2634 53.6709 16.1307 53.9389 16.1307 53.9912C16.1307 54.0435 16.0486 54.2738 15.9485 54.5032C15.5874 55.3295 15.2682 56.4851 15.0318 57.8214C14.7568 59.3757 14.9174 63.7654 15.2569 63.9752C15.3047 64.0048 15.3439 64.109 15.3439 64.2068C15.3439 64.4349 15.7415 65.4042 15.9036 65.571C15.9717 65.6412 16.1 65.8513 16.1886 66.0382C16.2772 66.225 16.389 66.3778 16.4369 66.3778C16.4848 66.3778 16.5241 66.4433 16.5241 66.5233C16.5241 66.7127 18.5498 68.7591 18.9336 68.9575C20.6113 69.8245 21.2717 70.0579 22.5207 70.2253C23.6736 70.3797 25.4465 70.2847 26.3098 70.0222C26.5344 69.954 26.8437 69.8599 27.1372 69.7706L27.1891 69.7548L27.249 69.7366L27.309 69.7183L27.6867 69.6035C28.0654 69.4883 28.5294 69.3128 28.7179 69.2136C28.9065 69.1144 29.0964 69.0332 29.1399 69.0332C29.1835 69.0332 29.339 68.9516 29.4855 68.8519C29.6322 68.7521 29.9512 68.542 30.1946 68.3847C30.6776 68.0728 30.7177 68.0438 31.0798 67.7445C31.215 67.6326 31.4537 67.4454 31.6103 67.3283C32.4893 66.6709 34.4237 64.7592 34.4237 64.5478C34.4237 64.4815 34.4595 64.4125 34.5031 64.3944C34.6877 64.3183 36.0034 62.0504 35.863 62.0504C35.8433 62.0504 35.6774 62.1825 35.4943 62.3439C35.3111 62.5053 35.128 62.6381 35.0875 62.639C35.047 62.6398 35.0137 62.7018 35.0137 62.7766C35.0137 62.9129 34.2913 63.624 34.1527 63.624C34.1122 63.624 33.869 63.8196 33.6122 64.0588C33.1983 64.4442 32.373 64.8957 30.4405 65.7935C29.9834 66.0059 28.8856 66.2726 28.1785 66.3429C27.908 66.3697 27.4761 66.4269 27.2186 66.4699C25.9588 66.6801 23.7475 66.2207 22.1836 65.4239C20.7551 64.696 19.778 63.8614 18.7258 62.4704C17.4287 60.7556 16.9113 59.0216 16.9036 56.3631C16.8987 54.6807 17.0085 53.9153 17.4224 52.7493C17.5775 52.3127 17.7043 51.907 17.7043 51.8478C17.7043 51.7886 17.7375 51.7254 17.778 51.7073C17.87 51.6665 18.2178 50.9258 18.1682 50.8764C18.1482 50.8564 18.0407 50.9449 17.9292 51.0732ZM54.7824 50.8386C54.9635 50.5952 55.2035 50.3021 55.3156 50.1874C55.5665 49.9307 55.63 49.9609 55.7006 50.3706C55.731 50.5468 55.8034 50.9566 55.8614 51.2812C56.0322 52.2353 56.1375 53.5026 56.0945 54.0841C56.0427 54.7846 55.8713 55.8494 55.77 56.1003C55.7263 56.2085 55.5873 56.6289 55.461 57.0346C55.3347 57.4403 55.2076 57.7944 55.1788 57.8214C55.1499 57.8485 55.0506 58.0255 54.9582 58.2148C54.6746 58.7959 54.4551 59.1144 54.0198 59.5765C53.7898 59.8206 53.6018 60.0713 53.6018 60.1338C53.6018 60.2644 52.8784 60.8702 52.7224 60.8702C52.6651 60.8702 52.6183 60.9417 52.6183 61.0293C52.6183 61.1423 52.5587 61.1727 52.4118 61.1342C52.2984 61.1046 52.2293 61.1041 52.2584 61.1332C52.377 61.2518 51.7305 61.7189 51.5119 61.6727C51.4713 61.664 51.4381 61.7039 51.4381 61.7612C51.4381 61.8184 51.3985 61.8408 51.3501 61.8109C51.3016 61.781 51.2349 61.8273 51.2017 61.9136C51.1662 62.0062 51.0789 62.0469 50.9896 62.0126C50.9061 61.9805 50.8626 61.9944 50.8928 62.0434C50.9231 62.0924 50.7262 62.2061 50.4554 62.296C50.1844 62.386 49.9628 62.4963 49.9628 62.5412C49.9628 62.586 49.487 62.7401 48.9056 62.8833C47.8942 63.1328 46.2716 63.2331 45.9967 63.0632C45.9448 63.0311 45.7205 62.9845 45.4984 62.9597C45.2763 62.9348 44.9175 62.8534 44.7012 62.7789C44.4848 62.7044 44.213 62.6428 44.097 62.642C43.9811 62.6412 43.8608 62.5741 43.8296 62.493C43.7985 62.4119 43.6669 62.3455 43.5373 62.3455C43.4077 62.3455 43.1893 62.2572 43.052 62.1492C42.9147 62.0412 42.7133 61.9194 42.6044 61.8787C42.3346 61.7777 39.9312 59.8704 39.9312 59.7573C39.9312 59.7076 39.7969 59.5061 39.6327 59.3096C39.0652 58.6304 38.9187 58.3476 39.0305 58.1477C39.1039 58.0165 39.3415 57.9849 40.4045 57.9647C41.577 57.9424 42.8963 57.7672 43.9144 57.4986C44.1307 57.4416 44.3741 57.3827 44.4553 57.3677C44.8378 57.2974 45.5181 57.0982 45.7979 56.9747C45.9683 56.8995 46.1553 56.8379 46.2132 56.8379C46.4205 56.8379 48.787 55.7099 49.7661 55.1445C50.5221 54.708 50.6882 54.5993 51.0479 54.3054C51.197 54.1838 51.3679 54.0841 51.4277 54.0841C51.4875 54.0841 51.5364 54.0458 51.5364 53.9989C51.5364 53.9519 51.7025 53.803 51.9053 53.6678C52.3863 53.3474 54.3594 51.4071 54.7824 50.8386ZM59.0111 54.2366C59.011 54.3475 59.0512 54.4803 59.1003 54.5316C59.1494 54.583 59.2135 54.8463 59.2428 55.1168C59.2721 55.3873 59.3421 55.9817 59.3985 56.4376C59.5322 57.5203 59.4873 59.6465 59.3273 59.8065C59.2615 59.8723 59.2077 60.0458 59.2077 60.1921C59.2077 60.3386 59.1244 60.6284 59.0226 60.8363C58.9208 61.0443 58.734 61.4357 58.6076 61.7062C58.4811 61.9767 58.2546 62.3519 58.1042 62.54C57.9538 62.7282 57.8308 62.9117 57.8308 62.9479C57.8308 63.1425 56.2719 64.7284 55.4855 65.3337C54.9705 65.7302 54.3873 66.1114 54.0935 66.2436C54.0124 66.2801 53.891 66.3525 53.8237 66.4045C53.5926 66.5832 52.0764 67.052 51.1922 67.2179C50.0011 67.4415 48.1966 67.4436 47.0124 67.2226C45.3328 66.9093 44.28 66.5091 43.0617 65.721C42.364 65.2696 40.936 63.9031 40.6393 63.4027C40.5511 63.2539 40.4442 63.1323 40.4017 63.1323C40.3593 63.1323 40.3246 63.0861 40.3246 63.0298C40.3246 62.9734 40.2432 62.84 40.1437 62.7331C40.0441 62.6263 39.9002 62.4179 39.824 62.27C39.7477 62.1222 39.6344 61.9471 39.572 61.881C39.5097 61.8148 39.3548 61.5935 39.2278 61.3892C39.0149 61.0467 38.9943 61.0356 38.9645 61.2462C38.9467 61.3719 38.9987 61.6153 39.0799 61.7871C39.1611 61.959 39.2579 62.2213 39.295 62.3701C39.3321 62.5189 39.4019 62.6405 39.4501 62.6405C39.4984 62.6405 39.5378 62.7512 39.5378 62.8864C39.5378 63.0216 39.5821 63.1323 39.6362 63.1323C39.6903 63.1323 39.7345 63.1941 39.7345 63.2698C39.7345 63.4174 40.2774 64.4968 40.4296 64.6518C40.48 64.7032 40.5213 64.8202 40.5213 64.9119C40.5213 65.0036 40.6312 65.1829 40.7655 65.3102C40.8998 65.4376 41.0104 65.5822 41.0114 65.6315C41.0155 65.851 41.6394 66.68 41.7644 66.632C41.8379 66.6038 41.9033 66.6346 41.9095 66.7005C41.9158 66.7665 41.9268 66.8646 41.9341 66.9187C41.9501 67.0374 42.5866 67.7304 42.5866 67.6291C42.5866 67.59 42.6689 67.6355 42.7693 67.7301C42.8698 67.8247 42.9472 67.9252 42.9414 67.9533C42.9356 67.9814 43.0305 68.1312 43.1522 68.2862C43.2738 68.4412 43.3748 68.5289 43.3764 68.481C43.3781 68.4331 43.4245 68.4715 43.4797 68.5661C43.5348 68.6607 43.6441 68.7382 43.7226 68.7382C43.801 68.7382 43.8652 68.8046 43.8652 68.8857C43.8652 68.9668 43.9254 69.0332 43.9989 69.0332C44.0725 69.0332 44.286 69.1778 44.4734 69.3545C45.0793 69.9259 46.7807 70.7664 48.0942 71.1431C48.7791 71.3395 49.3436 71.4254 50.2087 71.4647C51.3663 71.5174 53.2663 71.3672 53.5899 71.1974C53.6775 71.1515 54.0812 71.0137 54.4869 70.8913C55.293 70.6482 56.547 69.8937 57.1915 69.2641C57.8651 68.6059 58.6176 67.7212 58.6176 67.5875C58.6176 67.5172 58.6508 67.4596 58.6914 67.4595C58.7573 67.4595 59.0833 66.8101 59.7524 65.3451C60.1207 64.5389 60.2923 63.9346 60.4493 62.8912C60.6533 61.5365 60.5861 59.2787 60.3042 58.0181C59.9371 56.3756 59.0113 53.6685 59.0111 54.2366ZM57.2094 56.6533C57.3857 56.2648 57.4197 56.1151 57.4298 55.6823C57.4441 55.0788 57.6058 55.3631 57.6816 56.1249C57.8794 58.1116 57.7953 59.6001 57.4386 60.4277C57.3452 60.644 57.2404 60.9397 57.2055 61.0846C57.1706 61.2296 57.0758 61.4145 56.9946 61.4956C56.9136 61.5767 56.8473 61.7125 56.8473 61.7976C56.8473 61.8825 56.803 61.9521 56.749 61.9521C56.6949 61.9521 56.6506 61.9983 56.6506 62.0548C56.6506 62.1637 56.2331 62.6381 55.4104 63.4638C54.911 63.9651 53.4344 64.9697 53.2698 64.9203C53.2225 64.906 53.1119 64.9559 53.024 65.031C52.8142 65.2104 52.5049 65.3327 52.3337 65.3039C52.2583 65.2912 52.1666 65.3296 52.1298 65.3891C52.0598 65.5024 51.817 65.5717 51.2414 65.6425C51.0521 65.6658 50.6538 65.7221 50.3562 65.7676C49.6564 65.8746 48.651 65.8351 48.6055 65.6989C48.5843 65.6352 48.5043 65.6242 48.4059 65.6717C48.1953 65.7733 47.8959 65.7481 47.631 65.6063C47.5159 65.5447 47.2855 65.5217 47.1188 65.555C46.8667 65.6054 46.8154 65.5845 46.8142 65.4312C46.8131 65.3022 46.7892 65.2838 46.7345 65.3698C46.6744 65.4644 46.4647 65.4268 45.8263 65.2068C44.4942 64.7477 42.9862 63.9135 42.9821 63.6334C42.9804 63.5204 43.0114 63.523 43.1522 63.6478C43.3126 63.79 43.9966 64.0026 45.0454 64.236C45.5332 64.3446 47.9995 64.3789 48.3893 64.2827C49.2026 64.0815 50.1376 63.8149 50.307 63.7357C50.4153 63.6852 50.9242 63.4512 51.4381 63.216C51.952 62.9806 52.3872 62.7549 52.4052 62.7143C52.4233 62.6737 52.4785 62.6405 52.5281 62.6405C52.6153 62.6405 52.713 62.5673 53.1838 62.1488C53.3055 62.0406 53.4667 61.9521 53.5421 61.9521C53.6174 61.9521 53.7037 61.8881 53.7338 61.8097C53.7638 61.7314 53.9328 61.5926 54.1095 61.5012C54.286 61.41 54.593 61.1532 54.7917 60.9306L54.9997 60.6975L55.0184 60.6766C55.1873 60.4872 55.3742 60.2778 55.5037 60.1326C55.6966 59.9162 55.9118 59.6286 55.9819 59.4933C56.0521 59.3581 56.1339 59.2253 56.1639 59.1983C56.1938 59.1713 56.2978 58.9721 56.395 58.7557C56.4922 58.5394 56.6502 58.2057 56.7463 58.0142C56.8424 57.8227 56.9519 57.5129 56.9898 57.3257C57.0277 57.1386 57.1265 56.8359 57.2094 56.6533ZM57.9033 29.1621C57.8698 29.1956 57.8784 29.2957 57.9225 29.3845C58.271 30.0875 58.6176 30.8756 58.6176 30.965C58.6176 31.0245 58.6575 31.15 58.7064 31.2439C58.7552 31.3378 58.8487 31.6138 58.9143 31.8572C58.9798 32.1006 59.0691 32.3883 59.1128 32.4965C59.1564 32.6046 59.2227 32.9144 59.2602 33.1849C59.2977 33.4554 59.3661 33.8979 59.4123 34.1684C59.4584 34.4389 59.5226 35.4568 59.555 36.4304C59.6223 38.4604 59.4262 40.5886 59.0158 42.2822C58.9568 42.5256 58.8814 42.8918 58.8481 43.096C58.8149 43.3001 58.7495 43.4908 58.7027 43.5197C58.6559 43.5487 58.6176 43.6663 58.6176 43.7812C58.6176 44.0403 57.9549 45.697 57.4168 46.7832C57.1953 47.2302 57.0425 47.6244 57.0774 47.6593C57.1954 47.7772 59.0885 47.6637 59.3552 47.5227C59.4634 47.4655 59.6712 47.4192 59.8171 47.4198C59.9629 47.4205 60.1568 47.3465 60.2477 47.2554C60.3388 47.1645 60.4759 47.1141 60.5525 47.1434C60.8611 47.2619 62.2235 46.4149 63.0925 45.5644C64.4229 44.2623 64.9932 43.1856 65.395 41.2175C65.5331 40.5414 65.5336 37.8999 65.3957 37.2924C65.2236 36.5341 64.8984 35.2773 64.7782 34.906C64.6681 34.5664 63.9504 33.2312 63.8265 33.1357C63.7914 33.1087 63.6104 32.8874 63.4243 32.644C62.6563 31.6393 61.7797 30.9536 60.1446 30.0781C58.7491 29.3311 58.0287 29.0366 57.9033 29.1621ZM60.4804 46.5112C60.4232 46.5112 60.4036 46.467 60.4371 46.4129C60.4705 46.3588 60.5173 46.3145 60.5412 46.3145C60.5651 46.3145 60.5846 46.3588 60.5846 46.4129C60.5846 46.467 60.5377 46.5112 60.4804 46.5112ZM61.6827 29.1417C61.6467 29.1634 61.5643 29.1239 61.4997 29.0538C61.4043 28.9506 61.4874 28.9363 61.9423 28.9779C62.2503 29.0061 62.5713 29.065 62.6557 29.1089C62.74 29.1527 63.1826 29.2542 63.6392 29.3345C64.0957 29.4148 64.6022 29.5502 64.7644 29.6356C64.9267 29.7208 65.1154 29.7909 65.1838 29.7913C65.2521 29.7916 65.3849 29.8325 65.4788 29.8821C65.7996 30.0518 66.5816 30.3819 66.6627 30.3819C66.7071 30.3819 66.8321 30.4645 66.9403 30.5654C67.0486 30.6662 67.2422 30.8049 67.3707 30.8737C67.6862 31.0426 67.7677 31.1131 68.5561 31.899C68.9319 32.2735 69.2393 32.6387 69.2393 32.7104C69.2393 32.7821 69.2797 32.8407 69.3292 32.8407C69.4268 32.8407 70.2228 34.4036 70.2228 34.5951C70.2228 34.6594 70.2633 34.7889 70.3128 34.8828C70.457 35.1562 70.7917 36.3906 70.8523 36.873C71.0084 38.1123 71.0211 38.6119 70.9169 39.4023C70.7429 40.7213 70.3145 42.388 70.0061 42.9461C69.5187 43.8278 69.3964 44.0299 69.1575 44.3475C68.7823 44.8466 67.4787 46.1063 67.0668 46.3679C66.8725 46.4913 66.6492 46.6567 66.5704 46.7355C66.4916 46.8142 66.3186 46.9127 66.1859 46.9544C66.0532 46.996 65.8391 47.1124 65.7101 47.2133C65.581 47.314 65.3677 47.3964 65.2359 47.3964C65.1041 47.3964 64.93 47.4627 64.8489 47.5437C64.7678 47.6248 64.5829 47.7169 64.4379 47.7483C64.2929 47.7797 63.9973 47.8882 63.7809 47.9893C62.9098 48.3963 60.9697 48.7035 60.8183 48.4585C60.7669 48.3754 61.0839 48.2354 61.2285 48.2773C61.2612 48.2867 61.3675 48.2026 61.4648 48.0904C61.5621 47.9783 61.78 47.8383 61.9491 47.7793C62.1182 47.7204 62.2565 47.6322 62.2565 47.5834C62.2565 47.5347 62.3055 47.4947 62.3653 47.4947C62.4251 47.4947 62.5994 47.3951 62.7525 47.2734C62.9057 47.1518 63.2366 46.9004 63.4878 46.7149C64.0861 46.273 64.9308 45.3883 65.3849 44.7281C65.5846 44.4376 65.7706 44.1779 65.7984 44.1508C65.8477 44.1028 65.9838 43.8246 66.5435 42.6264C66.9733 41.7067 67.0995 40.8472 67.1146 38.7416C67.1253 37.2513 67.0648 36.3377 66.9479 36.2207C66.91 36.1828 66.8789 35.9847 66.8789 35.7805C66.8789 35.5764 66.8347 35.382 66.7806 35.3486C66.7265 35.3151 66.6822 35.1824 66.6822 35.0535C66.6822 34.9247 66.6424 34.7947 66.5937 34.7646C66.5451 34.7345 66.452 34.4995 66.3868 34.2425C66.3216 33.9854 66.1632 33.598 66.0349 33.3816C65.9066 33.1652 65.7231 32.8223 65.6272 32.6195C65.5314 32.4167 65.3766 32.226 65.2833 32.1957C65.1901 32.1654 65.0164 31.9994 64.8975 31.8268C64.7785 31.6542 64.5008 31.3474 64.2803 31.1452C63.3072 30.2527 63.1588 30.1226 62.8501 29.8902C62.6703 29.755 62.4503 29.5779 62.3611 29.4968C62.2719 29.4157 62.1123 29.3341 62.0064 29.3156C61.9006 29.2972 61.7991 29.2416 61.781 29.1921C61.7628 29.1426 61.7186 29.1199 61.6827 29.1417ZM64.3219 27.5288C64.0784 27.5718 63.6505 27.6397 63.3709 27.6795C62.735 27.7702 62.7459 28.0051 63.3861 28.0051C63.6205 28.0051 63.9073 28.056 64.0234 28.118C64.1393 28.1801 64.3314 28.2232 64.4502 28.2137C64.5689 28.2042 64.6882 28.2051 64.7153 28.2156C64.8007 28.2487 65.1454 28.3085 65.5046 28.3526C65.8221 28.3916 66.3465 28.6067 66.9773 28.9569C67.1125 29.0319 67.5483 29.2609 67.9457 29.4655C68.3432 29.6703 68.83 30.0098 69.0276 30.22C69.2252 30.4302 69.4865 30.6934 69.6081 30.8048C69.7298 30.9163 69.8294 31.0611 69.8294 31.1267C69.8294 31.1923 69.8952 31.2713 69.9757 31.3022C70.0561 31.3331 70.1993 31.537 70.2939 31.7553C70.3885 31.9736 70.4977 32.1522 70.5367 32.1522C70.5755 32.1522 70.6358 32.3042 70.6707 32.49C70.7057 32.677 70.8394 32.9069 70.9702 33.0051C71.1001 33.1026 71.2063 33.2826 71.2063 33.4049C71.2063 33.5274 71.2506 33.6275 71.3047 33.6275C71.3588 33.6275 71.4032 33.705 71.4034 33.7996C71.4036 33.8942 71.4921 34.1166 71.6001 34.2937C71.7081 34.4708 71.7964 34.7725 71.7964 34.964C71.7964 35.1556 71.8381 35.3903 71.8891 35.4856C71.9401 35.5809 71.9997 35.766 72.0215 35.8971C72.0434 36.0282 72.0869 36.2018 72.1184 36.2829C72.1907 36.4693 72.2915 37.4863 72.2889 38.004C72.2825 39.3174 72.19 40.6494 72.099 40.7404C72.0407 40.7987 71.9931 40.9561 71.9931 41.0901C71.9931 41.2242 71.9504 41.4698 71.8982 41.636C71.846 41.8021 71.7795 42.0566 71.7505 42.2016C71.7215 42.3465 71.6315 42.5314 71.5503 42.6126C71.4693 42.6936 71.403 42.8079 71.403 42.8666C71.403 42.9253 71.3629 43.0502 71.3138 43.1441C71.2647 43.2381 71.0596 43.6468 70.858 44.0525C70.4984 44.7759 70.0614 45.4464 69.9072 45.5113C69.8644 45.5294 69.8294 45.5964 69.8294 45.6602C69.8294 45.7241 69.4489 46.1293 68.9838 46.5607C67.9008 47.5653 67.4651 47.864 66.1586 48.4982C65.7353 48.7035 65.3246 48.8716 65.2458 48.8716C65.167 48.8716 65.0811 48.927 65.055 48.9946C65.029 49.0622 64.8728 49.1223 64.7081 49.1282C64.5433 49.1342 64.358 49.1895 64.2964 49.2511C64.1522 49.3953 64.6219 49.4046 65.1017 49.267C65.3259 49.2028 65.4778 49.204 65.5586 49.2711C65.6413 49.3398 65.6906 49.3387 65.7143 49.2677C65.7334 49.2104 66.147 49.0987 66.6336 49.0192C67.6848 48.8476 68.8142 48.5505 69.2271 48.337C69.3908 48.2524 69.6043 48.183 69.7016 48.1828C69.7989 48.1826 70.0235 48.0941 70.2006 47.9861C70.3777 47.8781 70.599 47.7877 70.6923 47.7852C70.7857 47.7826 71.1276 47.628 71.4522 47.4415C71.7767 47.2551 72.1383 47.0605 72.2556 47.0091C72.3729 46.9576 72.5154 46.8356 72.5723 46.7379C72.6291 46.6403 72.6769 46.6038 72.6786 46.6567C72.6802 46.7096 72.7812 46.656 72.9028 46.5375C73.0245 46.419 73.4053 46.0661 73.749 45.7533C74.0927 45.4405 74.5893 44.8968 74.8527 44.5451C75.342 43.8919 76.3205 42.0339 76.3205 41.7582C76.3205 41.6741 76.3572 41.5827 76.402 41.555C76.4784 41.5078 76.5468 41.2339 76.8058 39.9389C76.8635 39.6508 76.9105 38.8541 76.9103 38.1687C76.9101 37.1534 76.8643 36.7489 76.6638 35.9879C76.3096 34.6441 75.8299 33.5193 75.2698 32.7187C75.0903 32.4623 74.9436 32.2248 74.9436 32.1908C74.9436 32.1569 74.8219 31.9845 74.6731 31.8079C74.5243 31.6313 74.292 31.3452 74.1568 31.1722C73.7641 30.6696 73.7366 30.6421 73.2716 30.2835C73.0282 30.0957 72.7786 29.8973 72.717 29.8424C71.9401 29.1506 69.5629 28.0216 68.8832 28.0216C68.7762 28.0216 68.6445 27.9775 68.5906 27.9236C68.5023 27.8353 67.8139 27.6774 67.0265 27.5649C66.4049 27.4762 64.7449 27.454 64.3219 27.5288ZM35.8097 35.6133C36.4078 34.4888 37.1927 33.8057 38.4327 33.3304C38.7649 33.203 39.1599 33.1526 39.8092 33.1548C40.686 33.1578 40.722 33.1666 40.7788 33.3927C40.836 33.6209 41.0131 33.7251 41.0131 33.5307C41.0131 33.4775 41.1661 33.5069 41.3531 33.5961C41.5401 33.6853 41.6704 33.7949 41.6428 33.8396C41.6151 33.8844 41.6378 33.9987 41.6931 34.0938C41.7486 34.1889 41.7983 34.2225 41.8038 34.1684C41.8092 34.1143 41.8517 34.1586 41.8982 34.2667C41.9782 34.4529 41.9831 34.4534 41.9897 34.2766C41.9998 34.001 42.5736 34.8271 42.781 35.416C42.8727 35.6768 42.9772 35.9195 43.0131 35.9554C43.049 35.9913 43.0784 36.388 43.0784 36.8371C43.0784 37.5965 43.0508 37.7077 42.6831 38.4269C42.2872 39.2018 41.973 39.6268 41.796 39.6268C41.744 39.6268 41.701 39.6822 41.7003 39.7497C41.6985 39.9425 40.713 40.5627 40.0367 40.7967C39.3813 41.0235 37.8982 41.1127 37.7813 40.9324C37.7467 40.879 37.5605 40.8064 37.3675 40.7709C36.3954 40.5924 35.4893 39.4386 35.2656 38.0946C35.1575 37.4449 35.3833 36.4147 35.8097 35.6133Z" fill="#D2D2D2"/>
</svg>
