<svg width="150" height="75" viewBox="0 0 150 75" fill="none" xmlns="http://www.w3.org/2000/svg">
<path d="M0 17.0567V59.6866C3 59.6866 3.73562 59.0707 3.73562 55.5317C3.73562 52.0262 4.5598 51.1499 7.85483 51.1499C11.0889 51.1499 12.0875 50.1439 12.5089 46.4611C12.8913 43.104 14.125 41.6172 16.8514 41.2268C22.4278 40.4288 22.0521 34.0999 16.4284 34.0999C13.0436 34.0999 12.1974 33.2474 12.1974 29.8374C12.1974 26.4274 11.3513 25.5749 7.96653 25.5749C4.58179 25.5749 3.73562 24.7224 3.73562 21.3124C3.73562 18.0753 2.97303 17.1429 0 17.0567Z" fill="#D9D9D9"/>
<path fill-rule="evenodd" clip-rule="evenodd" d="M24.8902 0C28.2749 0 29.1211 0.852498 29.1211 4.26249C29.1211 8.24024 29.6846 8.52498 37.5829 8.52498C45.4812 8.52498 46.0448 8.80971 46.0448 12.7875C46.0448 16.1975 46.8909 17.05 50.2757 17.05C53.6908 17.05 54.5066 17.8939 54.5066 21.4318C54.5066 24.9987 55.214 25.7113 58.3144 25.268C60.7243 24.9219 62.3152 23.3516 62.6486 20.9902C62.9786 18.6662 64.5728 17.0601 66.8795 16.7277C69.2234 16.3918 70.7821 14.7891 71.1256 12.3612C71.8804 7.00242 77.5312 7.31102 78.8953 12.7875C79.5807 15.5393 81.1444 17.05 83.309 17.05C85.7561 17.05 86.6615 18.2008 86.6615 21.3124C86.6615 24.7224 87.5077 25.5749 90.8924 25.5749C94.2772 25.5749 95.1234 24.7224 95.1234 21.3124C95.1234 17.9348 95.978 17.05 99.2358 17.05C102.214 17.05 103.499 15.9911 103.89 13.2137C104.352 9.94012 105.611 9.30076 112.47 8.85746C119.729 8.38859 120.509 7.93335 120.509 4.16873C120.509 0.85933 121.38 0 124.74 0C128.688 0 128.971 0.567764 128.971 8.52498C128.971 16.4822 128.688 17.05 124.74 17.05C121.355 17.05 120.509 17.9024 120.509 21.3124C120.509 24.7224 119.663 25.5749 116.278 25.5749C112.893 25.5749 112.047 26.4274 112.047 29.8374C112.047 33.2781 111.209 34.0999 107.698 34.0999C104.157 34.0999 103.45 34.8126 103.89 37.9361C104.238 40.4016 105.792 41.9668 108.239 42.318C110.996 42.7118 112.047 44.0059 112.047 47.0067C112.047 50.2888 112.925 51.1499 116.278 51.1499C119.663 51.1499 120.509 52.0024 120.509 55.4123C120.509 58.8223 121.355 59.6748 124.74 59.6748C128.625 59.6748 128.971 60.3006 128.971 67.3473C128.971 73.7546 128.685 74.8533 125.713 75H123.926C121.216 74.8552 120.509 73.8755 120.509 70.7573C120.509 66.7795 119.945 66.4948 112.047 66.4948C104.816 66.4948 103.585 66.0157 103.585 63.2042C103.585 61.0883 102.225 59.7175 99.7774 59.3679C97.3302 59.0167 95.7766 57.4515 95.428 54.9861C94.6207 49.2556 86.6615 49.5352 86.6615 55.293C86.6615 58.2921 85.6089 59.5879 82.8537 59.9835C80.4421 60.3296 79.1322 61.6236 79.2812 63.5111C79.4436 65.586 78.2843 66.4948 75.4733 66.4948C72.5591 66.4948 71.4302 65.5434 71.4302 63.0848C71.4302 60.5836 70.3014 59.6748 67.1993 59.6748C63.8146 59.6748 62.9684 58.8223 62.9684 55.4123C62.9684 49.5523 55.0211 49.1652 54.202 54.9861C53.8533 57.4515 52.2997 59.0167 49.8526 59.3679C47.4054 59.7175 46.0448 61.0883 46.0448 63.2042C46.0448 66.0157 44.8144 66.4948 37.5829 66.4948C29.6846 66.4948 29.1211 66.7795 29.1211 70.7573C29.1211 73.8755 28.4135 74.8552 25.7043 75H23.9174C20.9447 74.8533 20.6593 73.7546 20.6593 67.3473C20.6593 60.3006 21.0045 59.6748 24.8902 59.6748C28.2428 59.6748 29.1211 58.8138 29.1211 55.5317C29.1211 52.5309 30.1721 51.2368 32.9289 50.843C35.3388 50.4969 36.9297 48.9265 37.2631 46.5651C37.5931 44.2412 39.1873 42.6351 41.494 42.3026C43.8379 41.9667 45.3966 40.3641 45.7401 37.9361C46.1801 34.8126 45.4727 34.0999 41.9323 34.0999C38.4207 34.0999 37.5829 33.2781 37.5829 29.8374C37.5829 26.4274 36.7368 25.5749 33.352 25.5749C29.9673 25.5749 29.1211 24.7224 29.1211 21.3124C29.1211 17.9024 28.2749 17.05 24.8902 17.05C20.9419 17.05 20.6593 16.4822 20.6593 8.52498C20.6593 0.567764 20.9419 0 24.8902 0ZM71.1256 29.4112C70.7347 32.1818 69.2623 33.4009 65.8285 33.7965C62.0359 34.2346 61.1796 35.0991 61.5976 38.0589C61.9665 40.6761 63.4964 41.9309 66.7762 42.3111C70.4707 42.7408 71.4302 43.7314 71.4302 47.1192C71.4302 50.5701 72.1596 51.2829 75.238 50.843C77.6852 50.4917 79.2388 48.9265 79.5874 46.4611C79.9344 43.9957 81.295 42.6249 83.3953 42.6249C85.751 42.6249 86.6615 41.4365 86.6615 38.3624C86.6615 35.2371 85.7595 34.0999 83.2768 34.0999C80.7941 34.0999 79.8921 32.9627 79.8921 29.8374C79.8921 23.9773 71.9447 23.5903 71.1256 29.4112Z" fill="#D9D9D9"/>
<path d="M150 59.6744C146.72 59.6532 145.894 58.7799 145.894 55.4123C145.894 52.033 145.041 51.1499 141.775 51.1499C138.541 51.1499 137.543 50.1439 137.121 46.4611C136.737 43.0886 135.635 41.7724 133.202 41.7724C130.979 41.7724 129.631 40.4544 129.275 37.9361C128.835 34.8126 129.543 34.0999 133.083 34.0999C136.595 34.0999 137.432 33.2781 137.432 29.8374C137.432 26.4274 138.279 25.5749 141.663 25.5749C145.048 25.5749 145.894 24.7224 145.894 21.3124C145.894 17.9449 146.72 17.0716 150 17.0504V59.6744Z" fill="#D9D9D9"/>
</svg>
