<svg width="338" height="329" viewBox="0 0 338 329" fill="none" xmlns="http://www.w3.org/2000/svg">
<path opacity="0.07" fill-rule="evenodd" clip-rule="evenodd" d="M161.728 6.04252C161.728 11.4143 161.038 12.085 155.508 12.085C149.978 12.085 149.287 12.7558 149.287 18.1275C149.287 23.4993 148.597 24.1701 143.067 24.1701C137.537 24.1701 136.847 24.8408 136.847 30.2126C136.847 35.5844 136.156 36.2551 130.626 36.2551C125.097 36.2551 124.406 36.9258 124.406 42.2976C124.406 47.6694 123.716 48.3401 118.186 48.3401C112.459 48.3401 111.966 48.9001 111.966 55.3897C111.966 61.8794 112.459 62.4393 118.186 62.4393C123.716 62.4393 124.406 63.11 124.406 68.4818C124.406 73.8536 125.097 74.5244 130.626 74.5244C136.156 74.5244 136.847 75.1951 136.847 80.5669C136.847 85.9387 137.537 86.6094 143.067 86.6094C148.319 86.6094 149.287 87.3929 149.287 91.6448C149.287 95.8967 148.319 96.6802 143.067 96.6802C137.537 96.6802 136.847 97.351 136.847 102.723C136.847 107.825 136.04 108.765 131.663 108.765C127.286 108.765 126.48 107.825 126.48 102.723C126.48 97.351 125.789 96.6802 120.259 96.6802C114.729 96.6802 114.039 96.0095 114.039 90.6377C114.039 85.2659 113.349 84.5952 107.819 84.5952C102.289 84.5952 101.598 83.9245 101.598 78.5527C101.598 72.9896 101.022 72.5102 94.3413 72.5102C87.6607 72.5102 87.0843 72.9896 87.0843 78.5527C87.0843 83.9245 86.3938 84.5952 80.864 84.5952C75.3341 84.5952 74.6437 85.2659 74.6437 90.6377C74.6437 96.0095 73.9532 96.6802 68.4234 96.6802C62.8935 96.6802 62.2031 97.351 62.2031 102.723C62.2031 108.095 61.5126 108.765 55.9828 108.765C50.4529 108.765 49.7625 109.436 49.7625 114.808C49.7625 120.18 49.072 120.85 43.5421 120.85C37.8153 120.85 37.3218 121.41 37.3218 127.9C37.3218 134.39 37.8153 134.95 43.5421 134.95C49.072 134.95 49.7625 135.62 49.7625 140.992C49.7625 146.364 50.4529 147.035 55.9828 147.035C61.5126 147.035 62.2031 147.705 62.2031 153.077C62.2031 158.449 62.8935 159.12 68.4234 159.12C73.9532 159.12 74.6437 159.79 74.6437 165.162C74.6437 170.534 75.3341 171.205 80.864 171.205C86.3938 171.205 87.0843 171.875 87.0843 177.247C87.0843 182.81 87.6607 183.29 94.3413 183.29C101.022 183.29 101.598 182.81 101.598 177.247C101.598 171.875 102.289 171.205 107.819 171.205C113.545 171.205 114.039 170.645 114.039 164.155C114.039 157.665 113.545 157.105 107.819 157.105C102.289 157.105 101.598 156.435 101.598 151.063C101.598 145.691 100.908 145.02 95.378 145.02C89.8482 145.02 89.1577 144.35 89.1577 138.978C89.1577 133.606 88.4673 132.935 82.9374 132.935C77.6854 132.935 76.7171 132.152 76.7171 127.9C76.7171 123.648 77.6854 122.864 82.9374 122.864C88.4673 122.864 89.1577 122.194 89.1577 116.822C89.1577 111.72 89.9643 110.779 94.3413 110.779C98.7183 110.779 99.5249 111.72 99.5249 116.822C99.5249 122.194 100.215 122.864 105.745 122.864C111.275 122.864 111.966 123.535 111.966 128.907C111.966 134.279 112.656 134.95 118.186 134.95C123.716 134.95 124.406 135.62 124.406 140.992C124.406 146.364 125.097 147.035 130.626 147.035C136.156 147.035 136.847 147.705 136.847 153.077C136.847 158.449 137.537 159.12 143.067 159.12C148.319 159.12 149.287 159.903 149.287 164.155C149.287 168.407 148.319 169.19 143.067 169.19C137.537 169.19 136.847 169.861 136.847 175.233C136.847 180.605 136.156 181.275 130.626 181.275C125.097 181.275 124.406 181.946 124.406 187.318C124.406 192.69 123.716 193.36 118.186 193.36C112.656 193.36 111.966 194.031 111.966 199.403C111.966 204.775 111.275 205.446 105.745 205.446C100.215 205.446 99.5249 206.116 99.5249 211.488C99.5249 216.86 98.8345 217.531 93.3046 217.531C87.7747 217.531 87.0843 218.201 87.0843 223.573C87.0843 228.945 86.3938 229.616 80.864 229.616C75.3341 229.616 74.6437 230.286 74.6437 235.658C74.6437 241.03 73.9532 241.701 68.4234 241.701C62.8935 241.701 62.2031 242.371 62.2031 247.743C62.2031 253.115 61.5126 253.786 55.9828 253.786C50.4529 253.786 49.7625 254.456 49.7625 259.828C49.7625 265.2 49.072 265.871 43.5421 265.871C38.0123 265.871 37.3218 266.541 37.3218 271.913C37.3218 277.285 36.6314 277.956 31.1015 277.956C25.5717 277.956 24.8812 278.626 24.8812 283.998C24.8812 289.37 24.1908 290.041 18.6609 290.041C13.1311 290.041 12.4406 290.711 12.4406 296.083C12.4406 301.455 11.7502 302.126 6.22031 302.126C0.493477 302.126 0 302.686 0 309.175C0 315.665 0.493477 316.225 6.22031 316.225C11.7502 316.225 12.4406 316.896 12.4406 322.267C12.4406 327.639 13.1311 328.31 18.6609 328.31C24.1908 328.31 24.8812 327.639 24.8812 322.267C24.8812 316.896 25.5717 316.225 31.1015 316.225C36.6314 316.225 37.3218 315.554 37.3218 310.182C37.3218 304.811 38.0123 304.14 43.5421 304.14C49.072 304.14 49.7625 303.469 49.7625 298.097C49.7625 292.726 50.4529 292.055 55.9828 292.055C61.5126 292.055 62.2031 292.726 62.2031 298.097C62.2031 303.469 62.8935 304.14 68.4234 304.14C73.9532 304.14 74.6437 304.811 74.6437 310.182C74.6437 315.554 75.3341 316.225 80.864 316.225C86.3938 316.225 87.0843 316.896 87.0843 322.267C87.0843 327.639 87.7747 328.31 93.3046 328.31C98.8345 328.31 99.5249 327.639 99.5249 322.267C99.5249 316.896 100.215 316.225 105.745 316.225C111.275 316.225 111.966 315.554 111.966 310.182C111.966 304.811 112.656 304.14 118.186 304.14C123.716 304.14 124.406 303.469 124.406 298.097C124.406 292.726 125.097 292.055 130.626 292.055C136.156 292.055 136.847 291.384 136.847 286.012C136.847 280.641 137.537 279.97 143.067 279.97C148.597 279.97 149.287 279.299 149.287 273.927C149.287 268.364 149.864 267.885 156.544 267.885C163.225 267.885 163.801 267.405 163.801 261.842C163.801 256.74 164.608 255.8 168.985 255.8C173.362 255.8 174.169 256.74 174.169 261.842C174.169 267.405 174.745 267.885 181.426 267.885C188.106 267.885 188.683 268.364 188.683 273.927C188.683 279.299 189.373 279.97 194.903 279.97C200.433 279.97 201.123 280.641 201.123 286.012C201.123 291.384 201.814 292.055 207.344 292.055C212.873 292.055 213.564 292.726 213.564 298.097C213.564 303.469 214.254 304.14 219.784 304.14C225.314 304.14 226.004 304.811 226.004 310.182C226.004 315.554 226.695 316.225 232.225 316.225C237.755 316.225 238.445 316.896 238.445 322.267C238.445 327.639 239.136 328.31 244.665 328.31C250.195 328.31 250.886 327.639 250.886 322.267C250.886 316.896 251.576 316.225 257.106 316.225C262.636 316.225 263.326 315.554 263.326 310.182C263.326 304.811 264.017 304.14 269.547 304.14C275.076 304.14 275.767 303.469 275.767 298.097C275.767 292.726 276.457 292.055 281.987 292.055C287.517 292.055 288.208 292.726 288.208 298.097C288.208 303.469 288.898 304.14 294.428 304.14C299.958 304.14 300.648 304.811 300.648 310.182C300.648 315.554 301.339 316.225 306.868 316.225C312.398 316.225 313.089 316.896 313.089 322.267C313.089 327.639 313.779 328.31 319.309 328.31C324.839 328.31 325.529 327.639 325.529 322.267C325.529 316.896 326.22 316.225 331.75 316.225C337.477 316.225 337.97 315.665 337.97 309.175C337.97 302.686 337.477 302.126 331.75 302.126C326.22 302.126 325.529 301.455 325.529 296.083C325.529 290.711 324.839 290.041 319.309 290.041C313.779 290.041 313.089 289.37 313.089 283.998C313.089 278.626 312.398 277.956 306.868 277.956C301.339 277.956 300.648 277.285 300.648 271.913C300.648 266.541 299.958 265.871 294.428 265.871C288.898 265.871 288.208 265.2 288.208 259.828C288.208 254.456 287.517 253.786 281.987 253.786C276.457 253.786 275.767 253.115 275.767 247.743C275.767 242.371 275.076 241.701 269.547 241.701C264.017 241.701 263.326 241.03 263.326 235.658C263.326 230.286 262.636 229.616 257.106 229.616C251.576 229.616 250.886 228.945 250.886 223.573C250.886 218.201 250.195 217.531 244.665 217.531C239.136 217.531 238.445 216.86 238.445 211.488C238.445 206.116 237.755 205.446 232.225 205.446C226.695 205.446 226.004 204.775 226.004 199.403C226.004 194.031 225.314 193.36 219.784 193.36C214.254 193.36 213.564 192.69 213.564 187.318C213.564 181.946 212.873 181.275 207.344 181.275C201.814 181.275 201.123 180.605 201.123 175.233C201.123 169.861 200.433 169.19 194.903 169.19C189.651 169.19 188.683 168.407 188.683 164.155C188.683 159.903 189.651 159.12 194.903 159.12C200.433 159.12 201.123 158.449 201.123 153.077C201.123 147.705 201.814 147.035 207.344 147.035C212.873 147.035 213.564 146.364 213.564 140.992C213.564 135.62 214.254 134.95 219.784 134.95C225.314 134.95 226.004 134.279 226.004 128.907C226.004 123.535 226.695 122.864 232.225 122.864C237.755 122.864 238.445 122.194 238.445 116.822C238.445 111.72 239.252 110.779 243.629 110.779C248.006 110.779 248.812 111.72 248.812 116.822C248.812 122.194 249.503 122.864 255.033 122.864C260.285 122.864 261.253 123.648 261.253 127.9C261.253 132.152 260.285 132.935 255.033 132.935C249.503 132.935 248.812 133.606 248.812 138.978C248.812 144.35 248.122 145.02 242.592 145.02C237.062 145.02 236.372 145.691 236.372 151.063C236.372 156.435 235.681 157.105 230.151 157.105C224.425 157.105 223.931 157.665 223.931 164.155C223.931 170.645 224.425 171.205 230.151 171.205C235.681 171.205 236.372 171.875 236.372 177.247C236.372 182.81 236.948 183.29 243.629 183.29C250.309 183.29 250.886 182.81 250.886 177.247C250.886 171.875 251.576 171.205 257.106 171.205C262.636 171.205 263.326 170.534 263.326 165.162C263.326 159.79 264.017 159.12 269.547 159.12C275.076 159.12 275.767 158.449 275.767 153.077C275.767 147.705 276.457 147.035 281.987 147.035C287.517 147.035 288.208 146.364 288.208 140.992C288.208 135.62 288.898 134.95 294.428 134.95C300.155 134.95 300.648 134.39 300.648 127.9C300.648 121.41 300.155 120.85 294.428 120.85C288.898 120.85 288.208 120.18 288.208 114.808C288.208 109.436 287.517 108.765 281.987 108.765C276.457 108.765 275.767 108.095 275.767 102.723C275.767 97.351 275.076 96.6802 269.547 96.6802C264.017 96.6802 263.326 96.0095 263.326 90.6377C263.326 85.2659 262.636 84.5952 257.106 84.5952C251.576 84.5952 250.886 83.9245 250.886 78.5527C250.886 72.9896 250.309 72.5102 243.629 72.5102C236.948 72.5102 236.372 72.9896 236.372 78.5527C236.372 83.9245 235.681 84.5952 230.151 84.5952C224.621 84.5952 223.931 85.2659 223.931 90.6377C223.931 96.0095 223.241 96.6802 217.711 96.6802C212.181 96.6802 211.49 97.351 211.49 102.723C211.49 107.825 210.684 108.765 206.307 108.765C201.93 108.765 201.123 107.825 201.123 102.723C201.123 97.351 200.433 96.6802 194.903 96.6802C189.651 96.6802 188.683 95.8967 188.683 91.6448C188.683 87.3929 189.651 86.6094 194.903 86.6094C200.433 86.6094 201.123 85.9387 201.123 80.5669C201.123 75.1951 201.814 74.5244 207.344 74.5244C212.873 74.5244 213.564 73.8536 213.564 68.4818C213.564 63.11 214.254 62.4393 219.784 62.4393C225.511 62.4393 226.004 61.8794 226.004 55.3897C226.004 48.9001 225.511 48.3401 219.784 48.3401C214.254 48.3401 213.564 47.6694 213.564 42.2976C213.564 36.9258 212.873 36.2551 207.344 36.2551C201.814 36.2551 201.123 35.5844 201.123 30.2126C201.123 24.8408 200.433 24.1701 194.903 24.1701C189.373 24.1701 188.683 23.4993 188.683 18.1275C188.683 12.7558 187.992 12.085 182.462 12.085C176.932 12.085 176.242 11.4143 176.242 6.04252C176.242 0.479373 175.666 0 168.985 0C162.304 0 161.728 0.479373 161.728 6.04252ZM174.169 42.2976C174.169 47.8608 174.745 48.3401 181.426 48.3401C188.336 48.3401 188.683 48.6765 188.683 55.3897C188.683 62.103 188.336 62.4393 181.426 62.4393C174.745 62.4393 174.169 62.9187 174.169 68.4818C174.169 73.8536 173.478 74.5244 167.948 74.5244C162.221 74.5244 161.728 73.9644 161.728 67.4748C161.728 61.2973 161.085 60.4252 156.544 60.4252C152.398 60.4252 151.361 59.4181 151.361 55.3897C151.361 51.3614 152.398 50.3543 156.544 50.3543C161.085 50.3543 161.728 49.4822 161.728 43.3047C161.728 36.815 162.221 36.2551 167.948 36.2551C173.478 36.2551 174.169 36.9258 174.169 42.2976ZM174.169 115.815C174.169 122.528 174.515 122.864 181.426 122.864C188.106 122.864 188.683 123.344 188.683 128.907C188.683 134.47 188.106 134.95 181.426 134.95C174.745 134.95 174.169 135.429 174.169 140.992C174.169 146.364 173.478 147.035 167.948 147.035C162.418 147.035 161.728 146.364 161.728 140.992C161.728 135.62 161.038 134.95 155.508 134.95C149.978 134.95 149.287 134.279 149.287 128.907C149.287 123.535 149.978 122.864 155.508 122.864C161.234 122.864 161.728 122.305 161.728 115.815C161.728 109.325 162.221 108.765 167.948 108.765C173.675 108.765 174.169 109.325 174.169 115.815ZM174.169 189.332C174.169 194.895 174.745 195.375 181.426 195.375C188.106 195.375 188.683 195.854 188.683 201.417C188.683 206.98 188.106 207.46 181.426 207.46C174.745 207.46 174.169 207.939 174.169 213.502C174.169 218.604 173.362 219.545 168.985 219.545C164.608 219.545 163.801 218.604 163.801 213.502C163.801 207.939 163.225 207.46 156.544 207.46C149.864 207.46 149.287 206.98 149.287 201.417C149.287 195.854 149.864 195.375 156.544 195.375C163.225 195.375 163.801 194.895 163.801 189.332C163.801 184.23 164.608 183.29 168.985 183.29C173.362 183.29 174.169 184.23 174.169 189.332ZM136.847 225.587C136.847 230.959 137.537 231.63 143.067 231.63C148.597 231.63 149.287 232.3 149.287 237.672C149.287 243.044 148.597 243.715 143.067 243.715C137.537 243.715 136.847 244.386 136.847 249.757C136.847 255.129 136.156 255.8 130.626 255.8C125.097 255.8 124.406 255.129 124.406 249.757C124.406 244.386 123.716 243.715 118.186 243.715C112.656 243.715 111.966 243.044 111.966 237.672C111.966 232.3 112.656 231.63 118.186 231.63C123.716 231.63 124.406 230.959 124.406 225.587C124.406 220.215 125.097 219.545 130.626 219.545C136.156 219.545 136.847 220.215 136.847 225.587ZM213.564 225.587C213.564 230.959 214.254 231.63 219.784 231.63C225.314 231.63 226.004 232.3 226.004 237.672C226.004 243.044 225.314 243.715 219.784 243.715C214.254 243.715 213.564 244.386 213.564 249.757C213.564 255.129 212.873 255.8 207.344 255.8C201.814 255.8 201.123 255.129 201.123 249.757C201.123 244.386 200.433 243.715 194.903 243.715C189.373 243.715 188.683 243.044 188.683 237.672C188.683 232.3 189.373 231.63 194.903 231.63C200.433 231.63 201.123 230.959 201.123 225.587C201.123 220.215 201.814 219.545 207.344 219.545C212.873 219.545 213.564 220.215 213.564 225.587ZM99.5249 261.842C99.5249 267.214 100.215 267.885 105.745 267.885C111.275 267.885 111.966 268.556 111.966 273.927C111.966 279.299 111.275 279.97 105.745 279.97C100.215 279.97 99.5249 280.641 99.5249 286.012C99.5249 291.384 98.8345 292.055 93.3046 292.055C87.7747 292.055 87.0843 291.384 87.0843 286.012C87.0843 280.641 86.3938 279.97 80.864 279.97C75.3341 279.97 74.6437 279.299 74.6437 273.927C74.6437 268.556 75.3341 267.885 80.864 267.885C86.3938 267.885 87.0843 267.214 87.0843 261.842C87.0843 256.471 87.7747 255.8 93.3046 255.8C98.8345 255.8 99.5249 256.471 99.5249 261.842ZM250.886 261.842C250.886 267.214 251.576 267.885 257.106 267.885C262.636 267.885 263.326 268.556 263.326 273.927C263.326 279.299 262.636 279.97 257.106 279.97C251.576 279.97 250.886 280.641 250.886 286.012C250.886 291.384 250.195 292.055 244.665 292.055C239.136 292.055 238.445 291.384 238.445 286.012C238.445 280.641 237.755 279.97 232.225 279.97C226.695 279.97 226.004 279.299 226.004 273.927C226.004 268.556 226.695 267.885 232.225 267.885C237.755 267.885 238.445 267.214 238.445 261.842C238.445 256.471 239.136 255.8 244.665 255.8C250.195 255.8 250.886 256.471 250.886 261.842ZM163.801 286.012C163.801 291.576 163.225 292.055 156.544 292.055C149.864 292.055 149.287 292.534 149.287 298.097C149.287 303.469 148.597 304.14 143.067 304.14C137.537 304.14 136.847 304.811 136.847 310.182C136.847 315.554 137.537 316.225 143.067 316.225C148.597 316.225 149.287 316.896 149.287 322.267C149.287 327.831 149.864 328.31 156.544 328.31C163.225 328.31 163.801 327.831 163.801 322.267C163.801 317.166 164.608 316.225 168.985 316.225C173.362 316.225 174.169 317.166 174.169 322.267C174.169 327.831 174.745 328.31 181.426 328.31C188.106 328.31 188.683 327.831 188.683 322.267C188.683 316.896 189.373 316.225 194.903 316.225C200.433 316.225 201.123 315.554 201.123 310.182C201.123 304.811 200.433 304.14 194.903 304.14C189.373 304.14 188.683 303.469 188.683 298.097C188.683 292.534 188.106 292.055 181.426 292.055C174.745 292.055 174.169 291.576 174.169 286.012C174.169 280.911 173.362 279.97 168.985 279.97C164.608 279.97 163.801 280.911 163.801 286.012Z" fill="url(#paint0_linear_401_3)"/>
<defs>
<linearGradient id="paint0_linear_401_3" x1="168.985" y1="0" x2="168.985" y2="328.31" gradientUnits="userSpaceOnUse">
<stop stop-color="#AEB1B1"/>
<stop offset="1" stop-color="#4D4D4D"/>
</linearGradient>
</defs>
</svg>
