<svg width="74" height="75" viewBox="0 0 74 75" fill="none" xmlns="http://www.w3.org/2000/svg">
<path fill-rule="evenodd" clip-rule="evenodd" d="M36.786 0.0451383C36.786 0.071861 36.7042 0.0939194 36.6042 0.0941624C36.3093 0.0948912 35.424 0.315573 35.0689 0.476881C34.2258 0.85994 33.597 1.50726 33.3188 2.27838C33.1942 2.62403 33.0734 2.65639 32.8956 2.39179C32.6129 1.97127 32.1136 1.54118 31.6216 1.29445C31.0658 1.01566 30.7825 0.953469 30.0457 0.948465C29.3796 0.943898 29.0832 0.991319 28.3847 1.21419C27.738 1.42054 27.1084 1.872 26.6674 2.44577L26.5214 2.63574L26.2981 2.57938C26.0197 2.50912 25.2073 2.50645 24.7451 2.57423C22.9154 2.84253 21.227 3.73142 19.7654 5.19593C19.5118 5.45009 19.1875 5.81531 19.0448 6.00752C18.8002 6.33723 18.7727 6.35856 18.5602 6.38475C16.8132 6.59999 15.0232 7.36106 13.7524 8.42899C12.7724 9.25249 11.9966 10.2775 11.7639 11.0561L11.704 11.2565L11.3946 11.2882C10.6855 11.361 10.0549 11.6788 9.42723 12.2796C8.75227 12.9257 8.34513 13.5452 8.14801 14.2258C7.93877 14.9482 8.00874 16.0061 8.30357 16.5773C8.36297 16.6925 8.36758 16.7494 8.325 16.8431C8.27365 16.956 8.2576 16.9601 8.01723 16.9213C7.87772 16.8988 7.5454 16.8834 7.27869 16.8871C6.86176 16.8928 6.74267 16.9143 6.42907 17.0401C5.80042 17.2924 5.48057 17.5073 4.97184 18.0192C4.43581 18.5587 4.14054 19.0961 3.92921 19.9172C3.80551 20.3979 3.81511 21.3488 3.94808 21.7883C4.06606 22.1781 4.32234 22.6312 4.56863 22.8855C4.72109 23.0429 4.73214 23.0723 4.68132 23.1841C4.63196 23.2926 4.58487 23.3124 4.3041 23.3425C3.85022 23.3912 3.36593 23.5783 2.90754 23.8819C2.20004 24.3505 1.76652 24.9391 1.43615 25.8796C1.19771 26.5585 1.12235 27.0361 1.15935 27.6333C1.18743 28.086 1.28471 28.4695 1.45511 28.7997C1.53298 28.9506 1.53201 28.9545 1.36976 29.1355C0.992736 29.5564 0.698244 30.1137 0.425865 30.9221C0.187479 31.6296 0.0970413 32.0814 0.0248368 32.9263C-0.0558537 33.8697 0.0639214 35.093 0.328105 36.0237C0.502337 36.6376 0.522752 36.6997 0.690679 37.1265C0.854243 37.5421 0.855649 37.5521 0.777722 37.7338C-0.0611393 39.6896 -0.220629 42.0254 0.355406 43.9191C0.6032 44.7337 0.988565 45.5009 1.34416 45.8875L1.52877 46.0881L1.38377 46.4622C1.07197 47.2668 1.08157 48.1138 1.4134 49.0689C1.71371 49.9334 1.9616 50.3509 2.44827 50.8115C3.02799 51.3602 3.64427 51.6381 4.55102 51.7597C4.65101 51.7731 4.73268 51.769 4.73238 51.7506C4.73214 51.7323 4.54118 51.5187 4.30808 51.2761C3.67444 50.6166 3.27811 49.8 3.27811 49.1539C3.27811 48.59 3.46083 48.1149 3.88058 47.5874C4.31133 47.046 4.53774 46.4825 4.64044 45.6959C4.71376 45.1341 4.65703 44.6834 4.44812 44.1695C4.20169 43.5632 3.71885 42.9788 3.27811 42.7534C3.06295 42.6434 2.70377 42.5349 2.6693 42.5694C2.6548 42.5839 2.75037 42.738 2.88169 42.9118C3.17584 43.3012 3.30236 43.6187 3.30236 43.9677C3.30236 44.3149 3.16236 44.5878 2.91015 44.7321C2.67531 44.8665 2.55117 44.8692 2.30915 44.7455C1.83005 44.5006 1.4393 43.562 1.26647 42.2409C1.17439 41.5373 1.17429 41.2512 1.26579 40.5981C1.35866 39.9351 1.59437 39.0118 1.6707 39.0118C1.68927 39.0118 1.80202 39.146 1.92126 39.3101C2.0405 39.4741 2.33048 39.8023 2.56567 40.0393C3.60218 41.0838 4.38639 41.5585 5.89333 42.0537C5.94153 42.0695 5.87985 42.1612 5.69131 42.354C5.14806 42.9095 4.87834 43.5748 4.87834 44.3596C4.87834 45.1398 5.06029 45.731 5.48309 46.3247C5.70756 46.6398 6.08114 47.0021 6.27375 47.0914C6.42223 47.1602 6.391 47.2208 6.1613 47.3096C5.44609 47.586 4.89173 48.2035 4.61387 49.0335C4.50467 49.3597 4.48726 49.495 4.48546 50.0331C4.48328 50.666 4.52508 50.919 4.7304 51.516L4.82825 51.8007L4.58895 52.0697C4.04244 52.684 3.78485 53.6173 3.90429 54.5505C4.08414 55.9562 4.88353 57.1277 6.12478 57.8046C6.66595 58.0997 7.39129 58.2173 8.00782 58.1097C8.30381 58.058 8.34872 58.0605 8.39992 58.1306C8.44667 58.1947 8.4314 58.2683 8.32035 58.5136C8.16484 58.8574 8.03032 59.4943 8.03032 59.8873C8.03032 60.2023 8.14651 60.7938 8.277 61.1433C8.56916 61.9257 9.59879 63.0603 10.3822 63.4632C10.6422 63.5969 11.1382 63.7402 11.4522 63.7725C11.7476 63.8028 11.7606 63.8098 11.7914 63.9555C11.8507 64.2357 12.1889 64.8535 12.5318 65.3078C13.4932 66.5818 14.9947 67.6465 16.5891 68.1849C17.1708 68.3812 18.0473 68.5907 18.4472 68.629L18.8019 68.6629L19.0745 69.0086C20.4936 70.8076 22.5254 72.0764 24.5418 72.4228C25.1317 72.5242 26.1849 72.5353 26.4048 72.4424C26.5687 72.3732 26.5718 72.3742 26.6925 72.5396C26.7597 72.6316 26.9706 72.8613 27.1613 73.0502C27.6397 73.5243 28.0699 73.7378 29.0273 73.9766C29.4682 74.0865 30.6656 74.1004 31.0155 73.9997C31.6625 73.8134 32.4139 73.3178 32.7955 72.8254C32.9706 72.5994 33.0477 72.5367 33.1503 72.5367C33.2664 72.5367 33.2907 72.5667 33.3641 72.8002C33.636 73.6666 34.4644 74.4274 35.501 74.7629C36.0434 74.9385 36.7484 75.0549 36.7755 74.9735C36.7857 74.9427 36.8663 74.9175 36.9546 74.9175C37.1987 74.9175 37.8342 74.7793 38.2395 74.638C39.1828 74.3092 39.9507 73.5838 40.2532 72.7358C40.3725 72.4015 40.4915 72.3599 40.6518 72.5964C41.0562 73.1935 41.7012 73.6735 42.4407 73.9276C42.7817 74.0448 42.897 74.0595 43.5022 74.0632C44.2112 74.0674 44.726 73.9792 45.3433 73.7479C45.9465 73.5217 46.5419 73.0676 46.9284 72.5389C47.0495 72.3732 47.0537 72.3718 47.2462 72.4296C47.7083 72.5683 48.9055 72.4807 49.7766 72.2444C51.6147 71.7459 53.5883 70.3615 54.6696 68.8123C54.7592 68.6839 54.8181 68.6537 55.0312 68.6272C55.3589 68.5865 56.0199 68.461 56.207 68.404C57.3338 68.0608 57.3977 68.0374 58.0255 67.7374C59.2654 67.145 60.4177 66.2065 61.1319 65.2077C61.3918 64.8441 61.6545 64.3562 61.8487 63.8761C61.8919 63.7693 61.9346 63.7422 62.0614 63.7408C62.7701 63.7332 63.5972 63.3078 64.2901 62.5945C64.9083 61.9582 65.2363 61.4353 65.4237 60.7872C65.6333 60.0626 65.5636 59.0056 65.2685 58.4339C65.2095 58.3195 65.2046 58.2615 65.2464 58.1696C65.2962 58.06 65.3156 58.0547 65.5299 58.0914C65.6564 58.113 65.9891 58.1279 66.2691 58.1244C66.715 58.1188 66.8235 58.0998 67.142 57.9709C67.6092 57.7819 67.6864 57.7398 68.0683 57.4664C68.67 57.0356 69.2055 56.3597 69.4395 55.7355C69.6704 55.1196 69.7248 54.8157 69.7238 54.1466C69.7231 53.5996 69.7067 53.4679 69.6014 53.1635C69.4531 52.7352 69.2746 52.4226 69.02 52.1458C68.8358 51.9457 68.8308 51.9317 68.9029 51.8215C68.9633 51.729 69.0374 51.6995 69.2779 51.6723C70.363 51.5493 71.4548 50.7171 71.938 49.6448C72.4877 48.4248 72.5774 47.2317 72.1846 46.3637L72.0438 46.0526L72.2051 45.8726C72.5667 45.4689 72.8733 44.897 73.1264 44.1542C73.3645 43.4554 73.4766 42.9068 73.545 42.1056C73.6492 40.8856 73.4398 39.3829 73.005 38.2315C72.9501 38.0861 72.8874 37.9101 72.8657 37.8403C72.8439 37.7706 72.8011 37.6666 72.7705 37.6092C72.7243 37.5227 72.745 37.424 72.8917 37.0317C72.9889 36.7715 73.1099 36.4163 73.1605 36.2425C73.2111 36.0687 73.2729 35.8609 73.2978 35.7808C73.3228 35.7006 73.3769 35.4273 73.418 35.1734C73.7317 33.2362 73.5126 31.4501 72.7836 30.0023C72.5278 29.4942 72.4263 29.3364 72.2027 29.099L72.0415 28.9278L72.1847 28.5582C72.5446 27.6297 72.4824 26.6701 71.9847 25.4724C71.5145 24.3407 70.5852 23.5583 69.4308 23.3222C69.1857 23.2721 68.8392 23.251 68.8392 23.2863C68.8392 23.2954 69.0192 23.4869 69.2392 23.7119C69.8877 24.375 70.2909 25.2017 70.2929 25.8724C70.2946 26.4297 70.1169 26.8862 69.6892 27.4238C69.0985 28.1661 68.7959 29.2408 68.9301 30.1192C69.0721 31.0487 69.6407 31.9262 70.3265 32.2745C70.572 32.399 70.9243 32.4903 70.9243 32.4293C70.9243 32.4105 70.8467 32.3042 70.7517 32.1931C70.5234 31.9258 70.2883 31.4397 70.2583 31.1726C70.2157 30.7942 70.3955 30.4193 70.6979 30.2561C70.9249 30.1335 71.0804 30.1507 71.3398 30.3269C71.7934 30.6351 72.1422 31.5251 72.3113 32.8057C72.4262 33.6758 72.3587 34.5014 72.0918 35.49C71.9528 36.0051 71.9147 36.0601 71.8072 35.9022C71.3517 35.2334 70.3567 34.2946 69.6029 33.8222C69.012 33.452 67.9494 32.987 67.6941 32.987C67.5834 32.987 67.6163 32.92 67.8232 32.7235C68.1984 32.3672 68.3948 32.0459 68.5748 31.4933C68.7184 31.0526 68.7364 30.3611 68.6178 29.844C68.4585 29.1498 67.9624 28.3842 67.4431 28.0312C67.1931 27.8612 67.1206 27.7396 67.2694 27.7396C67.3128 27.7396 67.4906 27.6695 67.6645 27.5837C68.2771 27.2815 68.7933 26.6075 69.015 25.8205C69.1792 25.2373 69.0813 23.9659 68.837 23.5085C68.7576 23.3598 68.7858 23.1932 68.9151 23.0464C69.5555 22.3198 69.8152 21.3416 69.6446 20.2985C69.4939 19.377 69.1321 18.6557 68.5009 18.0182C67.5997 17.1081 66.636 16.7381 65.5912 16.9011C65.2716 16.951 65.2216 16.9484 65.1714 16.8795C65.1256 16.8169 65.1412 16.7414 65.2497 16.5008C65.4151 16.1337 65.5421 15.5392 65.5407 15.1383C65.5394 14.7747 65.3917 14.0812 65.2476 13.7626C64.8508 12.8852 63.8424 11.8382 63.0624 11.4936C62.7756 11.3669 62.1845 11.2201 61.9611 11.2201C61.8211 11.2201 61.7594 11.1508 61.7594 10.9936C61.7594 10.9535 61.6817 10.7657 61.5868 10.5763C60.9539 9.3125 59.7125 8.13514 58.1923 7.35659C57.2333 6.86542 55.9937 6.47318 55.1268 6.38655L54.774 6.35132L54.4148 5.90389C53.3007 4.51595 51.7398 3.40754 50.1456 2.87231C49.0718 2.5118 47.7678 2.3947 47.0854 2.59755C47.003 2.62204 46.9484 2.5804 46.8032 2.38217C46.3378 1.74699 45.7013 1.34707 44.7387 1.08495C44.2829 0.960855 44.1533 0.946473 43.5022 0.947688C43.0579 0.948562 42.6899 0.973439 42.5566 1.01173C41.9099 1.19733 41.1761 1.68115 40.7851 2.17985C40.6046 2.41005 40.5255 2.47448 40.4236 2.47448C40.3123 2.47448 40.2836 2.44402 40.2293 2.26799C39.8839 1.14738 38.8038 0.322569 37.3449 0.0653019C36.8829 -0.0161783 36.786 -0.0196766 36.786 0.0451383ZM30.5496 2.42079C29.8674 2.5889 29.4184 2.99081 29.0982 3.71981C28.8164 4.36164 28.6762 4.60074 28.3896 4.92851C27.9063 5.48113 27.4279 5.81284 26.7967 6.03289C26.5334 6.12471 26.3817 6.14259 25.8753 6.14157C25.1939 6.14021 24.9098 6.07044 24.4933 5.8021C24.2506 5.64565 23.9982 5.40723 24.0365 5.37055C24.0477 5.35986 24.1878 5.3723 24.3479 5.39824C25.2191 5.53958 25.9397 5.2108 26.0509 4.62134C26.1027 4.34682 25.9547 4.1001 25.6481 3.94982C25.4077 3.83195 25.3517 3.82384 24.9402 3.84672C24.3086 3.8819 23.2812 4.18459 22.6346 4.52601C22.0323 4.84401 21.4042 5.30787 20.9293 5.78534C20.6624 6.05368 20.4554 6.29156 20.4692 6.31396C20.483 6.33631 20.6194 6.36857 20.7723 6.38558C22.2917 6.55466 23.8641 7.24027 24.8891 8.18067C25.0801 8.35587 25.2492 8.49925 25.2649 8.49925C25.2806 8.49925 25.2934 8.44799 25.2934 8.38541C25.2934 8.23883 25.4404 7.81155 25.598 7.49992C25.8207 7.05953 26.2926 6.60694 26.8452 6.30366C27.135 6.14459 27.3306 6.07899 27.7665 5.9946C28.2343 5.90403 28.5934 5.90544 29.0092 5.99955C29.3531 6.07739 29.9589 6.34807 29.9836 6.43484C29.9912 6.46191 29.855 6.52492 29.6808 6.57487C29.0687 6.75051 28.5561 7.14416 28.1693 7.73556C27.8169 8.27444 27.6931 8.59803 27.5518 9.34986C27.3845 10.2396 27.393 10.4161 27.6942 12.3133C27.8807 13.4883 27.9274 14.0489 27.9291 15.1314C27.9309 16.3282 27.8727 16.8326 27.5855 18.1098C27.561 18.2187 27.567 18.2208 27.821 18.1883C28.4989 18.1017 29.4012 17.7369 29.9487 17.3282C30.8852 16.629 31.1108 16.2606 31.1119 15.4281C31.1133 14.455 30.6636 13.7972 29.9972 13.7975C29.5988 13.7976 29.3369 13.8971 28.888 14.2185L28.7728 14.301L28.8091 14.1331C28.8754 13.8263 29.1317 13.3913 29.4085 13.1157C29.7673 12.7585 30.0639 12.6205 30.5348 12.5916C31.1612 12.5531 31.4793 12.7616 32.1053 13.6213C32.488 14.1467 33.0016 14.6307 33.323 14.7688C34.0263 15.0708 34.9272 14.987 35.7766 14.5406C36.1452 14.3469 36.5932 13.9616 36.5905 13.8406C36.5887 13.7567 35.5882 13.1335 35.085 12.9028C34.704 12.7281 34.1831 12.5806 33.9461 12.5804C33.5758 12.5801 31.8469 12.2696 31.274 12.1005C30.7065 11.933 30.0704 11.4544 29.6844 10.9043C28.8348 9.69342 28.9419 8.34615 29.971 7.301L30.3651 6.90084L30.2575 6.68881C30.0088 6.19832 29.9262 5.44231 30.0646 4.92156C30.3362 3.89978 31.243 3.07016 32.4945 2.69847L32.8824 2.58322L32.6157 2.50514C31.9337 2.30545 31.148 2.27338 30.5496 2.42079ZM41.1745 2.41593C40.9879 2.46277 40.8578 2.51539 40.8854 2.53288C40.9131 2.55037 41.0768 2.613 41.2491 2.67208C41.7044 2.8281 42.0027 2.9861 42.3921 3.27748C43.2397 3.91158 43.6963 4.97131 43.5079 5.8672C43.4668 6.06306 43.3777 6.34447 43.31 6.49257C43.1761 6.78569 43.1572 6.89588 43.2411 6.89588C43.2708 6.89588 43.4428 7.05039 43.6232 7.23925C44.7048 8.37127 44.6874 9.95302 43.5802 11.1333C43.2114 11.5266 42.7629 11.834 42.3626 11.968C41.829 12.1466 40.8219 12.3425 39.8408 12.4584C39.5073 12.4979 39.1146 12.5652 38.968 12.608C38.6062 12.7139 37.7181 13.1518 37.2552 13.4527L36.8758 13.6993L37.0319 13.8968C37.4753 14.4577 38.5375 14.9573 39.2931 14.9605C39.5814 14.9616 39.9702 14.872 40.2532 14.7392C40.5736 14.5888 41.1056 14.0716 41.5095 13.518C42.0814 12.7339 42.3698 12.556 43.0134 12.5898C43.4839 12.6146 43.8095 12.7661 44.1664 13.1265C44.3971 13.3596 44.7387 13.9913 44.7387 14.185C44.7387 14.2838 44.7352 14.2834 44.5811 14.1676C44.212 13.8904 44.0103 13.8207 43.5749 13.8201C43.1012 13.8194 42.9769 13.8775 42.7549 14.2034C42.522 14.5454 42.4382 14.8771 42.4407 15.4472C42.4427 15.9091 42.4566 15.9872 42.5886 16.2731C42.978 17.1173 44.6107 18.0902 45.7813 18.1755C46.0002 18.1915 45.9962 18.2081 45.8805 17.755C45.6735 16.9441 45.6358 16.5288 45.6358 15.0585C45.6358 13.5954 45.6394 13.5507 45.8798 12.0218C46.1022 10.6075 46.1142 10.4517 46.0481 9.82776C45.8606 8.05536 45.0152 6.8385 43.7646 6.54086C43.6336 6.50972 43.5264 6.462 43.5264 6.43489C43.5264 6.38426 43.825 6.21329 44.0841 6.11548C44.6291 5.90977 45.3054 5.86643 45.8874 5.9999C46.6429 6.1732 47.4511 6.72253 47.837 7.3251C48.0096 7.59452 48.2301 8.15851 48.2301 8.33031C48.2301 8.45888 48.342 8.4959 48.4095 8.38959C48.476 8.28498 48.9533 7.87807 49.2654 7.65991C50.1894 7.01419 51.532 6.49942 52.5944 6.38354C53.1691 6.32091 53.1698 6.34073 52.5701 5.74574C51.844 5.02524 50.983 4.47383 50.1213 4.17745C48.8192 3.72953 47.8527 3.71996 47.5701 4.15219C47.4574 4.32447 47.4628 4.69913 47.5807 4.88468C47.8385 5.29053 48.1662 5.40995 48.9402 5.38027C49.3181 5.36579 49.4879 5.37546 49.4767 5.41083C49.4677 5.4393 49.3247 5.56601 49.1589 5.69244C48.7279 6.02098 48.3154 6.13973 47.624 6.13419C46.702 6.12685 46.0498 5.83829 45.3377 5.12276C44.9165 4.69942 44.8758 4.63946 44.5282 3.92801C44.053 2.95573 43.7705 2.66037 43.1102 2.44582C42.7392 2.32527 41.6055 2.30778 41.1745 2.41593ZM36.6223 7.7789C36.3426 8.39581 36.156 9.32183 36.1558 10.0945C36.1557 10.3707 36.1393 10.5893 36.1193 10.5804C36.0992 10.5715 35.9372 10.4909 35.7592 10.4014C34.9118 9.97527 33.7043 10.0367 33.1381 10.5347C32.9862 10.6685 32.7232 11.1497 32.7742 11.2008C32.7851 11.2117 32.9096 11.1986 33.0509 11.1718C33.5646 11.0742 34.506 11.1504 35.1229 11.3395C35.5192 11.461 36.0757 11.8645 36.4367 12.2919L36.7551 12.669L36.8843 12.4669C36.9553 12.3557 37.1595 12.1227 37.338 11.9491C37.8425 11.4583 38.1701 11.2806 38.812 11.1494C39.202 11.0697 40.0378 11.031 40.4957 11.0715C40.7289 11.0921 40.7376 11.0883 40.7253 10.9743C40.7069 10.8032 40.4753 10.4913 40.2519 10.3365C39.9184 10.1055 39.6291 10.0323 39.0651 10.0362C38.4916 10.0402 38.0791 10.1347 37.6654 10.3566C37.5223 10.4334 37.3953 10.4864 37.3834 10.4744C37.3714 10.4624 37.3542 10.1497 37.3451 9.77956C37.3323 9.2574 37.3015 9.00315 37.2077 8.64501C37.0565 8.06765 36.8684 7.56313 36.7953 7.53874C36.7647 7.52849 36.6868 7.63654 36.6223 7.7789ZM53.3945 7.74625C52.317 7.9181 51.2243 8.3703 50.3656 8.99979C49.9337 9.31643 49.1469 10.1416 48.851 10.5885C47.9663 11.9242 47.5456 13.4056 47.5402 15.2042C47.5372 16.1842 47.6319 16.9017 47.8945 17.8887C47.9504 18.0989 47.9963 18.1088 48.3821 17.9924C49.0927 17.7783 49.5703 17.5928 50.1383 17.3103C52.7597 16.0065 54.3484 13.8984 54.6354 11.343C54.7575 10.2558 54.444 8.47102 54.0099 7.78259C53.9329 7.66035 53.9333 7.66035 53.3945 7.74625ZM19.5409 7.77798C19.3987 7.96402 19.1329 8.72999 19.0191 9.28208C18.7616 10.5316 18.8211 11.6435 19.2076 12.8065C19.8544 14.7528 21.3597 16.3465 23.5547 17.4089C24.2093 17.7257 25.0873 18.0274 25.3872 18.0386C25.6009 18.0465 25.6026 18.0453 25.664 17.8364C25.9403 16.8969 26.0628 15.6081 25.9779 14.5353C25.7242 11.3322 24.012 8.97482 21.2648 8.04594C20.5422 7.80164 19.6311 7.66001 19.5409 7.77798ZM17.4862 7.86699C16.4199 8.11561 15.4804 8.58792 14.6135 9.31119C13.5862 10.1683 13.0852 11.0264 13.3295 11.5102C13.4311 11.7114 13.6883 11.8517 13.9555 11.8517C14.2497 11.8517 14.5021 11.7277 14.7362 11.468C14.9162 11.2684 15.2071 10.7445 15.2071 10.6201C15.2071 10.5826 15.2375 10.5265 15.2746 10.4957C15.3288 10.4506 15.3526 10.4698 15.3958 10.5942C15.4718 10.8126 15.4617 11.4927 15.3783 11.7679C15.0828 12.7435 14.3098 13.5272 13.3159 13.8586C12.7104 14.0606 12.2735 14.1139 11.7732 14.0472C10.948 13.9371 10.5067 13.983 10.0262 14.2286C9.63472 14.4287 9.25634 14.8615 8.91084 15.5045C8.76992 15.7668 8.53284 16.453 8.57033 16.49C8.58002 16.4996 8.69708 16.4096 8.83044 16.2901C9.36385 15.8118 9.98159 15.4868 10.5723 15.3735C11.2516 15.2433 11.6951 15.2945 12.275 15.5701C12.6838 15.7644 12.9922 16.0263 13.2446 16.3935C13.3781 16.5877 13.4529 16.6564 13.507 16.6342C14.2971 16.3111 15.0771 16.2919 15.7648 16.5786C16.9403 17.0686 17.6798 18.4489 17.4911 19.8006C17.459 20.0304 17.393 20.331 17.3445 20.4686C17.296 20.6063 17.1856 20.936 17.0993 21.2014C17.013 21.4668 16.8665 21.8494 16.7737 22.0517C16.5375 22.5668 16.4245 22.8582 16.3402 23.1702C16.2491 23.5078 16.1776 24.6808 16.2187 25.1645L16.2497 25.5289L16.4194 25.5143C16.951 25.4684 17.7025 25.0518 18.1721 24.5427C18.5485 24.1346 18.8418 23.4784 18.8434 23.0408C18.8444 22.7865 18.6583 22.0644 18.5082 21.7392C18.0693 20.7892 17.9978 20.2942 18.2325 19.8305C18.5865 19.131 19.3887 18.7625 20.2615 18.8986C20.4687 18.9309 20.6382 18.9758 20.6382 18.9985C20.6382 19.0212 20.5159 19.0977 20.3665 19.1685C19.5743 19.5441 19.3003 20.1971 19.6736 20.82C20.0707 21.4827 21.0199 21.9868 21.6831 21.8871C22.1403 21.8184 22.8211 21.5244 23.3811 21.1536C23.9501 20.777 24.7415 19.9688 24.6341 19.874C24.61 19.8527 24.4376 19.7956 24.2509 19.747C23.6183 19.5824 22.501 19.0937 21.7778 18.6653C21.1855 18.3144 20.1174 17.58 19.7411 17.265C18.4957 16.222 17.8814 15.8039 17.1953 15.5321C16.5707 15.2847 16.2525 15.2283 15.4981 15.2312C14.8589 15.2336 14.7658 15.2454 14.4738 15.3603C14.0751 15.5173 13.8026 15.6878 13.5059 15.9657C13.2359 16.2189 13.1938 16.1902 13.2397 15.7843C13.3869 14.4803 14.1898 13.4533 15.4029 13.017C15.8574 12.8536 16.623 12.8266 17.0623 12.9587C17.2393 13.0119 17.3926 13.0469 17.4029 13.0366C17.4132 13.0262 17.3836 12.8592 17.3372 12.6655C17.0127 11.3137 17.1701 9.64964 17.7578 8.21929C17.8485 7.99852 17.9227 7.80723 17.9227 7.79416C17.9227 7.76481 17.9286 7.76384 17.4862 7.86699ZM55.6163 7.83118C55.9778 8.68267 56.0917 9.04945 56.2637 9.91687C56.4184 10.6972 56.3454 12.34 56.1309 12.9053C56.0798 13.0401 56.0681 13.0396 56.5189 12.9195C57.6271 12.6242 58.857 13.0805 59.6379 14.0764C60.0087 14.5493 60.2172 15.0656 60.2838 15.6758C60.3358 16.1534 60.3009 16.1782 59.9841 15.888C58.9952 14.9825 57.4652 14.9249 55.8502 15.7323C55.4195 15.9477 55.2798 16.0486 54.0753 17.0144C52.7562 18.0721 51.6275 18.7913 50.5092 19.2867C50.1012 19.4675 49.2468 19.7714 49.1465 19.7714C49.1261 19.7714 49.0519 19.7933 48.9817 19.82L48.854 19.8687L48.9647 20.0265C49.1596 20.3043 49.7612 20.8677 50.1135 21.1023C50.4967 21.3576 51.1182 21.6543 51.5446 21.7855C52.1896 21.984 52.9798 21.7548 53.5399 21.2069C53.8271 20.9259 54.0479 20.5222 54.0487 20.2767C54.0502 19.8039 53.626 19.2905 53.0672 19.0888C52.9672 19.0526 52.8853 19.0074 52.8853 18.9883C52.8853 18.9327 53.3498 18.8482 53.6515 18.8488C54.6309 18.8509 55.4554 19.5485 55.4554 20.3751C55.4554 20.6559 55.3756 20.9185 55.0758 21.6231C54.8641 22.1207 54.7154 22.7245 54.7211 23.0635C54.736 23.9634 55.6786 25.0972 56.7043 25.4492C57.1191 25.5915 57.1826 25.5856 57.2193 25.4014C57.236 25.3179 57.2492 24.908 57.2488 24.4904C57.2477 23.5015 57.1587 23.0759 56.7808 22.2526C56.6 21.8587 56.3688 21.2379 56.1555 20.5731C55.9778 20.0191 55.9687 19.9597 55.9724 19.3827C55.976 18.8232 55.9887 18.7417 56.1337 18.3473C56.4833 17.3965 57.1297 16.7587 58.0177 16.4887C58.1509 16.4482 58.4552 16.4197 58.7588 16.4194C59.1801 16.419 59.3427 16.4414 59.6515 16.5424C59.8591 16.6103 60.0439 16.6486 60.062 16.6274C60.0801 16.6063 60.1963 16.4544 60.3202 16.29C60.9892 15.4022 62.166 15.0927 63.3373 15.4964C63.7999 15.6559 64.4031 16.0538 64.7944 16.4575C64.8857 16.5517 64.973 16.6163 64.9883 16.601C65.038 16.5512 64.8645 15.9663 64.6905 15.5973C64.3401 14.8538 63.9066 14.371 63.3647 14.1206C63.0127 13.9579 62.9551 13.954 61.4927 13.9919C60.9038 14.0073 60.7656 13.9955 60.4501 13.9032C59.8017 13.7136 59.4036 13.4798 58.9457 13.02C58.3035 12.375 58.0379 11.7299 58.0872 10.9353C58.119 10.4223 58.216 10.2811 58.3184 10.5986C58.5787 11.4056 59.2262 11.9502 59.7555 11.8074C60.4473 11.6208 60.4272 10.9175 59.7053 10.0465C58.8695 9.03827 57.4703 8.17809 56.1668 7.87122C55.6703 7.75437 55.5809 7.74786 55.6163 7.83118ZM20.1758 8.8758C20.2559 9.08365 20.3956 9.89535 20.394 10.1444C20.3931 10.2951 20.3607 10.5496 20.3221 10.71C20.2265 11.1066 20.23 11.7883 20.329 12.0808C20.5513 12.7369 21.2108 13.329 21.9179 13.5074C22.1215 13.5588 22.1453 13.5781 22.1163 13.6684C22.0982 13.7248 22.072 13.9085 22.0582 14.0767C22.0123 14.6319 22.2966 15.3551 22.7323 15.7916C22.9948 16.0546 23.2966 16.2353 23.9114 16.4974C24.2975 16.6621 24.4008 16.7353 24.8067 17.132C25.0591 17.3787 25.2729 17.5732 25.2819 17.5642C25.2908 17.5552 25.2446 17.354 25.1791 17.117C25 16.4688 24.9872 16.3194 25.0514 15.6246C25.1222 14.8575 25.0811 14.5618 24.834 14.0575C24.6206 13.6221 24.2141 13.209 23.8081 13.0148C23.6439 12.9363 23.4746 12.8721 23.4317 12.8721C23.337 12.8721 23.3373 12.8826 23.4265 12.6291C23.5177 12.3701 23.5207 11.7073 23.4319 11.4145C23.1829 10.5928 22.7423 10.1655 21.8302 9.86099C21.3043 9.68545 21.0864 9.55402 20.5906 9.11329C20.22 8.78378 20.1176 8.72518 20.1758 8.8758ZM53.0308 9.03847C52.5839 9.44655 52.2007 9.69492 51.8428 9.80857C50.9052 10.1063 50.462 10.4779 50.1942 11.1906C50.0282 11.6326 49.9918 12.0866 50.0912 12.4754C50.188 12.8539 50.1881 12.8721 50.0941 12.8721C49.9099 12.8721 49.4484 13.1508 49.1746 13.4273C48.6138 13.9938 48.4323 14.532 48.5017 15.4229C48.5657 16.2458 48.5455 16.5373 48.3869 17.0748C48.3081 17.3421 48.2512 17.5695 48.2605 17.5803C48.2697 17.5911 48.4761 17.4017 48.719 17.1595C48.9619 16.9172 49.2514 16.675 49.3622 16.6212C49.473 16.5673 49.778 16.4235 50.0399 16.3015C50.4088 16.1297 50.5815 16.0141 50.8062 15.789C51.2995 15.2948 51.6024 14.4475 51.4839 13.8937C51.4063 13.5315 51.4104 13.5192 51.6152 13.4917C52.1585 13.4187 52.861 12.8513 53.1353 12.264C53.338 11.8298 53.3629 11.4332 53.2343 10.6857C53.137 10.1197 53.1449 9.77694 53.2664 9.28884C53.3445 8.97501 53.3692 8.79067 53.3327 8.79286C53.3133 8.79403 53.1775 8.90456 53.0308 9.03847ZM36.6925 15.022C36.3627 16.7601 34.7514 17.9144 33.4735 17.3282C33.1221 17.167 32.8545 16.916 32.5683 16.4794L32.3315 16.1179L32.2737 16.3291C31.9466 17.5233 31.2963 18.4209 30.3191 19.0265C29.2877 19.6658 28.6251 19.8712 27.0174 20.0498L26.6805 20.0872L26.3426 20.5919C25.944 21.187 25.3804 21.7782 24.811 22.1981C24.3934 22.5062 23.5244 22.9624 23.0871 23.1033C22.7146 23.2233 21.5818 23.2507 21.1231 23.1509C20.9231 23.1074 20.6997 23.0589 20.6266 23.0433L20.4939 23.0148L20.6806 23.385C21.0133 24.0446 21.0578 24.6119 20.8175 25.1282C20.5758 25.6473 20.0723 26.0709 19.4351 26.2909C18.9891 26.445 17.9573 26.4472 17.5105 26.2951C17.3505 26.2406 17.2139 26.201 17.207 26.2071C17.2 26.2132 17.3419 26.3711 17.5222 26.5582C18.2072 27.2689 18.5643 28.273 18.4105 29.0561C18.21 30.0773 17.4694 30.6549 16.3606 30.6549H16.0652L16.3295 30.9342C16.9543 31.5947 17.3801 32.3811 17.5068 33.1085C17.6518 33.9417 17.5918 35.0549 17.3559 35.9022C17.2679 36.2186 16.9896 36.892 16.7987 37.2508L16.6628 37.5061L16.9224 38.0524C17.4115 39.0816 17.5343 39.5864 17.569 40.7123C17.5884 41.3411 17.5761 41.6081 17.5121 41.9502C17.3804 42.654 16.9654 43.4396 16.4051 44.0458C16.2543 44.209 16.1448 44.3565 16.162 44.3737C16.1791 44.3909 16.3065 44.4049 16.4451 44.4049C17.7119 44.4049 18.5243 45.2705 18.4445 46.5353C18.4004 47.2366 18.0507 47.9753 17.5018 48.5272C17.2095 48.821 17.1311 48.9204 17.2493 48.8472C17.4231 48.7396 18.0402 48.6336 18.4976 48.6328C19.3352 48.6315 19.9588 48.861 20.4294 49.344C20.8376 49.763 20.9758 50.0811 20.9769 50.6043C20.9777 50.9787 20.8764 51.3391 20.6565 51.7439C20.5845 51.8765 20.5346 51.9941 20.5457 52.0052C20.5568 52.0163 20.7404 51.9808 20.9536 51.9262C21.2466 51.8513 21.5073 51.8259 22.0202 51.8225C22.806 51.8173 23.1175 51.8904 23.866 52.2557C24.9536 52.7864 25.7241 53.4825 26.5206 54.654C26.7511 54.993 26.7561 54.9969 26.9711 54.9969C27.5341 54.9969 28.3878 55.1361 28.9061 55.3125C29.9651 55.673 31.0159 56.3583 31.5064 57.0087C31.7666 57.3535 32.107 58.0314 32.2285 58.4465C32.2872 58.647 32.3463 58.8293 32.3597 58.8517C32.3733 58.8741 32.4448 58.7863 32.5187 58.6566C32.8212 58.126 33.2645 57.7473 33.7594 57.5969C34.0625 57.5048 34.2284 57.5052 34.632 57.5989C35.1257 57.7137 35.4117 57.884 35.8423 58.3195C36.2989 58.7814 36.5798 59.2981 36.7169 59.9284L36.8015 60.3171L36.9097 59.8755C37.2022 58.6829 37.9665 57.8306 38.9562 57.5936C39.7945 57.3928 40.4549 57.6942 41.0001 58.5263L41.2392 58.8912L41.3696 58.4627C41.7072 57.3538 42.2956 56.5867 43.2839 55.9672C44.1203 55.4429 45.0004 55.1366 45.9297 55.0464C46.9394 54.9484 46.8416 54.9954 47.2307 54.4205C47.861 53.4891 48.6456 52.7935 49.6271 52.2961C50.437 51.8856 50.6286 51.8319 51.3876 51.8031C51.9479 51.7819 52.123 51.7942 52.5442 51.8846C52.8171 51.9431 53.0527 51.9788 53.0677 51.9638C53.0826 51.9488 53.0606 51.8981 53.0186 51.8512C52.9107 51.7305 52.7173 51.2751 52.6441 50.9692C52.4216 50.0399 53.0491 49.0933 54.1332 48.7226C54.5828 48.5689 55.6136 48.5664 56.0616 48.7179C56.2216 48.7721 56.3594 48.8099 56.3678 48.802C56.3762 48.7941 56.2718 48.6833 56.1357 48.5557C55.6545 48.1047 55.2704 47.3821 55.1591 46.7183C55.0098 45.828 55.4117 44.9343 56.1101 44.6037C56.4408 44.4471 56.8254 44.3601 57.1967 44.3581L57.5075 44.3564L57.2178 44.0527C56.6187 43.4246 56.1915 42.6277 56.0653 41.9027C55.9233 41.0873 55.9858 39.9145 56.2136 39.1207C56.3138 38.7715 56.4941 38.3307 56.7188 37.886L56.9071 37.5132L56.649 36.9628C56.3196 36.2605 56.1966 35.8989 56.0815 35.295C55.9661 34.6902 55.9576 33.665 56.0629 33.0603C56.1829 32.3704 56.6081 31.5704 57.1885 30.9422C57.3625 30.754 57.4309 30.6485 57.3879 30.635C57.3518 30.6237 57.147 30.6027 56.9327 30.5884C56.3618 30.5502 56.0282 30.4075 55.6736 30.0497C55.3047 29.6773 55.1627 29.341 55.1292 28.76C55.101 28.2707 55.1869 27.8803 55.4308 27.389C55.6231 27.0015 55.963 26.5465 56.2037 26.3542C56.2989 26.2782 56.3768 26.201 56.3768 26.1826C56.3768 26.1643 56.2513 26.1937 56.0979 26.2478C55.7003 26.3883 54.6567 26.4218 54.262 26.3069C53.4747 26.0775 52.8689 25.5546 52.6532 24.9182C52.5068 24.4862 52.6116 23.8269 52.9155 23.2673C52.9876 23.1347 53.0375 23.0175 53.0266 23.0068C53.0155 22.9961 52.8429 23.0286 52.6429 23.079C51.9258 23.2597 50.9742 23.2468 50.3849 23.0482C49.973 22.9094 49.3703 22.6018 48.923 22.302C48.1794 21.8037 47.6742 21.2797 47.0567 20.3663L46.8289 20.0293L46.2842 19.9961C45.9846 19.9778 45.5743 19.9293 45.3724 19.8882C44.2754 19.6648 43.1029 19.0617 42.3429 18.33C41.973 17.9738 41.5207 17.1703 41.3406 16.5493C41.281 16.344 41.216 16.176 41.1959 16.176C41.1759 16.176 41.1042 16.2705 41.0366 16.3861C40.6165 17.1045 39.9135 17.5349 39.2591 17.4743C38.912 17.4421 38.4214 17.2739 38.1721 17.1014C37.935 16.9374 37.5104 16.5092 37.3506 16.2731C37.1509 15.978 36.9453 15.4849 36.8593 15.0949C36.8137 14.8878 36.7704 14.7184 36.7632 14.7184C36.756 14.7184 36.7242 14.855 36.6925 15.022ZM35.3798 19.9451C33.413 20.1509 31.6079 20.5741 30.3124 21.1329C30.259 21.1559 30.0517 21.2443 29.8517 21.3293C26.459 22.7721 23.5699 25.3369 21.5913 28.6628C21.3455 29.0761 20.7147 30.3352 20.5889 30.664C20.5345 30.806 20.4706 30.9658 20.4468 31.0193C20.0249 31.9669 19.5599 33.7628 19.3461 35.2706C19.2355 36.0502 19.2196 38.8109 19.3212 39.5705C19.474 40.7124 19.7566 42.0057 20.0379 42.8502C20.1839 43.2882 20.3875 43.8579 20.4459 43.9919C20.4693 44.0454 20.546 44.2312 20.6164 44.4049C20.7972 44.8514 21.324 45.8943 21.6426 46.4367C23.1541 49.01 25.3173 51.1661 27.9516 52.7251C28.4679 53.0307 29.5401 53.566 30.1012 53.7983C30.8878 54.124 32.2564 54.5546 32.9794 54.7038C34.5864 55.0356 34.9353 55.0691 36.786 55.0695C38.4409 55.0698 38.7128 55.0498 39.841 54.8458C40.8453 54.6641 41.449 54.5112 42.3141 54.2193C43.3111 53.883 43.7187 53.7143 44.5932 53.2763C48.0489 51.5457 50.7883 48.8041 52.511 45.3524C53.4086 43.5537 53.9077 41.9211 54.2274 39.7376C54.3552 38.8646 54.355 36.1494 54.2272 35.2736C53.8047 32.3806 52.9752 30.1626 51.4187 27.7639C50.8803 26.9342 49.7835 25.6034 49.0919 24.9407C47.2978 23.2214 45.5138 22.0573 43.2597 21.135C43.2064 21.1132 43.0973 21.0684 43.0172 21.0355C42.5533 20.8449 41.1301 20.4186 40.5684 20.3022C39.23 20.0246 38.5869 19.9594 37.0285 19.9429C36.215 19.9343 35.4731 19.9353 35.3798 19.9451ZM35.2828 20.359C32.9476 20.6193 31.165 21.1177 29.294 22.0332C27.4876 22.9172 26.1541 23.8678 24.7314 25.2857C23.2882 26.7241 22.4286 27.8852 21.5398 29.5967C19.4187 33.6814 19.0327 38.4291 20.4621 42.8502C21.9736 47.5247 25.5094 51.3875 30.0699 53.3464C33.0911 54.6441 36.6266 55.0359 39.883 54.4339C42.932 53.8701 45.7653 52.4955 48.0893 50.4523C51.8385 47.1561 53.9522 42.4887 53.9522 37.5056C53.9522 34.0525 52.9649 30.7918 51.0581 27.947C50.4238 27.0008 49.9185 26.3793 49.0789 25.5128C46.2284 22.5709 42.5903 20.812 38.4649 20.3812C37.6916 20.3005 35.9186 20.2881 35.2828 20.359ZM15.2799 20.8373C14.9698 20.9211 14.8467 20.9981 14.5535 21.2919C14.1005 21.7458 13.8511 22.2943 13.7463 23.067C13.7149 23.2987 13.6828 23.4962 13.675 23.5058C13.6673 23.5154 13.5015 23.4265 13.3066 23.3083C12.8868 23.0537 12.3614 22.8289 11.8604 22.6894C11.4327 22.5703 10.8429 22.504 10.8429 22.5751C10.8429 22.6475 11.4198 23.3099 11.7191 23.581C11.997 23.8328 12.5085 24.1842 12.8924 24.3871C13.0186 24.4538 13.1218 24.5194 13.1216 24.5328C13.1214 24.5462 13.0355 24.6062 12.9308 24.6661C12.6516 24.8259 12.1841 25.2762 11.984 25.5783C11.7748 25.8941 11.5869 26.3756 11.5428 26.7091C11.5034 27.0068 11.6095 27.3619 11.8154 27.6216L11.9578 27.8011L12.0338 27.6124C12.29 26.9772 12.8796 26.1305 13.315 25.7727C13.7459 25.4185 14.429 25.1498 15.0132 25.1047C15.2171 25.089 15.2171 25.0874 15.0101 24.5086C14.8709 24.1195 14.8533 24.0124 14.8509 23.5369C14.8486 23.0741 14.866 22.9526 14.9804 22.6309C15.1728 22.0898 15.454 21.5376 15.7065 21.2047C15.8282 21.0444 15.9128 20.8986 15.8947 20.8807C15.838 20.8249 15.4321 20.7962 15.2799 20.8373ZM57.6224 20.8793C57.542 20.9134 57.5467 20.9318 57.679 21.0987C58.0948 21.6229 58.5294 22.5725 58.6081 23.129C58.686 23.6796 58.5911 24.2824 58.3342 24.8669C58.2711 25.0105 58.2195 25.1458 58.2195 25.1676C58.2195 25.1894 58.3231 25.2198 58.4498 25.2352C59.3638 25.3465 59.8873 25.5703 60.3826 26.0616C60.7833 26.4591 61.2741 27.1823 61.4255 27.5986C61.4836 27.7582 61.5552 27.8808 61.5847 27.871C61.6938 27.8349 61.9022 27.4641 61.9561 27.2102C62.0553 26.7422 61.8627 26.1245 61.4359 25.542C61.2499 25.2881 60.784 24.8743 60.5444 24.7501C60.4658 24.7095 60.4018 24.6604 60.402 24.641C60.4022 24.6216 60.5482 24.5293 60.7265 24.4357C61.173 24.2015 61.7223 23.7823 62.104 23.3848C62.4782 22.995 62.7861 22.5938 62.7526 22.5395C62.7247 22.4942 62.457 22.5205 61.9291 22.6206C61.2636 22.7468 60.797 22.9292 60.1685 23.3091C59.9736 23.4269 59.8063 23.5154 59.7967 23.5057C59.787 23.496 59.7546 23.3086 59.7246 23.0893C59.6946 22.8699 59.6364 22.5748 59.5953 22.4334C59.4236 21.8443 58.9466 21.2043 58.5118 20.9798C58.2864 20.8635 57.7915 20.8075 57.6224 20.8793ZM4.18869 23.8648C3.73534 24.399 3.40356 25.0347 3.27578 25.6141C3.22579 25.8407 3.22593 25.9602 3.27637 26.2457C3.35153 26.6709 3.49283 26.9672 3.84702 27.4423C4.33039 28.0907 4.5358 28.5982 4.63264 29.3828C4.72361 30.1201 4.55262 30.8244 4.12303 31.4817C3.8751 31.861 3.62454 32.1019 3.27254 32.2992C3.02469 32.4381 2.64772 32.5478 2.64772 32.4808C2.64772 32.4637 2.7383 32.3356 2.84901 32.1961C3.40177 31.4996 3.46228 30.8151 3.00656 30.4142C2.70329 30.1474 2.24034 30.2381 1.96093 30.6192C1.80255 30.8352 1.63215 31.1973 1.54787 31.4972C1.50908 31.6351 1.44681 31.8575 1.40947 31.9912C1.30948 32.3495 1.19296 33.2433 1.19296 33.6517C1.19296 34.0187 1.2963 34.836 1.39144 35.222C1.49671 35.649 1.63952 36.0527 1.68021 36.0383C1.7029 36.0303 1.82185 35.8925 1.94454 35.7322C2.26938 35.3076 3.05321 34.5257 3.46718 34.2132C3.95225 33.8471 4.51179 33.5308 5.10563 33.287C5.37728 33.1754 5.62134 33.0842 5.64801 33.0842C5.67463 33.0842 5.75285 33.0627 5.8218 33.0364L5.94725 32.9886L5.65082 32.6842C5.32777 32.3524 5.03502 31.8109 4.9215 31.3351C4.76526 30.6804 4.91719 29.6833 5.27321 29.0272C5.52319 28.5664 6.43169 27.7251 6.55059 27.8442C6.56562 27.8593 6.54467 27.9995 6.50399 28.1559C6.18118 29.3978 6.88596 30.8184 8.29911 31.7738C8.68991 32.038 9.05951 32.2229 9.6548 32.452C9.86816 32.5341 10.0864 32.6207 10.1397 32.6445C10.1931 32.6682 10.4004 32.7473 10.6004 32.8201C11.1539 33.0215 11.4756 33.1665 12.3219 33.5958C13.5098 34.1984 14.4068 34.8092 15.1421 35.5161C15.3959 35.76 15.5018 35.834 15.5357 35.791C15.6084 35.6988 15.827 34.9877 15.8899 34.639C16.0164 33.9373 15.9094 32.6968 15.6799 32.2023C15.3076 31.4005 14.033 30.8186 13.3397 31.1342C12.8996 31.3345 12.6533 31.8433 12.6974 32.4611C12.7104 32.6435 12.7045 32.7927 12.6841 32.7927C12.6637 32.7927 12.5808 32.717 12.4998 32.6246C11.9498 31.997 11.79 31.157 12.0958 30.5015C12.363 29.9291 12.6959 29.755 13.8009 29.6099C14.1376 29.5656 14.6117 29.4638 14.8677 29.3807C15.2902 29.2436 15.3525 29.2066 15.6193 28.9346C16.1507 28.3929 16.3709 27.7977 16.3709 26.9035C16.3709 26.3401 16.2348 25.7476 16.1052 25.7476C15.9667 25.7476 14.9321 26.3527 14.4747 26.7014C14.1717 26.9323 13.8602 27.2807 13.438 27.8611C13.0955 28.332 12.9999 28.4454 12.3862 29.1087C11.8525 29.6855 11.5554 29.906 11.029 30.1163C9.40895 30.7635 7.75382 30.0331 7.21182 28.4318C7.15523 28.2647 7.10897 28.0752 7.10897 28.0107C7.10897 27.8152 7.05699 27.7397 6.92194 27.7388C6.64748 27.737 6.09889 27.5873 5.76672 27.4235C5.13705 27.1131 4.62071 26.4121 4.42262 25.5987C4.3058 25.1191 4.32306 24.4032 4.46684 23.7677C4.518 23.5414 4.44017 23.5686 4.18869 23.8648ZM57.3067 25.9181C57.2766 25.9843 57.2265 26.2371 57.1955 26.4798C57.1017 27.2123 57.2415 27.9264 57.5826 28.4578C57.7548 28.7261 58.0465 29.0481 58.2214 29.1629C58.4196 29.2929 59.0849 29.4881 59.5045 29.5393C60.6125 29.6746 60.941 29.7824 61.2322 30.1063C61.6188 30.5363 61.7234 31.2358 61.4928 31.8496C61.3753 32.1623 61.1381 32.5356 60.9466 32.7093C60.8548 32.7925 60.8531 32.7864 60.8576 32.3926C60.8651 31.7409 60.6963 31.3602 60.3034 31.1429C59.6331 30.7721 58.3079 31.3144 57.8965 32.1277C57.6416 32.6319 57.5402 33.991 57.7031 34.7228C57.7953 35.1374 57.9652 35.6585 58.0361 35.7446C58.0744 35.7912 58.1685 35.7277 58.4322 35.4774C59.4822 34.4809 61.0417 33.5396 62.7535 32.8689C64.3579 32.2402 64.8032 32.0425 65.178 31.7918C66.1114 31.1678 66.7353 30.4056 67.0232 29.5374C67.1294 29.2172 67.1451 28.3653 67.0509 28.0379C66.9928 27.8362 66.9827 27.8274 66.8416 27.8557C66.7601 27.872 66.6221 27.8854 66.535 27.8854C66.3801 27.8854 66.3753 27.8918 66.327 28.1648C66.1624 29.095 65.4836 29.9636 64.6846 30.2664C63.7905 30.6052 62.9223 30.5436 62.0268 30.0781C61.515 29.812 60.8133 29.0901 59.9665 27.9583C59.7065 27.6109 59.3653 27.2049 59.2082 27.056C58.9248 26.7875 58.1539 26.247 57.6329 25.9515L57.3615 25.7976L57.3067 25.9181ZM65.1296 34.4739C64.0044 34.5802 63.0513 34.8474 62.0167 35.3465C61.3955 35.6462 61.0952 35.8303 60.4577 36.3022C59.9471 36.6802 59.1893 37.388 59.1893 37.487C59.1893 37.6369 60.1579 38.4945 60.8865 38.9897C62.459 40.0586 64.539 40.6433 66.1636 40.4732C68.0525 40.2754 69.6374 39.4043 70.8546 37.8947C70.9997 37.7149 71.1183 37.5306 71.1183 37.4851C71.1183 37.2732 70.1156 36.2068 69.4938 35.7576C68.6525 35.1497 67.5972 34.7078 66.6086 34.5492C66.2392 34.49 65.4075 34.4477 65.1296 34.4739ZM7.32719 34.5469C6.14597 34.671 4.91258 35.1616 3.97673 35.8798C3.37563 36.3411 2.45375 37.3409 2.45375 37.5315C2.45375 37.7147 3.30144 38.6484 3.90569 39.1308C4.70518 39.769 5.79969 40.2555 6.87088 40.4489C7.46592 40.5563 8.57862 40.5575 9.16988 40.4513C11.0111 40.1206 12.6499 39.2684 14.0312 37.9233C14.2246 37.735 14.3828 37.5582 14.3828 37.5305C14.3828 37.4668 13.8754 36.9439 13.5436 36.6657C12.1067 35.4607 10.3879 34.7199 8.61921 34.5434C8.05927 34.4874 7.88867 34.4879 7.32719 34.5469ZM66.2206 35.9687C65.7913 36.0465 65.3036 36.2861 65.0054 36.5656C64.7953 36.7626 64.7506 36.7861 64.7135 36.7195C64.6469 36.6002 64.1898 36.3156 63.9189 36.2247C63.1098 35.9533 62.3084 36.132 61.4787 36.7691C61.273 36.927 61.0603 37.0791 61.006 37.107C60.9114 37.1556 60.1964 37.3646 59.8925 37.4325C59.7535 37.4635 59.7513 37.468 59.8411 37.5338C59.8929 37.5718 59.9878 37.6028 60.0522 37.6028C60.1165 37.6028 60.3687 37.6697 60.6126 37.7515C60.9341 37.8592 61.1497 37.9707 61.3957 38.1563C61.9103 38.5446 61.9987 38.5983 62.3596 38.7417C62.6669 38.8637 62.7354 38.8726 63.2325 38.8556C63.8821 38.8333 64.2083 38.7228 64.5599 38.406L64.7952 38.1941L64.9624 38.3672C65.1869 38.5996 65.5565 38.8315 65.8812 38.9439C66.265 39.0766 67.0337 39.0685 67.3359 38.9285C67.5892 38.8112 67.9281 38.5733 68.1967 38.3243C68.4962 38.0467 68.7386 37.9152 69.3045 37.7231C69.8526 37.5371 69.9721 37.4753 69.8535 37.4394C68.8182 37.1255 68.6379 37.0383 68.1295 36.6061C67.6637 36.2101 67.3584 36.0409 66.9578 35.9564C66.6577 35.8932 66.6352 35.8935 66.2206 35.9687ZM6.55132 35.9837C6.19815 36.0622 5.7417 36.3446 5.26628 36.7784C5.01456 37.0081 4.79266 37.1189 4.15097 37.3349C3.8976 37.4202 3.6997 37.5099 3.71119 37.5343C3.72269 37.5586 3.86452 37.6178 4.02639 37.6659C4.63574 37.8471 4.98488 38.0148 5.26022 38.2587C6.10805 39.0097 6.61562 39.1982 7.36923 39.0421C7.84474 38.9435 8.22434 38.7571 8.54298 38.4655C8.76609 38.2613 8.80207 38.2438 8.85832 38.3117C9.09418 38.5964 9.66639 38.8479 10.1839 38.8942C10.85 38.9538 11.3926 38.7675 12.0899 38.2397C12.5008 37.9286 12.913 37.7479 13.4756 37.632C13.63 37.6002 13.7609 37.554 13.7665 37.5296C13.7721 37.5051 13.5584 37.4274 13.2917 37.3569C12.669 37.1922 12.5983 37.1588 12.1 36.7932C11.8712 36.6254 11.533 36.4164 11.3483 36.3288C11.027 36.1763 10.9876 36.1695 10.4307 36.1695C9.7272 36.1695 9.37447 36.2788 9.00559 36.6111L8.77312 36.8205L8.55932 36.6015C8.10112 36.132 7.17099 35.8458 6.55132 35.9837ZM71.6396 39.2699C71.5159 39.4387 71.2017 39.792 70.9413 40.0551C70.0229 40.9827 69.2365 41.4605 67.7577 41.9895L67.6217 42.0381L67.9172 42.3305C68.4222 42.8303 68.7061 43.5416 68.7076 44.3111C68.7094 45.2721 68.4226 45.9872 67.7724 46.6422C67.4054 47.0119 67.0864 47.2322 67.0178 47.1634C67.0046 47.1501 67.0176 47.0764 67.0468 46.9996C67.1337 46.7704 67.1594 46.1082 67.0959 45.7311C66.946 44.8404 66.2443 43.8992 65.2009 43.1893C64.8298 42.9368 64.4982 42.7846 63.3838 42.3552C62.3076 41.9404 62.1917 41.8901 61.3472 41.4713C60.0767 40.8411 58.9356 40.0503 58.2377 39.3163C58.1222 39.1948 58.0749 39.1715 58.0381 39.218C57.9582 39.3192 57.7411 40.0351 57.688 40.3722C57.567 41.141 57.6675 42.3265 57.8949 42.8133C58.1793 43.4219 58.94 43.9031 59.6985 43.9541C60.0033 43.9747 60.0651 43.9626 60.3042 43.8364C60.5294 43.7175 60.5931 43.6515 60.7164 43.41C60.8477 43.1528 60.8623 43.0791 60.8623 42.6714C60.8623 42.4223 60.8781 42.2185 60.8975 42.2185C60.9452 42.2185 61.3107 42.6854 61.403 42.8644C61.7604 43.5569 61.6767 44.4354 61.2077 44.915C60.9436 45.1851 60.6287 45.295 59.8197 45.399C59.1258 45.4883 58.5023 45.6601 58.2154 45.8411C57.8152 46.0935 57.4211 46.6973 57.2794 47.2747C57.1649 47.7412 57.1748 48.5363 57.3001 48.9427C57.3612 49.1409 57.4253 49.2636 57.4678 49.2636C57.5654 49.2636 58.2183 48.9082 58.7044 48.5905C59.2286 48.248 59.5994 47.8763 60.1174 47.1744C60.6958 46.3907 61.5491 45.4754 61.9444 45.2147C62.9655 44.5413 64.2157 44.484 65.1849 45.0663C65.5466 45.2836 65.7869 45.5182 66.0284 45.8895C66.2344 46.2064 66.4626 46.7965 66.4638 47.0156C66.465 47.2221 66.5126 47.2589 66.8268 47.2963C68.0131 47.4376 68.8734 48.227 69.1578 49.435C69.2488 49.8218 69.2293 50.8504 69.1249 51.1706C69.0921 51.2708 69.082 51.3692 69.1024 51.3893C69.1992 51.4848 69.9054 50.4945 70.1192 49.9635C70.3233 49.4564 70.3662 49.1647 70.2957 48.7655C70.2196 48.3352 70.094 48.0783 69.6869 47.5205C69.2322 46.8973 69.0451 46.4289 68.9385 45.6459C68.7586 44.3249 69.569 42.8782 70.67 42.555C70.7836 42.5218 70.8891 42.5072 70.9046 42.5227C70.9201 42.5382 70.8422 42.6655 70.7317 42.8058C70.4233 43.1965 70.2472 43.6102 70.246 43.946C70.2453 44.1552 70.4599 44.5617 70.6216 44.6574C71.0608 44.9174 71.5342 44.6646 71.8355 44.0091C72.134 43.3597 72.3763 42.1859 72.3782 41.3801C72.3791 40.9968 72.2784 40.1856 72.1806 39.7892C72.0853 39.4026 71.9358 38.9632 71.8996 38.9632C71.8802 38.9632 71.7633 39.1012 71.6396 39.2699ZM15.1344 39.5347C14.1794 40.4558 13.0487 41.1686 11.2793 41.9653C11.1593 42.0193 10.7447 42.184 10.3579 42.3313C8.7449 42.9455 8.27996 43.2023 7.62546 43.8405C7.08482 44.3677 6.74029 44.8899 6.54778 45.4738C6.43877 45.8045 6.42335 46.7123 6.52188 46.9976C6.58434 47.1785 6.59312 47.1843 6.76298 47.1561C6.85992 47.14 6.99827 47.1266 7.07042 47.1263C7.18447 47.1258 7.20528 47.102 7.22996 46.9436C7.30774 46.4447 7.4619 46.0695 7.76517 45.641C8.74776 44.2528 10.9228 44.1577 12.2242 45.4462C12.7387 45.9556 13.085 46.3569 13.5477 46.98C14.04 47.6429 14.2726 47.907 14.6003 48.1748C14.9532 48.4633 16.1676 49.2452 16.2005 49.2051C16.3321 49.045 16.4405 48.2949 16.397 47.8451C16.3534 47.3935 16.2083 46.9154 16.0206 46.6038C15.8378 46.3007 15.431 45.8826 15.2261 45.7873C14.9455 45.6569 14.2528 45.4802 13.8978 45.4484C13.3977 45.4036 12.9125 45.2984 12.696 45.1877C12.0418 44.8532 11.7709 43.9483 12.0861 43.15C12.2146 42.8245 12.4436 42.4669 12.634 42.2941L12.7363 42.2014L12.7051 42.5381C12.636 43.2826 12.9651 43.8493 13.5353 43.9679C14.2995 44.1269 15.3588 43.5662 15.6929 42.8259C15.8137 42.5582 15.8855 42.1977 15.9596 41.4861C15.9911 41.1839 15.9202 40.5004 15.8112 40.0564C15.7233 39.698 15.5455 39.206 15.5043 39.2067C15.4876 39.2071 15.3211 39.3546 15.1344 39.5347ZM11.902 47.2108C11.7585 47.3824 11.6805 47.5447 11.6204 47.7973C11.4426 48.5445 12.0856 49.7038 12.9644 50.2206C13.0777 50.2873 13.1703 50.3561 13.1701 50.3736C13.17 50.3911 13.0118 50.4906 12.8186 50.5948C12.3156 50.8659 11.891 51.1913 11.4699 51.6281C11.1025 52.0093 10.7641 52.4562 10.8089 52.5011C10.8411 52.5334 11.5835 52.4295 11.8883 52.3501C12.469 52.1988 12.974 51.9824 13.4516 51.6802C13.6195 51.5739 13.7655 51.4956 13.776 51.5061C13.7865 51.5167 13.8173 51.6996 13.8445 51.9128C13.9094 52.4217 14.015 52.7685 14.2158 53.1315C14.5873 53.8035 15.0878 54.1716 15.6284 54.1702C16.0465 54.1691 16.0709 54.132 15.8384 53.8509C15.6368 53.607 15.3246 53.0058 15.0837 52.3975C14.9642 52.096 14.9492 51.9967 14.9515 51.5229C14.9541 50.9608 15.0214 50.637 15.2379 50.1443C15.301 50.0007 15.3526 49.8656 15.3526 49.8441C15.3526 49.8227 15.2272 49.7902 15.0738 49.7719C14.1945 49.6674 13.6818 49.4444 13.1893 48.9523C12.7921 48.5553 12.2514 47.753 12.1304 47.3809C12.0403 47.104 12.0102 47.0816 11.902 47.2108ZM61.5138 47.4499C61.2123 48.1574 60.6037 49.0023 60.173 49.3113C59.7122 49.6419 59.1163 49.8665 58.5831 49.9105C58.3531 49.9294 58.3535 49.9186 58.5609 50.5026C58.6972 50.8861 58.717 51.0056 58.7225 51.4743C58.728 51.9531 58.7138 52.0494 58.5867 52.3975C58.3885 52.9403 58.0099 53.6734 57.8104 53.9002C57.7181 54.0052 57.6529 54.1078 57.6654 54.1282C57.678 54.1486 57.7861 54.18 57.9056 54.1979C58.1637 54.2367 58.5409 54.1283 58.7998 53.9408C59.3378 53.5513 59.7492 52.7173 59.8449 51.8223C59.8639 51.6443 59.8933 51.499 59.9102 51.4995C59.9271 51.5 60.0372 51.5658 60.155 51.6457C60.539 51.9064 61.1112 52.1596 61.6866 52.3233C62.0073 52.4145 62.6826 52.5066 62.7097 52.4627C62.7486 52.3997 62.3435 51.8984 61.9631 51.5389C61.5981 51.1939 61.207 50.9104 60.8138 50.7056C60.4095 50.4951 60.412 50.5141 60.7563 50.2679C61.166 49.9749 61.5538 49.5412 61.7484 49.158C61.9115 48.8369 62.0503 48.3671 62.0503 48.1365C62.0503 47.9445 61.8884 47.5424 61.74 47.3657L61.6137 47.2153L61.5138 47.4499ZM16.3534 49.6066C16.3364 49.6919 16.3228 50.1142 16.3232 50.5451C16.3241 51.5667 16.3858 51.8449 16.8391 52.8694C17.1458 53.5626 17.5259 54.7319 17.5874 55.1718C17.7268 56.1683 17.416 57.1111 16.7175 57.8111C16.1418 58.388 15.6468 58.5909 14.8133 58.5918C14.392 58.5922 14.2294 58.5698 13.9206 58.4688C13.7129 58.4009 13.5282 58.3626 13.5101 58.3838C13.492 58.405 13.3757 58.5568 13.2518 58.7212C12.6006 59.5854 11.4995 59.9026 10.3588 59.5547C9.81608 59.3891 9.12357 58.9514 8.77273 58.552C8.68763 58.4552 8.60408 58.3899 8.58701 58.407C8.53449 58.4596 8.70266 59.0344 8.88155 59.414C9.23117 60.1557 9.66154 60.6358 10.2065 60.892C10.5584 61.0576 10.6169 61.0615 12.0794 61.0201C12.6161 61.0049 12.7675 61.0182 13.0977 61.1093C13.7501 61.2894 14.1589 61.5259 14.6254 61.9932C15.0774 62.4462 15.2896 62.8052 15.4295 63.3538C15.5301 63.7482 15.5028 64.4388 15.3819 64.56C15.3269 64.6151 15.3041 64.6197 15.3041 64.5757C15.3041 64.4181 14.9512 63.7725 14.7434 63.55C14.5661 63.36 14.4537 63.2862 14.2524 63.2276C14.0174 63.1592 13.9695 63.159 13.774 63.2257C13.432 63.3425 13.3159 63.5047 13.3159 63.8659C13.3159 64.6178 14.6608 65.9847 16.0637 66.6588C16.6969 66.963 17.8631 67.3167 17.9491 67.2306C17.9619 67.2177 17.9177 67.0831 17.8508 66.9315C17.6126 66.3919 17.4564 65.8668 17.3141 65.1272C17.1551 64.3007 17.2233 62.6801 17.4412 62.1059C17.4921 61.9718 17.4663 61.9686 17.1893 62.0746C16.8765 62.1943 15.9057 62.1924 15.5466 62.0714C14.4939 61.7164 13.6819 60.8954 13.3945 59.8956C13.2973 59.5572 13.2342 58.8838 13.2997 58.8838C13.3253 58.8838 13.4104 58.9516 13.4887 59.0344C14.2598 59.8499 15.5933 60.0731 16.9528 59.6142C17.7739 59.3371 18.117 59.1167 19.6255 57.8978C21.2395 56.5934 22.9701 55.6284 24.3479 55.2644C24.5345 55.2151 24.6958 55.168 24.7063 55.1599C24.739 55.1344 24.364 54.6933 24.0586 54.3983C23.5453 53.9023 22.7675 53.4535 22.026 53.2253C21.3866 53.0285 20.5882 53.2604 20.0322 53.8044C19.7496 54.0807 19.5242 54.4882 19.5234 54.724C19.5218 55.1752 19.9455 55.7218 20.4321 55.8965C20.8442 56.0444 20.7499 56.1122 20.0806 56.1496C19.548 56.1792 19.224 56.0965 18.8017 55.823C18.3804 55.5502 18.1166 55.0975 18.1166 54.6472C18.1166 54.3868 18.2653 53.8951 18.4957 53.3935C18.5755 53.2198 18.6646 52.9848 18.6939 52.8712C18.7231 52.7576 18.7704 52.575 18.799 52.4653C18.9871 51.7433 18.6737 50.9248 17.9496 50.2473C17.5579 49.8807 16.9498 49.5405 16.5837 49.483C16.3896 49.4525 16.3835 49.4557 16.3534 49.6066ZM57.1284 49.4962C56.9295 49.5195 56.5943 49.6354 56.307 49.78C55.5109 50.1806 54.9302 50.8983 54.7712 51.6778C54.7166 51.9453 54.721 52.0314 54.8109 52.4588C54.8664 52.723 54.9593 53.0435 55.0172 53.171C55.2358 53.6517 55.4104 54.1271 55.4551 54.3635C55.6265 55.2688 54.8005 56.1182 53.734 56.1337C53.3455 56.1394 52.9338 56.0797 52.9338 56.0178C52.9338 55.9947 53.0494 55.9227 53.1907 55.8579C53.6458 55.6492 53.995 55.2532 54.0659 54.8655C54.1386 54.4678 53.7776 53.8825 53.2394 53.5257C52.6036 53.104 52.0413 53.024 51.3919 53.2629C50.6079 53.5513 49.9891 53.9321 49.4742 54.4431C49.0608 54.8534 48.8806 55.0866 48.9379 55.1372C48.962 55.1585 49.1345 55.2156 49.3212 55.2642C49.8116 55.3918 50.6437 55.735 51.2782 56.0713C52.2942 56.6098 53.0203 57.099 54.1219 57.9873C55.533 59.1251 55.8969 59.347 56.8374 59.6431C57.2345 59.7681 57.3394 59.7806 58.0012 59.7813C58.5568 59.782 58.7896 59.7625 58.9867 59.699C59.3464 59.583 59.7244 59.3568 60.0376 59.07C60.3626 58.7725 60.3958 58.8111 60.3083 59.3842C60.1089 60.6895 59.1797 61.7426 57.9458 62.062C57.5317 62.1692 56.8483 62.1626 56.4803 62.0478C56.3192 61.9975 56.1772 61.9666 56.1648 61.979C56.1524 61.9915 56.1595 62.0599 56.1807 62.1311C56.5771 63.4646 56.4333 65.2854 55.8121 66.7972C55.7202 67.021 55.652 67.211 55.6605 67.2195C55.6904 67.2495 56.4528 67.0589 56.8374 66.9254C57.7192 66.6193 58.5262 66.1238 59.2432 65.4484C60.1197 64.6227 60.4672 63.9457 60.2426 63.501C60.0806 63.1803 59.5737 63.0602 59.1962 63.2531C58.8665 63.4216 58.4517 63.9988 58.3467 64.4349C58.2629 64.7835 58.1225 64.4234 58.1225 63.8596C58.1225 62.6715 59.0706 61.5121 60.3603 61.1229C60.9465 60.9461 61.3484 60.9057 61.8557 60.9727C62.1094 61.0062 62.4928 61.0254 62.7075 61.0155C63.2295 60.9912 63.7286 60.7545 64.0725 60.368C64.3906 60.0104 64.7463 59.4075 64.8896 58.9833C65.0558 58.4912 65.046 58.4395 64.8265 58.6485C64.1237 59.3173 63.221 59.7096 62.3898 59.7072C61.5657 59.7049 60.7949 59.2976 60.3274 58.6177C60.192 58.4206 60.12 58.3551 60.0651 58.3789C59.6121 58.5755 59.4383 58.6088 58.8499 58.6111C58.2909 58.6133 58.2173 58.6027 57.9043 58.4742C57.0467 58.1222 56.4838 57.4968 56.1877 56.5667C56.0003 55.9781 56.0172 55.1384 56.2285 54.5405C56.2768 54.4041 56.3879 54.0737 56.4755 53.8065C56.5632 53.5393 56.7105 53.1566 56.8029 52.9562C57.264 51.9564 57.3499 51.5646 57.3594 50.4179C57.3636 49.919 57.3471 49.5396 57.3202 49.5174C57.2947 49.4963 57.2084 49.4867 57.1284 49.4962ZM45.7328 56.827C45.1065 56.9038 44.3452 57.207 43.7142 57.631C42.7563 58.2745 42.4608 58.7359 42.4605 59.5883C42.4601 60.4503 42.8325 61.1095 43.3683 61.1953C43.8038 61.2651 44.195 61.1455 44.6841 60.7932L44.7993 60.7102L44.7625 60.8781C44.6477 61.403 44.1496 62.0429 43.6825 62.2659C43.4814 62.3618 43.304 62.4042 43.0373 62.4202C42.4221 62.4571 42.0955 62.2491 41.5073 61.4463C41.1074 60.9003 40.6183 60.4239 40.3017 60.272C39.6055 59.9381 38.6694 60.0152 37.7801 60.4798C37.4252 60.6652 36.979 61.0511 36.9814 61.1706C36.983 61.2553 37.9236 61.844 38.459 62.0957C38.9327 62.3182 39.2693 62.3977 40.1805 62.5023C40.5672 62.5467 41.0473 62.6228 41.2473 62.6714C41.4473 62.72 41.7092 62.7758 41.8292 62.7955C42.9247 62.9747 43.9219 63.8292 44.3143 64.9248C44.4687 65.3559 44.4686 66.2165 44.3141 66.6301C44.1184 67.1539 43.7676 67.6387 43.3439 67.9705L43.1876 68.093L43.3048 68.3136C43.5632 68.7999 43.6539 69.6245 43.5036 70.1207C43.4184 70.4022 43.2188 70.8084 43.0685 71.0064C42.8657 71.2738 42.4382 71.6769 42.1929 71.8325C41.9257 72.0018 41.3502 72.2461 40.9936 72.3417C40.8674 72.3754 40.7748 72.4205 40.7879 72.4417C40.801 72.4629 41.0052 72.5257 41.2416 72.5814C42.0452 72.7704 43.0664 72.6821 43.5828 72.3789C43.9742 72.149 44.2247 71.8214 44.5828 71.0707C44.8822 70.4428 44.9544 70.3327 45.3191 69.9472C45.7673 69.4734 46.1742 69.2019 46.7362 69.0016C47.0443 68.8918 47.1698 68.8751 47.6967 68.8736C48.3443 68.8719 48.5562 68.9193 49.0137 69.1688C49.2326 69.2882 49.5786 69.6 49.5361 69.6395C49.5246 69.6502 49.3733 69.6384 49.2 69.6134C48.4207 69.5008 47.7933 69.7279 47.5935 70.1948C47.4787 70.463 47.4797 70.5518 47.5995 70.7872C47.7445 71.072 47.9528 71.1522 48.5453 71.1512C49.4849 71.1496 50.6424 70.7385 51.673 70.0403C52.184 69.6943 53.1579 68.7864 53.1069 68.7038C53.0924 68.6803 52.9548 68.6467 52.8011 68.629C51.2342 68.4487 49.7242 67.7888 48.6787 66.8274C48.4601 66.6264 48.3203 66.5285 48.3091 66.5688C48.0928 67.3448 47.9399 67.6603 47.5989 68.0341C46.8151 68.8934 45.5345 69.2813 44.4511 68.9876C44.0717 68.8848 43.6187 68.6662 43.5885 68.5714C43.579 68.5416 43.6496 68.5046 43.7462 68.4889C43.8425 68.4732 44.1023 68.3726 44.3236 68.2653C44.6516 68.1062 44.7903 68.0011 45.0745 67.6962C45.6592 67.0688 45.9689 66.2889 46.1033 65.1052C46.1602 64.6033 46.1294 64.2071 45.9517 63.1595C45.6968 61.6556 45.6387 61.0445 45.6399 59.8799C45.6411 58.6855 45.7019 58.1637 45.9861 56.9039C46.0028 56.8301 45.9893 56.797 45.9446 56.8019C45.9081 56.8059 45.8128 56.8172 45.7328 56.827ZM27.5965 56.9282C27.6831 57.1427 27.8142 57.7994 27.8902 58.398C27.9579 58.9321 27.9681 59.2839 27.9452 60.2928C27.918 61.4938 27.9051 61.626 27.6669 63.1352C27.4855 64.2846 27.4638 64.5872 27.5224 65.1515C27.6174 66.0668 27.8023 66.6494 28.192 67.2618C28.5918 67.8899 29.1429 68.3101 29.7809 68.4732C29.9096 68.5061 30.0231 68.5576 30.033 68.5876C30.0567 68.6587 29.522 68.9121 29.1416 69.0102C28.9777 69.0525 28.6572 69.0871 28.4293 69.0871C27.116 69.0871 25.9244 68.3199 25.4918 67.196C25.4094 66.9818 25.3419 66.7513 25.3419 66.6836C25.3419 66.6159 25.3211 66.5605 25.2957 66.5605C25.2703 66.5605 25.1372 66.6644 24.9998 66.7913C24.4344 67.3141 23.6292 67.8172 22.7961 68.1683C22.3746 68.3459 21.6643 68.5295 21.0287 68.6252C20.7501 68.667 20.5108 68.7127 20.4971 68.7265C20.4832 68.7403 20.7112 68.9863 21.0037 69.2733C21.8975 70.1505 22.7929 70.6707 23.9893 71.0077C25.157 71.3366 25.9273 71.2187 26.0697 70.6891C26.178 70.2861 25.9095 69.8543 25.4541 69.6988C25.197 69.611 24.3725 69.5918 24.2264 69.6703C24.1624 69.7046 24.125 69.7019 24.1 69.6613C24.0568 69.5913 24.403 69.2816 24.6843 69.1385C25.0553 68.9497 25.3929 68.8786 25.9238 68.8773C26.5425 68.8757 26.9314 68.9816 27.4998 69.3064C28.1889 69.7001 28.6907 70.282 29.0498 71.104C29.5657 72.2848 30.1815 72.6873 31.4704 72.686C31.9073 72.6856 32.083 72.6649 32.5794 72.555C32.7581 72.5154 32.7478 72.4549 32.5551 72.4133C32.2311 72.3434 31.7546 72.1254 31.3638 71.8684C30.671 71.4126 30.2201 70.7555 30.0636 69.9738C29.9943 69.6278 29.9943 69.5553 30.0629 69.1908C30.1045 68.9697 30.194 68.6675 30.2618 68.5191C30.3296 68.3707 30.3851 68.2239 30.3851 68.1928C30.3851 68.1617 30.3186 68.0969 30.2373 68.0488C30.0243 67.9227 29.5789 67.3636 29.4102 67.0105C28.925 65.9951 29.1296 64.812 29.9431 63.9286C30.3871 63.4465 30.8445 63.1506 31.3792 62.9996C32.0923 62.7981 32.9694 62.6362 33.8038 62.5519C34.4039 62.4913 34.7634 62.3864 35.3555 62.0992C35.7726 61.8968 36.5686 61.4243 36.6424 61.3352C36.685 61.2839 36.6273 61.2018 36.3753 60.9555C35.532 60.1311 34.2272 59.8377 33.3235 60.2694C32.9938 60.4268 32.5104 60.8944 32.0935 61.4589C31.5819 62.1519 31.3606 62.3337 30.9163 62.4261C30.1914 62.5769 29.3676 62.0893 29 61.2922C28.9083 61.0935 28.8334 60.8846 28.8334 60.828C28.8334 60.7272 28.8365 60.7276 28.993 60.8472C29.6688 61.3637 30.4246 61.3615 30.79 60.8422C31.0626 60.4546 31.1246 60.2286 31.1272 59.6126C31.1293 59.1053 31.1174 59.027 30.9974 58.7624C30.8389 58.4125 30.5895 58.1453 30.0699 57.7685C29.337 57.2371 28.3564 56.8432 27.7665 56.8432C27.5912 56.8432 27.567 56.8552 27.5965 56.9282ZM25.4147 56.9626C25.388 56.9706 25.268 57.0042 25.148 57.0374C24.3005 57.2713 23.155 57.7936 22.4082 58.2865C20.3587 59.6394 19.1473 61.5332 18.9368 63.7136C18.8411 64.7057 19 65.8142 19.3849 66.8391C19.4675 67.0591 19.5643 67.2633 19.5999 67.2929C19.6958 67.3726 20.6016 67.2183 21.2102 67.0185C22.3356 66.6492 23.0987 66.1838 23.9129 65.3702C24.8817 64.4022 25.4512 63.3648 25.7935 61.9448C26.1145 60.613 26.1245 59.048 25.8205 57.7177C25.6332 56.8985 25.6325 56.8972 25.4147 56.9626ZM47.9738 56.972C47.9596 56.9952 47.9143 57.1451 47.8733 57.3052C47.6073 58.3433 47.5108 59.4247 47.5926 60.4516C47.6607 61.3075 47.7452 61.7624 47.9689 62.4785C48.2676 63.435 48.6695 64.1822 49.2813 64.9183C50.361 66.2175 52.0265 67.1048 53.6893 67.2668L54.0325 67.3003L54.1332 67.064C54.5356 66.1202 54.7714 64.8505 54.7051 63.9854C54.5636 62.1405 53.896 60.6991 52.5774 59.3919C51.8039 58.6251 51.0642 58.1083 50.0174 57.6031C49.2418 57.2289 48.0437 56.8589 47.9738 56.972ZM24.8281 57.8803C24.4045 58.3107 24.3635 58.3388 23.7928 58.5892C22.9253 58.9697 22.5861 59.2715 22.2871 59.9284C22.0936 60.3537 22.0216 60.7989 22.0918 61.1372C22.1227 61.2867 22.1362 61.4282 22.1217 61.4517C22.1072 61.4752 22.0208 61.5065 21.9297 61.5214C21.4011 61.6073 20.728 62.1616 20.4397 62.7483C20.2395 63.1558 20.205 63.5865 20.3231 64.2041C20.4288 64.7568 20.4233 65.1521 20.3019 65.7325C20.249 65.9852 20.2146 66.201 20.2256 66.2118C20.2364 66.2227 20.4374 66.0689 20.6721 65.87C21.2299 65.3974 21.334 65.3309 21.6808 65.2255C22.1104 65.095 22.4617 64.931 22.7222 64.7394C23.3354 64.2883 23.676 63.2992 23.4809 62.5359C23.3797 62.1404 23.3769 62.1564 23.554 62.1209C23.9837 62.0348 24.5915 61.5006 24.8542 60.9782C25.0647 60.5593 25.1189 60.2118 25.0707 59.5883C24.9992 58.6649 25.0199 58.4608 25.2665 57.657C25.3054 57.5301 25.322 57.4275 25.3032 57.4291C25.2845 57.4307 25.0707 57.6337 24.8281 57.8803ZM48.2786 57.4472C48.2786 57.4653 48.3315 57.6702 48.3961 57.9026C48.5704 58.5294 48.5871 58.7296 48.5221 59.4083C48.4507 60.1538 48.4929 60.4534 48.7401 60.9579C48.9609 61.4083 49.3614 61.8144 49.7687 62.0009C49.9348 62.0769 50.1039 62.1391 50.1445 62.1391C50.2345 62.1391 50.2345 62.1295 50.1456 62.3821C50.0534 62.6439 50.0517 63.3049 50.1425 63.6045C50.3944 64.4363 50.8033 64.8264 51.7807 65.1675C52.2618 65.3353 52.6526 65.583 53.0945 66.0001C53.3377 66.2298 53.4526 66.2812 53.3963 66.1354C53.3161 65.9276 53.1764 65.1159 53.178 64.8668C53.179 64.7161 53.2114 64.4616 53.25 64.3013C53.3456 63.9046 53.3421 63.2229 53.243 62.9304C53.0249 62.2866 52.3465 61.6785 51.6505 61.5029C51.4505 61.4524 51.4268 61.433 51.4558 61.3429C51.5345 61.0978 51.5345 60.6478 51.4558 60.3443C51.2303 59.4746 50.7555 58.9821 49.7123 58.5358C49.2764 58.3494 49.1851 58.2861 48.7546 57.872C48.4928 57.6203 48.2786 57.4291 48.2786 57.4472ZM36.786 62.3788C36.786 62.4586 36.5243 62.7846 36.2133 63.0921C35.9615 63.3411 35.5925 63.5955 35.3143 63.712C34.8585 63.9028 33.7148 64.028 33.1593 63.9478C32.9876 63.9231 32.843 63.9222 32.8283 63.9459C32.7787 64.0264 33.0133 64.4234 33.2102 64.5922C33.5427 64.8775 33.8653 64.9749 34.4845 64.977C35.0803 64.979 35.4575 64.8933 35.9067 64.6538C36.0498 64.5774 36.1784 64.5265 36.1923 64.5405C36.2064 64.5545 36.2137 64.738 36.2086 64.9481C36.2036 65.1583 36.2233 65.5251 36.2525 65.7632C36.3316 66.4089 36.6687 67.4837 36.7922 67.4837C36.8497 67.4837 37.0507 67.0237 37.1729 66.6128C37.3306 66.0822 37.4146 65.5035 37.4156 64.941C37.416 64.6515 37.4328 64.4229 37.4528 64.433C38.124 64.7722 38.5836 64.9029 39.1192 64.9069C39.687 64.9112 40.2598 64.6938 40.5377 64.3685C40.6837 64.1976 40.8282 63.8733 40.7799 63.8249C40.7688 63.8137 40.6676 63.8225 40.555 63.8443C40.0241 63.9473 38.9024 63.8438 38.3647 63.6422C37.9933 63.5029 37.4761 63.1214 37.1745 62.764C36.7786 62.2951 36.786 62.3024 36.786 62.3788Z" fill="#D2D2D2"/>
</svg>
