<svg width="338" height="329" viewBox="0 0 338 329" fill="none" xmlns="http://www.w3.org/2000/svg">
<path opacity="0.07" fill-rule="evenodd" clip-rule="evenodd" d="M144.202 23.1955L120.141 46.3937L84.9895 47.1097L49.8407 47.8283L49.0946 82.7263L48.3511 117.624L24.1742 140.941L0 164.258L24.2469 187.418L48.4939 210.577V246.176V281.774H84.2433H119.993L144.127 305.042L168.26 328.31L192.61 305.042L216.959 281.774H252.601H288.242V246.279V210.784L313.106 186.823L337.97 162.862L313.106 138.902L288.242 114.941V80.7385V46.5358H252.601H216.959L192.61 23.2679L168.26 0L144.202 23.1955ZM145.444 37.5141L122.692 59.461H89.6336H56.5753V89.7809V120.101L34.4106 141.482L12.246 162.862L34.3352 184.189L56.4244 205.516L57.1733 239.121L57.9222 272.727L92.0958 273.448C125.485 274.153 126.418 274.332 132.732 281.203C136.285 285.073 146.069 294.601 154.471 302.382L169.747 316.527L191.955 295.351L214.163 274.177L245.142 273.45L276.12 272.727L277.467 239.829L278.814 206.932L299.691 186.128C311.172 174.686 320.568 164.452 320.568 163.387C320.568 162.32 310.87 152.197 299.018 140.89L277.467 120.331V89.8946V59.461H245.511H213.554L201.397 47.1821C194.711 40.4274 184.507 30.5526 178.718 25.2351L168.196 15.5671L145.444 37.5141ZM149.512 54.2909L130.8 72.3862H103.116H75.4319V98.8208V125.258L55.9691 144.059L36.5064 162.862L55.9691 181.666L75.4319 200.467V228.197V255.924H101.89H128.349L148.165 274.019C159.064 283.971 168.705 292.114 169.594 292.114C170.48 292.114 179.628 283.971 189.919 274.019L208.63 255.924H236.314H263.998V228.197V200.467L283.461 181.666L302.924 162.862L283.461 144.059L263.998 125.258V98.8208V72.3862H236.314H208.63L189.919 54.2909C179.628 44.3385 170.537 36.1957 169.715 36.1957C168.893 36.1957 159.802 44.3385 149.512 54.2909ZM149.606 67.1256L133.704 82.5454L109.282 83.2821L84.8602 84.0189L84.0844 105.992L83.3086 127.964L65.3005 145.413L47.2924 162.862L65.4028 180.376L83.5133 197.89V223.029V248.169H108.364H133.214L151.465 265.548L169.715 282.927L187.966 265.548L206.216 248.169H231.066H255.917V222.884V197.598L272.08 182.25C280.969 173.808 288.242 165.665 288.242 164.155C288.242 162.645 281.012 154.541 272.174 146.15L256.105 130.891L255.338 107.455L254.57 84.0189L228.804 83.2847L203.037 82.5506L187.133 67.1282C178.386 58.6467 169.941 51.7059 168.368 51.7059C166.795 51.7059 158.35 58.6441 149.606 67.1256ZM157.905 80.1491C146.831 91.911 147.316 90.59 150.823 99.4386C153.189 105.413 152.679 106.439 146.163 108.815C141.837 110.394 138.51 110.513 138.022 109.104C135.377 101.489 129.37 98.2159 115.166 96.6494L99.6761 94.9406V110.492C99.6761 125.336 100.045 126.191 107.758 129.257C117.078 132.961 116.766 132.232 112.695 140.804C109.608 147.308 107.981 147.523 95.5654 143.066C94.0434 142.518 88.0389 146.75 82.223 152.468L71.6444 162.862L82.1718 173.208C92.5268 183.385 93.9895 183.744 106.605 179.21C108.191 178.639 110.92 181.18 112.666 184.856C116.771 193.503 117.083 192.761 107.758 196.468C100.075 199.521 99.6761 200.428 99.6761 214.876V230.073H114.43C129.542 230.073 129.497 230.102 138.919 215.114C139.178 214.703 142.462 215.714 146.22 217.358C152.402 220.059 152.784 221.078 150.247 228.057C147.653 235.2 148.283 236.562 158.762 246.494L170.079 257.216L180.533 246.046C189.574 236.391 190.64 234 188.413 228.383C185.385 220.734 186.53 218.265 193.97 216.396C198.078 215.365 200.489 216.939 203.579 222.672C207.506 229.962 208.428 230.288 223.055 229.551L238.407 228.781L237.526 214.563C236.694 201.121 233.655 195.809 225.261 193.126C223.16 192.453 223.238 190.217 225.539 185.376C228.523 179.086 229.41 178.786 237.23 181.402C245.179 184.062 246.354 183.594 256.69 173.678L267.689 163.121L255.752 152.957C245.505 144.23 242.876 143.136 237.152 145.225C231.928 147.13 229.741 146.678 227.039 143.133C221.864 136.343 222.856 132.119 230.032 130.389C236.694 128.784 239.754 121 239.754 105.669C239.754 98.3064 239.603 98.2366 223.535 98.2366C208.845 98.2366 207.021 98.8466 204.244 104.699C200.791 111.976 197.232 112.736 190.094 107.726C185.983 104.841 185.714 103.363 188.415 98.5158C191.252 93.4284 190.471 91.3759 181.843 81.271C176.455 74.9635 171.059 69.8012 169.847 69.8012C168.637 69.8012 163.263 74.4568 157.905 80.1491ZM164.435 89.0649C159.271 95.0363 162.135 102.114 169.715 102.114C173.985 102.114 176.711 100.447 177.309 97.4662C178.241 92.8183 173.551 85.3114 169.715 85.3114C168.597 85.3114 166.221 86.9994 164.435 89.0649ZM112.248 107.716C108.536 111.275 110.656 118.839 116.154 121.662C124.343 125.871 131.167 119.323 126.781 111.464C123.84 106.188 115.958 104.154 112.248 107.716ZM211.477 113.724C209.344 120.171 211.741 124.087 217.824 124.087C223.887 124.087 228.979 119.131 228.979 113.23C228.979 106.338 213.778 106.767 211.477 113.724ZM149.487 118.568C135.558 124.64 121.984 139.566 119.68 151.338C109.622 202.794 173.602 233.524 208.333 193.917C214.874 186.456 220.868 171.61 220.868 162.862C220.868 154.019 214.842 139.233 208.11 131.555C193.617 115.026 169.745 109.737 149.487 118.568ZM91.7025 158.861C88.8821 162.121 88.8821 163.604 91.7025 166.864C97.1035 173.11 106.411 170.576 106.411 162.862C106.411 155.149 97.1035 152.615 91.7025 158.861ZM233.098 158.61C226.522 163.224 229.536 170.618 237.992 170.618C246.914 170.618 252.345 164.199 247.835 158.985C243.681 154.182 239.557 154.076 233.098 158.61ZM115.166 204.43C112.571 205.88 110.451 209.915 110.451 213.4C110.451 218.407 111.841 219.733 117.092 219.733C125.434 219.733 131.226 210.849 126.471 205.35C122.711 201.005 121.477 200.904 115.166 204.43ZM211.375 204.37C210.408 205.872 210.359 209.944 211.267 213.418C212.463 217.991 214.761 219.733 219.602 219.733C225.178 219.733 226.285 218.492 226.285 212.255C226.285 203.171 215.739 197.592 211.375 204.37ZM163.43 224.043C160.246 227.098 161.515 234.517 165.809 237.937C171.633 242.575 179.1 235.507 176.544 227.778C174.82 222.561 167.226 220.398 163.43 224.043Z" fill="url(#paint0_linear_504_3)"/>
<defs>
<linearGradient id="paint0_linear_504_3" x1="168.985" y1="0" x2="168.985" y2="328.31" gradientUnits="userSpaceOnUse">
<stop stop-color="#AEB1B1"/>
<stop offset="1" stop-color="#4D4D4D"/>
</linearGradient>
</defs>
</svg>
