<svg width="104" height="98" viewBox="0 0 104 98" fill="none" xmlns="http://www.w3.org/2000/svg">
<path fill-rule="evenodd" clip-rule="evenodd" d="M31.303 0.28125V14.515H17.0701V32.3792H0.803711V45.5963L4.72525 49.5178L0.803711 53.4394V65.785H17.0701V83.5045H31.7395V97.7383H73.7146V83.5045H88.2388V65.785H103.925V53.4394L100.003 49.5178L103.925 45.5963V32.3792H88.2388V14.515H74.0051V0.28125H31.303ZM43.5033 19.1622L28.5434 38.9151V59.1038L43.5033 79.002H60.9324L76.3281 59.1038V38.9151L60.9324 19.1622H43.5033ZM62.8557 82.4556V86.7231H58.3484L60.2664 88.6411L58.3484 90.5591H62.8557V94.7307L64.6298 92.9565L66.4039 94.7307V90.5591H70.9112L68.9932 88.6411L70.9112 86.7231H66.0683V82.4556L64.6298 83.8941L62.8557 82.1199V82.4556ZM38.8653 82.456V86.7235H34.3581L36.2761 88.6415L34.3581 90.5595H38.8653V94.7311L40.6395 92.9569L42.4136 94.7311V90.5595H46.9209L45.0029 88.6415L46.9209 86.7235H42.078V82.456L40.6395 83.8945L38.8653 82.1203V82.456ZM62.8548 3.77318V8.04068H58.3475L60.2655 9.95867L58.3475 11.8767H62.8548V16.0483L64.6289 14.2741L66.4031 16.0483V11.8767H70.9103L68.9923 9.95867L70.9103 8.04068H66.0674V3.77318L64.6289 5.21166L62.8548 3.43753V3.77318ZM38.8645 3.77358V8.04109H34.3572L36.2752 9.95907L34.3572 11.8771H38.8645V16.0487L40.6386 14.2745L42.4127 16.0487V11.8771H46.92L45.002 9.95907L46.92 8.04109H42.0771V3.77358L40.6386 5.21207L38.8645 3.43793V3.77358ZM47.4115 30.0112L49.894 27.0053L52.5786 29.3766L55.1169 26.4758L57.9271 30.0112V43.0651H67.355L70.4372 46.8725L68.0802 49.5178L70.4372 52.493L66.0859 55.2125H57.9271V68.5384L55.1169 71.8926L52.5786 68.5384L49.894 71.8926L47.4115 68.5384V55.2125H39.4341L34.8108 52.493L39.4341 49.5178L34.8108 46.8725L39.4341 43.0651H47.4115V30.0112ZM11.9961 42.7396H16.0025V43.7396H14.4993V44.868L16.0025 46.3712L17.6344 44.7393L16.7519 43.8569L17.459 43.1498L18.695 44.3858L19.0486 44.7393L18.695 45.0929L16.7096 47.0783L17.9812 48.3499L19.6487 46.6824L18.8549 45.8886L19.562 45.1815L20.7094 46.3289L21.063 46.6824L20.7094 47.036L18.6883 49.0571L20.7094 51.0781L21.063 51.4317L20.7094 51.7852L19.562 52.9326L18.8549 52.2255L19.6487 51.4317L17.9812 49.7642L16.7096 51.0358L18.695 53.0212L19.0486 53.3748L18.695 53.7283L17.459 54.9643L16.7519 54.2572L17.6344 53.3748L16.0025 51.7429L14.4993 53.2461V54.1108H16.0025V55.1108H11.9961V54.1108H13.4993V53.2461L11.9961 51.7429L10.3642 53.3748L11.2466 54.2572L10.5395 54.9643L9.3035 53.7283L8.94995 53.3748L9.3035 53.0212L11.289 51.0358L10.0173 49.7642L8.34981 51.4317L9.14367 52.2255L8.43657 52.9326L7.28915 51.7852L6.9356 51.4317L7.28915 51.0781L9.31022 49.0571L7.28915 47.036L6.9356 46.6824L7.28915 46.3289L8.43657 45.1815L9.14367 45.8886L8.34981 46.6824L10.0173 48.3499L11.289 47.0783L9.3035 45.0929L8.94995 44.7393L9.3035 44.3858L10.5395 43.1498L11.2466 43.8569L10.3642 44.7393L11.9961 46.3712L13.4993 44.868V43.7396H11.9961V42.7396ZM13.9993 45.7822L12.3496 47.4319L10.7244 49.0571L12.3496 50.6822L13.9993 52.3319L15.6489 50.6822L17.2741 49.0571L15.6489 47.4319L13.9993 45.7822ZM88.8415 42.7396H92.8479V43.7396H91.3447V44.868L92.8479 46.3712L94.4798 44.7393L93.5974 43.8569L94.3045 43.1498L95.5405 44.3858L95.894 44.7393L95.5405 45.0929L93.555 47.0783L94.8267 48.3499L96.4942 46.6824L95.7003 45.8886L96.4074 45.1815L97.5548 46.3289L97.9084 46.6824L97.5548 47.036L95.5338 49.0571L97.5548 51.0781L97.9084 51.4317L97.5548 51.7852L96.4074 52.9326L95.7003 52.2255L96.4942 51.4317L94.8267 49.7642L93.555 51.0358L95.5405 53.0212L95.894 53.3748L95.5405 53.7283L94.3045 54.9643L93.5974 54.2572L94.4798 53.3748L92.8479 51.7429L91.3447 53.2461V54.1108H92.8479V55.1108H88.8415V54.1108H90.3447V53.2461L88.8415 51.7429L87.2096 53.3748L88.092 54.2572L87.3849 54.9643L86.1489 53.7283L85.7954 53.3748L86.1489 53.0212L88.1344 51.0358L86.8628 49.7642L85.1952 51.4317L85.9891 52.2255L85.282 52.9326L84.1346 51.7852L83.781 51.4317L84.1346 51.0781L86.1556 49.0571L84.1346 47.036L83.781 46.6824L84.1346 46.3289L85.282 45.1815L85.9891 45.8886L85.1952 46.6824L86.8628 48.3499L88.1344 47.0783L86.1489 45.0929L85.7954 44.7393L86.1489 44.3858L87.3849 43.1498L88.092 43.8569L87.2096 44.7393L88.8415 46.3712L90.3447 44.868V43.7396H88.8415V42.7396ZM90.8447 45.7822L89.195 47.4319L87.5699 49.0571L89.195 50.6822L90.8447 52.3319L92.4944 50.6822L94.1195 49.0571L92.4944 47.4319L90.8447 45.7822Z" fill="white"/>
</svg>
