<svg width="75" height="75" viewBox="0 0 75 75" fill="none" xmlns="http://www.w3.org/2000/svg">
<path fill-rule="evenodd" clip-rule="evenodd" d="M29.2382 2.87464L26.3565 0.00738919C26.3466 -0.00249789 26.3305 -0.00245784 26.3206 0.00747864V0.00747864C26.3108 0.0173286 26.2949 0.0174316 26.2849 0.00775275V0.00775275C26.2748 -0.00205034 26.2587 -0.00184627 26.2489 0.00825201L23.4059 2.93679L21.3588 4.9942C21.3518 5.00129 21.3518 5.01276 21.3589 5.01982V5.01982C21.3659 5.02682 21.366 5.03817 21.3591 5.04529L16.3679 10.1868C16.035 10.5298 16.0431 11.0777 16.3861 11.4106L20.2228 15.1352C20.5658 15.4681 21.1137 15.46 21.4467 15.1171L25.7792 10.654C26.115 10.3081 26.6688 10.3033 27.0106 10.6434L37.4687 21.0493C37.4749 21.0554 37.4848 21.0554 37.4909 21.0492V21.0492C37.4971 21.043 37.5071 21.043 37.5132 21.0492V21.0492C37.5194 21.0554 37.5293 21.0554 37.5355 21.0493L47.8776 10.7588C48.2194 10.4187 48.7732 10.4235 49.109 10.7694L53.5411 15.335C53.874 15.678 54.4219 15.6861 54.7649 15.3532L58.6017 11.6286C58.9446 11.2956 58.9528 10.7477 58.6198 10.4048L53.5857 5.21905C53.5474 5.17959 53.548 5.11667 53.587 5.07789V5.07789C53.6263 5.03876 53.6264 4.97517 53.5873 4.93584L49.2761 0.602987C48.939 0.26416 48.391 0.26279 48.0521 0.599926L38.1125 10.4899C37.7749 10.8259 37.2293 10.8259 36.8917 10.4899L31.3329 4.95891C31.3258 4.95187 31.3257 4.94046 31.3327 4.9333V4.9333C31.3397 4.92608 31.3395 4.91454 31.3323 4.90753L29.2382 2.87464ZM36.9194 21.6763C37.2574 21.3384 37.8054 21.3384 38.1434 21.6763L42.1389 25.6718C42.4768 26.0098 42.4768 26.5578 42.1389 26.8958L38.1434 30.8913C37.8054 31.2292 37.2574 31.2292 36.9194 30.8913L32.9239 26.8958C32.586 26.5578 32.586 26.0098 32.9239 25.6718L36.9194 21.6763ZM38.0761 64.5096C37.7385 64.1736 37.1929 64.1736 36.8552 64.5096L26.9156 74.3996C26.5768 74.7367 26.0288 74.7354 25.6917 74.3965L21.3804 70.0637C21.3413 70.0243 21.3415 69.9608 21.3808 69.9216V69.9216C21.4198 69.8828 21.4203 69.8199 21.382 69.7805L16.3479 64.5948C16.015 64.2518 16.0231 63.7039 16.3661 63.3709L20.2029 59.6463C20.5458 59.3134 21.0937 59.3215 21.4267 59.6645L25.8588 64.2301C26.1946 64.576 26.7484 64.5808 27.0902 64.2407L37.4323 53.9503C37.4384 53.9441 37.4484 53.9442 37.4545 53.9503V53.9503C37.4607 53.9565 37.4707 53.9565 37.4768 53.9503V53.9503C37.4829 53.9442 37.4929 53.9441 37.4991 53.9503L47.9572 64.3562C48.2989 64.6962 48.8527 64.6914 49.1886 64.3455L53.5211 59.8825C53.854 59.5395 54.402 59.5314 54.7449 59.8643L58.5817 63.5889C58.9247 63.9218 58.9328 64.4698 58.5999 64.8127L53.6087 69.9542C53.6018 69.9613 53.6019 69.9727 53.6089 69.9797V69.9797C53.616 69.9867 53.616 69.9982 53.609 70.0053L51.5618 72.0628L48.7189 74.9913C48.7091 75.0014 48.6929 75.0016 48.6828 74.9918V74.9918C48.6729 74.9821 48.6569 74.9822 48.6471 74.992V74.992C48.6372 75.002 48.6212 75.002 48.6112 74.9921L45.7297 72.1249L43.6355 70.092C43.6283 70.085 43.6281 70.0734 43.6351 70.0662V70.0662C43.642 70.0591 43.6419 70.0476 43.6349 70.0406L38.0761 64.5096ZM38.0483 53.3232C37.7104 53.6611 37.1624 53.6611 36.8244 53.3232L32.8289 49.3277C32.4909 48.9897 32.4909 48.4417 32.8289 48.1037L36.8244 44.1082C37.1624 43.7703 37.7104 43.7703 38.0483 44.1082L42.0438 48.1037C42.3818 48.4417 42.3818 48.9897 42.0438 49.3277L38.0483 53.3232ZM15.1259 20.2828C15.4588 20.6258 15.4507 21.1737 15.1077 21.5066L10.691 25.7941C10.3451 26.13 10.3403 26.6838 10.6804 27.0256L21.0553 37.4526C21.062 37.4593 21.062 37.4702 21.0553 37.4769V37.4769C21.0485 37.4836 21.0485 37.4945 21.0553 37.5012V37.5012C21.062 37.5079 21.062 37.5188 21.0553 37.5255L10.6485 47.9846C10.3084 48.3263 10.3132 48.8801 10.6592 49.216L15.1159 53.5424C15.4589 53.8754 15.467 54.4233 15.1341 54.7662L11.4095 58.603C11.0766 58.946 10.5286 58.9541 10.1857 58.6212L5.04945 53.6351C5.04288 53.6287 5.0324 53.6288 5.02594 53.6353V53.6353C5.01943 53.6419 5.00884 53.6419 5.00229 53.6354L3.10351 51.7461L0.00817326 48.7412C-0.00249989 48.7309 -0.00275275 48.7138 0.00760848 48.7031L0.0117119 48.6989C0.0197087 48.6907 0.0195948 48.6775 0.0114564 48.6695V48.6695C0.00324667 48.6613 0.00321336 48.648 0.011382 48.6398L2.3804 46.2589L4.90335 43.66C4.91205 43.651 4.92637 43.6508 4.93533 43.6595V43.6595C4.94421 43.6681 4.95838 43.668 4.96711 43.6592L10.4991 38.0995C10.835 37.7619 10.835 37.2162 10.4991 36.8786L5.01856 31.3706C4.99897 31.3509 4.9672 31.3506 4.94727 31.37V31.37C4.92717 31.3895 4.89506 31.389 4.87555 31.3689L0.491708 26.853C0.209443 26.5623 0.216334 26.0977 0.507101 25.8155V25.8155L4.98618 21.3587C5.00162 21.3434 5.0266 21.3434 5.04197 21.3589V21.3589C5.05721 21.3742 5.08192 21.3744 5.09742 21.3594L10.1775 16.4279C10.5204 16.0949 11.0683 16.1031 11.4013 16.446L15.1259 20.2828ZM26.907 32.8461C26.569 32.5081 26.021 32.5081 25.683 32.8461L21.6876 36.8416C21.3496 37.1796 21.3496 37.7276 21.6876 38.0656L25.683 42.061C26.021 42.399 26.569 42.399 26.907 42.061L30.9025 38.0656C31.2405 37.7276 31.2405 37.1796 30.9025 36.8416L26.907 32.8461ZM64.4938 36.9023C64.1578 37.2399 64.1578 37.7855 64.4938 38.1232L74.3858 48.0648C74.723 48.4037 74.7216 48.9516 74.3828 49.2888L70.051 53.599C70.0111 53.6387 69.9465 53.6385 69.9068 53.5986V53.5986C69.8675 53.559 69.8036 53.5585 69.7636 53.5974L64.581 58.6284C64.238 58.9613 63.6901 58.9532 63.3572 58.6103L59.6326 54.7735C59.2996 54.4305 59.3078 53.8826 59.6507 53.5497L64.2142 49.1196C64.5602 48.7838 64.565 48.23 64.2249 47.8882L53.9375 37.5492C53.9308 37.5425 53.9309 37.5316 53.9376 37.5249V37.5249C53.9443 37.5182 53.9443 37.5073 53.9376 37.5005V37.5005C53.9309 37.4938 53.9308 37.483 53.9375 37.4762L64.3403 27.0213C64.6804 26.6795 64.6756 26.1257 64.3296 25.7899L59.8687 21.4593C59.5257 21.1264 59.5176 20.5785 59.8505 20.2355L63.5751 16.3988C63.9081 16.0558 64.456 16.0477 64.799 16.3806L69.9373 21.3687C69.945 21.3762 69.9573 21.3761 69.9649 21.3685V21.3685C69.9725 21.3608 69.9849 21.3608 69.9926 21.3684L72.2186 23.5833L74.9785 26.2626C74.9881 26.2718 74.9883 26.287 74.979 26.2966V26.2966C74.9699 26.306 74.97 26.321 74.9793 26.3302V26.3302C74.9887 26.3396 74.9887 26.3547 74.9794 26.3641L72.275 29.0821L70.0792 31.3439C70.0717 31.3517 70.0592 31.3519 70.0514 31.3443V31.3443C70.0437 31.3368 70.0313 31.3369 70.0237 31.3446L64.4938 36.9023ZM53.3135 36.9362C53.6515 37.2742 53.6515 37.8222 53.3135 38.1602L49.318 42.1557C48.98 42.4936 48.4321 42.4936 48.0941 42.1557L44.0986 38.1602C43.7606 37.8222 43.7606 37.2742 44.0986 36.9362L48.0941 32.9407C48.4321 32.6028 48.98 32.6028 49.318 32.9407L53.3135 36.9362Z" fill="#D2D2D2"/>
</svg>
