<svg width="118" height="75" viewBox="0 0 118 75" fill="none" xmlns="http://www.w3.org/2000/svg">
<path fill-rule="evenodd" clip-rule="evenodd" d="M47.5887 5.36655C48.6675 4.01058 50.8215 2.25245 52.375 1.45836C58.0837 -1.45819 65.8282 0.14024 69.5375 5.00031C71.0615 6.99642 71.2841 7.87197 71.2841 11.8603V16.4318L73.4586 14.9584C76.1833 13.1118 81.2018 12.7865 84.1126 14.2689C88.7116 16.6101 91.446 21.7992 90.2882 25.9909L89.675 28.2141L91.6487 27.1929C93.0124 26.488 94.6961 26.2609 97.0918 26.4598C100.004 26.701 100.921 27.1076 102.804 28.9908C106.162 32.3487 106.841 37.2145 104.679 42.4184C104.311 43.3036 104.688 43.4094 107.33 43.1631C109.811 42.9322 110.848 43.1708 112.656 44.3895C119.401 48.9353 118.373 57.8081 110.199 65.6046C103.669 71.8334 96.2124 74.6685 86.3576 74.6685C77.082 74.6685 68.6633 71.5634 61.3421 65.4423L58.4557 63.0286L55.2485 65.8759C51.103 69.5557 44.3437 72.7821 38.1174 74.0528C31.9533 75.3106 29.8366 75.3138 23.6315 74.0739C17.0672 72.7622 11.1879 69.7507 6.77362 65.4391C-0.841998 57.9998 -2.09599 50.7793 3.31634 45.5338C5.39584 43.5178 5.95517 43.3113 9.32264 43.3113H13.0358L12.1737 41.2472C10.1532 36.4128 11.7344 30.5322 15.8004 27.7567C18.2872 26.0595 22.6264 25.8299 25.3723 27.25L27.1831 28.1865L26.8649 25.3636C26.4377 21.5709 26.9913 19.7075 29.3408 17.0315C33.0386 12.8199 39.9019 12.0297 44.1 15.3317L45.6272 16.5331V12.1823C45.6272 8.29466 45.8363 7.5692 47.5887 5.36655ZM56.3537 11.2766C54.3993 12.6454 54.5314 15.8692 56.7687 21.3906L58.5429 25.769L60.2837 21.6722C62.8103 15.7268 63.0835 13.3023 61.4145 11.6333C59.8039 10.0227 58.2953 9.91619 56.3537 11.2766ZM42.7696 32.7278C44.6913 32.7278 47.0351 30.0646 47.8818 26.9184C48.7381 23.7389 48.7965 23.7882 52.0844 30.4648C54.6957 35.7681 55.0888 40.0836 53.0202 40.7404C51.3327 41.276 47.9139 39.5846 44.3604 36.4564C41.1719 33.6495 40.7787 32.7278 42.7696 32.7278ZM35.8134 22.5933C34.41 23.9967 34.8846 26.9101 36.6473 27.7131C39.0449 28.8055 41.4579 27.5316 41.4579 25.1724C41.4579 22.9172 40.4105 21.8236 38.2508 21.8236C37.3336 21.8236 36.2368 22.1699 35.8134 22.5933ZM63.9783 40.598C61.7211 39.1356 63.4498 32.1729 67.6716 25.7241L68.687 24.1725L69.0994 26.1891C69.7235 29.2403 71.4458 31.4436 74.0596 32.536L76.4142 33.5199L73.5285 36.0202C69.5914 39.4313 65.3304 41.4742 63.9783 40.598ZM77.9517 21.6497C77.3854 21.7774 76.5496 22.5772 76.0948 23.4271C75.395 24.735 75.4322 25.2237 76.3373 26.6054C77.6394 28.5925 79.9337 28.7375 81.5642 26.9357C83.6944 24.5823 81.1903 20.9185 77.9517 21.6497ZM68.6755 49.4048C73.116 49.4048 79.6483 45.5447 82.6906 41.1234L84.6841 38.2254L85.2082 40.2472C85.4962 41.3588 86.7726 43.1265 88.0445 44.1746L90.3562 46.0809L87.6167 48.0655C86.11 49.1572 83.695 50.4009 82.2499 50.8294C79.2365 51.7242 72.4169 51.8775 68.8608 51.1315C66.2951 50.5927 66.1681 49.4048 68.6755 49.4048ZM92.6115 34.7033C91.0695 35.6013 91.1849 38.668 92.8154 40.1439C94.0264 41.2395 94.2926 41.2606 95.8622 40.3832C97.9058 39.2414 98.442 36.5654 96.9302 35.0536C95.7461 33.8695 94.251 33.7483 92.6115 34.7033ZM104.208 54.7575C102.752 53.44 102.716 52.1026 104.096 50.5779C104.68 49.9327 105.67 49.4048 106.296 49.4048C108.984 49.4048 110.365 52.8864 108.441 54.8113C107.143 56.1089 105.68 56.0903 104.208 54.7575ZM95.3311 54.2219C91.1824 58.5027 82.6001 61.3186 75.7965 60.6323L72.567 60.3058L75.2417 61.5925C80.7304 64.2319 89.2639 64.2621 95.9789 61.6669C101.254 59.6278 101.454 59.4392 100.053 57.8209C99.3997 57.0672 98.569 55.4348 98.206 54.193L97.5472 51.9358L95.3311 54.2219ZM29.5025 43.9931C30.7423 42.8578 31.9661 41.0951 32.2214 40.0759C32.6557 38.346 32.7327 38.3069 33.3844 39.4845C33.7679 40.1779 35.5248 42.1888 37.2887 43.9527C40.5497 47.2137 45.1269 49.4144 48.6361 49.408C52.0446 49.4016 50.985 50.56 46.8728 51.3361C40.186 52.5978 34.1913 51.3528 29.4172 47.7114L27.2485 46.0578L29.5025 43.9931ZM57.2004 50.9089C55.4974 52.1539 56.1324 54.8107 58.1901 55.0499C60.0458 55.2655 61.675 53.7639 61.1291 52.3412C60.5172 50.746 58.4525 49.993 57.2004 50.9089ZM17.7253 57.277C18.4308 56.3796 19.0081 54.8017 19.0081 53.7703V51.8941L22.0549 54.4284C23.7303 55.8229 26.296 57.5611 27.7552 58.2917C31.0752 59.9536 37.7454 61.053 41.8562 60.6162L44.9858 60.2833L42.1372 61.6046C35.9751 64.4635 27.1382 64.2922 20.2044 61.1807C18.1351 60.2519 16.4424 59.3609 16.4424 59.2C16.4424 59.0396 17.0197 58.1737 17.7253 57.277ZM8.36563 51.0083C7.39259 52.4939 7.39259 52.7299 8.36563 54.2155C10.1161 56.887 13.8767 55.8652 13.8767 52.7177C13.8767 49.2399 10.2598 48.1181 8.36563 51.0083ZM21.35 40.4614C19.2384 39.659 18.631 37.5686 19.9318 35.5827C21.1832 33.6732 23.5064 33.5308 25.0785 35.2678C27.4255 37.8617 24.6571 41.7192 21.35 40.4614Z" fill="#D2D2D2"/>
</svg>
