<svg width="181" height="75" viewBox="0 0 181 75" fill="none" xmlns="http://www.w3.org/2000/svg">
<path fill-rule="evenodd" clip-rule="evenodd" d="M10.8189 43.2756H0V31.6245H4.99334H20.8056V47.4368V63.249H47.4368H74.0679V53.2623V43.2756H58.2557H42.4434V21.6378V0H63.249H84.0546V15.8123V31.6245H94.8735H105.692V15.8123V0H143.174H180.656L180.208 37.034L179.76 74.0679L158.539 74.534L137.317 75V53.3123V31.6245H153.129H168.941V21.6378V11.6511H143.206H117.468L116.991 27.0473L116.511 42.4434L100.283 42.9195L84.0546 43.3955V59.1478V74.9001H47.4368H10.8189V59.0879V43.2756ZM52.4301 21.6378V31.6245H63.249H74.0679V21.6378V11.6511H63.249H52.4301V21.6378ZM148.968 63.249V53.2623V43.2756H158.955H168.941V53.2623V63.249H158.955H148.968Z" fill="#D2D2D2"/>
</svg>
