<svg width="64" height="75" viewBox="0 0 64 75" fill="none" xmlns="http://www.w3.org/2000/svg">
<path fill-rule="evenodd" clip-rule="evenodd" d="M0 74.9043V65.2139C1.06055 65.252 2.13281 65.0781 3.20508 64.6875C8.11523 62.8975 10.9531 58.7949 16.625 45.2979C22.1816 32.0693 26.6719 27.2451 32.832 27.8799C38.584 28.4727 41.8887 32.7764 48.5605 48.3574C51.9473 56.2676 54.2363 60.1328 56.9414 62.5107C59.1641 64.4639 61.5918 65.3486 64 65.1953V74.8936C63.0879 74.9717 62.2031 74.8828 61.377 74.6162C58.7988 73.7812 57.1426 72.584 55.0449 70.0352C54.2715 69.0957 53.3242 67.6572 52.3809 66.0361C50.9648 63.6074 49.5527 60.7686 48.7324 58.5859C47.8848 56.3281 47.5938 56.0635 47.2441 57.2324C46.5684 59.4922 42.9688 66.4932 41.2285 68.9336C36.9824 74.8828 32.1973 76.3223 26.8184 73.2666C24.4668 71.9307 21.0625 67.1299 18.4336 61.4375L16.1406 56.4756L13.959 61.1826C11.1074 67.3379 8.12109 71.4902 5.23047 73.3174C3.23828 74.5762 1.73633 75.0703 0 74.9043ZM33.3906 55.5508C29.0215 56.2266 25.7793 54.5029 22.4785 49.752C21.4219 48.2305 20.5547 46.8623 20.5547 46.7119C20.5527 46.2529 23.3457 41.9043 23.6426 41.9043C23.7383 41.9043 23.8535 42.0049 23.9492 42.1582C24.0078 42.251 24.0586 42.3633 24.0938 42.4834C24.1895 42.8018 25.4316 43.8213 26.8555 44.75C29.3672 46.3867 29.5312 46.4316 32.3125 46.2344C35.3027 46.0234 37.6973 44.8682 39.3789 42.8271C39.5566 42.6113 39.7344 42.4121 39.8848 42.2539C40.0898 42.041 40.2461 41.9043 40.2949 41.9043C40.5254 41.9043 43.2637 46.3818 43.2637 46.7588C43.2637 46.9355 42.3535 48.3564 41.2383 49.918C38.6973 53.4785 36.4746 55.0742 33.3906 55.5508Z" fill="#D9D9D9"/>
<path d="M64 55.8174C63.8574 55.8213 63.7129 55.8232 63.5664 55.8232C61.1172 55.8232 60.3242 55.6318 58.6895 54.6484C54.8594 52.3428 52.3691 48.374 47.2227 36.3809C44.2051 29.3486 42.2676 25.7119 40.1133 23.0361C35.3965 17.1787 28.582 17.248 23.6172 23.2031C22.5137 24.5283 21.5996 25.8662 20.5059 27.9287C19.3652 30.0781 18.0273 33.0146 16.0664 37.541C11.2305 48.7061 9.16602 51.9707 5.24023 54.6436C3.74805 55.6602 3.10742 55.8164 0.423828 55.8193C0.277344 55.8193 0.134766 55.8184 0 55.8184V18.5693C4.01953 18.3467 5.93359 19.4746 9.39648 24.0039L12.1758 27.6377L13.0957 25.5371C13.6016 24.3809 14.0156 23.2422 14.0156 23.0049C14.0156 22.7686 13.2383 21.0479 12.291 19.1826C8.73828 12.1943 5.21289 9.20508 0.521484 9.20508C0.345703 9.20508 0.171875 9.20801 0 9.21484V0.228516C0.15625 0.232422 0.318359 0.237305 0.490234 0.242188C2.91992 0.316406 4.03711 0.566406 5.30664 1.32129C7.875 2.84766 10.8887 7.1123 13.6816 13.1758L16.1465 18.5205L17.8789 14.6367C19.8066 10.3154 21.4023 7.32227 23.0078 5.16309C24.3027 3.42188 25.6035 2.22363 27.0918 1.30957C28.6777 0.334961 29.457 0.145508 31.9082 0.145508C34.3379 0.145508 35.1543 0.339844 36.7266 1.28906C40.0078 3.27148 42.7031 7.19238 46.0469 14.8438L47.6406 18.4941L50.0117 13.3301C52.6855 7.50781 55.9648 2.82617 58.4043 1.35059C59.3535 0.777344 61.0215 0.304688 62.707 0.132812C63.2031 0.0820312 63.625 0.0478516 64 0.03125V9.26855C63.6426 9.26855 63.2695 9.28027 62.8789 9.30469C59.3027 9.53125 57.2793 10.7168 54.6289 14.1387C52.748 16.5654 49.7949 21.9951 49.8125 22.9902C49.8145 23.0977 49.8574 23.2842 49.9316 23.5205C50.0742 23.9795 50.3301 24.623 50.6191 25.2266C51.0566 26.1406 51.5078 27.0088 51.623 27.1562C51.7383 27.3037 52.9629 25.9453 54.3438 24.1377C55.6758 22.3945 56.7266 21.1895 57.7598 20.3662C59.3926 19.0635 60.9785 18.7178 63.5664 18.7129C63.7168 18.7129 63.8613 18.7139 64 18.7139V55.8174Z" fill="#D9D9D9"/>
</svg>
