<svg width="147" height="75" viewBox="0 0 147 75" fill="none" xmlns="http://www.w3.org/2000/svg">
<path fill-rule="evenodd" clip-rule="evenodd" d="M72.9768 0.550385C72.5781 1.3784 72.1761 2.04547 71.7497 2.58661C71.0644 3.456 69.2576 5.17858 68.1987 5.97178C67.1881 6.72901 65.3565 7.96918 65.2489 7.96918C65.2208 7.96918 64.9195 8.1478 64.5793 8.36599C63.5744 9.01041 63.5497 9.02565 63.3841 9.09866C63.1555 9.19929 60.4649 10.8361 59.8392 11.2551C58.4989 12.1524 57.2203 13.174 56.3401 14.0504C55.3558 15.0306 54.1881 16.6623 53.7631 17.6514C53.6381 17.9424 53.4958 18.2535 53.4471 18.3427C53.3983 18.4319 53.3225 18.6684 53.2786 18.8683C53.2347 19.0682 53.1606 19.3047 53.1139 19.3939C52.9827 19.6451 52.7786 20.7455 52.7077 21.5844C52.6725 22.0015 52.6113 22.375 52.5718 22.4146C52.5052 22.4812 52.2802 22.4411 51.1623 22.1634C49.312 21.7038 46.7186 21.7589 45.1692 22.2905C43.4621 22.8762 42.1916 23.6773 40.7931 25.0501C39.7267 26.0968 39.1041 26.8774 38.423 28.0214C38.1805 28.4288 37.9365 28.8335 37.8807 28.9208C37.7584 29.1124 37.2463 30.1682 36.9569 30.8255C36.351 32.202 35.7008 34.4079 35.4561 35.9169C35.2274 37.3283 35.2307 37.3319 36.5676 37.1184C37.1452 37.0263 38.0147 36.9062 38.4998 36.8516C38.985 36.7971 39.6993 36.7015 40.0871 36.6394C41.2531 36.4525 46.355 36.4901 47.6941 36.6954C50.6716 37.1519 53.4226 38.0132 55.0363 38.9942C55.3046 39.1574 55.5553 39.2909 55.5934 39.2909C55.6551 39.2909 56.3944 39.8037 57.2996 40.4745C57.4742 40.6039 58.1051 41.1964 58.7017 41.791C59.9966 43.0818 60.0935 43.3063 59.1939 42.9304C58.3719 42.5869 57.1456 43.0118 56.5518 43.8458C56.2794 44.2285 56.161 44.313 55.9224 44.2951C54.986 44.2249 53.8578 45.381 53.9892 46.2762C54.0323 46.5702 53.9967 46.6157 53.5783 46.8008C52.5146 47.2713 51.8833 48.5085 52.1782 49.5448C52.2022 49.6294 52.026 49.8265 51.7686 50.003C51.52 50.1733 51.2224 50.4974 51.1072 50.7233C50.7295 51.4637 50.8682 52.7172 51.3666 53.0666C51.4313 53.1119 51.4127 53.2459 51.3173 53.4242C51.1151 53.8021 51.1361 54.8359 51.3554 55.298C51.5909 55.7944 52.2307 56.3515 52.7681 56.5281C53.3438 56.7175 53.5173 56.6378 53.5963 56.1477C53.7218 55.3689 53.7582 55.2806 54.1045 54.9134C54.5299 54.4623 54.9208 54.351 55.5178 54.5106C56.5954 54.7989 57.4645 55.8084 57.9263 57.308C58.2613 58.3963 58.0455 60.1519 57.4247 61.388C57.2535 61.7288 57.1972 61.9567 57.2576 62.0647C57.3283 62.191 57.1894 62.3321 56.6364 62.6952C55.8777 63.1936 54.5921 63.8403 54.3601 63.8403C54.2832 63.8403 54.1751 63.8851 54.1198 63.9401C53.8798 64.1781 51.4469 64.676 50.1667 64.7489C48.8198 64.8256 46.7548 64.6076 45.6839 64.2754C45.4961 64.2172 45.009 64.0663 44.6016 63.9403C44.1943 63.8141 43.8157 63.6686 43.7604 63.6169C43.7052 63.5652 43.5942 63.5228 43.514 63.5228C43.3568 63.5228 41.7703 62.7492 41.1626 62.3763C40.9589 62.2513 40.7208 62.1157 40.6335 62.075C40.5462 62.0343 40.3019 61.8792 40.0905 61.7302C39.8792 61.5813 39.5976 61.388 39.4648 61.3007C38.4347 60.6233 36.5411 58.8747 35.4018 57.5487C33.2304 55.0216 31.9559 52.5681 31.6259 50.279C31.3532 48.3885 31.8605 46.7678 33.1111 45.534C35.9059 42.777 40.6711 43.4866 42.3494 46.9096C42.4493 47.1133 42.5325 47.399 42.5344 47.5445C42.5378 47.807 42.53 47.8092 41.5592 47.8222C40.782 47.8327 40.4173 47.8947 39.787 48.1232C38.433 48.6144 37.8732 48.7354 37.3003 48.6605C36.2221 48.5195 36.2455 48.5143 36.2083 48.9037C36.1328 49.6907 36.731 50.6142 37.7381 51.2655C38.3738 51.6766 38.4114 51.7236 38.4114 52.1094C38.4114 52.5056 38.6884 52.9412 38.9405 52.9412C38.9991 52.9412 39.0463 53.221 39.0463 53.5689V54.1967L39.4695 54.1546C39.786 54.123 39.8962 54.1516 39.906 54.2675C39.9133 54.3529 39.9311 54.4702 39.9457 54.5284C39.9603 54.5866 39.9781 54.7346 39.9854 54.8572C39.9942 55.0058 40.0498 55.0605 40.152 55.0213C40.2545 54.982 40.2858 55.0133 40.2464 55.1158C40.207 55.2186 40.2582 55.2691 40.4018 55.2691C40.5196 55.2691 40.6317 55.2259 40.6512 55.1731C40.7182 54.9905 41.4801 54.9885 41.4801 55.1708C41.4801 55.3395 41.7587 55.5866 41.9487 55.5866C42.0401 55.5866 42.115 55.5428 42.115 55.4891C42.115 55.3542 42.6986 55.2387 42.9606 55.3217C43.0792 55.3594 43.1489 55.4344 43.1156 55.4884C43.0821 55.5424 43.1523 55.5866 43.2715 55.5866C43.6015 55.5866 43.9138 55.2612 43.9138 54.9175C43.9138 54.6209 43.9256 54.6145 44.3636 54.6693C44.6109 54.7002 45.3257 54.8308 45.9522 54.9597C47.0746 55.1905 47.1051 55.1913 48.0685 55.009C48.9965 54.8336 49.5221 54.627 49.5221 54.4377C49.5221 54.3907 49.1531 54.111 48.702 53.8163C47.0771 52.7548 46.3976 51.7508 46.1403 50.0312C45.9507 48.7642 45.4744 47.213 45.0031 46.3276C44.7362 45.8262 43.8581 44.6664 43.4722 44.3056C43.0618 43.9219 41.9469 43.1002 41.8368 43.1002C41.7953 43.1002 41.6861 43.0354 41.5942 42.956C41.5023 42.8767 41.1891 42.7257 40.8981 42.6204C40.6071 42.5151 40.3214 42.3937 40.2632 42.3506C39.9132 42.0919 37.5345 41.8132 36.348 41.8917C35.5045 41.9477 34.2107 42.1872 33.8084 42.3619C33.692 42.4124 33.3586 42.5572 33.0676 42.6835C32.3448 42.9974 31.2265 43.7494 30.7006 44.2753C30.2341 44.7418 29.4356 45.986 29.2136 46.5922C28.8119 47.6891 28.6873 49.2066 28.8929 50.4987C29.0555 51.5209 29.2715 52.27 29.6668 53.1829C29.8268 53.5522 29.8922 53.8935 29.8031 53.8935C29.7827 53.8935 29.5326 53.7698 29.2476 53.6186C27.4488 52.6646 26.4248 52.3009 24.6023 51.9684C23.6269 51.7905 21.2091 51.7932 20.2109 51.9733C16.3812 52.6643 13.1785 54.9739 11.7523 58.0733C11.6183 58.3643 11.4745 58.6738 11.4326 58.7611C11.2992 59.0392 11.0234 60.0564 10.8446 60.9303C10.197 64.0953 9.7258 65.4451 8.6597 67.1889C8.07168 68.1509 6.83775 69.4202 5.92572 70.0011C5.0648 70.5496 3.71098 71.1465 2.85704 71.3542C2.65335 71.4037 2.29622 71.4915 2.06342 71.5494C1.83063 71.6073 1.27107 71.7352 0.820078 71.8338C0.369088 71.9323 0 72.0525 0 72.1009C0 72.3307 1.46281 73.6403 2.22215 74.0904C3.4621 74.8253 4.11245 75 5.60827 75C6.94643 75 7.4026 74.9083 8.28839 74.461C9.1327 74.0346 10.4569 72.8713 11.1863 71.9149C11.5112 71.4888 11.6634 71.4764 11.9117 71.8559C12.2209 72.3287 13.1344 73.2572 13.7032 73.6771C14.2552 74.0845 15.3355 74.6351 15.5749 74.6313C15.7568 74.6284 16.2712 73.8978 16.6529 73.1003C16.9822 72.4122 17.1861 71.218 17.0751 70.6267L17.0076 70.2668L17.366 70.3402C17.563 70.3805 18.2671 70.4397 18.9307 70.472C20.3432 70.5406 20.8643 70.4318 22.3802 69.7517C23.7932 69.1178 25.004 67.8014 25.5267 66.331C25.7908 65.5884 25.7787 64.0042 25.5022 63.1225C25.269 62.3783 25.1097 62.0414 24.9914 62.0414C24.9476 62.0414 24.7061 62.3542 24.4547 62.7365C23.5405 64.1271 22.1319 64.8691 20.5941 64.7703C20.1796 64.7436 19.7454 64.6727 19.629 64.6127C19.5126 64.5527 19.0981 64.3493 18.7078 64.1607C17.8507 63.7465 17.0481 62.9395 16.669 62.1104C16.2904 61.2829 16.2867 59.8494 16.6605 58.819C17.3021 57.0501 18.821 55.6214 20.6708 55.0469C21.2993 54.8518 21.5799 54.8282 22.7872 54.8692C23.5527 54.8951 24.2981 54.9658 24.4436 55.0262C24.5891 55.0865 24.9939 55.2232 25.343 55.33C26.0347 55.5413 27.3675 56.2081 28.4597 56.8889C29.0798 57.2755 30.3381 58.1788 30.4751 58.3356C30.5042 58.3689 30.7423 58.5606 31.0042 58.7614C31.2661 58.9622 31.7913 59.3896 32.1713 59.711C32.5513 60.0325 33.0926 60.4859 33.3742 60.7187C34.0324 61.2628 34.3904 61.5945 34.3904 61.6602C34.3904 61.6889 34.0562 61.8881 33.6477 62.1027C32.7801 62.5585 31.8712 63.4473 31.4253 64.2755C31.1589 64.7704 31.1179 64.9611 31.1143 65.7218C31.1109 66.4279 31.1427 66.6107 31.2783 66.6627C31.3725 66.6988 31.8036 66.5501 32.2571 66.3251C33.9489 65.4855 34.5497 65.3736 37.3003 65.3848L39.5225 65.394L40.1574 65.7452C41.0226 66.2239 42.419 66.909 42.5294 66.909C42.5792 66.909 42.7562 66.9801 42.923 67.067C43.0896 67.1539 43.2999 67.2253 43.39 67.2258C43.4803 67.2261 43.5993 67.2675 43.6546 67.3176C43.7099 67.3678 43.9694 67.4651 44.2313 67.5339C47.3727 68.3593 50.9839 68.3818 53.9664 67.5948C54.975 67.3286 56.3561 66.9044 56.8234 66.7172C57.8454 66.3078 58.3207 66.109 58.8007 65.8897C59.1025 65.752 59.3963 65.6392 59.4534 65.6392C59.5107 65.6392 59.7955 65.8416 60.0865 66.0889C60.3775 66.3362 60.7742 66.6167 60.9681 66.7121C61.5333 66.9902 62.4629 67.1558 63.0041 67.0747C63.5139 66.9982 63.4842 66.9851 64.3001 67.6463C64.3675 67.7009 64.677 67.8713 64.9879 68.0249C66.2321 68.6396 68.0036 68.8694 69.1511 68.565C69.4421 68.4877 69.7369 68.4437 69.8063 68.4671C69.8756 68.4906 70.0312 68.7091 70.1522 68.9527C70.2731 69.1963 70.4545 69.4909 70.5553 69.6074C70.7598 69.8439 71.4562 70.3817 71.8272 70.5896C72.1039 70.7447 73.0432 70.9621 73.4366 70.9621C73.854 70.9621 74.7245 70.7488 75.1297 70.5471C75.5736 70.3263 76.7169 69.19 76.7169 68.9697C76.7169 68.8839 76.8067 68.7239 76.9163 68.6143C77.101 68.4296 77.1569 68.4257 77.6801 68.5614C79.3403 68.9921 81.3673 68.5086 82.9347 67.308C83.4349 66.9248 83.5314 66.8894 83.8871 66.9582C84.1047 67.0003 84.4194 67.0603 84.5865 67.0915C84.9276 67.1553 85.9172 66.9529 86.3992 66.7207C86.5737 66.6366 86.9391 66.3829 87.2111 66.1569L87.7057 65.746L88.5867 66.1272C89.0713 66.3368 89.5869 66.5473 89.7324 66.5949C89.8779 66.6425 90.2588 66.7817 90.5789 66.9041C90.899 67.0265 91.3276 67.1708 91.5313 67.2247C91.7349 67.2787 92.1873 67.3995 92.5365 67.4934C96.2879 68.5017 100.374 68.3856 103.594 67.1791C103.856 67.081 104.166 66.972 104.282 66.9369C104.399 66.9018 105.137 66.5412 105.922 66.1356L107.351 65.3982L109.52 65.3865C112.275 65.3714 112.976 65.5021 114.62 66.3374C115.698 66.8851 115.763 66.8469 115.763 65.6699C115.763 65.1069 115.701 64.8507 115.43 64.3003C115.029 63.485 114.071 62.5452 113.185 62.097C112.85 61.9273 112.547 61.7425 112.512 61.6861C112.478 61.6297 112.588 61.466 112.757 61.3225C113.033 61.0883 113.321 60.8459 114.176 60.1273C114.321 60.0051 114.652 59.7309 114.909 59.5182C115.167 59.3055 115.525 59.009 115.703 58.8594C116.324 58.3393 117.725 57.3134 118.462 56.8403C119.52 56.1605 121.608 55.165 121.984 55.1617C122.083 55.1609 122.356 55.0915 122.588 55.0077C123.176 54.796 125.28 54.7956 126.035 55.0068C127.008 55.2794 127.924 55.8118 128.671 56.5389C129.33 57.1801 130.154 58.3812 130.154 58.7009C130.154 58.778 130.226 59.012 130.313 59.221C130.412 59.4568 130.472 59.9395 130.472 60.4943C130.472 61.9535 130.006 62.8759 128.845 63.7163C128.547 63.9324 128.136 64.1866 127.932 64.2811C127.728 64.3756 127.424 64.5174 127.255 64.5963C127.063 64.6859 126.566 64.7395 125.932 64.7393C125.026 64.7389 124.848 64.7055 124.29 64.4319C123.573 64.081 122.467 63.0336 122.185 62.4382C122.081 62.22 121.957 62.0414 121.908 62.0414C121.764 62.0414 121.491 62.5221 121.356 63.0133C121.19 63.615 121.116 65.9359 121.253 66.2159C121.312 66.3352 121.482 66.7092 121.631 67.047C122.112 68.1328 123.409 69.3114 124.74 69.8709C126.079 70.4338 126.621 70.5359 127.943 70.4745C128.606 70.4436 129.284 70.3843 129.45 70.3425C129.74 70.2694 129.75 70.2794 129.719 70.6248C129.622 71.7021 130.217 73.5313 130.935 74.3651C131.197 74.6693 131.217 74.6745 131.606 74.5376C132.623 74.1788 134.199 72.9462 134.86 71.992C135.209 71.4888 135.355 71.4622 135.607 71.8559C135.932 72.3634 137.502 73.8265 138.109 74.1872C139.238 74.858 139.71 74.9851 141.106 74.9949C141.873 75.0003 142.565 74.9486 142.852 74.8644C143.539 74.6633 144.621 74.123 145.237 73.6733C145.995 73.1202 146.894 72.1785 146.776 72.0606C146.723 72.0072 146.163 71.8481 145.533 71.7072C143.492 71.2509 143.194 71.1547 141.9 70.537C139.846 69.5562 138.24 67.7714 137.21 65.3217C136.821 64.3984 136.322 62.6127 136.027 61.089C135.854 60.1987 135.601 59.2231 135.436 58.814C135.153 58.1115 134.9 57.6013 134.66 57.2485C134.51 57.0277 134.387 56.8187 134.387 56.7841C134.387 56.7495 134.12 56.3946 133.793 55.9955C132.398 54.2901 130.411 53.0184 127.985 52.278C125.994 51.6703 123.07 51.6686 120.842 52.2739C119.805 52.5556 118.068 53.2982 117.249 53.8098C116.955 53.9934 116.885 53.8601 117.063 53.4524C117.73 51.9187 118.091 50.3963 118.091 49.1196C118.091 48.4598 117.872 47.2735 117.626 46.6047C116.645 43.9319 113.914 42.1203 110.525 41.894C109.239 41.8081 107.357 42.0267 106.61 42.3487C106.494 42.3989 106.184 42.5261 105.922 42.6313C105.66 42.7364 105.375 42.8755 105.287 42.9401C105.2 43.0049 104.945 43.1507 104.721 43.2643C103.488 43.8891 101.712 46.1274 101.325 47.5445C101.286 47.69 101.215 47.9043 101.169 48.0207C101.037 48.3524 100.735 49.6892 100.736 49.9397C100.737 50.1593 100.512 50.9873 100.284 51.6062C100.016 52.33 98.9056 53.4092 97.6953 54.1216L97.2458 54.3861L97.4836 54.6041C97.6392 54.7466 98.0544 54.8855 98.6836 55.005C99.5958 55.1785 99.7027 55.1784 100.747 55.0043C101.353 54.9033 101.968 54.7595 102.114 54.6848C102.334 54.5724 102.43 54.5752 102.67 54.7008C102.829 54.7843 102.961 54.9106 102.963 54.9815C102.967 55.125 103.325 55.5866 103.432 55.5866C103.47 55.5866 103.475 55.5441 103.443 55.4921C103.41 55.44 103.503 55.3678 103.648 55.3314C103.793 55.2949 103.912 55.2184 103.912 55.1613C103.912 54.9571 104.368 55.0624 104.609 55.322C104.879 55.6136 105.076 55.6647 105.076 55.4433C105.076 55.2777 105.547 54.7401 105.693 54.7401C105.747 54.7401 105.85 54.8115 105.922 54.8988C106.105 55.119 106.412 55.097 106.663 54.8459C106.779 54.7295 106.833 54.6342 106.781 54.6342C106.73 54.6342 106.665 54.5152 106.637 54.3697C106.588 54.1118 106.602 54.1052 107.207 54.1052H107.827V53.5698C107.827 53.2423 107.786 53.0597 107.722 53.0995C107.661 53.1371 107.626 53.0508 107.639 52.8941C107.655 52.6997 107.722 52.6237 107.878 52.6237C107.996 52.6237 108.163 52.5166 108.248 52.3856C108.408 52.1374 108.427 52.0862 108.449 51.8392C108.456 51.7569 108.689 51.5496 108.967 51.3786C109.245 51.2076 109.634 50.9061 109.831 50.7088C110.294 50.2463 110.708 49.3455 110.664 48.8957C110.633 48.5702 110.609 48.5516 110.261 48.5809C109.069 48.681 108.587 48.6446 107.827 48.3971C107.39 48.2549 106.983 48.102 106.922 48.0573C106.721 47.9116 105.256 47.7317 104.79 47.7956C104.337 47.8576 104.335 47.8562 104.335 47.5262C104.335 46.679 105.702 45.0323 106.88 44.4601C108.717 43.5677 110.937 43.6693 112.738 44.728C114.604 45.8253 115.577 47.9933 115.232 50.2825C114.935 52.2573 114.137 53.9627 112.43 56.2744C110.837 58.4317 108.345 60.7883 106.418 61.9591C105.877 62.2878 104.848 62.8667 104.545 63.0124C103.712 63.4132 102.209 64.0016 101.743 64.1093C101.568 64.1496 101.211 64.2441 100.949 64.3192C98.9504 64.8928 95.5674 64.8869 93.9086 64.3069C93.6738 64.2249 93.407 64.1577 93.3154 64.1577C93.0073 64.1577 90.9956 63.2173 90.2654 62.7319C89.6881 62.3481 89.5524 62.2076 89.5963 62.0397C89.6267 61.9238 89.5296 61.5792 89.3807 61.2739C88.754 59.988 88.5871 58.2286 88.9832 57.0816C89.5983 55.3003 91.1142 54.1144 92.2321 54.5399C92.7022 54.7187 93.0851 55.2234 93.1755 55.7836C93.3191 56.6715 93.5068 56.7991 94.1868 56.471C95.2442 55.9608 95.6581 55.3477 95.6581 54.2916C95.6581 53.8656 95.5999 53.5401 95.4977 53.3942C95.369 53.2105 95.3642 53.1483 95.4738 53.0796C95.7964 52.8774 95.9755 52.4102 95.9755 51.7707C95.9755 50.8861 95.638 50.2981 94.916 49.9247C94.618 49.7706 94.5935 49.7211 94.6632 49.4164C94.9 48.3832 94.2302 47.1865 93.1665 46.742C92.885 46.6244 92.8373 46.556 92.8803 46.3311C93.0474 45.4572 91.7877 44.1598 90.9308 44.3234C90.6749 44.3723 90.5937 44.3236 90.3673 43.9852C89.9537 43.3673 89.6544 43.1421 88.9719 42.9355C88.4297 42.7714 88.2756 42.7627 87.898 42.8754C86.875 43.1808 86.8954 43.1861 87.2695 42.7137C87.837 41.9971 89.2882 40.61 89.9216 40.1787C90.254 39.9523 90.5419 39.7313 90.5612 39.6877C90.5807 39.644 90.6483 39.6083 90.7117 39.6083C90.775 39.6083 90.902 39.5428 90.9938 39.4629C91.3259 39.1738 93.3472 38.207 94.3354 37.8646C94.6264 37.7637 94.9597 37.6395 95.0761 37.5885C95.1925 37.5375 95.502 37.445 95.7639 37.383C96.0258 37.3209 96.5258 37.1983 96.875 37.1105C97.2242 37.0227 97.8432 36.9089 98.2506 36.8578C98.658 36.8066 99.2532 36.7117 99.5733 36.6468C100.342 36.4909 105.851 36.4888 106.817 36.644C107.221 36.7089 107.959 36.8064 108.457 36.8606C108.954 36.9147 109.79 37.0292 110.313 37.1149C110.909 37.2126 111.302 37.2337 111.365 37.1712C111.475 37.0609 111.289 35.0088 111.12 34.4762C111.065 34.3016 110.939 33.873 110.841 33.5239C110.376 31.8761 109.426 29.6699 108.495 28.0743C107.768 26.8286 106.123 24.944 104.983 24.0499C103.754 23.0857 102.094 22.3057 100.65 22.0133C99.4238 21.765 95.9688 21.9182 95.3522 22.2483C95.2441 22.306 94.9473 22.3668 94.6926 22.3833L94.2296 22.4131L94.166 21.6195C93.9221 18.5769 92.3461 15.6421 89.675 13.2563C89.1859 12.8195 87.5486 11.5669 87.4666 11.5669C87.3965 11.5669 86.4543 10.9256 86.2619 10.7469C86.1836 10.6741 86.0555 10.6146 85.9772 10.6146C85.8989 10.6146 85.819 10.5765 85.7995 10.5298C85.7801 10.4833 85.3833 10.2203 84.9177 9.94551C84.4521 9.67071 83.9998 9.39897 83.9125 9.34172C83.8252 9.28448 83.6823 9.20543 83.595 9.16596C83.3632 9.06141 80.4828 7.31237 80.4205 7.23841C80.3914 7.20381 79.9434 6.8908 79.4249 6.54277C78.9065 6.19474 78.4303 5.86047 78.3667 5.79983C78.3032 5.73931 78.0149 5.50027 77.726 5.26864C76.5755 4.34623 75.0987 2.67126 74.361 1.45183C74.041 0.922858 73.7481 0.392295 73.7102 0.272828C73.6723 0.153467 73.5561 0.0334714 73.4519 0.00627658C73.307 -0.0316057 73.1955 0.0961146 72.9768 0.550385ZM73.0237 5.45604C72.6399 6.34098 71.7278 7.45544 70.6235 8.38853C70.2738 8.68397 69.0164 9.55642 68.9403 9.55642C68.9128 9.55642 68.5918 9.73568 68.2271 9.95472C67.8622 10.1738 67.3495 10.4634 67.0876 10.5983C63.6934 12.3468 62.2435 13.1249 61.7122 13.4826C61.4619 13.6512 61.2159 13.7891 61.1654 13.7891C61.115 13.7891 61.0579 13.8248 61.0384 13.8684C61.0191 13.912 60.7204 14.1383 60.3746 14.3711C59.4715 14.9792 57.7839 16.6809 57.2266 17.5456C56.5454 18.6024 56.4584 18.7747 55.9459 20.0852C55.466 21.3123 55.1724 23.8887 55.3368 25.4289C55.5426 27.3562 55.504 27.4557 54.7315 26.9897C53.8357 26.4494 52.4656 25.8962 51.6384 25.7409C51.3765 25.6917 50.9959 25.6015 50.7927 25.5402C50.3186 25.3975 48.1172 25.4002 47.5645 25.5442C47.3317 25.605 46.9746 25.6945 46.7709 25.7432C46.0183 25.9232 44.5922 26.5456 44.3371 26.8055C44.308 26.8352 44.0699 26.9975 43.808 27.1663C43.0532 27.6526 41.7296 28.9888 40.883 30.1188C40.4548 30.6904 40.1044 31.2221 40.1044 31.3004C40.1044 31.3787 40.0687 31.4586 40.025 31.4781C39.9096 31.5293 38.9405 33.5356 38.9405 33.7232C38.9405 33.8104 38.8928 33.9111 38.8346 33.9471C38.7764 33.9831 38.7288 34.111 38.7288 34.2316C38.7288 34.4686 38.8946 34.4667 40.4219 34.2119C42.5235 33.8612 46.8028 33.696 48.6051 33.8959C49.2549 33.968 50.1438 34.0657 50.5803 34.113C51.495 34.2122 52.683 34.4373 53.596 34.6842C53.9452 34.7787 54.4111 34.9021 54.6314 34.9584C54.8516 35.0148 55.1135 35.1021 55.2133 35.1525C55.5971 35.346 56.2003 35.5873 56.3002 35.5873C56.4101 35.5873 57.7906 36.2323 57.8817 36.3263C57.9108 36.3564 58.1013 36.4687 58.305 36.576C59.1294 37.0105 59.3443 37.1472 60.1461 37.7469C61.2251 38.5541 62.2899 39.5615 62.8705 40.3247C63.1239 40.6577 63.414 41.0221 63.5152 41.1345C63.8357 41.4904 63.8438 41.226 63.5287 40.6965C63.1802 40.111 62.8173 39.3568 62.3687 38.2856C62.2956 38.111 62.1608 37.7943 62.0692 37.5818C61.9776 37.3693 61.9026 37.1639 61.9026 37.1255C61.9026 37.0637 61.7904 36.8022 61.2194 35.5344C60.7663 34.5282 60.1519 33.376 60.0062 33.2593C59.9699 33.2302 59.8496 33.0636 59.739 32.889C59.4337 32.4073 58.3111 31.2694 57.8872 31.012C57.6805 30.8865 57.4874 30.7575 57.4583 30.7253C57.327 30.5801 55.9931 30.032 55.5272 29.9317C55.2128 29.8641 55.1588 29.6935 55.3685 29.4297C55.5057 29.2571 57.089 28.0743 57.1829 28.0743C57.2121 28.0743 57.4409 27.9401 57.6911 27.7762C58.1524 27.4741 59.1734 26.9634 59.945 26.6491C60.7457 26.3227 60.8974 26.2011 60.8974 25.8853C60.8974 25.7036 60.8458 25.5979 60.7651 25.6141C60.664 25.6343 60.6328 25.2667 60.6328 24.0533C60.6328 22.7129 60.6575 22.466 60.7916 22.466C60.8908 22.466 60.9503 22.3657 60.9503 22.1982C60.9503 22.0508 61.0217 21.9029 61.109 21.8694C61.1963 21.8359 61.2677 21.6945 61.2677 21.5553C61.2677 21.3702 61.3264 21.3021 61.4856 21.3021C61.6054 21.3021 61.6739 21.2541 61.6376 21.1954C61.564 21.0763 61.8249 20.773 62.0009 20.773C62.0633 20.773 62.1143 20.6987 62.1143 20.608C62.1143 20.5173 62.1651 20.4745 62.2272 20.5129C62.2894 20.5513 62.3662 20.4827 62.3983 20.3604C62.4488 20.1675 62.6712 20.0778 62.9834 20.1243C63.025 20.1305 63.0332 20.0682 63.0015 19.9859C62.962 19.8825 63.0367 19.8257 63.2434 19.802C63.4135 19.7825 63.5314 19.7106 63.5163 19.6354C63.4985 19.5459 63.638 19.5032 63.9484 19.5032C64.2007 19.5032 64.4401 19.47 64.4805 19.4295C64.5211 19.3891 64.6279 19.3451 64.7181 19.3319C65.0317 19.2858 65.1829 19.1914 65.1829 19.0416C65.1829 18.9587 65.2544 18.8635 65.3417 18.83C65.4425 18.7913 65.5004 18.6287 65.5004 18.3841C65.5004 18.1052 65.5396 18.0141 65.6426 18.0537C65.7449 18.093 65.7709 18.0355 65.7352 17.8489C65.7008 17.6689 65.7294 17.5991 65.8286 17.6205C65.9083 17.6377 65.9876 17.5461 66.0079 17.4133C66.0279 17.2823 66.1073 17.1752 66.1843 17.1752C66.2612 17.1752 66.3517 17.1038 66.3852 17.0165C66.4187 16.9292 66.5084 16.8578 66.5846 16.8578C66.6607 16.8578 66.8794 16.7149 67.0706 16.5403C67.2934 16.3369 67.531 16.2229 67.7324 16.2229C67.9141 16.2229 68.0724 16.1559 68.1075 16.0641C68.1578 15.9332 68.4353 15.9054 69.6915 15.9054C70.9747 15.9054 71.2145 15.9304 71.2145 16.0641C71.2145 16.1706 71.321 16.2229 71.5382 16.2229C71.7406 16.2229 71.8357 16.2652 71.792 16.3358C71.7535 16.3981 71.8229 16.475 71.9467 16.5074C72.1256 16.5542 72.1462 16.5964 72.0483 16.7144C71.9497 16.8332 71.9598 16.8494 72.099 16.796C72.1945 16.7592 72.2727 16.6755 72.2727 16.6098C72.2727 16.5441 72.3798 16.6437 72.5107 16.831C72.6416 17.0183 72.8084 17.1724 72.8811 17.1734C72.9539 17.1744 73.0134 17.2719 73.0134 17.3901C73.0134 17.5084 73.0848 17.6325 73.1721 17.666C73.2594 17.6995 73.3308 17.7933 73.3308 17.8743C73.3308 17.9554 73.3733 18.0217 73.4252 18.0217C73.4771 18.0217 73.5468 18.1305 73.5802 18.2635C73.6388 18.4971 74.0715 18.6511 74.0715 18.4384C74.0715 18.3838 74.1471 18.3392 74.2395 18.3392C74.3318 18.3392 74.4613 18.1963 74.5272 18.0217C74.5931 17.8471 74.6825 17.7043 74.726 17.7043C74.7694 17.7043 74.9495 17.563 75.1261 17.3904C75.3026 17.2177 75.4486 17.1107 75.4505 17.1524C75.4523 17.194 75.512 17.1567 75.5829 17.0694C75.6539 16.9821 75.95 16.7916 76.241 16.6461C76.5319 16.5006 76.7857 16.3458 76.8051 16.3022C76.8246 16.2586 76.9107 16.2229 76.9965 16.2229C77.0824 16.2229 77.1253 16.2672 77.0917 16.3215C77.0582 16.3757 77.1735 16.3489 77.3479 16.2618C77.5224 16.1748 77.6927 16.0591 77.7263 16.0046C77.7601 15.9501 78.1419 15.9054 78.575 15.9054C79.2044 15.9054 79.3624 15.9373 79.3624 16.0641C79.3624 16.178 79.4786 16.2229 79.7743 16.2229C80.0503 16.2229 80.2072 16.2775 80.2497 16.3883C80.2847 16.4793 80.3579 16.5261 80.4125 16.4924C80.4671 16.4586 80.6423 16.5522 80.802 16.7001C80.9617 16.848 81.2264 17.075 81.3903 17.2044C81.5542 17.3338 81.6888 17.4993 81.6894 17.572C81.6899 17.6448 81.7617 17.7043 81.849 17.7043C81.9363 17.7043 82.0078 17.7757 82.0078 17.863C82.0078 17.9503 82.0792 18.0217 82.1665 18.0217C82.2723 18.0217 82.3252 18.1276 82.3252 18.3392C82.3252 18.5291 82.3805 18.6566 82.4628 18.6566C82.5507 18.6566 82.6003 18.7972 82.6003 19.0464C82.6003 19.2607 82.6575 19.4552 82.7273 19.4785C82.7972 19.5018 82.8543 19.5882 82.8543 19.6707C82.8543 19.7532 82.9445 19.8206 83.0546 19.8206C83.1648 19.8206 83.2823 19.892 83.3159 19.9793C83.3588 20.0913 83.5335 20.1381 83.9092 20.1381C84.3118 20.1381 84.4415 20.1767 84.4415 20.2968C84.4415 20.3849 84.5356 20.4555 84.6532 20.4555C84.8772 20.4555 85.2881 20.802 85.2881 20.9908C85.2881 21.0524 85.334 21.0745 85.3901 21.0399C85.5103 20.9656 85.9359 21.3597 85.8394 21.4561C85.8032 21.4924 85.8785 21.5496 86.007 21.5831C86.1354 21.6168 86.2404 21.7061 86.2404 21.7817C86.2404 21.8574 86.2902 21.9359 86.3509 21.9561C86.4117 21.9764 86.4695 22.0994 86.4793 22.2295C86.4891 22.3596 86.5584 22.466 86.6333 22.466C86.7082 22.466 86.7695 22.5579 86.7695 22.6702C86.7695 22.7823 86.8447 22.9494 86.9367 23.0414C87.1933 23.298 87.177 26.0275 86.9177 26.2171C86.75 26.3398 86.7533 26.3651 86.9651 26.5768C87.0903 26.7021 87.24 26.8045 87.2976 26.8045C87.7902 26.8045 91.3886 29.1198 91.5446 29.5372C91.6355 29.7802 91.4524 29.979 91.1378 29.979C90.9939 29.979 90.7497 30.0467 90.5952 30.1296C90.4407 30.2123 90.1001 30.3813 89.8382 30.5051C89.1928 30.8101 89.0189 30.9232 88.5319 31.3546C87.545 32.2288 86.8441 33.1271 86.2403 34.2916C86.112 34.5392 85.9641 34.7681 85.912 34.8004C85.8598 34.8327 85.8172 34.9275 85.8172 35.0112C85.8172 35.0949 85.6697 35.485 85.4893 35.878C84.9422 37.0709 84.8648 37.2552 84.8648 37.3659C84.8648 37.4245 84.7414 37.7268 84.5906 38.0378C84.4399 38.3487 84.2562 38.7459 84.1824 38.9205C83.8665 39.6686 83.2545 40.8799 83.1641 40.9358C83.047 41.0081 83.0319 41.3017 83.1453 41.3006C83.189 41.3002 83.3437 41.1242 83.4892 40.9094C83.9833 40.1801 85.5488 38.6274 86.5579 37.8658C87.1108 37.4486 87.6346 37.0743 87.7219 37.0341C87.8092 36.9939 88.0234 36.8741 88.198 36.7679C89.2612 36.1209 91.0934 35.2698 91.4229 35.2698C91.5174 35.2698 91.64 35.225 91.6953 35.17C91.7505 35.1152 91.9863 35.0221 92.2191 34.9632C92.4519 34.9042 92.928 34.778 93.2772 34.6826C94.0093 34.4828 95.3072 34.2195 95.9226 34.1461C98.3804 33.8529 99.2216 33.7884 100.583 33.7881C102.245 33.7877 104.839 33.9921 106.851 34.2819C107.507 34.3765 108.072 34.4247 108.108 34.389C108.17 34.3274 108.097 34.0999 107.747 33.2593C107.503 32.6741 106.667 31.0397 106.556 30.9315C106.526 30.9023 106.312 30.5943 106.08 30.2471C105.529 29.4226 103.853 27.6981 103.146 27.2278C102.84 27.0241 102.565 26.8336 102.536 26.8045C102.474 26.7428 101.253 26.1488 100.79 25.9553C100.616 25.8823 100.306 25.7848 100.102 25.7386C99.8987 25.6924 99.5416 25.605 99.3088 25.5442C98.6676 25.3771 96.5713 25.4043 95.7707 25.5901C94.4373 25.8995 93.7684 26.1426 92.5061 26.777C92.0152 27.0238 91.5665 27.1967 91.5092 27.1612C91.452 27.1259 91.4306 26.9716 91.4618 26.8185C91.4929 26.6653 91.5737 26.2781 91.6411 25.958C91.8005 25.2011 91.7195 21.7138 91.5306 21.1962C91.113 20.0523 90.8934 19.5461 90.5284 18.8861C90.2253 18.3378 89.0419 16.9409 88.428 16.4067C87.8461 15.9003 86.5289 14.9101 85.9702 14.5591C85.0949 14.0092 83.9921 13.3442 83.595 13.1268C83.3331 12.9833 82.8331 12.7103 82.4839 12.5199C82.1347 12.3296 81.8014 12.1386 81.7432 12.0954C81.685 12.0522 81.3279 11.8506 80.9496 11.6475C79.5699 10.9061 79.1811 10.6751 77.9871 9.88647C76.6831 9.02523 75.4812 7.95595 74.7616 7.01683C74.2383 6.334 73.6483 5.29953 73.6483 5.06494C73.6483 4.97447 73.5619 4.9005 73.4564 4.9005C73.3263 4.9005 73.1873 5.0788 73.0237 5.45604ZM72.7098 21.8027C72.6516 21.9066 72.5341 21.947 72.3955 21.9107C72.2422 21.8706 72.1556 21.9113 72.1138 22.0431C72.0806 22.1477 71.936 22.2628 71.7927 22.2988C71.6423 22.3365 71.5313 22.4417 71.5303 22.5474C71.5291 22.6881 71.5079 22.6979 71.4392 22.5894C71.3678 22.4768 71.3361 22.4839 71.2821 22.6245C71.245 22.7215 71.2145 22.8922 71.2145 23.0038C71.2145 23.1154 71.1431 23.2067 71.0558 23.2067C70.9565 23.2067 70.897 23.3071 70.897 23.4746C70.897 23.622 70.8256 23.7699 70.7383 23.8033C70.6199 23.8488 70.5796 24.0379 70.5796 24.5483C70.5796 25.0153 70.5292 25.2828 70.4209 25.3911C70.3188 25.4932 70.2621 25.7547 70.2621 26.1242C70.2621 26.5643 70.2993 26.6987 70.4209 26.6987C70.5431 26.6987 70.5796 26.835 70.5796 27.2908C70.5796 27.6582 70.6499 28.0085 70.7648 28.2137C71.0042 28.6415 72.3773 30.0848 72.5448 30.0848C72.6155 30.0848 72.6976 30.1483 72.7273 30.2258C72.8109 30.4435 74.0545 30.4641 74.1369 30.2492C74.1716 30.1588 74.2463 30.0848 74.303 30.0848C74.4327 30.0848 75.4931 29.0173 75.9685 28.4083C76.2639 28.0297 76.3242 27.8664 76.3096 27.4824C76.2999 27.226 76.3342 27.0161 76.3857 27.0161C76.6711 27.0161 76.6925 25.121 76.4082 25.0262C76.3448 25.005 76.2937 24.7309 76.2937 24.4115C76.2937 23.9967 76.2491 23.8179 76.135 23.7741C76.0477 23.7406 75.9762 23.5992 75.9762 23.46C75.9762 23.3055 75.9143 23.2067 75.8175 23.2067C75.7302 23.2067 75.6588 23.1319 75.6588 23.0405C75.6588 22.949 75.5993 22.8111 75.5265 22.7341C75.4538 22.657 75.2757 22.4461 75.1309 22.2655C74.986 22.0848 74.7717 21.9355 74.6547 21.9336C74.5377 21.9318 74.3529 21.8628 74.2441 21.7804C73.9617 21.5666 72.8327 21.5829 72.7098 21.8027ZM75.8264 22.9571C75.7706 23.1024 75.7862 23.109 75.9209 22.9971C76.1045 22.8448 76.1236 22.7835 75.9876 22.7835C75.9356 22.7835 75.8631 22.8617 75.8264 22.9571ZM72.9162 23.0651C72.6687 23.1729 72.2973 23.648 71.985 24.2567C71.7114 24.79 71.6912 24.9165 71.6975 26.0555C71.7041 27.2301 71.7184 27.3061 72.0441 27.8964C72.5792 28.8664 72.7159 28.9737 73.4162 28.9737C74.1258 28.9737 74.3177 28.8263 74.8314 27.8863C75.1501 27.3031 75.1624 27.2337 75.1624 26.0109C75.1624 24.7837 75.1511 24.7205 74.8259 24.1253C74.3418 23.2392 74.1838 23.1021 73.5846 23.0473C73.2995 23.0211 72.9988 23.0292 72.9162 23.0651ZM16.0127 35.2571C15.1818 35.859 14.9486 36.971 15.4618 37.8848C15.6498 38.2195 15.6506 38.2427 15.4757 38.3002C14.5738 38.5969 14.0793 39.0638 13.8015 39.8809C13.6096 40.4456 13.6095 40.4799 13.7959 41.0146C13.9083 41.3369 14.1688 41.7527 14.4232 42.0156C14.6964 42.2979 14.7984 42.4653 14.6974 42.4653C14.5211 42.4653 14.121 42.8679 13.8034 43.3648C13.6433 43.6153 13.6011 43.8721 13.6038 44.5817C13.6067 45.4193 13.631 45.5175 13.9563 46.0102C14.1484 46.3012 14.4971 46.6738 14.731 46.8381L15.1564 47.1368L14.8989 47.4201C14.3297 48.0457 14.2405 48.2905 14.2363 49.2376C14.2334 49.8869 14.2844 50.2457 14.4196 50.5278C14.6755 51.0617 15.1599 51.5236 15.6252 51.6771C16.3134 51.9042 18.4059 51.6247 20.7929 50.9867C21.1421 50.8934 21.7135 50.7421 22.0627 50.6505C22.4119 50.5588 23.324 50.4618 24.0895 50.4347C25.4794 50.3856 25.4823 50.386 26.1483 50.7165C26.5152 50.8985 26.9999 51.2357 27.2255 51.466C27.4512 51.6961 27.6795 51.8575 27.7328 51.8246C27.8624 51.7445 27.8561 51.1195 27.7221 50.7671C27.6489 50.5747 27.6494 50.2079 27.7236 49.6227C27.8361 48.7358 27.7657 48.1867 27.335 46.5922C26.8532 44.8078 26.0791 43.2561 24.6165 41.1426C24.1095 40.4101 22.5483 38.686 21.7673 37.9961C21.3544 37.6315 20.8949 37.2191 20.7461 37.0795C20.5973 36.9399 19.9131 36.4043 19.2257 35.8891L17.976 34.9524H17.2046C16.5227 34.9524 16.3845 34.9877 16.0127 35.2571ZM128.075 35.5461C127.335 36.0753 126.915 36.3991 126.033 37.1214C125.596 37.48 123.453 39.6279 122.919 40.2432C121.95 41.3597 120.585 43.5849 120.128 44.7933C119.31 46.9577 118.985 48.4877 119.102 49.6309C119.149 50.0839 119.173 50.5021 119.155 50.5603C119.069 50.8544 119.025 51.577 119.085 51.7323C119.141 51.8779 119.246 51.8219 119.683 51.4126C119.975 51.1395 120.481 50.7979 120.809 50.6532C121.362 50.4084 121.495 50.3932 122.737 50.434C123.984 50.4748 124.48 50.5565 126.08 50.9842C128.684 51.6798 130.587 51.9286 131.285 51.6643C131.668 51.519 132.015 51.1964 132.358 50.6661C132.6 50.2912 132.631 50.1341 132.632 49.2905C132.633 48.2534 132.523 47.9659 131.923 47.4271L131.616 47.1508L131.97 46.9319C132.392 46.6704 132.783 46.2468 133.053 45.7596C133.355 45.213 133.337 43.928 133.019 43.3371C132.791 42.9126 132.417 42.5317 132.135 42.4377C132.065 42.4144 132.178 42.2486 132.392 42.0609C132.633 41.8492 132.857 41.5013 133.001 41.1161C133.227 40.5125 133.227 40.5005 133.035 39.8927C132.758 39.0182 132.265 38.5528 131.331 38.2824C131.192 38.2423 131.126 38.179 131.184 38.1418C131.58 37.8857 131.783 36.5871 131.503 36.0893C130.991 35.1747 130.633 34.954 129.663 34.9531C128.913 34.9524 128.899 34.9577 128.075 35.5461ZM63.8073 41.4751C63.8073 41.5125 63.9996 41.8476 64.2347 42.2197C64.4697 42.5919 64.7077 43.0018 64.7635 43.1306C64.8194 43.2594 64.9098 43.4362 64.9647 43.5235C65.1004 43.7399 65.6062 44.8692 65.6062 44.9559C65.6062 44.9944 65.6698 45.1759 65.7475 45.3593C66.0851 46.156 66.4006 47.2195 66.5526 48.0736C66.5993 48.3355 66.6883 48.7879 66.7503 49.0789C67.4232 52.232 67.0593 57.0366 65.9628 59.4782C65.8248 59.7854 65.712 60.0524 65.712 60.0715C65.712 60.0907 66.0509 60.1378 66.4651 60.1763C67.4357 60.2665 68.1426 60.4999 68.9678 61.0025C69.3325 61.2247 69.6516 61.4065 69.6767 61.4065C69.7018 61.4065 69.9272 61.5417 70.1775 61.7071C70.4277 61.8724 70.8359 62.0867 71.0843 62.1833C71.6187 62.3909 72.6398 62.4111 73.0134 62.2214C73.2286 62.1121 73.3765 62.1137 73.807 62.2298C74.1038 62.3097 74.6173 62.3523 74.9767 62.3266C75.5526 62.2854 75.7563 62.2223 76.2937 61.9189C76.381 61.8695 76.5476 61.7865 76.664 61.7343C76.7804 61.682 77.0563 61.5155 77.2771 61.3642C77.498 61.2129 77.7014 61.089 77.729 61.089C77.7567 61.089 77.9569 60.9792 78.174 60.8449C78.7973 60.4593 79.456 60.2567 80.3366 60.1797L81.1522 60.1083L80.983 59.7257C80.1041 57.7379 79.7092 55.1897 79.8249 52.2534C79.9357 49.4417 80.1701 48.0643 80.9143 45.8515C81.061 45.415 81.243 44.915 81.3186 44.7404C81.3941 44.5658 81.4846 44.3515 81.5196 44.2642C81.5546 44.1769 81.6259 44.0341 81.678 43.9468C81.7302 43.8595 81.8614 43.5983 81.9697 43.3665C82.1938 42.8865 82.7578 41.9098 82.8567 41.8304C82.9435 41.7608 83.0729 41.4072 83.0116 41.4072C82.9855 41.4072 82.6636 41.7076 82.2963 42.0749C81.4933 42.8779 80.6642 43.2929 79.5211 43.464C78.9235 43.5535 76.9878 43.2574 76.5227 43.0053C76.3868 42.9317 76.2516 42.8955 76.2223 42.9247C76.1929 42.954 76.2267 43.2358 76.2973 43.5509C76.3928 43.978 76.3952 44.1803 76.3067 44.3458C76.2413 44.4679 76.1879 44.6671 76.1879 44.7884C76.1879 45.0548 75.7405 45.7859 75.364 46.1347C74.3917 47.0359 72.485 47.0391 71.5164 46.1413C70.7908 45.4689 70.3527 44.2432 70.5642 43.4772C70.7025 42.9762 70.6393 42.8484 70.3351 43.0145C70.1118 43.1364 69.9328 43.175 68.4897 43.412C67.651 43.5496 66.0481 43.3248 65.8083 43.0358C65.7411 42.9549 65.6249 42.8886 65.5501 42.8886C65.4753 42.8886 65.0687 42.5553 64.6465 42.1479C63.8762 41.4046 63.8073 41.3495 63.8073 41.4751ZM59.4345 43.8709C59.1089 44.194 58.8108 44.5843 58.7721 44.7385C58.7334 44.8926 58.7255 45.3846 58.7544 45.8319C58.8197 46.8386 59.142 47.6046 60.1297 49.0996C60.5217 49.6929 60.9201 50.3596 61.015 50.581C61.1101 50.8024 61.2332 51.0721 61.2889 51.1805C61.4255 51.4466 61.5779 52.301 61.6555 53.2366C61.7647 54.5542 61.4012 56.302 60.6659 57.9951C60.5834 58.1849 60.5472 58.3908 60.5855 58.4527C60.6737 58.5954 61.5737 56.7988 61.8358 55.9569C61.9445 55.6078 62.0743 55.203 62.1243 55.0575C62.1743 54.912 62.2962 54.412 62.3952 53.9464C62.6099 52.9378 62.6473 49.9058 62.4552 49.0789C61.9935 47.0913 61.7895 46.4585 61.2565 45.3615C60.974 44.7801 60.4135 43.8152 60.3117 43.7351C60.2747 43.706 60.1954 43.5925 60.1355 43.4829C60.0362 43.3012 59.974 43.3357 59.4345 43.8709ZM86.3275 44.0689C85.4257 45.5598 84.7824 47.1451 84.5304 48.4969C84.4708 48.817 84.3815 49.2932 84.3322 49.555C84.0822 50.8821 84.2593 53.3915 84.7206 55.0575C84.9951 56.0488 85.731 57.8742 85.915 58.0204C85.9518 58.0495 86.0367 58.1923 86.1039 58.3378C86.2258 58.6018 86.2261 58.6017 86.2332 58.2585C86.2373 58.0693 86.1928 57.9146 86.1346 57.9146C86.0764 57.9146 86.0288 57.8385 86.0288 57.7454C86.0288 57.6523 85.9648 57.4261 85.8865 57.2427C85.8082 57.0593 85.669 56.6474 85.5771 56.3273C84.8234 53.7015 85.1976 51.0646 86.5705 49.3282C86.7382 49.1161 86.8753 48.9105 86.8753 48.8714C86.8753 48.8322 86.9884 48.6486 87.1266 48.4633C87.3726 48.1339 87.5318 47.8174 87.8821 46.9625C87.9774 46.7297 88.0817 46.2048 88.1138 45.7959C88.1616 45.1863 88.133 44.9673 87.9549 44.579C87.8354 44.3186 87.6326 44.0341 87.5041 43.9468C87.3756 43.8595 87.1641 43.6763 87.0341 43.5398L86.7977 43.2916L86.3275 44.0689ZM57.5076 44.1521C57.2165 44.2717 57.0876 44.4433 56.8666 45.0049C56.6484 45.5594 56.5613 45.636 56.1456 45.6383C55.4651 45.6418 54.7328 46.6632 54.9875 47.2536C55.1466 47.6221 55.0444 47.8408 54.6753 47.9219C54.1617 48.0347 53.6797 48.4622 53.4818 48.9805C53.3294 49.3795 53.3225 49.5154 53.4347 49.9161C53.5814 50.4402 53.526 50.6132 53.2113 50.6132C53.0938 50.6132 52.8527 50.7583 52.6752 50.9357C52.3848 51.2262 52.3583 51.3069 52.4081 51.7494C52.4386 52.0195 52.532 52.291 52.6157 52.3527C52.6994 52.4145 52.8222 52.5671 52.8888 52.692C52.9845 52.872 52.9772 52.9458 52.8531 53.0488C52.6947 53.1803 52.6431 53.7367 52.7608 54.0436C52.865 54.315 53.0864 54.2385 53.5129 53.7839C54.078 53.1814 54.8276 52.9849 55.6557 53.2221C55.9779 53.3144 56.3046 53.4407 56.3818 53.5026C56.5347 53.6254 56.713 53.4427 56.716 53.1603C56.7183 52.9544 56.9234 52.329 57.1298 51.8999C57.3669 51.4066 58.0137 50.8489 58.7154 50.5325C59.0425 50.385 59.3262 50.2514 59.3458 50.2356C59.3655 50.2197 59.0746 49.5721 58.6996 48.7962C57.7556 46.8438 57.727 46.7555 57.7248 45.7833C57.7233 45.0937 57.7617 44.8787 57.9174 44.7066C58.2796 44.3061 58.0124 43.9444 57.5076 44.1521ZM88.8084 44.1386C88.7098 44.2013 88.7351 44.3234 88.912 44.6397C89.1002 44.9762 89.1436 45.2138 89.1338 45.8562C89.1213 46.6796 88.8301 47.569 88.1695 48.8008C87.551 49.9542 87.4912 50.0933 87.5487 50.2436C87.5821 50.3305 87.6799 50.4016 87.7659 50.4016C88.0008 50.4016 88.8992 50.904 89.229 51.22C89.6068 51.5818 89.8779 52.1132 90.0531 52.8354C90.2187 53.518 90.3061 53.65 90.4951 53.5031C90.5702 53.4445 90.8857 53.3158 91.196 53.2168C91.7155 53.0513 91.8055 53.0502 92.3317 53.2031C92.7071 53.3123 93.0547 53.5135 93.3454 53.7901C93.5888 54.0216 93.8494 54.211 93.9245 54.211C94.1595 54.211 94.2322 53.468 94.0314 53.1183C93.8467 52.7964 93.8947 52.6441 94.2744 52.3471C94.3669 52.2748 94.4282 52.0235 94.4332 51.6971C94.4427 51.066 94.2213 50.7568 93.6883 50.6568L93.3348 50.5906L93.3993 49.8259C93.4536 49.1847 93.4318 49.0116 93.2648 48.7526C92.9812 48.313 92.7019 48.0952 92.2345 47.9493C91.7599 47.801 91.6618 47.6292 91.8505 47.2767C91.9644 47.0638 91.9568 46.9463 91.8034 46.5445C91.5928 45.9932 91.1629 45.6398 90.7024 45.6398C90.3095 45.6398 90.1337 45.4738 89.9559 44.935C89.8725 44.6825 89.6851 44.4279 89.478 44.286C89.1095 44.0335 89.0087 44.0114 88.8084 44.1386ZM23.4913 47.7967C23.4913 47.819 23.5866 47.8622 23.703 47.8927C23.8195 47.9231 23.8882 47.9048 23.8555 47.8521C23.7985 47.76 23.4913 47.7132 23.4913 47.7967ZM56.7388 48.0948C56.3961 48.4375 56.7755 49.1798 57.2323 49.0604C57.7906 48.9144 57.7187 47.9678 57.1493 47.9678C56.9933 47.9678 56.8086 48.0249 56.7388 48.0948ZM89.2898 48.2323C89.0432 48.7737 89.5744 49.2836 90.0429 48.9554C90.286 48.7851 90.3379 48.2982 90.1345 48.0948C89.9029 47.8633 89.4223 47.9416 89.2898 48.2323ZM55.5748 49.682C55.3559 49.901 55.425 50.2899 55.7056 50.4178C56.1732 50.6308 56.4878 50.3417 56.3567 49.8194C56.3058 49.6167 56.2217 49.555 55.9961 49.555C55.8342 49.555 55.6447 49.6122 55.5748 49.682ZM90.4711 49.8233C90.3423 50.064 90.3511 50.1149 90.5568 50.3206C90.7467 50.5107 90.8361 50.5323 91.0792 50.4472C91.6246 50.2561 91.4847 49.555 90.9013 49.555C90.7028 49.555 90.5705 49.6376 90.4711 49.8233ZM54.6225 51.4809C54.5526 51.5507 54.4955 51.7317 54.4955 51.883C54.4955 52.2337 54.6751 52.4121 55.0278 52.4121C55.4072 52.4121 55.6386 51.9949 55.4675 51.6194C55.3346 51.3277 54.8544 51.249 54.6225 51.4809ZM91.4466 51.4809C91.1282 51.7993 91.3968 52.4121 91.8547 52.4121C92.2616 52.4121 92.4756 52.023 92.2912 51.6185C92.1587 51.3277 91.6781 51.2494 91.4466 51.4809ZM38.7024 52.0589C38.7752 52.0883 38.8942 52.0883 38.9669 52.0589C39.0397 52.0296 38.9801 52.0055 38.8346 52.0055C38.6891 52.0055 38.6297 52.0296 38.7024 52.0589ZM41.4536 52.0589C41.5264 52.0883 41.6454 52.0883 41.7181 52.0589C41.7909 52.0296 41.7314 52.0055 41.5859 52.0055C41.4404 52.0055 41.3809 52.0296 41.4536 52.0589ZM105.162 52.0611C105.238 52.0917 105.329 52.0879 105.365 52.0527C105.4 52.0176 105.337 51.9926 105.226 51.9972C105.102 52.0023 105.077 52.0273 105.162 52.0611ZM107.801 52.0589C107.873 52.0883 107.992 52.0883 108.065 52.0589C108.138 52.0296 108.078 52.0055 107.933 52.0055C107.787 52.0055 107.728 52.0296 107.801 52.0589ZM104.775 52.5179C104.775 52.6634 104.799 52.723 104.828 52.6502C104.858 52.5775 104.858 52.4584 104.828 52.3856C104.799 52.3129 104.775 52.3724 104.775 52.5179ZM72.5046 53.5787C72.312 53.6961 72.0739 53.9371 71.9755 54.1143C71.817 54.3994 71.7547 54.43 71.4328 54.3801C70.4815 54.2326 69.4845 54.9068 69.3318 55.801C69.2626 56.2064 69.2115 56.2754 68.9372 56.3341C67.6003 56.62 66.8014 57.593 67.034 58.6518C67.1256 59.0689 67.265 59.1423 67.5229 58.909C67.6431 58.8001 67.8958 58.7188 68.1133 58.7188C68.426 58.7188 68.5565 58.7931 68.8473 59.1367C69.0418 59.3666 69.2015 59.5925 69.2024 59.6386C69.2032 59.6848 69.3963 59.9773 69.6315 60.2886C70.0596 60.8558 70.6258 61.3062 71.1 61.4567C71.2391 61.5008 72.3099 61.5392 73.4794 61.5419C75.425 61.5466 75.6418 61.5285 76.0291 61.3289C76.6131 61.0281 77.0353 60.6001 77.5863 59.7503C77.8448 59.3518 78.1403 58.9565 78.243 58.8722C78.5011 58.6601 79.0973 58.6799 79.3504 58.909C79.668 59.1963 79.7856 59.0296 79.7856 58.293C79.7856 57.3227 79.3468 56.7925 78.2602 56.4494C77.6435 56.2548 77.632 56.244 77.5026 55.734C77.2826 54.8669 76.2719 54.212 75.4047 54.3747C75.0846 54.4348 75.0266 54.4071 74.8513 54.1101C74.4227 53.3848 73.256 53.1205 72.5046 53.5787ZM71.9927 58.2115C71.6981 58.2535 71.3836 58.6035 71.4605 58.8038C71.4935 58.89 71.6302 59.0313 71.7643 59.1181C71.9783 59.2565 72.079 59.2573 72.5867 59.1242C72.9049 59.041 73.2874 58.9727 73.4366 58.9727C73.5858 58.9727 73.9684 59.041 74.2866 59.1242C74.791 59.2564 74.8956 59.2561 75.1032 59.1218C75.3798 58.9429 75.4177 58.5329 75.1763 58.3325C75.0607 58.2367 74.5917 58.1931 73.6155 58.1873C72.8478 58.1828 72.1175 58.1937 71.9927 58.2115ZM60.3154 58.7611C60.3154 58.8775 60.3337 58.9727 60.3559 58.9727C60.3782 58.9727 60.4214 58.8775 60.4519 58.7611C60.4823 58.6447 60.4641 58.5495 60.4113 58.5495C60.3586 58.5495 60.3154 58.6447 60.3154 58.7611ZM86.3478 58.6288C86.3488 58.6725 86.3957 58.7796 86.4521 58.8669C86.535 58.9953 86.5549 58.98 86.5563 58.7875C86.5571 58.6566 86.5103 58.5495 86.4521 58.5495C86.3939 58.5495 86.347 58.5851 86.3478 58.6288Z" fill="#D2D2D2"/>
</svg>
