<svg width="79" height="75" viewBox="0 0 79 75" fill="none" xmlns="http://www.w3.org/2000/svg">
<path fill-rule="evenodd" clip-rule="evenodd" d="M28.4487 2.63179C25.5702 4.9868 24.8408 5.24593 21.9855 4.93085C19.1709 4.62018 18.7678 4.75564 18.7678 6.01449C18.7678 7.87111 14.8049 11.7566 12.9114 11.7566C10.2193 11.7566 7.48817 14.5644 7.48817 17.3316C7.48817 18.9542 7.12722 19.8545 6.47677 19.8545C5.9203 19.8545 4.89837 20.4677 4.20505 21.2179C3.16431 22.3435 3.03121 23.486 3.43954 27.7853C3.91027 32.7463 3.84109 33.0732 1.96642 34.7745L0 36.559L1.91152 38.3169C3.72604 39.9858 3.79823 40.3443 3.31922 45.3452C2.86503 50.0935 2.97181 50.7693 4.39981 52.1672C5.27135 53.0205 6.86629 53.7184 7.94462 53.7184C9.52076 53.7184 9.79674 53.9709 9.35157 55.0067C7.55435 59.1933 9.32901 62.7593 13.6762 63.6935C17.2405 64.4598 18.6776 65.5744 19.5897 68.2805C20.2703 70.2991 20.6808 70.6267 22.0314 70.2263C22.9247 69.9612 23.8248 69.7433 24.0316 69.7418C26.1372 69.7286 27.3456 70.2807 30.0474 72.4907C33.4697 75.2896 36.0211 75.7394 37.9221 73.8784C39.0403 72.7837 39.2434 72.7837 40.4796 73.8784C42.528 75.6938 44.5305 75.322 48.4378 72.4009C51.6555 69.9958 52.3292 69.7779 55.3138 70.1784C58.2059 70.5664 58.6225 70.4486 58.6225 69.2457C58.6225 67.0379 60.9724 64.9148 65.003 63.48C69.3968 61.9171 70.7707 59.5326 69.3705 55.9004C68.5794 53.8501 68.6403 53.7184 70.3774 53.7184C73.1281 53.7184 76.1684 50.4291 75.6916 47.9696C75.4803 46.8801 75.0727 44.8107 74.7862 43.3715C74.3531 41.1976 74.5922 40.3731 76.1947 38.5083L78.125 36.2623L76.2218 34.5117C74.4208 32.8553 74.3456 32.4813 74.8186 27.5394C75.2337 23.1989 75.1058 22.1094 74.0606 21.0861C73.3688 20.4088 72.2964 19.8545 71.6776 19.8545C70.9218 19.8545 70.6992 19.404 70.9985 18.4793C71.8701 15.7901 70.1841 13.4542 66.3799 12.0791C61.7981 10.4242 60.407 9.26321 59.8731 6.65201C59.4715 4.68644 59.2632 4.58558 56.2147 4.883C53.3557 5.16127 52.6368 4.89625 49.9831 2.58762C46.3435 -0.578655 43.5627 -0.805395 40.8571 1.84335L38.9516 3.7088L37.4529 1.84335C35.2895 -0.849566 32.3959 -0.596323 28.4487 2.63179ZM28.5435 4.02683C26.8109 5.44396 24.664 6.61447 23.7722 6.62772C22.1788 6.65201 22.1825 6.67778 23.9805 8.14276C25.7552 9.5886 25.7717 9.69461 24.5445 11.7286C23.8489 12.8808 23.2797 14.3531 23.2797 14.9987C23.2797 15.6451 22.8939 16.1736 22.4232 16.1736C21.8396 16.1736 21.705 15.026 22.0021 12.573C22.2983 10.1209 22.1133 8.53882 21.4223 7.61345C20.4891 6.36417 20.3643 6.47681 19.8807 9.0004C19.2641 12.2189 19.9078 15.2829 21.5825 17.102C22.7172 18.3343 22.854 18.3174 24.3437 16.7515C25.2062 15.8453 25.9116 14.8007 25.9116 14.4304C25.9116 13.7288 26.2334 13.5389 31.1754 11.3223C34.0231 10.0443 34.0788 9.95889 32.2214 9.72111C31.0912 9.57682 29.8467 8.71624 29.2872 7.69296C28.4187 6.1043 28.5074 5.75978 30.1219 4.4435C31.968 2.93877 35.3113 2.38885 35.3113 3.58954C35.3113 3.95689 34.6811 4.09603 33.9111 3.89874C32.1537 3.44894 31.2536 5.44543 32.6876 6.61079C34.2525 7.88216 36.8152 6.79557 36.8152 4.86091C36.8152 0.774428 32.9914 0.38941 28.5435 4.02683ZM42.2294 2.33364C41.0052 3.53212 41.0932 5.49696 42.4189 6.57398C43.9883 7.84903 46.2149 7.21224 46.2149 5.48886C46.2149 4.41185 45.7697 4.07321 44.523 4.20204C42.4445 4.41774 42.3595 3.95763 44.2921 2.94466C46.5007 1.78813 49.8485 5.00594 49.1739 7.63775C48.7844 9.15426 48.2265 9.54811 46.4653 9.54811C43.3649 9.54811 44.4184 10.6848 48.8559 12.1277C50.9185 12.7983 52.618 13.7347 52.6315 14.2081C52.6593 15.1614 55.5169 18.7598 55.8831 18.3027C57.9796 15.6804 58.6225 13.8459 58.6225 10.4882C58.6225 8.35183 58.2909 6.60343 57.8848 6.60343C57.0103 6.60343 56.4689 8.69047 56.1658 13.229C55.9522 16.4298 55.9229 16.4674 55.2792 14.3332C54.913 13.1185 54.0776 11.7117 53.4218 11.206C52.3623 10.3896 52.4638 10.084 54.3408 8.44533C56.2079 6.81471 56.2794 6.60343 54.9619 6.60343C54.1438 6.60343 51.9224 5.44396 50.0259 4.02683C46.4721 1.37146 43.8041 0.792095 42.2294 2.33364ZM34.8623 11.9812C33.5817 13.2746 31.0438 15.581 29.2225 17.1071C26.2785 19.5733 26.1176 19.8589 27.7727 19.6837C28.8713 19.5674 30.0106 18.7436 30.5543 17.6725C31.3175 16.1685 31.5552 16.064 31.9462 17.0607C32.5207 18.5257 30.4061 21.8753 28.6736 22.2456C27.9818 22.3936 29.0398 22.7668 31.0258 23.076C33.7058 23.4919 34.8135 24.0507 35.3256 25.2425C36.4468 27.8508 39.8149 31.4669 39.8194 30.0667C39.8216 29.4078 40.366 28.4279 41.0293 27.8891C41.6925 27.3495 42.522 26.1723 42.8709 25.2727C43.3537 24.0308 44.3748 23.5015 47.1165 23.076C49.1025 22.7668 50.2192 22.3965 49.5988 22.2515C47.7602 21.823 45.675 18.5382 46.4172 17.2404C46.9564 16.2966 47.2173 16.4225 47.9414 17.978C48.4581 19.0881 49.4349 19.8545 50.335 19.8545C52.73 19.8545 52.1533 18.9004 47.9069 15.8365C45.7352 14.2699 43.1995 12.1313 42.2708 11.0838C40.8428 9.47376 40.5819 9.38763 40.5789 10.525C40.5766 11.2649 41.579 12.8528 42.8062 14.0542C44.5388 15.7503 44.7907 16.3312 43.9342 16.6529C43.3221 16.8826 42.831 18.0001 42.831 19.1647C42.831 20.3176 42.0234 22.4259 41.0368 23.8497L39.2426 26.4381L37.2769 23.5302C36.1956 21.9305 35.3113 19.8147 35.3113 18.8275C35.3113 17.8403 34.8887 16.8855 34.3713 16.7066C33.7554 16.4924 34.1442 15.7224 35.4993 14.4716C36.637 13.4218 37.5672 11.8847 37.5672 11.0558C37.5672 9.18371 37.665 9.15058 34.8623 11.9812ZM15.8697 12.5134C14.8959 13.3077 13.7815 13.7649 13.3927 13.5293C13.0039 13.2945 11.8338 13.6486 10.7931 14.3163C8.36122 15.8762 8.58079 18.6413 11.1653 18.9991C12.6648 19.2067 12.8941 18.9939 12.5512 17.7108C12.0068 15.6716 13.9213 15.6576 15.0335 17.6931C15.6313 18.7871 15.6358 19.482 15.0478 20.1755C14.4169 20.9197 14.7034 21.2356 16.3119 21.5676C17.5955 21.8333 19.0506 23.0083 20.1116 24.6381L21.8314 27.2788L18.6076 27.1308C16.6059 27.0395 14.7425 26.4204 13.692 25.4987C12.1655 24.1604 12 24.1398 12 25.2941C12 26.2886 11.4691 26.522 9.61401 26.3424C8.30181 26.2158 7.08887 25.6975 6.91893 25.191C6.73018 24.6278 7.043 24.4327 7.72505 24.6889C9.0974 25.205 9.90653 24.0706 9.28991 22.4974C8.74773 21.1148 6.65874 20.961 5.38264 22.2102C4.23889 23.33 4.19828 27.2162 5.33151 27.2162C5.88947 27.2162 6.04438 28.224 5.78119 30.1425L5.38039 33.068L7.52502 31.9829C8.70412 31.3859 11.1247 30.8853 12.9024 30.8713C14.6808 30.8566 16.9819 30.3714 18.0158 29.7928C19.0498 29.2142 20.7869 28.729 21.8757 28.7143L23.8557 28.6885L22.8022 25.6953C22.2231 24.0485 21.9396 22.3994 22.1728 22.0299C22.4059 21.6603 21.8787 20.4081 21.0019 19.2472C20.1251 18.0862 19.219 15.7599 18.9889 14.0785C18.5136 10.6111 18.3204 10.514 15.8697 12.5134ZM59.8535 12.3213C59.652 13.0228 59.2707 14.6505 59.006 15.9388C58.7421 17.2264 58.0397 18.6752 57.4464 19.1573C56.8524 19.6403 56.3666 21.2459 56.3666 22.7256C56.3666 24.2053 55.8395 26.1524 55.1958 27.052C54.0701 28.626 54.1061 28.6893 56.1357 28.7143C57.2968 28.729 59.0925 29.2142 60.1265 29.7928C61.1604 30.3714 63.5292 30.8588 65.3903 30.8757C67.2514 30.8926 69.7487 31.4035 70.9391 32.0116L73.1041 33.1166L72.622 30.1668C72.3265 28.3565 72.4341 27.2162 72.901 27.2162C74.12 27.2162 73.7778 23.0738 72.4709 22.0115C71.6069 21.3099 70.9361 21.2562 70.027 21.8179C68.3591 22.8478 68.426 24.6676 70.127 24.5314C72.1295 24.3709 71.2098 26.0693 69.1336 26.3659C68.123 26.5102 66.9777 26.1156 66.4829 25.4523C65.6986 24.4026 65.476 24.4305 64.2721 25.7336C63.5359 26.5301 62.7065 27.0439 62.4283 26.8761C62.1508 26.7083 60.6731 26.8467 59.1451 27.1838C55.8921 27.9023 55.6688 27.3789 58.2232 25.029C59.2444 24.0897 59.8986 23.034 59.6775 22.6836C59.4557 22.3325 60.3175 21.8414 61.5928 21.5919C63.3803 21.2422 63.7262 20.9205 63.1035 20.1858C62.5223 19.5004 62.5689 18.8055 63.272 17.7034C64.4608 15.8402 66.0137 15.6959 65.8708 17.4619C65.7182 19.3436 68.72 19.1654 68.9667 17.2779C69.2449 15.1474 68.0087 13.6611 65.8821 13.5698C64.8639 13.5264 63.1727 12.9404 62.1252 12.2683C60.34 11.1235 60.1964 11.1272 59.8535 12.3213ZM37.8936 15.8056C37.3378 18.7046 38.0492 23.5354 39.0313 23.5354C39.8457 23.5354 41.3587 19.3797 40.9819 18.1775C40.827 17.6828 40.4969 16.3665 40.2472 15.2534C39.6208 12.4538 38.4846 12.7203 37.8936 15.8056ZM24.0316 23.7945C24.0316 26.377 25.5258 28.6885 27.2087 28.7106C28.7059 28.7305 28.7593 28.8247 27.6351 29.4667C26.926 29.8708 26.541 30.6865 26.7756 31.2843C27.0095 31.8813 26.8621 32.3694 26.4485 32.3694C26.0349 32.3694 25.5017 31.8725 25.2634 31.2651C25.0257 30.6578 24.0587 30.166 23.115 30.1719C21.3358 30.1837 18.9212 31.3233 19.5416 31.8592C23.4549 35.2368 29.8986 39.0273 31.4205 38.847C33.8697 38.5569 35.2797 36.4404 33.8848 35.1507C33.0756 34.4027 32.7967 34.3983 32.5229 35.13C32.0845 36.2991 30.7994 36.3344 30.7994 35.1772C30.7994 34.6972 30.0745 33.5495 29.1879 32.6256L27.5772 30.9464L31.0882 31.0156C34.2224 31.0774 34.5495 31.2401 34.1307 32.5306C33.7727 33.6349 33.9713 33.9176 34.9699 33.7254C35.6895 33.587 36.6385 32.9134 37.0792 32.2288C38.5282 29.9754 36.2204 28.2564 24.5956 22.9346C24.2851 22.7926 24.0316 23.1798 24.0316 23.7945ZM48.7092 25.3346C45.9457 26.6302 43.1536 28.121 42.5054 28.6473C40.1111 30.593 41.7873 35.0152 44.3357 33.4737C44.9208 33.1196 44.9275 32.6999 44.359 32.0293C43.7274 31.285 44.2793 31.0701 46.9541 31.0178C48.822 30.981 50.3508 31.0399 50.3508 31.1488C50.3508 31.2578 49.5048 32.4695 48.4708 33.8417C47.4369 35.214 46.5909 35.9406 46.5909 35.4569C46.5909 34.1443 44.5673 34.3953 44.0267 35.7757C43.4025 37.3673 44.8704 38.9949 46.93 38.9949C48.4829 38.9949 52.7992 36.5052 57.1186 33.1181C58.712 31.8688 58.827 31.5331 57.8705 30.914C56.1019 29.7685 53.5083 30.0357 52.6669 31.4492C51.9593 32.6381 51.8983 32.6411 51.8773 31.486C51.8653 30.7977 51.2629 29.8966 50.5388 29.4836C49.3476 28.8049 49.3747 28.7312 50.823 28.7106C52.9316 28.6812 54.2776 27.0012 53.9768 24.7743L53.7347 22.9788L48.7092 25.3346ZM6.25418 33.7851C4.95552 34.5602 3.66663 35.5526 3.38991 35.9906C2.44618 37.4851 5.88722 36.8063 8.68757 34.946C12.3708 32.499 13.5183 32.6101 11.0127 35.1705C9.90126 36.3057 8.99212 37.6676 8.99212 38.1969C8.99212 38.897 8.27775 39.0273 6.36623 38.6762C3.77943 38.2014 3.75161 38.2234 4.49531 40.139C5.00365 41.4471 4.99838 42.9997 4.48027 44.8843C3.19289 49.5641 5.67591 53.1633 9.26208 51.8161C10.8209 51.2301 10.866 48.3097 9.33653 47.0671C7.57615 45.6367 6.05942 47.3358 7.32575 49.3197C8.38754 50.9842 7.36936 51.3037 6.0316 49.7254C5.47664 49.0709 5.33226 47.6876 5.64734 46.0445C6.08499 43.7609 6.4339 43.412 8.28151 43.412C9.62002 43.412 10.8721 44.0267 11.6526 45.0684C12.8437 46.657 12.8738 46.5495 12.388 42.4527C12.1046 40.0602 12.1933 37.7935 12.5896 37.2995C12.9783 36.8151 13.519 35.5077 13.7905 34.3939C14.2627 32.4577 14.1612 32.3694 11.4503 32.3723C9.89149 32.3738 7.5536 33.0091 6.25418 33.7851ZM38.3583 33.4273C37.8221 34.0604 36.8776 34.5779 36.2595 34.5779C35.5151 34.5779 35.2654 35.0631 35.5203 36.0164C36.2129 38.6092 34.3758 39.9586 29.9685 40.0948C26.3019 40.2082 25.6491 39.9785 23.1857 37.7074L20.4598 35.1948V37.0927C20.4598 39.3137 19.0678 41.2035 17.4315 41.2035C16.451 41.2035 16.475 40.9907 17.591 39.7841C18.4294 38.8772 18.7249 37.8134 18.4091 36.8394C17.8707 35.1779 16.5209 34.7509 16.4968 36.2343C16.448 39.2578 14.847 47.4999 14.1484 48.3237C12.8693 49.8328 14.5981 49.492 16.0193 47.9549C16.7036 47.2143 17.2639 45.6573 17.2639 44.4949C17.2639 42.9497 17.4879 42.6007 18.0963 43.1963C18.7046 43.7918 19.4927 43.7786 21.0252 43.1477C22.178 42.6729 24.643 42.4034 26.5019 42.5477L29.882 42.8113L28.1863 45.7331C27.2539 47.3402 25.7687 49.1504 24.8851 49.7563C24.0023 50.3614 23.2797 51.4016 23.2797 52.0671C23.2797 53.008 23.0789 53.0801 22.3773 52.3932C21.329 51.367 16.7961 51.2006 16.1863 52.1665C15.9584 52.5272 16.8691 52.9851 18.2098 53.1832C19.5506 53.3819 22.6706 54.3912 25.1423 55.427C30.0835 57.4971 30.9972 57.4382 28.9142 55.1848C28.0171 54.2145 27.0298 53.856 26.0725 54.1534C25.0415 54.4737 24.7069 54.3124 24.9453 53.6116C25.4333 52.1776 29.9414 52.2033 30.8024 53.6447C31.765 55.257 31.7213 54.0761 30.6934 50.717C29.9745 48.3693 30.0512 47.4572 31.1649 45.1103C33.6238 39.9306 36.2249 38.3648 38.3019 40.8148C39.111 41.7688 39.3531 41.7688 40.3277 40.8148C40.936 40.2185 41.8497 39.7311 42.358 39.7311C42.9701 39.7311 43.1777 38.8632 42.9739 37.1545C42.7934 35.6402 42.2505 34.5779 41.6579 34.5779C41.1037 34.5779 40.354 34.0604 39.9923 33.4273C39.3952 32.3834 39.2433 32.3834 38.3583 33.4273ZM64.1819 33.534C64.433 34.1745 64.6383 34.9791 64.6383 35.3214C64.6383 35.6645 65.1519 36.4478 65.7791 37.0618C66.6995 37.9636 66.7762 38.791 66.1739 41.3477C65.0519 46.1071 65.2 47.0089 66.7739 45.0065C67.7605 43.7506 68.7178 43.3545 70.3293 43.5342C72.4025 43.7653 72.5341 43.9766 72.5341 47.0803C72.5341 49.7953 72.2679 50.4306 71.0301 50.6625C69.5818 50.9342 69.5758 50.8907 70.8609 49.4927C72.0505 48.1985 72.0708 47.9387 71.0489 47.1083C70.133 46.364 69.675 46.3611 68.7742 47.0928C66.6326 48.8331 67.9162 52.246 70.7128 52.246C73.1379 52.246 74.038 50.0434 74.038 44.1106V38.4119L71.5941 38.7999C69.6954 39.101 69.1502 38.9265 69.1502 38.0166C69.1502 37.3732 68.223 36.0046 67.0898 34.9754C64.2465 32.3952 66.6905 32.4136 69.8262 34.9968C71.361 36.2608 72.8138 36.81 74.208 36.6532C76.242 36.4242 76.209 36.3683 72.8439 34.3939C68.8727 32.0639 63.3923 31.5199 64.1819 33.534ZM55.1943 37.7066C53.8828 39.2313 52.4255 40.1161 51.1795 40.1448C45.0328 40.2899 45.1727 40.2059 46.1954 43.119C46.7075 44.5773 47.5579 46.032 48.0858 46.3508C48.8513 46.8138 48.7972 47.642 47.8174 50.4556C47.1429 52.3947 46.5909 54.0621 46.5909 54.1608C46.5909 54.2602 47.6189 53.8398 48.8754 53.2259C51.2494 52.0664 53.3587 52.3248 53.3587 53.7743C53.3587 54.2351 52.8676 54.4273 52.2676 54.202C51.1577 53.7853 47.403 56.2257 48.1001 56.9111C48.3092 57.1173 51.0163 56.3192 54.1159 55.137C57.2148 53.9547 60.3626 52.9866 61.1108 52.9851C61.859 52.9837 62.2621 52.6509 62.0064 52.246C61.386 51.2632 58.1518 51.3103 56.2034 52.3314C54.8972 53.016 54.7092 52.963 55.0792 52.0193C55.3574 51.3096 54.8408 50.4468 53.6993 49.7143C52.6954 49.0702 51.2035 47.257 50.3846 45.6845L48.8942 42.826L52.0668 42.4984C53.8415 42.3151 56.0996 42.5897 57.1945 43.1219C58.6676 43.8375 59.364 43.864 60.0144 43.2272C60.6649 42.5904 60.8784 42.8319 60.8784 44.2048C60.8784 45.2082 61.4056 46.7652 62.0493 47.6648C63.4555 49.6311 65.0136 49.9079 64.0074 48.013C63.6307 47.3041 63.0915 44.7371 62.808 42.3077C62.1741 36.8718 61.7334 35.3141 60.8281 35.3141C59.8084 35.3141 59.9678 39.2813 61.0288 40.32C61.7304 41.0069 61.659 41.2035 60.7077 41.2035C59.0541 41.2035 57.0065 37.1906 58.1097 36.1106C58.6932 35.5394 58.6872 35.3141 58.0879 35.3141C57.6284 35.3141 56.326 36.3904 55.1943 37.7066ZM34.1833 42.413C33.0501 43.5217 32.9433 44.5523 33.3937 49.9867C33.6802 53.4467 34.0307 56.3914 34.1728 56.5298C34.3142 56.6689 35.0962 56.4334 35.9106 56.0071C37.759 55.0383 38.6177 52.98 37.592 51.9758C36.3783 50.7877 36.6814 49.7489 37.9432 50.7737C38.8425 51.5047 39.299 51.5047 40.1984 50.7744C41.1684 49.986 41.2654 50.1568 40.8909 51.9891C40.5661 53.5777 40.8548 54.4744 42.0242 55.5102C42.8867 56.2743 43.8011 56.6947 44.056 56.4451C44.3117 56.1956 44.6899 53.0705 44.8982 49.5001C45.3013 42.5808 44.5606 40.7691 41.5602 41.3352C39.8525 41.6569 39.2652 44.1481 40.8962 44.1481C41.5467 44.1481 42.079 44.4794 42.079 44.8843C42.079 45.2892 41.7407 45.6205 41.3271 45.6205C40.9135 45.6205 40.5698 46.1998 40.5638 46.9088C40.5571 47.6177 40.2518 48.6616 39.8848 49.2292C39.381 50.0081 38.8463 49.5111 37.7086 47.2047C36.461 44.6767 36.3926 44.1481 37.3145 44.1481C38.8162 44.1481 38.2748 41.654 36.7099 41.3595C36.0407 41.2329 34.9037 41.7077 34.1833 42.413ZM24.6249 43.9369C23.503 44.104 21.4727 45.2885 20.1131 46.5687C17.7068 48.8346 17.6857 48.9038 19.3551 49.1534C21.4283 49.4633 25.3213 47.3431 26.8568 45.0684C27.4719 44.1577 27.6802 43.4613 27.3193 43.5224C26.9583 43.5828 25.7461 43.769 24.6249 43.9369ZM51.1028 43.9965C51.1028 45.4931 55.6018 48.6542 58.3172 49.065L61.2544 49.5104L59.3745 47.4977C58.3405 46.3912 56.987 45.2303 56.3666 44.9189C54.4145 43.9376 51.1028 43.3575 51.1028 43.9965ZM38.0552 56.2316C37.3296 57.3153 35.9301 58.5616 34.9466 59.0004C33.9622 59.4399 32.7485 60.7635 32.25 61.9421C31.7514 63.1207 30.173 65.0296 28.7435 66.1832L26.1439 68.2813L28.83 69.1492C30.3076 69.6263 31.4393 70.3772 31.3461 70.8181C31.2521 71.2584 32.0973 72.1432 33.2238 72.7837C35.103 73.8526 35.3752 73.8482 36.5227 72.7248C37.21 72.0512 37.5679 70.9779 37.3175 70.3396C36.7866 68.9858 34.5593 68.7613 34.5593 70.0613C34.5593 70.6952 34.3292 70.7195 33.7457 70.1482C32.6523 69.0778 34.4563 66.2333 36.2279 66.2333C37.3589 66.2333 37.416 65.9785 36.6535 64.3398C36.0099 62.9566 35.9986 62.3102 36.6107 61.9399C37.0709 61.6616 37.6815 60.5228 37.9665 59.4097C38.2522 58.2959 38.7508 57.2247 39.0742 57.0289C39.6381 56.6881 40.9541 60.1194 40.6984 61.2641C40.6307 61.5674 40.9556 61.8162 41.4211 61.8162C41.9602 61.8162 42.1031 62.6179 41.8159 64.0247C41.4752 65.6914 41.6406 66.2333 42.4896 66.2333C43.7612 66.2333 45.6201 69.6373 44.7922 70.4478C44.4959 70.7386 43.9673 70.5229 43.6183 69.9693C42.7709 68.628 40.3954 69.5681 40.7074 71.1214C41.1323 73.235 43.2506 74.0183 45.4404 72.8706C46.5157 72.3074 47.2466 71.4667 47.0646 71.0029C46.8827 70.5391 47.8993 69.7463 49.3243 69.2427L51.9141 68.3255L48.8762 65.4397C47.206 63.8525 45.8389 62.0835 45.8389 61.5093C45.8389 60.9343 44.7087 59.78 43.3281 58.9444C41.9467 58.1089 40.4924 56.7131 40.0953 55.8429C39.3795 54.272 39.3644 54.2749 38.0552 56.2316ZM10.6465 56.0741C8.43792 58.2362 10.8555 61.6079 15.7599 63.2061C17.2075 63.678 18.9761 64.8007 19.6912 65.701L20.9906 67.3375L21.0072 65.4029C21.0252 63.2731 22.8345 61.2516 23.615 62.4884C23.9241 62.9772 24.7377 62.9897 25.9875 62.5244C28.751 61.496 29.6459 61.6197 28.5751 62.8829C28.078 63.4697 26.544 64.3133 25.1656 64.7587C22.9247 65.4831 21.2117 67.3986 22.0615 68.2305C22.2374 68.4035 23.7617 67.8558 25.4469 67.0136C28.2126 65.6325 31.4792 61.5004 30.5355 60.5765C30.3302 60.3748 28.8375 60.1437 27.22 60.0619C25.1664 59.9589 23.3947 59.2006 21.3516 57.5523C17.9248 54.7873 16.7811 54.52 18.3347 56.8471C19.325 58.3305 19.2987 58.6868 18.0858 60.257C16.93 61.7537 16.4201 61.909 14.6079 61.3178C11.8775 60.4263 10.5622 58.5123 11.8286 57.2726C12.5587 56.5578 12.752 56.7079 12.752 57.9881C12.752 59.8418 14.8139 60.2232 15.4914 58.4939C16.4495 56.0505 12.6227 54.1394 10.6465 56.0741ZM58.9985 56.0447C58.1713 56.4893 56.7065 57.6524 55.7424 58.6293C54.7152 59.6718 53.4722 60.246 52.7345 60.0185C52.0442 59.8058 50.5643 59.8742 49.4469 60.1716C47.4406 60.7054 47.4301 60.7407 48.5874 63.0766C49.595 65.1106 54.5889 68.4418 56.6305 68.4418C58.1345 68.4418 55.3183 65.5898 52.6526 64.4127C50.9727 63.6714 49.5988 62.8579 49.5988 62.6054C49.5988 62.3522 51.2065 62.1733 53.1707 62.2071C56.6486 62.2675 56.7486 62.333 56.9847 64.7057L57.2268 67.1432L59.2406 65.3049C60.3483 64.2934 62.526 63.0685 64.0804 62.5826C67.2943 61.577 68.7351 59.5488 68.0718 56.9627C67.7523 55.7171 67.0905 55.1907 65.8437 55.1907C63.7299 55.1907 62.041 56.9376 62.6508 58.4939C63.2404 59.9994 65.1399 59.9022 66.0821 58.3194C66.7724 57.1592 66.8506 57.1901 66.8717 58.6301C66.8882 59.8278 66.2009 60.4536 64.1367 61.1206C61.7041 61.9068 61.2619 61.8538 60.3769 60.6685C59.1324 59.0026 59.094 57.2321 60.2769 56.0741C61.3845 54.9897 60.9769 54.9802 58.9985 56.0447Z" fill="#D2D2D2"/>
</svg>
