<svg width="127" height="76" viewBox="0 0 127 76" fill="none" xmlns="http://www.w3.org/2000/svg">
<path d="M0 9.43359V4.22754C0.474609 3.78516 1.0332 3.33496 1.67578 2.87695C2.53906 2.26367 3.56836 1.69727 4.58984 1.25C5.96094 0.648438 7.31641 0.261719 8.2207 0.261719C11.0273 0.261719 11.0508 0.303711 9.30859 2.22852C8.33008 3.31055 7.18359 4.19531 6.75977 4.19531C6.33594 4.19531 4.53516 5.52246 2.75781 7.14551C1.58203 8.21973 0.683594 8.97949 0 9.43359Z" fill="#D9D9D9"/>
<path d="M0 19.9414V15.0693C0.197266 14.8252 0.398438 14.6348 0.59375 14.5205C0.869141 14.3594 1.26953 14.0869 1.74609 13.7393C2.1582 13.4385 2.62891 13.082 3.125 12.6943C3.98633 12.0225 4.92773 11.2549 5.78906 10.5156C7.72461 8.85449 11.4746 5.86719 14.1211 3.87793C15.834 2.59082 17.543 1.58301 19.0176 0.961914C20.0918 0.508789 21.043 0.261719 21.7812 0.261719C24.5234 0.261719 24.5645 0.327148 22.8691 2.05762C20.9941 3.97266 5.06445 16.3555 0 19.9414Z" fill="#D9D9D9"/>
<path d="M0 30.5342V26.6191C0.205078 26.3799 0.425781 26.1348 0.660156 25.8857C1.06641 25.4541 1.51367 25.0117 1.99609 24.5664C8.15625 18.8779 18.2617 11.0791 19.4707 11.0791C20.0488 11.0791 20.8828 10.4316 21.3262 9.6416C21.3984 9.51074 21.5352 9.33496 21.7266 9.12207C22.6855 8.05078 25.0078 6.05469 27.4512 4.23242C31.2441 1.40234 33.7422 0.261719 36.1426 0.261719C39.2949 0.261719 38.3984 1.12402 22.084 13.7832L19.377 15.8838L19.3125 15.9336L19.2832 15.957L19.1895 16.0303L19.1367 16.0713L18.9727 16.2002L18.8008 16.335C13.002 20.832 8.86133 24.043 5.89648 26.2959C2.88867 28.582 1.08984 29.8799 0 30.5342Z" fill="#D9D9D9"/>
<path d="M0 49.6465V44.6846C0.302734 44.7783 0.662109 44.9717 1.10547 45.2783C1.83008 45.7773 2.7793 46.5732 4.07227 47.7158C6.05859 49.4707 11.0371 53.3174 15.1348 56.2627C19.2324 59.208 22.5859 61.9131 22.5859 62.2744C22.5859 62.6357 24.4668 64.2002 26.7637 65.75C29.0625 67.2998 32.8887 70.0156 35.2656 71.7842L39.5859 75H36.2363C32.0801 75 24.5918 69.8486 6.18945 54.3281C5.01172 53.3369 2.94922 51.8037 1.59961 50.9199C0.992188 50.5215 0.455078 50.0908 0 49.6465Z" fill="#D9D9D9"/>
<path d="M0 60.1523V55.1064C0.636719 55.5801 1.46875 56.25 2.4043 57.042L2.96484 57.5215L3.60742 58.082L4.375 58.7617L4.90625 59.2412C7.86914 61.9326 10.6895 64.1455 11.1738 64.1582C12.1133 64.1846 19.9277 70.2373 22.8691 73.2178C24.5625 74.9336 24.5215 75 21.8125 75C19.9414 75 16.7012 73.2686 12.1484 69.8369C5.47266 64.8047 1.88867 62.0137 0 60.1523Z" fill="#D9D9D9"/>
<path d="M0 70.9561V65.7246C0.736328 66.1738 1.71289 66.9902 2.98828 68.1816C4.76367 69.8408 7.30469 72.0537 8.63281 73.0986L11.0488 75H8.26562C5.70117 75 2.18164 73.0918 0 70.9561Z" fill="#D9D9D9"/>
<path d="M127 65.7422V70.9609C126.5 71.5 126.273 71.6084 125.875 72.0166C123.688 74.2539 122.066 75 119.395 75H115.83L120.75 71.1113C123.457 68.9727 125.15 67.5654 125.5 67C125.719 66.6445 126.762 65.9082 127 65.7422Z" fill="#D9D9D9"/>
<path d="M127 55.0977V60.1639C122.178 65.8445 109.02 75 104.904 75H101.771L105.449 72.3838C107.471 70.9453 109.125 69.4492 109.125 69.0605C109.125 68.6709 112.234 66.2461 116.037 63.6709C117.611 62.6055 119.234 61.4424 120.684 60.3555C122.732 58.8174 124.43 57.4307 125.133 56.6875C125.82 55.9619 126.027 55.8672 126.5 55.5C126.545 55.4648 126.955 55.1299 127 55.0977Z" fill="#D9D9D9"/>
<path d="M127 44.8495V49.6484C125.947 51.1885 124.184 52.5498 120.508 54.9912C119.475 55.6777 118.105 56.6729 116.611 57.8115C115.707 58.501 114.756 59.2432 113.807 60C113.268 60.4307 112.729 60.8662 112.197 61.3008C111.109 62.1924 110.061 63.0762 109.125 63.8936C100.723 71.2373 94.5195 75.1152 91.1348 75.1377L88.3867 75.1562L92.6094 71.2344C94.9316 69.0781 97.3848 67.3076 98.0605 67.3008C98.7383 67.2949 99.291 66.876 99.291 66.3711C99.291 66.1787 99.4043 65.9629 99.5977 65.7529C99.6992 65.6426 99.8223 65.5332 99.9629 65.4297C100.254 65.2158 100.617 65.0264 101.012 64.8994C101.957 64.5938 104.307 62.9043 106.232 61.1445C111.605 56.2373 118.076 51.1836 122.154 48.7129C124.184 47.4834 125.842 46.0713 125.842 45.5732C125.842 45.1543 126.336 44.9501 127 44.8495Z" fill="#D9D9D9"/>
<path fill-rule="evenodd" clip-rule="evenodd" d="M127 37.4932V38.3242C126.688 39.2637 125.279 40.4463 121.992 42.9746C118.783 45.4443 115.562 47.4648 114.836 47.4648C113.748 47.4648 106.461 42.0674 102.805 38.5518C101.799 37.5859 104.785 33.7148 106.572 33.6699C106.893 33.6621 107.562 33.2676 108.361 32.6514C109.033 32.1318 109.797 31.4551 110.518 30.7197C112.096 29.1123 114.002 27.7969 114.756 27.7969C116.418 27.7969 124.676 33.9834 126.51 36.6016C126.74 36.9297 126.91 37.2158 127 37.4932ZM112.168 40.9727C108.443 39.1133 108.32 37.4219 111.715 34.752C115 32.1689 115.23 32.1865 118.928 35.2969L121.998 37.8809L118.605 40.1855C115.402 42.3623 115.043 42.4062 112.168 40.9727Z" fill="#D9D9D9"/>
<path d="M127 26.6172V31.2588C126.99 31.252 127.01 30.542 127 30.5352C126.5 31 126.436 30.7754 126.062 30.4141C125.18 29.5586 121.229 26.3203 116.949 22.8955C112.947 19.6904 108.656 16.3213 106.322 14.5869C97.502 8.03711 91.709 3.51953 90.2012 2.01758C89.4473 1.2666 89.0488 0.842773 89.1016 0.603516C89.1641 0.320312 89.8574 0.296875 91.3379 0.296875C93.4922 0.296875 98.082 3.2793 109.873 12.3438C119.734 19.9238 124.76 24.0107 127 26.6172Z" fill="#D9D9D9"/>
<path d="M127 15V19.939C126.5 19.5 126.42 19.6592 126.107 19.1924C125.289 17.9746 124.197 16.9795 123.68 16.9795C122.684 16.9795 112.359 9.26562 109.51 6.39355C108.578 5.45508 106.477 3.69141 104.838 2.47461L101.857 0.261719H104.941C108.303 0.261719 122.381 9.81543 127 15Z" fill="#D9D9D9"/>
<path d="M127 4.19531V9.45215C126.369 9.00098 125.537 8.22656 124.449 7.11816C123.814 6.4707 123.158 5.87109 122.568 5.38574C121.695 4.66504 120.969 4.19531 120.67 4.19531C120.371 4.19531 119.705 3.87988 118.922 3.39648C118.748 3.28906 118.568 3.17285 118.387 3.05078C118.016 2.7998 117.633 2.52148 117.26 2.22852L114.76 0.261719H118.725C121.75 0.261719 125.031 2.06836 127 4.19531Z" fill="#D9D9D9"/>
<path d="M63.209 7.14062C62.2305 7.13867 59.6816 5.53027 57.543 3.56738L53.6602 0L57.543 0.663086C62.293 1.47168 64.1133 1.47266 69.7891 0.670898L74.2129 0.0439453L69.6016 3.5957C67.0645 5.54785 64.1875 7.14355 63.209 7.14062Z" fill="#D9D9D9"/>
<path d="M56.4609 75C53.9629 75 54.0781 74.7959 58.5957 71.1699L63.3691 67.3389L73.6641 74.5078L70.293 74.8115C68.4375 74.9775 66.0176 74.6299 64.9121 74.0391C63.5117 73.29 62.3281 73.2725 61.002 73.9824C59.957 74.542 57.9121 75 56.4609 75Z" fill="#D9D9D9"/>
<path fill-rule="evenodd" clip-rule="evenodd" d="M1.42773 40.2197C-1.17383 39.2217 -0.136719 37.0254 5.12891 32.3682C5.95508 31.6387 6.78906 30.9463 7.57422 30.333C7.89062 30.085 8.19922 29.8496 8.49609 29.6299L9.05273 29.2256C9.26758 29.0732 9.47266 28.9307 9.66992 28.7988C10.6035 28.1758 11.3145 27.8018 11.627 27.8008C12.3594 27.7988 14.6367 29.124 16.6855 30.7471C16.9785 30.9785 17.2715 31.2041 17.5586 31.4209C18.5293 32.1514 19.4492 32.7793 20.1426 33.1895C20.6836 33.5098 21.084 33.6973 21.2598 33.6973C21.7285 33.6973 22.6914 34.625 23.3984 35.7588C24.9082 38.1748 23.6621 39.9854 17.2754 44.6582C12.3535 48.2588 10.9766 48.1895 6.53516 44.1221C4.5293 42.2842 2.23047 40.5283 1.42773 40.2197ZM8.13477 35.1787L5.375 37.6445L8.32617 40.0908L8.83984 40.5195C9.41602 41 9.87695 41.3838 10.2715 41.6729C10.6523 41.9512 10.9727 42.1416 11.2773 42.2471C11.4199 42.2959 11.5605 42.3271 11.7031 42.3389C12.584 42.4121 13.5254 41.7676 15.6641 40.4639L19.0703 38.3877L15.8945 35.5508C12.0273 32.0957 11.6074 32.0752 8.13477 35.1787Z" fill="#D9D9D9"/>
<path d="M61.9629 39.1553C60.9316 37.9131 60.9316 37.3486 61.9629 36.1064C63.1055 34.7295 63.375 34.7295 64.752 36.1064C66.1289 37.4834 66.1289 37.7783 64.752 39.1553C64.0801 39.8271 63.6719 40.1709 63.2969 40.1875C62.9043 40.2041 62.5488 39.8604 61.9629 39.1553Z" fill="#D9D9D9"/>
<path fill-rule="evenodd" clip-rule="evenodd" d="M57.8887 28.8926C54.9688 31.5205 52.0938 33.6768 51.502 33.6846C50.9102 33.6914 49.5859 34.625 48.5605 35.7578C47.8711 36.5205 47.4414 37.0049 47.3008 37.4131C47.1426 37.873 47.3516 38.2373 47.9688 38.7959C48.2656 39.0645 48.6562 39.377 49.1465 39.7666C50.4922 40.8379 53.0762 43.0078 54.8867 44.5889C55.9727 45.5391 57.0332 46.3857 57.7754 46.9102C58.2676 47.2588 58.6191 47.4648 58.7422 47.4648C59.0527 47.4648 60.1172 48.1973 61.1074 49.0947C62.7852 50.6123 63.1328 50.6016 66.2324 48.9316C69.6074 47.1143 79.623 38.4805 79.623 37.3887C79.623 37.0605 75.9258 33.9395 71.4102 30.4531L63.1973 24.1143L57.8887 28.8926ZM60.3047 31.9893C58.7598 33.1895 56.7539 35.0615 55.8477 36.1465C54.3027 38.002 54.3145 38.2422 56.0371 40.0889C57.0449 41.1709 59.1289 42.7998 60.668 43.708C62.2383 44.6348 62.957 45.0225 64.2539 44.5352C65.2285 44.1689 66.5293 43.3076 68.7637 41.8096L74.0625 38.2578L70.2051 34.9092C64.252 29.7412 63.4902 29.5156 60.3047 31.9893Z" fill="#D9D9D9"/>
<path fill-rule="evenodd" clip-rule="evenodd" d="M43.6875 2.29395C43.3301 2.87012 43.1934 3.44727 43.3848 3.57422L44.2539 4.13086L46.498 5.54102C49.373 7.34277 51.123 8.69434 56.5996 13.3457L59.8457 16.1045L57.7051 18.2627C55.7363 20.249 53.5254 21.8076 50.3555 23.4424C49.7969 23.7305 47.877 22.7129 45.5078 21.0342C43.1992 19.3965 40.4648 17.1299 38.1504 14.833C36.7441 13.4365 36.6973 13.001 37.8457 12.0469C38.916 11.1592 40.1973 11.6729 43.8223 14.4395C48.752 18.2051 49.7754 18.5107 52.0879 16.9131C52.8906 16.3584 53.1699 16.0371 52.8691 15.6221C52.6914 15.376 52.3086 15.0967 51.7109 14.7158C50.6914 14.0674 47.6055 11.8789 44.8516 9.84961C42.0996 7.82227 39.5762 6.16211 39.2441 6.16211C39.1348 6.16211 38.7988 6.3418 38.3086 6.65527C37.7988 6.97949 37.1211 7.44727 36.3516 8.00586C35.6426 8.52051 34.8555 9.1123 34.0488 9.74023L29.4551 13.3184L32.2285 15.3955C33.7539 16.5371 37.5039 19.6465 40.5645 22.3047L46.1289 27.1377L43.3691 29.1885C41.8516 30.3164 39.8418 32.0127 38.9023 32.96C37.9629 33.9062 36.8496 34.6807 36.4297 34.6807C36.0078 34.6807 32.6738 32.4189 29.0215 29.6543C26.1328 27.4668 24.5195 26.1875 23.7793 25.2939C22.9785 24.3291 23.1953 23.8154 23.916 23.0947C24.4961 22.5146 24.9434 22.2178 25.6074 22.333C26.0449 22.4092 26.5742 22.6631 27.2969 23.1328C28.1055 23.6572 29.1543 24.4502 30.582 25.5625C31.3164 26.1357 31.959 26.625 32.5273 27.0371C32.8633 27.2793 33.1719 27.4951 33.457 27.6855C34.2188 28.1924 34.8203 28.5215 35.332 28.7002C36.209 29.0059 36.8223 28.873 37.5117 28.4424C39.6348 27.1172 39.4082 25.873 36.7852 24.4248C35.7363 23.8457 33.0332 21.9326 30.7793 20.1758C28.5234 18.418 26.0898 16.9961 25.3691 17.0166C25.0977 17.0234 24.5957 17.2471 23.9629 17.6211C23.7363 17.7549 23.4941 17.9072 23.2383 18.0762C22.2988 18.6963 21.1895 19.5381 20.127 20.457L16.1934 23.8604L20.2715 27.5498C22.5156 29.5791 26.0566 32.666 28.1387 34.4092L31.9277 37.5811L29.4688 39.6562C28.1172 40.7988 25.6992 42.9131 24.0938 44.3535C22.4902 45.7939 19.9492 47.9023 18.4473 49.0391L15.7188 51.1045L20.3809 54.9971L20.4004 55.0137C22.625 56.8701 23.9102 57.9443 25.291 58.0811C27.1855 58.2695 29.2559 56.6904 34.1719 52.9424L34.2031 52.918C39.7129 48.7139 40.1445 47.998 37.7168 47.0664C36.2129 46.4893 30.4902 49.3574 27.6777 52.0996C26.7773 52.9775 26.1914 53.3584 25.4805 53.2686C24.9648 53.2031 24.3848 52.8906 23.5684 52.3418C22.3438 51.5176 22.7617 50.7695 26.0273 47.9463C28.1895 46.0752 30.291 44.5371 30.6973 44.5293C30.8613 44.5264 31.1582 44.3779 31.5254 44.1309C32.0664 43.7676 32.7578 43.1914 33.4023 42.5479C35.8145 40.1367 36.7148 40.0957 38.9023 42.3018C39.4219 42.8252 40.2637 43.5752 41.168 44.3301C41.9023 44.9424 42.6758 45.5586 43.3516 46.0605L46.0938 48.0977L39.502 53.6621C35.877 56.7227 32.082 59.8223 31.0703 60.5498C29.3516 61.7852 29.5605 62.1152 34.2168 65.5342L39.2031 69.1943L46.1211 64.4756C49.9258 61.8809 53.0469 59.4111 53.0547 58.9893C53.0781 57.8418 50.2988 56.9971 48.8906 57.7236C47.5059 58.4385 46.2578 59.1455 45.1426 59.8438C43.6074 60.8057 42.3242 61.752 41.2949 62.6846C39.6895 64.1377 39.0703 64.2305 37.8379 63.208C37.1699 62.6543 36.8613 62.2783 36.9688 61.8018C37.0742 61.333 37.584 60.7656 38.5566 59.834C41.9863 56.5469 48.832 51.3984 49.7695 51.4014C50.2324 51.4023 52.6035 53.125 55.0371 55.2285L59.4629 59.0537L56.4961 61.8633C54.8652 63.4092 51.2148 66.4248 48.3828 68.5635C45.3945 70.8213 43.8887 72.0723 43.5117 72.8926C43.1875 73.6006 43.709 73.9873 44.8496 74.4258C46.7793 75.165 48.9961 73.793 56.541 67.1914C59.668 64.4551 62.6523 62.2158 63.1719 62.2158C64.3672 62.2158 73.7207 69.043 73.7285 69.9209C73.7441 71.3652 80.3945 75.0195 81.9336 74.4287C84.3008 73.5195 83.9805 72.7969 79.7656 69.5557C78.1836 68.3389 75.7266 66.3027 73.627 64.4795C72.9609 63.9014 72.3301 63.3447 71.7734 62.8418L67.5703 59.043L71.875 55.2627L72.4785 54.7383L72.8125 54.4541C73.6641 53.7314 74.4727 53.082 75.1484 52.5723C76.0605 51.8838 76.7305 51.4512 76.9375 51.4404C77.3535 51.417 80.7656 53.6973 84.5195 56.5068C89.793 60.4521 91.1035 61.9082 90.2812 62.8994C88.7891 64.6963 87.2188 64.501 84.7656 62.2158C83.6055 61.1338 82.248 60.249 81.75 60.249C81.4805 60.249 81.0742 60.0527 80.6504 59.7422C80.2949 59.4824 79.9297 59.1436 79.623 58.7734C78.2305 57.0967 75.1211 56.8135 74.2148 58.2803C73.6133 59.2539 78.3574 64.0918 79.9727 64.1514C80.4355 64.1689 82.4277 65.457 84.3984 67.0156L87.9805 69.8486L97.2676 61.667L80.7402 48.1348L83.041 46.3242C83.5703 45.9082 84.125 45.5234 84.625 45.2168C85.3203 44.79 85.9102 44.5146 86.1777 44.5146C86.6406 44.5146 87.5684 43.6299 88.2441 42.5479C89.4609 40.5996 91.9375 39.8965 92.5703 41.3184C92.6855 41.5762 93.8164 42.5723 95.4258 43.8594C95.8574 44.2051 96.3242 44.5723 96.8164 44.9512C97.3691 45.3779 97.9531 45.8203 98.5527 46.2666C101.664 48.584 104.207 50.7041 104.207 50.9805C104.207 51.2559 103.666 52.0605 103.006 52.7686C102.025 53.8174 100.982 53.4824 97.3516 50.9492C95.2109 49.4561 93.791 48.4658 92.7871 47.8467C91.7969 47.2354 91.2148 46.9854 90.75 46.9678C90.5156 46.959 90.3105 47.0098 90.0996 47.1035C89.9023 47.1914 89.6973 47.3164 89.457 47.4648C87.7871 48.4961 90.3945 51.3232 97.3867 56.0654L101.875 59.1094L105.254 56.5068C106.359 55.6553 107.52 54.668 108.406 53.8418C109.012 53.2793 109.488 52.792 109.734 52.4727C111.057 50.752 110.27 49.8525 101.502 43.0762C100.99 42.6797 100.492 42.2861 100.016 41.9014C99.2891 41.3164 98.6133 40.7529 98.0137 40.2363C96.4121 38.8535 95.3574 37.7998 95.3574 37.5293C95.3574 37.0928 98.9648 33.9883 103.377 30.6309L111.395 24.5273L107.064 20.7822C104.682 18.7227 102.129 17.0244 101.395 17.0088C100.307 16.9854 95.0527 20.8105 88.9727 26.0547C88.3477 26.5928 88.5254 27.2285 89.4648 27.8223C91.5742 29.1562 91.627 29.1357 96.7148 25.1719C98.3438 23.9033 99.4277 23.0986 100.229 22.6699C100.805 22.3613 101.232 22.2471 101.607 22.2949C101.797 22.3193 101.973 22.3848 102.146 22.4873C102.379 22.623 102.607 22.8242 102.863 23.0811C104.23 24.4482 103.812 25.0303 98.6387 28.9736C95.4824 31.3809 92.4082 33.6357 91.8086 33.9873C91.209 34.3369 88.4121 32.9033 85.5957 30.8008L80.4727 26.9785L85.9473 22.8447C88.959 20.5703 91.4238 18.3203 91.4238 17.8447C91.4238 17.3691 91.9883 16.9795 92.6797 16.9795C93.3711 16.9795 94.6445 16.1514 95.5117 15.1396C96.9902 13.4131 96.8281 13.0742 92.8672 9.63086C90.5449 7.6123 88.3457 5.95117 87.9746 5.93945C87.832 5.93457 87.2363 6.2832 86.3398 6.87793C84.9141 7.82324 82.7305 9.39258 80.4023 11.1631C74.1016 15.9541 73.6816 16.4893 75.5645 17.3301C76.1426 17.5879 76.6797 17.7012 77.2734 17.6387C78.3457 17.5264 79.6055 16.8418 81.625 15.4023C83.8242 13.8359 86.2285 12.1367 86.9668 11.6279C87.8496 11.0176 88.832 11.1357 89.8398 11.9727C91.1719 13.0791 90.4922 13.9316 84.5859 18.5537C80.8516 21.4736 77.498 23.8633 77.1309 23.8633C76.7617 23.8633 74.3359 22.1699 71.7363 20.1006L67.0117 16.3379L73.0547 11.124C74.5449 9.83887 76.1172 8.56543 77.5117 7.50098C79.2266 6.19043 80.6699 5.19531 81.3535 4.88379C82.0879 4.54883 82.5996 4.16992 82.8945 3.78809C83.2285 3.35645 83.2871 2.9209 83.0781 2.53906C82.9648 2.33105 82.7715 2.13867 82.502 1.97168C82.1035 1.72559 81.5352 1.5332 80.8027 1.42578C78.7988 1.13086 77.7852 1.69238 73.9199 5.23926C73.4668 5.6543 72.5645 6.4248 71.4707 7.33691C70.3398 8.28027 69.0039 9.37402 67.7461 10.3818L63.2441 13.9883L59.3867 10.4541C49.8926 1.75879 45.4473 -0.552734 43.6875 2.29395ZM43.4922 34.4102C45.7852 32.5762 51.1836 28.3643 55.4883 25.0498L63.3145 19.0254L66.4863 21.4443C68.2305 22.7744 70.0488 23.8633 70.5293 23.8633C71.0078 23.8633 72.2852 24.8584 73.3672 26.0762C74.4492 27.293 78.082 30.4004 81.4414 32.9824L87.5488 37.6748L81.0098 42.6875C77.4141 45.4443 73.7344 48.4365 72.832 49.3379C72.4102 49.7607 71.6699 50.417 70.7988 51.1494C69.8125 51.9805 68.6582 52.9102 67.6113 53.708C65.4492 55.3574 64.5449 55.9883 63.4609 55.8633C63.084 55.8193 62.6875 55.6855 62.209 55.4707C61.8711 55.3193 61.4941 55.1289 61.0566 54.9023C60.8809 54.8115 60.7031 54.7158 60.5273 54.6162C60.3262 54.502 60.125 54.3818 59.9277 54.2588C59.582 54.043 59.248 53.8174 58.9395 53.5928C58.7852 53.4814 58.6367 53.3701 58.498 53.2607C57.9277 52.8115 57.4902 52.3867 57.2988 52.0713C57.2246 51.9492 57.0391 51.7451 56.7598 51.4727C56.1719 50.8994 55.1641 50.0234 53.8926 48.9727C52.9004 48.1523 51.7461 47.2266 50.5039 46.2539C49.6738 45.6045 48.8047 44.9336 47.918 44.2607L39.3242 37.7451L43.4922 34.4102Z" fill="#D9D9D9"/>
</svg>
