<svg width="87" height="75" viewBox="0 0 87 75" fill="none" xmlns="http://www.w3.org/2000/svg">
<path fill-rule="evenodd" clip-rule="evenodd" d="M38.3301 3.20908C37.72 3.98357 35.2302 6.2 32.7972 8.13466C30.3641 10.0693 27.3188 12.7761 26.0307 14.1496C24.7427 15.523 23.3624 16.7737 22.964 16.9288C22.5649 17.0838 20.5067 18.8044 18.3894 20.7524C8.9406 29.4458 7.45483 30.7673 3.82153 33.7039C1.70352 35.4166 -0.016116 37.0105 0.000113947 37.2458C0.0163439 37.4819 2.04288 39.2686 4.50245 41.2167C6.96203 43.1647 9.8539 45.6724 10.928 46.7892C12.0022 47.9061 14.9781 50.5137 17.5417 52.583C20.1053 54.6522 23.0931 57.2331 24.1813 58.3177C25.2694 59.4031 28.1517 61.9139 30.5862 63.8982C33.0207 65.8824 36.8074 69.1913 39.0007 71.2527L42.9881 75L46.0091 72.5278C47.6704 71.1685 49.5273 69.4746 50.1359 68.7631C50.7445 68.0524 54.1617 65.0166 57.7301 62.0178C61.2984 59.0182 66.942 54.1808 70.2714 51.267C73.6007 48.3524 78.5479 44.1022 81.2642 41.822C83.9805 39.541 86.2217 37.4819 86.2439 37.2458C86.266 37.0105 84.5508 35.4166 82.4313 33.7039C80.3118 31.992 78.0603 30.0479 77.4273 29.3844C76.2831 28.1849 65.8074 19.0893 57.2181 11.8371C54.743 9.74741 51.722 7.05714 50.5048 5.85841C48.1784 3.9056 43.3045 0 42.4192 0C41.5339 0 39.3243 2.13938 38.3301 3.20908ZM31.3092 12.6848C33.1498 10.6856 40.26 4.13391 41.5466 3.25159C42.8391 2.36533 43.084 2.46685 46.2695 5.20749C47.905 6.6148 51.8511 10.0016 55.0381 12.7344C58.2251 15.4671 61.8289 18.6714 63.0461 19.8552C64.2633 21.0389 67.5831 23.9299 70.4233 26.2794C73.2636 28.6288 76.5834 31.5229 77.8006 32.7114C79.0178 33.8991 80.6777 35.3962 81.4892 36.0377C82.947 37.1892 82.9425 37.2199 81.1204 38.6051C80.106 39.3757 78.3819 40.9176 77.2886 42.0321C76.196 43.1458 72.4211 46.5177 68.9007 49.5244C54.3373 61.9627 52.566 63.4975 49.2005 66.5868C48.901 66.8618 48.6168 67.1235 48.3467 67.3724C45.3488 70.1337 44.0807 71.3017 42.9129 71.1969C42.0568 71.1201 41.2546 70.359 39.8642 69.0401C39.6938 68.8784 39.5145 68.7084 39.3253 68.5302C37.3592 66.6782 33.4264 63.2535 30.5862 60.9182C27.746 58.5838 24.9242 56.0863 24.3155 55.3685C23.7069 54.6507 21.0533 52.3256 18.4189 50.202C15.7845 48.0777 12.0981 44.8892 10.2257 43.1151C8.35411 41.3418 6.04798 39.3119 5.10074 38.6043L3.37963 37.3175L5.5478 34.9601C6.74071 33.663 8.06418 32.5926 8.48911 32.5808C8.91404 32.5682 10.5739 31.1089 12.1777 29.338C13.7816 27.5662 16.4388 25.1184 18.0825 23.8984C19.7261 22.6777 22.6837 20.0543 24.6549 18.0677C26.6261 16.0811 28.5626 14.4558 28.9588 14.4558C29.3549 14.4558 30.4128 13.6592 31.3092 12.6848ZM41.7635 6.95167C41.5222 7.62306 40.5684 8.55733 39.644 9.02722C38.7196 9.49711 37.1608 10.9501 36.1796 12.2558L34.3958 14.6305L38.3928 18.4683C40.5912 20.5785 42.7218 22.3062 43.1275 22.3077C43.5333 22.3085 45.6557 20.6186 47.8438 18.5518C52.4509 14.2 52.3764 13.6364 46.5712 8.94615L46.5534 8.93179C43.6216 6.56301 42.706 5.82327 42.2496 6.06607C42.0424 6.17632 41.9298 6.48919 41.7662 6.94412L41.7635 6.95167ZM31.6928 22.2054C31.6928 25.7072 31.9399 26.2762 34.2888 28.188C35.7171 29.3498 37.7916 31.201 38.8996 32.3006L40.9143 34.3013L41.1504 31.3403C41.4374 27.7323 40.7904 24.6879 39.7369 24.6879C39.3076 24.6879 37.9561 23.6206 36.7337 22.3164C35.5112 21.0122 33.8772 19.5828 33.1018 19.1405C31.8034 18.3991 31.6928 18.6407 31.6928 22.2054ZM50.6826 20.8485C49.3672 22.1999 47.545 23.8347 46.6317 24.4809C45.2485 25.46 44.9718 26.3699 44.9718 29.9393L44.9718 30.0677L44.9715 30.3681C44.9693 32.1813 44.968 33.2275 45.3734 33.4575C45.9265 33.7711 47.2364 32.5659 50.3333 29.7165L50.8714 29.2215C53.781 26.5462 54.0886 25.9173 54.2399 22.3345C54.3306 20.1653 54.1056 18.3912 53.7397 18.3912C53.373 18.3912 51.9972 19.497 50.6826 20.8485ZM26.5287 31.7968C30.3951 35.5064 30.7861 35.6898 34.834 35.6984C38.7026 35.7063 39.0088 35.5835 38.2607 34.3297C37.8093 33.5725 35.9945 31.8016 34.2283 30.3942C31.4501 28.181 30.4409 27.8409 26.7441 27.8701L22.4712 27.9047L26.5287 31.7968ZM53.3539 29.0168C53.12 29.6662 52.5497 30.2085 52.0857 30.2227C51.6217 30.2361 50.0968 31.4757 48.6959 32.9775L46.1492 35.7071H50.7467C55.013 35.7071 55.6202 35.4749 59.1944 32.4729C61.3132 30.6941 63.1568 28.9232 63.2918 28.5375C63.4275 28.1518 61.342 27.8362 58.6581 27.8362C55.0012 27.8362 53.6718 28.1322 53.3539 29.0168ZM15.1272 30.351C14.3334 30.8421 12.4109 32.5894 10.8535 34.2336L8.02214 37.2246L11.1095 40.2045C16.6506 45.5519 16.6683 45.5582 19.5661 43.2009C24.044 39.5567 25.94 37.3875 25.4243 36.4989C24.7781 35.382 17.6952 29.4033 17.0563 29.434C16.7885 29.4474 15.9202 29.8598 15.1272 30.351ZM66.7347 30.9846C66.0007 31.8504 64.9531 32.5587 64.4072 32.5587C63.8613 32.5587 63.415 32.9444 63.415 33.4167C63.415 33.8881 62.6942 34.8972 61.8134 35.6583L60.211 37.042L63.3936 40.1132C69.0408 45.5638 69.0408 45.5638 71.9445 43.2009C76.4225 39.5567 78.3185 37.3875 77.8028 36.4989C76.95 35.0255 69.9733 29.4104 68.9959 29.4104C68.4868 29.4104 67.4688 30.1188 66.7347 30.9846ZM28.7648 40.0179C27.4029 41.09 25.307 43.038 24.1075 44.3469L21.9275 46.7263H26.4136C30.5973 46.7263 31.1587 46.5004 34.7411 43.3812C40.0158 38.7877 40.08 38.0683 35.2176 38.0683C32.145 38.0683 30.6792 38.5115 28.7648 40.0179ZM50.1477 42.0297C54.6965 46.4846 55.7382 46.9262 60.858 46.5783L64.4743 46.3327L59.598 42.2005C54.9724 38.2809 54.5003 38.0683 50.4126 38.0683H46.1028L50.1477 42.0297ZM37.031 43.0419C35.7067 44.4186 33.9635 46.1659 33.1579 46.9231C32.097 47.9203 31.6928 49.2961 31.6928 51.9077C31.6928 54.0549 32.0034 55.4047 32.46 55.2426C32.8813 55.093 35.0369 53.3811 37.2501 51.4386C41.0907 48.0667 41.2736 47.7377 41.278 44.1683C41.2839 39.7126 40.4459 39.4906 37.031 43.0419ZM44.9718 44.2745C44.9718 47.3851 45.2891 48.3461 46.6317 49.3071C47.545 49.9604 49.4306 51.5952 50.822 52.9395C52.2141 54.2839 53.6364 55.3842 53.9824 55.3842C54.3291 55.3842 54.5003 53.7872 54.3623 51.8345C54.1403 48.6932 53.6534 47.8329 50.1278 44.3571C47.9375 42.1974 45.8807 40.4296 45.5583 40.4296C45.2359 40.4296 44.9718 42.1596 44.9718 44.2745ZM41.2832 53.1308C40.2688 53.9817 38.2261 55.8706 36.744 57.3299L34.0491 59.9824L36.3493 62.2091L36.4317 62.2889C39.9359 65.68 41.587 67.2778 43.2056 67.2411C44.6478 67.2083 46.0641 65.8776 48.7424 63.3611L48.8117 63.296C48.9992 63.1199 49.1781 62.9532 49.348 62.7948L49.3486 62.7943C50.7271 61.5095 51.5157 60.7746 51.555 59.9967C51.6074 58.9569 50.3213 57.8402 47.3161 55.231C47.0384 54.9898 46.7459 54.7359 46.4384 54.4681L43.1275 51.585L41.2832 53.1308ZM40.994 12.7879C39.8365 14.1527 39.8314 14.3684 40.9321 15.5427C42.4879 17.2027 43.7199 17.1531 45.2322 15.3703C46.3787 14.0189 46.3706 13.8387 45.1039 12.6155C43.3606 10.9327 42.5381 10.9666 40.994 12.7879ZM15.1235 38.7263C12.8203 37.6071 12.7827 37.0333 14.9095 35.4505L14.9614 35.4119C15.9666 34.6637 16.4729 34.2869 16.972 34.2974C17.4784 34.3081 17.9775 34.7176 18.9831 35.5428L19.0356 35.5859L20.7634 37.0042L18.8807 38.321C17.347 39.393 16.6491 39.4686 15.1235 38.7263ZM67.1036 35.685C65.2785 37.1868 65.2748 37.2151 66.7347 38.3973C68.6403 39.9408 69.316 39.9109 71.4141 38.1895L73.1419 36.7712L71.2555 35.4521C71.0843 35.3324 70.928 35.2216 70.7845 35.1198C69.9864 34.5538 69.5814 34.2666 69.1851 34.2797C68.7768 34.2932 68.3778 34.6255 67.5677 35.3002C67.4263 35.418 67.2723 35.5462 67.1036 35.685ZM40.4474 61.1922C39.1829 59.9714 39.1962 59.8549 40.7579 58.4641C42.7911 56.653 43.4042 56.6255 45.1039 58.2665C46.3706 59.4897 46.3787 59.6699 45.2322 61.0213C43.7184 62.8064 42.1759 62.8616 40.4474 61.1922Z" fill="#D2D2D2"/>
</svg>
