<svg width="79" height="75" viewBox="0 0 79 75" fill="none" xmlns="http://www.w3.org/2000/svg">
<path fill-rule="evenodd" clip-rule="evenodd" d="M34.5651 0.042294C33.8335 0.135745 33.2371 0.410507 32.8396 0.837102C31.9031 1.84225 31.8101 3.70282 32.6492 4.64591C33.0344 5.07879 33.3329 5.20807 33.9556 5.21157C34.8263 5.21652 35.4437 4.8349 35.822 4.05807L35.9978 3.69685L36.1166 4.33214C36.1819 4.68154 36.2313 5.20604 36.2264 5.49763C36.1866 7.85506 33.8557 10.0208 29.6533 11.605C29.0591 11.8291 27.972 12.1779 27.8681 12.1779C27.8434 12.1779 27.8233 11.8395 27.8233 11.4258C27.8233 10.5803 27.6918 9.94115 27.401 9.37289C27.0966 8.77794 25.823 7.67305 25.7415 7.93314C25.183 9.71563 24.9966 10.2088 24.5372 11.1209C23.9049 12.3761 23.1043 13.3269 21.8779 14.279C20.2942 15.5085 19.9286 15.8143 19.3659 16.3799C18.0652 17.6874 17.0433 19.3086 16.5286 20.8814C16.2229 21.8156 16.1284 22.3579 16.0913 23.3908C16.0507 24.5202 16.2021 25.5828 16.5184 26.3886C16.6241 26.6578 16.6976 26.8909 16.6818 26.9065C16.6265 26.9612 15.3298 26.7852 14.6077 26.625C13.6234 26.4066 13.0186 26.2057 12.2385 25.8383C11.149 25.325 10.197 24.5616 9.71202 23.8123L9.49138 23.4714L9.21084 23.7805C8.77188 24.264 8.32598 24.9721 8.17181 25.4305C7.96877 26.0341 8.00716 26.8812 8.25766 27.3246C8.35398 27.4952 8.42519 27.6401 8.41588 27.6467C8.40651 27.6534 8.05488 27.7676 7.63454 27.9006C4.01903 29.0444 1.12354 32.2366 0.286975 36.0012C0.0613946 37.0162 0.00103453 37.5773 7.11849e-06 38.6694C-0.00179084 40.5104 0.336804 41.6978 1.24227 43.0257C2.26229 44.5216 4.22528 45.7193 6.44037 46.1975C7.11467 46.3431 8.46353 46.3934 9.03316 46.2942C9.75491 46.1686 10.4627 45.9263 11.1921 45.5553C12.5431 44.8681 13.13 44.3671 16.0092 41.4431C18.0359 39.3848 19.6963 38.3301 21.2254 38.1298C21.3932 38.1078 21.5304 38.0761 21.5304 38.0593C21.5304 37.9854 20.9973 37.3266 20.5806 36.8857C19.8446 36.1068 18.9067 35.5532 18.1271 35.4373C17.3727 35.3253 16.4664 35.6026 15.8592 36.1314L15.5617 36.3905L15.2161 35.6657C14.4557 34.0708 13.7865 33.465 12.4764 33.1858C10.9247 32.8551 9.4352 33.0684 8.3326 33.779C7.84162 34.0955 7.19783 34.7597 6.89853 35.2585C6.61991 35.7228 6.32228 36.5797 6.27393 37.0564C6.22705 37.5191 6.37327 38.2451 6.61124 38.7314C6.76542 39.0464 7.57642 39.94 7.70813 39.94C7.7349 39.94 7.75725 39.7042 7.75789 39.4159C7.75995 38.4595 8.04897 37.9115 8.72481 37.5823C9.12017 37.3898 9.16139 37.3829 9.73115 37.4149C10.5214 37.4592 10.9801 37.6668 11.4973 38.2141C11.9615 38.7052 12.0597 38.976 12.0545 39.7494C12.0415 41.6742 10.987 43.0881 9.2362 43.5284C9.0069 43.5861 8.56569 43.6247 8.13559 43.6247C5.67502 43.6247 3.77239 42.4904 2.99721 40.5614C2.43104 39.1526 2.44793 37.2009 3.04004 35.6122C3.88887 33.3345 5.86143 31.3275 8.52729 30.0291C10.1965 29.216 11.351 28.9301 12.9352 28.9372C14.6531 28.9449 15.9336 29.1486 16.5146 29.5065L16.7963 29.6801L16.8052 30.4742C16.8158 31.4138 16.9475 31.8334 17.3604 32.2418C17.7387 32.6162 18.1282 32.7764 18.743 32.8107C19.1708 32.8346 19.3152 32.8166 19.5606 32.7092C19.9791 32.5261 20.2868 32.2789 20.518 31.9403C20.6271 31.7804 20.7254 31.6383 20.7365 31.6247C20.767 31.5869 21.6831 32.2775 22.3397 32.8332C24.5803 34.7296 26.2662 37.3297 26.865 39.8129C26.9451 40.1449 27.0173 40.4256 27.0255 40.4369C27.0397 40.4563 28.2351 39.8433 28.3691 39.7478C28.4044 39.7225 28.6733 39.5807 28.9665 39.4323C29.5866 39.1188 29.5685 39.2243 29.1927 38.1055C28.6307 36.4321 27.8276 35.1734 25.6905 32.6165C24.384 31.0532 23.7197 30.1294 23.2655 29.2433C22.5499 27.8475 22.285 26.7534 22.2869 25.2013C22.2911 21.7175 23.759 19.254 27.2132 16.9338C28.079 16.3522 29.0171 15.8026 31.0981 14.6574C35.5219 12.223 37.2556 10.7325 38.3495 8.4232C39.1857 6.65767 39.3769 4.31054 38.8148 2.7091C38.1212 0.733042 36.6051 -0.218428 34.5651 0.042294ZM42.9841 0.0507433C41.7157 0.240885 40.6192 1.26014 40.1197 2.71336C39.7801 3.70104 39.7018 4.53168 39.8338 5.74813C40.0815 8.03135 41.126 9.9219 43.0477 11.565C44.2173 12.5651 45.4638 13.3605 48.3393 14.9416C51.9867 16.9471 53.5036 18.0606 54.8301 19.7061C55.6427 20.7142 56.2487 22.0565 56.5078 23.4225C56.6488 24.1666 56.6667 26.1665 56.5375 26.7578C56.3449 27.6389 56.1103 28.3275 55.7582 29.0448C55.1934 30.1956 54.9979 30.4631 52.3958 33.6435C51.4597 34.7875 50.8625 35.6686 50.3711 36.6301C49.8999 37.5521 49.463 38.7262 49.463 39.0703C49.463 39.1607 51.8275 40.4806 51.886 40.4228C51.9 40.409 51.9537 40.216 52.0052 39.9941C52.4012 38.2886 53.3749 36.3748 54.6361 34.8233C55.2584 34.0576 56.6621 32.7205 57.4909 32.1038L58.1611 31.6052L58.2544 31.7544C58.4733 32.1042 59.0944 32.6238 59.4226 32.7317C60.1825 32.9814 61.1382 32.7424 61.6237 32.1812C62.0123 31.732 62.1354 31.3225 62.1416 30.4592C62.1463 29.8012 62.1621 29.6985 62.2759 29.5859C62.4361 29.4275 63.0227 29.2198 63.6404 29.1029C64.3606 28.9666 66.1344 28.8856 66.8537 28.9561C70.2458 29.2889 74.0112 31.8005 75.4968 34.7213C76.079 35.866 76.3241 36.8828 76.3257 38.1612C76.328 39.9417 75.8976 41.1101 74.8608 42.1382C74.4225 42.5727 74.2371 42.7035 73.6694 42.9788C72.7346 43.4322 72.1715 43.5681 71.0707 43.6062C70.3771 43.6302 70.0699 43.6137 69.7264 43.5339C68.1332 43.1638 67.1435 42.0038 66.8667 40.1823C66.7805 39.6147 66.8458 39.134 67.0693 38.6912C67.2602 38.3132 67.809 37.8115 68.2612 37.6019C68.5888 37.4499 68.7067 37.4306 69.3048 37.4306C69.8734 37.4306 70.0193 37.4521 70.2359 37.5677C70.8428 37.8917 71.1084 38.3966 71.1626 39.3293L71.1991 39.9573L71.4875 39.7394C72.4126 39.0402 72.858 37.6867 72.549 36.5131C72.1609 35.0386 71.0583 33.8243 69.6437 33.3138C68.5173 32.9072 66.7571 32.9569 65.6889 33.4253C64.8515 33.7925 64.3918 34.2965 63.7944 35.5018L63.3651 36.3682L63.1088 36.1488C62.9678 36.0282 62.6371 35.8241 62.3737 35.6953C61.9092 35.4682 61.8736 35.4612 61.1852 35.4612C60.575 35.4613 60.426 35.4828 60.1224 35.6148C59.2907 35.9763 58.4892 36.636 57.7408 37.5751L57.3538 38.0606L57.9359 38.1705C59.5783 38.4804 61.261 39.6645 63.6897 42.2194C65.3766 43.994 66.0949 44.617 67.233 45.2928C67.9132 45.6967 68.5863 45.9872 69.2936 46.1823C69.9645 46.3673 71.6341 46.3818 72.4513 46.2097C74.6726 45.7417 76.658 44.5327 77.7001 43.0133C78.9881 41.1354 79.2892 38.5388 78.5538 35.6518C77.7681 32.5674 75.557 29.8602 72.6715 28.4493C72.0937 28.1668 70.9529 27.7439 70.762 27.7415C70.5346 27.7386 70.5216 27.6378 70.6998 27.2613C70.8566 26.93 70.8776 26.8125 70.8745 26.2813C70.8715 25.7727 70.8435 25.6129 70.6961 25.2649C70.4776 24.7489 70.1473 24.2525 69.7368 23.8231L69.4198 23.4915L69.1673 23.8655C68.8251 24.3725 68.0184 25.1035 67.3873 25.4784C66.1759 26.198 64.3656 26.738 62.6466 26.8926L62.185 26.9341L62.3443 26.5437C63.3514 24.0769 62.8659 20.8691 61.0875 18.2397C60.1804 16.8986 59.3743 16.0742 57.7532 14.8298C56.47 13.8448 56.0308 13.458 55.5719 12.9085C54.6022 11.7477 53.9834 10.5194 53.374 8.54555L53.1645 7.86726L52.8406 8.0297C52.6625 8.11896 52.3399 8.36704 52.1238 8.58088C51.3972 9.29977 51.0156 10.4081 51.0869 11.5921L51.1227 12.1859L50.919 12.1418C50.8069 12.1176 50.3395 11.9706 49.8804 11.8151C46.0185 10.5075 43.4686 8.57408 42.8602 6.49211C42.6543 5.78758 42.6355 5.29612 42.7833 4.48397C42.8547 4.09193 42.9235 3.76095 42.9361 3.74843C42.9488 3.73586 43.018 3.86584 43.09 4.03724C43.2704 4.46663 43.6272 4.83605 44.0588 5.04023C44.571 5.28259 45.2993 5.28392 45.7785 5.0434C46.3649 4.74901 46.7141 4.17802 46.8431 3.30234C46.9072 2.86754 46.9018 2.73305 46.804 2.32628C46.6655 1.74963 46.4475 1.25722 46.1859 0.930489C45.9435 0.627711 45.3747 0.281861 44.9039 0.151055C44.4413 0.0225365 43.5003 -0.0266348 42.9841 0.0507433ZM39.1416 13.9097C38.5732 14.6254 37.5205 15.4527 35.3863 16.8612C34.08 17.7234 33.4979 18.2299 33.0822 18.8661C32.4872 19.7769 32.3836 20.826 32.7947 21.7782C32.8341 21.8694 32.7262 21.8848 31.8241 21.9165C30.6214 21.9586 30.0638 22.0838 29.2039 22.5044C27.9557 23.115 27.2473 24.0489 26.9524 25.4727C26.8063 26.1778 26.8524 27.7744 27.0428 28.6001C27.5019 30.5921 28.5926 32.0713 30.4953 33.2825C31.2271 33.7484 32.0656 34.1733 33.474 34.7921C34.198 35.1102 34.9817 35.4829 35.2155 35.6202C36.4679 36.3561 37.3591 38.144 37.0692 39.3393C36.9792 39.7106 36.9219 39.76 36.8135 39.5595C36.687 39.3258 36.3803 39.2226 35.9183 39.2585C34.8025 39.3449 34.1272 40.0979 34.196 41.1788C34.2721 42.3753 35.3108 43.1801 36.7784 43.1799C37.8346 43.1798 38.7039 42.3811 39.1848 40.9687C39.3006 40.6287 39.309 40.5237 39.2527 40.1174C39.2114 39.8195 39.2096 39.382 39.2476 38.8918C39.2942 38.2909 39.2871 38.042 39.2143 37.7165C38.971 36.63 38.3394 35.4222 37.6561 34.7367C37.3261 34.4056 36.4473 33.6631 35.9195 33.2695C35.8024 33.1821 35.2769 32.8391 34.7518 32.5071C32.8973 31.3347 32.2511 30.7691 31.8493 29.966C31.2147 28.698 31.4038 27.2495 32.2879 26.6063C32.8955 26.1643 34.1683 25.9858 34.8225 26.2508C36.17 26.7969 36.9495 28.4758 36.8571 30.633C36.8187 31.5282 36.7126 32.1231 36.4763 32.767L36.3252 33.1791L36.6973 33.4589C36.902 33.6129 37.3863 34.0565 37.7736 34.4448L38.4776 35.1508L38.6058 34.7333C39.1057 33.1051 39.3505 31.6038 39.2847 30.5695C39.2013 29.2577 38.9706 28.4199 38.2063 26.6533C37.4628 24.9345 37.3101 24.3513 37.3173 23.2572C37.325 22.0919 37.6613 20.9929 38.2821 20.1045C38.6536 19.5728 39.3146 18.912 39.4749 18.912C39.6293 18.912 40.6671 19.9783 40.9126 20.389C41.4075 21.2172 41.6843 22.5303 41.6036 23.6669C41.5436 24.5105 41.3795 25.0908 40.8507 26.3285C39.8167 28.7485 39.6833 29.2698 39.6759 30.9189C39.6713 31.9273 39.6921 32.1932 39.822 32.7913C39.9795 33.5167 40.3909 35.0515 40.441 35.1011C40.4569 35.1168 40.7305 34.8573 41.0489 34.5244C41.3674 34.1915 41.8449 33.7547 42.1101 33.5537C42.3753 33.3528 42.5922 33.1771 42.5922 33.1633C42.5922 33.1496 42.5482 33.034 42.4943 32.9064C42.0913 31.9523 41.9324 29.9816 42.1726 28.9178C42.2836 28.426 42.5729 27.7351 42.8302 27.3472C43.471 26.3811 44.2697 26.0088 45.3839 26.1572C46.842 26.3514 47.5756 27.2765 47.4365 28.7461C47.3164 30.016 46.6249 30.9146 44.9159 32.0217C42.6822 33.4685 42.2672 33.7766 41.3998 34.6324C40.5767 35.4446 39.985 36.4943 39.7506 37.5582C39.6137 38.1793 39.6434 40.7313 39.7922 41.1362C40.1155 42.0164 40.7184 42.7444 41.3601 43.0299C41.6925 43.1776 41.7803 43.1894 42.3354 43.1604C43.4163 43.1039 44.1369 42.7087 44.5116 41.9668C44.6859 41.6217 44.7112 41.5062 44.7106 41.0575C44.7096 40.1852 44.3562 39.659 43.5768 39.369C43.2947 39.2641 43.1034 39.2357 42.8014 39.2543C42.4519 39.2757 42.3726 39.3057 42.1822 39.4883L41.964 39.6975L41.882 39.4535C41.7013 38.9155 41.87 37.8904 42.2502 37.215C42.5471 36.6878 42.9089 36.2055 43.1793 35.9765C43.4907 35.7127 44.3164 35.2828 45.5139 34.7608C48.1854 33.5963 49.6028 32.6578 50.5491 31.4271C51.4942 30.1979 51.97 28.862 52.0652 27.1707C52.1984 24.8017 51.3324 23.1809 49.5065 22.382C48.8016 22.0735 48.1508 21.9483 47.078 21.9145L46.0736 21.883L46.2112 21.5886C46.3241 21.3469 46.3487 21.1751 46.3487 20.6273C46.3487 19.8286 46.2501 19.5005 45.8096 18.8333C45.3787 18.1806 44.831 17.7147 43.313 16.7094C42.5834 16.2262 41.6676 15.5841 41.278 15.2825C40.6019 14.7593 39.7786 13.9708 39.5695 13.6461L39.4716 13.4943L39.1416 13.9097ZM34.2427 36.1656C33.3841 37.0303 31.5339 38.3917 30.1028 39.2117C29.3127 39.6645 26.8678 40.8929 26.7569 40.8929C26.7123 40.8929 26.5079 40.9631 26.3025 41.0488C26.097 41.1345 25.2933 41.446 24.5163 41.741C22.8619 42.3693 21.8962 42.8114 20.9204 43.3875C19.0906 44.4678 17.9523 45.5582 17.2669 46.8869C16.8804 47.6365 16.7528 48.2305 16.7941 49.0906C16.8341 49.9272 16.7847 49.9699 16.2822 49.5324C15.8927 49.1933 15.156 48.8154 14.58 48.6592C13.9197 48.4802 12.6362 48.5076 11.6416 48.7218C9.50955 49.1812 7.90924 49.115 5.9424 48.486C5.58024 48.3701 5.27285 48.2938 5.2593 48.3165C5.24575 48.3391 5.28409 48.5441 5.34451 48.7722C5.77249 50.3876 7.20829 51.4874 9.39641 51.8757C11.1453 52.1861 12.3121 52.7996 13.5369 54.0525C14.4815 55.0189 15.104 55.8839 16.4563 58.1092C17.2819 59.4679 18.1561 60.7705 18.6733 61.4127C20.675 63.8985 22.7381 65.125 25.8006 65.6494C26.6108 65.7881 29.2844 65.8069 30.167 65.68C31.4062 65.5018 32.5984 65.1397 33.2173 64.7536L33.5547 64.5432L33.1035 64.0738C32.8554 63.8157 32.4863 63.5044 32.2834 63.3821C32.0805 63.2598 31.6758 62.983 31.3841 62.767L30.8537 62.3741L30.4127 62.5259C26.7888 63.7727 22.0933 61.5518 20.739 57.9504C20.3667 56.9604 20.2857 56.2166 20.4072 54.906C20.6333 52.4683 21.5982 50.1914 23.3205 48.0313C24.9075 46.0411 26.4587 44.8248 29.8781 42.8897C30.9386 42.2895 32.9096 41.0072 33.6175 40.4568C33.853 40.2737 34.1059 40.0274 34.1796 39.9093C34.3697 39.6051 34.7165 39.3214 35.1073 39.1504C35.3255 39.0549 35.6522 38.8054 36.0384 38.4393L36.6332 37.8753L36.4688 37.5079C36.2298 36.9733 35.8164 36.4213 35.4401 36.1341C35.1477 35.9109 34.8362 35.7471 34.7041 35.7471C34.6788 35.7471 34.4712 35.9354 34.2427 36.1656ZM43.8123 35.9111C43.4037 36.1407 43.1354 36.4082 42.781 36.9395C42.3936 37.5202 42.2938 37.7955 42.4111 37.9599C42.5947 38.2173 43.5376 39.027 43.7802 39.1355C44.2107 39.3282 44.5082 39.5612 44.7118 39.8655C44.9233 40.1814 45.5844 40.6946 46.9266 41.585C47.7019 42.0993 48.3039 42.4628 49.9446 43.4071C51.9322 44.5512 52.9859 45.3223 54.2674 46.5706C57.0592 49.2901 58.587 52.6273 58.5804 55.9919C58.5793 56.5377 58.3886 57.464 58.1613 58.0268C57.7905 58.9447 57.2622 59.7167 56.4845 60.4764C55.2636 61.6693 53.837 62.4003 52.0371 62.7553C50.9015 62.9793 49.4404 62.8711 48.3997 62.4859L48.0498 62.3563L47.7308 62.6323C47.5554 62.7842 47.2449 63.0058 47.0408 63.125C46.4656 63.4606 46.013 63.8181 45.691 64.191C45.3466 64.5898 45.3496 64.5971 45.9905 64.9102C47.1249 65.4646 48.3557 65.708 50.362 65.7748C54.6808 65.9186 57.8014 64.5428 60.2568 61.4125C60.7459 60.7889 61.509 59.6659 62.1561 58.6175C63.9179 55.7624 64.2631 55.2613 65.1159 54.3212C65.9905 53.357 67.0192 52.6393 68.1081 52.2338C68.3376 52.1483 68.9631 51.9906 69.4984 51.8832C70.0336 51.7759 70.6641 51.6124 70.8995 51.5199C71.9951 51.0896 72.8549 50.3698 73.2824 49.5248C73.5079 49.079 73.7324 48.3621 73.6656 48.3008C73.6511 48.2876 73.3461 48.3719 72.9879 48.4882C71.1065 49.0993 69.2221 49.1761 67.2825 48.7208C66.3632 48.505 64.9607 48.4812 64.2962 48.6702C63.7398 48.8284 63.115 49.1535 62.6409 49.5315C62.3211 49.7865 62.2348 49.8278 62.151 49.7663C62.0653 49.7034 62.0606 49.6516 62.1212 49.4376C62.2348 49.0364 62.1442 48.1433 61.9265 47.5184C61.4629 46.1879 60.4255 44.9864 58.7739 43.8672C57.5485 43.0368 56.3244 42.4556 53.8616 41.5348C50.0558 40.1118 46.9809 38.3244 44.7219 36.2219C44.4413 35.9608 44.1869 35.7474 44.1565 35.7479C44.1261 35.7483 43.9712 35.8218 43.8123 35.9111ZM29.8139 43.2889C29.549 43.4436 29.0115 43.7725 28.6196 44.0199L27.9069 44.4698L27.938 45.3781C27.9712 46.3448 27.8979 47.4522 27.6882 49.1517C27.5676 50.1291 27.2237 52.4667 27.1447 52.8453L27.1098 53.0131L26.712 52.8898C26.4932 52.8219 26.097 52.7499 25.8315 52.7297C25.4204 52.6986 25.2986 52.7144 25.0122 52.8363C24.436 53.0816 24.0254 53.6967 23.9177 54.4763C23.801 55.3205 24.0408 56.0271 24.6479 56.6277C25.1042 57.0792 25.4792 57.2434 26.0582 57.2452C26.4613 57.2466 26.5399 57.2254 26.8083 57.0427C26.9731 56.9305 27.1329 56.8387 27.1634 56.8387C27.1938 56.8387 27.2548 56.9721 27.2988 57.1351C27.4459 57.6789 27.903 58.5772 28.4571 59.4116C29.3312 60.7275 30.6952 61.9981 32.4145 63.0981C32.9247 63.4244 33.9195 64.4296 34.4301 65.1345C35.6526 66.8223 36.0907 68.8138 35.5504 70.2273C35.4936 70.3759 35.4261 70.4973 35.4004 70.4973C35.3746 70.4973 35.3036 70.3679 35.2426 70.2096C35.1815 70.0514 35.0199 69.7822 34.8834 69.6114C34.2837 68.8608 32.9194 68.5969 31.9138 69.0371C31.095 69.3954 30.5044 70.4344 30.4122 71.6785C30.2989 73.2079 31.2157 74.3498 32.9405 74.8275C33.3454 74.9396 33.6149 74.9665 34.3409 74.9675C35.1502 74.9687 35.2869 74.9522 35.7109 74.8022C36.353 74.5752 36.8214 74.2853 37.2778 73.8326C38.0179 73.0985 38.5319 72.138 38.8086 70.972C39.0176 70.0912 39.0169 68.7058 38.8071 67.8432C38.5288 66.6993 37.9957 65.6333 37.1197 64.469C36.8225 64.0739 35.7974 62.9957 34.214 61.4127C31.4221 58.6216 31.0345 58.1533 30.6108 57.0603C30.463 56.6793 30.438 56.5172 30.4348 55.9175C30.4305 55.119 30.5383 54.6747 30.8489 54.2107C31.7749 52.8276 34.0438 52.8266 35.4272 54.2088C35.8975 54.6787 36.1479 55.0828 36.3676 55.7269C36.4952 56.1008 36.5187 56.2931 36.5151 56.9339C36.5114 57.5849 36.4861 57.7671 36.3421 58.1804C36.0288 59.0794 35.4089 59.9756 34.6185 60.6721L34.2447 61.0016L35.1796 61.9218L36.1146 62.8421L36.6816 62.2598C37.8708 61.0382 38.735 59.4054 39.0856 57.718C39.3016 56.6781 39.3239 55.9149 39.3045 50.2346L39.2853 44.6153L39.0003 45.048C38.7225 45.4699 38.1284 46.1075 37.3685 46.7991C36.7016 47.4062 36.284 48.0655 36.0658 48.8556C35.9237 49.3698 35.889 50.3806 35.9951 50.9135C36.0819 51.3498 36.0805 51.3749 35.9664 51.4107C35.8845 51.4364 35.7903 51.389 35.6699 51.2615C35.4418 51.0199 35.0929 50.8483 34.5335 50.7027C33.9134 50.5412 32.4377 50.5342 31.9329 50.6903C31.4516 50.8391 30.8295 51.2115 30.3825 51.6184C30.0958 51.8793 29.9802 51.9473 29.8775 51.915C29.7906 51.8877 29.7558 51.8363 29.7775 51.7671C29.9806 51.1174 30.3682 49.0938 30.5278 47.8493C30.6529 46.8734 30.637 44.4906 30.5003 43.7595C30.4391 43.4318 30.3679 43.1286 30.3422 43.0857C30.3085 43.0295 30.1608 43.0863 29.8139 43.2889ZM48.5048 43.3864C48.3537 44.1234 48.3097 44.662 48.3085 45.785C48.3067 47.3877 48.4925 48.9492 48.8942 50.7081C48.9979 51.1624 49.0996 51.6122 49.1202 51.7078C49.1861 52.0141 48.9896 51.9948 48.6129 51.6579C47.745 50.8818 46.9124 50.5492 45.8376 50.5494C44.7105 50.5496 43.6115 50.8541 43.2642 51.2624C43.1494 51.3973 43.0717 51.4365 42.9775 51.4069C42.8754 51.3749 42.8565 51.3305 42.8876 51.196C42.9092 51.1024 42.9414 50.6534 42.9592 50.1982C42.9872 49.4836 42.9726 49.3011 42.8527 48.8615C42.6096 47.97 42.3046 47.5178 41.2705 46.5152C40.766 46.0261 40.2034 45.4257 40.0203 45.1811C39.8371 44.9365 39.6752 44.7235 39.6604 44.7076C39.6457 44.6917 39.6434 47.4647 39.6553 50.8699C39.6767 56.996 39.6785 57.0674 39.819 57.6645C40.2833 59.638 41.067 61.085 42.3932 62.4177L42.7918 62.8181L43.7033 61.9471C44.2048 61.468 44.6233 61.0555 44.6335 61.0304C44.6438 61.0053 44.4458 60.788 44.1935 60.5476C43.2999 59.6956 42.7426 58.8229 42.4946 57.8869C42.1919 56.745 42.5126 55.3292 43.274 54.4451C44.54 52.9754 46.6919 52.7345 47.8388 53.9342C48.5275 54.6547 48.7165 55.9552 48.2978 57.0928C47.92 58.119 47.3619 58.7947 44.8095 61.316C43.6076 62.5033 42.4591 63.6697 42.2572 63.9081C41.0888 65.2878 40.3717 66.6455 40.0857 68.0197C39.9669 68.5904 39.9517 68.8244 39.9801 69.6397C40.0029 70.292 40.0544 70.753 40.1435 71.1009C40.5919 72.8525 41.628 74.1735 42.9813 74.719C44.449 75.3107 46.6489 74.9332 47.6802 73.9129C48.3384 73.2617 48.6039 72.4987 48.4978 71.563C48.315 69.9498 47.5423 69.0014 46.2845 68.8464C45.126 68.7036 44.1624 69.1879 43.7155 70.1376L43.5111 70.572L43.3726 70.2012C43.1605 69.6332 43.0948 69.1843 43.1418 68.6232C43.2363 67.497 43.6455 66.3874 44.3562 65.3309C44.8846 64.5451 45.9177 63.4959 46.6462 63.0049C48.5443 61.7259 49.5584 60.778 50.4895 59.4129C50.8863 58.8312 51.4552 57.6985 51.614 57.1741L51.7311 56.7874L52.0818 57.0177C52.4031 57.2288 52.4708 57.248 52.8901 57.2474C53.2748 57.2468 53.403 57.2169 53.6931 57.0601C54.6901 56.5208 55.1848 55.4992 54.9886 54.3847C54.8933 53.8432 54.658 53.4058 54.289 53.0845C53.9804 52.8157 53.6919 52.7102 53.2642 52.7097C52.9733 52.7093 52.1395 52.8759 51.9552 52.9712C51.8955 53.002 51.8321 53.0039 51.8142 52.9753C51.7653 52.897 51.347 50.0936 51.201 48.8658C51.0117 47.2738 50.9231 45.6547 50.9924 45.0541C51.0246 44.7745 51.0404 44.5269 51.0273 44.5037C50.9637 44.3913 48.7614 43.0529 48.6399 43.0529C48.6032 43.0529 48.5424 43.203 48.5048 43.3864Z" fill="#D2D2D2"/>
</svg>
