<svg width="87" height="76" viewBox="0 0 87 76" fill="none" xmlns="http://www.w3.org/2000/svg">
<path fill-rule="evenodd" clip-rule="evenodd" d="M0 75.4657V22.2476C3.87213 22.29 4.26378 22.7935 4.26378 26.2914C4.26378 31.3616 7.38155 34.0781 11.8961 32.9437C15.0525 32.1526 15.3824 32.5289 15.7818 37.3579C16.185 42.2121 16.6172 42.6944 21.1433 43.3407C25.2123 43.9214 26.092 44.6546 26.2174 47.5601C26.5049 54.168 26.7731 54.5944 30.6375 54.5732C36.0164 54.5423 37.7373 53.1146 38.2679 48.247C38.675 44.4983 38.2698 43.9948 34.5038 43.5684C28.9493 42.9414 26.8888 41.0776 27.8188 37.52C28.7236 34.0569 26.2039 32.1411 20.7034 32.1102C17.0898 32.0909 16.7831 31.6935 17.1863 27.5184C17.5741 23.4977 18.178 22.8939 22.1987 22.5061C23.8096 22.3517 24.8881 22.1279 25.5904 21.7093C25.9145 21.5163 26.1576 21.2829 26.337 20.9954C26.6534 20.488 26.7692 19.8147 26.7692 18.9079C26.7692 14.5708 29.5995 11.2794 33.7938 10.7392C36.4216 10.4016 37.4788 9.25749 38.0132 6.16867C38.538 3.12421 39.7554 1.77369 42.6745 0.99425C46.9633 -0.151762 47.4707 0.448255 48.1576 7.47481C48.5338 11.3141 48.9775 11.6537 53.0889 11.2428C57.7733 10.7739 58.0781 11.1984 59.4363 20.133C59.7778 22.3691 60.7637 22.8572 64.2307 22.508C68.9961 22.0295 71.1009 24.7576 69.6038 29.4748C69.0076 31.3539 67.4179 32.089 63.9471 32.089C59.3958 32.089 59.118 32.3629 59.118 36.8621C59.118 41.9208 57.3797 43.3407 51.1827 43.3407C49.4502 43.3407 48.582 43.4854 48.2154 44.3999C48.0457 44.8224 47.9839 45.4089 47.9955 46.2212C48.0032 46.8675 48.0553 47.6547 48.1344 48.6155C48.5473 53.624 48.8193 53.8902 53.4921 53.8902C58.0472 53.8902 58.4678 53.5217 59.118 48.9666C59.7431 44.5909 60.3701 43.9658 64.7458 43.3407C69.1215 42.7176 69.7466 42.0905 70.3717 37.7149C70.9948 33.3392 71.6219 32.7141 75.9975 32.089C80.3481 31.4677 80.9713 30.8561 81.3591 26.8142C81.7623 22.6469 82.2215 22.2437 86.5509 22.2437C86.6801 22.2437 86.8785 22.2437 87 22.2437V75.5352C56.8757 75.5139 27.7782 75.4908 0 75.4657ZM37.502 21.825C36.4254 22.9035 36.3309 29.714 37.3592 32.3899C37.855 33.6845 39.711 34.1398 42.9484 33.7617C47.164 33.2697 47.9106 32.5867 48.6746 28.514C49.1569 25.9403 49.1994 23.2624 48.7692 22.564C48.1865 21.6244 44.2507 21.0417 41.158 21.0958C39.4351 21.1247 37.9747 21.3524 37.502 21.825Z" fill="#D2D2D2"/>
</svg>
