<svg width="157" height="75" viewBox="0 0 157 75" fill="none" xmlns="http://www.w3.org/2000/svg">
<path fill-rule="evenodd" clip-rule="evenodd" d="M107.475 73.6239C106.798 73.1029 105.83 72.4382 105.324 72.1472C104.539 71.6952 104.592 71.4104 105.695 70.1858C107.895 67.741 107.99 67.204 106.508 65.6243L105.106 64.1284L106.552 62.587C108.32 60.7008 108.988 60.6712 111.159 62.3816L112.854 63.7178L113.998 62.2275C114.626 61.408 115.147 60.5984 115.155 60.4289C115.173 60.0053 109.291 54.9653 108.525 54.747C108.185 54.6502 105.79 56.6257 103.204 59.1365L98.5019 63.7024L100.067 65.3388L101.632 66.9758L99.9373 68.5932C98.4133 70.0471 98.1215 70.1211 97.0474 69.3275C95.3486 68.0721 94.3749 68.2251 92.8269 69.9904L91.4715 71.5362L89.4613 69.938L87.4504 68.3391L89.3074 65.9912C90.3285 64.6994 91.1638 63.3355 91.1638 62.9606C91.1638 62.5395 89.7733 62.2787 87.5249 62.2787H83.8859L83.4699 59.8123C83.0956 57.595 82.8728 57.3459 81.2614 57.3459C79.6235 57.3459 79.469 57.1603 79.469 55.1879C79.469 53.327 79.6703 53.0298 80.9309 53.0298C81.7347 53.0298 83.2138 52.8652 84.2165 52.6641C85.9571 52.3158 86.0661 52.4212 86.6016 54.9764L87.1629 57.6542L90.1999 57.8466C91.8698 57.9527 93.9471 57.8608 94.8156 57.6425C96.2664 57.2775 96.307 57.1813 95.3179 56.4568C93.9699 55.4696 93.9828 54.9437 95.3997 53.0976L96.5304 51.6246L98.505 52.7893L100.48 53.9547L102.241 51.7966C104.261 49.3204 104.092 48.9319 99.6412 45.8416L97.1447 44.1089L93.8997 47.6852L90.6554 51.2614L88.4549 49.8334C86.2551 48.4053 85.6999 47.2708 86.8521 46.5574C87.1888 46.349 87.7624 45.6196 88.1274 44.937C88.767 43.7396 88.6303 43.7008 84.2836 43.845L79.7768 43.9943L79.5915 41.5051L79.4062 39.0153L82.5152 38.6022C84.2251 38.3753 85.6168 37.9905 85.6082 37.7482C85.5995 37.5052 84.2146 36.3707 82.5306 35.2263C80.8465 34.0819 79.469 32.9024 79.469 32.6058C79.469 32.3086 81.4079 32.0657 83.7776 32.0657C86.1473 32.0657 88.0862 31.8314 88.0862 31.5447C88.0862 31.2579 87.5322 30.5211 86.8552 29.9076C85.088 28.3057 85.3004 27.8802 88.2401 27.1262C92.7758 25.9633 92.7173 26.0151 91.2561 24.4563C89.4736 22.556 89.561 22.3235 92.2409 21.8389C95.545 21.2414 95.8226 20.93 94.1712 19.6697L92.7025 18.5494L94.8771 16.3568L97.0518 14.1642L99.1543 15.718L101.257 17.2718L103.135 15.4603L105.013 13.6481L106.705 14.893C107.637 15.5774 108.398 16.4887 108.398 16.9179C108.398 17.347 104.52 21.7371 99.7809 26.673C95.0415 31.6088 91.1638 35.9083 91.1638 36.2271C91.1638 36.5464 91.7208 37.3123 92.4009 37.9288C93.6024 39.0184 93.6837 39.0091 95.1763 37.6039L96.7132 36.1574L98.5302 37.5028C100.82 39.199 101.096 39.1867 102.858 37.3067L104.304 35.7652L102.842 34.2059L101.379 32.6465L103.291 30.7308L105.204 28.815L107.016 30.1086L108.829 31.4016L110.452 29.7041L112.075 28.0073L110.771 26.7007L109.467 25.3942L110.821 23.4889C112.432 21.2217 112.817 21.173 115.193 22.9327L117.015 24.2812L118.837 22.5326L120.659 20.7833L122.89 22.4875L125.121 24.1924L123.092 26.2888L121.063 28.3859L122.72 30.0451L124.376 31.7044L126.178 29.9742L127.981 28.2447L129.884 29.6548C130.931 30.4299 131.788 31.2049 131.788 31.3769C131.788 31.549 131.045 32.4665 130.137 33.4154L128.488 35.1406L129.937 36.6858C131.703 38.5695 131.979 38.5824 134.262 36.8917C135.961 35.6339 136.141 35.6148 137.21 36.5834C137.835 37.1507 138.749 37.615 139.239 37.615C140.179 37.615 142.251 35.5254 142.251 34.5783C142.251 34.2718 138.443 30.502 133.788 26.2C129.133 21.8981 125.246 18.0469 125.15 17.6418C125.054 17.2367 125.661 16.26 126.498 15.472L128.021 14.0384L130.26 15.4251L132.5 16.8112L134.335 15.4516C136.07 14.1673 136.256 14.1481 137.706 15.0989C139.578 16.3284 140.188 17.7312 139.256 18.6653C137.951 19.9725 138.554 20.3504 141.944 20.3504C143.805 20.3504 145.329 20.5292 145.329 20.7475C145.329 20.9658 144.29 22.0831 143.021 23.2293L140.712 25.3146L144.931 24.912C148.986 24.5248 149.124 24.5562 148.504 25.7179C148.148 26.3826 147.428 27.284 146.901 27.7218C145.076 29.2392 145.97 29.5586 151.022 29.1961L156.1 28.8316L152.426 32.607L148.753 36.3818H151.657H154.562V39.1565V41.9311H149.945C145.261 41.9311 144.303 42.507 146.059 44.2662C146.623 44.8303 146.458 45.352 145.336 46.5476C144.537 47.3997 143.603 48.0971 143.261 48.0971C142.918 48.0971 141.324 46.9872 139.718 45.6307C138.113 44.2742 136.433 43.1748 135.986 43.1878C135.538 43.2013 133.788 44.4382 132.095 45.9377L129.018 48.6631L130.696 50.3562L132.375 52.0488L134.306 50.6195L136.236 49.1897L137.832 50.7891L139.429 52.3879L137.608 54.3326L135.788 56.278L140.328 55.8754C145.661 55.403 145.944 55.2736 145.944 53.3134C145.944 51.6727 146.775 51.3323 151.484 51.0425L154.254 50.8717L154.441 53.4577C154.624 55.974 154.57 56.0554 152.476 56.4488C150.731 56.7768 150.287 57.1628 150.134 58.4872C149.958 60.0084 149.66 60.1588 145.79 60.6805C143.505 60.9881 141.636 61.4512 141.636 61.7089C141.636 61.9673 142.605 62.7781 143.79 63.5118C146.342 65.0915 146.461 65.8931 144.428 67.8064C142.987 69.1629 142.837 69.1832 141.372 68.222C139.354 66.8975 138.444 66.9469 136.489 68.4877L134.869 69.7641L133.02 68.4458C132.004 67.7207 131.172 66.9537 131.172 66.7409C131.172 66.5282 131.932 65.5589 132.862 64.5872L134.552 62.8206L131.477 60.0688C129.786 58.5557 127.513 56.6054 126.426 55.7354L124.449 54.1532L121.348 56.8286C119.642 58.2998 118.247 59.6692 118.246 59.8709C118.246 60.0725 118.803 60.7427 119.483 61.3593C120.685 62.4488 120.766 62.4396 122.234 61.0584L123.746 59.6353L125.969 61.334L128.193 63.0334L126.489 64.8153C124.826 66.5535 124.814 66.6188 125.978 67.5012C126.634 67.9982 127.379 68.4144 127.633 68.4248C128.492 68.4612 128.082 69.3614 126.271 71.419L124.468 73.4686L121.819 71.8599C120.362 70.9751 118.605 69.8498 117.915 69.3596C116.757 68.5364 116.369 68.7048 112.872 71.5392C110.788 73.2287 108.998 74.6019 108.894 74.5908C108.791 74.5803 108.152 74.145 107.475 73.6239ZM114.227 51.7769L112.434 49.9024L114.033 48.5373C116.061 46.8059 116.57 45.307 115.448 44.3735C114.313 43.4301 111.805 44.0676 110.158 45.7176L108.871 47.0063L106.979 45.1103L105.087 43.2149L106.774 41.6481C108.763 39.8014 108.892 39.7805 110.325 41.0796C111.051 41.7375 111.959 41.9435 112.99 41.6839C114.231 41.3719 114.553 40.9082 114.553 39.4339C114.553 38.3512 114.168 37.4282 113.63 37.2216C112.263 36.6957 112.523 35.6986 114.636 33.3704L116.53 31.2838L117.982 33.0621C119.557 34.992 119.824 36.0939 118.862 36.6901C117.873 37.3024 118.154 40.0844 119.247 40.505C119.797 40.7164 121.154 40.5611 122.261 40.1603C124.011 39.5264 124.566 39.6035 126.503 40.7485L128.732 42.0656L126.72 44.4123C124.461 47.0501 123.987 47.232 122.604 45.9945C120.883 44.4561 117.631 44.4943 117.631 46.0537C117.631 46.6252 118.232 47.7339 118.967 48.5176C119.701 49.3006 120.185 50.0122 120.041 50.0985C119.897 50.1848 118.933 51.0191 117.899 51.9532L116.019 53.6513L114.227 51.7769ZM115.042 17.4216C112.922 15.2161 112.864 15.0441 113.786 13.6851C114.686 12.3594 114.661 12.1689 113.437 10.9425L112.121 9.62483L110.722 10.9376L109.321 12.2509L106.984 10.8346L104.647 9.41827L108.121 5.34261L111.593 1.26693L114.002 2.63884L116.411 4.01077L117.991 2.00437L119.57 -0.00201416L123.813 2.92926C126.146 4.54165 128.063 6.138 128.072 6.47713C128.081 6.81625 127.461 7.87988 126.693 8.84052C125.406 10.4511 125.165 10.5263 123.59 9.80734C122.041 9.10011 121.734 9.17657 120.279 10.6354C118.809 12.1072 118.739 12.3995 119.446 14.1093C120.129 15.7611 120.065 16.1921 118.883 17.8551C118.148 18.8885 117.484 19.7338 117.406 19.7338C117.329 19.7338 116.265 18.693 115.042 17.4216Z" fill="#d2d2d2"/>
<path fill-rule="evenodd" clip-rule="evenodd" d="M28.6858 0.960047C28.0087 1.48107 27.0411 2.14575 26.5352 2.43678C25.7498 2.88875 25.8033 3.17361 26.9057 4.39816C29.1056 6.84295 29.201 7.38 27.7194 8.9597L26.3167 10.4556L27.7625 11.997C29.5309 13.8832 30.1993 13.9128 32.3696 12.2024L34.0653 10.8662L35.209 12.3565C35.8374 13.176 36.3581 13.9855 36.3655 14.1551C36.384 14.5787 30.5021 19.6187 29.7358 19.837C29.3955 19.9338 27.0011 17.9582 24.4147 15.4475L19.7128 10.8816L21.2781 9.24519L22.8433 7.60814L21.1482 5.99082C19.6242 4.53689 19.3324 4.4629 18.2584 5.25646C16.5596 6.51184 15.5858 6.35892 14.0378 4.59362L12.6825 3.04783L10.6722 4.64603L8.66132 6.24485L10.5183 8.59283C11.5395 9.88459 12.3747 11.2485 12.3747 11.6234C12.3747 12.0445 10.9843 12.3053 8.73579 12.3053H5.09688L4.6808 14.7717C4.30657 16.989 4.08375 17.2381 2.47234 17.2381C0.834463 17.2381 0.67997 17.4237 0.67997 19.3961C0.67997 21.257 0.881243 21.5542 2.14181 21.5542C2.94567 21.5542 4.42475 21.7188 5.42742 21.9198C7.16808 22.2682 7.27703 22.1628 7.81253 19.6076L8.37387 16.9298L11.4108 16.7374C13.0807 16.6313 15.158 16.7232 16.0265 16.9415C17.4773 17.3065 17.5179 17.4027 16.5288 18.1272C15.1808 19.1143 15.1937 19.6403 16.6107 21.4864L17.7414 22.9594L19.7159 21.7947L21.6905 20.6293L23.4515 22.7874C25.4722 25.2636 25.3029 25.6521 20.8522 28.7424L18.3556 30.475L15.1107 26.8988L11.8663 23.3226L9.66583 24.7506C7.46599 26.1786 6.9108 27.3132 8.06304 28.0266C8.39972 28.235 8.97338 28.9644 9.33838 29.647C9.9779 30.8444 9.84125 30.8832 5.49451 30.7389L0.987727 30.5897L0.802458 33.0789L0.617188 35.5687L3.72614 35.9818C5.43603 36.2087 6.8277 36.5935 6.81909 36.8358C6.81047 37.0787 5.42557 38.2133 3.74153 39.3577C2.05749 40.5021 0.67997 41.6816 0.67997 41.9782C0.67997 42.2754 2.61883 42.5183 4.98856 42.5183C7.35828 42.5183 9.29714 42.7526 9.29714 43.0393C9.29714 43.326 8.74318 44.0629 8.06612 44.6764C6.29898 46.2783 6.51133 46.7037 9.45102 47.4578C13.9867 48.6207 13.9283 48.5689 12.467 50.1277C10.6845 52.028 10.7719 52.2605 13.4518 52.7451C16.7559 53.3426 17.0335 53.6539 15.3821 54.9143L13.9135 56.0346L16.0881 58.2272L18.2627 60.4198L20.3653 58.866L22.4679 57.3122L24.3458 59.1237L26.2237 60.9359L27.9164 59.691C28.8477 59.0066 29.609 58.0953 29.609 57.6661C29.609 57.237 25.7313 52.8468 20.9919 47.911C16.2524 42.9752 12.3747 38.6757 12.3747 38.3569C12.3747 38.0375 12.9317 37.2717 13.6119 36.6551C14.8134 35.5656 14.8946 35.5749 16.3872 36.9801L17.9242 38.4266L19.7412 37.0812C22.0309 35.385 22.3066 35.3973 24.0694 37.2773L25.5153 38.8188L24.0528 40.3781L22.5904 41.9375L24.5021 43.8532L26.4145 45.769L28.2272 44.4754L30.0399 43.1824L31.663 44.8799L33.2861 46.5767L31.9818 47.8833L30.6776 49.1898L32.0317 51.0951C33.6431 53.3623 34.0284 53.411 36.4043 51.6513L38.2256 50.3028L40.0481 52.0514L41.87 53.8007L44.1013 52.0964L46.3319 50.3916L44.3032 48.2952L42.2744 46.1981L43.9308 44.5389L45.5871 42.8796L47.3893 44.6098L49.1916 46.3393L51.0947 44.9292C52.1417 44.1541 52.9985 43.3791 52.9985 43.207C52.9985 43.035 52.2562 42.1175 51.3483 41.1686L49.6987 39.4434L51.1483 37.8982C52.9142 36.0145 53.1899 36.0016 55.4729 37.6922C57.1717 38.9501 57.352 38.9692 58.4206 38.0005C59.0459 37.4333 59.9599 36.969 60.4499 36.969C61.3898 36.969 63.4622 39.0586 63.4622 40.0057C63.4622 40.3121 59.654 44.082 54.9989 48.3839C50.3444 52.6859 46.4568 56.5371 46.3608 56.9422C46.2648 57.3473 46.8717 58.324 47.7094 59.112L49.2322 60.5456L51.4714 59.1589L53.7107 57.7728L55.5461 59.1324C57.2806 60.4167 57.4671 60.4358 58.9167 59.4851C60.789 58.2556 61.399 56.8528 60.4665 55.9187C59.1616 54.6115 59.7648 54.2335 63.1545 54.2335C65.0164 54.2335 66.5398 54.0547 66.5398 53.8365C66.5398 53.6182 65.5014 52.5009 64.2316 51.3547L61.9234 49.2694L66.1415 49.672C70.1971 50.0592 70.335 50.0278 69.7146 48.8661C69.3594 48.2014 68.6387 47.3 68.1124 46.8622C66.2868 45.3448 67.1811 45.0254 72.2333 45.3879L77.3112 45.7523L73.6372 41.9769L69.9639 38.2022H72.8679H75.7725V35.4275V32.6528H71.1561C66.4721 32.6528 65.5143 32.077 67.2704 30.3178C67.8336 29.7536 67.6686 29.232 66.5471 28.0364C65.7482 27.1843 64.8139 26.4869 64.4716 26.4869C64.1294 26.4869 62.5352 27.5968 60.9294 28.9533C59.3235 30.3098 57.6438 31.4092 57.1969 31.3962C56.7494 31.3827 54.9989 30.1458 53.3063 28.6462L50.2287 25.9209L51.9072 24.2277L53.5863 22.5352L55.5166 23.9645L57.4468 25.3943L59.0428 23.7949L60.6395 22.1961L58.8194 20.2513L56.9993 18.306L61.5394 18.7086C66.8722 19.1809 67.1553 19.3104 67.1553 21.2706C67.1553 22.9113 67.9856 23.2517 72.6949 23.5415L75.4647 23.7123L75.6524 21.1263C75.8346 18.61 75.7811 18.5286 73.6865 18.1352C71.9415 17.8072 71.4977 17.4212 71.3451 16.0967C71.169 14.5756 70.8711 14.4252 67.0014 13.9035C64.716 13.5959 62.8467 13.1328 62.8467 12.8751C62.8467 12.6167 63.8161 11.8059 65.001 11.0721C67.5529 9.49244 67.6723 8.69087 65.6393 6.77759C64.1984 5.42109 64.0476 5.40074 62.5833 6.362C60.565 7.68644 59.6553 7.63712 57.6998 6.09625L56.0798 4.81991L54.2314 6.13818C53.2145 6.86329 52.383 7.63033 52.383 7.84306C52.383 8.05578 53.1431 9.02506 54.0726 9.99681L55.7628 11.7633L52.6877 14.5152C50.9969 16.0283 48.7238 17.9786 47.6368 18.8486L45.6604 20.4308L42.5588 17.7554C40.8532 16.2842 39.4579 14.9147 39.4572 14.7131C39.4572 14.5115 40.0143 13.8413 40.6944 13.2247C41.8959 12.1352 41.9765 12.1444 43.4445 13.5256L44.9568 14.9487L47.1801 13.2499L49.4039 11.5506L47.6996 9.76867C46.0371 8.0305 46.0247 7.96514 47.1887 7.0828C47.8454 6.58583 48.5902 6.16963 48.8438 6.15915C49.7024 6.12277 49.2931 5.22254 47.4823 3.16498L45.6788 1.11543L43.0297 2.72411C41.5728 3.60892 39.8161 4.7342 39.1261 5.22439C37.9683 6.04754 37.5799 5.87921 34.0826 3.04474C31.9985 1.35528 30.2085 -0.0178678 30.1051 -0.00676913C30.0017 0.00371293 29.3628 0.439027 28.6858 0.960047ZM35.4379 22.8071L33.645 24.6816L35.2441 26.0467C37.2722 27.7781 37.7812 29.277 36.6591 30.2105C35.5241 31.1539 33.0159 30.5164 31.3688 28.8664L30.0824 27.5777L28.1903 29.4737L26.2976 31.3691L27.9853 32.9359C29.974 34.7826 30.1033 34.8035 31.5362 33.5044C32.2619 32.8465 33.1698 32.6405 34.2008 32.9001C35.4422 33.2121 35.7642 33.6758 35.7642 35.15C35.7642 36.2328 35.3789 37.1558 34.8409 37.3624C33.4738 37.8883 33.7342 38.8854 35.8473 41.2136L37.7406 43.3001L39.1926 41.5219C40.7677 39.592 41.0354 38.4901 40.0728 37.8939C39.0836 37.2816 39.3649 34.4995 40.4581 34.079C41.0083 33.8675 42.3649 34.0229 43.4722 34.4237C45.2215 35.0576 45.7767 34.9805 47.7137 33.8355L49.9425 32.5184L47.931 30.1717C45.6714 27.5339 45.1975 27.352 43.8144 28.5895C42.0941 30.1279 38.8417 30.0897 38.8417 28.5303C38.8417 27.9587 39.4431 26.8501 40.178 26.0664C40.9123 25.2833 41.3961 24.5718 41.2521 24.4855C41.108 24.3992 40.1441 23.5649 39.1101 22.6308L37.2303 20.9327L35.4379 22.8071ZM36.2529 57.1624C34.1324 59.3679 34.0746 59.5399 34.9966 60.8989C35.8965 62.2246 35.8719 62.4151 34.6482 63.6415L33.3323 64.9592L31.9326 63.6464L30.5323 62.3331L28.1952 63.7494L25.8581 65.1657L29.3314 69.2414L32.8042 73.3171L35.2133 71.9451L37.6224 70.5732L39.2018 72.5796L40.7812 74.586L45.0239 71.6547C47.3573 70.0423 49.274 68.446 49.2827 68.1069C49.2919 67.7677 48.6714 66.7041 47.9039 65.7435C46.6169 64.1329 46.3762 64.0577 44.8011 64.7766C43.2519 65.4839 42.9453 65.4074 41.4897 63.9486C40.0198 62.4768 39.9503 62.1845 40.6569 60.4747C41.3401 58.8228 41.2755 58.3918 40.0937 56.7289C39.3588 55.6955 38.6946 54.8501 38.6171 54.8501C38.5395 54.8501 37.4759 55.8909 36.2529 57.1624Z" fill="#d2d2d2"/>
</svg>
