<svg width="78" height="75" viewBox="0 0 78 75" fill="none" xmlns="http://www.w3.org/2000/svg">
<path fill-rule="evenodd" clip-rule="evenodd" d="M33.2552 5.29885L27.7064 10.5983L19.5999 10.7619L11.4941 10.926L11.322 18.8982L11.1505 26.8704L5.57495 32.197L0 37.5236L5.59172 42.8142L11.1834 48.1048V56.237V64.3692H19.4278H27.6722L33.2379 69.6846L38.8035 75L44.4188 69.6846L50.0341 64.3692H58.2537H66.4732V56.2606V48.152L72.2072 42.6784L77.9412 37.2047L72.2072 31.7311L66.4732 26.2574V18.4441V10.6308H58.2537H50.0341L44.4188 5.31538L38.8035 0L33.2552 5.29885ZM33.5416 8.56981L28.2947 13.5834H20.6709H13.0471V20.5098V27.4361L7.93563 32.3204L2.82412 37.2047L7.91824 42.0766L13.0124 46.9485L13.1851 54.6254L13.3578 62.3024L21.2387 62.4671C28.9389 62.6283 29.1539 62.6691 30.61 64.2387C31.4294 65.1228 33.6858 67.2995 35.6234 69.077L39.1464 72.3084L44.2678 67.4707L49.3893 62.6337L56.5335 62.4677L63.6777 62.3024L63.9883 54.7873L64.2989 47.2721L69.1135 42.5195C71.7612 39.9058 73.928 37.5679 73.928 37.3246C73.928 37.0807 71.6916 34.7682 68.9581 32.1852L63.9883 27.4887V20.5358V13.5834H56.6186H49.2489L46.4453 10.7784C44.9034 9.23534 42.5501 6.97951 41.2151 5.76478L38.7886 3.55619L33.5416 8.56981ZM34.4797 12.4024L30.1646 16.5361H23.7802H17.3958V22.5749V28.6143L12.9074 32.9092L8.41895 37.2047L12.9074 41.5003L17.3958 45.7952V52.1299V58.4639H23.4975H29.5993L34.1691 62.5976C36.6826 64.8712 38.906 66.7314 39.111 66.7314C39.3154 66.7314 41.4251 64.8712 43.7982 62.5976L48.1133 58.4639H54.4977H60.8821V52.1299V45.7952L65.3705 41.5003L69.8589 37.2047L65.3705 32.9092L60.8821 28.6143V22.5749V16.5361H54.4977H48.1133L43.7982 12.4024C41.4251 10.1288 39.3284 8.26864 39.1389 8.26864C38.9495 8.26864 36.8528 10.1288 34.4797 12.4024ZM34.5014 15.3344L30.8343 18.8569L25.2022 19.0252L19.5701 19.1935L19.3912 24.213L19.2123 29.2325L15.0593 33.2186L10.9064 37.2047L15.0829 41.2056L19.2595 45.2065V50.9494V56.6923H24.9904H30.7212L34.9301 60.6625L39.1389 64.6326L43.3478 60.6625L47.5567 56.6923H53.2875H59.0184V50.9163V45.1397L62.7458 41.6337C64.7959 39.705 66.4732 37.8449 66.4732 37.5C66.4732 37.1551 64.8058 35.3038 62.7676 33.3869L59.0619 29.901L58.8848 24.5473L58.7078 19.1935L52.7657 19.0258L46.8236 18.8581L43.1558 15.335C41.1387 13.3974 39.1911 11.8118 38.8283 11.8118C38.4655 11.8118 36.518 13.3968 34.5014 15.3344ZM36.4155 18.3095C33.8616 20.9964 33.9734 20.6946 34.7822 22.716C35.3277 24.0807 35.2103 24.3152 33.7075 24.8579C32.7098 25.2187 31.9426 25.2459 31.8301 24.924C31.2201 23.1843 29.8347 22.4367 26.559 22.0788L22.9869 21.6885V25.2411C22.9869 28.632 23.072 28.8274 24.8506 29.5278C27 30.374 26.928 30.2075 25.9893 32.1657C25.2774 33.6515 24.9021 33.7005 22.0389 32.6824C21.6879 32.5572 20.3031 33.5239 18.9619 34.8302L16.5223 37.2047L18.9501 39.568C21.3381 41.893 21.6755 41.9751 24.5847 40.9393C24.9506 40.8088 25.5799 41.3893 25.9825 42.229C26.9292 44.2043 27.0013 44.0348 24.8506 44.8817C23.0788 45.5791 22.9869 45.7864 22.9869 49.0868V52.5586H26.3894C29.8745 52.5586 29.8639 52.5651 32.037 49.1412C32.0966 49.0473 32.8539 49.2782 33.7206 49.6538C35.1463 50.2709 35.2345 50.5035 34.6493 52.098C34.051 53.7296 34.1964 54.0408 36.613 56.3096L39.2228 58.7592L41.6338 56.2075C43.7187 54.0018 43.9647 53.4556 43.4509 52.1724C42.7527 50.425 43.0167 49.861 44.7325 49.4341C45.6799 49.1985 46.2359 49.5581 46.9485 50.8679C47.8542 52.5332 48.0667 52.6076 51.44 52.4393L54.9804 52.2633L54.7772 49.0154C54.5853 45.9446 53.8845 44.7311 51.9488 44.1181C51.4642 43.9646 51.4822 43.4538 52.0128 42.3477C52.7011 40.9109 52.9055 40.8424 54.7089 41.44C56.5422 42.0477 56.813 41.9408 59.1967 39.6755L61.7332 37.2638L58.9805 34.9418C56.6173 32.9482 56.011 32.6984 54.6909 33.1755C53.4863 33.6108 52.9819 33.5074 52.3588 32.6978C51.1654 31.1465 51.394 30.1815 53.049 29.7865C54.5853 29.4197 55.291 27.6417 55.291 24.1392C55.291 22.4574 55.2562 22.4414 51.5506 22.4414C48.163 22.4414 47.7424 22.5808 47.1019 23.9178C46.3055 25.5801 45.4848 25.7537 43.8386 24.6093C42.8906 23.9502 42.8285 23.6124 43.4515 22.5052C44.1057 21.343 43.9256 20.8741 41.9357 18.5658C40.6933 17.1249 39.4489 15.9456 39.1694 15.9456C38.8904 15.9456 37.6511 17.0091 36.4155 18.3095ZM37.9213 20.3462C36.7304 21.7103 37.3908 23.3272 39.1389 23.3272C40.1236 23.3272 40.7523 22.9463 40.8902 22.2654C41.1051 21.2037 40.0236 19.4888 39.1389 19.4888C38.8811 19.4888 38.3332 19.8744 37.9213 20.3462ZM25.8862 24.6069C25.0301 25.4201 25.519 27.148 26.787 27.7928C28.6755 28.7542 30.2491 27.2584 29.2377 25.4632C28.5593 24.2579 26.7416 23.7931 25.8862 24.6069ZM48.7699 25.9793C48.2779 27.4521 48.8308 28.3467 50.2335 28.3467C51.6319 28.3467 52.8061 27.2147 52.8061 25.8665C52.8061 24.2921 49.3005 24.3902 48.7699 25.9793ZM34.4741 27.086C31.2617 28.4731 28.1313 31.8829 27.6002 34.5721C25.2805 46.3267 40.0354 53.3469 48.0449 44.2988C49.5533 42.5945 50.9355 39.2031 50.9355 37.2047C50.9355 35.1845 49.5459 31.8067 47.9934 30.0528C44.6512 26.2769 39.1458 25.0687 34.4741 27.086ZM21.148 36.2906C20.4976 37.0353 20.4976 37.3742 21.148 38.1189C22.3936 39.5456 24.54 38.9669 24.54 37.2047C24.54 35.4426 22.3936 34.8639 21.148 36.2906ZM53.7559 36.2333C52.2395 37.2874 52.9347 38.9763 54.8847 38.9763C56.9422 38.9763 58.1947 37.51 57.1547 36.3189C56.1968 35.2217 55.2457 35.1975 53.7559 36.2333ZM26.559 46.7005C25.9607 47.0318 25.4718 47.9536 25.4718 48.7496C25.4718 49.8935 25.7924 50.1965 27.0031 50.1965C28.9271 50.1965 30.2628 48.1668 29.1663 46.9107C28.299 45.918 28.0145 45.895 26.559 46.7005ZM48.7463 46.6869C48.5233 47.03 48.5121 47.9601 48.7215 48.7538C48.9973 49.7984 49.5272 50.1965 50.6436 50.1965C51.9295 50.1965 52.1848 49.913 52.1848 48.488C52.1848 46.4129 49.7527 45.1385 48.7463 46.6869ZM37.6896 51.1809C36.9553 51.8789 37.2479 53.5737 38.2382 54.355C39.5813 55.4144 41.3033 53.7999 40.7138 52.0342C40.3162 50.8425 38.5649 50.3482 37.6896 51.1809Z" fill="#D2D2D2"/>
</svg>
