<svg width="79" height="75" viewBox="0 0 79 75" fill="none" xmlns="http://www.w3.org/2000/svg">
<path fill-rule="evenodd" clip-rule="evenodd" d="M36.3621 2.20261C35.0395 3.39989 32.1859 5.94695 30.0217 7.86378C27.8567 9.77977 24.5871 12.8644 22.7555 14.718C16.169 21.3835 3.03138 33.9866 1.47714 35.1308C-0.833768 36.8328 -0.486687 38.2356 2.89672 40.8779C4.55035 42.1687 7.55061 44.9626 9.56414 47.0867C11.5777 49.2108 15.426 52.9383 18.116 55.37C20.8053 57.8025 24.4067 61.2148 26.1181 62.953C27.8294 64.6921 30.4738 67.2114 31.9943 68.5527C33.5149 69.8941 35.6895 71.8935 36.8262 72.9964L38.8934 75L40.9438 73.0849C42.0716 72.0317 44.8923 69.4635 47.2113 67.3782C52.2226 62.873 53.3625 61.7305 53.7248 60.8483C53.8739 60.4835 55.0786 59.3149 56.4012 58.2507C57.7238 57.1865 61.8414 53.4018 65.5511 49.8402C69.2615 46.2787 73.7222 42.0171 75.4648 40.3707L78.6326 37.3754L76.3337 35.1704C75.0697 33.9579 72.5928 31.5583 70.8294 29.8378C69.0659 28.1173 64.3968 23.6585 60.4539 19.9293C56.511 16.1993 52.1489 11.9848 50.7606 10.5625C47.778 7.50738 39.3936 -0.0386091 39.0241 0.000148741C38.8822 0.0144723 37.6846 1.00617 36.3621 2.20261ZM28.2198 30.6627C21.1468 23.7806 21.1355 23.7629 22.6569 21.9834L24.1807 20.2014L27.8575 23.3577C29.879 25.0933 32.105 27.0826 32.8039 27.7778C33.5021 28.4729 35.1974 30.0661 36.5697 31.3173L39.0657 33.594L46.166 26.9992C53.1997 20.4668 53.2831 20.4188 55.0449 21.9177L56.8228 23.4318L51.8026 28.4931C49.0412 31.2769 45.8807 34.3262 44.7785 35.2681L42.7746 36.9819L49.7907 43.9861L56.8068 50.9903L55.1299 52.7521L53.4538 54.5139L51.6279 52.7311C46.6806 47.9007 44.134 45.5845 41.5258 43.5404L38.6746 41.3059L36.2146 43.5994C34.8615 44.8607 31.5807 47.8729 28.9243 50.2935L24.0941 54.6943L22.79 52.6022C21.5203 50.5649 21.5676 50.425 24.5791 47.3218C26.2808 45.5685 29.3909 42.6549 31.4902 40.8467L35.3072 37.5591L28.2198 30.6627ZM15.131 28.6119L13.1952 30.147L17.0644 33.829L20.9343 37.511L17.1758 40.7482C13.4333 43.9718 13.4245 43.9912 15.0372 45.571C15.9278 46.443 16.9586 47.1567 17.3265 47.1567C18.4302 47.1567 27.1441 38.3629 27.1441 37.2481C27.1441 36.6811 26.3452 36.203 25.5409 35.1653C24.7421 34.0966 24.6273 33.9909 23.9378 33.3555C23.2483 32.7201 22.7381 31.9902 19.0996 28.6784C17.1293 27.1264 17.0075 27.1248 15.131 28.6119ZM8.54535 38.9341C7.11696 37.4335 7.00635 36.9221 7.87043 35.8284C9.2347 34.1003 10.5677 34.1737 12.1973 36.0669C13.4453 37.5161 13.4261 37.7141 11.8927 39.1734C10.2952 40.6925 10.2126 40.6866 8.54535 38.9341ZM29.4373 15.0955L27.5448 16.7368L29.5488 18.2214C30.6509 19.037 33.1502 21.2808 35.1028 23.2069L38.6529 26.7094L43.0896 22.9103L43.3459 22.6908C47.9669 18.7349 49.4073 17.5018 49.2723 16.5042C49.2112 16.0525 48.8269 15.649 48.2687 15.0628L48.2004 14.991C46.3119 13.006 44.9164 13.514 41.3085 17.4993L39.0409 20.0043L35.6976 16.7402C33.8588 14.9438 32.1234 13.4702 31.842 13.4643C31.5599 13.4592 30.4778 14.1931 29.4373 15.0955ZM37.4899 11.7269C35.5934 10.6603 35.5629 9.68373 37.364 7.68433C38.7267 6.17277 38.8197 6.17783 40.624 7.88401L42.4804 9.64075L40.7498 11.1135C39.4409 12.2282 38.6457 12.3774 37.4899 11.7269ZM55.2846 32.0369L50.3141 37.008L52.0623 39.4927C53.0234 40.8594 55.3744 43.1587 57.2869 44.602C60.6888 47.1702 60.8098 47.1954 62.877 45.7724C64.889 44.3863 64.9186 44.2633 63.5007 43.1933C60.9284 41.2512 57.6035 37.7756 57.6035 37.0291C57.6035 36.6348 59.0383 35.2454 60.793 33.9411C64.485 31.1952 64.7359 30.1521 62.1348 28.3608C60.3192 27.1104 60.0812 27.2385 55.2846 32.0369ZM66.0015 38.983C65.2521 37.9062 65.2288 37.174 65.9053 36.034C67.0235 34.1526 67.8868 34.1264 69.7705 35.9186C71.1468 37.2279 71.1556 37.4209 69.91 38.8675C68.2531 40.7928 67.28 40.8215 66.0015 38.983ZM33.3225 53.0841L27.9352 58.0342L29.6626 59.726C31.3523 61.38 31.4348 61.3834 33.4748 59.8541C34.6219 58.9947 36.2402 57.5008 37.0714 56.5344L38.5816 54.7777L41.8808 57.4756C43.6948 58.9593 45.3653 60.4405 45.5929 60.7683C45.8205 61.0952 46.9027 60.6377 47.9976 59.7505L49.9887 58.137L45.5801 53.9048C45.3022 53.638 45.0367 53.3824 44.7828 53.1378C41.8491 50.3125 40.4424 48.9578 39.0485 48.9722C37.7644 48.9854 36.4911 50.1606 34.0447 52.4185C33.8147 52.6308 33.5743 52.8527 33.3225 53.0841ZM37.126 66.4918C35.7545 64.8985 35.7585 64.7722 37.2326 63.2867C38.6081 61.9007 38.9535 61.8678 40.5703 62.9708C42.8099 64.4992 42.7954 64.9112 40.4388 66.7109C38.6449 68.0809 38.4846 68.0699 37.126 66.4918Z" fill="#D2D2D2"/>
</svg>
