<svg width="69" height="75" viewBox="0 0 69 75" fill="none" xmlns="http://www.w3.org/2000/svg">
<path d="M0 7.35352V0H69V7.35352H0Z" fill="#D9D9D9"/>
<path d="M0 30H3L4.16406 30.0078C7.35938 30.0332 8.92188 30.0469 10.3281 27.7383C12.3984 24.3457 12.2148 20.1914 9.85547 17.1016C7.58203 14.1172 3.47266 12 0.015625 12V18C1.00391 18 1.69531 18.127 2.22656 18.3262C2.82422 18.5508 3.21875 18.8672 3.61719 19.1934L4 19.5L4.16016 19.7168C4.73828 20.5059 5.59375 21.668 5 23C5 23 4.5 24.5 3.5 24.5C2.5 24.5 1.5 22 1 22H0.015625L0 30Z" fill="#D9D9D9"/>
<path d="M0.015625 41V35C0.386719 35.25 1.48828 36.0957 1.48828 37.8672C1.48828 39.0117 1.04297 39.8809 0.617188 40.4199C0.386719 40.7148 0.125 40.9121 0.015625 41Z" fill="#D9D9D9"/>
<path d="M0 75V67.6465H69V75H0Z" fill="#D9D9D9"/>
<path d="M69 45L68.8594 44.916L68.6719 44.8066L68.625 44.7812C68.293 44.5859 67.8867 44.3457 67.3633 44.1699L67.0352 44.0723C66.7734 44.0078 66.4844 43.9609 66.1641 43.9434C65.7227 43.9199 65.2227 43.9531 64.6523 44.0703C64.1758 44.1699 63.6523 44.3301 63.0703 44.5664C62.6367 44.7441 62.1719 44.9629 61.6758 45.2324C61.5039 45.3262 61.3359 45.4316 61.1758 45.5488C60.8438 45.7891 60.5352 46.0742 60.2578 46.4004C59.8789 46.8398 59.5508 47.3496 59.2812 47.9102C58.75 49.0156 58.4375 50.3125 58.4102 51.6426C58.3945 52.2637 58.4414 52.8926 58.5586 53.5117C58.8164 54.8906 59.3359 56.168 60.0547 57.2695C61.9766 60.2188 65.3359 61.9219 69 61V55.998C68.3906 56 67.8359 55.9473 67.3398 55.8496C67.0352 55.7891 66.7539 55.7129 66.4961 55.6191C65.3828 55.2148 64.6797 54.5156 64.3398 53.627C64.1094 53.0234 64.043 52.334 64.1289 51.5898C64.2148 50.8555 64.4805 50.248 64.8633 49.8555L64.9648 49.7559L65.0664 49.6738C65.125 49.6289 65.1875 49.5898 65.25 49.5547L65.3594 49.498L65.4883 49.4453L65.6289 49.4062L65.6992 49.3906C66.0039 49.332 66.2422 49.3242 66.4219 49.3711L66.4844 49.3906L66.5469 49.418L66.6016 49.4492C66.6367 49.4727 66.668 49.5 66.6914 49.5312L66.7266 49.5684C66.8008 49.668 66.8438 49.8027 66.8555 49.9746C66.8633 50.1191 66.8516 50.2891 66.8203 50.4863C66.6641 51.4336 66.6992 52.0488 66.9961 52.4336C67.3242 52.8555 67.9648 53 69 53V45Z" fill="#D9D9D9"/>
<path d="M69 35C68.8984 35.0527 68.8047 35.1094 68.7148 35.1719L68.582 35.2715L68.4492 35.3828C68.3633 35.4629 68.2812 35.5469 68.207 35.6387C68.1016 35.7637 68.0078 35.9023 67.9258 36.0508C67.6523 36.5625 67.5156 37.2129 67.5156 38C67.5156 39.5 68.2422 41 69 41V35Z" fill="#D9D9D9"/>
<path d="M69 12C66.5234 12 64.9414 12.2637 63.25 13.4199C60.9648 14.9785 59.3008 17.4023 58.5508 20.127C58.2578 21.1855 58.1055 22.291 58.1055 23.4082C58.1055 30.002 64.4141 30 68.9102 30H69V22L68.707 21.9941L68.418 21.9922C68.3555 21.9961 68.3008 22.0039 68.2461 22.0195C68.0547 22.0742 67.8867 22.2227 67.5625 22.6035L66.9023 23.4023C65.2734 25.3867 63.9883 24.9473 63.9883 22.4004C63.9883 20.6562 64.7266 19.209 66.3594 18.4902C67.0703 18.1758 67.9531 18 69 18V12Z" fill="#D9D9D9"/>
<path d="M0.015625 61V56L0.53125 55.998L0.839844 55.9941L1.26172 55.9824C1.70703 55.9648 2.16016 55.9277 2.59375 55.8516C2.96484 55.7871 3.31641 55.6934 3.63281 55.5605C3.96484 55.4219 4.25781 55.2402 4.49219 55C4.875 54.6055 5.1875 53.6699 5.30469 52.6797C5.48828 51.1543 5.20312 49.5 3.99219 49.5C3.3125 49.5 2.86328 49.7207 2.64453 50.3398C2.54297 50.6309 2.49219 51.0117 2.49219 51.5C2.49219 52.9883 1.48828 53 0.015625 53V45C4.74609 42.5352 10.9922 45.3848 10.9922 51C10.9922 55.1602 6.99219 63 0.015625 61Z" fill="#D9D9D9"/>
<path d="M26.6719 15.1543C27.8633 15.1699 28.9297 15.0996 29.6953 14.9746C30.4414 14.8516 30.8984 14.6758 30.8984 14.4746C30.8984 14.2227 31.2344 13.5586 31.7422 12.7598C32.043 12.2832 32.4102 11.7578 32.8047 11.2441C33.0195 10.9609 33.2461 10.6914 33.4648 10.4453L33.7344 10.1523L34.0781 9.81445C34.4219 9.49219 34.7422 9.24805 35 9.11133C35.1211 9.04688 35.2266 9.00586 35.3164 8.99219C35.375 8.98242 35.4258 8.98438 35.4688 8.99805C35.8867 9.13672 36.9883 10.6738 37.918 12.4121C38.3672 13.2539 38.8047 14.0508 39.1562 14.666C39.5273 15.3184 39.8008 15.7656 39.8789 15.8418C40.0273 15.9902 41.5273 15.6348 43.2148 15.0527C43.9609 14.7969 44.6719 14.6113 45.3555 14.498C46.0742 14.3789 46.7656 14.3379 47.4375 14.3809C48.9883 14.4785 50.4336 15.0117 51.8906 16.002C52.0977 16.1445 52.3047 16.2949 52.5156 16.4551L53.0078 16.8516C54.082 17.7461 54.6992 18.4141 55.082 19.3516C55.4258 20.1855 55.582 21.2305 55.7148 22.8359L55.7617 23.498L55.7969 24.1914C55.8086 24.4551 55.8125 24.6992 55.8125 24.9297C55.8125 25.334 55.793 25.6934 55.75 26.0215C55.7266 26.1914 55.6992 26.3535 55.6641 26.5098L55.6211 26.709L55.5469 26.959C55.5 27.1016 55.4453 27.2402 55.3828 27.377C55.1562 27.8906 54.8242 28.3789 54.375 28.9492C53.5312 30.0195 52.1328 31.0742 50.6641 31.8516C49.2539 32.5977 47.7773 33.0879 46.6758 33.0879C46.0234 33.0879 44.5234 32.1211 43.3398 30.9395C39.3047 26.9004 41.4258 21.4141 46.8125 21.9727C47.1562 22.0078 47.4492 22.1914 47.6758 22.4629C48.0664 22.9336 48.2617 23.6699 48.1758 24.3633L48.1289 24.6172C48.1094 24.7129 48.082 24.8086 48.0469 24.9023C47.9688 25.1113 47.8633 25.3066 47.7188 25.4785C46.5781 26.8496 47.5586 27.7227 49.1328 26.7383C50.6719 25.7754 51.168 22.3457 49.9805 20.9121C48.418 19.0293 43.707 19.5977 41.0273 21.9902C38.7617 24.0176 38.6211 24.4414 38.3672 30.0801L38.3555 30.3145C38.2695 32.1934 38.2148 33.4531 38.2461 34.2988C38.2891 35.4512 38.4883 35.8359 38.9766 35.9648C39.1094 36 39.2617 36.0156 39.4414 36.0234L39.9531 36.0293C41.6133 36.0293 42.6875 36.2422 43.332 36.7793C43.9023 37.2559 44.1328 37.9863 44.1328 39.0488C44.1328 40.9902 43.9062 41.1758 41.5586 41.1758H38.9883V46.625C38.9883 51.8086 39.0977 52.168 41.25 53.9785C44.7891 56.959 49.7461 56.3496 50.9844 52.7812C51.0312 52.6445 51.0625 52.5117 51.082 52.3828L51.1016 52.2051C51.1094 52.0898 51.1055 51.9785 51.0938 51.873C51.0859 51.8145 51.0781 51.7578 51.0625 51.7031C51.0508 51.6484 51.0352 51.5957 51.0156 51.5469L50.9688 51.4336C50.9258 51.3418 50.875 51.2617 50.8164 51.1953C50.7227 51.0918 50.6172 51.0195 50.5039 50.9844C50.418 50.959 50.3242 50.9551 50.2305 50.9746C50.1328 50.9961 50.0312 51.0449 49.9336 51.127C49.8789 51.1758 49.8242 51.2344 49.7695 51.3047L49.7344 51.3496L49.6562 51.459C49.2734 52.0781 48.0547 52.291 46.9102 52.127C46.707 52.0977 46.5039 52.0566 46.3086 52.0039L46.0781 51.9336L45.8281 51.8418C45.6875 51.7832 45.5586 51.7188 45.4375 51.6465C45.2773 51.5508 45.1367 51.4434 45.0156 51.3242C44.0547 50.3633 43.9297 48.8027 44.5156 47.5156C44.7852 46.9238 45.207 46.3906 45.7695 45.998C46.4258 45.5371 47.1562 45.2207 47.9219 45.0449L48.2422 44.9785L48.668 44.9199C49.0273 44.8789 49.3945 44.8691 49.7617 44.8867C50.3984 44.9199 51.0391 45.0391 51.6641 45.2422C51.8438 45.3008 52.0195 45.3633 52.1953 45.4355L52.418 45.5293C52.793 45.6973 53.1602 45.8945 53.5156 46.123C53.8086 46.3125 54.0938 46.5234 54.3711 46.7559C54.9102 47.207 55.3242 47.5977 55.6406 47.9863C55.7773 48.1562 55.8984 48.3262 56.0039 48.502C56.1367 48.7285 56.2461 48.9629 56.332 49.2188C56.5664 49.9141 56.6328 50.7559 56.6328 51.9766C56.6328 52.4082 56.6211 52.7949 56.5977 53.1484L56.5664 53.5508C56.5469 53.7285 56.5234 53.8984 56.4922 54.0605C56.3867 54.6465 56.2109 55.1445 55.9297 55.6367C55.8594 55.7598 55.7812 55.8828 55.6992 56.0078C55.6016 56.1523 55.4922 56.2969 55.3711 56.4473C55.0586 56.8398 54.6719 57.2539 54.1992 57.7285C51.2773 60.6484 46.3359 61.7031 41.8555 60.3594C39.0547 59.5195 38.9414 59.5605 36.625 62.1992L34.2539 64.8965L31.9492 62.2285C31.4141 61.6113 30.9961 61.1387 30.6328 60.7891C30.4844 60.6445 30.3438 60.5215 30.2109 60.418C30.0664 60.3027 29.9258 60.2109 29.7852 60.1406C29.1172 59.8027 28.4883 59.9629 27.2891 60.3809C27.0117 60.4766 26.7266 60.5547 26.4336 60.6172L26.2109 60.6602L26.0117 60.6934L25.5742 60.7461L25.2422 60.7715C24.9375 60.7891 24.625 60.7891 24.3125 60.7734C23.9375 60.7559 23.5547 60.7168 23.1719 60.6562C20.6016 60.25 17.9609 58.8848 16.1836 56.8613C15.2773 55.8301 14.7266 55.0312 14.4023 54.1191C14.2852 53.7871 14.1953 53.4395 14.1328 53.0625C14.0273 52.4336 13.9883 51.7168 13.9883 50.8379C13.9883 46.9727 15.4922 44.8984 19.3633 43.4316C22.5117 42.2402 23.957 42.4688 26.4297 44.5508C28.5625 46.3457 29.2578 48.6367 28.4336 50.1543C28.3555 50.3008 28.2617 50.4414 28.1523 50.5723C28.0898 50.6504 28.0195 50.7266 27.9453 50.7988L27.7773 50.9492L27.6016 51.0801L27.3672 51.2266L27.2305 51.3027C27.1133 51.3633 26.9883 51.4199 26.8594 51.4688C25.5234 51.9785 24.3906 51.9805 23.6641 51.5547C23.1211 51.2383 22.8086 50.6836 22.8086 49.9219C22.8086 49.7617 22.793 49.6152 22.7656 49.4824C22.7383 49.3613 22.6992 49.252 22.6523 49.1543C22.6016 49.0469 22.5391 48.9531 22.4648 48.875C22.4102 48.8203 22.3555 48.7734 22.2969 48.7344C22.2422 48.6973 22.1836 48.666 22.1211 48.6406C21.9727 48.5801 21.8047 48.5547 21.625 48.5625C21.4297 48.5723 21.2188 48.623 21 48.7168C20.6797 48.8535 20.3438 49.084 20.0156 49.4121C18.7148 50.7129 18.9414 52.5391 20.5898 54.0293C21.043 54.4375 21.6562 54.7148 22.3672 54.873C23.3672 55.0938 24.5547 55.0781 25.7266 54.8496C26.7344 54.6523 27.7344 54.2969 28.5977 53.7988C28.7227 53.7285 28.8438 53.6562 28.9609 53.5801C29.0977 53.4902 29.2305 53.3965 29.3594 53.2988C29.5391 53.1641 29.707 53.0215 29.8672 52.873C31.3711 51.4609 31.6328 50.5234 31.6328 46.5625C31.6328 42.2324 31.5195 41.9102 29.9805 41.9004C29.0781 41.8945 28.3672 41.7656 27.832 41.502C27.3984 41.2891 27.0781 40.9883 26.8711 40.5938C26.5977 40.0723 26.5156 39.3867 26.6133 38.5234C26.7227 37.543 26.8984 36.9844 27.3867 36.6289C27.6055 36.4688 27.8867 36.3496 28.2539 36.25C28.5742 36.1641 28.9609 36.0957 29.4258 36.0293L32 35.6621L32.2148 30.0527C32.4219 24.5684 32.3789 24.4023 30.1367 22.5156C26.1992 19.2031 20.6055 20.3887 20.6055 24.5371C20.6055 24.9551 20.6602 25.3438 20.7617 25.6973C20.875 26.084 21.0469 26.4297 21.2656 26.7246C21.8359 27.4941 22.75 27.9297 23.875 27.8945C25.2969 27.8516 25.2891 27.8105 23.7305 27.1836C22.4727 26.6777 22.0273 25.7402 22.2109 24.8613C22.3008 24.4277 22.543 24.0078 22.9141 23.6602C23.4688 23.1465 24.3086 22.7949 25.3672 22.7949C28.0078 22.7949 29.6602 24.4551 30.0625 26.4316C30.4688 28.4336 29.5938 30.7578 27.168 32.0117C25.7617 32.7402 24.207 33.041 22.6836 32.959C20.0234 32.8145 17.4453 31.5039 15.8711 29.252C15.5156 28.7422 15.2461 28.1133 15.0625 27.4121C14.9336 26.9238 14.8477 26.4023 14.8047 25.8613C14.6992 24.5781 14.8281 23.1855 15.1797 21.8945L15.3086 21.4492C15.3711 21.2539 15.4414 21.0605 15.5156 20.873C15.6211 20.6016 15.7383 20.3359 15.8633 20.082C15.9648 19.873 16.0781 19.6699 16.1992 19.4746C18.082 16.4277 21.332 15.0859 26.6719 15.1543Z" fill="#D9D9D9"/>
</svg>
