<svg width="78" height="75" viewBox="0 0 78 75" fill="none" xmlns="http://www.w3.org/2000/svg">
<path fill-rule="evenodd" clip-rule="evenodd" d="M36.9416 2.32977L36.9408 2.33063C34.8279 4.55972 30.7999 8.80938 23.9759 15.992C22.9753 17.0452 21.4236 16.9318 20.3103 16.1339C17.5035 14.1223 14.265 14.4927 11.6069 16.1224C8.94374 17.7552 6.89874 20.6316 6.48222 23.5663C6.02405 26.7945 7.32059 29.7088 8.87024 31.8366C9.44592 32.627 9.68353 33.6891 9.60468 34.703C9.52582 35.7169 9.12828 36.7072 8.40467 37.3439C4.403 40.8651 -0.199476 47.4015 0.438635 56.5974C0.952118 63.9973 4.79686 67.9466 8.39143 69.9769C10.1912 70.9934 11.9268 71.5274 13.1456 71.7682C13.6754 71.8729 14.103 71.9214 14.393 71.9311C14.2985 71.8384 14.1959 71.7279 14.0877 71.6027C13.8359 71.3114 13.5408 70.925 13.2283 70.4593C12.6034 69.5278 11.9046 68.2718 11.3429 66.8115C10.2206 63.8938 9.63589 60.1309 11.325 56.5179C13.0066 52.9207 15.9928 50.6881 19.4318 50.4757C22.8704 50.2634 26.7273 52.0718 30.1583 56.4776C32.9359 60.0441 32.8882 63.8947 31.7088 67.2348C30.8586 69.6424 29.4197 71.7915 28.0219 73.4004C29.3926 72.544 31.086 71.6872 32.7256 71.0981C33.9608 70.6543 35.1775 70.3579 36.2099 70.3333C37.2109 70.3095 38.0839 70.5408 38.6092 71.2011C39.1439 70.72 39.9274 70.533 40.8121 70.5331C41.8639 70.5331 43.1069 70.7966 44.3692 71.2084C46.0728 71.764 47.8336 72.597 49.2379 73.4453C47.8235 71.83 46.3589 69.657 45.498 67.219C44.3185 63.8789 44.2709 60.0282 47.0484 56.4617C50.4795 52.056 54.3364 50.2476 57.7749 50.4599C61.2139 50.6723 64.2002 52.9049 65.8818 56.502C67.5709 60.1151 66.9862 63.8779 65.8639 66.7957C65.3022 68.256 64.6033 69.512 63.9784 70.4434C63.666 70.9092 63.3708 71.2956 63.1191 71.5868C63.0109 71.7121 62.9082 71.8226 62.8138 71.9153C63.1037 71.9056 63.5314 71.8571 64.0612 71.7524C65.2799 71.5116 67.0155 70.9776 68.8153 69.9611C72.4099 67.9308 76.2546 63.9815 76.7681 56.5816C77.4062 47.3857 72.8038 40.8493 68.8021 37.3281C68.0785 36.6914 67.6809 35.7011 67.6021 34.6871C67.5232 33.6733 67.7608 32.6112 68.3365 31.8207C69.8862 29.6929 71.1827 26.7787 70.7245 23.5505C70.308 20.6158 68.263 17.7393 65.5999 16.1066C62.9417 14.4769 59.7033 14.1064 56.8965 16.1181C55.7832 16.9159 54.2313 17.0292 53.2307 15.9761C49.9013 12.4724 47.2515 9.68337 45.1705 7.49309L45.1424 7.46346C40.9191 3.01836 39.0485 1.04953 38.5997 0.581517C38.3079 0.888269 37.7732 1.45247 36.9416 2.32977ZM38.3541 71.5147L38.3638 71.5059L38.6386 71.7544C39.0481 71.2056 39.8033 70.9502 40.8121 70.9502C41.813 70.9502 43.0169 71.2024 44.2616 71.6083C46.7521 72.4206 49.3569 73.8324 50.7428 74.9842L50.9773 74.6567C49.2493 73.0915 46.9965 70.3113 45.8512 67.0679C44.7098 63.8357 44.67 60.1566 47.3361 56.7332C50.7095 52.4016 54.4596 50.673 57.7537 50.8764C61.0473 51.0798 63.9194 53.2159 65.5449 56.6929C67.1629 60.154 66.6135 63.7773 65.515 66.633C64.9663 68.0595 64.2831 69.2871 63.6736 70.1956C63.3689 70.6498 63.0838 71.0225 62.8446 71.2993C62.6006 71.5816 62.417 71.7493 62.3149 71.8106C62.2912 71.8248 62.2641 71.8436 62.2397 71.8685C62.2175 71.891 62.1801 71.9362 62.1673 72.0056C62.152 72.0887 62.1797 72.1611 62.2181 72.2082C62.2505 72.2481 62.2888 72.2693 62.313 72.2805C62.3631 72.3036 62.4229 72.3154 62.479 72.3224C62.5387 72.3299 62.6093 72.3337 62.6887 72.3342C63.0048 72.3363 63.5044 72.2863 64.1281 72.163C65.3779 71.916 67.1502 71.3704 68.9883 70.3322C72.6694 68.253 76.62 64.1921 77.1459 56.6134C77.7969 47.2323 73.0986 40.5747 69.0387 37.0023C68.4125 36.4513 68.0515 35.5767 67.9796 34.6516C67.9076 33.7264 68.1269 32.7754 68.6321 32.0817C70.2152 29.908 71.5802 26.8774 71.0989 23.4861C70.6607 20.3988 68.5266 17.4235 65.7842 15.7421C63.0369 14.0577 59.6434 13.6516 56.6898 15.7685C55.6744 16.4961 54.3278 16.5537 53.4925 15.6746C50.1636 12.1714 47.5137 9.38224 45.4323 7.19154L45.4247 7.18357C40.7274 2.23947 38.9293 0.346883 38.7595 0.174348L38.7557 0.178906L38.6057 0C38.514 0.0931821 37.9271 0.71232 36.6593 2.04988L36.6587 2.05044C34.5382 4.28767 30.5129 8.53428 23.7141 15.6905C22.8788 16.5696 21.5323 16.512 20.517 15.7843C17.5634 13.6675 14.1699 14.0736 11.4225 15.758C8.68013 17.4393 6.54605 20.4146 6.10786 23.5019C5.62654 26.8932 6.99159 29.9239 8.57462 32.0975C9.07986 32.7912 9.29911 33.7422 9.22716 34.6674C9.15521 35.5925 8.79429 36.4671 8.1681 37.0181C4.10812 40.5906 -0.590124 47.2481 0.0608357 56.6292C0.58673 64.2079 4.53736 68.2688 8.21847 70.348C10.0565 71.3862 11.8288 71.9318 13.0786 72.1788C13.7024 72.3021 14.202 72.3522 14.518 72.3501C14.5975 72.3495 14.6681 72.3457 14.7277 72.3382C14.7838 72.3312 14.8436 72.3195 14.8938 72.2963C14.918 72.2851 14.9563 72.2639 14.9887 72.2241C15.027 72.1769 15.0547 72.1045 15.0394 72.0214C15.0267 71.952 14.9893 71.9069 14.9671 71.8843C14.9427 71.8595 14.9155 71.8406 14.8918 71.8264C14.7897 71.7651 14.6061 71.5974 14.3622 71.3151C14.123 71.0383 13.8378 70.6656 13.5331 70.2114C12.9236 69.3029 12.2405 68.0753 11.6918 66.6488C10.5933 63.7931 10.0438 60.1699 11.6619 56.7088C13.2874 53.2317 16.1594 51.0956 19.4531 50.8922C22.7472 50.6888 26.4973 52.4174 29.8707 56.7491C32.5368 60.1725 32.4969 63.8515 31.3556 67.0837C30.2103 70.3271 27.9575 73.1073 26.2295 74.6725L26.464 75C27.8529 73.8457 30.4066 72.3701 32.8431 71.4946C34.0613 71.057 35.2381 70.7737 36.2181 70.7503C37.2053 70.7268 37.9457 70.9673 38.3541 71.5147ZM46.4804 33.9181C46.4804 38.6804 42.9736 42.541 38.6478 42.541C34.322 42.541 30.8152 38.6804 30.8152 33.9181C30.8152 29.1558 34.322 25.2952 38.6478 25.2952C42.9736 25.2952 46.4804 29.1558 46.4804 33.9181ZM46.8593 33.9181C46.8593 38.9108 43.1829 42.9582 38.6478 42.9582C34.1127 42.9582 30.4363 38.9108 30.4363 33.9181C30.4363 28.9254 34.1127 24.8781 38.6478 24.8781C43.1829 24.8781 46.8593 28.9254 46.8593 33.9181Z" fill="#D2D2D2"/>
<path fill-rule="evenodd" clip-rule="evenodd" d="M23.9759 15.992C30.7999 8.80938 34.8279 4.55972 36.9408 2.33063L36.9416 2.32977C37.7732 1.45247 38.3079 0.888269 38.5997 0.581517C39.0485 1.04953 40.9191 3.01836 45.1424 7.46346L45.1705 7.49309C47.2515 9.68337 49.9013 12.4724 53.2307 15.9761C54.2313 17.0292 55.7832 16.9159 56.8965 16.1181C59.7033 14.1064 62.9417 14.4769 65.5999 16.1066C68.263 17.7393 70.308 20.6158 70.7245 23.5505C71.1827 26.7787 69.8862 29.6929 68.3365 31.8207C67.7608 32.6112 67.5232 33.6733 67.6021 34.6871C67.6809 35.7011 68.0785 36.6914 68.8021 37.3281C72.8038 40.8493 77.4062 47.3857 76.7681 56.5816C76.2546 63.9815 72.4099 67.9308 68.8153 69.9611C67.0155 70.9776 65.2799 71.5116 64.0612 71.7524C63.5314 71.8571 63.1037 71.9056 62.8138 71.9153C62.9082 71.8226 63.0109 71.7121 63.1191 71.5868C63.3708 71.2956 63.666 70.9092 63.9784 70.4434C64.6033 69.512 65.3022 68.256 65.8639 66.7957C66.9862 63.8779 67.5709 60.1151 65.8818 56.502C64.2002 52.9049 61.2139 50.6723 57.7749 50.4599C54.3364 50.2476 50.4795 52.056 47.0484 56.4617C44.2709 60.0282 44.3185 63.8789 45.498 67.219C46.3589 69.657 47.8235 71.83 49.2379 73.4453C47.8336 72.597 46.0728 71.764 44.3692 71.2084C43.1069 70.7966 41.8639 70.5331 40.8121 70.5331C39.9274 70.533 39.1439 70.72 38.6092 71.2011C38.0839 70.5408 37.2109 70.3095 36.2099 70.3333C35.1775 70.3579 33.9608 70.6543 32.7256 71.0981C31.086 71.6872 29.3926 72.544 28.0219 73.4004C29.4197 71.7915 30.8586 69.6424 31.7088 67.2348C32.8882 63.8947 32.9359 60.0441 30.1583 56.4776C26.7273 52.0718 22.8704 50.2634 19.4318 50.4757C15.9928 50.6881 13.0066 52.9207 11.325 56.5179C9.63589 60.1309 10.2206 63.8938 11.3429 66.8115C11.9046 68.2718 12.6034 69.5278 13.2283 70.4593C13.5408 70.925 13.8359 71.3114 14.0877 71.6027C14.1959 71.7279 14.2985 71.8384 14.393 71.9311C14.103 71.9214 13.6754 71.8729 13.1456 71.7682C11.9268 71.5274 10.1912 70.9934 8.39143 69.9769C4.79686 67.9466 0.952118 63.9973 0.438635 56.5974C-0.199476 47.4015 4.403 40.8651 8.40467 37.3439C9.12828 36.7072 9.52582 35.7169 9.60468 34.703C9.68353 33.6891 9.44592 32.627 8.87024 31.8366C7.32059 29.7088 6.02405 26.7945 6.48222 23.5663C6.89874 20.6316 8.94374 17.7552 11.6069 16.1224C14.265 14.4927 17.5035 14.1223 20.3103 16.1339C21.4236 16.9318 22.9753 17.0452 23.9759 15.992ZM46.8593 33.9181C46.8593 38.9108 43.1829 42.9582 38.6478 42.9582C34.1127 42.9582 30.4363 38.9108 30.4363 33.9181C30.4363 28.9254 34.1127 24.8781 38.6478 24.8781C43.1829 24.8781 46.8593 28.9254 46.8593 33.9181Z" fill="#D2D2D2"/>
</svg>
