<svg width="75" height="75" viewBox="0 0 75 75" fill="none" xmlns="http://www.w3.org/2000/svg">
<path fill-rule="evenodd" clip-rule="evenodd" d="M35.8896 1.38037C35.8896 2.60752 35.7364 2.76074 34.5092 2.76074C33.2821 2.76074 33.1288 2.91396 33.1288 4.1411C33.1288 5.36825 32.9756 5.52147 31.7485 5.52147C30.5213 5.52147 30.3681 5.67469 30.3681 6.90184C30.3681 8.12899 30.2149 8.28221 28.9877 8.28221C27.7606 8.28221 27.6074 8.43543 27.6074 9.66258C27.6074 10.8897 27.4541 11.0429 26.227 11.0429C24.9561 11.0429 24.8466 11.1709 24.8466 12.6534C24.8466 14.1359 24.9561 14.2638 26.227 14.2638C27.4541 14.2638 27.6074 14.417 27.6074 15.6442C27.6074 16.8713 27.7606 17.0245 28.9877 17.0245C30.2149 17.0245 30.3681 17.1778 30.3681 18.4049C30.3681 19.6321 30.5213 19.7853 31.7485 19.7853C32.914 19.7853 33.1288 19.9643 33.1288 20.9356C33.1288 21.9069 32.914 22.0859 31.7485 22.0859C30.5213 22.0859 30.3681 22.2391 30.3681 23.4663C30.3681 24.6317 30.1891 24.8466 29.2178 24.8466C28.2465 24.8466 28.0675 24.6317 28.0675 23.4663C28.0675 22.2391 27.9143 22.0859 26.6871 22.0859C25.46 22.0859 25.3067 21.9327 25.3067 20.7055C25.3067 19.4784 25.1535 19.3252 23.9264 19.3252C22.6992 19.3252 22.546 19.1719 22.546 17.9448C22.546 16.6739 22.4181 16.5644 20.9356 16.5644C19.4531 16.5644 19.3252 16.6739 19.3252 17.9448C19.3252 19.1719 19.1719 19.3252 17.9448 19.3252C16.7176 19.3252 16.5644 19.4784 16.5644 20.7055C16.5644 21.9327 16.4112 22.0859 15.184 22.0859C13.9569 22.0859 13.8037 22.2391 13.8037 23.4663C13.8037 24.6934 13.6505 24.8466 12.4233 24.8466C11.1962 24.8466 11.0429 24.9998 11.0429 26.227C11.0429 27.4541 10.8897 27.6074 9.66258 27.6074C8.39172 27.6074 8.28221 27.7353 8.28221 29.2178C8.28221 30.7003 8.39172 30.8282 9.66258 30.8282C10.8897 30.8282 11.0429 30.9814 11.0429 32.2086C11.0429 33.4357 11.1962 33.589 12.4233 33.589C13.6505 33.589 13.8037 33.7422 13.8037 34.9693C13.8037 36.1965 13.9569 36.3497 15.184 36.3497C16.4112 36.3497 16.5644 36.5029 16.5644 37.7301C16.5644 38.9572 16.7176 39.1104 17.9448 39.1104C19.1719 39.1104 19.3252 39.2637 19.3252 40.4908C19.3252 41.7617 19.4531 41.8712 20.9356 41.8712C22.4181 41.8712 22.546 41.7617 22.546 40.4908C22.546 39.2637 22.6992 39.1104 23.9264 39.1104C25.1972 39.1104 25.3067 38.9825 25.3067 37.5C25.3067 36.0175 25.1972 35.8896 23.9264 35.8896C22.6992 35.8896 22.546 35.7364 22.546 34.5092C22.546 33.2821 22.3928 33.1288 21.1656 33.1288C19.9385 33.1288 19.7853 32.9756 19.7853 31.7485C19.7853 30.5213 19.6321 30.3681 18.4049 30.3681C17.2394 30.3681 17.0245 30.1891 17.0245 29.2178C17.0245 28.2465 17.2394 28.0675 18.4049 28.0675C19.6321 28.0675 19.7853 27.9143 19.7853 26.6871C19.7853 25.5216 19.9643 25.3067 20.9356 25.3067C21.9069 25.3067 22.0859 25.5216 22.0859 26.6871C22.0859 27.9143 22.2391 28.0675 23.4663 28.0675C24.6934 28.0675 24.8466 28.2207 24.8466 29.4479C24.8466 30.675 24.9998 30.8282 26.227 30.8282C27.4541 30.8282 27.6074 30.9814 27.6074 32.2086C27.6074 33.4357 27.7606 33.589 28.9877 33.589C30.2149 33.589 30.3681 33.7422 30.3681 34.9693C30.3681 36.1965 30.5213 36.3497 31.7485 36.3497C32.914 36.3497 33.1288 36.5287 33.1288 37.5C33.1288 38.4713 32.914 38.6503 31.7485 38.6503C30.5213 38.6503 30.3681 38.8035 30.3681 40.0307C30.3681 41.2578 30.2149 41.411 28.9877 41.411C27.7606 41.411 27.6074 41.5643 27.6074 42.7914C27.6074 44.0186 27.4541 44.1718 26.227 44.1718C24.9998 44.1718 24.8466 44.325 24.8466 45.5521C24.8466 46.7793 24.6934 46.9325 23.4663 46.9325C22.2391 46.9325 22.0859 47.0857 22.0859 48.3129C22.0859 49.54 21.9327 49.6933 20.7055 49.6933C19.4784 49.6933 19.3252 49.8465 19.3252 51.0736C19.3252 52.3008 19.1719 52.454 17.9448 52.454C16.7176 52.454 16.5644 52.6072 16.5644 53.8344C16.5644 55.0615 16.4112 55.2147 15.184 55.2147C13.9569 55.2147 13.8037 55.3679 13.8037 56.5951C13.8037 57.8222 13.6505 57.9755 12.4233 57.9755C11.1962 57.9755 11.0429 58.1287 11.0429 59.3558C11.0429 60.583 10.8897 60.7362 9.66258 60.7362C8.43543 60.7362 8.28221 60.8894 8.28221 62.1166C8.28221 63.3437 8.12899 63.4969 6.90184 63.4969C5.67469 63.4969 5.52147 63.6502 5.52147 64.8773C5.52147 66.1044 5.36825 66.2577 4.1411 66.2577C2.91396 66.2577 2.76074 66.4109 2.76074 67.638C2.76074 68.8652 2.60752 69.0184 1.38037 69.0184C0.109509 69.0184 0 69.1463 0 70.6288C0 72.1114 0.109509 72.2393 1.38037 72.2393C2.60752 72.2393 2.76074 72.3925 2.76074 73.6196C2.76074 74.8468 2.91396 75 4.1411 75C5.36825 75 5.52147 74.8468 5.52147 73.6196C5.52147 72.3925 5.67469 72.2393 6.90184 72.2393C8.12899 72.2393 8.28221 72.086 8.28221 70.8589C8.28221 69.6317 8.43543 69.4785 9.66258 69.4785C10.8897 69.4785 11.0429 69.3253 11.0429 68.0982C11.0429 66.871 11.1962 66.7178 12.4233 66.7178C13.6505 66.7178 13.8037 66.871 13.8037 68.0982C13.8037 69.3253 13.9569 69.4785 15.184 69.4785C16.4112 69.4785 16.5644 69.6317 16.5644 70.8589C16.5644 72.086 16.7176 72.2393 17.9448 72.2393C19.1719 72.2393 19.3252 72.3925 19.3252 73.6196C19.3252 74.8468 19.4784 75 20.7055 75C21.9327 75 22.0859 74.8468 22.0859 73.6196C22.0859 72.3925 22.2391 72.2393 23.4663 72.2393C24.6934 72.2393 24.8466 72.086 24.8466 70.8589C24.8466 69.6317 24.9998 69.4785 26.227 69.4785C27.4541 69.4785 27.6074 69.3253 27.6074 68.0982C27.6074 66.871 27.7606 66.7178 28.9877 66.7178C30.2149 66.7178 30.3681 66.5646 30.3681 65.3374C30.3681 64.1103 30.5213 63.9571 31.7485 63.9571C32.9756 63.9571 33.1288 63.8038 33.1288 62.5767C33.1288 61.3058 33.2567 61.1963 34.7393 61.1963C36.2218 61.1963 36.3497 61.0868 36.3497 59.816C36.3497 58.6505 36.5287 58.4356 37.5 58.4356C38.4713 58.4356 38.6503 58.6505 38.6503 59.816C38.6503 61.0868 38.7782 61.1963 40.2607 61.1963C41.7433 61.1963 41.8712 61.3058 41.8712 62.5767C41.8712 63.8038 42.0244 63.9571 43.2515 63.9571C44.4787 63.9571 44.6319 64.1103 44.6319 65.3374C44.6319 66.5646 44.7851 66.7178 46.0123 66.7178C47.2394 66.7178 47.3926 66.871 47.3926 68.0982C47.3926 69.3253 47.5459 69.4785 48.773 69.4785C50.0002 69.4785 50.1534 69.6317 50.1534 70.8589C50.1534 72.086 50.3066 72.2393 51.5337 72.2393C52.7609 72.2393 52.9141 72.3925 52.9141 73.6196C52.9141 74.8468 53.0673 75 54.2945 75C55.5216 75 55.6748 74.8468 55.6748 73.6196C55.6748 72.3925 55.8281 72.2393 57.0552 72.2393C58.2824 72.2393 58.4356 72.086 58.4356 70.8589C58.4356 69.6317 58.5888 69.4785 59.816 69.4785C61.0431 69.4785 61.1963 69.3253 61.1963 68.0982C61.1963 66.871 61.3495 66.7178 62.5767 66.7178C63.8038 66.7178 63.9571 66.871 63.9571 68.0982C63.9571 69.3253 64.1103 69.4785 65.3374 69.4785C66.5646 69.4785 66.7178 69.6317 66.7178 70.8589C66.7178 72.086 66.871 72.2393 68.0982 72.2393C69.3253 72.2393 69.4785 72.3925 69.4785 73.6196C69.4785 74.8468 69.6317 75 70.8589 75C72.086 75 72.2393 74.8468 72.2393 73.6196C72.2393 72.3925 72.3925 72.2393 73.6196 72.2393C74.8905 72.2393 75 72.1114 75 70.6288C75 69.1463 74.8905 69.0184 73.6196 69.0184C72.3925 69.0184 72.2393 68.8652 72.2393 67.638C72.2393 66.4109 72.086 66.2577 70.8589 66.2577C69.6317 66.2577 69.4785 66.1044 69.4785 64.8773C69.4785 63.6502 69.3253 63.4969 68.0982 63.4969C66.871 63.4969 66.7178 63.3437 66.7178 62.1166C66.7178 60.8894 66.5646 60.7362 65.3374 60.7362C64.1103 60.7362 63.9571 60.583 63.9571 59.3558C63.9571 58.1287 63.8038 57.9755 62.5767 57.9755C61.3495 57.9755 61.1963 57.8222 61.1963 56.5951C61.1963 55.3679 61.0431 55.2147 59.816 55.2147C58.5888 55.2147 58.4356 55.0615 58.4356 53.8344C58.4356 52.6072 58.2824 52.454 57.0552 52.454C55.8281 52.454 55.6748 52.3008 55.6748 51.0736C55.6748 49.8465 55.5216 49.6933 54.2945 49.6933C53.0673 49.6933 52.9141 49.54 52.9141 48.3129C52.9141 47.0857 52.7609 46.9325 51.5337 46.9325C50.3066 46.9325 50.1534 46.7793 50.1534 45.5521C50.1534 44.325 50.0002 44.1718 48.773 44.1718C47.5459 44.1718 47.3926 44.0186 47.3926 42.7914C47.3926 41.5643 47.2394 41.411 46.0123 41.411C44.7851 41.411 44.6319 41.2578 44.6319 40.0307C44.6319 38.8035 44.4787 38.6503 43.2515 38.6503C42.086 38.6503 41.8712 38.4713 41.8712 37.5C41.8712 36.5287 42.086 36.3497 43.2515 36.3497C44.4787 36.3497 44.6319 36.1965 44.6319 34.9693C44.6319 33.7422 44.7851 33.589 46.0123 33.589C47.2394 33.589 47.3926 33.4357 47.3926 32.2086C47.3926 30.9814 47.5459 30.8282 48.773 30.8282C50.0002 30.8282 50.1534 30.675 50.1534 29.4479C50.1534 28.2207 50.3066 28.0675 51.5337 28.0675C52.7609 28.0675 52.9141 27.9143 52.9141 26.6871C52.9141 25.5216 53.0931 25.3067 54.0644 25.3067C55.0357 25.3067 55.2147 25.5216 55.2147 26.6871C55.2147 27.9143 55.3679 28.0675 56.5951 28.0675C57.7606 28.0675 57.9755 28.2465 57.9755 29.2178C57.9755 30.1891 57.7606 30.3681 56.5951 30.3681C55.3679 30.3681 55.2147 30.5213 55.2147 31.7485C55.2147 32.9756 55.0615 33.1288 53.8344 33.1288C52.6072 33.1288 52.454 33.2821 52.454 34.5092C52.454 35.7364 52.3008 35.8896 51.0736 35.8896C49.8028 35.8896 49.6933 36.0175 49.6933 37.5C49.6933 38.9825 49.8028 39.1104 51.0736 39.1104C52.3008 39.1104 52.454 39.2637 52.454 40.4908C52.454 41.7617 52.5819 41.8712 54.0644 41.8712C55.5469 41.8712 55.6748 41.7617 55.6748 40.4908C55.6748 39.2637 55.8281 39.1104 57.0552 39.1104C58.2824 39.1104 58.4356 38.9572 58.4356 37.7301C58.4356 36.5029 58.5888 36.3497 59.816 36.3497C61.0431 36.3497 61.1963 36.1965 61.1963 34.9693C61.1963 33.7422 61.3495 33.589 62.5767 33.589C63.8038 33.589 63.9571 33.4357 63.9571 32.2086C63.9571 30.9814 64.1103 30.8282 65.3374 30.8282C66.6083 30.8282 66.7178 30.7003 66.7178 29.2178C66.7178 27.7353 66.6083 27.6074 65.3374 27.6074C64.1103 27.6074 63.9571 27.4541 63.9571 26.227C63.9571 24.9998 63.8038 24.8466 62.5767 24.8466C61.3495 24.8466 61.1963 24.6934 61.1963 23.4663C61.1963 22.2391 61.0431 22.0859 59.816 22.0859C58.5888 22.0859 58.4356 21.9327 58.4356 20.7055C58.4356 19.4784 58.2824 19.3252 57.0552 19.3252C55.8281 19.3252 55.6748 19.1719 55.6748 17.9448C55.6748 16.6739 55.5469 16.5644 54.0644 16.5644C52.5819 16.5644 52.454 16.6739 52.454 17.9448C52.454 19.1719 52.3008 19.3252 51.0736 19.3252C49.8465 19.3252 49.6933 19.4784 49.6933 20.7055C49.6933 21.9327 49.54 22.0859 48.3129 22.0859C47.0857 22.0859 46.9325 22.2391 46.9325 23.4663C46.9325 24.6317 46.7535 24.8466 45.7822 24.8466C44.8109 24.8466 44.6319 24.6317 44.6319 23.4663C44.6319 22.2391 44.4787 22.0859 43.2515 22.0859C42.086 22.0859 41.8712 21.9069 41.8712 20.9356C41.8712 19.9643 42.086 19.7853 43.2515 19.7853C44.4787 19.7853 44.6319 19.6321 44.6319 18.4049C44.6319 17.1778 44.7851 17.0245 46.0123 17.0245C47.2394 17.0245 47.3926 16.8713 47.3926 15.6442C47.3926 14.417 47.5459 14.2638 48.773 14.2638C50.0439 14.2638 50.1534 14.1359 50.1534 12.6534C50.1534 11.1709 50.0439 11.0429 48.773 11.0429C47.5459 11.0429 47.3926 10.8897 47.3926 9.66258C47.3926 8.43543 47.2394 8.28221 46.0123 8.28221C44.7851 8.28221 44.6319 8.12899 44.6319 6.90184C44.6319 5.67469 44.4787 5.52147 43.2515 5.52147C42.0244 5.52147 41.8712 5.36825 41.8712 4.1411C41.8712 2.91396 41.7179 2.76074 40.4908 2.76074C39.2637 2.76074 39.1104 2.60752 39.1104 1.38037C39.1104 0.109509 38.9825 0 37.5 0C36.0175 0 35.8896 0.109509 35.8896 1.38037ZM38.6503 9.66258C38.6503 10.9334 38.7782 11.0429 40.2607 11.0429C41.7943 11.0429 41.8712 11.1198 41.8712 12.6534C41.8712 14.187 41.7943 14.2638 40.2607 14.2638C38.7782 14.2638 38.6503 14.3733 38.6503 15.6442C38.6503 16.8713 38.4971 17.0245 37.2699 17.0245C35.9991 17.0245 35.8896 16.8966 35.8896 15.4141C35.8896 14.0029 35.7469 13.8037 34.7393 13.8037C33.819 13.8037 33.589 13.5736 33.589 12.6534C33.589 11.7331 33.819 11.5031 34.7393 11.5031C35.7469 11.5031 35.8896 11.3038 35.8896 9.89264C35.8896 8.41012 35.9991 8.28221 37.2699 8.28221C38.4971 8.28221 38.6503 8.43543 38.6503 9.66258ZM38.6503 26.4571C38.6503 27.9906 38.7271 28.0675 40.2607 28.0675C41.7433 28.0675 41.8712 28.177 41.8712 29.4479C41.8712 30.7187 41.7433 30.8282 40.2607 30.8282C38.7782 30.8282 38.6503 30.9377 38.6503 32.2086C38.6503 33.4357 38.4971 33.589 37.2699 33.589C36.0428 33.589 35.8896 33.4357 35.8896 32.2086C35.8896 30.9814 35.7364 30.8282 34.5092 30.8282C33.2821 30.8282 33.1288 30.675 33.1288 29.4479C33.1288 28.2207 33.2821 28.0675 34.5092 28.0675C35.7801 28.0675 35.8896 27.9396 35.8896 26.4571C35.8896 24.9745 35.9991 24.8466 37.2699 24.8466C38.5408 24.8466 38.6503 24.9745 38.6503 26.4571ZM38.6503 43.2515C38.6503 44.5224 38.7782 44.6319 40.2607 44.6319C41.7433 44.6319 41.8712 44.7414 41.8712 46.0123C41.8712 47.2831 41.7433 47.3926 40.2607 47.3926C38.7782 47.3926 38.6503 47.5021 38.6503 48.773C38.6503 49.9385 38.4713 50.1534 37.5 50.1534C36.5287 50.1534 36.3497 49.9385 36.3497 48.773C36.3497 47.5021 36.2218 47.3926 34.7393 47.3926C33.2567 47.3926 33.1288 47.2831 33.1288 46.0123C33.1288 44.7414 33.2567 44.6319 34.7393 44.6319C36.2218 44.6319 36.3497 44.5224 36.3497 43.2515C36.3497 42.086 36.5287 41.8712 37.5 41.8712C38.4713 41.8712 38.6503 42.086 38.6503 43.2515ZM30.3681 51.5337C30.3681 52.7609 30.5213 52.9141 31.7485 52.9141C32.9756 52.9141 33.1288 53.0673 33.1288 54.2945C33.1288 55.5216 32.9756 55.6748 31.7485 55.6748C30.5213 55.6748 30.3681 55.8281 30.3681 57.0552C30.3681 58.2824 30.2149 58.4356 28.9877 58.4356C27.7606 58.4356 27.6074 58.2824 27.6074 57.0552C27.6074 55.8281 27.4541 55.6748 26.227 55.6748C24.9998 55.6748 24.8466 55.5216 24.8466 54.2945C24.8466 53.0673 24.9998 52.9141 26.227 52.9141C27.4541 52.9141 27.6074 52.7609 27.6074 51.5337C27.6074 50.3066 27.7606 50.1534 28.9877 50.1534C30.2149 50.1534 30.3681 50.3066 30.3681 51.5337ZM47.3926 51.5337C47.3926 52.7609 47.5459 52.9141 48.773 52.9141C50.0002 52.9141 50.1534 53.0673 50.1534 54.2945C50.1534 55.5216 50.0002 55.6748 48.773 55.6748C47.5459 55.6748 47.3926 55.8281 47.3926 57.0552C47.3926 58.2824 47.2394 58.4356 46.0123 58.4356C44.7851 58.4356 44.6319 58.2824 44.6319 57.0552C44.6319 55.8281 44.4787 55.6748 43.2515 55.6748C42.0244 55.6748 41.8712 55.5216 41.8712 54.2945C41.8712 53.0673 42.0244 52.9141 43.2515 52.9141C44.4787 52.9141 44.6319 52.7609 44.6319 51.5337C44.6319 50.3066 44.7851 50.1534 46.0123 50.1534C47.2394 50.1534 47.3926 50.3066 47.3926 51.5337ZM22.0859 59.816C22.0859 61.0431 22.2391 61.1963 23.4663 61.1963C24.6934 61.1963 24.8466 61.3495 24.8466 62.5767C24.8466 63.8038 24.6934 63.9571 23.4663 63.9571C22.2391 63.9571 22.0859 64.1103 22.0859 65.3374C22.0859 66.5646 21.9327 66.7178 20.7055 66.7178C19.4784 66.7178 19.3252 66.5646 19.3252 65.3374C19.3252 64.1103 19.1719 63.9571 17.9448 63.9571C16.7176 63.9571 16.5644 63.8038 16.5644 62.5767C16.5644 61.3495 16.7176 61.1963 17.9448 61.1963C19.1719 61.1963 19.3252 61.0431 19.3252 59.816C19.3252 58.5888 19.4784 58.4356 20.7055 58.4356C21.9327 58.4356 22.0859 58.5888 22.0859 59.816ZM55.6748 59.816C55.6748 61.0431 55.8281 61.1963 57.0552 61.1963C58.2824 61.1963 58.4356 61.3495 58.4356 62.5767C58.4356 63.8038 58.2824 63.9571 57.0552 63.9571C55.8281 63.9571 55.6748 64.1103 55.6748 65.3374C55.6748 66.5646 55.5216 66.7178 54.2945 66.7178C53.0673 66.7178 52.9141 66.5646 52.9141 65.3374C52.9141 64.1103 52.7609 63.9571 51.5337 63.9571C50.3066 63.9571 50.1534 63.8038 50.1534 62.5767C50.1534 61.3495 50.3066 61.1963 51.5337 61.1963C52.7609 61.1963 52.9141 61.0431 52.9141 59.816C52.9141 58.5888 53.0673 58.4356 54.2945 58.4356C55.5216 58.4356 55.6748 58.5888 55.6748 59.816ZM36.3497 65.3374C36.3497 66.6083 36.2218 66.7178 34.7393 66.7178C33.2567 66.7178 33.1288 66.8273 33.1288 68.0982C33.1288 69.3253 32.9756 69.4785 31.7485 69.4785C30.5213 69.4785 30.3681 69.6317 30.3681 70.8589C30.3681 72.086 30.5213 72.2393 31.7485 72.2393C32.9756 72.2393 33.1288 72.3925 33.1288 73.6196C33.1288 74.8905 33.2567 75 34.7393 75C36.2218 75 36.3497 74.8905 36.3497 73.6196C36.3497 72.4541 36.5287 72.2393 37.5 72.2393C38.4713 72.2393 38.6503 72.4541 38.6503 73.6196C38.6503 74.8905 38.7782 75 40.2607 75C41.7433 75 41.8712 74.8905 41.8712 73.6196C41.8712 72.3925 42.0244 72.2393 43.2515 72.2393C44.4787 72.2393 44.6319 72.086 44.6319 70.8589C44.6319 69.6317 44.4787 69.4785 43.2515 69.4785C42.0244 69.4785 41.8712 69.3253 41.8712 68.0982C41.8712 66.8273 41.7433 66.7178 40.2607 66.7178C38.7782 66.7178 38.6503 66.6083 38.6503 65.3374C38.6503 64.1719 38.4713 63.9571 37.5 63.9571C36.5287 63.9571 36.3497 64.1719 36.3497 65.3374Z" fill="#D2D2D2"/>
</svg>
