<svg width="338" height="329" viewBox="0 0 338 329" fill="none" xmlns="http://www.w3.org/2000/svg">
<path opacity="0.07" fill-rule="evenodd" clip-rule="evenodd" d="M113.07 8.33561C108.979 12.9202 105.631 17.1318 105.631 17.6952C105.631 18.2585 108.886 22.2575 112.864 26.5831C116.841 30.9076 120.096 34.7564 120.096 35.1354C120.096 36.0404 106.231 51.3984 105.414 51.3984C105.068 51.3984 101.416 48.0041 97.2978 43.8549C93.1799 39.7058 89.383 36.3044 88.8604 36.2964C87.7946 36.2792 74.8939 52.0344 74.8939 53.3526C74.8939 53.8172 78.1484 57.7275 82.1262 62.0429C86.104 66.3584 89.3585 70.3282 89.3585 70.8663C89.3585 71.4045 86.0407 75.6968 81.9861 80.4043L74.6136 88.9656L81.8658 96.889C85.8545 101.247 89.5394 104.812 90.0547 104.812C90.57 104.812 92.963 102.451 95.3731 99.5658C97.7833 96.6804 104.698 88.6633 110.74 81.7497L121.725 69.1792L129.273 76.5766C133.424 80.6451 136.96 84.366 137.13 84.8457C137.3 85.3244 135.031 88.5393 132.088 91.9891C129.145 95.4388 119.913 106.311 111.575 116.15C103.236 125.989 96.1343 134.039 95.7935 134.039C95.4518 134.039 94.4519 135.4 93.5705 137.062C92.689 138.725 91.6177 140.086 91.1892 140.086C90.7607 140.086 88.8053 138.386 86.8444 136.307C84.8826 134.228 77.8736 126.87 71.2678 119.956L59.2576 107.385L52.1798 115.925C48.287 120.622 45.093 124.856 45.0813 125.335C45.0605 126.211 48.3358 129.851 66.5215 149.156L76.4904 159.738L62.2599 176.768L59.3299 173.796C57.718 172.162 53.1363 167.366 49.1486 163.141C45.1599 158.914 40.0666 153.603 37.83 151.336L33.7645 147.216L32.0884 150.958C31.1663 153.015 27.3395 161.048 23.5841 168.809C19.8287 176.569 15.3365 185.866 13.6008 189.469C11.8641 193.072 10.1401 196.473 9.76762 197.027C7.53554 200.353 -0.443532 217.686 0.0193372 218.202C0.256196 218.466 11.7077 214.442 25.4672 209.261C39.2267 204.079 50.4847 200.248 50.4847 200.748C50.4847 201.808 42.0274 229.448 37.9303 241.778C36.3826 246.436 35.116 250.597 35.116 251.024C35.116 251.45 38.0198 250.02 41.5691 247.845C45.1193 245.67 48.2337 243.891 48.4904 243.891C48.7481 243.891 50.2913 242.757 51.9213 241.371C53.5513 239.985 55.0773 238.851 55.3123 238.851C55.7101 238.851 75.0548 226.541 80.4546 222.852C87.4935 218.043 91.5617 215.651 92.2596 215.91C93.0262 216.195 87.837 227.965 72.4539 260.834C68.222 269.875 64.9829 277.521 65.255 277.825C65.5271 278.128 66.8913 277.477 68.2871 276.378C69.6839 275.279 73.2666 272.967 76.2499 271.239C81.6724 268.098 85.4386 265.722 94.7828 259.545C103.905 253.515 119.194 244.73 119.979 245.069C120.696 245.377 115.397 261.262 106.417 285.715C104.382 291.258 102.272 297.022 101.729 298.526C101.185 300.029 100.969 301.513 101.248 301.825C101.527 302.135 104.559 300.98 107.987 299.258C111.415 297.534 116.05 295.304 118.288 294.3C120.525 293.298 125.814 290.808 130.04 288.77C146.673 280.749 151.882 278.801 152.71 280.293C153.135 281.058 155.55 287.579 158.077 294.785C160.604 301.991 163.06 308.674 163.533 309.636C164.006 310.599 164.394 311.89 164.394 312.504C164.394 314.388 171.068 328.586 171.822 328.306C172.46 328.068 177.986 311.096 185.362 286.723C186.871 281.734 188.234 277.495 188.392 277.303C188.697 276.929 198.4 281.094 205.076 284.465C209.229 286.563 212.71 288.228 231.71 297.21C237.698 300.041 242.868 301.937 243.296 301.46C244.015 300.659 236.519 280.969 229.246 264.551C224.184 253.122 221.051 244.893 221.552 244.336C222.113 243.711 234.64 249.785 250.73 258.485C263.474 265.376 274.223 269.939 275.184 268.868C275.516 268.497 274.977 266.921 273.986 265.365C272.995 263.808 270.232 258.453 267.845 253.465C265.46 248.476 262.87 243.184 262.091 241.705C253.799 225.962 250.202 218.444 250.697 217.893C251.023 217.529 253.4 218.44 255.982 219.917C260.659 222.592 268.955 226.867 280.111 232.349C283.343 233.936 287.818 236.346 290.056 237.702C299.508 243.431 300.832 244.036 302.12 243.214C303.22 242.513 302.994 241.168 300.705 234.82C296.642 223.55 292.771 211.712 291.476 206.602C290.844 204.107 289.458 199.686 288.397 196.775C286.302 191.036 286.513 190.782 291.62 192.894C293.494 193.669 300.927 196.2 308.137 198.519C315.346 200.837 324.241 203.831 327.903 205.171C335.171 207.833 337.97 208.205 337.97 206.509C337.97 205.48 331.932 193.052 325.284 180.398C317.895 166.333 312.165 155.167 309.252 149.156C307.507 145.553 305.816 142.273 305.496 141.867C305.175 141.461 302.079 144.584 298.614 148.809C295.15 153.032 290.019 159.237 287.212 162.597L282.107 168.707L274.781 161.345C270.752 157.295 267.455 153.185 267.455 152.211C267.455 151.237 270.201 147.514 273.557 143.938C283.598 133.238 294.576 119.958 294.576 118.513C294.576 116.467 280.245 101.571 278.795 102.111C278.29 102.298 274.616 106.498 270.631 111.443C266.647 116.387 260.452 123.558 256.867 127.377L250.346 134.32L247.826 132.483C246.439 131.473 244.857 130.162 244.309 129.571C243.761 128.98 238.088 123.054 231.704 116.402C225.32 109.751 218.401 102.494 216.329 100.277C214.257 98.0601 210.268 93.8283 207.463 90.8744C204.658 87.9195 202.364 85.0281 202.364 84.4486C202.364 83.8681 205.36 79.978 209.021 75.8026L215.678 68.2107L230.81 84.244C239.133 93.0624 246.618 100.408 247.443 100.568C248.309 100.736 249.582 99.6525 250.455 98.0057C251.286 96.4365 254.231 92.7651 256.999 89.8475C259.766 86.9298 262.03 83.9165 262.03 83.1526C262.03 82.3876 258.979 78.6819 255.25 74.9167C251.521 71.1515 248.47 67.6655 248.47 67.1697C248.47 66.6748 251.747 62.5267 255.753 57.9512L263.036 49.6337L257.787 44.0595C250.757 36.5937 246.327 32.2853 245.662 32.2661C245.36 32.257 241.944 36.121 238.071 40.8517C234.198 45.5823 230.726 49.3233 230.356 49.1661C229.987 49.0079 226.595 45.6297 222.819 41.6589L215.955 34.438L231.011 16.7236L224.745 10.1255C214.727 -0.423281 215.358 -0.29428 209.161 6.94887C206.252 10.3482 203.306 14.0308 202.614 15.1313C201.923 16.2318 200.983 17.1328 200.527 17.1328C200.069 17.1328 196.126 13.5007 191.763 9.06124C187.4 4.62183 183.351 1.10758 182.765 1.25069C182.179 1.3938 178.817 5.13984 175.293 9.57422L168.888 17.6367L199.003 50.4612L196.841 53.1339C195.652 54.6043 192.398 58.5095 189.61 61.8131L184.541 67.8197L177.306 60.113C173.326 55.8741 169.505 52.4072 168.814 52.4072C168.123 52.4082 164.596 55.7975 160.976 59.9396L154.393 67.469L149.675 62.567C147.081 59.8711 143.569 56.249 141.873 54.5186C139.039 51.6282 138.884 51.1727 139.96 48.9313C140.604 47.5899 143.971 43.1737 147.442 39.1182C159.847 24.6279 165.298 17.7627 165.298 16.6319C165.298 16.001 162.191 12.1139 158.393 7.99397L151.488 0.503906L144.802 8.5664C141.125 13.0008 137.556 16.5049 136.87 16.3538C136.186 16.2016 132.468 12.4606 128.608 8.03932C124.748 3.61704 121.347 0 121.05 0C120.751 0 117.161 3.75108 113.07 8.33561ZM161.364 94.9651L154.378 103.301L169.092 118.752L165.209 123.623C163.074 126.303 159.682 130.376 157.671 132.672L154.014 136.849L147.41 129.649C143.776 125.689 140.401 122.292 139.906 122.099C138.922 121.717 125.52 136.328 125.52 137.784C125.52 138.569 132.631 146.199 150.649 164.746L155.436 169.674L161.97 162.439C165.565 158.459 169.284 155.203 170.238 155.203C171.191 155.203 173.418 156.933 175.188 159.049C176.958 161.165 180.28 164.567 182.569 166.608L186.731 170.322L201.709 153.57C209.948 144.358 216.479 136.308 216.225 135.682C215.66 134.295 202.757 121.945 201.873 121.945C201.526 121.945 198.25 125.347 194.593 129.504C190.936 133.661 187.732 137.062 187.472 137.062C187.214 137.062 183.56 133.376 179.351 128.869L171.7 120.676L174.301 116.523C175.732 114.24 178.549 110.557 180.563 108.34C182.576 106.123 184.237 103.85 184.253 103.29C184.28 102.368 170.468 87.5547 168.975 86.9026C168.631 86.7525 165.206 90.3806 161.364 94.9651ZM278.755 105.82C278.448 106.375 278.628 106.828 279.154 106.828C279.68 106.828 280.111 106.375 280.111 105.82C280.111 105.266 279.932 104.812 279.713 104.812C279.493 104.812 279.063 105.266 278.755 105.82ZM210.561 179.898C197.828 194.129 186.856 205.594 185.971 205.594C185.092 205.594 184.048 205.017 183.65 204.314C183.252 203.609 179.995 200.16 176.412 196.647C168.891 189.274 169.891 189.073 160.894 199.771L156.043 205.537L152.76 202.165C150.955 200.31 147.058 196.392 144.102 193.458C132.473 181.916 118.357 165.974 118.899 164.994C119.225 164.405 119.027 164.267 118.439 164.673C117.848 165.081 115.52 163.419 112.993 160.783L108.579 156.181L100.777 165.488C96.486 170.607 92.9747 175.068 92.9747 175.403C92.9747 176.259 104.435 188.476 133.681 218.796C156.285 242.231 154.695 240.797 156.7 239.552C157.7 238.931 158.853 238.531 159.263 238.662C159.673 238.794 159.787 238.502 159.517 238.014C158.906 236.913 164.455 229.581 168.066 226.713L170.743 224.589L178.116 232.224C182.17 236.424 185.945 239.859 186.506 239.859C187.066 239.859 193.868 232.853 201.62 224.29C209.373 215.726 215.966 208.999 216.272 209.341C216.578 209.681 216.828 209.352 216.828 208.608C216.828 207.863 222.492 200.872 229.415 193.071C236.338 185.269 243.679 176.846 245.73 174.352L249.458 169.816L241.958 162.025C237.833 157.74 234.254 154.228 234.005 154.218C233.757 154.209 223.206 165.766 210.561 179.898ZM245.306 185.437C245.613 185.992 246.043 186.445 246.263 186.445C246.483 186.445 246.662 185.992 246.662 185.437C246.662 184.883 246.231 184.43 245.704 184.43C245.178 184.43 244.998 184.883 245.306 185.437Z" fill="url(#paint0_linear_404_9)"/>
<defs>
<linearGradient id="paint0_linear_404_9" x1="168.985" y1="0" x2="168.985" y2="328.31" gradientUnits="userSpaceOnUse">
<stop stop-color="#AEB1B1"/>
<stop offset="1" stop-color="#4D4D4D"/>
</linearGradient>
</defs>
</svg>
