<svg width="338" height="329" viewBox="0 0 338 329" fill="none" xmlns="http://www.w3.org/2000/svg">
<path opacity="0.07" fill-rule="evenodd" clip-rule="evenodd" d="M74.8774 6.75454C74.8666 10.4669 74.5864 16.4426 74.2541 20.0348C73.9208 23.6269 73.6254 36.3629 73.5966 48.3369L73.5443 70.1077L79.1737 70.3672L84.803 70.6259L84.8354 51.6443C84.8535 41.2039 85.1047 25.3146 85.3939 16.3337L85.919 0.00557676H80.4076H74.8954L74.8774 6.75454ZM86.6044 3.92433C86.6044 6.07964 86.925 7.84308 87.3178 7.84308C87.7096 7.84308 89.8208 6.07964 92.0086 3.92433L95.986 0.00557676H91.2952H86.6044V3.92433ZM189.033 18.1659L170.077 36.3263L172.582 39.5014C173.959 41.2474 175.342 42.6721 175.655 42.6677C175.968 42.6625 186.154 33.0633 198.29 21.3349L220.357 0.0116726L214.173 0.00818926L207.989 0.00557676L189.033 18.1659ZM227.763 0.646511C232.207 0.947819 232.857 1.32141 239.581 7.43814L246.697 13.9102L247.253 10.6585C247.558 8.87067 247.813 5.74263 247.819 3.70662L247.829 0.00557676L235.444 0.166681C228.633 0.255506 225.176 0.471473 227.763 0.646511ZM248.729 8.08517V16.1639L254.08 20.7184L259.431 25.272L259.71 15.0336C260.138 -0.740729 260.418 0.00557676 254.074 0.00557676H248.729V8.08517ZM91.9842 6.56034L86.6044 11.8089V18.0989C86.6044 21.5587 86.7296 24.3889 86.8827 24.3889C87.0358 24.3889 89.9739 21.8487 93.4127 18.7442C97.954 14.6443 100.404 13.0585 102.367 12.9479C106.1 12.738 107.247 12.7389 151.807 13.0036L191.342 13.2379L196.801 7.95977C199.803 5.05728 202.063 2.49268 201.825 2.26104C201.585 2.03027 177.983 1.72199 149.376 1.57656L97.3632 1.31183L91.9842 6.56034ZM215.087 7.71246L209.872 12.8068L215.472 13.3729C218.552 13.6846 222.533 13.9398 224.318 13.9407C227.159 13.9424 228.523 14.8376 235.264 21.125C239.5 25.0751 253.178 37.5168 265.661 48.7723L288.357 69.2369L296.103 69.6723C300.363 69.9118 304.008 69.856 304.203 69.5486C304.398 69.2412 297.975 62.9773 289.929 55.6275C281.883 48.2785 272.057 39.275 268.094 35.6201C264.131 31.9652 254.404 23.0592 246.478 15.8286L232.066 2.68252L226.184 2.6503L220.301 2.61808L215.087 7.71246ZM134.492 15.6806C134.656 16.1604 149.88 31.2232 168.322 49.1546L201.851 81.7569L224.614 81.8605C237.135 81.918 267.644 82.0399 292.413 82.1322L337.448 82.2994L337.709 77.0744L337.97 71.8494L270.157 71.5672L202.344 71.2859L187.322 56.3276C179.06 48.1009 166.495 35.4294 159.4 28.1683L146.501 14.9674L140.346 14.8881C136.606 14.8402 134.309 15.152 134.492 15.6806ZM157.779 24.409C162.854 29.6888 167.381 34.2328 167.84 34.5071C168.685 35.0114 188.383 16.7935 188.383 15.5073C188.383 15.1241 179.421 14.8098 168.468 14.8098H148.551L157.779 24.409ZM36.3871 59.9442L1.03039 93.6629L1.14929 138.925C1.21414 163.819 1.52037 186.263 1.82841 188.801L2.38954 193.414L6.66784 189.206L10.9461 184.999L10.9867 141.922L11.0272 98.8452L41.5994 69.2369L72.1708 39.6285L72.1825 32.8796C72.1879 29.1672 72.0924 26.1515 71.9681 26.1776C71.8438 26.2037 55.8331 41.3981 36.3871 59.9442ZM248.564 44.3275C248.408 49.1067 248.408 56.7648 248.566 61.3445L248.853 69.6723H254.196H259.538L259.48 57.2629L259.422 44.8535L254.136 40.2459L248.851 35.6384L248.564 44.3275ZM57.5453 56.4025C50.2452 63.4728 44.2718 69.5469 44.2718 69.9005C44.2718 70.254 50.3064 70.5431 57.6822 70.5431H71.0918L71.5583 67.7129C72.35 62.9077 72.3563 43.5473 71.5664 43.5473C71.1557 43.5473 64.8463 49.3322 57.5453 56.4025ZM157.737 47.743C156.486 49.0274 150.385 54.869 144.179 60.7236L132.895 71.3695L87.025 71.8372L41.1554 72.3048L36.4087 76.8366C33.7976 79.3298 31.6621 81.7142 31.6621 82.1357C31.6621 82.5754 53.6579 82.6564 83.2268 82.3246L134.792 81.7464L150.763 66.3727L166.733 50.999L163.871 48.1444C162.297 46.5734 160.784 45.3159 160.51 45.3482C160.235 45.3813 158.988 46.4585 157.737 47.743ZM261.339 58.7869V69.6723L273.724 69.6444L286.108 69.6157L274.399 58.793C267.959 52.8399 262.387 47.9537 262.015 47.9354C261.643 47.9171 261.339 52.7999 261.339 58.7869ZM164.841 84.7273C163.04 86.2652 160.028 89.678 158.149 92.3105C154.551 97.3509 148.416 109.374 147.372 113.432C146.624 116.338 146.574 116.339 140.532 113.756C134.394 111.132 127.612 109.794 119.029 109.515L112.274 109.295L112.374 119.31C112.457 127.571 112.908 130.697 114.952 137.162C116.314 141.473 117.485 145.558 117.554 146.24C117.631 147.016 115.307 148.364 111.337 149.843C104.662 152.329 92.24 159.328 89.7172 162.023C88.8985 162.898 88.4923 164.024 88.8129 164.526C90.3018 166.854 108.549 179.052 115.201 182.165C119.288 184.077 122.632 185.822 122.632 186.039C122.632 186.258 121.407 188.97 119.91 192.066C117.309 197.445 112.725 213.884 112.725 217.833C112.725 219.64 112.975 219.686 119.817 219.134C128.497 218.434 136.317 216.05 144.928 211.478C149.676 208.957 151.572 208.324 151.87 209.161C152.095 209.794 153.383 213.605 154.733 217.628C157.042 224.513 163.732 235.862 167.015 238.466C168.307 239.491 168.888 238.829 172.075 232.702C175.887 225.371 178.817 217.672 179.853 212.262C180.198 210.46 180.767 208.815 181.119 208.605C181.469 208.396 185.375 209.951 189.799 212.062C201.024 217.42 216.919 221.146 218.434 218.776C218.673 218.401 218.336 215.169 217.685 211.591C216.453 204.826 212.43 194.141 208.43 187.013C207.151 184.736 206.272 182.746 206.476 182.592C206.68 182.438 209.482 181.41 212.702 180.306C225.091 176.059 241.62 166.364 241.472 163.431C241.369 161.357 222.701 149.451 214.953 146.516C212.972 145.766 211.193 145.031 211 144.882C210.808 144.734 212.084 141.957 213.835 138.71C215.587 135.464 217.699 130.848 218.53 128.454C220.26 123.461 222.582 111.357 221.996 110.384C220.771 108.35 200.96 110.59 192.791 113.686C189.683 114.863 186.992 115.827 186.81 115.827C186.467 115.827 185.483 113.694 179.776 100.587C176.422 92.8852 169.88 81.8326 168.712 81.8971C168.385 81.9145 166.643 83.1885 164.841 84.7273ZM73.094 106.415V128.354L36.5465 163.237L0 198.12L0.293626 205.699L0.588153 213.278L21.3041 193.494C32.6979 182.613 51.6467 164.647 63.4115 153.57L84.803 133.43V108.953V84.4765H78.9485H73.094V106.415ZM248.341 105.855L247.691 127.234L259.244 139.059C265.597 145.563 273.496 153.675 276.795 157.086L282.793 163.287L286.008 160.303L289.223 157.321L284.541 152.466C281.966 149.796 275.287 142.946 269.698 137.243L259.538 126.873V105.675V84.4765H254.265H248.991L248.341 105.855ZM307.274 85.2802C307.274 85.7218 311.123 89.543 315.828 93.7709L324.381 101.458L324.385 112.334L324.388 123.211L329.921 117.862L335.453 112.513L335.72 104.635L335.988 96.7578L328.942 90.6167L321.897 84.4765H314.586C310.565 84.4765 307.274 84.8379 307.274 85.2802ZM326.291 85.565C326.347 86.1641 328.778 88.7732 331.695 91.3639L336.997 96.0734V90.2754V84.4765H331.593C327.816 84.4765 326.22 84.8039 326.291 85.565ZM165.346 106.03C163.599 111.674 162.814 124.543 163.976 128.471C164.49 130.213 164.904 130.637 165.23 129.76C167.779 122.943 171.27 112.254 171.27 111.273C171.27 108.969 168.499 101.022 167.696 101.022C167.255 101.022 166.197 103.276 165.346 106.03ZM291.737 157.417L247.829 199.878V246.677C247.829 272.417 248.132 293.46 248.504 293.439C248.876 293.418 251.289 291.556 253.867 289.303L258.554 285.204L259.14 244.71C259.463 222.438 259.924 204.02 260.166 203.781C260.408 203.541 277.794 186.586 298.802 166.102L336.997 128.859V121.908C336.997 118.084 336.694 114.956 336.322 114.956C335.95 114.957 315.888 134.064 291.737 157.417ZM121.268 123.446C121.958 124.763 122.983 127.07 123.545 128.571C124.107 130.072 125.886 132.62 127.5 134.232C131.164 137.891 137.944 143.131 137.944 142.302C137.944 141.032 133.098 131.803 130.525 128.17C126.375 122.312 118.595 118.343 121.268 123.446ZM201.893 124.172C199.664 125.398 196.679 127.45 195.261 128.733C192.176 131.524 188.048 137.564 188.757 138.25C189.747 139.207 201.94 130.553 204.594 127.011C208.868 121.307 208.262 120.67 201.893 124.172ZM12.7727 132.155L12.7971 138.904L24.2566 150.51L35.7152 162.117L39.245 158.596L42.7748 155.074L38.3975 150.473C30.5849 142.258 13.6338 125.406 13.1844 125.406C12.9439 125.406 12.7583 128.443 12.7727 132.155ZM329.341 138.458L323.937 143.751L323.909 157.438C323.894 164.965 323.792 184.521 323.684 200.897L323.487 230.668L315.461 237.472C311.046 241.213 307.399 244.568 307.355 244.928C307.31 245.287 310.444 245.581 314.318 245.581H321.361L328.052 239.546L334.742 233.511L335.054 186.207C335.226 160.19 335.227 137.612 335.056 136.034L334.746 133.166L329.341 138.458ZM164.845 136.798C164.089 137.249 164.6 137.649 166.363 137.987C171.331 138.939 176.22 140.091 177.8 140.679C178.672 141.005 179.376 140.867 179.376 140.373C179.376 138.661 166.875 135.585 164.845 136.798ZM157.602 137.579C154.293 138.545 147.852 142.115 147.852 142.983C147.852 144.012 147.917 143.99 155.414 140.549C163.566 136.806 164.474 135.574 157.602 137.579ZM12.7871 162.393L12.7475 183.269L18.8272 177.575C22.1706 174.442 27.0722 169.922 29.7184 167.53L34.5308 163.179L23.6783 152.348L12.8268 141.516L12.7871 162.393ZM182.19 143.258C182.381 143.737 183.68 146.229 185.075 148.796C186.544 151.496 187.87 155.638 188.223 158.62C188.913 164.452 190.711 165.239 190.491 159.613C190.274 154.059 187.763 147.756 184.638 144.922C183.099 143.528 181.998 142.779 182.19 143.258ZM141.744 148.667C138.444 153.695 137.055 158.303 137.049 164.246C137.041 170.491 139.658 177.478 141.576 176.332C141.975 176.093 141.625 174.629 140.798 173.076C139.767 171.14 139.308 168.172 139.336 163.624C139.371 157.929 139.796 156.171 142.35 151.154C143.986 147.942 145.134 145.13 144.903 144.905C144.67 144.682 143.249 146.374 141.744 148.667ZM310.847 156.387L300.627 166.403L308.314 173.989C312.542 178.161 317.277 182.946 318.838 184.622L321.677 187.67L321.722 180.704C321.748 176.872 321.992 167.807 322.266 160.56C322.561 152.712 322.42 147.18 321.915 146.878C321.449 146.6 316.469 150.879 310.847 156.387ZM199.191 160.203L196.939 160.865L199.55 161.886C200.985 162.447 205.419 163.723 209.404 164.722C215.727 166.306 217.257 166.406 221.43 165.503C224.06 164.934 226.205 164.202 226.196 163.877C226.187 163.553 223.249 162.399 219.666 161.312C213.081 159.316 203.902 158.819 199.191 160.203ZM55.1089 164.241C55.0927 164.765 55.8907 165.904 56.8815 166.77C57.8723 167.637 58.6829 168.947 58.6829 169.681C58.6829 170.64 57.9732 170.357 56.1565 168.675C54.7676 167.388 53.2256 166.335 52.7302 166.335C52.2357 166.335 50.4632 167.699 48.7924 169.366L45.7534 172.397L59.4242 185.856C66.9423 193.259 73.1895 199.831 73.3057 200.46C73.4228 201.089 73.5236 211.401 73.5308 223.375L73.5443 245.145L79.1737 245.405L84.803 245.663L84.7715 221.457L84.7391 197.249L72.1933 184.622C65.2931 177.677 59.6466 171.603 59.6457 171.124C59.6448 170.646 65.5075 176.031 72.6743 183.091C79.8402 190.152 85.7037 195.568 85.7037 195.126C85.7037 194.685 79.3736 188.039 71.6376 180.357C63.9015 172.675 57.0238 165.691 56.3546 164.838C55.6854 163.985 55.1243 163.716 55.1089 164.241ZM105.744 165.296C103.638 165.444 101.916 165.861 101.916 166.223C101.916 167.406 108.439 169.925 112.793 170.423C118.584 171.087 129.13 169.942 128.701 168.697C127.981 166.612 114.817 164.662 105.744 165.296ZM186.097 171.333C185.121 173.802 182.539 177.323 179.669 180.098C177.031 182.649 174.872 184.906 174.872 185.114C174.872 186.381 177.321 184.978 181.142 181.522C185.301 177.761 189.283 171.401 189.283 168.522C189.283 165.894 187.689 167.3 186.097 171.333ZM295.577 171.113L292.48 174.202L300.19 181.807C304.429 185.99 310.991 192.547 314.772 196.379L321.646 203.345L321.666 196.491L321.685 189.637L311.174 179.074C305.394 173.265 300.216 168.402 299.668 168.268C299.121 168.134 297.279 169.414 295.577 171.113ZM146.426 182.482C148.366 184.138 150.696 185.493 151.605 185.493C153.917 185.493 153.759 185.268 149.281 182.158C143.973 178.473 141.993 178.697 146.426 182.482ZM162.038 186.139C155.309 186.476 154.05 187.641 159.459 188.525C163.226 189.14 170.369 187.703 170.369 186.33C170.369 185.87 169.863 185.57 169.243 185.664C168.624 185.758 165.382 185.971 162.038 186.139ZM186.31 186.045C186.035 186.312 187.504 188.978 189.574 191.971C191.643 194.964 193.981 198.572 194.769 199.989C196.262 202.676 204.312 209.569 205.084 208.823C205.328 208.587 204.915 207.258 204.167 205.87C203.418 204.481 202.803 202.923 202.799 202.406C202.797 201.889 201.532 199.625 199.99 197.374C197.225 193.338 187.283 185.105 186.31 186.045ZM138.775 193.049C128.833 201.015 122.956 207.868 124.657 209.512C125.2 210.038 131.349 206.852 133.719 204.817C135.759 203.065 143.724 190.791 143.169 190.254C142.943 190.036 140.966 191.295 138.775 193.049ZM167.396 198.773C167.147 200.809 166.325 204.759 165.568 207.551C164.367 211.987 164.354 213.14 165.47 216.694C166.173 218.932 166.751 221.723 166.756 222.896C166.771 226.008 168.043 224.142 169.876 218.321C171.042 214.618 171.328 211.708 170.946 207.436C169.849 195.163 168.299 191.382 167.396 198.773ZM5.28257 210.559L1.0385 214.726V224.677V234.629L35.9404 267.958C55.1369 286.288 70.9431 301.292 71.0674 301.3C71.1917 301.308 71.2926 297.834 71.2926 293.581V285.849L67.8033 282.892C65.8848 281.266 52.3069 268.801 37.6301 255.192L10.9461 230.449V218.421C10.9461 211.805 10.6273 206.393 10.2364 206.393C9.84638 206.393 7.61717 208.268 5.28257 210.559ZM336.406 212.924C336.408 216.756 336.567 218.216 336.757 216.167C336.948 214.119 336.945 210.984 336.751 209.201C336.558 207.417 336.402 209.093 336.406 212.924ZM336.226 228.33L336.097 235.028L330.692 239.627C327.72 242.157 325.288 244.531 325.288 244.903C325.288 245.276 327.935 245.581 331.171 245.581C335.326 245.581 337.193 245.23 337.528 244.386C337.789 243.728 337.632 238.34 337.179 232.412C336.439 222.725 336.342 222.311 336.226 228.33ZM134.341 245.052C134.341 245.24 134.97 245.628 135.739 245.913C136.541 246.21 136.902 246.064 136.587 245.571C136.058 244.743 134.341 244.347 134.341 245.052ZM180.71 262.327C171.803 271.073 152.978 289.498 138.88 303.269L113.244 328.31H121.115H128.986L165.398 292.824L201.81 257.337H223.694H245.577V252.112V246.887L221.241 246.655L196.906 246.425L180.71 262.327ZM32.7132 247.976C32.878 248.335 35.5225 250.92 38.5893 253.72L44.1655 258.81L88.0005 258.167L131.835 257.523L144.125 269.84C150.884 276.614 156.844 282.156 157.368 282.156C158.912 282.156 163.398 277.174 162.97 275.934C162.754 275.308 156.529 268.655 149.135 261.148L135.692 247.499L84.0527 247.41C55.6503 247.363 32.5475 247.616 32.7132 247.976ZM260.438 252.547V257.772H298.718H336.997V252.547V247.322H298.718H260.438V252.547ZM140.196 249.935C141.092 250.893 142.029 251.677 142.276 251.677C142.524 251.677 141.993 250.893 141.096 249.935C140.2 248.977 139.263 248.193 139.016 248.193C138.768 248.193 139.299 248.977 140.196 249.935ZM145.149 254.725C146.313 255.922 147.468 256.902 147.716 256.902C147.963 256.902 147.214 255.922 146.05 254.725C144.886 253.527 143.732 252.547 143.484 252.547C143.236 252.547 143.986 253.527 145.149 254.725ZM46.2236 260.298C46.3884 260.729 52.097 266.254 58.9081 272.574L71.2926 284.066V271.79V259.514H58.6081C51.4674 259.514 46.0543 259.856 46.2236 260.298ZM73.7335 260.057C73.3822 260.397 73.094 275.893 73.094 294.493V328.31H78.4072H83.7213L84.3175 317.642C84.6454 311.775 84.7868 296.394 84.6328 283.462L84.3527 259.95L79.3628 259.693C76.6184 259.553 74.0857 259.716 73.7335 260.057ZM261.039 260.095C260.089 261.013 260.324 282.34 261.28 282.01C262.383 281.631 279.809 266.636 283.808 262.626L286.911 259.514H274.276C267.326 259.514 261.369 259.775 261.039 260.095ZM282.818 265.938C279.027 269.433 266.665 280.279 255.347 290.04C244.029 299.801 232.945 309.463 230.715 311.508L226.662 315.227L215.88 315.237L205.098 315.247L210.9 320.908L216.702 326.568H223.508H230.314L247.853 311.133C278.422 284.23 304.111 261.156 304.422 260.32C304.592 259.865 301.454 259.53 297.216 259.55L289.711 259.585L282.818 265.938ZM159.561 269.366C159.561 269.516 160.878 270.79 162.488 272.196L165.415 274.754L162.77 271.923C160.304 269.286 159.561 268.693 159.561 269.366ZM170.659 290.17L166.896 293.912L184.315 311.111L201.734 328.31H208.763H215.793L210.87 323.322C208.162 320.579 201.056 313.427 195.08 307.429C189.103 301.432 182.01 294.253 179.318 291.476L174.422 286.428L170.659 290.17ZM156.408 303.927L147.435 312.635H165.287H183.139L174.828 303.927C170.257 299.137 166.262 295.218 165.949 295.218C165.637 295.218 161.343 299.137 156.408 303.927ZM85.7037 309.399V317.484L90.4603 322.026L95.2177 326.568H103.939H112.66L118.137 321.126L123.614 315.683L113.099 315.436L102.584 315.19L94.7323 308.252C90.4134 304.436 86.6161 301.314 86.2919 301.314C85.9685 301.314 85.7037 304.952 85.7037 309.399ZM252.107 309.581L246.928 314.301V321.306V328.31H252.782H258.637V316.554C258.637 310.088 258.333 304.811 257.961 304.829C257.589 304.847 254.956 306.985 252.107 309.581ZM139.365 320.504L132.99 326.539L164.74 326.554C182.201 326.561 196.489 326.264 196.489 325.89C196.489 325.517 193.941 322.77 190.826 319.785L185.163 314.358L165.451 314.413L145.74 314.468L139.365 320.504ZM237.921 322.234L231.166 328.275L238.596 328.293L246.027 328.31V322.214C246.027 318.861 245.724 316.136 245.352 316.157C244.98 316.177 241.636 318.912 237.921 322.234ZM85.7037 324.391V328.31H89.3065C91.6672 328.31 92.9093 327.919 92.9093 327.174C92.9093 326.012 87.4763 320.472 86.336 320.472C85.9883 320.472 85.7037 322.236 85.7037 324.391Z" fill="url(#paint0_linear_502_4)"/>
<defs>
<linearGradient id="paint0_linear_502_4" x1="168.985" y1="0" x2="168.985" y2="328.31" gradientUnits="userSpaceOnUse">
<stop stop-color="#AEB1B1"/>
<stop offset="1" stop-color="#4D4D4D"/>
</linearGradient>
</defs>
</svg>
