<svg width="273" height="261" viewBox="0 0 273 261" fill="none" xmlns="http://www.w3.org/2000/svg">
<g opacity="0.07">
<path d="M131.847 81.3389C129.845 84.3343 126.109 86.7866 123.542 86.7866C117.472 86.7866 117.655 91.0813 124.152 101.044C132.632 114.05 144.046 111.831 150.516 95.9166C152.829 90.2258 152.524 88.8149 148.681 87.4388C146.143 86.5312 142.139 83.5606 139.776 80.8405C135.507 75.916 135.467 75.9185 131.847 81.3389Z" fill="url(#paint0_linear_503_2)"/>
<path d="M126.833 121.501C120.301 127.609 120.248 129.391 126.385 136.478C130.134 140.808 132.847 141.71 138.278 140.436C147.514 138.266 150.532 128.179 143.974 121.402C138.002 115.233 133.507 115.26 126.833 121.501Z" fill="url(#paint1_linear_503_2)"/>
<path d="M124.375 155.311C118.098 162.772 117.127 171.094 122.532 171.094C124.542 171.094 128.122 173.605 130.487 176.673L134.788 182.252L139.09 176.673C141.455 173.605 145.165 171.094 147.331 171.094C152.232 171.094 149.766 159.668 143.452 153.116C137.517 146.957 130.744 147.736 124.375 155.311Z" fill="url(#paint2_linear_503_2)"/>
<path d="M89.8719 117.375C88.546 120.636 85.5812 123.978 83.2821 124.804C77.4932 126.882 78.0501 130.775 84.4038 132.66C87.4243 133.557 89.7075 136.411 89.7075 139.295C89.7075 143.575 90.8318 144.093 97 142.652C107 140.319 113.574 134.256 113.574 127.366C113.574 123.135 110.744 120.252 102.929 116.525L92.2824 111.446L89.8719 117.375Z" fill="url(#paint3_linear_503_2)"/>
<path d="M167.591 117.633C163.027 119.493 158.44 122.302 157.398 123.877C153.685 129.496 158.549 137.894 167.944 142.082C179.636 147.294 179.869 147.292 179.869 141.936C179.869 139.536 182.256 136.178 185.173 134.475C188.09 132.771 190.476 130.346 190.476 129.086C190.476 127.827 188.09 126.086 185.173 125.221C182.256 124.355 179.869 121.491 179.869 118.856C179.869 113.244 178.67 113.125 167.591 117.633Z" fill="url(#paint4_linear_503_2)"/>
<path d="M249.84 167.218C249.036 169.177 246.687 170.174 244.618 169.432C242.553 168.691 238.909 168.785 236.522 169.641C232.534 171.071 232.547 171.572 236.695 175.859C239.652 178.914 240.232 181.082 238.381 182.153C232.656 185.461 235.796 188.282 243.584 186.827C253.719 184.93 262.075 191.377 262.075 201.092C262.075 208.521 253.886 215.727 245.443 215.727C238.726 215.727 225.04 208.96 216.313 201.325C210.975 196.654 208.214 195.669 206.072 197.673C203.929 199.676 205.719 203.577 212.717 212.146C217.986 218.601 222.298 224.834 222.298 226.002C222.298 228.943 232.319 238.043 235.557 238.043C237.016 238.043 238.209 241.356 238.209 245.405C238.209 250.863 239.217 252.403 242.11 251.366C244.252 250.598 249.187 252.306 253.072 255.163C261.913 261.667 272.682 262.113 272.682 255.976C272.682 253.566 269.771 247.585 266.209 242.688C261.2 235.792 260.452 233.109 262.895 230.805C265.345 228.499 265.056 228.184 261.619 229.409C256.445 231.249 245.345 226.409 247.448 223.23C248.235 222.037 246.777 220.55 244.207 219.922C241.638 219.295 243.253 218.653 247.795 218.494C252.338 218.335 259.201 215.893 263.043 213.066C272.648 206.004 272.266 195.962 261.974 185.004C255.732 178.356 254.305 174.987 255.634 170.04C257.466 163.208 252.481 160.781 249.84 167.218Z" fill="url(#paint5_linear_503_2)"/>
<path d="M173.168 228.234C172.227 229.657 172.783 232.315 174.404 234.143C176.629 236.65 176.361 237.82 173.308 238.916C166.363 241.408 168.466 247.416 175.82 246.102C180.277 245.304 184.945 246.948 190.391 251.232C194.799 254.701 200.856 258.265 203.852 259.155C210.866 261.238 221.731 254.639 225.154 246.216C229.174 236.335 226.366 233.312 221.428 242.207C216.005 251.976 208.198 254.602 199.829 249.474C191.996 244.674 188.994 236.501 193.287 231.666C197.745 226.645 194.295 224.135 188.784 228.39C185.311 231.073 184.062 231.152 183.194 228.745C181.839 224.983 175.531 224.661 173.168 228.234Z" fill="url(#paint6_linear_503_2)"/>
<path d="M262.075 1.79029C259.887 2.55897 255.114 5.10057 251.468 7.43885C247.822 9.77713 243.433 11.2252 241.715 10.6574C239.951 10.0747 238.22 12.4229 237.737 16.0481C237.268 19.5815 235.828 22.1579 234.536 21.7735C233.245 21.3892 231.166 23.658 229.917 26.8146C228.668 29.9711 226.57 31.9325 225.255 31.1713C223.94 30.4125 222.123 32.5499 221.216 35.9272C220.312 39.3019 215.881 45.992 211.373 50.7925C206.345 56.146 203.796 61.0407 204.783 63.4435C206.133 66.7339 207.989 66.1934 216.334 60.0762C235.621 45.9424 249.437 43.1255 257.686 51.648C268.657 62.9823 256.538 80.9546 242.078 74.7927C236.849 72.566 235.557 72.6999 235.557 75.4746C235.557 77.3765 237.05 79.5213 238.872 80.238C241.264 81.1777 240.924 82.2886 237.657 84.2277C231.139 88.0983 234.677 94.9694 242.269 93.189C246.201 92.2641 248.787 93.0551 249.781 95.4827C252.616 102.391 257.278 99.5467 255.504 91.9938C254.146 86.2138 255.406 83.1094 261.924 76.1689C266.382 71.4204 270.031 64.8073 270.031 61.4747C270.031 52.8605 259.651 44.6505 248.646 44.5538C240.543 44.4843 240.044 44.1149 244.133 41.2088C246.663 39.4135 247.965 37.224 247.026 36.3462C246.085 35.4685 249.134 34.0352 253.799 33.1624C258.466 32.2896 261.818 30.3307 261.248 28.8057C260.678 27.2832 263.019 22.8819 266.448 19.0261C276.851 7.33223 274.35 -2.52425 262.075 1.79029Z" fill="url(#paint7_linear_503_2)"/>
<path d="M191.884 10.1838C184.714 16.0704 180.938 17.5235 175.881 16.3357C170.999 15.1901 169.262 15.7729 169.262 18.55C169.262 20.6205 171.062 22.3166 173.261 22.3166C176.581 22.3166 176.705 23.1497 173.993 27.2138C171.444 31.025 171.426 32.7706 173.905 35.0891C176.387 37.41 178.281 37.0628 182.457 33.5269C185.48 30.9704 187.825 30.2389 187.825 31.8507C187.825 33.4253 189.657 34.7146 191.895 34.7146C195.226 34.7146 195.417 33.755 192.95 29.4455C186.814 18.7211 202.94 5.15017 214.091 11.6567C216.416 13.013 219.633 16.5465 221.24 19.5047C226.011 28.2924 228.482 29.0388 226.453 21.0768C223.953 11.2723 214.921 2.47962 207.342 2.47962C204.001 2.47962 197.045 5.94612 191.884 10.1838Z" fill="url(#paint8_linear_503_2)"/>
<path d="M0.710011 6.81895C1.66466 10.5681 4.83358 16.73 7.74792 20.5089C10.6623 24.2903 12.3753 28.3991 11.5559 29.6389C10.7339 30.8812 13.1046 32.2524 16.8198 32.6863C20.5376 33.1203 23.4599 34.4121 23.3194 35.5602C23.1762 36.7083 25.226 39.1829 27.8752 41.06C32.2825 44.1843 31.9457 44.4819 23.9558 44.5538C13.924 44.6455 2.19768 53.9342 2.19768 61.7921C2.19768 64.5345 5.91287 70.7361 10.4554 75.5713C16.4432 81.9489 18.3631 86.0799 17.4403 90.5953C16.011 97.5978 19.933 101.605 22.3806 95.6389C23.4466 93.0452 25.95 92.2468 30.0284 93.2039C36.9842 94.8355 41.1051 90.5432 37.0107 85.9287C35.4885 84.2128 34.9502 80.0768 35.8173 76.7392C37.1114 71.7502 36.7614 71.2221 33.8497 73.7686C28.5196 78.4303 22.3408 77.5203 15.9182 71.1303C8.74765 63.9915 8.61241 58.4719 15.4567 52.072C23.2478 44.7869 36.4246 45.6894 49.2673 54.3879C55.1756 58.39 60.8292 62.9054 61.8343 64.4279C63.1761 66.4562 64.6107 66.4538 67.2413 64.413C70.161 62.1467 69.1374 59.5753 61.699 50.4627C56.6845 44.3207 51.8131 36.433 50.8743 32.9368C46.6261 17.1118 61.4232 5.01627 74.9183 13.2833C82.2188 17.7565 83.9849 26.6757 78.5699 31.7391C76.0957 34.0526 76.3556 34.7146 79.7393 34.7146C82.1339 34.7146 84.8732 33.5319 85.8279 32.0863C86.9337 30.415 88.7714 31.0027 90.8849 33.7054C95.3558 39.421 101.177 35.7883 99.2222 28.5032C98.2171 24.759 99.0445 22.3513 101.659 21.414C108.549 18.9418 105.947 14.9447 98.3259 16.2886C92.7915 17.2681 88.7979 15.7605 81.752 10.035C76.6473 5.88661 69.7314 2.48954 66.3848 2.48458C56.8701 2.47714 47.3289 13.08 46.9709 24.0647C46.8012 29.2397 46.117 31.5209 45.4514 29.1355C44.7831 26.7501 42.5052 24.7962 40.3891 24.7962C38.2358 24.7962 35.8412 21.533 34.9555 17.397C34.0857 13.328 32.4071 10.5582 31.2271 11.2401C30.047 11.922 24.6559 9.67299 19.2462 6.2412C13.8391 2.80693 7.06375 0 4.19184 0C-0.157133 0 -0.737878 1.13815 0.710011 6.81895Z" fill="url(#paint9_linear_503_2)"/>
<path d="M17.0054 169.799C18.2252 174.344 16.5148 178.664 10.4262 186.405C5.89961 192.158 2.19768 198.726 2.19768 201C2.19768 207.909 15.3321 218.187 24.4358 218.402C28.9783 218.509 31.2032 219.161 29.3787 219.848C27.557 220.537 26.064 222.59 26.064 224.415C26.064 226.238 22.4734 228.467 18.0847 229.37C13.6959 230.27 10.7683 232.008 11.5771 233.233C12.3859 234.455 10.7073 238.549 7.84604 242.331C4.98473 246.11 1.8662 251.713 0.916853 254.781C-0.523081 259.428 0.214121 260.357 5.33477 260.35C8.71318 260.345 15.4302 258.089 20.2565 255.336C25.0855 252.584 30.1557 250.982 31.5267 251.773C32.8977 252.566 34.0194 250.766 34.0194 247.773C34.0194 244.78 37.0027 239.747 40.649 236.585L47.2785 230.84L47.3633 238.782C47.4561 247.664 51.1077 253.196 59.6996 257.476C68.0342 261.627 69.9356 261.2 80.0204 252.921C85.9445 248.058 91.9456 245.482 97.35 245.482C105.804 245.482 108.527 242.097 101.969 239.744C99.6491 238.911 98.7952 236.102 99.6253 232.04C101.039 225.134 96.0108 223.223 90.3492 228.517C88.0262 230.689 86.2362 230.575 82.9772 228.046C79.1082 225.045 78.8324 225.571 80.267 233.233C82.0676 242.849 80.5136 245.869 71.4763 250.322C66.101 252.973 64.1599 252.718 58.2172 248.589C47.1883 240.922 47.4906 229.015 59.0737 214.824C67.4906 204.511 71.105 195.89 67.008 195.89C66.1912 195.89 60.0125 199.823 53.2795 204.63C38.2146 215.387 29.8136 217.582 21.2059 213.009C10.5509 207.348 8.17751 201.871 12.972 194.008C16.4114 188.369 18.8192 187.263 27.1141 187.511C35.6503 187.769 36.9205 187.134 35.8147 183.174C35.1014 180.625 35.5999 177.913 36.9205 177.149C38.2411 176.385 39.323 174.022 39.323 171.897C39.323 169.085 37.4668 168.369 32.484 169.259C28.1404 170.035 25.1359 169.236 24.2448 167.067C23.4758 165.19 21.1608 163.655 19.1003 163.655C16.4379 163.655 15.8333 165.433 17.0054 169.799Z" fill="url(#paint10_linear_503_2)"/>
</g>
<defs>
<linearGradient id="paint0_linear_503_2" x1="136.48" y1="0" x2="136.48" y2="260.35" gradientUnits="userSpaceOnUse">
<stop stop-color="#AEB1B1"/>
<stop offset="1" stop-color="#4D4D4D"/>
</linearGradient>
<linearGradient id="paint1_linear_503_2" x1="136.48" y1="0" x2="136.48" y2="260.35" gradientUnits="userSpaceOnUse">
<stop stop-color="#AEB1B1"/>
<stop offset="1" stop-color="#4D4D4D"/>
</linearGradient>
<linearGradient id="paint2_linear_503_2" x1="136.48" y1="0" x2="136.48" y2="260.35" gradientUnits="userSpaceOnUse">
<stop stop-color="#AEB1B1"/>
<stop offset="1" stop-color="#4D4D4D"/>
</linearGradient>
<linearGradient id="paint3_linear_503_2" x1="136.48" y1="0" x2="136.48" y2="260.35" gradientUnits="userSpaceOnUse">
<stop stop-color="#AEB1B1"/>
<stop offset="1" stop-color="#4D4D4D"/>
</linearGradient>
<linearGradient id="paint4_linear_503_2" x1="136.48" y1="0" x2="136.48" y2="260.35" gradientUnits="userSpaceOnUse">
<stop stop-color="#AEB1B1"/>
<stop offset="1" stop-color="#4D4D4D"/>
</linearGradient>
<linearGradient id="paint5_linear_503_2" x1="136.48" y1="0" x2="136.48" y2="260.35" gradientUnits="userSpaceOnUse">
<stop stop-color="#AEB1B1"/>
<stop offset="1" stop-color="#4D4D4D"/>
</linearGradient>
<linearGradient id="paint6_linear_503_2" x1="136.48" y1="0" x2="136.48" y2="260.35" gradientUnits="userSpaceOnUse">
<stop stop-color="#AEB1B1"/>
<stop offset="1" stop-color="#4D4D4D"/>
</linearGradient>
<linearGradient id="paint7_linear_503_2" x1="136.48" y1="0" x2="136.48" y2="260.35" gradientUnits="userSpaceOnUse">
<stop stop-color="#AEB1B1"/>
<stop offset="1" stop-color="#4D4D4D"/>
</linearGradient>
<linearGradient id="paint8_linear_503_2" x1="136.48" y1="0" x2="136.48" y2="260.35" gradientUnits="userSpaceOnUse">
<stop stop-color="#AEB1B1"/>
<stop offset="1" stop-color="#4D4D4D"/>
</linearGradient>
<linearGradient id="paint9_linear_503_2" x1="136.48" y1="0" x2="136.48" y2="260.35" gradientUnits="userSpaceOnUse">
<stop stop-color="#AEB1B1"/>
<stop offset="1" stop-color="#4D4D4D"/>
</linearGradient>
<linearGradient id="paint10_linear_503_2" x1="136.48" y1="0" x2="136.48" y2="260.35" gradientUnits="userSpaceOnUse">
<stop stop-color="#AEB1B1"/>
<stop offset="1" stop-color="#4D4D4D"/>
</linearGradient>
</defs>
</svg>
