<svg width="338" height="329" viewBox="0 0 338 329" fill="none" xmlns="http://www.w3.org/2000/svg">
<g opacity="0.07">
<path fill-rule="evenodd" clip-rule="evenodd" d="M161.711 10.1985L161.707 10.2022C152.458 19.96 134.825 38.5628 104.954 70.0043C100.574 74.6146 93.7809 74.1182 88.9076 70.6256C76.6209 61.8198 62.4446 63.4413 50.8087 70.5753C39.1509 77.7226 30.199 90.3143 28.3757 103.161C26.3701 117.292 32.0456 130.049 38.8292 139.364C41.3492 142.824 42.3893 147.473 42.0442 151.911C41.699 156.35 39.9587 160.685 36.7912 163.472C19.274 178.886 -0.8732 207.499 1.92011 247.753C4.16787 280.146 20.9981 297.434 36.7332 306.321C44.6117 310.771 52.2094 313.109 57.5443 314.163C59.8635 314.621 61.7356 314.833 63.0048 314.876C62.5913 314.47 62.142 313.986 61.6683 313.438C60.5663 312.163 59.2744 310.472 57.9066 308.433C55.1712 304.356 52.1119 298.858 49.653 292.465C44.7402 279.693 42.1808 263.221 49.5746 247.405C56.9359 231.659 70.0081 221.886 85.0622 220.956C100.114 220.026 116.998 227.943 132.017 247.229C144.176 262.841 143.967 279.697 138.804 294.318C135.083 304.857 128.784 314.265 122.665 321.308C128.665 317.559 136.078 313.808 143.255 311.23C148.662 309.287 153.988 307.989 158.508 307.882C162.889 307.777 166.711 308.79 169.011 311.68C171.351 309.574 174.781 308.756 178.654 308.756C183.258 308.756 188.699 309.91 194.225 311.712C201.682 314.145 209.39 317.791 215.537 321.505C209.346 314.433 202.934 304.921 199.166 294.249C194.003 279.628 193.794 262.772 205.953 247.159C220.972 227.873 237.856 219.957 252.908 220.887C267.962 221.816 281.034 231.59 288.395 247.336C295.789 263.152 293.23 279.624 288.317 292.396C285.858 298.788 282.799 304.286 280.063 308.364C278.696 310.403 277.404 312.094 276.302 313.369C275.828 313.917 275.379 314.401 274.965 314.807C276.234 314.764 278.106 314.552 280.426 314.094C285.761 313.039 293.358 310.702 301.237 306.252C316.972 297.365 333.802 280.077 336.05 247.684C338.843 207.429 318.696 178.816 301.179 163.402C298.011 160.615 296.271 156.28 295.926 151.842C295.581 147.404 296.621 142.754 299.141 139.294C305.924 129.98 311.6 117.223 309.594 103.091C307.771 90.245 298.819 77.6533 287.161 70.5059C275.525 63.372 261.349 61.7504 249.062 70.5562C244.189 74.0489 237.396 74.5447 233.015 69.9349C218.441 54.5977 206.842 42.3886 197.732 32.8007L197.609 32.6711C179.122 13.2128 170.934 4.59428 168.969 2.54557C167.692 3.88837 165.351 6.35813 161.711 10.1985ZM167.894 313.053L167.936 313.015L169.139 314.102C170.932 311.7 174.238 310.582 178.654 310.582C183.035 310.582 188.305 311.686 193.754 313.463C204.656 317.019 216.058 323.199 222.125 328.241L223.151 326.807C215.587 319.955 205.725 307.785 200.712 293.587C195.716 279.438 195.541 263.334 207.212 248.348C221.979 229.386 238.395 221.819 252.815 222.71C267.233 223.6 279.805 232.951 286.921 248.171C294.004 263.322 291.598 279.183 286.79 291.684C284.388 297.928 281.397 303.302 278.729 307.279C277.395 309.267 276.147 310.899 275.1 312.11C274.032 313.346 273.228 314.08 272.782 314.348C272.678 314.411 272.559 314.493 272.452 314.602C272.355 314.701 272.191 314.898 272.135 315.202C272.068 315.566 272.19 315.883 272.357 316.089C272.499 316.264 272.667 316.356 272.773 316.405C272.992 316.507 273.254 316.558 273.5 316.589C273.761 316.622 274.07 316.638 274.418 316.641C275.801 316.65 277.988 316.431 280.719 315.891C286.19 314.81 293.948 312.421 301.994 307.877C318.108 298.775 335.402 280.999 337.704 247.823C340.553 206.758 319.987 177.615 302.214 161.976C299.473 159.564 297.893 155.736 297.578 151.686C297.263 147.636 298.223 143.473 300.435 140.436C307.365 130.921 313.34 117.655 311.233 102.81C309.315 89.2949 299.973 76.2707 287.968 68.9107C275.942 61.5372 261.087 59.7596 248.157 69.026C243.713 72.2113 237.818 72.4632 234.162 68.615C219.59 53.2798 207.99 41.0704 198.878 31.4807L198.845 31.4458C178.283 9.80323 170.412 1.51847 169.668 0.763205L169.652 0.783155L168.995 0C168.594 0.407901 166.025 3.11816 160.475 8.97327L160.472 8.97574C151.19 18.7692 133.569 37.3585 103.808 68.6845C100.151 72.533 94.2571 72.2807 89.8125 69.0953C76.8832 59.8289 62.0282 61.6065 50.0017 68.98C37.997 76.3401 28.6551 89.3642 26.737 102.879C24.63 117.724 30.6055 130.991 37.5351 140.506C39.7468 143.542 40.7066 147.706 40.3916 151.755C40.0766 155.805 38.4967 159.634 35.7556 162.045C17.9832 177.684 -2.58325 206.827 0.266306 247.892C2.56839 281.068 19.8622 298.845 35.9761 307.946C44.0221 312.491 51.7803 314.879 57.2513 315.96C59.9818 316.5 62.1686 316.719 63.5522 316.71C63.8999 316.708 64.2089 316.691 64.4702 316.658C64.7157 316.627 64.9775 316.576 65.1969 316.475C65.303 316.426 65.4707 316.333 65.6125 316.158C65.7803 315.952 65.9015 315.635 65.8347 315.271C65.7788 314.967 65.615 314.77 65.518 314.671C65.411 314.562 65.2922 314.48 65.1884 314.418C64.7416 314.149 63.9379 313.415 62.8699 312.18C61.8228 310.968 60.5747 309.337 59.2408 307.348C56.5728 303.371 53.5822 297.997 51.1804 291.753C46.3718 279.252 43.9665 263.392 51.0494 248.241C58.1649 233.02 70.7373 223.669 85.1551 222.779C99.5751 221.888 115.991 229.456 130.758 248.417C142.429 263.403 142.254 279.508 137.258 293.657C132.245 307.855 122.383 320.025 114.819 326.876L115.845 328.31C121.925 323.257 133.104 316.798 143.77 312.965C149.102 311.049 154.254 309.809 158.544 309.707C162.865 309.604 166.106 310.657 167.894 313.053ZM203.466 148.475C203.466 169.322 188.115 186.222 169.179 186.222C150.243 186.222 134.893 169.322 134.893 148.475C134.893 127.629 150.243 110.729 169.179 110.729C188.115 110.729 203.466 127.629 203.466 148.475ZM205.125 148.475C205.125 170.331 189.031 188.048 169.179 188.048C149.327 188.048 133.234 170.331 133.234 148.475C133.234 126.62 149.327 108.903 169.179 108.903C189.031 108.903 205.125 126.62 205.125 148.475Z" fill="url(#paint0_linear_507_33)"/>
<path fill-rule="evenodd" clip-rule="evenodd" d="M104.954 70.0043C134.825 38.5628 152.458 19.96 161.707 10.2022L161.711 10.1985C165.351 6.35813 167.692 3.88837 168.969 2.54557C170.934 4.59428 179.122 13.2128 197.609 32.6711L197.732 32.8007C206.842 42.3886 218.441 54.5977 233.015 69.9349C237.396 74.5447 244.189 74.0489 249.062 70.5562C261.349 61.7504 275.525 63.372 287.161 70.5059C298.819 77.6533 307.771 90.245 309.594 103.091C311.6 117.223 305.924 129.98 299.141 139.294C296.621 142.754 295.581 147.404 295.926 151.842C296.271 156.28 298.011 160.615 301.179 163.402C318.696 178.816 338.843 207.429 336.05 247.684C333.802 280.077 316.972 297.365 301.237 306.252C293.358 310.702 285.761 313.039 280.426 314.094C278.106 314.552 276.234 314.764 274.965 314.807C275.379 314.401 275.828 313.917 276.302 313.369C277.404 312.094 278.696 310.403 280.063 308.364C282.799 304.286 285.858 298.788 288.317 292.396C293.23 279.624 295.789 263.152 288.395 247.336C281.034 231.59 267.962 221.816 252.908 220.887C237.856 219.957 220.972 227.873 205.953 247.159C193.794 262.772 194.003 279.628 199.166 294.249C202.934 304.921 209.346 314.433 215.537 321.505C209.39 317.791 201.682 314.145 194.225 311.712C188.699 309.91 183.258 308.756 178.654 308.756C174.781 308.756 171.351 309.574 169.011 311.68C166.711 308.79 162.889 307.777 158.508 307.882C153.988 307.989 148.662 309.287 143.255 311.23C136.078 313.808 128.665 317.559 122.665 321.308C128.784 314.265 135.083 304.857 138.804 294.318C143.967 279.697 144.176 262.841 132.017 247.229C116.998 227.943 100.114 220.026 85.0622 220.956C70.0081 221.886 56.9359 231.659 49.5746 247.405C42.1808 263.221 44.7402 279.693 49.653 292.465C52.1119 298.858 55.1712 304.356 57.9066 308.433C59.2744 310.472 60.5663 312.163 61.6683 313.438C62.142 313.986 62.5913 314.47 63.0048 314.876C61.7356 314.833 59.8635 314.621 57.5443 314.163C52.2094 313.109 44.6117 310.771 36.7332 306.321C20.9981 297.434 4.16787 280.146 1.92011 247.753C-0.8732 207.499 19.274 178.886 36.7912 163.472C39.9587 160.685 41.699 156.35 42.0442 151.911C42.3893 147.473 41.3492 142.824 38.8292 139.364C32.0456 130.049 26.3701 117.292 28.3757 103.161C30.199 90.3143 39.1509 77.7226 50.8087 70.5753C62.4446 63.4413 76.6209 61.8198 88.9076 70.6256C93.7809 74.1182 100.574 74.6146 104.954 70.0043ZM205.125 148.475C205.125 170.331 189.031 188.048 169.179 188.048C149.327 188.048 133.234 170.331 133.234 148.475C133.234 126.62 149.327 108.903 169.179 108.903C189.031 108.903 205.125 126.62 205.125 148.475Z" fill="url(#paint1_linear_507_33)"/>
</g>
<defs>
<linearGradient id="paint0_linear_507_33" x1="168.985" y1="0" x2="168.985" y2="328.31" gradientUnits="userSpaceOnUse">
<stop stop-color="#AEB1B1"/>
<stop offset="1" stop-color="#4D4D4D"/>
</linearGradient>
<linearGradient id="paint1_linear_507_33" x1="168.985" y1="0" x2="168.985" y2="328.31" gradientUnits="userSpaceOnUse">
<stop stop-color="#AEB1B1"/>
<stop offset="1" stop-color="#4D4D4D"/>
</linearGradient>
</defs>
</svg>
