<svg width="273" height="261" viewBox="0 0 273 261" fill="none" xmlns="http://www.w3.org/2000/svg">
<path opacity="0.07" fill-rule="evenodd" clip-rule="evenodd" d="M116.684 43.2893C113.388 31.8831 119.717 13.1391 129.804 4.43086C132.626 1.99315 135.389 0 135.943 0C138.291 0 149.176 12.1517 151.894 17.807C154.332 22.8776 154.846 26.0325 154.846 35.9209C154.846 42.5071 155.019 47.8946 155.231 47.8946C157.102 47.8946 164.747 42.9246 169.733 38.4679C175.659 33.1701 175.911 33.073 177.305 35.5636C178.099 36.9808 179.08 40.8148 179.485 44.0827C180.217 49.9958 180.194 50.0412 174.602 53.6468C167.295 58.3565 157.304 62.3366 150.216 63.3621C147.107 63.8115 142.652 65.5419 140.315 67.2071L136.062 70.2343L131.319 67.1875C128.709 65.5112 123.997 63.7759 120.846 63.3301C114.056 62.371 105.815 59.0356 97.2379 53.7746L91.0068 49.954L91.8742 44.4314C92.3509 41.3932 93.2813 37.5493 93.9418 35.8878L95.1433 32.868L101.341 38.4078C107.25 43.6897 114.088 47.8946 116.77 47.8946C117.558 47.8946 117.527 46.2048 116.684 43.2893ZM127.886 40.186C126.876 33.0976 129.078 21.9369 132.725 15.6578C134.197 13.1256 135.574 11.0526 135.785 11.0526C135.997 11.0526 137.764 13.9533 139.713 17.4999C142.815 23.1441 143.259 25.3252 143.269 34.9999C143.279 44.3381 142.789 46.9711 140.114 51.9754C138.373 55.2335 136.539 58.1403 136.039 58.4363C134.528 59.3279 128.779 46.459 127.886 40.186ZM76.7019 63.9565C77.4626 59.5121 78.7824 54.2191 79.6343 52.1928L81.1815 48.5086L85.246 52.8474C94.574 62.8094 107.12 69.7689 121.25 72.8243C126.096 73.8719 131.315 75.8552 132.85 77.2331L135.641 79.7383L139.46 76.7554C141.561 75.1147 144.437 73.7466 145.85 73.7147C156.489 73.4764 178.511 62.1917 186.875 52.6926C188.752 50.5595 190.496 49.0219 190.748 49.2749C192.06 50.5976 195.324 63.6863 195.324 67.6271C195.324 72.1219 195.398 72.187 201.428 72.9938C204.786 73.4433 210.667 74.6541 214.499 75.6845L221.465 77.5597L215.26 83.2973C211.848 86.4534 207.155 91.8606 204.832 95.3139C200.402 101.901 195.324 114.7 195.324 119.275C195.324 120.752 193.849 123.809 192.046 126.068L188.768 130.175L192.046 134.282C193.849 136.541 195.324 139.598 195.324 141.075C195.324 145.65 200.402 158.449 204.832 165.036C207.155 168.489 211.848 173.897 215.26 177.053L221.465 182.79L214.499 184.666C210.667 185.696 204.786 186.907 201.428 187.356C195.398 188.163 195.324 188.228 195.324 192.723C195.324 196.621 192.066 209.744 190.774 211.049C190.536 211.289 188.471 209.448 186.182 206.957C177.806 197.84 155.937 186.788 145.947 186.622C144.481 186.597 141.561 185.235 139.46 183.595C135.661 180.628 135.625 180.625 132.964 183.014C131.493 184.335 125.886 186.492 120.505 187.807C105.426 191.492 94.547 197.57 85.246 207.503L81.1815 211.841L79.6343 208.157C78.7824 206.131 77.4498 200.758 76.6723 196.219L75.2588 187.965L69.4338 187.203C62.2865 186.269 55.1456 184.539 53.033 183.232C51.9202 182.543 53.5149 180.171 58.4301 175.203C66.4718 167.076 73.6667 154.208 75.873 144.007C76.7147 140.114 78.5318 135.41 79.9106 133.552C82.3958 130.203 82.3958 130.147 79.9106 126.798C78.5318 124.94 76.7147 120.236 75.873 116.343C73.6654 106.138 66.4705 93.2728 58.4198 85.1369C54.4658 81.1408 51.9176 77.6113 52.5486 77.0083C53.1628 76.4213 58.5368 75.0631 64.4903 73.9885L75.3166 72.0347L76.7019 63.9565ZM85.9001 102.054C81.6891 95.7106 77.1015 82.6992 77.1015 77.0992V73.4052L83.1553 74.2722C108.398 77.8901 130.276 98.6948 133.116 121.782L133.969 128.719L128.987 128.143C112.102 126.187 95.0816 115.882 85.9001 102.054ZM142.228 108.466C148.572 93.3232 167.453 78.1308 183.816 75.0041C193.375 73.178 194.74 73.6459 194.291 78.5962C193.15 91.1507 183.452 108.258 173.284 115.651C163.472 122.784 152.81 127.061 142.638 127.942L138.14 128.333L138.447 122.547C138.616 119.366 140.317 113.03 142.228 108.466ZM38.2918 89.9007L38.5983 89.7839C40.3382 89.1195 44.2332 88.5411 47.253 88.4981C52.4265 88.4257 52.9636 88.7536 56.5733 94.1939C61.1582 101.102 65.2048 111.065 66.3292 118.214C66.8059 121.243 68.506 124.814 70.3937 126.754C73.7502 130.201 73.4726 131.569 68.5805 135.701C67.7812 136.377 66.7635 139.273 66.3189 142.136C65.2112 149.265 61.1685 159.232 56.5733 166.156C53.087 171.411 52.2954 171.929 47.7657 171.929C42.4701 171.929 34.6957 169.81 34.6957 168.365C34.6957 167.889 36.7684 165.595 39.3025 163.266C43.7281 159.202 50.9397 148.917 49.9502 148.083C49.6881 147.862 46.8713 148.035 43.6909 148.47C35.4693 149.589 22.8722 147.918 16.6385 144.879C9.71993 141.506 0 132.916 0 130.175C0 127.447 9.70708 118.85 16.555 115.511C23.0816 112.33 35.387 110.638 43.4005 111.82C46.7402 112.314 49.6881 112.525 49.9502 112.291C50.8587 111.481 43.9414 101.298 39.2678 96.5628L38.9153 96.2059C36.2587 93.516 35.1049 92.3477 35.3409 91.5598C35.5222 90.9547 36.5228 90.5739 38.2918 89.9007ZM205.014 118.706C206.375 110.832 209.165 103.769 214.084 95.7486C218.323 88.8346 218.853 88.4208 223.465 88.4208C228.335 88.4208 236.445 90.5195 236.445 91.7807C236.445 92.1455 234.173 94.7993 231.396 97.6792C228.619 100.558 225.211 105.04 223.823 107.641L221.299 112.368H234.976C247.328 112.368 249.274 112.685 255.078 115.642C258.611 117.442 264.08 121.45 267.231 124.546L272.96 130.175L267.231 135.804C264.08 138.9 258.611 142.908 255.078 144.708C249.274 147.665 247.328 147.982 234.976 147.982H221.299L223.823 152.709C225.211 155.31 228.619 159.792 231.396 162.671C234.173 165.551 236.445 168.205 236.445 168.569C236.445 169.827 228.341 171.929 223.496 171.929C218.958 171.929 218.349 171.467 214.184 164.868C209.377 157.251 206.415 149.749 205.014 141.644C204.529 138.834 203.017 135.57 201.655 134.392C200.293 133.214 199.179 131.317 199.179 130.175C199.179 129.033 200.293 127.136 201.655 125.958C203.017 124.78 204.529 121.516 205.014 118.706ZM11.5652 130.252C11.5652 128.586 23.9889 123.699 30.1981 122.923C33.7319 122.481 39.3423 122.513 42.6667 122.995C49.778 124.022 60.3962 128.264 60.3962 130.076C60.3962 131.295 52.6475 135.096 46.5051 136.889C39.6957 138.877 27.0241 137.698 19.2201 134.35C15.0104 132.545 11.5652 130.701 11.5652 130.252ZM211.05 129.913C211.283 129.244 214.635 127.366 218.498 125.742C228.035 121.728 244.289 121.987 253.471 126.299C256.829 127.876 259.575 129.62 259.575 130.175C259.575 130.73 256.829 132.476 253.471 134.057C248.371 136.458 245.362 136.929 235.16 136.929C224.926 136.929 221.956 136.46 216.789 134.029C213.399 132.435 210.816 130.581 211.05 129.913ZM79.6407 171.7C85.7767 152.714 104.52 136.535 124.786 132.732C133.481 131.1 133.643 131.138 133.643 134.829C133.643 150.593 119.802 170.95 103.22 179.576C97.0027 182.809 84.0471 186.666 79.4017 186.666C76.3035 186.666 76.3806 181.784 79.6407 171.7ZM143.217 154.104C139.513 146.098 136.931 135.814 137.973 133.217C138.776 131.218 143.003 131.614 153.561 134.677C174.235 140.675 190.468 158.737 193.969 179.642C194.51 182.87 194.464 185.801 193.867 186.154C191.796 187.376 177.943 184.169 170.908 180.839C161.05 176.171 147.275 162.873 143.217 154.104ZM124.077 196.504C125.529 196.497 128.677 195.109 131.073 193.42C133.468 191.732 135.642 190.35 135.906 190.35C136.169 190.35 138.279 191.732 140.596 193.42C142.913 195.109 146.199 196.502 147.899 196.516C152.945 196.559 167.524 201.978 173.937 206.194C178.36 209.102 179.904 210.914 179.904 213.198C179.904 217.341 177.251 227.192 176.136 227.192C175.646 227.192 173.545 225.461 171.47 223.343C168.018 219.823 157.252 212.457 155.557 212.455C155.166 212.454 154.846 217.567 154.846 223.815C154.846 232.09 154.174 236.841 152.369 241.311C149.88 247.481 138.509 260.35 135.547 260.35C132.852 260.35 123.287 249.435 120.037 242.652C116.349 234.952 114.84 223.442 116.684 217.061C117.527 214.145 117.558 212.455 116.77 212.455C114.088 212.455 107.25 216.66 101.341 221.942L95.1433 227.482L93.9418 224.462C93.2813 222.801 92.3484 218.941 91.869 215.885C91.062 210.741 91.2677 210.148 94.6511 207.869C102.92 202.298 117.843 196.535 124.077 196.504ZM128.47 233.11C126.553 224.863 128.318 213.521 132.68 206.058C134.144 203.553 135.704 201.716 136.146 201.978C136.587 202.238 138.361 205.117 140.09 208.375C142.721 213.337 143.234 216.089 143.253 225.35C143.273 235.073 142.849 237.179 139.722 242.85C137.769 246.395 135.902 249.297 135.574 249.297C134.23 249.297 129.984 239.621 128.47 233.11Z" fill="url(#paint0_linear_502_3)"/>
<defs>
<linearGradient id="paint0_linear_502_3" x1="136.48" y1="0" x2="136.48" y2="260.35" gradientUnits="userSpaceOnUse">
<stop stop-color="#AEB1B1"/>
<stop offset="1" stop-color="#4D4D4D"/>
</linearGradient>
</defs>
</svg>
