<svg width="338" height="329" viewBox="0 0 338 329" fill="none" xmlns="http://www.w3.org/2000/svg">
<path opacity="0.07" fill-rule="evenodd" clip-rule="evenodd" d="M112.555 3.21873V6.43745H109.244H105.934V9.65618V12.8749H102.623H99.3129V16.0936V19.3124H96.0025H92.6921V22.5311V25.7498H89.3817H86.0712V22.5311V19.3124H82.7608H79.4504V16.0936V12.8749H76.1399H72.8295V9.65618V6.43745H69.5191H66.2086V9.65618V12.8749H62.8982H59.5878V16.0936V19.3124H56.2773H52.9669V22.5311V25.7498H49.6565H46.346V28.9685V32.1873H43.0356H39.7252V35.406V38.6247H36.4147H33.1043V41.8434V45.0622H29.7939H26.4835V48.2809V51.4996H23.173H19.8626V54.7183V57.9371H16.5522H13.2417V61.1558V64.3745H9.93129H6.62086V67.5932V70.812H9.93129H13.2417V74.0307V77.2494H16.5522H19.8626V80.4681V83.6869H23.173H26.4835V86.9056V90.1243H23.173H19.8626V93.343V96.5618H16.5522H13.2417V99.7805V102.999H9.93129H6.62086V106.218V109.437H3.31043H0V112.655V115.874H3.31043H6.62086V119.093V122.312H9.93129H13.2417V125.53V128.749H16.5522H19.8626V131.968V135.186H23.173H26.4835V138.405V141.624H23.173H19.8626V144.843V148.061H16.5522H13.2417V151.28V154.499H9.93129H6.62086V157.718V160.936H3.31043H0V164.155V167.374H3.31043H6.62086V170.592V173.811H9.93129H13.2417V177.03V180.249H16.5522H19.8626V183.467V186.686H23.173H26.4835V189.905V193.124H23.173H19.8626V196.342V199.561H16.5522H13.2417V202.78V205.998H9.93129H6.62086V209.217V212.436H3.31043H0V215.655V218.873H3.31043H6.62086V222.092V225.311H9.93129H13.2417V228.53V231.748H16.5522H19.8626V234.967V238.186H23.173H26.4835V241.404V244.623H23.173H19.8626V247.842V251.061H16.5522H13.2417V254.279V257.498H9.93129H6.62086V260.717V263.935H9.93129H13.2417V267.154V270.373H16.5522H19.8626V273.592V276.81H23.173H26.4835V280.029V283.248H29.7939H33.1043V286.467V289.685H36.4147H39.7252V292.904V296.123H43.0356H46.346V299.341V302.56H49.6565H52.9669V305.779V308.998H56.2773H59.5878V312.216V315.435H62.8982H66.2086V318.654V321.873H69.5191H72.8295V318.654V315.435H76.1399H79.4504V312.216V308.998H82.7608H86.0712V305.779V302.56H89.3817H92.6921V305.779V308.998H96.0025H99.3129V312.216V315.435H102.623H105.934V318.654V321.873H109.244H112.555V325.091V328.31H115.865H119.176V325.091V321.873H122.486H125.796V318.654V315.435H129.107H132.417V312.216V308.998H135.728H139.038V305.779V302.56H142.349H145.659V305.779V308.998H148.969H152.28V312.216V315.435H155.59H158.901V318.654V321.873H162.211H165.522V325.091V328.31H168.832H172.142V325.091V321.873H175.453H178.763V318.654V315.435H182.074H185.384V312.216V308.998H188.695H192.005V305.779V302.56H195.315H198.626V305.779V308.998H201.936H205.247V312.216V315.435H208.557H211.868V318.654V321.873H215.178H218.488V325.091V328.31H221.799H225.109V325.091V321.873H228.42H231.73V318.654V315.435H235.041H238.351V312.216V308.998H241.662H244.972V305.779V302.56H248.282H251.593V305.779V308.998H254.903H258.214V312.216V315.435H261.524H264.835V318.654V321.873H268.145H271.455V318.654V315.435H274.766H278.076V312.216V308.998H281.387H284.697V305.779V302.56H288.008H291.318V299.341V296.123H294.628H297.939V292.904V289.685H301.249H304.56V286.467V283.248H307.87H311.181V280.029V276.81H314.491H317.801V273.592V270.373H321.112H324.422V267.154V263.935H327.733H331.043V260.717V257.498H327.733H324.422V254.279V251.061H321.112H317.801V247.842V244.623H314.491H311.181V241.404V238.186H314.491H317.801V234.967V231.748H321.112H324.422V228.53V225.311H327.733H331.043V222.101V218.891L334.426 218.812L337.808 218.733L337.889 215.515L337.97 212.296L334.506 212.382L331.043 212.469V209.234V205.998H327.733H324.422V202.78V199.561H321.112H317.801V196.342V193.124H314.491H311.181V189.905V186.686H314.491H317.801V183.467V180.249H321.112H324.422V177.03V173.811H327.733H331.043V170.601V167.391L334.426 167.313L337.808 167.234L337.889 164.015L337.97 160.796L334.506 160.883L331.043 160.969V157.734V154.499H327.733H324.422V151.28V148.061H321.112H317.801V144.843V141.624H314.491H311.181V138.405V135.186H314.491H317.801V131.968V128.749H321.112H324.422V125.53V122.312H327.733H331.043V119.102V115.892L334.426 115.813L337.808 115.734L337.889 112.515L337.97 109.297L334.506 109.383L331.043 109.47V106.234V102.999H327.733H324.422V99.7805V96.5618H321.112H317.801V93.343V90.1243H314.491H311.181V86.9056V83.6869H314.491H317.801V80.4681V77.2494H321.112H324.422V74.0307V70.812H327.733H331.043V67.5932V64.3745H327.733H324.422V61.1558V57.9371H321.112H317.801V54.7183V51.4996H314.491H311.181V48.2809V45.0622H307.87H304.56V41.8434V38.6247H301.249H297.939V35.406V32.1873H294.628H291.318V28.9685V25.7498H288.008H284.697V22.5311V19.3124H281.387H278.076V16.0936V12.8749H274.766H271.455V9.65618V6.43745H268.145H264.835V9.65618V12.8749H261.524H258.214V16.0936V19.3124H254.903H251.593V22.5311V25.7498H248.282H244.972V22.5311V19.3124H241.662H238.351V16.0936V12.8749H235.041H231.73V9.65618V6.43745H228.42H225.109V3.21873V0H221.799H218.488V3.21873V6.43745H215.178H211.868V9.65618V12.8749H208.557H205.247V16.0936V19.3124H201.936H198.626V22.5311V25.7498H195.315H192.005V22.5311V19.3124H188.695H185.384V16.0936V12.8749H182.074H178.763V9.65618V6.43745H175.453H172.142V3.21873V0H168.832H165.522V3.21873V6.43745H162.211H158.901V9.65618V12.8749H155.59H152.28V16.0936V19.3124H148.969H145.659V22.5311V25.7498H142.349H139.038V22.5311V19.3124H135.728H132.417V16.0936V12.8749H129.107H125.796V9.65618V6.43745H122.486H119.176V3.21873V0H115.865H112.555V3.21873ZM112.555 9.65618V12.8749H109.244H105.934V16.0936V19.3124H102.623H99.3129V22.5311V25.7498H96.0025H92.6921V28.9685V32.1873H89.3817H86.0712V28.9685V25.7498H82.7608H79.4504V22.5311V19.3124H76.1399H72.8295V16.0936V12.8749H69.5191H66.2086V16.0936V19.3124H62.8982H59.5878V22.5311V25.7498H56.2773H52.9669V28.9685V32.1873H49.6565H46.346V35.406V38.6247H43.0356H39.7252V41.8434V45.0622H36.4147H33.1043V48.2809V51.4996H29.7939H26.4835V54.7183V57.9371H23.173H19.8626V61.1558V64.3745H16.5522H13.2417V67.5932V70.812H16.5522H19.8626V74.0307V77.2494H23.173H26.4835V80.4681V83.6869H29.7939H33.1043V86.9056V90.1243H29.7939H26.4835V93.343V96.5618H23.173H19.8626V99.7805V102.999H16.5522H13.2417V106.218V109.437H9.93129H6.62086V112.655V115.874H9.93129H13.2417V119.093V122.312H16.5522H19.8626V125.53V128.749H23.173H26.4835V131.968V135.186H29.7939H33.1043V138.405V141.624H29.7939H26.4835V144.843V148.061H23.173H19.8626V151.28V154.499H16.5522H13.2417V157.718V160.936H9.93129H6.62086V164.155V167.374H9.93129H13.2417V170.592V173.811H16.5522H19.8626V177.03V180.249H23.173H26.4835V183.467V186.686H29.7939H33.1043V189.905V193.124H29.7939H26.4835V196.342V199.561H23.173H19.8626V202.78V205.998H16.5522H13.2417V209.217V212.436H9.93129H6.62086V215.655V218.873H9.93129H13.2417V222.092V225.311H16.5522H19.8626V228.53V231.748H23.173H26.4835V234.967V238.186H29.7939H33.1043V241.404V244.623H29.7939H26.4835V247.842V251.061H23.173H19.8626V254.279V257.498H16.5522H13.2417V260.717V263.935H16.5522H19.8626V267.154V270.373H23.173H26.4835V273.592V276.81H29.7939H33.1043V280.029V283.248H36.4147H39.7252V286.467V289.685H43.0356H46.346V292.904V296.123H49.6565H52.9669V299.341V302.56H56.2773H59.5878V305.779V308.998H62.8982H66.2086V312.216V315.435H69.5191H72.8295V312.216V308.998H76.1399H79.4504V305.779V302.56H82.7608H86.0712V299.341V296.123H89.3817H92.6921V299.341V302.56H96.0025H99.3129V305.779V308.998H102.623H105.934V312.216V315.435H109.244H112.555V318.654V321.873H115.865H119.176V318.654V315.435H122.486H125.796V312.216V308.998H129.107H132.417V305.779V302.56H135.728H139.038V299.341V296.123H142.349H145.659V299.341V302.56H148.969H152.28V305.779V308.998H155.59H158.901V312.216V315.435H162.211H165.522V318.654V321.873H168.832H172.142V318.654V315.435H175.453H178.763V312.216V308.998H182.074H185.384V305.779V302.56H188.695H192.005V299.341V296.123H195.315H198.626V299.341V302.56H201.936H205.247V305.779V308.998H208.557H211.868V312.216V315.435H215.178H218.488V318.654V321.873H221.799H225.109V318.654V315.435H228.42H231.73V312.216V308.998H235.041H238.351V305.779V302.56H241.662H244.972V299.341V296.123H248.282H251.593V299.341V302.56H254.903H258.214V305.779V308.998H261.524H264.835V312.216V315.435H268.145H271.455V312.216V308.998H274.766H278.076V305.779V302.56H281.387H284.697V299.341V296.123H288.008H291.318V292.904V289.685H294.628H297.939V286.467V283.248H301.249H304.56V280.029V276.81H307.87H311.181V273.592V270.373H314.491H317.801V267.154V263.935H321.112H324.422V260.717V257.498H321.112H317.801V254.279V251.061H314.491H311.181V247.842V244.623H307.87H304.56V241.404V238.186H307.87H311.181V234.967V231.748H314.491H317.801V228.53V225.311H321.112H324.422V222.092V218.873H327.733H331.043V215.655V212.436H327.733H324.422V209.217V205.998H321.112H317.801V202.78V199.561H314.491H311.181V196.342V193.124H307.87H304.56V189.905V186.686H307.87H311.181V183.467V180.249H314.491H317.801V177.03V173.811H321.112H324.422V170.592V167.374H327.733H331.043V164.155V160.936H327.733H324.422V157.718V154.499H321.112H317.801V151.28V148.061H314.491H311.181V144.843V141.624H307.87H304.56V138.405V135.186H307.87H311.181V131.968V128.749H314.491H317.801V125.53V122.312H321.112H324.422V119.093V115.874H327.733H331.043V112.655V109.437H327.733H324.422V106.218V102.999H321.112H317.801V99.7805V96.5618H314.491H311.181V93.343V90.1243H307.87H304.56V86.9056V83.6869H307.87H311.181V80.4681V77.2494H314.491H317.801V74.0307V70.812H321.112H324.422V67.5932V64.3745H321.112H317.801V61.1558V57.9371H314.491H311.181V54.7183V51.4996H307.87H304.56V48.2809V45.0622H301.249H297.939V41.8434V38.6247H294.628H291.318V35.406V32.1873H288.008H284.697V28.9685V25.7498H281.387H278.076V22.5311V19.3124H274.766H271.455V16.0936V12.8749H268.145H264.835V16.0936V19.3124H261.524H258.214V22.5311V25.7498H254.903H251.593V28.9685V32.1873H248.282H244.972V28.9685V25.7498H241.662H238.351V22.5311V19.3124H235.041H231.73V16.0936V12.8749H228.42H225.109V9.65618V6.43745H221.799H218.488V9.65618V12.8749H215.178H211.868V16.0936V19.3124H208.557H205.247V22.5311V25.7498H201.936H198.626V28.9685V32.1873H195.315H192.005V28.9685V25.7498H188.695H185.384V22.5311V19.3124H182.074H178.763V16.0936V12.8749H175.453H172.142V9.65618V6.43745H168.832H165.522V9.65618V12.8749H162.211H158.901V16.0936V19.3124H155.59H152.28V22.5311V25.7498H148.969H145.659V28.9685V32.1873H142.349H139.038V28.9685V25.7498H135.728H132.417V22.5311V19.3124H129.107H125.796V16.0936V12.8749H122.486H119.176V9.65618V6.43745H115.865H112.555V9.65618ZM112.555 16.0936V19.3124H109.244H105.934V22.5311V25.7498H102.623H99.3129V28.9685V32.1873H96.0025H92.6921V35.406V38.6247H89.3817H86.0712V35.406V32.1873H82.7608H79.4504V28.9685V25.7498H76.1399H72.8295V22.5311V19.3124H69.5191H66.2086V22.5311V25.7498H62.8982H59.5878V28.9685V32.1873H56.2773H52.9669V35.406V38.6247H49.6565H46.346V41.8434V45.0622H43.0356H39.7252V48.2809V51.4996H36.4147H33.1043V54.7183V57.9371H29.7939H26.4835V61.1558V64.3745H23.173H19.8626V67.5932V70.812H23.173H26.4835V74.0307V77.2494H29.7939H33.1043V80.4681V83.6869H36.4147H39.7252V86.9056V90.1243H36.4147H33.1043V93.343V96.5618H29.7939H26.4835V99.7805V102.999H23.173H19.8626V106.218V109.437H16.5522H13.2417V112.655V115.874H16.5522H19.8626V119.093V122.312H23.173H26.4835V125.53V128.749H29.7939H33.1043V131.968V135.186H36.4147H39.7252V138.405V141.624H36.4147H33.1043V144.843V148.061H29.7939H26.4835V151.28V154.499H23.173H19.8626V157.718V160.936H16.5522H13.2417V164.155V167.374H16.5522H19.8626V170.592V173.811H23.173H26.4835V177.03V180.249H29.7939H33.1043V183.467V186.686H36.4147H39.7252V189.905V193.124H36.4147H33.1043V196.342V199.561H29.7939H26.4835V202.78V205.998H23.173H19.8626V209.217V212.436H16.5522H13.2417V215.655V218.873H16.5522H19.8626V222.092V225.311H23.173H26.4835V228.53V231.748H29.7939H33.1043V234.967V238.186H36.4147H39.7252V241.404V244.623H36.4147H33.1043V247.842V251.061H29.7939H26.4835V254.279V257.498H23.173H19.8626V260.717V263.935H23.173H26.4835V267.154V270.373H29.7939H33.1043V273.592V276.81H36.4147H39.7252V280.029V283.248H43.0356H46.346V286.467V289.685H49.6565H52.9669V292.904V296.123H56.2773H59.5878V299.341V302.56H62.8982H66.2086V305.779V308.998H69.5191H72.8295V305.779V302.56H76.1399H79.4504V299.341V296.123H82.7608H86.0712V292.904V289.685H89.3817H92.6921V292.904V296.123H96.0025H99.3129V299.341V302.56H102.623H105.934V305.779V308.998H109.244H112.555V312.216V315.435H115.865H119.176V312.216V308.998H122.486H125.796V305.779V302.56H129.107H132.417V299.341V296.123H135.728H139.038V292.904V289.685H142.349H145.659V292.904V296.123H148.969H152.28V299.341V302.56H155.59H158.901V305.779V308.998H162.211H165.522V312.216V315.435H168.832H172.142V312.216V308.998H175.453H178.763V305.779V302.56H182.074H185.384V299.341V296.123H188.695H192.005V292.904V289.685H195.315H198.626V292.904V296.123H201.936H205.247V299.341V302.56H208.557H211.868V305.779V308.998H215.178H218.488V312.216V315.435H221.799H225.109V312.216V308.998H228.42H231.73V305.779V302.56H235.041H238.351V299.341V296.123H241.662H244.972V292.904V289.685H248.282H251.593V292.904V296.123H254.903H258.214V299.341V302.56H261.524H264.835V305.779V308.998H268.145H271.455V305.779V302.56H274.766H278.076V299.341V296.123H281.387H284.697V292.904V289.685H288.008H291.318V286.467V283.248H294.628H297.939V280.029V276.81H301.249H304.56V273.592V270.373H307.87H311.181V267.154V263.935H314.491H317.801V260.717V257.498H314.491H311.181V254.279V251.061H307.87H304.56V247.842V244.623H301.249H297.939V241.404V238.186H301.249H304.56V234.967V231.748H307.87H311.181V228.53V225.311H314.491H317.801V222.092V218.873H321.112H324.422V215.655V212.436H321.112H317.801V209.217V205.998H314.491H311.181V202.78V199.561H307.87H304.56V196.342V193.124H301.249H297.939V189.905V186.686H301.249H304.56V183.467V180.249H307.87H311.181V177.03V173.811H314.491H317.801V170.592V167.374H321.112H324.422V164.155V160.936H321.112H317.801V157.718V154.499H314.491H311.181V151.28V148.061H307.87H304.56V144.843V141.624H301.249H297.939V138.405V135.186H301.249H304.56V131.968V128.749H307.87H311.181V125.53V122.312H314.491H317.801V119.093V115.874H321.112H324.422V112.655V109.437H321.112H317.801V106.218V102.999H314.491H311.181V99.7805V96.5618H307.87H304.56V93.343V90.1243H301.249H297.939V86.9056V83.6869H301.249H304.56V80.4681V77.2494H307.87H311.181V74.0307V70.812H314.491H317.801V67.5932V64.3745H314.491H311.181V61.1558V57.9371H307.87H304.56V54.7183V51.4996H301.249H297.939V48.2809V45.0622H294.628H291.318V41.8434V38.6247H288.008H284.697V35.406V32.1873H281.387H278.076V28.9685V25.7498H274.766H271.455V22.5311V19.3124H268.145H264.835V22.5311V25.7498H261.524H258.214V28.9685V32.1873H254.903H251.593V35.406V38.6247H248.282H244.972V35.406V32.1873H241.662H238.351V28.9685V25.7498H235.041H231.73V22.5311V19.3124H228.42H225.109V16.0936V12.8749H221.799H218.488V16.0936V19.3124H215.178H211.868V22.5311V25.7498H208.557H205.247V28.9685V32.1873H201.936H198.626V35.406V38.6247H195.315H192.005V35.406V32.1873H188.695H185.384V28.9685V25.7498H182.074H178.763V22.5311V19.3124H175.453H172.142V16.0936V12.8749H168.832H165.522V16.0936V19.3124H162.211H158.901V22.5311V25.7498H155.59H152.28V28.9685V32.1873H148.969H145.659V35.406V38.6247H142.349H139.038V35.406V32.1873H135.728H132.417V28.9685V25.7498H129.107H125.796V22.5311V19.3124H122.486H119.176V16.0936V12.8749H115.865H112.555V16.0936ZM112.555 22.5311V25.7498H109.244H105.934V28.9685V32.1873H102.623H99.3129V35.406V38.6247H96.0025H92.6921V41.8434V45.0622H96.0025H99.3129V48.2809V51.4996H102.623H105.934V54.7183V57.9371H109.244H112.555V61.1558V64.3745H115.865H119.176V67.5932V70.812H115.865H112.555V74.0307V77.2494H109.244H105.934V80.4681V83.6869H102.623H99.3129V86.9056V90.1243H96.0025H92.6921V93.343V96.5618H89.3817H86.0712V99.7805V102.999H82.7608H79.4504V106.218V109.437H76.1399H72.8295V112.655V115.874H69.5191H66.2086V112.655V109.437H62.8982H59.5878V106.218V102.999H56.2773H52.9669V99.7805V96.5618H49.6565H46.346V93.343V90.1243H43.0356H39.7252V93.343V96.5618H36.4147H33.1043V99.7805V102.999H29.7939H26.4835V106.218V109.437H23.173H19.8626V112.655V115.874H23.173H26.4835V119.093V122.312H29.7939H33.1043V125.53V128.749H36.4147H39.7252V131.968V135.186H44.6189H49.5125V138.405V141.624H51.2397H52.9669V144.843V148.061H49.6565H46.346V144.843V141.624H44.6189H42.8917V144.843V148.061H44.6189H46.346V151.28V154.499H43.0356H39.7252V151.28V148.061H37.998H36.2708V151.28V154.499H37.998H39.7252V157.718V160.936H36.4147H33.1043V157.718V154.499H29.7939H26.4835V157.718V160.936H23.173H19.8626V164.155V167.374H23.173H26.4835V170.592V173.811H29.7939H33.1043V177.03V180.249H36.4147H39.7252V183.467V186.686H43.0356H46.346V189.905V193.124H43.0356H39.7252V196.342V199.561H36.4147H33.1043V202.78V205.998H29.7939H26.4835V209.217V212.436H23.173H19.8626V215.655V218.873H23.173H26.4835V222.092V225.311H29.7939H33.1043V228.53V231.748H36.4147H39.7252V234.967V238.186H43.0356H46.346V234.967V231.748H49.6565H52.9669V228.53V225.311H56.2773H59.5878V222.092V218.873H62.8982H66.2086V215.655V212.436H69.5191H72.8295V215.655V218.873H76.1399H79.4504V222.092V225.311H82.7608H86.0712V228.53V231.748H89.3817H92.6921V234.967V238.186H96.0025H99.3129V241.404V244.623H102.623H105.934V247.842V251.061H109.244H112.555V254.279V257.498H115.865H119.176V260.717V263.935H115.865H112.555V267.154V270.373H109.244H105.934V273.592V276.81H102.623H99.3129V280.029V283.248H96.0025H92.6921V286.467V289.685H96.0025H99.3129V292.904V296.123H102.623H105.934V299.341V302.56H109.244H112.555V305.779V308.998H115.865H119.176V305.779V302.56H122.486H125.796V299.341V296.123H129.107H132.417V292.904V289.685H135.728H139.038V284.927V280.169H142.349H145.659V278.49V276.81H148.969H152.28V280.029V283.248H148.969H145.659V284.927V286.607H148.969H152.28V284.927V283.248H155.59H158.901V286.467V289.685H155.59H152.28V291.365V293.044H155.59H158.901V291.365V289.685H162.211H165.522V292.904V296.123H162.211H158.901V299.341V302.56H162.211H165.522V305.779V308.998H168.832H172.142V305.779V302.56H175.453H178.763V299.341V296.123H182.074H185.384V292.904V289.685H188.695H192.005V286.467V283.248H195.315H198.626V286.467V289.685H201.936H205.247V292.904V296.123H208.557H211.868V299.341V302.56H215.178H218.488V305.779V308.998H221.799H225.109V305.779V302.56H228.42H231.73V299.341V296.123H235.041H238.351V292.904V289.685H241.662H244.972V286.467V283.248H241.662H238.351V280.029V276.81H235.041H231.73V273.592V270.373H228.42H225.109V267.154V263.935H221.799H218.488V260.717V257.498H221.799H225.109V254.279V251.061H228.42H231.73V247.842V244.623H235.041H238.351V241.404V238.186H241.662H244.972V234.967V231.748H248.282H251.593V228.53V225.311H254.903H258.214V222.092V218.873H261.524H264.835V215.655V212.436H268.145H271.455V215.655V218.873H274.766H278.076V222.092V225.311H281.387H284.697V228.53V231.748H288.008H291.318V234.967V238.186H294.628H297.939V234.967V231.748H301.249H304.56V228.53V225.311H307.87H311.181V222.092V218.873H314.491H317.801V215.655V212.436H314.491H311.181V209.217V205.998H307.87H304.56V202.78V199.561H301.249H297.939V196.342V193.124H293.045H288.151V189.905V186.686H286.424H284.697V183.467V180.249H288.008H291.318V183.467V186.686H293.045H294.772V183.467V180.249H293.045H291.318V177.03V173.811H294.628H297.939V177.03V180.249H299.666H301.393V177.03V173.811H299.666H297.939V170.592V167.374H301.249H304.56V170.592V173.811H307.87H311.181V170.592V167.374H314.491H317.801V164.155V160.936H314.491H311.181V157.718V154.499H307.87H304.56V151.28V148.061H301.249H297.939V144.843V141.624H294.628H291.318V138.405V135.186H294.628H297.939V131.968V128.749H301.249H304.56V125.53V122.312H307.87H311.181V119.093V115.874H314.491H317.801V112.655V109.437H314.491H311.181V106.218V102.999H307.87H304.56V99.7805V96.5618H301.249H297.939V93.343V90.1243H294.628H291.318V93.343V96.5618H288.008H284.697V99.7805V102.999H281.387H278.076V106.218V109.437H274.766H271.455V112.655V115.874H268.145H264.835V112.655V109.437H261.524H258.214V106.218V102.999H254.903H251.593V99.7805V96.5618H248.282H244.972V93.343V90.1243H241.662H238.351V86.9056V83.6869H235.041H231.73V80.4681V77.2494H228.42H225.109V74.0307V70.812H221.799H218.488V67.5932V64.3745H221.799H225.109V61.1558V57.9371H228.42H231.73V54.7183V51.4996H235.041H238.351V48.2809V45.0622H241.662H244.972V41.8434V38.6247H241.662H238.351V35.406V32.1873H235.041H231.73V28.9685V25.7498H228.42H225.109V22.5311V19.3124H221.799H218.488V22.5311V25.7498H215.178H211.868V28.9685V32.1873H208.557H205.247V35.406V38.6247H201.936H198.626V43.3828V48.1409H195.315H192.005V49.8203V51.4996H188.695H185.384V48.2809V45.0622H188.695H192.005V43.3828V41.7035H188.695H185.384V43.3828V45.0622H182.074H178.763V41.8434V38.6247H182.074H185.384V36.9454V35.266H182.074H178.763V36.9454V38.6247H175.453H172.142V35.406V32.1873H175.453H178.763V28.9685V25.7498H175.453H172.142V22.5311V19.3124H168.832H165.522V22.5311V25.7498H162.211H158.901V28.9685V32.1873H155.59H152.28V35.406V38.6247H148.969H145.659V41.8434V45.0622H142.349H139.038V41.8434V38.6247H135.728H132.417V35.406V32.1873H129.107H125.796V28.9685V25.7498H122.486H119.176V22.5311V19.3124H115.865H112.555V22.5311ZM112.555 28.9685V32.1873H109.244H105.934V35.406V38.6247H102.623H99.3129V41.8434V45.0622H102.623H105.934V48.2809V51.4996H109.244H112.555V54.7183V57.9371H115.865H119.176V61.1558V64.3745H122.486H125.796V67.5932V70.812H122.486H119.176V74.0307V77.2494H115.865H112.555V80.4681V83.6869H109.244H105.934V86.9056V90.1243H102.623H99.3129V93.343V96.5618H96.0025H92.6921V99.7805V102.999H89.3817H86.0712V106.218V109.437H82.7608H79.4504V112.655V115.874H76.1399H72.8295V119.093V122.312H69.5191H66.2086V119.093V115.874H62.8982H59.5878V112.655V109.437H56.2773H52.9669V106.218V102.999H49.6565H46.346V99.7805V96.5618H43.0356H39.7252V99.7805V102.999H36.4147H33.1043V106.218V109.437H29.7939H26.4835V112.655V115.874H29.7939H33.1043V119.093V122.312H36.4147H39.7252V125.53V128.749H43.0356H46.346V125.53V122.312H49.6565H52.9669V119.093V115.874H56.2773H59.5878V119.093V122.312H58.0045H56.4213V125.53V128.749H58.0045H59.5878V131.968V135.186H57.8606H56.1334V131.968V128.749H52.9669H49.8004V131.968V135.186H51.3837H52.9669V138.405V141.624H56.2773H59.5878V144.843V148.061H56.2773H52.9669V151.28V154.499H49.6565H46.346V157.718V160.936H43.0356H39.7252V164.155V167.374H36.4147H33.1043V164.155V160.936H29.7939H26.4835V164.155V167.374H29.7939H33.1043V170.592V173.811H36.4147H39.7252V177.03V180.249H43.0356H46.346V183.467V186.686H49.6565H52.9669V189.905V193.124H49.6565H46.346V196.342V199.561H43.0356H39.7252V202.78V205.998H36.4147H33.1043V209.217V212.436H29.7939H26.4835V215.655V218.873H29.7939H33.1043V222.092V225.311H36.4147H39.7252V228.53V231.748H43.0356H46.346V228.53V225.311H49.6565H52.9669V222.092V218.873H56.2773H59.5878V215.655V212.436H62.8982H66.2086V209.217V205.998H69.5191H72.8295V209.217V212.436H76.1399H79.4504V215.655V218.873H82.7608H86.0712V222.092V225.311H89.3817H92.6921V228.53V231.748H96.0025H99.3129V234.967V238.186H102.623H105.934V241.404V244.623H109.244H112.555V247.842V251.061H115.865H119.176V254.279V257.498H122.486H125.796V260.717V263.935H122.486H119.176V267.154V270.373H115.865H112.555V273.592V276.81H109.244H105.934V280.029V283.248H102.623H99.3129V286.467V289.685H102.623H105.934V292.904V296.123H109.244H112.555V299.341V302.56H115.865H119.176V299.341V296.123H122.486H125.796V292.904V289.685H129.107H132.417V286.467V283.248H129.107H125.796V280.029V276.81H122.486H119.176V273.592V270.373H122.486H125.796V271.912V273.452H129.107H132.417V271.912V270.373H135.728H139.038V272.052V273.732H135.728H132.417V276.81V279.889H135.728H139.038V278.35V276.81H142.349H145.659V273.592V270.373H148.969H152.28V273.592V276.81H155.59H158.901V280.029V283.248H162.211H165.522V286.467V289.685H168.832H172.142V292.904V296.123H168.832H165.522V299.341V302.56H168.832H172.142V299.341V296.123H175.453H178.763V292.904V289.685H182.074H185.384V286.467V283.248H188.695H192.005V280.029V276.81H195.315H198.626V280.029V283.248H201.936H205.247V286.467V289.685H208.557H211.868V292.904V296.123H215.178H218.488V299.341V302.56H221.799H225.109V299.341V296.123H228.42H231.73V292.904V289.685H235.041H238.351V286.467V283.248H235.041H231.73V280.029V276.81H228.42H225.109V273.592V270.373H221.799H218.488V267.154V263.935H215.178H211.868V260.717V257.498H215.178H218.488V254.279V251.061H221.799H225.109V247.842V244.623H228.42H231.73V241.404V238.186H235.041H238.351V234.967V231.748H241.662H244.972V228.53V225.311H248.282H251.593V222.092V218.873H254.903H258.214V215.655V212.436H261.524H264.835V209.217V205.998H268.145H271.455V209.217V212.436H274.766H278.076V215.655V218.873H281.387H284.697V222.092V225.311H288.008H291.318V228.53V231.748H294.628H297.939V228.53V225.311H301.249H304.56V222.092V218.873H307.87H311.181V215.655V212.436H307.87H304.56V209.217V205.998H301.249H297.939V202.78V199.561H294.628H291.318V202.78V205.998H288.008H284.697V209.217V212.436H281.387H278.076V209.217V205.998H279.659H281.243V202.78V199.561H279.659H278.076V196.342V193.124H279.803H281.531V196.342V199.561H284.697H287.864V196.342V193.124H286.28H284.697V189.905V186.686H281.387H278.076V183.467V180.249H281.387H284.697V177.03V173.811H288.008H291.318V170.592V167.374H294.628H297.939V164.155V160.936H301.249H304.56V164.155V167.374H307.87H311.181V164.155V160.936H307.87H304.56V157.718V154.499H301.249H297.939V151.28V148.061H294.628H291.318V144.843V141.624H288.008H284.697V138.405V135.186H288.008H291.318V131.968V128.749H294.628H297.939V125.53V122.312H301.249H304.56V119.093V115.874H307.87H311.181V112.655V109.437H307.87H304.56V106.218V102.999H301.249H297.939V99.7805V96.5618H294.628H291.318V99.7805V102.999H288.008H284.697V106.218V109.437H281.387H278.076V112.655V115.874H274.766H271.455V119.093V122.312H268.145H264.835V119.093V115.874H261.524H258.214V112.655V109.437H254.903H251.593V106.218V102.999H248.282H244.972V99.7805V96.5618H241.662H238.351V93.343V90.1243H235.041H231.73V86.9056V83.6869H228.42H225.109V80.4681V77.2494H221.799H218.488V74.0307V70.812H215.178H211.868V67.5932V64.3745H215.178H218.488V61.1558V57.9371H221.799H225.109V54.7183V51.4996H228.42H231.73V48.2809V45.0622H235.041H238.351V41.8434V38.6247H235.041H231.73V35.406V32.1873H228.42H225.109V28.9685V25.7498H221.799H218.488V28.9685V32.1873H215.178H211.868V35.406V38.6247H208.557H205.247V41.8434V45.0622H208.557H211.868V48.2809V51.4996H215.178H218.488V54.7183V57.9371H215.178H211.868V56.3977V54.8583H208.557H205.247V56.3977V57.9371H201.936H198.626V56.2577V54.5784H201.936H205.247V51.4996V48.4208H201.936H198.626V49.9602V51.4996H195.315H192.005V54.7183V57.9371H188.695H185.384V54.7183V51.4996H182.074H178.763V48.2809V45.0622H175.453H172.142V41.8434V38.6247H168.832H165.522V35.406V32.1873H168.832H172.142V28.9685V25.7498H168.832H165.522V28.9685V32.1873H162.211H158.901V35.406V38.6247H155.59H152.28V41.8434V45.0622H148.969H145.659V48.2809V51.4996H142.349H139.038V48.2809V45.0622H135.728H132.417V41.8434V38.6247H129.107H125.796V35.406V32.1873H122.486H119.176V28.9685V25.7498H115.865H112.555V28.9685ZM112.555 35.406V38.6247H109.244H105.934V41.8434V45.0622H109.244H112.555V48.2809V51.4996H115.865H119.176V54.7183V57.9371H122.486H125.796V61.1558V64.3745H129.107H132.417V67.5932V70.812H129.107H125.796V74.0307V77.2494H122.486H119.176V80.4681V83.6869H115.865H112.555V86.9056V90.1243H109.244H105.934V93.343V96.5618H102.623H99.3129V99.7805V102.999H96.0025H92.6921V106.218V109.437H89.3817H86.0712V112.655V115.874H82.7608H79.4504V119.093V122.312H76.1399H72.8295V125.53V128.749H69.5191H66.2086V125.53V122.312H64.4814H62.7543V125.53V128.749H64.4814H66.2086V131.968V135.186H62.8982H59.5878V138.405V141.624H62.8982H66.2086V138.405V135.186H69.5191H72.8295V138.405V141.624H76.1399H79.4504V144.843V148.061H82.7608H86.0712V151.28V154.499H89.3817H92.6921V157.718V160.936H96.0025H99.3129V164.155V167.374H96.0025H92.6921V170.592V173.811H89.3817H86.0712V177.03V180.249H82.7608H79.4504V183.467V186.686H76.1399H72.8295V189.905V193.124H69.5191H66.2086V189.905V186.686H62.8982H59.5878V183.467V180.249H56.2773H52.9669V177.03V173.811H49.6565H46.346V170.592V167.374H43.0356H39.7252V170.592V173.811H43.0356H46.346V177.03V180.249H49.6565H52.9669V183.467V186.686H56.2773H59.5878V189.905V193.124H56.2773H52.9669V196.342V199.561H49.6565H46.346V202.78V205.998H43.0356H39.7252V209.217V212.436H36.4147H33.1043V215.655V218.873H36.4147H39.7252V222.092V225.311H43.0356H46.346V222.092V218.873H49.6565H52.9669V215.655V212.436H56.2773H59.5878V209.217V205.998H62.8982H66.2086V202.78V199.561H69.5191H72.8295V202.78V205.998H76.1399H79.4504V209.217V212.436H82.7608H86.0712V215.655V218.873H89.3817H92.6921V222.092V225.311H96.0025H99.3129V228.53V231.748H102.623H105.934V234.967V238.186H109.244H112.555V241.404V244.623H115.865H119.176V247.842V251.061H122.486H125.796V254.279V257.498H129.107H132.417V260.717V263.935H129.107H125.796V265.615V267.294H129.107H132.417V265.615V263.935H135.728H139.038V267.154V270.373H142.349H145.659V267.154V263.935H142.349H139.038V260.717V257.498H142.349H145.659V254.279V251.061H148.969H152.28V247.842V244.623H155.59H158.901V241.404V238.186H162.211H165.522V234.967V231.748H168.832H172.142V234.967V238.186H175.453H178.763V241.404V244.623H182.074H185.384V247.842V251.061H188.695H192.005V254.279V257.498H195.315H198.626V260.717V263.935H195.315H192.005V267.154V270.373H188.695H185.384V273.592V276.81H182.074H178.763V280.029V283.248H175.453H172.142V286.467V289.685H175.453H178.763V286.467V283.248H182.074H185.384V280.029V276.81H188.695H192.005V273.592V270.373H195.315H198.626V273.592V276.81H201.936H205.247V280.029V283.248H208.557H211.868V286.467V289.685H215.178H218.488V292.904V296.123H221.799H225.109V292.904V289.685H228.42H231.73V286.467V283.248H228.42H225.109V280.029V276.81H221.799H218.488V273.592V270.373H215.178H211.868V267.154V263.935H208.557H205.247V260.717V257.498H208.557H211.868V254.279V251.061H215.178H218.488V247.842V244.623H221.799H225.109V241.404V238.186H228.42H231.73V234.967V231.748H235.041H238.351V228.53V225.311H241.662H244.972V222.092V218.873H248.282H251.593V215.655V212.436H254.903H258.214V209.217V205.998H261.524H264.835V202.78V199.561H268.145H271.455V202.78V205.998H273.183H274.91V202.78V199.561H273.183H271.455V196.342V193.124H274.766H278.076V189.905V186.686H274.766H271.455V189.905V193.124H268.145H264.835V189.905V186.686H261.524H258.214V183.467V180.249H254.903H251.593V177.03V173.811H248.282H244.972V170.592V167.374H241.662H238.351V164.155V160.936H241.662H244.972V157.718V154.499H248.282H251.593V151.28V148.061H254.903H258.214V144.843V141.624H261.524H264.835V138.405V135.186H268.145H271.455V138.405V141.624H274.766H278.076V144.843V148.061H281.387H284.697V151.28V154.499H288.008H291.318V157.718V160.936H294.628H297.939V157.718V154.499H294.628H291.318V151.28V148.061H288.008H284.697V144.843V141.624H281.387H278.076V138.405V135.186H281.387H284.697V131.968V128.749H288.008H291.318V125.53V122.312H294.628H297.939V119.093V115.874H301.249H304.56V112.655V109.437H301.249H297.939V106.218V102.999H294.628H291.318V106.218V109.437H288.008H284.697V112.655V115.874H281.387H278.076V119.093V122.312H274.766H271.455V125.53V128.749H268.145H264.835V125.53V122.312H261.524H258.214V119.093V115.874H254.903H251.593V112.655V109.437H248.282H244.972V106.218V102.999H241.662H238.351V99.7805V96.5618H235.041H231.73V93.343V90.1243H228.42H225.109V86.9056V83.6869H221.799H218.488V80.4681V77.2494H215.178H211.868V74.0307V70.812H208.557H205.247V67.5932V64.3745H208.557H211.868V62.6952V61.0158H208.557H205.247V62.6952V64.3745H201.936H198.626V61.1558V57.9371H195.315H192.005V61.1558V64.3745H195.315H198.626V67.5932V70.812H195.315H192.005V74.0307V77.2494H188.695H185.384V80.4681V83.6869H182.074H178.763V86.9056V90.1243H175.453H172.142V93.343V96.5618H168.832H165.522V93.343V90.1243H162.211H158.901V86.9056V83.6869H155.59H152.28V80.4681V77.2494H148.969H145.659V74.0307V70.812H142.349H139.038V67.5932V64.3745H142.349H145.659V61.1558V57.9371H148.969H152.28V54.7183V51.4996H155.59H158.901V48.2809V45.0622H162.211H165.522V41.8434V38.6247H162.211H158.901V41.8434V45.0622H155.59H152.28V48.2809V51.4996H148.969H145.659V54.7183V57.9371H142.349H139.038V54.7183V51.4996H135.728H132.417V48.2809V45.0622H129.107H125.796V41.8434V38.6247H122.486H119.176V35.406V32.1873H115.865H112.555V35.406ZM218.488 35.406V38.6247H215.178H211.868V41.8434V45.0622H215.178H218.488V48.2809V51.4996H221.799H225.109V48.2809V45.0622H228.42H231.73V41.8434V38.6247H228.42H225.109V35.406V32.1873H221.799H218.488V35.406ZM112.555 41.8434V45.0622H115.865H119.176V48.2809V51.4996H122.486H125.796V54.7183V57.9371H129.107H132.417V61.1558V64.3745H135.728H139.038V61.1558V57.9371H135.728H132.417V54.7183V51.4996H129.107H125.796V48.2809V45.0622H122.486H119.176V41.8434V38.6247H115.865H112.555V41.8434ZM218.488 41.8434V45.0622H221.799H225.109V41.8434V38.6247H221.799H218.488V41.8434ZM66.2086 48.2809V51.4996H62.8982H59.5878V54.7183V57.9371H56.2773H52.9669V61.1558V64.3745H49.6565H46.346V67.5932V70.812H49.6565H52.9669V74.0307V77.2494H56.2773H59.5878V80.4681V83.6869H62.8982H66.2086V86.9056V90.1243H69.5191H72.8295V86.9056V83.6869H76.1399H79.4504V80.4681V77.2494H82.7608H86.0712V74.0307V70.812H89.3817H92.6921V67.5932V64.3745H89.3817H86.0712V61.1558V57.9371H82.7608H79.4504V54.7183V51.4996H76.1399H72.8295V48.2809V45.0622H69.5191H66.2086V48.2809ZM264.835 48.2809V51.4996H261.524H258.214V54.7183V57.9371H254.903H251.593V61.1558V64.3745H248.282H244.972V67.5932V70.812H248.282H251.593V74.0307V77.2494H254.903H258.214V80.4681V83.6869H261.524H264.835V86.9056V90.1243H268.145H271.455V86.9056V83.6869H274.766H278.076V80.4681V77.2494H281.387H284.697V74.0307V70.812H288.008H291.318V67.5932V64.3745H288.008H284.697V61.1558V57.9371H281.387H278.076V54.7183V51.4996H274.766H271.455V48.2809V45.0622H268.145H264.835V48.2809ZM66.2086 61.1558V64.3745H62.8982H59.5878V67.5932V70.812H62.8982H66.2086V74.0307V77.2494H69.5191H72.8295V74.0307V70.812H76.1399H79.4504V67.5932V64.3745H76.1399H72.8295V61.1558V57.9371H69.5191H66.2086V61.1558ZM264.835 61.1558V64.3745H261.524H258.214V67.5932V70.812H261.524H264.835V74.0307V77.2494H268.145H271.455V74.0307V70.812H274.766H278.076V67.5932V64.3745H274.766H271.455V61.1558V57.9371H268.145H264.835V61.1558ZM165.522 67.5932V70.812H168.832H172.142V67.5932V64.3745H168.832H165.522V67.5932ZM125.796 80.4681V83.6869H122.486H119.176V86.9056V90.1243H115.865H112.555V93.343V96.5618H109.244H105.934V99.7805V102.999H102.623H99.3129V106.218V109.437H96.0025H92.6921V112.655V115.874H89.3817H86.0712V119.093V122.312H82.7608H79.4504V128.749V135.186H82.7608H86.0712V138.405V141.624H89.3817H92.6921V144.843V148.061H96.0025H99.3129V151.28V154.499H102.623H105.934V157.718V160.936H109.244H112.555V164.155V167.374H109.244H105.934V170.592V173.811H102.623H99.3129V177.03V180.249H96.0025H92.6921V183.467V186.686H89.3817H86.0712V189.905V193.124H82.7608H79.4504V199.561V205.998H82.7608H86.0712V209.217V212.436H89.3817H92.6921V215.655V218.873H96.0025H99.3129V222.092V225.311H102.623H105.934V228.53V231.748H109.244H112.555V234.967V238.186H115.865H119.176V241.404V244.623H122.486H125.796V247.842V251.061H132.417H139.038V247.842V244.623H142.349H145.659V241.404V238.186H148.969H152.28V234.967V231.748H155.59H158.901V228.53V225.311H162.211H165.522V222.092V218.873H168.832H172.142V222.092V225.311H175.453H178.763V228.53V231.748H182.074H185.384V234.967V238.186H188.695H192.005V241.404V244.623H195.315H198.626V247.842V251.061H205.247H211.868V247.842V244.623H215.178H218.488V241.404V238.186H221.799H225.109V234.967V231.748H228.42H231.73V228.53V225.311H235.041H238.351V222.092V218.873H241.662H244.972V215.655V212.436H248.282H251.593V209.217V205.998H254.903H258.214V199.561V193.124H254.903H251.593V189.905V186.686H248.282H244.972V183.467V180.249H241.662H238.351V177.03V173.811H235.041H231.73V170.592V167.374H228.42H225.109V164.155V160.936H228.42H231.73V157.718V154.499H235.041H238.351V151.28V148.061H241.662H244.972V144.843V141.624H248.282H251.593V138.405V135.186H254.903H258.214V128.749V122.312H254.903H251.593V119.093V115.874H248.282H244.972V112.655V109.437H241.662H238.351V106.218V102.999H235.041H231.73V99.7805V96.5618H228.42H225.109V93.343V90.1243H221.799H218.488V86.9056V83.6869H215.178H211.868V80.4681V77.2494H205.247H198.626V80.4681V83.6869H195.315H192.005V86.9056V90.1243H188.695H185.384V93.343V96.5618H182.074H178.763V99.7805V102.999H175.453H172.142V106.218V109.437H168.832H165.522V106.218V102.999H162.211H158.901V99.7805V96.5618H155.59H152.28V93.343V90.1243H148.969H145.659V86.9056V83.6869H142.349H139.038V80.4681V77.2494H132.417H125.796V80.4681ZM125.796 86.9056V90.1243H122.486H119.176V93.343V96.5618H115.865H112.555V99.7805V102.999H109.244H105.934V106.218V109.437H102.623H99.3129V112.655V115.874H96.0025H92.6921V119.093V122.312H89.3817H86.0712V128.749V135.186H89.3817H92.6921V138.405V141.624H96.0025H99.3129V144.843V148.061H102.623H105.934V151.28V154.499H109.244H112.555V157.718V160.936H115.865H119.176V164.155V167.374H115.865H112.555V170.592V173.811H109.244H105.934V177.03V180.249H102.623H99.3129V183.467V186.686H96.0025H92.6921V189.905V193.124H89.3817H86.0712V199.561V205.998H89.3817H92.6921V209.217V212.436H96.0025H99.3129V215.655V218.873H102.623H105.934V222.092V225.311H109.244H112.555V228.53V231.748H115.865H119.176V234.967V238.186H122.486H125.796V241.404V244.623H132.417H139.038V241.404V238.186H142.349H145.659V234.967V231.748H148.969H152.28V228.53V225.311H155.59H158.901V222.092V218.873H162.211H165.522V215.655V212.436H168.832H172.142V215.655V218.873H175.453H178.763V222.092V225.311H182.074H185.384V228.53V231.748H188.695H192.005V234.967V238.186H195.315H198.626V241.404V244.623H205.247H211.868V241.404V238.186H215.178H218.488V234.967V231.748H221.799H225.109V228.53V225.311H228.42H231.73V222.092V218.873H235.041H238.351V215.655V212.436H241.662H244.972V209.217V205.998H248.282H251.593V199.561V193.124H248.282H244.972V189.905V186.686H241.662H238.351V183.467V180.249H235.041H231.73V177.03V173.811H228.42H225.109V170.592V167.374H221.799H218.488V164.155V160.936H221.799H225.109V157.718V154.499H228.42H231.73V151.28V148.061H235.041H238.351V144.843V141.624H241.662H244.972V138.405V135.186H248.282H251.593V128.749V122.312H248.282H244.972V119.093V115.874H241.662H238.351V112.655V109.437H235.041H231.73V106.218V102.999H228.42H225.109V99.7805V96.5618H221.799H218.488V93.343V90.1243H215.178H211.868V86.9056V83.6869H205.247H198.626V86.9056V90.1243H195.315H192.005V93.343V96.5618H188.695H185.384V99.7805V102.999H182.074H178.763V106.218V109.437H175.453H172.142V112.655V115.874H168.832H165.522V112.655V109.437H162.211H158.901V106.218V102.999H155.59H152.28V99.7805V96.5618H148.969H145.659V93.343V90.1243H142.349H139.038V86.9056V83.6869H132.417H125.796V86.9056ZM132.417 109.437V122.312H129.107H125.796V119.093V115.874H122.486H119.176V109.437V102.999H115.865H112.555V106.218V109.437H109.244H105.934V112.655V115.874H112.555H119.176V119.093V122.312H122.486H125.796V125.53V128.749H112.555H99.3129V131.968V135.186H102.623H105.934V138.405V141.624H109.244H112.555V144.843V148.061H115.865H119.176V151.28V154.499H122.486H125.796V157.718V160.936H142.349H158.901V164.155V167.374H142.349H125.796V170.592V173.811H122.486H119.176V177.03V180.249H115.865H112.555V183.467V186.686H109.244H105.934V189.905V193.124H102.623H99.3129V196.342V199.561H112.555H125.796V202.78V205.998H122.486H119.176V209.217V212.436H112.555H105.934V215.655V218.873H109.244H112.555V222.092V225.311H115.865H119.176V218.873V212.436H122.486H125.796V209.217V205.998H129.107H132.417V218.873V231.748H135.728H139.038V228.53V225.311H142.349H145.659V222.092V218.873H148.969H152.28V215.655V212.436H155.59H158.901V209.217V205.998H162.211H165.522V189.905V173.811H168.832H172.142V189.905V205.998H175.453H178.763V209.217V212.436H182.074H185.384V215.655V218.873H188.695H192.005V222.092V225.311H195.315H198.626V228.53V231.748H201.936H205.247V218.873V205.998H208.557H211.868V209.217V212.436H215.178H218.488V218.873V225.311H221.799H225.109V222.092V218.873H228.42H231.73V215.655V212.436H225.109H218.488V209.217V205.998H215.178H211.868V202.78V199.561H225.109H238.351V196.342V193.124H235.041H231.73V189.905V186.686H228.42H225.109V183.467V180.249H221.799H218.488V177.03V173.811H215.178H211.868V170.592V167.374H195.315H178.763V164.155V160.936H195.315H211.868V157.718V154.499H215.178H218.488V151.28V148.061H221.799H225.109V144.843V141.624H228.42H231.73V138.405V135.186H235.041H238.351V131.968V128.749H225.109H211.868V125.53V122.312H215.178H218.488V119.093V115.874H225.109H231.73V112.655V109.437H228.42H225.109V106.218V102.999H221.799H218.488V109.437V115.874H215.178H211.868V119.093V122.312H208.557H205.247V109.437V96.5618H201.936H198.626V99.7805V102.999H195.315H192.005V106.218V109.437H188.695H185.384V112.655V115.874H182.074H178.763V119.093V122.312H175.453H172.142V138.405V154.499H168.832H165.522V138.405V122.312H162.211H158.901V119.093V115.874H155.59H152.28V112.655V109.437H148.969H145.659V106.218V102.999H142.349H139.038V99.7805V96.5618H135.728H132.417V109.437ZM39.7252 106.218V109.437H36.4147H33.1043V112.655V115.874H36.4147H39.7252V119.093V122.312H43.0356H46.346V119.093V115.874H49.6565H52.9669V112.655V109.437H49.6565H46.346V106.218V102.999H43.0356H39.7252V106.218ZM0.109964 112.655C0.11054 114.503 0.157174 115.222 0.213307 114.254C0.269728 113.286 0.26944 111.774 0.212443 110.895C0.155446 110.016 0.109388 110.808 0.109964 112.655ZM39.7252 112.655V115.874H43.0356H46.346V112.655V109.437H43.0356H39.7252V112.655ZM291.318 112.655V115.874H288.008H284.697V119.093V122.312H281.387H278.076V125.53V128.749H274.766H271.455V131.968V135.186H274.766H278.076V131.968V128.749H281.387H284.697V125.53V122.312H288.008H291.318V119.093V115.874H294.628H297.939V112.655V109.437H294.628H291.318V112.655ZM0.109964 164.155C0.11054 166.002 0.157174 166.722 0.213307 165.753C0.269728 164.785 0.26944 163.274 0.212443 162.395C0.155446 161.516 0.109388 162.308 0.109964 164.155ZM66.2086 164.155V167.374H69.5191H72.8295V164.155V160.936H69.5191H66.2086V164.155ZM264.835 164.155V167.374H268.145H271.455V164.155V160.936H268.145H264.835V164.155ZM59.5878 196.342V199.561H56.2773H52.9669V202.78V205.998H49.6565H46.346V209.217V212.436H43.0356H39.7252V215.655V218.873H43.0356H46.346V215.655V212.436H49.6565H52.9669V209.217V205.998H56.2773H59.5878V202.78V199.561H62.8982H66.2086V196.342V193.124H62.8982H59.5878V196.342ZM291.318 209.217V212.436H288.008H284.697V215.655V218.873H288.008H291.318V222.092V225.311H294.628H297.939V222.092V218.873H301.249H304.56V215.655V212.436H301.249H297.939V209.217V205.998H294.628H291.318V209.217ZM0.109964 215.655C0.11054 217.502 0.157174 218.221 0.213307 217.253C0.269728 216.285 0.26944 214.774 0.212443 213.894C0.155446 213.015 0.109388 213.807 0.109964 215.655ZM291.318 215.655V218.873H294.628H297.939V215.655V212.436H294.628H291.318V215.655ZM66.2086 241.404V244.623H62.8982H59.5878V247.842V251.061H56.2773H52.9669V254.279V257.498H49.6565H46.346V260.717V263.935H49.6565H52.9669V267.154V270.373H56.2773H59.5878V273.592V276.81H62.8982H66.2086V280.029V283.248H69.5191H72.8295V280.029V276.81H76.1399H79.4504V273.592V270.373H82.7608H86.0712V267.154V263.935H89.3817H92.6921V260.717V257.498H89.3817H86.0712V254.279V251.061H82.7608H79.4504V247.842V244.623H76.1399H72.8295V241.404V238.186H69.5191H66.2086V241.404ZM264.835 241.404V244.623H261.524H258.214V247.842V251.061H254.903H251.593V254.279V257.498H248.282H244.972V260.717V263.935H248.282H251.593V267.154V270.373H254.903H258.214V273.592V276.81H261.524H264.835V280.029V283.248H268.145H271.455V280.029V276.81H274.766H278.076V273.592V270.373H281.387H284.697V267.154V263.935H288.008H291.318V260.717V257.498H288.008H284.697V254.279V251.061H281.387H278.076V247.842V244.623H274.766H271.455V241.404V238.186H268.145H264.835V241.404ZM66.2086 254.279V257.498H62.8982H59.5878V260.717V263.935H62.8982H66.2086V267.154V270.373H69.5191H72.8295V267.154V263.935H76.1399H79.4504V260.717V257.498H76.1399H72.8295V254.279V251.061H69.5191H66.2086V254.279ZM264.835 254.279V257.498H261.524H258.214V260.717V263.935H261.524H264.835V267.154V270.373H268.145H271.455V267.154V263.935H274.766H278.076V260.717V257.498H274.766H271.455V254.279V251.061H268.145H264.835V254.279ZM165.522 260.717V263.935H168.832H172.142V260.717V257.498H168.832H165.522V260.717ZM198.626 267.154V270.373H201.936H205.247V273.592V276.81H208.557H211.868V280.029V283.248H215.178H218.488V286.467V289.685H221.799H225.109V286.467V283.248H221.799H218.488V280.029V276.81H215.178H211.868V273.592V270.373H208.557H205.247V267.154V263.935H201.936H198.626V267.154ZM112.555 280.029V283.248H109.244H105.934V286.467V289.685H109.244H112.555V292.904V296.123H115.865H119.176V292.904V289.685H122.486H125.796V286.467V283.248H122.486H119.176V280.029V276.81H115.865H112.555V280.029ZM112.555 286.467V289.685H115.865H119.176V286.467V283.248H115.865H112.555V286.467Z" fill="url(#paint0_linear_501_3)"/>
<defs>
<linearGradient id="paint0_linear_501_3" x1="168.985" y1="0" x2="168.985" y2="328.31" gradientUnits="userSpaceOnUse">
<stop stop-color="#AEB1B1"/>
<stop offset="1" stop-color="#4D4D4D"/>
</linearGradient>
</defs>
</svg>
