<svg width="338" height="329" viewBox="0 0 338 329" fill="none" xmlns="http://www.w3.org/2000/svg">
<path opacity="0.07" fill-rule="evenodd" clip-rule="evenodd" d="M123.689 4.2556C120.706 6.5488 116.442 9.47432 114.212 10.7553C110.751 12.7445 110.987 13.9983 115.845 19.388C125.539 30.1484 125.96 32.5121 119.431 39.465L113.249 46.0488L119.621 52.8334C127.413 61.135 130.359 61.2653 139.923 53.7371L147.395 47.8562L152.435 54.4155C155.204 58.0222 157.499 61.5855 157.531 62.3318C157.613 64.1962 131.694 86.3792 128.317 87.3399C126.817 87.766 116.266 79.0708 104.868 68.02L84.1484 47.924L91.046 40.7215L97.9435 33.5162L90.4737 26.3978C83.7579 19.9986 82.4722 19.6729 77.7391 23.1657C70.253 28.691 65.962 28.018 59.1404 20.2483L53.1678 13.4447L44.3092 20.4789L35.4479 27.5159L43.6311 37.8503C48.1309 43.5358 51.8116 49.5388 51.8116 51.1888C51.8116 53.0423 45.6844 54.1903 35.7761 54.1903H19.7406L17.907 65.0457C16.2579 74.8046 15.276 75.901 8.17507 75.901C0.957465 75.901 0.276665 76.7179 0.276665 85.3995C0.276665 93.5899 1.16361 94.8979 6.71853 94.8979C10.2609 94.8979 16.7787 95.6225 21.1971 96.5072C28.8677 98.0406 29.3478 97.5765 31.7076 86.3303L34.1812 74.5441L47.564 73.6974C54.9227 73.2306 64.0769 73.635 67.9041 74.5957C74.2971 76.2023 74.4761 76.6256 70.1174 79.8144C64.1773 84.1593 64.2343 86.4742 70.4781 94.5994L75.4607 101.083L84.162 95.9563L92.8633 90.8272L100.623 100.326C109.528 111.224 108.782 112.934 89.169 126.536L78.1677 134.162L63.8681 118.422L49.5712 102.681L39.8745 108.966C30.1805 115.252 27.7339 120.245 32.8115 123.385C34.2952 124.302 36.8231 127.513 38.4315 130.517C41.2497 135.787 40.6475 135.958 21.4928 135.323L1.63285 134.667L0.816429 145.622L0 156.581L13.7002 158.399C21.2351 159.398 27.3678 161.091 27.3298 162.158C27.2918 163.227 21.189 168.221 13.768 173.257C6.34694 178.294 0.276665 183.486 0.276665 184.791C0.276665 186.099 8.82062 187.169 19.2632 187.169C29.7058 187.169 38.2498 188.2 38.2498 189.462C38.2498 190.724 35.8087 193.967 32.8251 196.667C25.0379 203.718 25.9736 205.59 38.9279 208.909C58.9153 214.027 58.6576 213.8 52.2185 220.66C44.3635 229.024 44.7486 230.047 56.5583 232.18C71.1182 234.81 72.3415 236.181 65.0642 241.728L58.5925 246.659L68.1753 256.309L77.7581 265.96L87.0236 259.121L96.289 252.282L104.564 260.255L112.84 268.231L120.299 262.752C124.403 259.739 127.758 255.728 127.758 253.84C127.758 251.951 110.67 232.628 89.7847 210.904C68.8995 189.18 51.8116 170.256 51.8116 168.853C51.8116 167.447 54.2663 164.076 57.2635 161.363C62.558 156.567 62.916 156.608 69.4935 162.793L76.2663 169.16L84.2732 163.238C94.3632 155.772 95.5784 155.826 103.347 164.101L109.718 170.886L103.273 177.749L96.8288 184.612L105.253 193.044L113.681 201.476L121.669 195.782L129.657 190.091L136.809 197.563L143.962 205.031L138.214 210.782L132.467 216.532L138.434 224.918C145.535 234.897 147.233 235.111 157.702 227.366L165.728 221.431L173.76 229.127L181.788 236.826L191.621 229.325L201.45 221.822L192.51 212.595L183.57 203.365L190.869 196.062L198.168 188.759L206.11 196.374L214.052 203.986L222.438 197.78C227.052 194.368 230.828 190.957 230.828 190.2C230.828 189.443 227.557 185.405 223.556 181.228L216.287 173.635L222.674 166.834C230.456 158.543 231.671 158.486 241.731 165.927C249.218 171.464 250.012 171.548 254.721 167.284C257.477 164.787 261.505 162.744 263.664 162.744C267.805 162.744 276.938 171.941 276.938 176.11C276.938 177.458 260.157 194.051 239.643 212.985C219.132 231.92 202.001 248.87 201.578 250.653C201.155 252.436 203.829 256.735 207.52 260.203L214.231 266.513L224.098 260.41L233.966 254.309L242.054 260.293C249.698 265.946 250.52 266.03 256.907 261.845C265.158 256.434 267.846 250.26 263.737 246.148C257.987 240.395 260.645 238.732 275.582 238.732C283.787 238.732 290.5 237.945 290.5 236.984C290.5 236.023 285.924 231.106 280.328 226.061L270.157 216.882L288.745 218.655C306.617 220.359 307.224 220.22 304.49 215.108C302.925 212.182 299.749 208.214 297.43 206.288C289.385 199.609 293.326 198.203 315.589 199.799L337.966 201.403L321.776 184.786L305.589 168.172H318.386H331.185V155.959V143.747H310.843C290.201 143.747 285.981 141.212 293.719 133.47C296.201 130.987 295.474 128.691 290.532 123.429C287.012 119.678 282.894 116.609 281.386 116.609C279.878 116.609 272.853 121.494 265.777 127.464C258.7 133.434 251.298 138.273 249.329 138.216C247.357 138.157 239.643 132.713 232.184 126.113L218.622 114.117L226.019 106.665L233.418 99.2157L241.924 105.506L250.43 111.8L257.463 104.76L264.499 97.723L256.479 89.1636L248.458 80.6014L268.465 82.3735C291.965 84.4523 293.212 85.0223 293.212 93.6496C293.212 100.871 296.871 102.369 317.623 103.645L329.829 104.396L330.656 93.0145C331.459 81.9393 331.223 81.5811 321.993 79.8497C314.304 78.4059 312.348 76.707 311.675 70.8777C310.9 64.1827 309.587 63.5205 292.534 61.2246C282.463 59.8704 274.226 57.8323 274.226 56.6979C274.226 55.5608 278.498 51.9921 283.719 48.7626C294.964 41.8097 295.491 38.2818 286.532 29.8607C280.182 23.8902 279.517 23.8007 273.065 28.0316C264.171 33.8609 260.162 33.6438 251.545 26.8619L244.406 21.2443L236.261 27.0464C231.78 30.2379 228.115 33.6139 228.115 34.5502C228.115 35.4865 231.465 39.7527 235.561 44.0297L243.009 51.8048L229.458 63.9167C222.007 70.5765 211.99 79.1604 207.2 82.9896L198.491 89.9533L184.823 78.1779C177.307 71.7027 171.158 65.6753 171.156 64.7878C171.156 63.9004 173.61 60.9505 176.608 58.2366C181.902 53.4413 182.257 53.482 188.726 59.561L195.391 65.8245L205.188 58.3479L214.988 50.8686L207.477 43.0255C200.151 35.3752 200.097 35.0876 205.226 31.2041C208.12 29.0167 211.402 27.1849 212.519 27.1387C216.303 26.9786 214.499 23.0164 206.52 13.9603L198.572 4.93949L186.898 12.0199C180.478 15.9143 172.737 20.867 169.696 23.0245C164.594 26.6475 162.883 25.9066 147.471 13.4311C138.287 5.99517 130.4 -0.0485551 129.944 0.000294051C129.488 0.0464294 126.673 1.9624 123.689 4.2556ZM153.444 100.412L145.543 108.663L152.59 114.671C161.527 122.291 163.77 128.889 158.825 132.998C153.824 137.15 142.771 134.344 135.513 127.081L129.844 121.409L121.506 129.755L113.165 138.097L120.603 144.993C129.366 153.121 129.936 153.213 136.25 147.495C139.448 144.599 143.449 143.693 147.992 144.835C153.463 146.209 154.882 148.249 154.882 154.738C154.882 159.504 153.184 163.566 150.813 164.475C144.789 166.79 145.936 171.179 155.248 181.426L163.591 190.61L169.989 182.783C176.93 174.289 178.11 169.439 173.868 166.815C169.509 164.12 170.749 151.875 175.566 150.024C177.991 149.093 183.969 149.777 188.848 151.541C196.557 154.331 199.004 153.992 207.539 148.952L217.361 143.155L208.497 132.827C198.54 121.217 196.451 120.416 190.357 125.863C182.775 132.634 168.443 132.466 168.443 125.602C168.443 123.087 171.093 118.207 174.332 114.758C177.568 111.311 179.7 108.179 179.065 107.8C178.43 107.42 174.183 103.748 169.626 99.6363L161.342 92.1624L153.444 100.412ZM157.035 251.622C147.691 261.33 147.436 262.087 151.499 268.068C155.465 273.903 155.356 274.742 149.964 280.139L144.165 285.939L137.997 280.161L131.826 274.381L121.528 280.614L111.229 286.848L126.535 304.786L141.838 322.725L152.454 316.687L163.07 310.648L170.03 319.479L176.99 328.31L195.686 315.408C205.969 308.312 214.415 301.286 214.453 299.793C214.494 298.3 211.76 293.619 208.377 289.391C202.706 282.302 201.645 281.971 194.704 285.136C187.877 288.248 186.527 287.912 180.112 281.491C173.635 275.013 173.328 273.727 176.442 266.201C179.453 258.931 179.168 257.034 173.96 249.714C170.722 245.166 167.795 241.445 167.453 241.445C167.112 241.445 162.425 246.026 157.035 251.622Z" fill="url(#paint0_linear_302_4)"/>
<defs>
<linearGradient id="paint0_linear_302_4" x1="168.983" y1="0" x2="168.983" y2="328.31" gradientUnits="userSpaceOnUse">
<stop stop-color="#AEB1B1"/>
<stop offset="1" stop-color="#4D4D4D"/>
</linearGradient>
</defs>
</svg>
