<svg width="87" height="76" viewBox="0 0 87 76" fill="none" xmlns="http://www.w3.org/2000/svg">
<path d="M87 0V43C86.8213 43 80.918 36.5901 80.501 35.8001C80.2721 35.369 80.084 34.5163 80.084 33.9033C80.084 32.7214 79.9743 32.643 77.764 32.2746C76.7953 32.1116 75.908 31.6037 74.9769 30.6726C73.8043 29.5032 73.6131 29.0846 73.6225 27.7412C73.635 25.9072 74.8671 23.9916 75.4315 24.9274C75.6697 25.3225 75.8579 25.6203 76.0334 25.8445C76.51 26.4464 76.9019 26.5154 77.9459 26.5154C79.0996 26.5154 79.6043 26.3132 80.1561 25.6344C81.4259 24.07 80.3568 21.1386 78.181 20.2153L77.1746 19.7889L78.5384 19.1682C80.5198 18.2684 81.4823 17.0535 81.7488 15.1207C81.9212 13.8604 81.8272 13.2177 81.3694 12.5217C79.3222 9.40065 74.2244 9.49784 72.9014 12.6831L72.4311 13.8181L71.7978 12.4057C71.315 11.3319 70.8479 10.8883 69.8447 10.5591C65.5683 9.14827 62.4645 13.3164 63.913 18.5255C64.6184 21.0555 68.6188 23.4586 71.4373 23.0463C72.6663 22.8661 72.682 22.8865 72.1427 23.8928C71.5941 24.9165 69.6409 25.6344 67.4181 25.6297C65.0698 25.6266 62.3673 24.4368 60.7026 22.6764C59.7464 21.6653 59.1319 21.3581 57.6866 21.1668C56.5266 21.0132 55.5923 20.7875 54.8399 20.4677C53.8868 20.0601 53.2221 19.5005 52.7613 18.7434C51.664 16.9501 51.8019 16.6601 53.7394 16.646C54.68 16.6397 55.6926 16.4343 55.9873 16.1898C56.7021 15.602 57.5141 14.1441 57.1285 14.1441C57.0219 14.1441 56.8589 13.9889 56.699 13.7554C56.6018 13.6158 56.5046 13.4465 56.42 13.2647C55.7397 11.7724 54.0498 11.161 51.1749 11.3664C48.9552 11.5247 48.5571 11.6658 47.8548 12.5468C46.2182 14.5909 46.4753 17.784 48.4505 20.0319C49.0367 20.6966 49.5133 21.3455 49.5133 21.4741C49.5133 21.601 48.9489 22.203 48.2561 22.8096C47.1933 23.7392 46.9989 24.1468 47.002 25.4024C47.0083 27.0938 47.2121 27.5108 48.3219 28.0939C51.015 29.5094 54.1784 26.7756 52.6108 24.3866C52.2941 23.9022 52.0308 23.3567 52.0308 23.1749C52.0308 22.6184 53.4573 22.4366 54.6643 22.8394C56.1786 23.3458 57.0627 24.1358 57.6396 25.4949C58.0597 26.484 58.3324 26.6424 59.9909 26.8634C61.0224 26.9998 62.1761 27.2757 62.5523 27.4763C63.2546 27.8525 64.0102 28.5579 64.5902 29.2806C65.2862 30.1506 65.7251 31.0457 65.4931 31.4187C65.3363 31.6727 65.3802 31.7542 65.6028 31.6178C66.4556 31.0911 66.7377 35.3345 65.8944 36.0321C65.4649 36.3879 65.283 36.2547 64.8661 35.2671C63.5963 32.2699 59.737 30.9579 57.2571 32.6806C56.8652 32.9518 56.1347 33.1728 55.6299 33.1728C55.5014 33.1728 55.3634 33.1932 55.2224 33.2309C54.7991 33.3406 54.3477 33.5961 54.0937 33.8908C53.1594 34.9787 49.7923 34.8909 47.5914 33.7215L45.9173 32.8343V34.452C45.9173 36.5729 46.6697 38.2957 48.0366 39.3052L49.1433 40.1203L47.7106 41.5641C46.56 42.7241 46.2778 43.2696 46.2778 44.3339C46.2778 46.9455 48.7326 48.3485 50.3942 46.6884C51.4821 45.6021 51.5542 44.7117 50.6482 43.5439C49.7766 42.4246 50.0149 41.8635 51.479 41.5891C52.5293 41.3932 52.6954 41.2019 52.893 39.9745C53.2002 38.048 53.8178 36.8159 54.5985 36.5682C55.5986 36.2516 57.4076 37.4931 58.2039 39.0418C58.8685 40.3335 58.9563 40.3852 59.5583 39.8397C60.2229 39.2393 62.405 38.9776 63.1104 39.4133C63.3831 39.5826 63.2859 39.8899 62.8094 40.3664C61.8469 41.3258 61.919 42.7193 62.985 43.7806C64.0541 44.8497 65.0949 44.9045 66.0574 43.9452C66.9133 43.0909 66.9697 42.1252 66.2455 40.7301C65.6279 39.5356 65.9508 39.277 68.0514 39.277C68.832 39.277 69.5907 38.9149 70.1111 38.374C70.4968 37.9759 70.7507 37.4821 70.7883 36.9648C70.9106 35.2718 70.6504 34.0146 69.9826 33.0835C69.2991 32.1304 69.296 32.0959 69.9481 32.0959C70.456 32.0959 71.1018 32.3154 71.7665 32.6853C72.5252 33.1086 73.3058 33.7278 73.9266 34.4363C75.1368 35.8111 75.5914 37.5354 75.3092 39.6579C75.1274 40.9935 75.1869 41.1048 76.3908 41.6738C78.0462 42.4576 79.1341 44.7838 79.1623 47.5929C79.1748 48.7122 79.0839 49.7295 78.9585 49.8534C78.8331 49.9788 78.2531 49.6026 77.67 49.0178C76.3219 47.6744 73.8545 47.223 71.685 47.9268C70.8667 48.1933 69.992 48.394 69.7475 48.372C69.6189 48.361 69.5249 48.3877 69.4778 48.4394C69.4371 48.4864 69.4371 48.5538 69.4873 48.6307C69.7882 49.1182 65.3081 51.4147 62.8094 52.0542C62.0287 52.2533 61.4393 52.3771 60.8938 52.4336C60.0881 52.5167 59.3764 52.4477 58.2854 52.247C55.2976 51.6984 53.636 51.7391 52.3725 52.3913C51.4633 52.86 51.3128 53.1468 51.3128 54.3883C51.3128 56.2036 51.8145 57.1629 52.9964 57.6128C54.3383 58.1207 56.0156 57.6881 57.4076 56.4748C58.0785 55.8916 58.8027 55.4684 59.0159 55.5342C59.2291 55.6016 59.8091 56.4105 60.3044 57.3338C61.4268 59.4281 62.6526 60.0332 64.1795 59.2447C64.4115 59.1255 64.6435 58.9735 64.8441 58.8136C65.1545 58.5691 65.399 58.3041 65.4743 58.1098C65.8599 57.1065 65.7188 55.5985 65.1702 54.8743C64.3989 53.8569 64.493 53.639 65.7063 53.639C67.0042 53.639 69.6346 55.8822 70.5187 57.7461C71.6912 60.2103 71.0047 63.5414 68.9198 65.5008L67.5435 66.7957L67.9573 72.279L66.7064 73.5284C64.6058 75.6242 62.7436 75.6759 60.4894 73.7024C58.7776 72.1991 58.7807 70.9309 60.5019 69.5123C61.5522 68.6485 61.7403 68.2974 61.5522 67.5465C61.3453 66.7204 60.9095 66.095 60.2574 65.6764C59.6398 65.2814 58.8278 65.0698 57.8277 65.0462C56.9812 65.0274 56.4607 65.0619 56.0218 65.2297C55.6519 65.3723 55.3415 65.6121 54.9402 65.9962L53.9025 66.9885L53.4165 65.9774C53.0842 65.2845 52.5481 64.8378 51.9618 64.6199C50.6012 64.1135 48.974 64.8331 48.974 66.5386C48.974 68.2457 50.4287 69.3289 51.9932 68.7849C52.7237 68.531 53.1344 68.5153 53.2378 68.752C53.3413 68.984 53.1406 69.4605 52.6453 70.1942C51.7173 71.5658 50.4914 72.2947 49.0932 72.3025C48.3188 72.3072 48.0523 72.5471 47.7262 73.5331C47.0553 75.5662 45.9204 75.5991 44.5692 73.6256C44.1804 73.0581 43.9327 72.3496 43.8261 71.5924C43.6694 70.4591 43.8324 69.216 44.3277 68.172C44.5472 67.7127 44.6726 67.4164 44.704 67.1609C44.7447 66.8035 44.5974 66.5276 44.2494 65.9978C43.569 64.96 43.337 61.5913 43.8606 60.3138C44.124 59.6664 44.1961 59.6805 45.1398 60.5818C46.8139 62.1839 48.0774 61.654 48.0774 59.3497C48.0774 58.4719 47.883 57.9499 47.5068 57.8056C46.955 57.5956 46.1367 57.547 45.5097 57.6316C45.0833 57.6896 44.7416 57.8103 44.635 57.9843C44.124 58.812 43.8512 57.4953 44.3403 56.5579C45.3435 54.6423 44.5848 51.8426 43.0643 51.8426C42.4529 51.8426 41.9764 52.2408 41.6848 52.8553C41.2647 53.7441 41.2365 55.0843 41.7601 56.329C42.1081 57.1614 42.2084 57.8448 42.0109 58.0408C41.8134 58.2383 41.5876 58.2116 41.4434 57.9781C41.1174 57.4514 38.9761 57.4812 38.4368 58.0188C38.3208 58.1348 38.2142 58.3621 38.1358 58.6365C38.0575 58.9202 38.0073 59.2525 38.0073 59.5629C38.0073 61.6681 39.5404 62.1776 41.0327 60.5693C41.8855 59.6538 41.945 59.6397 42.2178 60.3012C42.7445 61.5913 42.5094 64.8879 41.8071 66.0699C41.1832 67.1186 41.1801 67.2487 41.7319 68.0356C42.9702 69.8023 42.2209 73.914 40.4903 74.8389C39.6062 75.3123 38.5591 74.5677 38.2236 73.2274C38.0606 72.5769 37.6938 72.3605 36.4836 72.1991C34.8095 71.9749 32.9723 70.354 32.9723 69.1016C32.9723 68.4949 33.0883 68.4651 34.0414 68.8241C34.5179 69.0044 34.8283 69.0765 35.1355 69.0153C35.4208 68.9589 35.703 68.7912 36.1105 68.4886C38.0104 67.0778 37.3207 64.4098 35.0571 64.4098C33.9943 64.4098 32.2512 65.7767 32.2512 66.6091C32.2512 66.8599 31.9032 66.7236 31.4423 66.2909C31.2824 66.142 31.0724 65.979 30.8435 65.8222C30.4359 65.5432 29.9688 65.283 29.6083 65.1466C26.7145 64.0524 22.5667 67.7503 25.1501 69.1219C28.0877 70.6864 26.8995 74.3874 23.2596 75.0003C21.6858 75.2668 19.8015 74.3921 18.7638 72.917C18.1587 72.0549 18.049 69.2301 18.5663 67.871C18.861 67.0935 18.7513 66.8599 17.7041 66.062C15.4907 64.3769 14.3778 60.6774 15.3308 58.1756C15.5158 57.6834 16.3686 56.5547 17.2182 55.6675C18.767 54.0545 20.2467 53.371 21.3095 53.7786C21.8049 53.9682 21.7798 54.1156 21.1308 54.9417C19.8768 56.5328 20.4035 58.6474 22.2438 59.4093C23.7424 60.0269 24.8554 59.4061 25.7113 57.4733C26.6079 55.4512 27.0751 55.1768 28.0564 56.097C30.0503 57.9671 33.1572 58.2916 34.242 56.7428C35.0164 55.6393 34.9129 53.4243 34.0508 52.5606C33.2074 51.7203 30.8372 51.6012 27.9905 52.258C25.8147 52.7581 23.0276 52.2956 20.4662 51.0087L16.1899 48.8438C12.7381 47.0913 10.694 47.1415 8.57774 49.0335C7.9852 49.5618 7.40834 49.8988 7.2892 49.7813C7.1732 49.6653 7.07601 48.5272 7.07601 47.2543C7.07601 44.5064 8.01342 42.5171 9.68131 41.7286C10.7253 41.2349 10.7661 41.1283 10.8131 38.686C10.857 36.5102 11.0043 35.971 11.8696 34.8376C13.108 33.2183 14.2335 32.4549 15.7321 32.2198L16.8765 32.0395L16.0801 33.1556C15.5566 33.8892 15.2744 34.8266 15.2587 35.8832C15.2274 38.059 16.2181 39.1092 18.6071 39.4259C20.5446 39.6814 20.648 39.7817 19.8454 40.5843C18.977 41.4512 19.1745 43.0721 20.253 43.9185C21.4663 44.8716 22.3285 44.8607 23.2471 43.8762C24.244 42.8071 24.219 40.9213 23.2 40.2081C22.852 39.9636 22.6388 39.8335 22.6483 39.7206C22.6577 39.5654 23.0966 39.4431 24.1939 39.0967C24.5074 38.9964 25.3225 39.1798 26.0029 39.5027C26.6863 39.8256 27.2883 40.0278 27.3478 39.9526C27.4043 39.8773 27.8056 39.2284 28.2351 38.512C29.2101 36.8943 30.8905 36.0838 31.7684 36.8096C32.5271 37.4382 33.3297 39.3475 33.3297 40.5216C33.3297 41.2019 33.5178 41.4308 34.0727 41.4308C34.9882 41.4308 36.2077 42.0531 36.2077 42.5203C36.2077 42.7115 35.8691 43.2037 35.4584 43.616C34.9004 44.1709 34.7687 44.613 34.9474 45.32C35.2139 46.3812 35.6779 47.0129 36.3582 47.223C36.8787 47.3844 37.5276 47.2967 38.3177 46.9659C40.5656 46.0222 40.4527 43.5549 38.0606 41.2286L36.9288 40.1297L38.0387 39.3083C38.65 38.8584 39.3774 37.9445 39.6564 37.2783C40.1423 36.1199 40.3743 32.8139 39.9699 32.8139C39.8633 32.8139 39.2896 33.1728 38.6939 33.6118C37.8944 34.2027 36.979 34.4441 35.1418 34.5476C32.9754 34.6699 32.5898 34.5946 32.0223 33.93C31.7402 33.6024 31.2668 33.3202 30.8498 33.2167C30.7401 33.1885 30.6335 33.1728 30.5363 33.1728C30.0754 33.1728 29.2415 32.9377 28.6865 32.6508C25.959 31.2432 23.2377 32.0552 21.4977 34.7937C20.4756 36.4005 20.4223 36.4318 20.0179 35.6731C19.7796 35.2279 19.7357 34.2623 19.8423 33.2638C19.9364 32.3655 20.1558 31.4391 20.4631 30.8403C20.8894 30.0048 21.7767 29.0251 22.4037 28.594C22.6733 28.409 22.8959 28.3244 23.0119 28.3949C23.2094 28.5172 23.2627 28.4388 23.1279 28.2209C22.7831 27.6675 23.8271 27.1973 26.0562 26.8963C27.7617 26.6674 28.0062 26.5201 28.4451 25.4729C28.7147 24.8302 29.4296 23.9524 30.0346 23.5229C31.0755 22.7814 33.4331 22.3864 33.9191 22.8692C34.0414 22.9946 33.8564 23.7 33.5052 24.4399C32.8876 25.7363 32.8908 25.8288 33.5491 27.0546C34.0915 28.0688 34.4771 28.351 35.449 28.4435C37.3395 28.6238 38.302 28.2334 38.9228 27.0389C39.694 25.5466 39.3178 24.1154 37.8004 22.7877C36.3551 21.5195 36.3143 21.3032 37.3364 20.394C38.324 19.5177 39.4275 17.1256 39.4369 15.8387C39.4495 14.2303 38.5089 12.4433 37.3333 11.8351C35.9757 11.1344 32.9848 11.1077 31.3702 11.7802C30.0252 12.3414 29.3731 13.271 29.3731 14.6348C29.3731 16.0315 30.2729 16.6585 32.2763 16.6585C34.2859 16.6585 34.427 16.936 33.3203 18.7434C32.4957 20.0946 31.1006 20.7765 28.4169 21.1355C26.9183 21.3361 26.3383 21.6277 25.4072 22.6466C23.7612 24.4556 21.0399 25.6266 18.4722 25.6297C18.0145 25.6313 17.5348 25.6031 17.0991 25.5545C16.4344 25.4792 15.8638 25.3585 15.6099 25.2221C14.8762 24.8302 13.5846 23.5025 13.5658 23.12C13.5626 23.0777 13.7382 23.0354 14.0298 22.9978C14.4185 22.9476 15.0173 22.9084 15.6851 22.8927C16.3842 22.877 16.9204 22.83 17.3938 22.7234C18.0709 22.5729 18.6196 22.2986 19.3344 21.8158C20.4192 21.0822 21.1497 20.4269 21.6325 19.6745C22.131 18.8986 22.3692 18.0176 22.4664 16.8435C22.8677 11.9887 19.7765 9.0887 15.9171 10.6986C15.033 11.0685 14.5909 11.5608 14.268 12.5358L13.826 13.8698L13.2836 12.7521C11.7913 9.6734 7.19201 9.3787 4.94412 12.216C4.59612 12.6534 4.3986 12.9841 4.31395 13.3948C4.2293 13.7977 4.24811 14.2774 4.33276 15.0078C4.5679 17.0284 5.37677 18.0646 7.43969 18.9926L8.8411 19.6243L7.6905 20.3893C6.22012 21.3659 5.16671 23.4476 5.48963 24.7331C5.66833 25.4479 6.20758 25.9746 6.87536 26.2787C8.11688 26.843 9.80045 26.6392 10.4557 25.4541C10.6752 25.0591 10.904 24.6578 10.9667 24.5622C11.0294 24.4666 11.39 24.7895 11.7693 25.2801C12.8698 26.7113 12.7005 28.9388 11.3743 30.4468C10.7253 31.1852 10.1014 31.6445 9.12326 32.0144C8.56834 32.226 7.89742 32.4079 7.04466 32.5944C6.68725 32.6728 6.46152 32.7653 6.31731 32.9503C6.14174 33.1728 6.08844 33.5271 6.06336 34.1494C6.03201 35.032 5.64012 35.9976 4.93471 36.9397C4.3453 37.7313 3.03482 39.5105 2.02844 40.8931C1.56757 41.5217 1.12865 42.0923 0.777515 42.525C0.360541 43.0407 0.0532974 43.0204 0 43V0H87Z" fill="#D9D9D9"/>
</svg>
