<svg width="123" height="75" viewBox="0 0 123 75" fill="none" xmlns="http://www.w3.org/2000/svg">
<path fill-rule="evenodd" clip-rule="evenodd" d="M28.6634 0.256938C28.1119 0.415837 26.7818 0.971323 25.7077 1.49104C22.8107 2.89325 20.3798 2.94351 17.7906 1.65476C16.9187 1.22086 16.1627 1.27112 16.8649 1.71622C17.042 1.82859 17.1092 1.92186 17.0142 1.92384C16.7738 1.92845 17.2058 2.45957 18.6101 3.88614C19.5973 4.88914 20.0949 5.20276 21.3727 5.62766C22.3975 5.96851 23.2781 6.11819 23.9452 6.06507C24.9554 5.98453 24.9594 5.98694 24.9594 6.68092C24.9594 7.58558 25.6418 9.14933 26.3043 9.76276C27.403 10.7802 29.259 11.2073 30.2832 10.6786C31.6261 9.9853 32.4084 8.66539 32.3964 7.11284C32.3896 6.22485 31.9519 5.30614 31.6702 5.58838C31.5918 5.66695 31.5276 5.99594 31.5276 6.31922C31.5276 7.06829 30.8828 7.65625 30.0342 7.68039C29.0612 7.70805 28.0246 6.43686 28.0246 5.21571C28.0246 4.65035 28.15 4.48597 28.7838 4.2204C31.0157 3.28545 33.9918 4.68042 35.0068 7.13698C35.4318 8.16521 35.1728 8.79949 33.92 9.79941C32.2175 11.1582 30.7438 11.6274 28.134 11.6414C25.7285 11.6544 24.8635 11.4784 22.1571 10.4253C20.6896 9.85428 20.0584 9.45023 18.873 8.32279C15.4107 5.02938 10.2204 3.74524 6.30596 5.2133C4.88197 5.74728 2.94192 7.17802 1.94727 8.42726C1.35131 9.17588 0 11.5907 0 11.9068C0 12.2053 0.443139 11.9507 1.29482 11.1623C2.41449 10.1262 4.93101 8.86006 6.52425 8.53129C9.85041 7.84478 13.4634 8.50474 15.697 10.2067C16.2713 10.6442 17.7921 12.6868 17.8626 13.1152C17.8731 13.1784 17.932 13.3781 17.9937 13.5592C18.0553 13.7403 18.2146 14.2198 18.3475 14.625C18.4807 15.0299 18.5696 16.2251 18.545 17.281C18.5054 18.9947 18.4183 19.3623 17.7343 20.707C15.0304 26.0226 7.55284 25.206 6.3237 19.4608C6.0244 18.0621 6.36968 16.0603 7.1143 14.878C8.54683 12.6034 12.0897 12.7939 13.2322 15.207C13.8555 16.5241 13.3294 18.2485 12.1379 18.7928C11.4012 19.1292 11.0436 19.1125 10.1793 18.7015C9.43201 18.3459 9.0423 17.6666 8.9291 16.5221L8.86408 15.8637L8.57092 16.3825C8.40956 16.6678 8.23418 17.4085 8.18076 18.0286C7.9454 20.7702 10.8943 22.8387 13.531 21.7813C15.7942 20.8736 17.319 17.2253 16.3898 14.9412C16.2525 14.6037 15.9948 13.9817 15.8172 13.5592C15.6397 13.1367 15.0444 12.3249 14.4944 11.7551C13.6637 10.8946 13.4382 10.7644 13.1639 10.987C12.9504 11.1599 12.8863 11.1665 12.9826 11.0052C13.3047 10.4664 12.2275 10.0599 10.0214 9.88764C5.24869 9.51475 1.55055 15.1153 3.10438 20.3629C3.22939 20.7854 3.57795 21.6297 3.87855 22.2389L4.42569 23.347L3.85797 24.1854C3.00541 25.4445 2.80837 26.342 2.69693 29.471C2.58395 32.6398 2.30546 33.7145 1.17944 35.3252C0.568592 36.1994 0.509259 36.3899 0.778557 36.6142C1.00253 36.8003 1.09471 36.8051 1.09471 36.6306C1.09471 36.4952 1.32613 36.3844 1.60922 36.3844C2.32035 36.3844 3.84571 35.3121 4.73308 34.1881C5.14032 33.6722 5.47355 33.1652 5.47355 33.0614C5.47355 32.7381 5.86151 32.852 6.69853 33.4215C8.06034 34.3479 9.89026 34.051 11.1113 32.7058C11.6762 32.0834 11.8229 31.7324 11.8229 31.0036C11.8229 29.3046 11.4789 28.7836 9.91785 28.1177C9.72912 28.0374 9.68993 28.224 9.77948 28.777C9.88194 29.4098 9.80312 29.6501 9.34094 30.1134C8.66659 30.7894 7.18742 30.8908 6.37011 30.3168C5.89742 29.985 5.86677 29.8498 5.99178 28.6517C6.16387 27.0002 6.74166 26.1223 7.63428 26.1552C7.98766 26.1681 8.23637 26.2447 8.18733 26.3251C8.13807 26.4054 8.75067 26.6892 9.54871 26.9554C15.8505 29.0575 22.5898 22.9601 22.0205 15.6712C21.9463 14.7202 21.823 13.8408 21.7466 13.7168C21.6702 13.5928 21.7072 13.5531 21.8287 13.6283C22.0518 13.7666 23.2729 14.2534 23.3692 14.2426C23.3977 14.2396 23.8903 14.3851 24.4639 14.5661C26.1762 15.1069 30.2781 15.223 32.2368 14.7861C35.3766 14.0859 36.708 13.1051 38.8142 9.94075C40.9386 6.74917 41.8759 5.75759 43.5048 4.97824C44.8257 4.34638 45.0801 4.2981 46.503 4.40849C47.358 4.47477 48.2793 4.59724 48.5504 4.68042C49.1881 4.87597 49.1868 4.52393 48.5486 4.20811C48.2786 4.07445 47.5769 3.68862 46.9891 3.35041C46.1726 2.88052 45.5465 2.71131 44.3353 2.63339C42.3635 2.50654 40.9975 2.92441 39.0785 4.24147L37.6989 5.18828L36.7779 3.76039C35.7357 2.14507 34.6679 1.27793 32.873 0.58944C31.3212 -0.00599075 29.9519 -0.114191 28.6634 0.256938ZM90.2818 0.179904C88.1596 0.601072 85.9769 2.29519 84.8916 4.3635L84.3618 5.37351L83.8648 4.85578C83.5913 4.5709 82.6151 3.97767 81.6955 3.5374C80.1977 2.82038 79.829 2.73479 78.1622 2.71613C76.5088 2.6977 76.1548 2.76881 74.9893 3.3537C74.2679 3.71583 73.4729 4.24806 73.2229 4.53644L72.7684 5.06076L72.3454 4.5281C71.8891 3.95352 71.032 3.54355 69.8924 3.3548C69.1534 3.23234 66.9962 3.98732 66.9962 4.36833C66.9962 4.7693 66.6001 4.53952 66.4771 4.06699C66.2796 3.30981 64.592 1.46755 63.7872 1.13044C63.3924 0.965178 62.7656 0.829763 62.3943 0.829763H61.7193L62.269 1.55227C62.5714 1.94973 63.0647 2.8138 63.3651 3.47266C63.8424 4.51976 63.9155 5.00436 63.9446 7.32353C63.9691 9.26082 64.086 10.2833 64.3779 11.1145C64.8015 12.3203 64.8068 12.3396 64.8068 12.6813C64.8068 12.802 64.9927 13.0871 65.2197 13.3147C65.6243 13.7203 65.6197 13.755 64.9874 15.0334C63.9838 17.0631 63.7576 18.8641 64.2435 20.9554C64.4622 21.897 64.7313 22.7808 64.8416 22.9193C64.9519 23.0578 65.0857 23.3971 65.1387 23.6734C65.2534 24.2701 66.5787 25.6996 67.653 26.3852C69.1902 27.3663 71.3639 27.6263 73.2737 27.0579C76.0996 26.2167 78.3904 22.5451 77.7587 19.8699C77.0997 17.08 76.238 15.9479 74.3739 15.4236C72.2653 14.8306 70.6856 15.4175 69.8168 17.1171C69.296 18.1361 69.201 19.7909 69.6187 20.5731C69.9626 21.2177 70.2803 21.1249 70.2803 20.3798C70.2803 18.8402 72.2164 17.734 73.5397 18.5175C75.1568 19.4751 75.0559 21.8494 73.3365 23.2996C72.7763 23.7722 72.4343 23.8742 71.4129 23.8736C69.8974 23.8727 69.0118 23.3874 68.1544 22.0879C67.6016 21.2502 67.5449 20.9835 67.5563 19.2811C67.5666 17.7768 67.6712 17.1884 68.0795 16.3437C69.7814 12.8222 73.7644 11.9153 77.1768 14.2727C77.9472 14.8049 78.4184 15.38 79.0091 16.5096C79.7616 17.9482 79.8032 18.1368 79.782 20.0194C79.7443 23.3955 78.289 26.2388 75.8984 27.6077C73.862 28.7733 70.6136 29.2158 67.847 28.7042C66.3083 28.4197 63.3865 26.9565 62.3321 25.9423C61.8741 25.5018 61.4447 25.1963 61.3779 25.2633C61.1397 25.502 62.6493 28.1623 63.6076 29.1927C64.8199 30.4959 66.7151 31.7287 68.1805 32.1672C72.1238 33.3471 76.8344 32.0766 80.1642 28.9348C82.4782 26.7517 85.5235 25.682 89.6414 25.6052C91.748 25.5661 92.021 25.6107 93.1983 26.1857C93.8996 26.5285 94.9332 27.2436 95.4952 27.7751C96.457 28.6842 96.5045 28.7823 96.3009 29.4354C95.5631 31.8036 94.0677 33.0546 91.7559 33.2369C90.1611 33.3629 89.4623 33.008 89.3677 32.0241C89.2808 31.1217 90.1874 29.6483 90.9471 29.4572C91.6044 29.2919 92.823 29.8998 92.8556 30.4095C92.869 30.6175 92.8618 31.0099 92.8399 31.2817C92.776 32.0737 93.2281 31.8503 93.4704 30.97C93.7389 29.9958 93.4485 28.4744 92.8274 27.6C92.3181 26.8832 91.151 26.2886 90.2524 26.2886C88.19 26.2886 86.0512 28.5929 86.0455 30.821C86.0444 31.2496 85.9509 31.2843 85.0298 31.198C83.1854 31.0253 80.6098 32.1001 79.3636 33.5626C78.8107 34.2112 77.9433 35.6799 77.9433 35.9672C77.9433 36.0861 78.3621 35.9417 78.8738 35.6461C80.1143 34.93 81.9458 34.5536 83.6581 34.6629C84.757 34.7329 85.4364 34.946 86.8104 35.6516C89.082 36.8183 91.2981 37.3343 92.8053 37.0479C95.0449 36.6221 97.3838 34.9084 98.3542 32.9826C98.5976 32.4997 98.8297 32.0678 98.87 32.0226C98.9103 31.9774 99.2676 32.2144 99.6641 32.5493C100.728 33.4483 102.929 34.3655 104.431 34.5358C106.031 34.7173 107.386 34.3962 108.978 33.4575C110.154 32.7644 110.518 32.257 109.635 32.5412C109.364 32.6283 108.476 32.7499 107.661 32.8114C104.966 33.0142 103.154 31.8905 100.984 28.6699C100.251 27.582 98.815 25.6067 98.2513 24.9114C95.9668 22.093 89.3559 21.2895 83.6283 23.1342C83.3431 23.2261 83.2918 22.9351 83.2885 21.1991C83.2822 17.842 82.0353 14.783 79.7778 12.5858C78.9754 11.805 78.259 11.1766 78.1859 11.1898C78.1125 11.2029 77.4616 10.9409 76.7391 10.6075C74.4282 9.54131 70.8697 9.64819 69.0192 10.8395C68.0108 11.4887 67.2151 10.3529 67.2151 8.26419C67.2151 7.40298 67.3073 7.14686 67.7078 6.89644C68.5549 6.36641 69.3617 6.28301 70.0728 6.65173C70.866 7.06302 71.1964 7.81537 71.0048 8.77535L70.8647 9.47832L71.6124 9.01194C72.5956 8.39873 73.0046 7.55486 72.9808 6.18798C72.9565 4.79191 73.296 4.5371 75.3795 4.38764C76.9077 4.27812 78.1622 4.54325 79.2729 5.21023C79.9556 5.6202 81.7387 7.61038 82.5194 8.83395C83.2082 9.9131 84.2265 11.2793 84.8947 12.0207C85.1658 12.3212 85.3873 12.6381 85.3873 12.7248C85.3873 12.9418 87.2111 13.9951 87.7755 14.1039C88.0284 14.1529 88.333 14.2534 88.4525 14.3274C88.5721 14.4013 88.8672 14.5058 89.1085 14.5593C89.3497 14.6129 89.7688 14.7106 90.0398 14.7766C90.3109 14.8427 91.6254 14.9548 92.9612 15.0259C95.4313 15.1572 97.754 14.8297 99.4736 14.1079L100.166 13.8175L100.095 15.8029C100.034 17.4983 100.113 18.0641 100.634 19.679C100.969 20.7191 101.37 21.7006 101.526 21.8599C101.681 22.0195 101.808 22.2927 101.808 22.4672C101.808 22.6417 102.424 23.4392 103.176 24.2394C106.131 27.3816 110.511 28.2689 114.14 26.4607C114.812 26.1258 115.042 26.0964 115.302 26.3126C115.836 26.7568 116.05 27.3241 116.151 28.5641C116.264 29.9402 115.939 30.3787 114.577 30.6875C113.88 30.8456 113.619 30.7964 113.013 30.3937C112.329 29.9387 112.292 29.8478 112.379 28.8674C112.43 28.294 112.389 27.825 112.288 27.825C111.863 27.825 110.745 29.0961 110.477 29.8834C109.768 31.9657 111.166 33.6915 113.636 33.7819C114.617 33.8179 116.258 33.233 116.258 32.8478C116.258 32.4528 116.671 32.6694 116.821 33.143C117.242 34.4706 119.485 36.3844 120.621 36.3844C121.043 36.3844 121.3 36.5156 121.373 36.7685C121.435 36.9838 121.464 36.9114 121.439 36.6039C121.412 36.2852 121.273 36.0804 121.108 36.1155C120.952 36.1487 120.885 36.0763 120.96 35.9547C121.035 35.8333 120.845 35.3634 120.538 34.9109C120.231 34.4581 119.98 33.9329 119.98 33.7437C119.98 33.5545 119.857 33.276 119.706 33.1252C119.518 32.9358 119.448 32.1907 119.482 30.722C119.512 29.4214 119.396 27.9527 119.183 26.9471C118.823 25.2453 118.153 23.655 117.797 23.655C117.685 23.655 117.958 22.8894 118.403 21.954C119.127 20.4327 119.212 20.0679 119.213 18.4973C119.214 16.2265 119.079 15.5797 118.18 13.5592C117.708 12.4996 116.542 11.1511 116.094 11.1474C115.944 11.1461 115.82 11.0585 115.82 10.953C115.82 10.8474 115.127 10.5377 114.28 10.2647C111.596 9.39931 109.281 9.94602 107.423 11.8842C106.208 13.1519 105.535 14.6965 105.532 16.2225C105.527 19.2155 106.998 21.4073 109.338 21.8944C110.978 22.2356 112.217 21.8175 113.182 20.5966C113.96 19.6112 114.272 17.7448 113.805 16.8686C113.396 16.1025 113.09 16.0948 113.038 16.8493C112.971 17.8115 112.646 18.2851 111.769 18.7026C110.876 19.1272 109.816 18.9146 109.15 18.1769C108.587 17.553 108.471 16.1299 108.908 15.2063C109.752 13.4247 112.403 12.6789 113.926 13.7945C115.315 14.8122 115.78 15.8722 115.804 18.0782C115.854 22.8199 111.406 25.6256 107.144 23.54C105.651 22.8091 104.937 22.0633 104.17 20.4331C102.528 16.94 104.069 11.6109 107.28 9.67979C111.222 7.30905 117.509 8.06755 121.09 11.3456C121.497 11.7183 121.906 12.0229 121.999 12.0229C122.244 12.0229 122.209 11.6344 121.95 11.4738C121.829 11.3991 121.521 10.8748 121.265 10.3086C119.818 7.11174 115.799 4.56695 112.188 4.56256C110.578 4.56037 108.066 5.17577 106.34 5.99528C105.642 6.32647 104.361 7.25593 103.494 8.06052C101.998 9.44913 101.504 9.76298 99.5529 10.5689C98.1462 11.1496 95.6222 11.5738 93.4032 11.6024C91.5367 11.6263 91.1514 11.5624 90.1432 11.0627C88.6704 10.3325 86.9199 8.81727 86.9199 8.27232C86.9199 7.51645 87.8169 5.90947 88.6704 5.1367C90.1397 3.80604 93.0838 3.51875 93.8133 4.63477C94.5367 5.74157 93.1057 7.98897 91.8236 7.75984C91.0141 7.61499 90.423 6.89161 90.423 6.04598C90.423 5.4793 90.3755 5.42443 90.09 5.6619C89.6006 6.06902 89.7016 8.20318 90.2537 9.12211C90.8348 10.0896 92.1075 10.9255 92.9986 10.9255C95.116 10.9255 97.204 8.74857 97.2089 6.53606C97.2102 6.00582 97.2601 5.98716 98.688 5.9797C99.5802 5.97509 100.551 5.81685 101.139 5.58048C102.106 5.19113 103.734 4.05009 104.057 3.53499C104.15 3.38684 104.348 3.1373 104.497 2.98038C104.783 2.67992 105.311 1.5876 105.311 1.2957C105.311 1.20133 104.707 1.42432 103.969 1.79106C102.834 2.35466 102.317 2.47054 100.63 2.53836L98.6333 2.61869L96.5534 1.59331C95.4094 1.02904 93.833 0.430761 93.0503 0.263522C91.4722 -0.0735886 91.5486 -0.0713931 90.2818 0.179904ZM59.2238 0.814181C57.6478 1.19541 56.5969 2.11961 55.2533 4.30578C55.2283 4.3466 54.7727 4.12449 54.2409 3.81196C53.7091 3.49965 52.9984 3.24397 52.6616 3.24397C50.6566 3.24397 49.043 4.554 49.043 6.18183C49.043 7.23596 49.4314 8.56773 49.6919 8.40641C49.7845 8.34913 50.0365 8.49749 50.2518 8.73606C50.8427 9.39031 51.2466 9.2955 51.0953 8.5381C50.8646 7.3806 51.6429 6.56679 53.1116 6.43006C54.0762 6.34007 54.9553 7.00113 54.952 7.81405C54.9472 8.98758 54.6774 10.0035 54.2188 10.575L53.7502 11.159L51.9376 10.4936C50.6128 10.0072 49.7421 9.82816 48.7014 9.82816C43.0494 9.82816 38.3617 15.4399 38.8471 21.6246C38.9252 22.6206 38.9311 23.4355 38.8602 23.4355C38.7891 23.4355 38.465 23.2985 38.1397 23.1313C36.3216 22.1957 31.2073 21.8415 28.4478 22.4599C25.4062 23.1418 24.0205 24.2458 21.5664 27.9432C19.155 31.5762 17.541 32.7185 14.7786 32.7471C13.9356 32.7559 12.9752 32.6872 12.6439 32.5943C11.822 32.3639 11.8918 32.6621 12.7972 33.2499C13.9372 33.9902 16.0533 34.6293 17.3441 34.6233C18.7355 34.6172 20.5464 33.916 22.0733 32.7925L23.1634 31.9901L23.716 32.9253C24.9843 35.0724 26.4762 36.2038 29.0164 36.9449C30.7189 37.4418 32.156 37.1657 35.0307 35.7903C37.395 34.6589 39.1448 34.3466 40.8657 34.7487C42.2267 35.0669 43.377 35.5644 43.8519 36.0405C44.4868 36.677 44.3158 35.8798 43.5863 34.8042C42.0603 32.5535 39.5142 31.117 37.0513 31.117C35.9325 31.117 35.9065 31.1026 35.9065 30.4768C35.9065 29.5998 35.2021 28.0446 34.5173 27.4097C34.2057 27.1209 33.4333 26.7089 32.8003 26.4943C31.7647 26.1429 31.5729 26.1361 30.8802 26.4263C28.9338 27.2414 27.9236 29.4719 28.7133 31.2097C29.0245 31.894 29.3382 31.7388 29.3382 30.9006C29.3382 30.0645 30.2948 29.2805 31.0803 29.4728C31.9616 29.6885 32.6677 30.6035 32.7896 31.6872C32.8958 32.6312 32.8803 32.6595 32.0704 32.9986C30.7027 33.5714 28.5824 33.1952 27.3677 32.1639C26.7788 31.664 25.847 30.1342 25.7084 29.4396C25.5904 28.8477 25.6904 28.6478 26.4887 27.8789C28.3992 26.0387 30.0568 25.5007 33.5625 25.5835C35.3331 25.6252 36.2824 25.8468 38.7256 26.7888C40.2404 27.3726 40.8119 27.7407 42.0097 28.903C44.2913 31.1168 48.0223 32.6485 51.1229 32.6441C54.7876 32.6389 58.2569 30.4332 60.0849 26.9462C61.1938 24.8309 61.0885 24.6474 59.571 26.0518C58.3811 27.1529 55.8687 28.3866 54.2026 28.6875C51.6911 29.1413 48.3743 28.8506 46.8387 28.0416C45.5443 27.3599 44.4119 26.3644 43.6888 25.2725C43.2594 24.6244 42.9498 24.0939 43.0011 24.0939C43.0521 24.0939 42.9098 23.5896 42.6851 22.9731C42.0498 21.2304 42.1905 18.4684 43.0061 16.6808C44.1181 14.2433 46.0323 13.041 48.824 13.0265C50.0963 13.02 50.6634 13.124 51.3419 13.4888C52.5368 14.1309 53.436 15.0643 54.0828 16.334C55.209 18.5443 54.5809 22.208 52.8992 23.2371C51.0487 24.3698 49.7191 24.2594 48.32 22.8572C47.2715 21.8061 47.0996 20.8988 47.7096 19.6358C48.3864 18.2342 49.342 17.8732 50.685 18.5121C51.4259 18.8645 51.6414 19.24 51.873 20.5823L52.0057 21.3505L52.3148 20.8018C52.8136 19.9171 52.7751 18.1062 52.2371 17.145C51.4062 15.66 49.4723 14.8216 47.7521 15.2002C46.6692 15.4385 45.2036 16.9898 44.6808 18.4508C44.2203 19.7374 44.0752 21.6384 44.4082 22.0199C44.5085 22.1345 44.7132 22.6605 44.8632 23.1888C45.2049 24.3913 46.8174 26.1611 48.1088 26.7509C49.4876 27.3805 51.5361 27.5201 53.0264 27.0858C54.5347 26.6462 56.2818 25.1434 57.0492 23.6258C57.7501 22.2391 58.309 19.7986 58.1483 18.8266C58.0785 18.4041 57.9714 17.7621 57.9103 17.4C57.8495 17.0379 57.4906 16.0862 57.1132 15.2851L56.4266 13.8287L56.9963 13.0799C57.7849 12.0437 58.2315 9.92473 58.2352 7.20172C58.239 4.60667 58.5383 3.5205 59.6952 1.90408C60.093 1.34838 60.355 0.829763 60.2773 0.75185C60.1199 0.594049 60.1372 0.593171 59.2238 0.814181ZM33.2623 1.32358C33.1443 1.71073 33.1237 2.15604 33.229 2.05069C33.3886 1.89048 33.5003 1.26871 33.3694 1.26871C33.3197 1.26871 33.2717 1.29329 33.2623 1.32358ZM88.4245 1.87226C88.1523 2.22034 88.16 2.22803 88.5072 1.95522C88.872 1.66837 88.9878 1.48818 88.8076 1.48818C88.7623 1.48818 88.5898 1.66113 88.4245 1.87226ZM64.3689 2.5726C64.3689 2.68629 64.4663 2.83948 64.5854 2.91322C64.7094 2.99004 64.7461 2.90203 64.6715 2.7067C64.5259 2.32657 64.3689 2.257 64.3689 2.5726ZM19.2669 3.18054C19.2669 3.30652 19.4392 3.5453 19.65 3.71101C20.0045 3.98952 20.0091 3.9792 19.712 3.57318C19.5353 3.33176 19.363 3.09319 19.3288 3.04271C19.2947 2.99245 19.2669 3.05456 19.2669 3.18054ZM57.0854 4.14907C57.234 4.29919 57.4107 4.36657 57.4779 4.29897C57.5454 4.23138 57.4238 4.10869 57.208 4.02617C56.896 3.90721 56.8708 3.93223 57.0854 4.14907ZM69.4046 3.98535C69.4046 4.03078 69.5771 4.20372 69.7877 4.36942C70.135 4.64223 70.1426 4.63455 69.8705 4.28646C69.5843 3.92082 69.4046 3.80472 69.4046 3.98535ZM80.7895 3.99676C80.7895 4.05711 80.9866 4.21206 81.2274 4.34133C81.4683 4.4706 81.6653 4.52679 81.6653 4.46643C81.6653 4.40608 81.4683 4.25113 81.2274 4.12186C80.9866 3.99259 80.7895 3.9364 80.7895 3.99676ZM68.8798 4.30468C68.8178 4.40542 68.906 4.48772 69.0762 4.48772C69.2463 4.48772 69.3345 4.40542 69.2725 4.30468C69.2106 4.20416 69.1221 4.12186 69.0762 4.12186C69.0302 4.12186 68.9417 4.20416 68.8798 4.30468ZM40.5999 4.51055C40.6748 4.58539 40.8898 4.66922 41.0781 4.6971C41.2662 4.72475 41.359 4.68612 41.2843 4.61106C41.2095 4.53622 40.9945 4.45239 40.8062 4.42451C40.6181 4.39686 40.5253 4.43549 40.5999 4.51055ZM65.5731 4.78028C65.4986 4.90099 65.5422 4.99975 65.6696 4.99975C65.7971 4.99975 65.9015 4.90099 65.9015 4.78028C65.9015 4.65957 65.8581 4.56081 65.8049 4.56081C65.7517 4.56081 65.6475 4.65957 65.5731 4.78028ZM57.0438 5.20408C56.9744 5.31645 57.0015 5.46021 57.1038 5.52363C57.206 5.58706 57.2899 5.4951 57.2899 5.3193C57.2899 4.94927 57.2207 4.91701 57.0438 5.20408ZM15.5449 6.92826C15.5449 7.02329 15.7653 7.11767 16.0346 7.13808C16.4198 7.16705 16.4548 7.13084 16.1989 6.96864C15.7986 6.71493 15.5449 6.69935 15.5449 6.92826ZM117.572 7.06126C117.572 7.10867 117.725 7.20633 117.912 7.27832C118.106 7.35316 118.194 7.31629 118.118 7.19207C117.989 6.98335 117.572 6.88349 117.572 7.06126ZM48.1845 11.0535C48.195 11.3092 48.2469 11.3612 48.3167 11.1863C48.38 11.0278 48.3721 10.8384 48.2994 10.7655C48.2268 10.6927 48.1751 10.8222 48.1845 11.0535ZM50.419 11.0978C50.4589 11.359 50.5565 11.6379 50.636 11.7178C50.7157 11.7975 50.7378 11.6386 50.685 11.3645C50.5602 10.715 50.3249 10.4789 50.419 11.0978ZM114.192 10.9898C114.275 11.2062 114.397 11.328 114.464 11.2604C114.532 11.1931 114.465 11.0159 114.315 10.8669C114.098 10.6518 114.074 10.6771 114.192 10.9898ZM71.056 11.1299C70.9104 11.366 71.3389 11.6932 71.5355 11.4962C71.6078 11.4237 71.5463 11.3645 71.3987 11.3645C71.2511 11.3645 71.1911 11.2657 71.2656 11.145C71.34 11.0243 71.3516 10.9255 71.2914 10.9255C71.2312 10.9255 71.1252 11.0175 71.056 11.1299ZM76.1854 11.2624C76.0341 11.445 75.9737 11.6579 76.051 11.7356C76.1285 11.8131 76.1918 11.7556 76.1918 11.6076C76.1918 11.4597 76.2835 11.3954 76.3956 11.4648C76.5077 11.5343 76.657 11.4975 76.7275 11.3831C76.9504 11.0217 76.4729 10.9152 76.1854 11.2624ZM88.3656 11.1083C88.3036 11.2091 88.3919 11.2914 88.562 11.2914C88.7321 11.2914 88.8203 11.2091 88.7584 11.1083C88.6964 11.0078 88.608 10.9255 88.562 10.9255C88.516 10.9255 88.4275 11.0078 88.3656 11.1083ZM51.5453 11.6305C51.5453 11.8493 51.6473 11.99 51.7719 11.9432C51.8967 11.8965 51.97 11.7352 51.935 11.5844C51.8962 11.4182 52.0037 11.3616 52.2087 11.4404C52.3943 11.5117 52.546 11.4755 52.546 11.3601C52.546 11.2444 52.3208 11.1687 52.0455 11.1915C51.7237 11.2181 51.5453 11.3748 51.5453 11.6305ZM109.467 11.4795C109.314 11.6634 109.232 11.8565 109.284 11.9085C109.336 11.9603 109.498 11.81 109.645 11.5741C109.963 11.0638 109.857 11.0078 109.467 11.4795ZM12.5907 11.5815C12.5141 11.7058 12.6019 11.7426 12.7967 11.6678C13.1759 11.5218 13.2453 11.3645 12.9305 11.3645C12.8171 11.3645 12.6643 11.4621 12.5907 11.5815ZM89.2188 11.5839C89.2932 11.7047 89.3975 11.8034 89.4507 11.8034C89.5039 11.8034 89.5472 11.7047 89.5472 11.5839C89.5472 11.4632 89.4428 11.3645 89.3154 11.3645C89.1879 11.3645 89.1444 11.4632 89.2188 11.5839ZM89.0093 13.3246C88.9399 13.437 88.967 13.5807 89.0693 13.6441C89.1715 13.7076 89.2554 13.6156 89.2554 13.4398C89.2554 13.0698 89.1862 13.0375 89.0093 13.3246ZM14.9099 13.7139C15.0695 13.9799 15.2471 14.1505 15.3047 14.0927C15.3623 14.035 15.2318 13.8173 15.0148 13.6088C14.6378 13.2469 14.633 13.2515 14.9099 13.7139ZM80.7895 15.2516C80.7895 15.3775 80.9621 15.6163 81.1727 15.782C81.5272 16.0605 81.5318 16.0502 81.2347 15.6442C81.058 15.4028 80.8857 15.1642 80.8515 15.1137C80.8173 15.0635 80.7895 15.1256 80.7895 15.2516ZM74.7686 16.4124C74.8431 16.5331 74.9473 16.6318 75.0005 16.6318C75.0537 16.6318 75.0971 16.5331 75.0971 16.4124C75.0971 16.2916 74.9926 16.1929 74.8652 16.1929C74.7378 16.1929 74.6942 16.2916 74.7686 16.4124ZM81.2274 16.4986C81.2274 16.546 81.3802 16.6437 81.5672 16.7157C81.7621 16.7905 81.8499 16.7536 81.7733 16.6294C81.6447 16.4207 81.2274 16.3208 81.2274 16.4986ZM40.8837 16.8785C41.0323 17.0286 41.209 17.096 41.2762 17.0284C41.3437 16.9608 41.2222 16.8381 41.0063 16.7556C40.6943 16.6367 40.6691 16.6617 40.8837 16.8785ZM15.3259 17.2902C15.1287 17.418 15.1015 17.5042 15.2583 17.5064C15.4017 17.5082 15.5799 17.411 15.6543 17.2902C15.8223 17.0177 15.7465 17.0177 15.3259 17.2902ZM15.2075 18.4023C15.128 18.5309 15.1101 18.6835 15.1674 18.741C15.2248 18.7985 15.3301 18.6931 15.4015 18.5068C15.5495 18.1201 15.4234 18.052 15.2075 18.4023ZM9.74445 19.702C9.66782 19.8263 9.75561 19.8631 9.95047 19.7883C10.3297 19.6423 10.3991 19.485 10.0842 19.485C9.97083 19.485 9.81801 19.5826 9.74445 19.702ZM19.7048 21.0213C19.8854 21.1383 20.1317 21.234 20.2521 21.234C20.3725 21.234 20.3233 21.1383 20.1427 21.0213C19.962 20.9043 19.7157 20.8086 19.5953 20.8086C19.4749 20.8086 19.5241 20.9043 19.7048 21.0213ZM76.7008 21.1657C76.7801 21.2452 76.7225 21.4673 76.5729 21.6595C76.333 21.9681 76.3457 21.974 76.682 21.7098C77.0244 21.4405 77.0292 21.0213 76.6896 21.0213C76.6165 21.0213 76.6216 21.0863 76.7008 21.1657ZM75.9728 22.5576C75.9728 22.6783 76.1265 22.7771 76.3142 22.7771C76.5018 22.7771 76.5946 22.6783 76.5202 22.5576C76.4457 22.4369 76.2923 22.3381 76.1788 22.3381C76.0654 22.3381 75.9728 22.4369 75.9728 22.5576ZM6.7872 22.7641C6.7872 22.8778 6.88463 23.031 7.00373 23.1047C7.12765 23.1816 7.16444 23.0936 7.08978 22.8982C6.94418 22.5181 6.7872 22.4485 6.7872 22.7641ZM46.9878 23.2562C47.051 23.3587 47.1944 23.3859 47.3065 23.3163C47.5929 23.139 47.5607 23.0696 47.1916 23.0696C47.0162 23.0696 46.9245 23.1537 46.9878 23.2562ZM94.82 23.4976C94.8704 23.5318 95.1083 23.7046 95.3492 23.8817C95.7542 24.1795 95.7645 24.1749 95.4867 23.8196C95.3214 23.6082 95.0832 23.4355 94.9575 23.4355C94.8318 23.4355 94.7699 23.4634 94.82 23.4976ZM37.8005 24.6356C37.7327 24.8127 37.7508 25.0034 37.841 25.0594C37.9312 25.1151 38.0193 24.9703 38.0368 24.7372C38.0746 24.2331 37.9715 24.1887 37.8005 24.6356ZM38.7689 24.6231C38.5907 24.8384 38.5835 24.9766 38.7457 25.0771C38.8738 25.1566 38.9263 25.3067 38.8622 25.4107C38.798 25.5148 38.8482 25.6634 38.9734 25.7411C39.0989 25.8188 39.1744 25.7516 39.1413 25.5916C39.108 25.4307 39.2278 25.3337 39.4095 25.3741C39.5902 25.4145 39.6558 25.3651 39.5556 25.2644C39.4551 25.1638 39.2828 25.0815 39.1724 25.0815C39.0619 25.0815 38.9964 24.9828 39.0264 24.8621C39.0564 24.7414 39.1623 24.6698 39.2615 24.7029C39.3609 24.7361 39.3798 24.6619 39.3033 24.5383C39.1232 24.2458 39.075 24.2535 38.7689 24.6231ZM97.6481 25.5205C98.0566 25.943 98.44 26.2886 98.5002 26.2886C98.5604 26.2886 98.2756 25.943 97.867 25.5205C97.4585 25.098 97.0751 24.7523 97.0149 24.7523C96.9547 24.7523 97.2395 25.098 97.6481 25.5205ZM113.193 25.4237C113.193 25.5514 113.291 25.5951 113.412 25.5205C113.532 25.4459 113.631 25.3414 113.631 25.2881C113.631 25.2347 113.532 25.1913 113.412 25.1913C113.291 25.1913 113.193 25.296 113.193 25.4237ZM10.6741 25.8054C10.7619 26.0349 10.8389 26.065 10.8965 25.8921C10.9449 25.7465 11.0993 25.6932 11.2394 25.7738C11.3797 25.8543 11.4176 25.8354 11.3239 25.7323C11.0056 25.3816 10.5322 25.4349 10.6741 25.8054ZM82.4226 25.6449C82.3432 25.7735 82.3375 25.9381 82.4097 26.0106C82.482 26.083 82.5411 26.0213 82.5411 25.8734C82.5411 25.7255 82.6549 25.6748 82.794 25.7608C82.9505 25.858 82.9873 25.8212 82.8903 25.6642C82.6967 25.3502 82.6065 25.3464 82.4226 25.6449ZM13.4897 26.1093C13.5529 26.2118 13.6963 26.239 13.8084 26.1695C14.0948 25.9921 14.0626 25.9228 13.6935 25.9228C13.5181 25.9228 13.4264 26.0068 13.4897 26.1093ZM111.795 26.1093C111.858 26.2118 112.001 26.239 112.113 26.1695C112.4 25.9921 112.368 25.9228 111.998 25.9228C111.823 25.9228 111.731 26.0068 111.795 26.1093ZM33.0701 27.5078C33.2255 27.6955 33.5579 27.956 33.8086 28.087C34.135 28.2575 34.0903 28.1607 33.6509 27.7457C32.9801 27.1121 32.6206 26.9648 33.0701 27.5078ZM65.5812 29.1284C65.5113 29.2419 65.6464 29.3202 65.8816 29.3024C66.1167 29.2847 66.2608 29.1918 66.2019 29.0961C66.0563 28.8602 65.7364 28.8769 65.5812 29.1284ZM55.8475 29.4892C55.858 29.7449 55.9099 29.7969 55.9797 29.622C56.043 29.4635 56.0351 29.2741 55.9624 29.2013C55.8897 29.1284 55.8381 29.2579 55.8475 29.4892ZM112.418 32.2291C112.338 32.3577 112.32 32.5103 112.378 32.5678C112.435 32.6253 112.54 32.5199 112.612 32.3336C112.76 31.9469 112.634 31.8788 112.418 32.2291ZM39.3128 32.6329C39.2451 32.7422 39.3872 32.7802 39.6283 32.717C40.1395 32.5829 40.2041 32.4339 39.7509 32.4339C39.5772 32.4339 39.3802 32.5234 39.3128 32.6329ZM103.233 32.6509C103.156 32.7752 103.244 32.812 103.439 32.7372C103.818 32.5912 103.887 32.4339 103.572 32.4339C103.459 32.4339 103.306 32.5316 103.233 32.6509ZM41.3266 33.4575C41.4779 33.5187 41.5366 33.6743 41.4571 33.8034C41.3708 33.9432 41.4159 33.9739 41.5687 33.8791C41.8702 33.6926 41.6892 33.3041 41.3124 33.3291C41.1258 33.3414 41.1298 33.3781 41.3266 33.4575ZM118.544 33.8725C118.143 34.1945 118.15 34.1989 118.666 33.9526C119.337 33.6326 119.461 33.5313 119.183 33.5313C119.065 33.5313 118.778 33.6849 118.544 33.8725ZM87.7957 35.1538C87.7957 35.2012 87.9485 35.2989 88.1355 35.3709C88.3303 35.4457 88.4181 35.4088 88.3415 35.2846C88.213 35.0759 87.7957 34.976 87.7957 35.1538ZM29.0637 37.7201C26.9428 38.2212 24.5224 40.1824 23.6702 42.0905L23.2818 42.9603L22.6797 42.3304C22.3485 41.9838 21.3714 41.3684 20.5081 40.9628C19.1123 40.3068 18.7322 40.2252 17.0775 40.2252C15.3872 40.2252 15.0766 40.2956 13.6909 40.9933C12.0223 41.8335 11.492 42.4377 12.7374 42.0795C14.3808 41.6072 16.6144 41.8831 18.2162 42.7568C18.8726 43.1148 20.5641 45.0141 21.4375 46.3739C22.0862 47.384 23.14 48.8066 23.7005 49.4294C23.9113 49.6634 24.0836 49.9248 24.0836 50.0102C24.0836 50.2367 26.1502 51.5296 26.6739 51.6305C26.9193 51.6779 27.3163 51.8219 27.5556 51.9503C28.2153 52.3043 30.4767 52.5183 33.2792 52.4922C35.3164 52.4733 36.1105 52.366 37.4391 51.9301L39.0811 51.3915V53.7094C39.0811 55.6212 39.1766 56.2963 39.6261 57.5636C39.9258 58.4085 40.2954 59.2305 40.4471 59.3898C40.599 59.5493 40.7232 59.8226 40.7232 59.9971C40.7232 60.1716 41.3391 60.9643 42.0916 61.759C43.104 62.8276 43.8873 63.409 45.102 63.9935C46.641 64.7335 46.8818 64.7838 48.9335 64.7948C50.893 64.8048 51.265 64.7403 52.4753 64.1798C53.2193 63.8352 53.9344 63.6193 54.0642 63.6998C54.5246 63.9851 54.9945 65.2039 55.0499 66.2564C55.1153 67.5044 54.7821 67.9251 53.4989 68.2152C52.821 68.3686 52.5314 68.3184 51.9256 67.9431C51.216 67.5037 51.1875 67.4359 51.2852 66.4191C51.3412 65.8337 51.3427 65.3548 51.2887 65.3548C50.9543 65.3548 49.9242 66.1643 49.6357 66.6537C49.1032 67.5575 49.0425 68.9689 49.5036 69.7289C50.3794 71.1724 52.4797 71.7542 54.1345 71.0115C54.6389 70.7853 55.1285 70.4815 55.2219 70.3367C55.3494 70.14 55.4468 70.1567 55.6079 70.4027C55.7264 70.5838 55.8249 70.8417 55.8269 70.9758C55.8302 71.2128 57.3238 72.8266 58.1262 73.4604C58.6613 73.8829 60.4733 74.1588 60.7564 73.861C60.9046 73.7047 60.8915 73.6777 60.7152 73.7769C60.4207 73.9428 59.427 72.5648 58.7975 71.1178C58.4886 70.4073 58.3841 69.5755 58.357 67.6062C58.3189 64.8371 57.7083 62.1896 56.9275 61.407C56.5634 61.042 56.582 60.9465 57.3137 59.426C58.5216 56.9163 58.4846 54.0954 57.2071 51.3086C56.7543 50.3207 55.1714 48.4308 54.9246 48.5836C54.8206 48.6481 54.7355 48.6086 54.7355 48.4958C54.7355 48.0648 51.7241 47.3012 50.4142 47.4002C47.434 47.6254 45.0418 49.911 44.4362 53.1122C44.2558 54.0649 44.2978 54.4916 44.6998 55.7946C45.3354 57.8552 46.4645 59.0426 48.1296 59.4005C49.996 59.8017 51.3329 59.2941 52.2601 57.8317C52.9355 56.7664 53.077 55.0488 52.5677 54.0937C52.1773 53.3611 51.8892 53.5351 51.8892 54.5039C51.8892 56.4008 49.3259 57.1685 48.0534 55.6528C46.4914 53.7921 48.3189 50.7851 51.0117 50.7851C52.4293 50.7851 53.5081 51.4995 54.2212 52.9103C54.7252 53.9074 54.7757 54.221 54.6917 55.8277C54.6093 57.4005 54.5025 57.7852 53.8455 58.8729C52.1964 61.6032 49.2343 62.5046 46.2517 61.184C44.4864 60.4024 43.0768 58.6675 42.5969 56.6857C42.3348 55.6037 42.4406 53.1403 42.8025 51.8924C43.5725 49.2367 45.1819 47.4382 47.6676 46.4554C48.7522 46.0265 49.341 45.9539 51.7797 45.9493C54.4219 45.9442 54.7359 45.989 56.1586 46.5759C57.9949 47.3333 59.1607 48.0439 60.0306 48.9361C60.3853 49.2997 60.7375 49.535 60.8133 49.4591C61.0421 49.2297 59.7657 46.8842 58.7607 45.6874C57.7439 44.4766 55.2198 42.8303 54.0348 42.6051C53.6375 42.5296 53.1867 42.3688 53.033 42.2476C52.6253 41.9263 48.7043 42.1996 47.4009 42.64C45.2511 43.3665 43.6568 44.3067 42.2492 45.6782C41.1685 46.7312 40.4434 47.2185 39.1906 47.7334C36.9272 48.6635 34.8128 49.098 32.3388 49.1415C30.4765 49.174 30.1093 49.1136 29.0777 48.6051C28.4381 48.2897 27.4032 47.581 26.7777 47.0299L25.6403 46.0283L25.9313 45.2116C26.8611 42.6019 28.8381 41.2198 31.2515 41.4924C32.6103 41.646 32.9109 41.9781 32.776 43.1769C32.5702 45.0079 30.7221 45.9335 29.7214 44.7066C29.5105 44.4483 29.3382 43.9393 29.3382 43.5759C29.3382 43.0131 29.2894 42.9554 29.0098 43.1881C28.5741 43.5506 28.5739 45.6352 29.0096 46.4797C29.4726 47.3774 30.7083 48.2566 31.6837 48.3826C33.7656 48.651 36.0532 46.4582 36.1088 44.1408C36.1252 43.4556 36.137 43.4486 37.1176 43.5234C38.5443 43.6325 40.4103 43.0764 41.6924 42.1603C42.3033 41.7237 42.8791 41.238 42.9722 41.0811C43.0652 40.924 43.2938 40.6426 43.4803 40.4554C43.6671 40.2684 43.7577 40.1154 43.6822 40.1154C43.6066 40.1154 43.7187 39.82 43.9313 39.4592C44.2455 38.9261 44.2654 38.751 44.0375 38.5265C43.8116 38.3037 43.7709 38.3116 43.8276 38.5666C43.9532 39.1331 41.5123 39.9579 39.4095 40.0593C37.5614 40.1486 37.5341 40.142 35.4686 39.1234C33.6273 38.2152 31.1559 37.4552 30.214 37.5077C30.0333 37.5178 29.5158 37.6132 29.0637 37.7201ZM90.3135 37.6332C89.4172 37.8388 87.5139 38.6026 86.2366 39.2689C84.0446 40.4124 81.2815 40.3823 78.8832 39.1886C78.3768 38.9367 77.9197 38.5728 77.8678 38.3803C77.8157 38.1878 77.7837 38.3022 77.7966 38.634C77.8093 38.9658 77.8903 39.2376 77.9764 39.2376C78.0624 39.2376 78.201 39.4533 78.2846 39.7171C78.368 39.9809 78.9839 40.7199 79.6532 41.3594C81.1057 42.7474 83.1408 43.627 84.8993 43.627C85.9673 43.627 86.0459 43.6639 86.0715 44.1757C86.1871 46.4955 88.114 48.4554 90.2787 48.4554C91.1006 48.4554 92.2389 47.7707 92.8966 46.8805C93.4418 46.1426 93.6508 44.2321 93.2655 43.5103C92.9518 42.9227 92.5969 42.9717 92.7558 43.5807C92.9342 44.2644 92.0265 45.1633 91.1578 45.1633C90.7365 45.1633 90.2743 45.04 90.1309 44.889C89.5952 44.3256 89.2011 43.4953 89.1393 42.7998C89.0826 42.1618 89.1612 42.0466 89.8518 41.7573C90.823 41.3506 92.4077 41.339 93.331 41.7323C94.945 42.4195 96.6015 44.8519 96.2379 46.0006C96.0235 46.6775 94.0703 48.1504 92.7105 48.6602C90.9587 49.3173 87.9303 49.3502 85.3873 48.7396C85.0863 48.6674 83.9861 48.2392 82.9426 47.788C81.4626 47.1482 80.7641 46.6847 79.768 45.6802C78.1699 44.0692 76.0455 42.9739 73.4513 42.423C70.7933 41.8585 68.4452 42.1111 66.3398 43.1878C64.8607 43.9444 62.747 46.1169 61.8784 47.7737C61.4419 48.6064 61.0848 49.3474 61.0848 49.4202C61.0848 49.7292 61.5122 49.5047 62.2476 48.8097C65.9786 45.2823 72.9063 44.7834 76.8131 47.7606C77.7145 48.4475 78.9482 50.3442 79.3021 51.5869C79.4474 52.0978 79.5707 53.4642 79.5759 54.6235C79.5847 56.6082 79.5407 56.8191 78.8191 58.2373C78.2176 59.4194 77.8008 59.9196 76.8817 60.5627C74.9882 61.8878 72.4511 62.1778 70.6598 61.2742C69.8131 60.8471 68.3099 59.4449 68.3099 59.0821C68.3099 58.9403 68.1781 58.7147 68.0169 58.5806C67.4674 58.1236 67.1665 56.0797 67.4323 54.6101C67.8477 52.3142 68.8951 51.1029 70.7657 50.7553C72.4045 50.4507 74.6592 52.2113 74.6592 53.7954C74.6592 54.7348 74.0258 55.894 73.3098 56.2652C71.9029 56.9945 70.1866 55.896 70.0233 54.1617L69.9508 53.3936L69.6115 54.052C69.1823 54.8847 69.2248 56.6883 69.6953 57.6002C70.2055 58.5891 71.0079 59.1449 72.3653 59.4493C73.9187 59.7978 75.2 59.3426 76.3039 58.0497C78.3702 55.6296 78.1031 51.8623 75.6884 49.3724C74.4656 48.1117 73.1588 47.5339 71.243 47.4072C69.8862 47.3177 69.5162 47.3818 68.3409 47.9105C66.781 48.6121 65.4316 49.9841 64.6745 51.6378C64.1624 52.7564 63.6291 55.4184 63.8102 55.952C63.8653 56.1142 63.9538 56.543 64.007 56.9051C64.1537 57.9046 64.2078 58.0593 64.9283 59.5382L65.5972 60.911L65.0934 61.5417C64.2205 62.6345 63.8653 64.1552 63.716 67.4398C63.5678 70.7006 63.2335 71.8668 62.0945 73.0987C61.4117 73.8377 61.5851 74.1035 62.6261 73.9128C64.0854 73.6452 65.4778 72.4803 66.6678 70.5316C66.8637 70.2105 66.9511 70.2291 67.5033 70.71C69.0998 72.1001 71.8291 71.4141 72.7183 69.3991C73.0705 68.6011 73.1051 68.2888 72.9168 67.6071C72.6239 66.5466 72.5267 66.4206 71.5331 65.8155L70.7062 65.3116L70.8472 66.1954C70.9685 66.9559 70.9094 67.1585 70.4253 67.6437C69.8024 68.2679 68.7348 68.3926 67.7728 67.9532C67.264 67.721 67.2151 67.5816 67.216 66.362C67.2165 65.4172 67.3439 64.8167 67.6506 64.3124C67.8893 63.9199 68.1143 63.5991 68.1507 63.5991C68.187 63.5991 69.1 63.9079 70.1792 64.2851C71.9239 64.8951 72.3292 64.9583 73.8379 64.8544C78.0096 64.568 81.7098 61.1811 82.8881 56.5704C83.1506 55.5433 83.2124 54.6525 83.1204 53.2197C83.0061 51.4367 83.0278 51.2811 83.3702 51.4198C86.0787 52.5174 90.5951 52.9241 93.3216 52.316C96.5976 51.5853 97.6899 50.7311 100.458 46.7343C101.573 45.1245 102.744 43.7047 103.319 43.2647C104.696 42.2105 106.325 41.7815 108.311 41.9498C109.19 42.0242 109.909 42.0411 109.909 41.9873C109.909 41.7716 107.944 40.7545 106.935 40.4475C104.684 39.7632 102.616 40.1549 100.249 41.7141L98.7993 42.669L98.3887 41.8862C96.924 39.0927 92.9872 37.0196 90.3135 37.6332ZM0.631428 38.1402C0.560491 38.5006 0.701271 38.9347 1.04129 39.405C2.2435 41.0675 2.56293 42.2345 2.677 45.3828C2.79129 48.5355 3.29902 50.621 4.09443 51.2041C4.45985 51.4719 4.44211 51.5704 3.79273 52.88C2.44186 55.6043 2.39128 58.405 3.64472 61.0751C4.24266 62.3492 5.95478 64.205 6.70663 64.3942C6.99191 64.4658 7.22508 64.5961 7.22508 64.6837C7.22508 64.771 7.34835 64.8514 7.49876 64.8617C7.64939 64.8722 8.01875 64.946 8.31979 65.0261C10.5361 65.6145 12.5443 65.1384 14.2708 63.6149C16.3449 61.7849 17.0523 59.2122 16.2148 56.5452C15.8253 55.3052 14.3626 53.396 13.9823 53.6317C13.8783 53.696 13.7933 53.6604 13.7933 53.5529C13.7933 53.4451 13.6703 53.3497 13.5197 53.3405C13.3692 53.3315 12.7753 53.2518 12.2001 53.1636C10.8203 52.9518 9.64592 53.4741 8.82226 54.6656C8.31059 55.4059 8.21032 55.7773 8.21032 56.9334C8.21032 57.9119 8.31344 58.4193 8.56282 58.6695C8.88707 58.9943 8.9267 58.9524 9.055 58.1487C9.35823 56.2474 11.5424 55.4711 12.8219 56.8099C13.353 57.3656 13.4649 57.6682 13.4649 58.5494C13.4649 60.3932 11.9503 61.8433 10.0245 61.8433C8.83321 61.8433 8.23615 61.5992 7.49832 60.8104C6.57614 59.8246 6.28035 58.964 6.2694 57.2343C6.25232 54.4949 7.36893 52.5971 9.70854 51.3891C10.5887 50.9346 11.0355 50.8496 12.3358 50.8892C15.0619 50.9723 16.6236 52.0361 17.9327 54.7016C18.4923 55.8413 18.6096 56.3435 18.6074 57.5905C18.5998 62.0419 16.4609 65.2124 12.675 66.3837C11.1577 66.8532 7.31616 66.901 5.80196 66.4693C4.53363 66.1079 2.18942 64.9357 2.18942 64.6628C2.18942 64.5606 2.05783 64.477 1.89713 64.477C1.73643 64.477 1.34168 64.1807 1.01983 63.8185C0.167053 62.8592 -0.010947 63.0115 0.571438 64.2026C0.851684 64.7761 1.08508 65.3439 1.09033 65.4646C1.09537 65.5853 1.68125 66.3122 2.3926 67.0799C3.26793 68.0252 3.77981 68.4213 3.97752 68.3068C4.138 68.2137 4.19887 68.2159 4.1126 68.3116C3.93942 68.5041 4.62471 69.0754 5.47355 69.4465C5.77459 69.5779 6.26721 69.7937 6.56826 69.9258C7.81228 70.4716 9.71686 70.6643 11.4625 70.4212C14.4381 70.0061 16.919 68.7885 19.021 66.7114C20.995 64.7605 24.5418 63.544 28.353 63.5104C30.5299 63.4913 30.8772 63.5451 31.9655 64.0685C32.6278 64.3872 33.6522 65.082 34.2421 65.6127L35.3144 66.5777L35.0397 67.4477C34.3607 69.5962 33.0197 70.7567 30.8627 71.0622C28.5113 71.3954 27.6169 70.6613 28.2722 68.9353C28.6698 67.8887 29.5569 67.2274 30.3099 67.4168C31.1784 67.6354 31.8087 68.3687 31.6553 68.9816C31.4707 69.7193 31.9224 69.8865 32.1904 69.18C32.8452 67.4537 31.8655 65.2352 30.1034 64.4539C29.2539 64.0771 29.0915 64.0698 28.1016 64.3646C26.3177 64.8957 25.0465 66.4579 24.9248 68.2684L24.8727 69.0433L23.2192 69.1195C21.1699 69.2138 19.3672 70.0489 18.1938 71.4472C17.4015 72.3918 16.5888 73.7172 16.7208 73.8495C16.76 73.8886 17.3733 73.6527 18.0842 73.3252C19.0208 72.8935 19.8882 72.6925 21.2374 72.5946C23.2201 72.4506 23.3298 72.4752 25.7878 73.6119C29.2835 75.2281 31.1596 75.3966 33.5285 74.3067C34.8472 73.6999 36.6108 72.029 37.2481 70.7826C37.6101 70.0751 37.7318 69.9879 38.0902 70.1802C38.3207 70.304 38.5751 70.5118 38.6555 70.6422C38.9187 71.069 41.9024 72.3205 43.0225 72.4737C44.6624 72.6982 47.1307 72.0121 48.4796 70.9569C49.0811 70.4863 48.8494 70.3935 47.7234 70.6538C44.767 71.3377 41.9959 69.9205 39.8288 66.6168C39.4527 66.0433 39.0566 65.5743 38.9489 65.5743C38.8409 65.5743 38.7527 65.4598 38.7527 65.32C38.7527 64.9997 37.1941 62.9183 36.4057 62.1854C35.0123 60.8901 31.2533 59.6485 28.7256 59.6485C27.4157 59.6485 24.6338 60.3423 23.0752 61.0576L21.918 61.5887L22.0481 59.7407C22.2791 56.4605 20.9192 52.783 18.6803 50.6335C17.13 49.1448 16.7079 48.8797 14.888 48.2506C12.5894 47.4564 9.73284 47.6401 7.91256 48.6995C7.37265 49.0135 7.10138 49.0647 6.89273 48.8911C6.37077 48.457 5.91143 47.1926 5.91143 46.1905C5.91143 45.3016 5.98762 45.1519 6.64883 44.7424C7.52525 44.1994 8.1153 44.1682 8.98428 44.6186C9.68358 44.9812 9.97827 45.7276 9.7624 46.5899C9.52112 47.5536 10.3724 47.2683 11.2348 46.0965C11.9807 45.083 12.0059 43.5798 11.2928 42.6425C10.7387 41.9142 9.2122 41.2128 8.18164 41.2128C7.58765 41.2128 6.61861 41.605 6.04367 42.0782C5.72292 42.3422 5.60623 42.356 5.53091 42.1396C5.14404 41.03 2.31071 38.4817 1.5974 38.6017C1.12011 38.6821 0.898756 38.5346 0.822783 38.0853C0.741775 37.6064 0.736082 37.608 0.631428 38.1402ZM120.065 38.8256C118.906 39.2606 117.344 40.6308 116.782 41.7066C116.396 42.4434 116.371 42.4445 115.561 41.7615C113.776 40.2555 110.128 41.9259 110.128 44.2494C110.128 45.2283 110.865 46.3827 111.81 46.8847C112.462 47.2308 112.49 47.2163 112.371 46.5939C112.12 45.2755 113.019 44.2758 114.441 44.2927C115.508 44.3054 116.039 44.9603 116.039 46.2627C116.039 47.4175 115.561 48.7789 115.091 48.9593C114.95 49.0138 114.095 48.7697 113.192 48.4168C111.736 47.8475 111.328 47.7825 109.58 47.8409C107.908 47.8969 107.394 48.0101 106.187 48.5884C103.422 49.9125 101.182 52.7325 100.37 55.9094C100.116 56.901 100.035 57.9296 100.096 59.3483L100.185 61.3723L99.409 61.0393C97.0442 60.0247 95.7485 59.7565 93.2692 59.7679C91.1779 59.7776 89.3149 60.1108 88.2566 60.6643C87.9428 60.8284 87.6056 60.9632 87.5073 60.9641C87.2002 60.9663 85.7486 62.0963 84.9941 62.9204C84.5972 63.3541 83.5828 64.7138 82.7399 65.9419C80.2481 69.5727 78.7639 70.6176 76.0324 70.6632C75.217 70.6769 74.2049 70.6211 73.7834 70.5395C73.0526 70.3977 73.0373 70.4071 73.455 70.7431C74.6349 71.6926 77.1032 72.5896 78.5509 72.5948C79.4533 72.5981 81.5029 71.8844 82.5266 71.2104C82.956 70.9277 83.5668 70.5278 83.8838 70.3217L84.4601 69.9471L85.0451 70.9477C85.8758 72.3688 86.9471 73.3687 88.5156 74.1873C89.753 74.8332 90.0532 74.8975 91.8461 74.8993C93.7588 74.9013 93.8801 74.8701 95.9839 73.8397C99.4861 72.1243 101.335 72.0134 104.105 73.3533C104.706 73.6439 105.23 73.8489 105.271 73.8087C105.42 73.6588 104.603 72.3225 103.853 71.49C103.426 71.0162 102.527 70.3134 101.856 69.9282C100.846 69.3495 100.338 69.211 98.9225 69.1289C97.9809 69.0743 97.2021 68.968 97.192 68.8932C97.1819 68.8181 97.1484 68.5592 97.1176 68.3177C96.9601 67.085 96.6819 66.4619 95.89 65.5675C95.4122 65.0281 95.0212 64.6633 95.021 64.757C95.021 64.8505 94.73 64.7765 94.3749 64.5924C93.2778 64.0235 91.7323 64.211 90.9677 65.0054C90.097 65.9101 89.7662 66.6881 89.7662 67.8309C89.7662 69.3341 90.2888 69.9811 90.5173 68.7606C90.8801 66.822 93.1654 67.0117 93.9493 69.0453C94.5111 70.5035 93.9081 71.0611 91.7693 71.0611C90.8525 71.0611 90.1992 70.9064 89.3727 70.4936C88.0553 69.8354 87.4839 69.1256 87.0933 67.6624L86.8137 66.6142L87.9069 65.6309C88.5079 65.0902 89.5417 64.3889 90.204 64.0725C91.2826 63.5571 91.6596 63.4981 93.8166 63.506C97.8458 63.5209 101.152 64.6503 103.04 66.6563C104.609 68.3241 107.127 69.7327 109.285 70.1503C112.437 70.76 114.431 70.5809 116.678 69.4866C118.696 68.5043 121.093 65.965 121.618 64.2546C121.71 63.9544 121.884 63.5855 122.004 63.4345C122.479 62.8397 121.667 63.1878 120.676 64.004C119.285 65.1496 118.291 65.7205 116.773 66.2442C114.031 67.1903 110.527 67.0092 108.048 65.7934C105.909 64.7445 104.8 63.5021 104.069 61.3372C103.391 59.3266 103.374 56.8799 104.025 55.1028C105.275 51.6951 109.477 49.8559 112.489 51.3986C113.565 51.9499 114.944 53.1679 114.944 53.567C114.944 53.694 115.078 53.9539 115.242 54.1444C116.217 55.2797 116.077 58.6047 114.987 60.1972C113.464 62.4229 110.479 62.3979 108.998 60.1467C108.207 58.9445 108.755 56.8933 110.023 56.3145C111.3 55.7312 112.88 56.7605 113.074 58.303C113.125 58.7068 113.219 59.0898 113.283 59.1539C113.534 59.4054 113.888 57.9349 113.874 56.6986C113.861 55.605 113.758 55.269 113.232 54.6136C112.451 53.6392 111.739 53.283 110.27 53.1309C108.809 52.9799 107.617 53.5428 106.754 54.792C104.863 57.5262 105.148 60.6491 107.522 63.2295C109.236 65.0924 112.491 65.8015 114.835 64.8228C116.12 64.2864 117.875 62.4431 118.592 60.8787C119.103 59.7638 119.212 59.2118 119.242 57.5908C119.279 55.5674 119.064 54.6259 118.119 52.6741C117.843 52.1042 117.709 51.6038 117.82 51.5623C118.081 51.4653 118.993 49.6388 119.206 48.7846C119.297 48.4225 119.441 46.7435 119.526 45.0536C119.688 41.8425 120.027 40.6354 121.084 39.4974C121.975 38.539 121.559 38.2648 120.065 38.8256ZM94.9253 39.3019C95.0076 39.5183 95.13 39.6401 95.1975 39.5725C95.2649 39.5051 95.1977 39.328 95.0479 39.179C94.8316 38.9639 94.8066 38.9891 94.9253 39.3019ZM80.3821 40.755C80.6665 40.9861 80.9411 41.1331 80.9925 41.082C81.105 40.9699 80.321 40.3518 80.0537 40.3419C79.9501 40.338 80.0979 40.5239 80.3821 40.755ZM3.47505 40.8483C3.64035 41.0489 3.69574 41.2128 3.59809 41.2128C3.50044 41.2128 3.63203 41.4103 3.8906 41.6518C4.14895 41.8932 4.43861 42.0874 4.53385 42.0835C4.62931 42.0793 4.48502 41.8903 4.21332 41.6632C3.94183 41.436 3.81966 41.2168 3.94183 41.1759C4.06422 41.1351 3.94161 40.9626 3.66947 40.7927C3.21626 40.5098 3.20005 40.5147 3.47505 40.8483ZM18.4761 41.0289C18.5439 41.377 19.0479 41.5438 19.0479 41.2181C19.0479 41.0802 18.9577 41.0232 18.8476 41.0914C18.7375 41.1597 18.5971 41.1136 18.5356 40.9892C18.4743 40.8647 18.4474 40.8827 18.4761 41.0289ZM81.3003 41.3129C81.3003 41.4887 81.3842 41.5806 81.4864 41.5172C81.5887 41.4538 81.6158 41.31 81.5464 41.1977C81.3695 40.9106 81.3003 40.9429 81.3003 41.3129ZM19.5587 41.5069C19.5587 41.6555 19.7394 41.7771 19.9603 41.7771C20.181 41.7771 20.3616 41.7525 20.3616 41.7222C20.3616 41.6919 20.181 41.5703 19.9603 41.4518C19.6719 41.2973 19.5587 41.3127 19.5587 41.5069ZM82.1032 41.738C82.1032 41.7854 82.256 41.8831 82.443 41.9551C82.6379 42.0299 82.7256 41.993 82.649 41.8688C82.5205 41.6601 82.1032 41.5602 82.1032 41.738ZM101.561 42.6943C101.289 43.0423 101.297 43.05 101.644 42.7772C101.854 42.6115 102.027 42.4386 102.027 42.3931C102.027 42.2125 101.847 42.3286 101.561 42.6943ZM54.5165 43.8335C54.5165 43.9472 54.614 44.1004 54.7331 44.1742C54.857 44.251 54.8938 44.163 54.8191 43.9676C54.6735 43.5875 54.5165 43.5179 54.5165 43.8335ZM56.0653 44.5951C55.8678 44.8337 55.8742 44.9425 56.0931 45.0692C56.2497 45.1596 56.3044 45.1528 56.2153 45.054C56.126 44.9553 56.1627 44.7419 56.2967 44.58C56.431 44.418 56.4914 44.2854 56.4312 44.2854C56.371 44.2854 56.2063 44.4248 56.0653 44.5951ZM65.9744 44.605C65.9744 44.7808 66.0583 44.8727 66.1605 44.8093C66.2628 44.7459 66.2899 44.6021 66.2205 44.4898C66.0436 44.2027 65.9744 44.235 65.9744 44.605ZM78.1622 47.6605C78.1622 47.7059 78.3348 47.8789 78.5454 48.0446C78.8926 48.3174 78.9003 48.3097 78.6281 47.9616C78.342 47.596 78.1622 47.4799 78.1622 47.6605ZM80.8835 48.4554C80.8835 48.7396 80.9575 48.8138 81.0991 48.6718C81.241 48.5296 81.241 48.3812 81.0991 48.239C80.9575 48.097 80.8835 48.1712 80.8835 48.4554ZM54.1881 49.1138C54.2625 49.2345 54.3668 49.3333 54.42 49.3333C54.4732 49.3333 54.5165 49.2345 54.5165 49.1138C54.5165 48.9931 54.4121 48.8944 54.2847 48.8944C54.1572 48.8944 54.1137 48.9931 54.1881 49.1138ZM83.7188 49.197C83.7466 49.3858 83.8302 49.6013 83.9049 49.6763C83.9797 49.7512 84.0183 49.6581 83.9907 49.4696C83.9629 49.2809 83.8793 49.0653 83.8046 48.9903C83.7297 48.9154 83.6912 49.0085 83.7188 49.197ZM15.8873 49.708C15.7686 50.0207 15.7936 50.0459 16.0099 49.8309C16.1597 49.6818 16.2269 49.5047 16.1594 49.4373C16.092 49.3697 15.9696 49.4916 15.8873 49.708ZM105.721 50.1563C105.449 50.5044 105.456 50.5121 105.804 50.2393C106.014 50.0736 106.187 49.9006 106.187 49.8552C106.187 49.6746 106.007 49.7907 105.721 50.1563ZM83.5511 50.2514C83.6143 50.3539 83.7577 50.3811 83.8698 50.3115C84.1562 50.1342 84.124 50.0648 83.7549 50.0648C83.5795 50.0648 83.4878 50.1489 83.5511 50.2514ZM16.6698 50.7232C16.4887 50.9421 16.5006 51.016 16.716 51.016C16.8747 51.016 17.0046 50.8843 17.0046 50.7232C17.0046 50.5624 16.9838 50.4307 16.9584 50.4307C16.933 50.4307 16.8031 50.5624 16.6698 50.7232ZM114.201 51.0524C114.139 51.1532 114.227 51.2355 114.397 51.2355C114.567 51.2355 114.655 51.1532 114.594 51.0524C114.532 50.9519 114.443 50.8696 114.397 50.8696C114.351 50.8696 114.263 50.9519 114.201 51.0524ZM76.356 52.7707C76.5066 52.8317 76.7529 52.8317 76.9033 52.7707C77.054 52.7099 76.9307 52.6601 76.6296 52.6601C76.3286 52.6601 76.2056 52.7099 76.356 52.7707ZM117.117 52.6803C116.999 53.0674 116.978 53.5127 117.084 53.4074C117.243 53.2472 117.355 52.6254 117.224 52.6254C117.174 52.6254 117.126 52.6502 117.117 52.6803ZM19.6047 53.4882C19.5353 53.6005 19.5804 53.7555 19.7048 53.8325C19.8291 53.9095 19.8742 54.0645 19.8048 54.1769C19.7356 54.2892 19.7834 54.3812 19.9108 54.3812C20.2156 54.3812 20.2086 54.009 19.9003 53.818C19.7315 53.7133 19.7479 53.6108 19.955 53.4792C20.1538 53.353 20.1659 53.2895 19.9914 53.2871C19.848 53.2854 19.6739 53.3758 19.6047 53.4882ZM76.3106 55.2439C76.2412 55.3563 76.2999 55.5196 76.4409 55.6069C76.5937 55.7018 76.6388 55.671 76.5526 55.5312C76.4731 55.4022 76.5318 55.2466 76.6831 55.1853C76.8799 55.1059 76.8838 55.0692 76.6973 55.057C76.5539 55.0475 76.3798 55.1316 76.3106 55.2439ZM101.895 55.5334C101.809 55.6844 101.818 55.7345 101.917 55.6451C102.016 55.5556 102.253 55.605 102.445 55.7549C102.753 55.9959 102.759 55.9829 102.493 55.6432C102.135 55.1853 102.099 55.1788 101.895 55.5334ZM15.3259 56.137C15.1287 56.2647 15.1015 56.351 15.2583 56.3532C15.4017 56.3549 15.5799 56.2577 15.6543 56.137C15.8223 55.8644 15.7465 55.8644 15.3259 56.137ZM41.28 57.4387C41.2105 57.551 41.2377 57.6948 41.3399 57.7582C41.4422 57.8217 41.526 57.7297 41.526 57.5539C41.526 57.1839 41.4569 57.1516 41.28 57.4387ZM81.118 58.1122C81.1924 58.2329 81.2966 58.3317 81.3498 58.3317C81.403 58.3317 81.4464 58.2329 81.4464 58.1122C81.4464 57.9915 81.3419 57.8928 81.2145 57.8928C81.0871 57.8928 81.0435 57.9915 81.118 58.1122ZM45.2209 61.6087C45.1515 61.721 45.1787 61.8648 45.2809 61.9282C45.3831 61.9916 45.467 61.8997 45.467 61.7239C45.467 61.3539 45.3978 61.3216 45.2209 61.6087ZM24.4368 61.8834C24.5 61.9859 24.6434 62.0132 24.7555 61.9436C25.0419 61.7662 25.0097 61.6969 24.6406 61.6969C24.4652 61.6969 24.3735 61.781 24.4368 61.8834ZM23.0627 62.1176C22.6999 62.6999 22.7929 62.9878 23.2192 62.6011C23.4482 62.3935 23.5827 62.138 23.5181 62.0333C23.3596 61.7761 23.2645 61.7937 23.0627 62.1176ZM69.7345 62.0603C69.6579 62.1846 69.7457 62.2214 69.9405 62.1466C70.3197 62.0006 70.3891 61.8433 70.0743 61.8433C69.9609 61.8433 69.8081 61.9409 69.7345 62.0603ZM99.7506 62.465C99.6886 62.5658 99.7768 62.6481 99.947 62.6481C100.117 62.6481 100.205 62.5658 100.143 62.465C100.081 62.3645 99.9929 62.2822 99.947 62.2822C99.901 62.2822 99.8125 62.3645 99.7506 62.465ZM35.811 62.7855C35.8933 63.0019 36.0157 63.1237 36.0832 63.0561C36.1506 62.9887 36.0834 62.8116 35.9336 62.6626C35.7173 62.4475 35.6923 62.4727 35.811 62.7855ZM70.1777 62.9297C70.1069 63.0442 70.249 63.2453 70.4931 63.3763C70.7373 63.5073 70.9446 63.5863 70.954 63.5519C71.1239 62.9165 71.0974 62.6922 70.8783 62.9119C70.5722 63.2187 70.205 63.2402 70.3898 62.9406C70.4642 62.8199 70.4759 62.7212 70.4156 62.7212C70.3554 62.7212 70.2484 62.8149 70.1777 62.9297ZM102.027 63.3796C101.83 63.5073 101.802 63.5936 101.959 63.5958C102.103 63.5975 102.281 63.5003 102.355 63.3796C102.523 63.107 102.447 63.107 102.027 63.3796ZM22.0284 63.6392C22.0917 63.7417 22.2351 63.7689 22.3472 63.6994C22.6336 63.522 22.6014 63.4527 22.2322 63.4527C22.0569 63.4527 21.9651 63.5367 22.0284 63.6392ZM37.0012 64.038C37.1301 64.2794 37.2847 64.477 37.3449 64.477C37.4051 64.477 37.3491 64.2794 37.2201 64.038C37.0912 63.7966 36.9366 63.5991 36.8764 63.5991C36.8162 63.5991 36.8722 63.7966 37.0012 64.038ZM30.1139 65.5592C30.0445 65.6715 30.0717 65.8153 30.1739 65.8787C30.2762 65.9422 30.36 65.8502 30.36 65.6744C30.36 65.3044 30.2908 65.2721 30.1139 65.5592ZM91.0798 66.0133C90.8992 66.1302 90.8499 66.2259 90.9703 66.2259C91.0908 66.2259 91.3371 66.1302 91.5177 66.0133C91.6983 65.8963 91.7476 65.8006 91.6272 65.8006C91.5067 65.8006 91.2604 65.8963 91.0798 66.0133ZM5.20118 67.2564C5.35247 67.3176 5.41115 67.4732 5.33167 67.6022C5.24541 67.7421 5.29051 67.7728 5.44333 67.678C5.74482 67.4914 5.56375 67.103 5.18695 67.128C5.00041 67.1403 5.00435 67.1769 5.20118 67.2564ZM71.7849 68.3726C71.5191 68.7123 71.5246 68.7253 71.8331 68.4843C72.0249 68.3344 72.2622 68.285 72.3607 68.3746C72.4592 68.4639 72.4691 68.4139 72.3824 68.2629C72.179 67.9082 72.1431 67.9148 71.7849 68.3726ZM106.625 68.0715C106.625 68.1169 106.797 68.2899 107.008 68.4556C107.355 68.7284 107.363 68.7207 107.091 68.3726C106.804 68.007 106.625 67.8909 106.625 68.0715ZM116.039 68.6469C115.842 68.7747 115.815 68.8609 115.972 68.8631C116.115 68.8649 116.293 68.7677 116.368 68.6469C116.536 68.3744 116.46 68.3744 116.039 68.6469ZM80.6711 69.9785C80.5916 70.1071 80.5737 70.2596 80.631 70.3171C80.6884 70.3746 80.7937 70.2693 80.8651 70.083C81.0131 69.6962 80.887 69.6282 80.6711 69.9785ZM56.827 70.1646C56.7565 70.2789 56.7922 70.4302 56.9063 70.5008C57.0203 70.5715 57.1712 70.5357 57.2417 70.4214C57.3122 70.307 57.2765 70.1558 57.1624 70.0852C57.0484 70.0145 56.8975 70.0503 56.827 70.1646ZM70.1724 70.1808C70.0958 70.3051 70.1836 70.3419 70.3784 70.2671C70.7576 70.1211 70.827 69.9638 70.5122 69.9638C70.3988 69.9638 70.246 70.0615 70.1724 70.1808ZM41.9414 70.467C42.0237 70.6834 42.1461 70.8052 42.2135 70.7376C42.281 70.6703 42.2137 70.4932 42.064 70.3441C41.8477 70.129 41.8227 70.1543 41.9414 70.467ZM20.2674 70.8169C20.2015 70.9238 20.3189 71.1461 20.5282 71.3107C20.8645 71.5749 20.8772 71.569 20.6372 71.2604C20.4877 71.0682 20.4301 70.8461 20.5094 70.7666C20.5886 70.6872 20.5937 70.6222 20.5205 70.6222C20.4472 70.6222 20.3334 70.7098 20.2674 70.8169ZM57.5817 71.1441C57.5817 71.1895 57.7542 71.3625 57.9649 71.5282C58.3121 71.801 58.3198 71.7933 58.0476 71.4452C57.7615 71.0796 57.5817 70.9635 57.5817 71.1441ZM102.814 71.7534C102.887 71.8717 103.001 71.9131 103.069 71.8458C103.136 71.7784 103.348 71.8412 103.539 71.9851C103.83 72.2037 103.843 72.1965 103.616 71.9417C103.305 71.5914 102.614 71.4292 102.814 71.7534Z" fill="#D2D2D2"/>
</svg>
